<svg width="4682" height="984" viewBox="0 0 4682 984" fill="none" xmlns="http://www.w3.org/2000/svg">
<rect x="1793" y="470" width="1031" height="90" fill="url(#paint0_linear_255_32552)" fill-opacity="0.4"/>
<rect width="4788" height="462" transform="matrix(1 0 0 -1 -86 1077)" fill="#342942"/>
<rect x="-86" y="585" width="4788" height="30" fill="#3B2954"/>
<path d="M4700.82 584.943C4700.99 583.639 4702 582.504 4702 581.143C4702 551.929 4666.81 528.217 4623.45 528.217C4600.13 528.217 4579.83 535.365 4565.44 546.199C4550.11 533.549 4527.72 524.927 4501.62 524.927C4472.66 524.927 4448.41 535.478 4433.42 550.511C4419.11 537.35 4397.13 528.217 4371.12 528.217C4352.34 528.217 4335.76 533.266 4322.29 540.697C4304.27 525.154 4276.57 515 4245.08 515C4216.79 515 4191.45 523.225 4173.52 536.159C4161.9 531.621 4149.1 528.274 4134.7 528.274C4120.3 528.274 4108.6 531.337 4097.24 535.535C4083.85 529.408 4068.61 524.984 4051.18 524.984C4027.02 524.984 4005.63 532.131 3990.39 543.193C3976.25 534.06 3957.22 528.274 3936.09 528.274C3909.23 528.274 3886.67 537.917 3872.52 551.815C3859.05 539.846 3838.76 531.564 3814.76 531.564C3790.77 531.564 3771.24 539.449 3757.77 550.964C3742.86 535.648 3718.36 524.927 3689.15 524.927C3672.81 524.927 3658.42 528.898 3645.54 534.4C3634.93 530.77 3623.31 528.274 3610.59 528.274C3589.8 528.274 3571.19 533.947 3557.13 542.796C3544.59 536.159 3529.52 531.564 3512.34 531.564C3491.29 531.564 3472.52 537.69 3459.13 547.22C3444.73 535.818 3424.02 528.217 3400.11 528.217C3376.2 528.217 3356.75 535.194 3342.35 545.916C3329.05 537.066 3310.78 531.564 3290.66 531.564C3274.58 531.564 3260.43 535.762 3248.31 541.661C3230.29 525.551 3202.09 515 3169.92 515C3142.14 515 3117.22 522.828 3099.29 535.308C3090.7 532.982 3081.44 531.564 3071.67 531.564C3031 531.564 2998 553.744 2998 581.199C2998 582.561 2999.01 583.639 2999.18 585H4700.91L4700.82 584.943Z" fill="#9589A4"/>
<path d="M4700.82 584.943C4700.99 583.639 4702 582.504 4702 581.143C4702 551.929 4666.81 528.217 4623.45 528.217C4600.13 528.217 4579.83 535.365 4565.44 546.199C4550.11 533.549 4527.72 524.927 4501.62 524.927C4472.66 524.927 4448.41 535.478 4433.42 550.511C4419.11 537.35 4397.13 528.217 4371.12 528.217C4352.34 528.217 4335.76 533.266 4322.29 540.697C4304.27 525.154 4276.57 515 4245.08 515C4216.79 515 4191.45 523.225 4173.52 536.159C4161.9 531.621 4149.1 528.274 4134.7 528.274C4120.3 528.274 4108.6 531.337 4097.24 535.535C4083.85 529.408 4068.61 524.984 4051.18 524.984C4027.02 524.984 4005.63 532.131 3990.39 543.193C3976.25 534.06 3957.22 528.274 3936.09 528.274C3909.23 528.274 3886.67 537.917 3872.52 551.815C3859.05 539.846 3838.76 531.564 3814.76 531.564C3790.77 531.564 3771.24 539.449 3757.77 550.964C3742.86 535.648 3718.36 524.927 3689.15 524.927C3672.81 524.927 3658.42 528.898 3645.54 534.4C3634.93 530.77 3623.31 528.274 3610.59 528.274C3589.8 528.274 3571.19 533.947 3557.13 542.796C3544.59 536.159 3529.52 531.564 3512.34 531.564C3491.29 531.564 3472.52 537.69 3459.13 547.22C3444.73 535.818 3424.02 528.217 3400.11 528.217C3376.2 528.217 3356.75 535.194 3342.35 545.916C3329.05 537.066 3310.78 531.564 3290.66 531.564C3274.58 531.564 3260.43 535.762 3248.31 541.661C3230.29 525.551 3202.09 515 3169.92 515C3142.14 515 3117.22 522.828 3099.29 535.308C3090.7 532.982 3081.44 531.564 3071.67 531.564C3031 531.564 2998 553.744 2998 581.199C2998 582.561 2999.01 583.639 2999.18 585H4700.91L4700.82 584.943Z" fill="#9589A4"/>
<path d="M4700.82 584.943C4700.99 583.639 4702 582.504 4702 581.143C4702 551.929 4666.81 528.217 4623.45 528.217C4600.13 528.217 4579.83 535.365 4565.44 546.199C4550.11 533.549 4527.72 524.927 4501.62 524.927C4472.66 524.927 4448.41 535.478 4433.42 550.511C4419.11 537.35 4397.13 528.217 4371.12 528.217C4352.34 528.217 4335.76 533.266 4322.29 540.697C4304.27 525.154 4276.57 515 4245.08 515C4216.79 515 4191.45 523.225 4173.52 536.159C4161.9 531.621 4149.1 528.274 4134.7 528.274C4120.3 528.274 4108.6 531.337 4097.24 535.535C4083.85 529.408 4068.61 524.984 4051.18 524.984C4027.02 524.984 4005.63 532.131 3990.39 543.193C3976.25 534.06 3957.22 528.274 3936.09 528.274C3909.23 528.274 3886.67 537.917 3872.52 551.815C3859.05 539.846 3838.76 531.564 3814.76 531.564C3790.77 531.564 3771.24 539.449 3757.77 550.964C3742.86 535.648 3718.36 524.927 3689.15 524.927C3672.81 524.927 3658.42 528.898 3645.54 534.4C3634.93 530.77 3623.31 528.274 3610.59 528.274C3589.8 528.274 3571.19 533.947 3557.13 542.796C3544.59 536.159 3529.52 531.564 3512.34 531.564C3491.29 531.564 3472.52 537.69 3459.13 547.22C3444.73 535.818 3424.02 528.217 3400.11 528.217C3376.2 528.217 3356.75 535.194 3342.35 545.916C3329.05 537.066 3310.78 531.564 3290.66 531.564C3274.58 531.564 3260.43 535.762 3248.31 541.661C3230.29 525.551 3202.09 515 3169.92 515C3142.14 515 3117.22 522.828 3099.29 535.308C3090.7 532.982 3081.44 531.564 3071.67 531.564C3031 531.564 2998 553.744 2998 581.199C2998 582.561 2999.01 583.639 2999.18 585H4700.91L4700.82 584.943Z" fill="#9589A4"/>
<path d="M4700.82 584.943C4700.99 583.639 4702 582.504 4702 581.143C4702 551.929 4666.81 528.217 4623.45 528.217C4600.13 528.217 4579.83 535.365 4565.44 546.199C4550.11 533.549 4527.72 524.927 4501.62 524.927C4472.66 524.927 4448.41 535.478 4433.42 550.511C4419.11 537.35 4397.13 528.217 4371.12 528.217C4352.34 528.217 4335.76 533.266 4322.29 540.697C4304.27 525.154 4276.57 515 4245.08 515C4216.79 515 4191.45 523.225 4173.52 536.159C4161.9 531.621 4149.1 528.274 4134.7 528.274C4120.3 528.274 4108.6 531.337 4097.24 535.535C4083.85 529.408 4068.61 524.984 4051.18 524.984C4027.02 524.984 4005.63 532.131 3990.39 543.193C3976.25 534.06 3957.22 528.274 3936.09 528.274C3909.23 528.274 3886.67 537.917 3872.52 551.815C3859.05 539.846 3838.76 531.564 3814.76 531.564C3790.77 531.564 3771.24 539.449 3757.77 550.964C3742.86 535.648 3718.36 524.927 3689.15 524.927C3672.81 524.927 3658.42 528.898 3645.54 534.4C3634.93 530.77 3623.31 528.274 3610.59 528.274C3589.8 528.274 3571.19 533.947 3557.13 542.796C3544.59 536.159 3529.52 531.564 3512.34 531.564C3491.29 531.564 3472.52 537.69 3459.13 547.22C3444.73 535.818 3424.02 528.217 3400.11 528.217C3376.2 528.217 3356.75 535.194 3342.35 545.916C3329.05 537.066 3310.78 531.564 3290.66 531.564C3274.58 531.564 3260.43 535.762 3248.31 541.661C3230.29 525.551 3202.09 515 3169.92 515C3142.14 515 3117.22 522.828 3099.29 535.308C3090.7 532.982 3081.44 531.564 3071.67 531.564C3031 531.564 2998 553.744 2998 581.199C2998 582.561 2999.01 583.639 2999.18 585H4700.91L4700.82 584.943Z" fill="#9589A4"/>
<path d="M1769.82 584.943C1769.99 583.639 1771 582.504 1771 581.143C1771 551.929 1735.81 528.217 1692.45 528.217C1669.13 528.217 1648.83 535.365 1634.44 546.199C1619.11 533.549 1596.72 524.927 1570.62 524.927C1541.66 524.927 1517.41 535.478 1502.42 550.511C1488.11 537.35 1466.13 528.217 1440.12 528.217C1421.34 528.217 1404.76 533.266 1391.29 540.697C1373.27 525.154 1345.57 515 1314.08 515C1285.79 515 1260.45 523.225 1242.52 536.159C1230.9 531.621 1218.1 528.274 1203.7 528.274C1189.3 528.274 1177.6 531.337 1166.24 535.535C1152.85 529.408 1137.61 524.984 1120.18 524.984C1096.02 524.984 1074.63 532.131 1059.39 543.193C1045.25 534.06 1026.22 528.274 1005.09 528.274C978.23 528.274 955.667 537.917 941.522 551.815C928.051 539.846 907.76 531.564 883.765 531.564C859.77 531.564 840.237 539.449 826.766 550.964C811.863 535.648 787.363 524.927 758.148 524.927C741.814 524.927 727.417 528.898 714.535 534.4C703.927 530.77 692.308 528.274 679.595 528.274C658.799 528.274 640.192 533.947 626.132 542.796C613.587 536.159 598.516 531.564 581.34 531.564C560.292 531.564 541.517 537.69 528.13 547.22C513.733 535.818 493.021 528.217 469.11 528.217C445.199 528.217 425.75 535.194 411.353 545.916C398.05 537.066 379.78 531.564 359.658 531.564C343.577 531.564 329.432 535.762 317.308 541.661C299.291 525.551 271.086 515 238.924 515C211.14 515 186.219 522.828 168.285 535.308C159.697 532.982 150.436 531.564 140.67 531.564C100.004 531.564 67 553.744 67 581.199C67 582.561 68.0103 583.639 68.1787 585H1769.91L1769.82 584.943Z" fill="#9589A4"/>
<path d="M1769.82 584.943C1769.99 583.639 1771 582.504 1771 581.143C1771 551.929 1735.81 528.217 1692.45 528.217C1669.13 528.217 1648.83 535.365 1634.44 546.199C1619.11 533.549 1596.72 524.927 1570.62 524.927C1541.66 524.927 1517.41 535.478 1502.42 550.511C1488.11 537.35 1466.13 528.217 1440.12 528.217C1421.34 528.217 1404.76 533.266 1391.29 540.697C1373.27 525.154 1345.57 515 1314.08 515C1285.79 515 1260.45 523.225 1242.52 536.159C1230.9 531.621 1218.1 528.274 1203.7 528.274C1189.3 528.274 1177.6 531.337 1166.24 535.535C1152.85 529.408 1137.61 524.984 1120.18 524.984C1096.02 524.984 1074.63 532.131 1059.39 543.193C1045.25 534.06 1026.22 528.274 1005.09 528.274C978.23 528.274 955.667 537.917 941.522 551.815C928.051 539.846 907.76 531.564 883.765 531.564C859.77 531.564 840.237 539.449 826.766 550.964C811.863 535.648 787.363 524.927 758.148 524.927C741.814 524.927 727.417 528.898 714.535 534.4C703.927 530.77 692.308 528.274 679.595 528.274C658.799 528.274 640.192 533.947 626.132 542.796C613.587 536.159 598.516 531.564 581.34 531.564C560.292 531.564 541.517 537.69 528.13 547.22C513.733 535.818 493.021 528.217 469.11 528.217C445.199 528.217 425.75 535.194 411.353 545.916C398.05 537.066 379.78 531.564 359.658 531.564C343.577 531.564 329.432 535.762 317.308 541.661C299.291 525.551 271.086 515 238.924 515C211.14 515 186.219 522.828 168.285 535.308C159.697 532.982 150.436 531.564 140.67 531.564C100.004 531.564 67 553.744 67 581.199C67 582.561 68.0103 583.639 68.1787 585H1769.91L1769.82 584.943Z" fill="#9589A4"/>
<path d="M1769.82 584.943C1769.99 583.639 1771 582.504 1771 581.143C1771 551.929 1735.81 528.217 1692.45 528.217C1669.13 528.217 1648.83 535.365 1634.44 546.199C1619.11 533.549 1596.72 524.927 1570.62 524.927C1541.66 524.927 1517.41 535.478 1502.42 550.511C1488.11 537.35 1466.13 528.217 1440.12 528.217C1421.34 528.217 1404.76 533.266 1391.29 540.697C1373.27 525.154 1345.57 515 1314.08 515C1285.79 515 1260.45 523.225 1242.52 536.159C1230.9 531.621 1218.1 528.274 1203.7 528.274C1189.3 528.274 1177.6 531.337 1166.24 535.535C1152.85 529.408 1137.61 524.984 1120.18 524.984C1096.02 524.984 1074.63 532.131 1059.39 543.193C1045.25 534.06 1026.22 528.274 1005.09 528.274C978.23 528.274 955.667 537.917 941.522 551.815C928.051 539.846 907.76 531.564 883.765 531.564C859.77 531.564 840.237 539.449 826.766 550.964C811.863 535.648 787.363 524.927 758.148 524.927C741.814 524.927 727.417 528.898 714.535 534.4C703.927 530.77 692.308 528.274 679.595 528.274C658.799 528.274 640.192 533.947 626.132 542.796C613.587 536.159 598.516 531.564 581.34 531.564C560.292 531.564 541.517 537.69 528.13 547.22C513.733 535.818 493.021 528.217 469.11 528.217C445.199 528.217 425.75 535.194 411.353 545.916C398.05 537.066 379.78 531.564 359.658 531.564C343.577 531.564 329.432 535.762 317.308 541.661C299.291 525.551 271.086 515 238.924 515C211.14 515 186.219 522.828 168.285 535.308C159.697 532.982 150.436 531.564 140.67 531.564C100.004 531.564 67 553.744 67 581.199C67 582.561 68.0103 583.639 68.1787 585H1769.91L1769.82 584.943Z" fill="#9589A4"/>
<path d="M1769.82 584.943C1769.99 583.639 1771 582.504 1771 581.143C1771 551.929 1735.81 528.217 1692.45 528.217C1669.13 528.217 1648.83 535.365 1634.44 546.199C1619.11 533.549 1596.72 524.927 1570.62 524.927C1541.66 524.927 1517.41 535.478 1502.42 550.511C1488.11 537.35 1466.13 528.217 1440.12 528.217C1421.34 528.217 1404.76 533.266 1391.29 540.697C1373.27 525.154 1345.57 515 1314.08 515C1285.79 515 1260.45 523.225 1242.52 536.159C1230.9 531.621 1218.1 528.274 1203.7 528.274C1189.3 528.274 1177.6 531.337 1166.24 535.535C1152.85 529.408 1137.61 524.984 1120.18 524.984C1096.02 524.984 1074.63 532.131 1059.39 543.193C1045.25 534.06 1026.22 528.274 1005.09 528.274C978.23 528.274 955.667 537.917 941.522 551.815C928.051 539.846 907.76 531.564 883.765 531.564C859.77 531.564 840.237 539.449 826.766 550.964C811.863 535.648 787.363 524.927 758.148 524.927C741.814 524.927 727.417 528.898 714.535 534.4C703.927 530.77 692.308 528.274 679.595 528.274C658.799 528.274 640.192 533.947 626.132 542.796C613.587 536.159 598.516 531.564 581.34 531.564C560.292 531.564 541.517 537.69 528.13 547.22C513.733 535.818 493.021 528.217 469.11 528.217C445.199 528.217 425.75 535.194 411.353 545.916C398.05 537.066 379.78 531.564 359.658 531.564C343.577 531.564 329.432 535.762 317.308 541.661C299.291 525.551 271.086 515 238.924 515C211.14 515 186.219 522.828 168.285 535.308C159.697 532.982 150.436 531.564 140.67 531.564C100.004 531.564 67 553.744 67 581.199C67 582.561 68.0103 583.639 68.1787 585H1769.91L1769.82 584.943Z" fill="#9589A4"/>
<path d="M3269.82 584.943C3269.99 583.639 3271 582.504 3271 581.143C3271 551.929 3235.81 528.217 3192.45 528.217C3169.13 528.217 3148.83 535.365 3134.44 546.199C3119.11 533.549 3096.72 524.927 3070.62 524.927C3041.66 524.927 3017.41 535.478 3002.42 550.511C2988.11 537.35 2966.13 528.217 2940.12 528.217C2921.34 528.217 2904.76 533.266 2891.29 540.697C2873.27 525.154 2845.57 515 2814.08 515C2785.79 515 2760.45 523.225 2742.52 536.159C2730.9 531.621 2718.1 528.274 2703.7 528.274C2689.3 528.274 2677.6 531.337 2666.24 535.535C2652.85 529.408 2637.61 524.984 2620.18 524.984C2596.02 524.984 2574.63 532.131 2559.39 543.193C2545.25 534.06 2526.22 528.274 2505.09 528.274C2478.23 528.274 2455.67 537.917 2441.52 551.815C2428.05 539.846 2407.76 531.564 2383.76 531.564C2359.77 531.564 2340.24 539.449 2326.77 550.964C2311.86 535.648 2287.36 524.927 2258.15 524.927C2241.81 524.927 2227.42 528.898 2214.54 534.4C2203.93 530.77 2192.31 528.274 2179.59 528.274C2158.8 528.274 2140.19 533.947 2126.13 542.796C2113.59 536.159 2098.52 531.564 2081.34 531.564C2060.29 531.564 2041.52 537.69 2028.13 547.22C2013.73 535.818 1993.02 528.217 1969.11 528.217C1945.2 528.217 1925.75 535.194 1911.35 545.916C1898.05 537.066 1879.78 531.564 1859.66 531.564C1843.58 531.564 1829.43 535.762 1817.31 541.661C1799.29 525.551 1771.09 515 1738.92 515C1711.14 515 1686.22 522.828 1668.29 535.308C1659.7 532.982 1650.44 531.564 1640.67 531.564C1600 531.564 1567 553.744 1567 581.199C1567 582.561 1568.01 583.639 1568.18 585H3269.91L3269.82 584.943Z" fill="#9589A4"/>
<path d="M3269.82 584.943C3269.99 583.639 3271 582.504 3271 581.143C3271 551.929 3235.81 528.217 3192.45 528.217C3169.13 528.217 3148.83 535.365 3134.44 546.199C3119.11 533.549 3096.72 524.927 3070.62 524.927C3041.66 524.927 3017.41 535.478 3002.42 550.511C2988.11 537.35 2966.13 528.217 2940.12 528.217C2921.34 528.217 2904.76 533.266 2891.29 540.697C2873.27 525.154 2845.57 515 2814.08 515C2785.79 515 2760.45 523.225 2742.52 536.159C2730.9 531.621 2718.1 528.274 2703.7 528.274C2689.3 528.274 2677.6 531.337 2666.24 535.535C2652.85 529.408 2637.61 524.984 2620.18 524.984C2596.02 524.984 2574.63 532.131 2559.39 543.193C2545.25 534.06 2526.22 528.274 2505.09 528.274C2478.23 528.274 2455.67 537.917 2441.52 551.815C2428.05 539.846 2407.76 531.564 2383.76 531.564C2359.77 531.564 2340.24 539.449 2326.77 550.964C2311.86 535.648 2287.36 524.927 2258.15 524.927C2241.81 524.927 2227.42 528.898 2214.54 534.4C2203.93 530.77 2192.31 528.274 2179.59 528.274C2158.8 528.274 2140.19 533.947 2126.13 542.796C2113.59 536.159 2098.52 531.564 2081.34 531.564C2060.29 531.564 2041.52 537.69 2028.13 547.22C2013.73 535.818 1993.02 528.217 1969.11 528.217C1945.2 528.217 1925.75 535.194 1911.35 545.916C1898.05 537.066 1879.78 531.564 1859.66 531.564C1843.58 531.564 1829.43 535.762 1817.31 541.661C1799.29 525.551 1771.09 515 1738.92 515C1711.14 515 1686.22 522.828 1668.29 535.308C1659.7 532.982 1650.44 531.564 1640.67 531.564C1600 531.564 1567 553.744 1567 581.199C1567 582.561 1568.01 583.639 1568.18 585H3269.91L3269.82 584.943Z" fill="#9589A4"/>
<path d="M3269.82 584.943C3269.99 583.639 3271 582.504 3271 581.143C3271 551.929 3235.81 528.217 3192.45 528.217C3169.13 528.217 3148.83 535.365 3134.44 546.199C3119.11 533.549 3096.72 524.927 3070.62 524.927C3041.66 524.927 3017.41 535.478 3002.42 550.511C2988.11 537.35 2966.13 528.217 2940.12 528.217C2921.34 528.217 2904.76 533.266 2891.29 540.697C2873.27 525.154 2845.57 515 2814.08 515C2785.79 515 2760.45 523.225 2742.52 536.159C2730.9 531.621 2718.1 528.274 2703.7 528.274C2689.3 528.274 2677.6 531.337 2666.24 535.535C2652.85 529.408 2637.61 524.984 2620.18 524.984C2596.02 524.984 2574.63 532.131 2559.39 543.193C2545.25 534.06 2526.22 528.274 2505.09 528.274C2478.23 528.274 2455.67 537.917 2441.52 551.815C2428.05 539.846 2407.76 531.564 2383.76 531.564C2359.77 531.564 2340.24 539.449 2326.77 550.964C2311.86 535.648 2287.36 524.927 2258.15 524.927C2241.81 524.927 2227.42 528.898 2214.54 534.4C2203.93 530.77 2192.31 528.274 2179.59 528.274C2158.8 528.274 2140.19 533.947 2126.13 542.796C2113.59 536.159 2098.52 531.564 2081.34 531.564C2060.29 531.564 2041.52 537.69 2028.13 547.22C2013.73 535.818 1993.02 528.217 1969.11 528.217C1945.2 528.217 1925.75 535.194 1911.35 545.916C1898.05 537.066 1879.78 531.564 1859.66 531.564C1843.58 531.564 1829.43 535.762 1817.31 541.661C1799.29 525.551 1771.09 515 1738.92 515C1711.14 515 1686.22 522.828 1668.29 535.308C1659.7 532.982 1650.44 531.564 1640.67 531.564C1600 531.564 1567 553.744 1567 581.199C1567 582.561 1568.01 583.639 1568.18 585H3269.91L3269.82 584.943Z" fill="#9589A4"/>
<path d="M3269.82 584.943C3269.99 583.639 3271 582.504 3271 581.143C3271 551.929 3235.81 528.217 3192.45 528.217C3169.13 528.217 3148.83 535.365 3134.44 546.199C3119.11 533.549 3096.72 524.927 3070.62 524.927C3041.66 524.927 3017.41 535.478 3002.42 550.511C2988.11 537.35 2966.13 528.217 2940.12 528.217C2921.34 528.217 2904.76 533.266 2891.29 540.697C2873.27 525.154 2845.57 515 2814.08 515C2785.79 515 2760.45 523.225 2742.52 536.159C2730.9 531.621 2718.1 528.274 2703.7 528.274C2689.3 528.274 2677.6 531.337 2666.24 535.535C2652.85 529.408 2637.61 524.984 2620.18 524.984C2596.02 524.984 2574.63 532.131 2559.39 543.193C2545.25 534.06 2526.22 528.274 2505.09 528.274C2478.23 528.274 2455.67 537.917 2441.52 551.815C2428.05 539.846 2407.76 531.564 2383.76 531.564C2359.77 531.564 2340.24 539.449 2326.77 550.964C2311.86 535.648 2287.36 524.927 2258.15 524.927C2241.81 524.927 2227.42 528.898 2214.54 534.4C2203.93 530.77 2192.31 528.274 2179.59 528.274C2158.8 528.274 2140.19 533.947 2126.13 542.796C2113.59 536.159 2098.52 531.564 2081.34 531.564C2060.29 531.564 2041.52 537.69 2028.13 547.22C2013.73 535.818 1993.02 528.217 1969.11 528.217C1945.2 528.217 1925.75 535.194 1911.35 545.916C1898.05 537.066 1879.78 531.564 1859.66 531.564C1843.58 531.564 1829.43 535.762 1817.31 541.661C1799.29 525.551 1771.09 515 1738.92 515C1711.14 515 1686.22 522.828 1668.29 535.308C1659.7 532.982 1650.44 531.564 1640.67 531.564C1600 531.564 1567 553.744 1567 581.199C1567 582.561 1568.01 583.639 1568.18 585H3269.91L3269.82 584.943Z" fill="#9589A4"/>
<path d="M1275.21 321.06C1276.63 321.376 1277.89 321.91 1279.22 322.517C1279.62 322.701 1280.02 322.884 1280.43 323.066C1280.6 323.147 1280.78 323.228 1280.96 323.311C1281.47 323.539 1281.47 323.539 1282.15 323.734C1282.16 323.891 1282.16 324.047 1282.16 324.208C1282.71 324.351 1283.27 324.494 1283.83 324.641C1283.84 324.798 1283.84 324.954 1283.85 325.115C1284.4 325.258 1284.95 325.401 1285.52 325.548C1285.52 325.705 1285.52 325.861 1285.53 326.022C1285.7 326.082 1285.88 326.142 1286.06 326.204C1286.71 326.46 1287.27 326.754 1287.87 327.12C1288.06 327.232 1288.24 327.345 1288.44 327.46C1288.95 327.885 1289.05 328.128 1289.16 328.778C1289.88 329 1289.88 329 1290.58 328.743C1290.58 328.899 1290.59 329.056 1290.59 329.217C1291.17 329.501 1291.73 329.726 1292.34 329.93C1293.27 330.289 1293.86 330.887 1294.54 331.604C1294.94 332.015 1294.94 332.015 1295.64 332.175C1296.15 332.07 1296.15 332.07 1296.59 331.914C1296.68 332.124 1296.77 332.333 1296.87 332.548C1297.4 333.429 1297.91 333.832 1298.75 334.41C1299 334.584 1299.25 334.757 1299.5 334.936C1300.14 335.328 1300.72 335.6 1301.43 335.826C1301.43 335.983 1301.43 336.139 1301.44 336.3C1301.59 336.296 1301.75 336.293 1301.91 336.289C1301.92 336.445 1301.92 336.601 1301.92 336.763C1302.11 336.827 1302.29 336.891 1302.48 336.956C1303.12 337.207 1303.12 337.207 1303.84 337.664C1304.08 337.736 1304.32 337.809 1304.56 337.883C1304.73 338.191 1304.9 338.503 1305.06 338.819C1305.22 338.894 1305.38 338.968 1305.54 339.045C1305.61 338.808 1305.68 338.572 1305.76 338.328C1305.91 338.324 1306.07 338.32 1306.23 338.316C1306.27 338.542 1306.27 338.542 1306.32 338.773C1306.38 338.933 1306.43 339.093 1306.49 339.258C1306.73 339.331 1306.97 339.403 1307.21 339.478C1307.45 339.817 1307.45 339.817 1307.69 340.162C1308.2 340.893 1308.38 340.997 1309.15 341.327C1309.33 341.499 1309.51 341.671 1309.69 341.849C1310.4 342.515 1311.16 343.052 1311.97 343.584C1312.27 343.785 1312.57 343.986 1312.87 344.186C1313.09 344.334 1313.09 344.334 1313.32 344.485C1314.95 345.577 1316.56 346.703 1318.12 347.9C1318.59 348.252 1318.59 348.252 1319.29 348.428C1319.29 348.584 1319.3 348.741 1319.3 348.902C1319.44 348.963 1319.58 349.024 1319.72 349.087C1320.26 349.353 1320.73 349.654 1321.23 349.999C1321.41 350.126 1321.6 350.252 1321.78 350.383C1321.97 350.515 1322.16 350.647 1322.36 350.783C1323.65 351.68 1324.95 352.555 1326.29 353.378C1326.94 353.806 1327.53 354.294 1328.13 354.802C1328.47 355.103 1328.47 355.103 1328.95 355.303C1328.94 355.147 1328.94 354.991 1328.94 354.829C1329.49 354.806 1330.04 354.792 1330.6 354.788C1330.84 355.019 1330.84 355.019 1330.89 355.901C1330.98 356.504 1331.04 356.821 1331.45 357.276C1331.89 357.6 1332.33 357.882 1332.8 358.158C1332.96 358.256 1333.11 358.355 1333.27 358.457C1333.83 358.807 1334.38 359.143 1334.98 359.423C1334.98 359.579 1334.99 359.736 1334.99 359.897C1335.15 359.947 1335.32 359.997 1335.49 360.048C1336.37 360.419 1337.1 360.928 1337.88 361.486C1338.1 361.642 1338.1 361.642 1338.33 361.801C1339.2 362.413 1340.05 363.045 1340.9 363.694C1342 364.536 1343.12 365.352 1344.25 366.16C1344.5 366.34 1344.5 366.34 1344.75 366.524C1344.99 366.694 1344.99 366.694 1345.24 366.867C1345.38 366.969 1345.52 367.07 1345.66 367.174C1346.34 367.61 1347 367.883 1347.77 368.118C1347.77 368.275 1347.77 368.431 1347.78 368.593C1348.11 368.817 1348.45 369.039 1348.8 369.245C1349.24 369.514 1349.66 369.807 1350.08 370.107C1350.58 370.451 1350.96 370.667 1351.54 370.871C1352.31 371.174 1352.77 371.644 1353.32 372.25C1353.33 372.406 1353.33 372.563 1353.34 372.724C1353.54 372.814 1353.54 372.814 1353.74 372.906C1354.34 373.197 1354.92 373.526 1355.5 373.856C1356.21 374.235 1356.85 374.401 1357.65 374.514C1357.69 374.792 1357.69 374.792 1357.72 375.076C1357.85 375.72 1357.85 375.72 1358.35 375.935C1358.53 376.004 1358.7 376.073 1358.88 376.144C1359.04 376.311 1359.2 376.478 1359.36 376.651C1359.52 376.789 1359.68 376.927 1359.85 377.069C1360.37 377.023 1360.37 377.023 1360.79 376.808C1360.95 377.039 1361.12 377.27 1361.28 377.507C1361.13 377.511 1360.97 377.515 1360.81 377.519C1360.89 377.83 1360.98 378.141 1361.07 378.461C1361.23 378.457 1361.38 378.454 1361.54 378.45C1361.71 378.759 1361.87 379.068 1362.04 379.386C1362.2 379.382 1362.35 379.378 1362.51 379.374C1362.69 379.546 1362.87 379.718 1363.05 379.895C1363.8 380.6 1364.49 380.978 1365.41 381.437C1365.42 381.593 1365.42 381.75 1365.42 381.911C1365.56 381.971 1365.7 382.03 1365.84 382.092C1366.41 382.376 1366.91 382.704 1367.43 383.075C1367.63 383.214 1367.82 383.353 1368.03 383.496C1368.23 383.641 1368.44 383.787 1368.65 383.936C1369.05 384.222 1369.45 384.508 1369.86 384.793C1370.05 384.928 1370.24 385.063 1370.44 385.201C1370.9 385.517 1371.36 385.811 1371.84 386.097C1372.03 386.224 1372.22 386.35 1372.42 386.481C1372.42 386.637 1372.42 386.794 1372.43 386.955C1372.66 386.949 1372.9 386.943 1373.14 386.937C1373.14 387.094 1373.15 387.25 1373.15 387.412C1373.36 387.46 1373.57 387.509 1373.79 387.559C1374.69 387.889 1375.13 388.336 1375.8 389.006C1375.96 389.002 1376.11 388.998 1376.27 388.994C1376.56 389.266 1376.84 389.538 1377.12 389.816C1377.77 390.413 1378.52 390.881 1379.25 391.366C1379.41 391.47 1379.56 391.574 1379.72 391.681C1380.1 391.934 1380.48 392.186 1380.86 392.438C1380.94 392.28 1381.01 392.121 1381.09 391.958C1384.49 392.913 1384.49 392.913 1385.66 394.691C1386.21 395.043 1386.77 395.309 1387.35 395.598C1387.43 395.752 1387.51 395.907 1387.6 396.066C1387.99 396.218 1388.39 396.365 1388.79 396.51C1389.43 396.857 1390.05 397.221 1390.67 397.592C1390.81 397.673 1390.95 397.755 1391.09 397.839C1391.23 397.922 1391.37 398.004 1391.51 398.088C1391.91 398.321 1392.31 398.542 1392.71 398.763C1392.95 398.896 1393.19 399.03 1393.44 399.167C1393.66 399.285 1393.87 399.403 1394.1 399.524C1394.57 399.925 1394.57 399.925 1394.66 400.565C1394.64 400.745 1394.62 400.925 1394.6 401.11C1395.15 401.253 1395.7 401.396 1396.27 401.543C1396.27 401.699 1396.28 401.856 1396.28 402.017C1396.53 402.1 1396.53 402.1 1396.79 402.184C1397.58 402.5 1398.26 402.896 1398.98 403.343C1399.24 403.498 1399.49 403.652 1399.75 403.811C1400.37 404.287 1400.37 404.287 1400.59 404.817C1400.6 404.953 1400.62 405.089 1400.63 405.229C1400.22 405.508 1400.22 405.508 1399.69 405.727C1399.22 405.559 1399.22 405.559 1398.75 405.247C1398.5 405.085 1398.5 405.085 1398.24 404.92C1397.85 404.649 1397.48 404.362 1397.1 404.072C1396.57 403.675 1396.25 403.577 1395.61 403.457C1395.52 403.302 1395.44 403.148 1395.36 402.989C1395.12 402.916 1394.88 402.844 1394.64 402.769C1394.64 402.613 1394.63 402.456 1394.63 402.295C1394.31 402.225 1394 402.154 1393.67 402.082C1393.6 402.318 1393.53 402.555 1393.46 402.799C1393.19 402.688 1393.19 402.688 1392.92 402.575C1392.22 402.301 1392.22 402.301 1391.31 402.378C1390.77 402.088 1390.77 402.088 1390.21 401.708C1389.59 401.288 1389.15 401.01 1388.42 400.789C1388.42 400.632 1388.42 400.476 1388.41 400.315C1388.24 400.256 1388.07 400.197 1387.89 400.137C1387.2 399.864 1386.58 399.535 1385.94 399.161C1385.73 399.038 1385.51 398.916 1385.29 398.789C1385.13 398.696 1384.97 398.603 1384.81 398.507C1384.66 398.667 1384.51 398.827 1384.35 398.993C1383.35 398.944 1382.61 398.779 1381.72 398.346C1381.49 398.469 1381.49 398.469 1381.25 398.595C1381.25 398.36 1381.24 398.126 1381.24 397.884C1380.77 397.521 1380.77 397.521 1380.15 397.198C1379.8 397.004 1379.8 397.004 1379.45 396.805C1379.2 396.668 1378.95 396.532 1378.69 396.391C1378.19 396.105 1377.68 395.819 1377.17 395.533C1376.92 395.392 1376.67 395.251 1376.41 395.106C1375.33 394.488 1374.28 393.826 1373.24 393.148C1372.32 392.551 1371.38 392.024 1370.41 391.512C1369.84 391.209 1369.28 390.907 1368.72 390.605C1368.72 390.448 1368.72 390.292 1368.71 390.131C1368.55 390.078 1368.39 390.026 1368.22 389.972C1367.36 389.625 1366.61 389.163 1365.83 388.675C1365.54 388.495 1365.25 388.315 1364.96 388.135C1364.75 388.006 1364.75 388.006 1364.53 387.874C1364.01 387.554 1363.48 387.255 1362.94 386.953C1361.81 386.262 1360.7 385.537 1359.6 384.798C1358.13 383.82 1356.62 382.905 1355.09 382.039C1354.58 381.746 1354.07 381.441 1353.57 381.123C1353.39 381.005 1353.2 380.888 1353.01 380.766C1352.5 380.44 1351.99 380.112 1351.48 379.782C1349.81 378.705 1348.17 377.699 1346.33 376.93C1346.32 376.774 1346.32 376.617 1346.31 376.456C1346.18 376.44 1346.04 376.424 1345.9 376.407C1345.2 376.195 1344.91 375.819 1344.39 375.318C1343.54 374.757 1342.72 374.259 1341.75 373.96C1341.74 373.804 1341.74 373.647 1341.73 373.486C1340.87 373.508 1340.01 373.529 1339.13 373.551C1338.86 372.372 1338.86 372.372 1338.84 371.661C1338.21 371.52 1337.58 371.379 1336.93 371.234C1336.93 371.077 1336.93 370.921 1336.92 370.759C1336.69 370.687 1336.45 370.615 1336.21 370.54C1336.04 370.388 1335.88 370.235 1335.72 370.078C1335.48 370.005 1335.25 369.933 1335 369.858C1334.92 369.704 1334.84 369.549 1334.75 369.39C1334.52 369.396 1334.28 369.402 1334.04 369.408C1334.04 369.173 1334.03 368.939 1334.02 368.697C1333.85 368.637 1333.68 368.578 1333.5 368.517C1332.83 368.254 1332.24 367.934 1331.63 367.57C1331.47 367.496 1331.31 367.422 1331.15 367.345C1331.14 367.189 1331.14 367.032 1331.13 366.871C1330.96 366.807 1330.79 366.743 1330.61 366.677C1330.39 366.594 1330.17 366.512 1329.94 366.426C1329.73 366.363 1329.53 366.3 1329.32 366.234C1328.66 365.947 1328.28 365.561 1327.77 365.057C1327.61 365.061 1327.45 365.065 1327.29 365.069C1326.97 364.761 1326.65 364.453 1326.32 364.144C1325.44 363.523 1324.77 363.124 1323.69 363.024C1323.68 362.789 1323.67 362.555 1323.67 362.313C1323.48 362.288 1323.28 362.264 1323.09 362.238C1322.89 362.194 1322.68 362.15 1322.48 362.105C1322.39 361.951 1322.31 361.796 1322.23 361.637C1321.99 361.565 1321.75 361.492 1321.51 361.418C1321.51 361.261 1321.5 361.105 1321.5 360.944C1320.91 360.723 1320.91 360.723 1320.3 360.499C1320.24 361.301 1320.24 361.301 1320.34 362.158C1320.5 362.272 1320.66 362.385 1320.83 362.502C1320.99 362.615 1321.14 362.729 1321.31 362.846C1321.41 363.734 1321.39 364.366 1321.13 365.222C1320.74 365.31 1320.35 365.398 1319.95 365.488C1319.95 365.332 1319.94 365.176 1319.94 365.014C1319.71 365.02 1319.47 365.026 1319.23 365.032C1319.38 365.714 1319.38 365.714 1319.74 366.442C1319.98 366.564 1320.21 366.685 1320.46 366.81C1321.34 367.471 1321.34 367.747 1321.53 368.799C1321.58 369.173 1321.58 369.173 1321.64 369.555C1321.69 370.181 1321.69 370.181 1321.98 370.656C1322.13 370.652 1322.29 370.648 1322.45 370.644C1322.46 370.801 1322.46 370.957 1322.46 371.118C1322.69 371.223 1322.69 371.223 1322.91 371.33C1323.24 371.485 1323.57 371.639 1323.9 371.794C1323.91 371.951 1323.91 372.107 1323.91 372.268C1324.15 372.341 1324.39 372.413 1324.63 372.488C1324.64 372.644 1324.64 372.801 1324.64 372.962C1324.8 372.958 1324.96 372.954 1325.12 372.95C1325.73 373.509 1325.85 373.868 1325.99 374.692C1325.89 375.54 1325.89 375.54 1325.41 376.249C1324.61 376.853 1324.3 376.903 1323.32 376.79C1322.75 376.668 1322.2 376.52 1321.64 376.357C1321.64 376.2 1321.64 376.044 1321.63 375.883C1321.41 375.944 1321.41 375.944 1321.19 376.006C1320.99 376.057 1320.8 376.108 1320.6 376.16C1320.41 376.212 1320.22 376.263 1320.02 376.316C1319.51 376.41 1319.51 376.41 1319.03 376.185C1319.15 376.397 1319.27 376.609 1319.39 376.828C1319.78 377.589 1319.78 377.589 1319.89 378.075C1320.02 378.593 1320.02 378.593 1320.56 379.082C1321.02 379.693 1321.02 379.693 1321 380.449C1320.81 381.121 1320.81 381.121 1320.35 381.607C1319.49 381.658 1319.49 381.658 1318.69 381.648C1319.03 382.597 1319.32 382.972 1320.16 383.509C1320.43 383.723 1320.69 383.939 1320.95 384.157C1321.86 384.908 1322.82 385.591 1323.79 386.265C1323.86 386.029 1323.93 385.792 1324.01 385.548C1324.16 385.544 1324.32 385.54 1324.48 385.536C1324.54 385.794 1324.6 386.052 1324.66 386.318C1325.05 387.321 1325.26 387.425 1326.2 387.866C1326.52 388.174 1326.85 388.482 1327.17 388.79C1327.49 388.944 1327.81 389.095 1328.13 389.241C1328.21 389.395 1328.3 389.55 1328.38 389.709C1328.62 389.781 1328.85 389.854 1329.1 389.928C1329.5 390.314 1329.91 390.699 1330.31 391.084C1330.79 391.391 1331.27 391.695 1331.76 391.997C1332.02 392.202 1332.28 392.411 1332.53 392.623C1333.46 393.392 1334.41 394.134 1335.37 394.872C1335.53 394.997 1335.69 395.121 1335.86 395.25C1337.71 396.76 1337.71 396.76 1339.75 397.969C1340.43 398.295 1340.88 398.831 1341.43 399.347C1341.65 399.473 1341.87 399.6 1342.1 399.73C1342.28 399.829 1342.45 399.927 1342.63 400.028C1342.63 400.185 1342.64 400.341 1342.64 400.502C1342.78 400.563 1342.92 400.623 1343.06 400.685C1343.61 400.96 1344.08 401.274 1344.58 401.641C1344.76 401.773 1344.94 401.905 1345.12 402.041C1345.4 402.247 1345.4 402.247 1345.68 402.458C1346.05 402.731 1346.43 403.004 1346.8 403.276C1346.96 403.397 1347.12 403.518 1347.29 403.642C1347.7 403.949 1347.7 403.949 1348.19 404.16C1348.19 404.316 1348.2 404.473 1348.2 404.634C1348.39 404.709 1348.39 404.709 1348.58 404.786C1349.52 405.268 1350.33 405.931 1351.17 406.565C1351.79 407.027 1352.27 407.37 1353.02 407.597C1353.3 407.864 1353.58 408.132 1353.85 408.404C1354.63 409.122 1355.51 409.723 1356.36 410.346C1356.55 410.482 1356.73 410.619 1356.92 410.759C1358.03 411.569 1358.03 411.569 1359.15 412.357C1359.33 412.478 1359.5 412.6 1359.68 412.725C1359.84 412.833 1360 412.94 1360.17 413.051C1360.28 413.147 1360.39 413.242 1360.51 413.341C1360.52 413.497 1360.52 413.654 1360.52 413.815C1360.71 413.879 1360.89 413.943 1361.08 414.009C1361.72 414.26 1361.72 414.26 1362.44 414.716C1362.45 414.873 1362.45 415.029 1362.46 415.19C1362.65 415.273 1362.65 415.273 1362.84 415.358C1364.05 415.953 1365.07 416.71 1366.1 417.561C1367.19 418.45 1368.34 419.26 1369.48 420.088C1369.75 420.283 1370.02 420.478 1370.28 420.673C1370.42 420.77 1370.55 420.867 1370.69 420.967C1371.75 421.738 1372.79 422.529 1373.82 423.329C1374.27 423.684 1374.27 423.684 1374.77 423.897C1374.77 424.054 1374.78 424.21 1374.78 424.371C1375 424.476 1375 424.476 1375.23 424.583C1375.56 424.738 1375.89 424.892 1376.22 425.047C1376.22 425.204 1376.23 425.36 1376.23 425.521C1376.47 425.516 1376.7 425.51 1376.94 425.504C1377.1 425.656 1377.26 425.809 1377.43 425.966C1378.98 427.253 1380.57 428.49 1382.2 429.658C1382.75 430.103 1382.75 430.103 1382.96 430.765C1383.02 431.52 1383.02 431.52 1383.01 432.394C1382.99 433.163 1382.99 433.163 1383.38 433.601C1383.96 433.987 1384.54 434.344 1385.16 434.668C1385.34 434.781 1385.53 434.894 1385.72 435.01C1385.72 435.167 1385.72 435.323 1385.73 435.484C1385.96 435.557 1386.2 435.629 1386.45 435.704C1386.45 435.86 1386.45 436.017 1386.46 436.178C1386.6 436.243 1386.73 436.308 1386.88 436.375C1387.14 436.5 1387.14 436.5 1387.42 436.628C1387.65 436.718 1387.65 436.718 1387.88 436.81C1388.56 437.177 1389.03 437.704 1389.59 438.235C1389.99 438.482 1389.99 438.482 1390.39 438.734C1390.6 438.87 1390.82 439.007 1391.04 439.147C1391.04 439.304 1391.05 439.46 1391.05 439.622C1391.21 439.696 1391.37 439.77 1391.53 439.847C1391.68 440.495 1391.79 441.135 1391.86 441.795C1391.93 441.931 1391.99 442.066 1392.06 442.205C1392.28 442.273 1392.51 442.341 1392.73 442.411C1393.67 442.696 1393.86 443.065 1394.47 443.806C1394.87 444.134 1395.27 444.45 1395.68 444.754C1395.89 444.906 1396.09 445.058 1396.3 445.215C1396.82 445.59 1397.34 445.962 1397.86 446.331C1397.79 446.724 1397.72 447.117 1397.65 447.522C1396.7 447.545 1396.7 447.545 1396.2 447.083C1396.1 446.979 1396 446.874 1395.9 446.766C1395.16 446.086 1394.3 445.563 1393.46 445.008C1392.87 444.588 1392.38 444.136 1391.86 443.634C1391.7 443.559 1391.54 443.485 1391.38 443.408C1391.38 443.252 1391.37 443.095 1391.37 442.934C1391.24 442.996 1391.12 443.058 1390.99 443.122C1389.95 443.257 1389.2 442.453 1388.41 441.848C1387.97 441.502 1387.52 441.154 1387.08 440.806C1384.63 438.757 1384.63 438.757 1381.87 437.196C1380.88 436.723 1380.37 436.164 1379.69 435.328C1379.31 434.868 1379.31 434.868 1378.59 434.713C1378.43 434.497 1378.27 434.281 1378.1 434.058C1377.17 432.93 1375.68 432.636 1374.3 432.342C1373.34 432.119 1372.41 431.801 1371.47 431.505C1370.62 431.221 1370.62 431.221 1369.73 431.138C1369.73 430.982 1369.72 430.825 1369.72 430.664C1369.43 430.612 1369.14 430.561 1368.84 430.508C1366.83 430.114 1364.87 429.502 1362.92 428.895C1362.14 428.661 1361.36 428.442 1360.58 428.222C1358.76 427.708 1356.96 427.156 1355.15 426.596C1354.95 426.533 1354.74 426.47 1354.53 426.405C1354.35 426.348 1354.17 426.292 1353.98 426.234C1353.66 426.141 1353.34 426.057 1353.02 425.986C1352.38 425.842 1351.77 425.651 1351.15 425.458C1350.88 425.376 1350.61 425.293 1350.34 425.207C1350.05 425.119 1349.77 425.031 1349.47 424.94C1347.32 424.277 1345.17 423.627 1343 423.019C1341.77 422.673 1340.56 422.29 1339.34 421.915C1336.11 420.924 1332.89 419.946 1329.65 418.997C1327.08 418.244 1324.5 417.48 1321.93 416.715C1321.73 416.654 1321.52 416.593 1321.31 416.53C1320.91 416.411 1320.51 416.291 1320.11 416.172C1319.73 416.058 1319.35 415.944 1318.96 415.831C1317.67 415.447 1316.39 415.045 1315.11 414.624C1314.52 414.454 1314.52 414.454 1313.89 414.504C1313.34 414.512 1313.34 414.512 1312.86 414.05C1312.47 413.905 1312.08 413.777 1311.68 413.659C1311.32 413.548 1311.32 413.548 1310.94 413.435C1310.68 413.356 1310.41 413.278 1310.14 413.197C1309.87 413.116 1309.6 413.034 1309.32 412.95C1308.74 412.778 1308.16 412.606 1307.59 412.435C1306.71 412.174 1305.83 411.909 1304.95 411.645C1304.39 411.478 1303.83 411.311 1303.27 411.144C1302.88 411.026 1302.88 411.026 1302.47 410.905C1302.23 410.832 1301.98 410.759 1301.72 410.684C1301.4 410.587 1301.4 410.587 1301.07 410.489C1300.38 410.314 1299.7 410.212 1299 410.124C1299 409.968 1298.99 409.812 1298.99 409.65C1298.65 409.578 1298.31 409.508 1297.98 409.438C1297.79 409.399 1297.6 409.36 1297.41 409.319C1296.78 409.202 1296.78 409.202 1295.9 409.253C1295.42 409.265 1294.95 409.276 1294.47 409.288C1294.55 409.051 1294.62 408.815 1294.69 408.571C1294.46 408.577 1294.22 408.583 1293.98 408.589C1293.98 408.432 1293.97 408.276 1293.97 408.115C1293.81 408.084 1293.66 408.053 1293.5 408.021C1290.38 407.335 1288.36 406.209 1286.27 403.799C1285.98 403.516 1285.69 403.236 1285.39 402.961C1284.66 402.276 1283.99 401.549 1283.32 400.803C1282.67 400.121 1281.98 399.492 1281.29 398.863C1280.92 398.477 1280.92 398.477 1280.91 398.003C1280.76 398.007 1280.6 398.011 1280.44 398.015C1280.06 397.651 1280.06 397.651 1279.63 397.16C1279.13 396.601 1278.64 396.07 1278.09 395.553C1277.45 394.94 1276.88 394.279 1276.3 393.611C1275.9 393.221 1275.49 392.835 1275.08 392.455C1274.6 391.993 1274.6 391.993 1274.55 391.134C1274.55 390.738 1274.55 390.738 1274.55 390.334C1274.4 390.338 1274.24 390.341 1274.08 390.345C1274 390.113 1273.91 389.88 1273.83 389.64C1274.01 389.52 1274.19 389.399 1274.38 389.275C1275.19 388.461 1275.27 387.786 1275.44 386.68C1275.64 385.523 1275.86 384.498 1276.32 383.412C1276.74 382.326 1276.97 381.18 1277.25 380.053C1277.38 379.52 1277.52 378.987 1277.65 378.454C1277.71 378.199 1277.78 377.943 1277.84 377.679C1278.07 376.774 1278.3 375.87 1278.53 374.966C1278.6 374.718 1278.66 374.47 1278.73 374.215C1278.84 373.776 1278.97 373.341 1279.1 372.907C1278.95 372.91 1278.79 372.914 1278.63 372.918C1278.55 373.077 1278.48 373.235 1278.4 373.398C1278.32 373.322 1278.24 373.246 1278.16 373.167C1278.09 373.325 1278.01 373.484 1277.94 373.647C1277.62 373.655 1277.31 373.663 1276.99 373.671C1276.91 373.829 1276.84 373.987 1276.76 374.151C1276.61 374.154 1276.45 374.158 1276.29 374.162C1276.3 374.788 1276.32 375.414 1276.34 376.059C1276.1 376.143 1275.87 376.227 1275.63 376.313C1275.56 376.55 1275.49 376.787 1275.41 377.03C1275.25 377.034 1275.1 377.038 1274.94 377.042C1274.91 377.18 1274.88 377.317 1274.86 377.459C1274.72 378.008 1274.55 378.461 1274.27 378.956C1274.12 379.038 1273.96 379.12 1273.8 379.205C1273.81 379.361 1273.81 379.518 1273.82 379.679C1274.05 379.751 1274.29 379.824 1274.53 379.898C1274.54 380.211 1274.55 380.524 1274.56 380.846C1273.93 380.862 1273.31 380.877 1272.66 380.893C1272.59 381.208 1272.52 381.523 1272.45 381.848C1272.06 381.935 1271.67 382.023 1271.27 382.114C1271.2 382.351 1271.12 382.587 1271.05 382.831C1270.85 382.667 1270.85 382.667 1270.64 382.5C1270.04 382.115 1269.59 382.016 1268.89 381.936C1268.82 382.172 1268.75 382.409 1268.67 382.653C1268.59 382.498 1268.51 382.344 1268.42 382.185C1268.43 382.365 1268.43 382.546 1268.44 382.733C1268.48 384.294 1268.48 384.294 1268.02 385.041C1267.49 385.404 1267.22 385.555 1266.58 385.477C1266.41 385.427 1266.23 385.378 1266.06 385.327C1264.99 385.082 1264.31 385.176 1263.29 385.633C1262.85 385.994 1262.85 385.994 1262.6 386.361C1261.91 386.072 1261.43 385.76 1260.91 385.217C1260.6 385.382 1260.29 385.546 1259.97 385.715C1259.98 386.106 1259.99 386.497 1260 386.9C1259.85 386.904 1259.69 386.908 1259.53 386.912C1259.52 386.755 1259.52 386.599 1259.52 386.438C1259.21 386.445 1258.91 386.453 1258.6 386.461C1258.11 386.473 1257.63 386.485 1257.15 386.497C1256.27 386.714 1255.41 387.001 1254.56 387.273C1254.56 387.429 1254.56 387.585 1254.57 387.747C1254.84 388.009 1255.12 388.27 1255.4 388.526C1256.51 389.624 1256.51 389.624 1256.54 390.781C1256.38 390.785 1256.23 390.789 1256.07 390.793C1256.04 391.023 1256.01 391.254 1255.98 391.492C1255.86 392.221 1255.86 392.221 1255.63 392.464C1255.15 392.532 1254.66 392.586 1254.17 392.634C1253.77 392.673 1253.77 392.673 1253.36 392.714C1252.62 392.773 1251.88 392.802 1251.14 392.813C1251.14 393.125 1251.15 393.438 1251.16 393.761C1250.85 393.769 1250.53 393.776 1250.21 393.784C1250.21 393.55 1250.2 393.315 1250.19 393.073C1249.78 393.091 1249.78 393.091 1249.35 393.109C1248.42 393.134 1247.55 393.054 1246.63 392.924C1246.63 392.768 1246.62 392.612 1246.62 392.45C1246.93 392.364 1247.24 392.278 1247.56 392.19C1247.56 391.955 1247.55 391.72 1247.54 391.479C1247.23 391.408 1246.92 391.338 1246.59 391.265C1246.42 390.565 1246.24 389.865 1246.06 389.144C1245.83 389.149 1245.59 389.155 1245.35 389.161C1245.02 387.598 1245.02 387.598 1245.53 386.785C1245.3 386.947 1245.07 387.11 1244.83 387.277C1244.83 387.042 1244.82 386.807 1244.81 386.566C1244.11 386.427 1243.4 386.288 1242.67 386.145C1242.66 385.988 1242.66 385.832 1242.66 385.67C1242.5 385.655 1242.34 385.639 1242.18 385.623C1241.38 385.444 1240.73 385.138 1239.99 384.773C1239.51 384.533 1239.51 384.533 1238.83 384.342C1238.75 384.188 1238.66 384.033 1238.58 383.874C1237.27 383.861 1236.28 384.002 1235.04 384.437C1234 384.755 1234 384.755 1233.3 384.494C1233.17 384.415 1233.04 384.335 1232.9 384.252C1232.89 384.096 1232.89 383.94 1232.89 383.778C1232.26 383.794 1231.63 383.809 1230.99 383.826C1230.92 383.68 1230.85 383.535 1230.79 383.386C1230.5 382.818 1230.5 382.818 1229.77 382.433C1229.59 381.696 1229.59 381.696 1229.5 381.016C1229.34 381.02 1229.18 381.024 1229.02 381.028C1229 380.88 1228.97 380.732 1228.95 380.58C1228.83 379.997 1228.71 379.46 1228.5 378.907C1227.9 378.524 1227.9 378.524 1227.3 378.462C1227 378.719 1227 378.719 1227.07 379.285C1227.08 379.542 1227.1 379.799 1227.11 380.065C1227.13 380.356 1227.15 380.647 1227.16 380.947C1227.18 381.268 1227.2 381.589 1227.22 381.91C1227.24 382.238 1227.26 382.567 1227.27 382.895C1227.31 383.586 1227.35 384.277 1227.39 384.968C1227.45 385.848 1227.5 386.728 1227.55 387.608C1227.58 388.288 1227.62 388.968 1227.66 389.649C1227.68 389.972 1227.7 390.296 1227.72 390.62C1227.81 392.262 1227.92 393.892 1228.15 395.521C1228.23 396.162 1228.24 396.796 1228.24 397.443C1228.32 401.477 1228.74 404.417 1231.11 407.778C1231.52 408.371 1231.92 408.97 1232.31 409.571C1232.41 409.713 1232.5 409.854 1232.6 409.999C1233.29 411.054 1233.5 411.917 1233.62 413.171C1233.76 413.201 1233.91 413.232 1234.06 413.264C1234.57 413.384 1234.57 413.384 1235.05 413.61C1235.05 413.766 1235.06 413.923 1235.06 414.084C1234.9 414.088 1234.75 414.091 1234.59 414.095C1234.75 414.253 1234.91 414.41 1235.07 414.573C1235.68 415.414 1235.68 415.898 1235.61 416.916C1235.53 417.075 1235.46 417.233 1235.38 417.396C1234.66 417.275 1233.95 417.141 1233.24 416.975C1233.23 416.819 1233.23 416.662 1233.22 416.501C1233.07 416.505 1232.91 416.509 1232.75 416.513C1232.45 415.696 1232.46 415.011 1232.45 414.148C1231.83 414.086 1231.2 414.023 1230.55 413.958C1230.52 413.808 1230.49 413.657 1230.45 413.501C1230.4 413.341 1230.35 413.181 1230.29 413.016C1230.13 412.942 1229.97 412.868 1229.81 412.791C1229.59 412.413 1229.39 412.026 1229.19 411.635C1228.74 410.736 1228.74 410.736 1228.08 409.988C1228 409.755 1227.91 409.522 1227.83 409.282C1227.69 409.369 1227.56 409.456 1227.42 409.545C1226.8 409.82 1226.56 409.766 1225.94 409.567C1225.86 409.569 1225.78 409.57 1225.7 409.572C1225.74 409.773 1225.77 409.973 1225.81 410.179C1226.12 411.95 1226.35 413.698 1226.5 415.491C1226.55 416.158 1226.55 416.158 1226.71 416.651C1226.88 417.298 1226.86 417.932 1226.87 418.597C1226.92 420.058 1227.08 421.513 1227.22 422.968C1227.26 423.329 1227.29 423.69 1227.33 424.051C1227.4 424.808 1227.47 425.564 1227.54 426.32C1227.64 427.273 1227.73 428.227 1227.82 429.18C1228.39 435.233 1228.39 435.233 1229.09 441.271C1229.12 441.449 1229.14 441.627 1229.16 441.811C1229.29 442.787 1229.38 443.201 1230.11 443.854C1230.12 444.44 1230.12 444.44 1230.05 445.16C1230.04 447.509 1231.31 449.386 1232.43 451.387C1233.24 452.845 1233.72 454.008 1233.91 455.678C1234.14 457.479 1234.83 458.738 1235.79 460.259C1236.18 460.936 1236.38 461.429 1236.49 462.196C1236.03 462.364 1235.56 462.532 1235.08 462.705C1234.67 461.896 1234.25 461.086 1233.84 460.276C1233.72 460.045 1233.6 459.814 1233.48 459.577C1233.36 459.356 1233.25 459.136 1233.13 458.909C1233.03 458.705 1232.93 458.502 1232.82 458.292C1232.59 457.787 1232.59 457.787 1232.58 457.313C1232.39 457.288 1232.21 457.263 1232.03 457.237C1231.39 457.105 1231.39 457.105 1230.66 456.648C1230.74 456.49 1230.81 456.332 1230.89 456.169C1230.66 455.597 1230.42 455.051 1230.15 454.497C1230.04 454.265 1230.04 454.265 1229.93 454.029C1229.75 453.647 1229.57 453.266 1229.38 452.885C1229.23 452.889 1229.07 452.893 1228.91 452.897C1228.88 452.697 1228.85 452.496 1228.82 452.29C1228.62 451.395 1228.29 450.685 1227.87 449.869C1227.73 449.599 1227.6 449.329 1227.46 449.051C1227.35 448.848 1227.25 448.644 1227.14 448.435C1226.98 448.438 1226.83 448.442 1226.66 448.446C1226.66 448.29 1226.66 448.133 1226.65 447.972C1226.5 447.976 1226.34 447.98 1226.18 447.984C1225.8 447.256 1225.65 446.638 1225.58 445.833C1225.42 444.608 1224.95 443.663 1224.37 442.589C1223.39 440.747 1223.39 440.747 1223.38 440.227C1223.22 440.152 1223.06 440.078 1222.9 440.001C1222.64 439.553 1222.64 439.553 1222.36 438.971C1222.26 438.762 1222.16 438.553 1222.05 438.338C1221.95 438.119 1221.85 437.899 1221.74 437.673C1221.64 437.454 1221.53 437.236 1221.42 437.011C1220.65 435.378 1220.65 435.378 1220.63 434.84C1220.48 434.765 1220.32 434.691 1220.15 434.614C1219.98 434.145 1219.81 433.675 1219.64 433.204C1219.32 432.527 1218.99 431.856 1218.65 431.186C1218.39 430.626 1218.39 430.626 1218.38 430.152C1218.22 430.077 1218.07 430.003 1217.9 429.927C1217.6 429.335 1217.32 428.746 1217.04 428.139C1216.93 427.893 1216.93 427.893 1216.82 427.642C1216.59 427.154 1216.37 426.664 1216.15 426.175C1215.9 425.628 1215.65 425.081 1215.4 424.534C1215.24 424.537 1215.08 424.541 1214.92 424.545C1214.88 424.24 1214.88 424.24 1214.83 423.929C1214.64 423.074 1214.34 422.433 1213.92 421.665C1213.79 421.422 1213.66 421.18 1213.52 420.93C1213.19 420.306 1213.19 420.306 1212.67 419.858C1212.18 418.851 1211.67 417.691 1211.64 416.563C1211.41 416.568 1211.17 416.574 1210.93 416.58C1210.66 415.295 1210.66 415.295 1210.39 413.985C1210.24 413.989 1210.08 413.992 1209.92 413.996C1209.85 413.829 1209.79 413.662 1209.72 413.49C1208.74 411.049 1207.58 408.712 1206.41 406.36C1206.2 405.936 1205.99 405.511 1205.77 405.086C1205.35 404.238 1204.93 403.39 1204.51 402.542C1203.74 400.991 1202.97 399.437 1202.2 397.884C1201.87 397.214 1201.54 396.544 1201.21 395.875C1201.1 395.661 1201 395.447 1200.89 395.227C1200.78 395.004 1200.78 395.004 1200.66 394.777C1200.51 394.781 1200.35 394.785 1200.19 394.789C1199.78 394.414 1199.78 394.414 1199.46 393.858C1199.51 393.086 1199.51 393.086 1199.66 392.43C1199.5 392.434 1199.34 392.438 1199.18 392.442C1199.1 392.053 1199.01 391.664 1198.92 391.263C1198.78 391.255 1198.63 391.247 1198.49 391.239C1197.7 390.954 1197.56 390.456 1197.19 389.72C1197.06 389.477 1196.94 389.235 1196.81 388.985C1196.47 388.24 1196.47 388.24 1196.2 387.459C1196.03 386.796 1196.03 386.796 1195.46 386.56C1195.31 386.501 1195.16 386.441 1195 386.379C1194.87 386.03 1194.87 386.03 1194.75 385.674C1194.59 385.521 1194.43 385.369 1194.26 385.212C1193.93 383.919 1193.93 383.919 1194.21 383.315C1193.82 383.325 1193.43 383.335 1193.03 383.345C1193.02 383.188 1193.02 383.032 1193.02 382.871C1193.48 382.624 1193.48 382.624 1193.95 382.373C1193.77 382.158 1193.58 381.942 1193.39 381.72C1193.28 381.599 1193.18 381.478 1193.07 381.353C1192.74 380.969 1192.74 380.969 1192.33 380.686C1191.82 380.064 1191.92 379.491 1191.92 378.703C1191.92 378.423 1191.92 378.143 1191.92 377.855C1191.92 377.641 1191.92 377.426 1191.93 377.205C1191.77 377.131 1191.61 377.057 1191.45 376.98C1191.05 376.649 1191.05 376.649 1190.72 376.287C1190.71 376.13 1190.71 375.974 1190.71 375.813C1190.15 375.67 1189.6 375.527 1189.04 375.38C1189.11 375.065 1189.18 374.75 1189.25 374.426C1188.93 374.355 1188.62 374.285 1188.29 374.212C1188.06 373.598 1188.04 373.266 1188.15 372.609C1188.32 371.08 1187.58 369.414 1186.65 368.205C1186.23 367.622 1186.23 367.622 1186.28 367.058C1186.33 366.929 1186.39 366.801 1186.45 366.668C1186.29 366.594 1186.13 366.52 1185.97 366.443C1185.8 366.052 1185.63 365.661 1185.46 365.27C1185.31 365.195 1185.15 365.121 1184.98 365.044C1184.87 364.505 1184.87 364.505 1184.81 363.848C1184.77 363.522 1184.77 363.522 1184.74 363.189C1184.72 363.021 1184.7 362.853 1184.69 362.68C1184.84 362.676 1185 362.672 1185.16 362.668C1185.16 362.135 1185.15 361.601 1185.14 361.068C1185.13 360.771 1185.13 360.474 1185.12 360.168C1185.09 359.519 1185.03 359.014 1184.82 358.407C1184.98 358.403 1185.13 358.4 1185.29 358.396C1185.16 357.428 1185.02 356.503 1184.75 355.563C1184.73 354.939 1184.72 354.315 1184.71 353.691C1184.69 352.373 1184.66 351.055 1184.63 349.737C1184.62 349.168 1184.61 348.6 1184.6 348.031C1184.58 347.209 1184.56 346.388 1184.55 345.566C1184.54 345.314 1184.54 345.062 1184.54 344.801C1184.49 343.069 1184.35 341.454 1183.41 339.942C1184.59 338.66 1185.82 337.917 1187.39 337.183C1188.12 336.813 1188.5 336.589 1188.87 335.839C1188.91 335.661 1188.95 335.482 1188.99 335.297C1189.2 335.304 1189.41 335.31 1189.63 335.317C1190.47 335.258 1190.89 335.084 1191.61 334.661C1191.82 334.538 1192.04 334.415 1192.26 334.289C1192.48 334.159 1192.7 334.029 1192.93 333.895C1193.37 333.639 1193.81 333.383 1194.25 333.128C1194.45 333.014 1194.64 332.9 1194.84 332.782C1195.32 332.531 1195.32 332.531 1195.8 332.519C1195.91 332.282 1195.91 332.282 1196.02 332.039C1196.26 332.033 1196.49 332.028 1196.73 332.022C1196.85 331.784 1196.85 331.784 1196.96 331.542C1197.22 331.165 1197.22 331.165 1197.65 330.813C1198.2 330.72 1198.76 330.627 1199.31 330.535C1199.66 330.2 1199.66 330.2 1200 329.806C1200.99 329.307 1202 328.906 1203.05 328.544C1203.05 328.388 1203.04 328.231 1203.04 328.07C1203.2 328.003 1203.37 327.936 1203.54 327.867C1203.75 327.778 1203.96 327.689 1204.18 327.597C1204.4 327.509 1204.61 327.421 1204.83 327.331C1205.42 327.09 1205.42 327.09 1205.85 326.577C1206.16 326.569 1206.48 326.562 1206.8 326.554C1206.87 326.395 1206.95 326.237 1207.02 326.074C1207.41 325.843 1207.81 325.627 1208.21 325.422C1208.42 325.311 1208.64 325.199 1208.86 325.085C1209.03 325.001 1209.19 324.916 1209.36 324.83C1209.36 324.595 1209.35 324.36 1209.35 324.119C1209.52 324.168 1209.7 324.217 1209.88 324.268C1210.55 324.403 1210.55 324.403 1211 323.959C1211.47 323.592 1211.47 323.592 1212.12 323.649C1212.3 323.699 1212.48 323.748 1212.66 323.799C1212.66 323.643 1212.65 323.486 1212.65 323.325C1213.35 323.07 1213.35 323.07 1214.3 323.047C1215.05 323.573 1215.63 324.227 1216.24 324.896C1216.65 325.283 1217.05 325.668 1217.46 326.052C1217.9 326.477 1218.34 326.902 1218.78 327.328C1219.16 327.689 1219.53 328.05 1219.91 328.411C1220.17 328.661 1220.43 328.911 1220.69 329.161C1221.07 329.524 1221.44 329.886 1221.82 330.247C1222.04 330.463 1222.27 330.678 1222.5 330.9C1222.99 331.423 1222.99 331.423 1223.52 331.357C1224.11 332.924 1224.22 334.507 1224.37 336.168C1224.42 336.727 1224.47 337.286 1224.52 337.845C1224.55 338.214 1224.55 338.214 1224.59 338.59C1224.6 339.145 1224.6 339.145 1224.9 339.386C1225.18 338.531 1225.05 337.88 1224.85 337.016C1225 337.012 1225.16 337.008 1225.32 337.004C1225.28 336.834 1225.23 336.665 1225.19 336.49C1225.06 335.85 1225.01 335.273 1225 334.621C1225 334.4 1224.99 334.179 1224.99 333.952C1224.98 333.724 1224.98 333.497 1224.98 333.262C1224.97 333.03 1224.97 332.798 1224.96 332.559C1224.95 331.988 1224.94 331.418 1224.93 330.847C1225.32 330.681 1225.7 330.515 1226.1 330.344C1226.59 330.806 1226.59 330.806 1226.66 331.585C1226.67 331.921 1226.67 332.257 1226.67 332.593C1226.68 332.773 1226.68 332.954 1226.68 333.139C1226.69 333.72 1226.7 334.3 1226.71 334.88C1226.74 338.895 1226.74 338.895 1227.13 342.889C1227.21 342.965 1227.29 343.041 1227.37 343.12C1227.43 343.463 1227.47 343.808 1227.51 344.154C1227.59 344.816 1227.69 345.32 1227.91 345.953C1227.84 346.111 1227.77 346.269 1227.69 346.433C1227.85 346.429 1228 346.425 1228.16 346.421C1228.17 346.734 1228.18 347.047 1228.19 347.369C1228.34 347.443 1228.5 347.518 1228.67 347.594C1228.77 347.474 1228.87 347.355 1228.97 347.231C1229.36 346.866 1229.36 346.866 1230.07 346.848C1230.14 346.611 1230.22 346.375 1230.29 346.131C1231.49 345.859 1232.23 345.859 1233.38 346.291C1233.64 346.373 1233.91 346.454 1234.18 346.538C1234.39 346.602 1234.6 346.665 1234.81 346.73C1234.82 346.887 1234.82 347.043 1234.82 347.204C1235.41 347.072 1235.41 347.072 1236 346.938C1236 346.703 1235.99 346.468 1235.99 346.227C1236.14 346.223 1236.3 346.219 1236.46 346.215C1236.46 346.371 1236.47 346.528 1236.47 346.689C1236.87 346.292 1237.15 345.992 1237.39 345.48C1237.55 345.476 1237.7 345.473 1237.86 345.469C1237.78 345.236 1237.7 345.003 1237.61 344.763C1238.29 344.444 1238.93 344.221 1239.67 344.03C1240.77 343.74 1241.76 343.253 1242.78 342.738C1243.1 342.964 1243.41 343.191 1243.74 343.425C1243.5 343.118 1243.26 342.811 1243.01 342.495C1244.5 342.195 1245.99 341.908 1247.51 341.73C1247.98 341.669 1247.98 341.669 1248.47 341.508C1248.91 341.399 1248.91 341.399 1249.39 341.625C1249.39 341.468 1249.38 341.312 1249.38 341.151C1249.83 341.126 1250.29 341.106 1250.74 341.087C1250.99 341.075 1251.25 341.064 1251.51 341.051C1252.23 341.08 1252.56 341.203 1253.18 341.53C1253.56 341.621 1253.94 341.701 1254.32 341.769C1254.51 341.804 1254.7 341.839 1254.89 341.875C1255.04 341.9 1255.18 341.926 1255.33 341.952C1255.32 341.795 1255.32 341.639 1255.32 341.478C1255.16 341.481 1255 341.485 1254.84 341.489C1254.84 341.333 1254.83 341.176 1254.83 341.015C1255.3 341.004 1255.77 340.992 1256.25 340.98C1256.5 341.522 1256.75 342.063 1257 342.621C1257.08 342.385 1257.15 342.148 1257.22 341.904C1257.42 342 1257.62 342.095 1257.83 342.192C1258.09 342.316 1258.35 342.439 1258.62 342.567C1258.88 342.689 1259.14 342.812 1259.4 342.939C1260.1 343.27 1260.1 343.27 1260.82 343.475C1260.93 343.595 1261.03 343.715 1261.14 343.838C1261.74 344.321 1262.22 344.167 1262.97 344.134C1263.61 344.364 1263.92 344.574 1264.42 345.046C1264.88 344.565 1264.88 344.565 1265.34 344.075C1265.58 344.147 1265.82 344.22 1266.06 344.294C1266.77 344.284 1267.48 344.243 1268.19 344.203C1268.9 344.224 1268.9 344.224 1269.48 344.438C1270.3 344.741 1271.09 344.752 1271.96 344.77C1272.52 344.786 1273.08 344.801 1273.66 344.817C1273.69 345.99 1273.72 347.164 1273.75 348.372C1273.91 348.447 1274.07 348.521 1274.23 348.598C1274.4 349.32 1274.4 349.32 1274.5 350.014C1274.57 349.543 1274.64 349.072 1274.7 348.586C1274.86 348.582 1275.02 348.578 1275.18 348.574C1275.2 348.852 1275.23 349.131 1275.26 349.417C1275.43 350.474 1275.68 351.332 1276.45 352.1C1276.9 352.263 1276.9 352.263 1277.41 352.329C1277.6 352.361 1277.79 352.393 1277.98 352.425C1278.19 352.457 1278.39 352.489 1278.6 352.521C1279.01 352.595 1279.43 352.669 1279.85 352.744C1280.27 352.817 1280.69 352.89 1281.11 352.963C1281.33 353.001 1281.55 353.038 1281.77 353.077C1282.3 353.169 1282.83 353.261 1283.36 353.352C1283.35 353.155 1283.35 353.155 1283.35 352.954C1283.33 352.346 1283.31 351.738 1283.29 351.13C1283.28 350.924 1283.28 350.718 1283.27 350.505C1283.24 349.494 1283.24 348.506 1283.33 347.498C1283.46 346.001 1283.41 344.507 1283.37 343.007C1283.36 342.514 1283.35 342.021 1283.34 341.528C1283.33 341.209 1283.32 340.891 1283.31 340.572C1283.31 340.288 1283.3 340.004 1283.29 339.711C1283.24 338.869 1283.11 338.063 1282.96 337.233C1282.93 336.985 1282.93 336.985 1282.9 336.731C1282.56 335.986 1281.9 335.618 1281.25 335.141C1281.32 334.748 1281.39 334.355 1281.46 333.95C1281.3 333.954 1281.14 333.958 1280.98 333.962C1280.97 333.649 1280.97 333.336 1280.96 333.014C1280.8 332.94 1280.64 332.865 1280.48 332.789C1279.39 331.791 1278.87 330.934 1278.5 329.517C1278.34 329.365 1278.18 329.212 1278.01 329.055C1277.87 328.843 1277.72 328.632 1277.57 328.414C1276.88 327.44 1276.1 326.567 1275.28 325.699C1274.73 324.961 1274.55 324.341 1274.32 323.454C1274.47 323.45 1274.63 323.447 1274.79 323.443C1274.77 323.054 1274.77 323.054 1274.74 322.658C1274.75 321.783 1274.75 321.783 1275.21 321.06ZM1212.68 324.51C1212.84 324.663 1213 324.815 1213.16 324.973C1213.16 324.816 1213.15 324.66 1213.15 324.499C1212.99 324.502 1212.84 324.506 1212.68 324.51ZM1219 330.757C1219.16 330.91 1219.32 331.062 1219.48 331.22C1219.48 331.063 1219.48 330.907 1219.47 330.745C1219.32 330.749 1219.16 330.753 1219 330.757ZM1219.95 330.734C1219.87 330.892 1219.8 331.05 1219.72 331.214C1219.88 331.366 1220.04 331.519 1220.21 331.676C1220.2 331.52 1220.2 331.363 1220.2 331.202C1220.43 331.118 1220.66 331.034 1220.9 330.947C1220.59 330.877 1220.27 330.806 1219.95 330.734ZM1221.14 330.941C1221.22 331.096 1221.3 331.25 1221.39 331.41C1221.46 331.251 1221.54 331.093 1221.61 330.93C1221.46 330.933 1221.3 330.937 1221.14 330.941ZM1218.07 331.492C1218.32 331.96 1218.32 331.96 1218.32 331.96L1218.07 331.492ZM1290.37 329.934C1290.53 330.087 1290.69 330.239 1290.86 330.396C1290.93 330.238 1291 330.08 1291.08 329.916C1290.85 329.922 1290.61 329.928 1290.37 329.934ZM1291.33 330.385C1291.26 330.699 1291.19 331.014 1291.12 331.339C1291.27 331.335 1291.43 331.331 1291.59 331.327C1291.66 331.012 1291.73 330.697 1291.8 330.373C1291.65 330.377 1291.49 330.381 1291.33 330.385ZM1291.83 331.558C1291.99 331.711 1292.15 331.863 1292.32 332.02C1292.32 331.864 1292.31 331.707 1292.31 331.546C1292.15 331.55 1291.99 331.554 1291.83 331.558ZM1220.97 333.792C1221.22 334.26 1221.22 334.26 1221.22 334.26L1220.97 333.792ZM1292.56 332.014C1292.56 332.171 1292.56 332.327 1292.57 332.488C1292.72 332.406 1292.88 332.324 1293.04 332.24C1292.88 332.165 1292.72 332.091 1292.56 332.014ZM1220.28 334.52C1220.53 334.989 1220.53 334.989 1220.53 334.989L1220.28 334.52ZM1220.78 335.457C1221.02 335.925 1221.02 335.925 1221.02 335.925L1220.78 335.457ZM1224.91 339.623C1224.99 339.856 1225.08 340.089 1225.17 340.329C1225.32 340.246 1225.47 340.164 1225.63 340.08C1225.55 339.925 1225.47 339.771 1225.38 339.612C1225.23 339.615 1225.07 339.619 1224.91 339.623ZM1187.47 340.79C1187.47 340.947 1187.47 341.103 1187.48 341.264C1187.63 341.182 1187.79 341.1 1187.95 341.015C1187.79 340.941 1187.63 340.867 1187.47 340.79ZM1185.34 341.08C1185.59 341.548 1185.59 341.548 1185.59 341.548L1185.34 341.08ZM1223.5 340.133C1223.75 340.601 1223.75 340.601 1223.75 340.601L1223.5 340.133ZM1224.94 340.809C1224.58 341.574 1224.72 342.386 1224.75 343.215C1224.75 343.394 1224.76 343.572 1224.76 343.756C1224.78 344.198 1224.79 344.64 1224.81 345.081C1224.89 345.079 1224.97 345.077 1225.05 345.075C1225.04 344.684 1225.03 344.293 1225.02 343.89C1225.17 343.886 1225.33 343.882 1225.49 343.878C1225.47 342.861 1225.44 341.844 1225.41 340.797C1225.26 340.801 1225.1 340.805 1224.94 340.809ZM1255.55 341.472C1255.8 341.94 1255.8 341.94 1255.8 341.94L1255.55 341.472ZM1220.48 342.58C1220.73 343.285 1220.73 343.285 1220.73 343.285L1220.48 342.58ZM1306.76 340.438C1307.01 340.906 1307.01 340.906 1307.01 340.906L1306.76 340.438ZM1221.22 343.984C1221.15 344.299 1221.08 344.614 1221.01 344.938C1221.16 344.621 1221.31 344.305 1221.46 343.978C1221.38 343.98 1221.3 343.982 1221.22 343.984ZM1242.56 343.455C1242.56 343.611 1242.57 343.767 1242.57 343.929C1242.72 343.847 1242.88 343.764 1243.04 343.68C1242.88 343.605 1242.72 343.531 1242.56 343.455ZM1223.36 344.168C1223.62 344.873 1223.62 344.873 1223.62 344.873L1223.36 344.168ZM1187.11 345.543C1187.36 346.011 1187.36 346.011 1187.36 346.011L1187.11 345.543ZM1244.48 344.356C1244.49 345.067 1244.49 345.067 1244.49 345.067L1244.48 344.356ZM1223.87 345.342C1224.13 346.284 1224.13 346.284 1224.13 346.284L1223.87 345.342ZM1241.4 344.669C1241.25 344.829 1241.1 344.99 1240.94 345.155C1241.1 345.151 1241.25 345.147 1241.41 345.143C1241.34 345.536 1241.28 345.929 1241.21 346.334C1241.94 346.157 1241.94 346.157 1242.18 345.584C1242.24 345.431 1242.3 345.277 1242.36 345.12C1242.04 344.971 1241.73 344.822 1241.4 344.669ZM1249.94 344.694C1250.19 345.163 1250.19 345.163 1250.19 345.163L1249.94 344.694ZM1220.55 345.661C1220.56 346.052 1220.57 346.443 1220.58 346.846C1220.66 346.844 1220.74 346.842 1220.82 346.84C1220.81 346.449 1220.8 346.058 1220.79 345.655C1220.71 345.657 1220.63 345.659 1220.55 345.661ZM1248.07 345.927C1248.32 346.395 1248.32 346.395 1248.32 346.395L1248.07 345.927ZM1239.07 346.15C1238.76 346.236 1238.44 346.322 1238.12 346.411C1238.13 346.802 1238.14 347.193 1238.15 347.596C1238.54 347.273 1238.92 346.951 1239.32 346.618C1239.23 346.464 1239.15 346.309 1239.07 346.15ZM1248.33 346.632C1248.26 347.025 1248.19 347.418 1248.12 347.823C1248.28 347.819 1248.43 347.815 1248.6 347.811C1248.59 347.42 1248.58 347.029 1248.57 346.626C1248.49 346.628 1248.41 346.63 1248.33 346.632ZM1220.89 349.448C1221.14 350.153 1221.14 350.153 1221.14 350.153L1220.89 349.448ZM1248.91 351.124C1249.17 351.829 1249.17 351.829 1249.17 351.829L1248.91 351.124ZM1249.39 351.349C1249.48 351.582 1249.56 351.814 1249.65 352.054C1249.72 351.818 1249.79 351.581 1249.87 351.337C1249.71 351.341 1249.56 351.345 1249.39 351.349ZM1247.5 351.633C1247.51 352.024 1247.52 352.415 1247.53 352.818C1247.61 352.816 1247.69 352.814 1247.77 352.812C1247.76 352.421 1247.75 352.03 1247.74 351.627C1247.66 351.629 1247.58 351.631 1247.5 351.633ZM1224.3 353.395C1224.55 353.863 1224.55 353.863 1224.55 353.863L1224.3 353.395ZM1245.41 353.108C1245.41 353.265 1245.41 353.421 1245.42 353.582C1245.19 353.706 1245.19 353.706 1244.95 353.831C1245.18 353.825 1245.42 353.82 1245.66 353.813C1245.66 353.657 1245.65 353.501 1245.65 353.339C1245.88 353.255 1246.11 353.171 1246.35 353.085C1246.04 353.093 1245.73 353.1 1245.41 353.108ZM1224.32 354.106C1224.57 354.574 1224.57 354.574 1224.57 354.574L1224.32 354.106ZM1243.3 354.109C1243.46 354.262 1243.62 354.415 1243.78 354.572C1243.78 354.415 1243.77 354.259 1243.77 354.098C1243.61 354.101 1243.46 354.105 1243.3 354.109ZM1244.24 354.086C1244.17 354.244 1244.1 354.403 1244.02 354.566C1244.18 354.562 1244.33 354.558 1244.49 354.554C1244.41 354.4 1244.33 354.245 1244.24 354.086ZM1254.72 355.486C1254.96 355.954 1254.96 355.954 1254.96 355.954L1254.72 355.486ZM1224.38 356.476C1224.64 357.182 1224.64 357.182 1224.64 357.182L1224.38 356.476ZM1221.32 357.264C1221.57 357.969 1221.57 357.969 1221.57 357.969L1221.32 357.264ZM1222.03 357.483C1222.28 357.952 1222.28 357.952 1222.28 357.952L1222.03 357.483ZM1221.81 357.963C1221.81 358.198 1221.82 358.433 1221.83 358.675C1221.98 358.592 1222.14 358.51 1222.29 358.426C1222.13 358.273 1221.97 358.121 1221.81 357.963ZM1221.35 358.686C1221.38 359.781 1221.41 360.876 1221.43 362.005C1221.51 362.003 1221.59 362.001 1221.67 361.999C1221.64 360.904 1221.62 359.809 1221.59 358.68C1221.51 358.682 1221.43 358.684 1221.35 358.686ZM1196.72 360.246C1196.97 360.715 1196.97 360.715 1196.97 360.715L1196.72 360.246ZM1196.97 360.715C1197.22 361.183 1197.22 361.183 1197.22 361.183L1196.97 360.715ZM1221.86 360.097C1221.87 360.566 1221.88 361.035 1221.9 361.519C1222.05 361.437 1222.21 361.355 1222.36 361.27C1222.36 360.879 1222.35 360.488 1222.34 360.085C1222.18 360.089 1222.02 360.093 1221.86 360.097ZM1197.72 362.119C1197.97 362.587 1197.97 362.587 1197.97 362.587L1197.72 362.119ZM1319.34 359.811C1319.42 360.044 1319.5 360.277 1319.59 360.517C1319.82 360.433 1320.06 360.348 1320.3 360.262C1319.98 360.113 1319.66 359.965 1319.34 359.811ZM1224.77 362.634C1224.78 363.181 1224.8 363.729 1224.81 364.293C1224.89 364.291 1224.97 364.289 1225.05 364.287C1225.04 363.739 1225.02 363.192 1225.01 362.628C1224.93 362.63 1224.85 362.632 1224.77 362.634ZM1186.14 363.83C1186.39 364.298 1186.39 364.298 1186.39 364.298L1186.14 363.83ZM1223.38 363.854C1223.64 364.796 1223.64 364.796 1223.64 364.796L1223.38 363.854ZM1222.2 364.12C1222.45 364.826 1222.45 364.826 1222.45 364.826L1222.2 364.12ZM1195.69 366.202C1195.93 366.67 1195.93 366.67 1195.93 366.67L1195.69 366.202ZM1195.29 369.532C1195.54 370 1195.54 370 1195.54 370L1195.29 369.532ZM1222.55 368.855C1222.81 369.798 1222.81 369.798 1222.81 369.798L1222.55 368.855ZM1222.58 370.04C1222.84 370.746 1222.84 370.746 1222.84 370.746L1222.58 370.04ZM1188.94 371.587C1189.03 371.898 1189.11 372.209 1189.2 372.529C1189.28 372.371 1189.35 372.213 1189.43 372.05C1189.27 371.897 1189.11 371.744 1188.94 371.587ZM1194.17 371.932C1194.42 372.4 1194.42 372.4 1194.42 372.4L1194.17 371.932ZM1196.3 371.879C1196.55 372.347 1196.55 372.347 1196.55 372.347L1196.3 371.879ZM1196.78 372.104C1196.86 372.259 1196.95 372.413 1197.03 372.572C1197.18 372.412 1197.33 372.252 1197.49 372.086C1197.26 372.092 1197.02 372.098 1196.78 372.104ZM1197.97 372.075C1197.98 372.544 1197.99 373.013 1198 373.497C1198.15 373.258 1198.3 373.02 1198.46 372.774C1198.3 372.543 1198.13 372.312 1197.97 372.075ZM1199.16 372.282C1199.41 372.751 1199.41 372.751 1199.41 372.751L1199.16 372.282ZM1222.62 371.7C1222.64 372.169 1222.65 372.638 1222.66 373.122C1222.74 373.12 1222.82 373.118 1222.9 373.116C1222.88 372.647 1222.87 372.177 1222.86 371.694C1222.78 371.696 1222.7 371.698 1222.62 371.7ZM1197.27 372.566C1197.35 372.799 1197.44 373.032 1197.52 373.272C1197.52 373.037 1197.51 372.802 1197.5 372.561C1197.43 372.562 1197.35 372.564 1197.27 372.566ZM1196.8 372.815C1197.05 373.52 1197.05 373.52 1197.05 373.52L1196.8 372.815ZM1297.54 370.314C1297.62 370.469 1297.7 370.623 1297.79 370.782C1297.94 370.7 1298.1 370.618 1298.26 370.534C1298.02 370.461 1297.78 370.389 1297.54 370.314ZM1297.31 370.557C1297.56 371.025 1297.56 371.025 1297.56 371.025L1297.31 370.557ZM1222.19 373.371C1222.2 373.84 1222.21 374.309 1222.23 374.793C1222.3 374.791 1222.38 374.789 1222.46 374.787C1222.45 374.318 1222.44 373.848 1222.43 373.365C1222.35 373.367 1222.27 373.369 1222.19 373.371ZM1203.49 374.784C1203.41 377.148 1203.41 377.148 1204.31 379.273C1204.78 380.144 1204.92 381.128 1205.09 382.097C1205.25 382.093 1205.41 382.089 1205.57 382.085C1205.64 382.225 1205.71 382.365 1205.79 382.509C1206.08 383.067 1206.08 383.067 1206.56 383.721C1206.71 383.717 1206.87 383.713 1207.03 383.709C1207.09 383.836 1207.15 383.964 1207.21 384.095C1207.62 384.803 1208.13 385.352 1208.69 385.951C1208.99 386.285 1208.99 386.285 1209.31 386.626C1210.01 387.234 1210.52 387.37 1211.4 387.632C1211.72 388.077 1211.72 388.077 1211.93 388.583C1212.11 389.088 1212.11 389.088 1212.39 389.505C1212.88 389.683 1212.88 389.683 1213.35 389.719C1213.46 389.481 1213.46 389.481 1213.57 389.239C1213.23 388.501 1212.93 387.936 1212.34 387.372C1212.12 386.997 1211.92 386.616 1211.72 386.231C1211.56 385.928 1211.56 385.928 1211.4 385.618C1211.3 385.424 1211.2 385.231 1211.1 385.031C1210.93 384.719 1210.76 384.406 1210.6 384.095C1210.44 384.098 1210.29 384.102 1210.12 384.106C1210.08 383.859 1210.08 383.859 1210.04 383.606C1209.82 382.797 1209.47 382.204 1209.02 381.495C1208.87 381.254 1208.72 381.012 1208.57 380.763C1208.2 380.234 1207.86 379.863 1207.4 379.43C1207.14 378.725 1207.14 378.725 1206.89 378.02C1206.74 377.804 1206.59 377.587 1206.43 377.364C1205.79 376.462 1205.35 375.516 1204.91 374.511C1204.01 374.463 1204.01 374.463 1203.49 374.784ZM1212.16 380.261C1212.41 380.729 1212.41 380.729 1212.41 380.729L1212.16 380.261ZM1266.95 380.087C1266.95 380.321 1266.96 380.556 1266.97 380.798C1267.12 380.794 1267.28 380.79 1267.44 380.786C1267.36 380.553 1267.27 380.32 1267.18 380.081C1267.11 380.083 1267.03 380.085 1266.95 380.087ZM1210.34 383.152C1210.59 383.62 1210.59 383.62 1210.59 383.62L1210.34 383.152ZM1210.59 383.62C1210.84 384.089 1210.84 384.089 1210.84 384.089L1210.59 383.62ZM1214.87 384.226C1215.12 384.694 1215.12 384.694 1215.12 384.694L1214.87 384.226ZM1211.58 385.256C1211.82 385.724 1211.82 385.724 1211.82 385.724L1211.58 385.256ZM1225.64 387.99C1225.89 388.696 1225.89 388.696 1225.89 388.696L1225.64 387.99ZM1248.16 387.431C1248.12 388.126 1248.12 388.126 1248.42 388.611C1248.58 388.607 1248.74 388.603 1248.9 388.599C1248.89 388.286 1248.88 387.973 1248.87 387.651C1248.64 387.578 1248.4 387.506 1248.16 387.431ZM1224.71 388.725C1224.45 389.84 1224.5 390.916 1224.55 392.049C1224.79 392.161 1224.79 392.161 1225.03 392.275C1225 391.101 1224.97 389.928 1224.94 388.719C1224.87 388.721 1224.79 388.723 1224.71 388.725ZM1275.91 387.454C1276.16 387.922 1276.16 387.922 1276.16 387.922L1275.91 387.454ZM1225.67 389.413C1225.93 390.355 1225.93 390.355 1225.93 390.355L1225.67 389.413ZM1213.84 390.418C1214 390.571 1214.16 390.723 1214.32 390.88C1214.32 390.724 1214.32 390.567 1214.31 390.406C1214.16 390.41 1214 390.414 1213.84 390.418ZM1224.82 393.466C1225.09 394.408 1225.09 394.408 1225.09 394.408L1224.82 393.466ZM1225.54 393.448C1225.55 393.918 1225.56 394.387 1225.57 394.87C1225.65 394.868 1225.73 394.867 1225.81 394.865C1225.8 394.395 1225.78 393.926 1225.77 393.442C1225.69 393.444 1225.62 393.446 1225.54 393.448ZM1225.09 394.645C1225.12 395.662 1225.14 396.679 1225.17 397.727C1225.25 397.725 1225.32 397.723 1225.4 397.721C1225.38 396.704 1225.35 395.687 1225.33 394.639C1225.25 394.641 1225.17 394.643 1225.09 394.645ZM1278.42 393.084C1278.27 393.244 1278.11 393.405 1277.96 393.57C1278.19 393.564 1278.43 393.558 1278.67 393.552C1278.58 393.398 1278.5 393.243 1278.42 393.084ZM1225.58 395.344C1225.61 396.283 1225.63 397.222 1225.65 398.189C1225.81 398.185 1225.97 398.181 1226.13 398.177C1226.12 397.19 1226.08 396.293 1225.82 395.339C1225.74 395.341 1225.66 395.342 1225.58 395.344ZM1226.13 398.177C1226.39 399.119 1226.39 399.119 1226.39 399.119L1226.13 398.177ZM1225.68 399.374C1225.44 400.16 1225.52 400.496 1225.73 401.27C1225.81 401.268 1225.89 401.266 1225.97 401.264C1225.95 400.639 1225.94 400.013 1225.92 399.368C1225.84 399.37 1225.76 399.372 1225.68 399.374ZM1225.74 401.507C1225.99 402.213 1225.99 402.213 1225.99 402.213L1225.74 401.507ZM1345.66 407.306C1345.9 407.652 1345.9 407.652 1346.15 408.005C1346.14 407.771 1346.14 407.536 1346.13 407.294C1345.97 407.298 1345.82 407.302 1345.66 407.306ZM1353.64 413.512C1353.72 413.666 1353.8 413.821 1353.89 413.98C1353.96 413.821 1354.04 413.663 1354.11 413.5C1353.96 413.504 1353.8 413.508 1353.64 413.512ZM1358.23 416.955C1358.23 417.112 1358.24 417.268 1358.24 417.429C1358.65 417.805 1358.65 417.805 1359.16 418.163C1359.42 418.352 1359.42 418.352 1359.68 418.545C1359.93 418.674 1359.93 418.674 1360.17 418.805C1360.41 418.721 1360.64 418.636 1360.88 418.55C1360.87 418.393 1360.87 418.237 1360.87 418.076C1360.02 417.29 1359.38 417.034 1358.23 416.955ZM1339.31 419.322C1339.32 419.479 1339.32 419.635 1339.33 419.796C1339.79 419.785 1340.26 419.773 1340.75 419.761C1340.59 419.609 1340.43 419.456 1340.26 419.299C1339.95 419.307 1339.64 419.314 1339.31 419.322ZM1362.08 418.995C1362.32 419.463 1362.32 419.463 1362.32 419.463L1362.08 418.995ZM1341.7 419.738C1341.7 419.972 1341.71 420.207 1341.71 420.449C1342.18 420.437 1342.65 420.425 1343.14 420.413C1343.05 420.259 1342.97 420.104 1342.89 419.945C1342.28 419.805 1342.28 419.805 1341.7 419.738ZM1215.61 423.58C1215.86 424.048 1215.86 424.048 1215.86 424.048L1215.61 423.58ZM1343.37 420.408C1343.73 420.633 1343.73 420.633 1344.1 420.864C1344.09 420.708 1344.09 420.551 1344.08 420.39C1343.85 420.396 1343.61 420.402 1343.37 420.408ZM1363.53 420.144C1363.46 420.459 1363.39 420.774 1363.31 421.098C1363.58 421.331 1363.85 421.561 1364.12 421.79C1364.27 421.918 1364.41 422.047 1364.57 422.179C1365.02 422.548 1365.02 422.548 1365.72 422.462C1365.8 422.695 1365.89 422.927 1365.97 423.167C1366.13 423.007 1366.28 422.846 1366.44 422.681C1366.35 422.527 1366.27 422.372 1366.19 422.213C1366.03 422.217 1365.87 422.221 1365.71 422.225C1365.65 422.084 1365.59 421.944 1365.52 421.8C1365.17 421.214 1364.83 420.947 1364.25 420.601C1364.09 420.605 1363.94 420.609 1363.78 420.613C1363.69 420.458 1363.61 420.304 1363.53 420.144ZM1346.7 420.799C1346.95 421.267 1346.95 421.267 1346.95 421.267L1346.7 420.799ZM1347.41 420.782C1347.42 420.938 1347.42 421.094 1347.43 421.256C1347.19 421.379 1347.19 421.379 1346.96 421.504C1346.96 421.739 1346.97 421.974 1346.98 422.216C1347.44 422.158 1347.44 422.158 1347.92 421.955C1348.21 421.477 1348.21 421.477 1348.37 420.995C1348.05 420.925 1347.74 420.854 1347.41 420.782ZM1362.11 420.417C1362.12 420.651 1362.12 420.886 1362.13 421.128C1362.28 421.046 1362.44 420.964 1362.6 420.879C1362.44 420.726 1362.28 420.574 1362.11 420.417ZM1225.12 424.529C1225.37 424.997 1225.37 424.997 1225.37 424.997L1225.12 424.529ZM1348.63 421.937C1348.63 422.172 1348.64 422.407 1348.65 422.648C1349.04 422.639 1349.43 422.629 1349.83 422.619C1349.91 422.461 1349.98 422.302 1350.06 422.139C1349.82 422.067 1349.58 421.994 1349.34 421.92C1349.34 422.076 1349.35 422.233 1349.35 422.394C1349.2 422.398 1349.04 422.402 1348.88 422.406C1348.8 422.251 1348.71 422.097 1348.63 421.937ZM1225.39 425.709C1225.64 426.177 1225.64 426.177 1225.64 426.177L1225.39 425.709ZM1351.49 422.578C1351.42 422.814 1351.35 423.051 1351.27 423.295C1351.58 423.209 1351.89 423.123 1352.21 423.034C1351.98 422.884 1351.74 422.733 1351.49 422.578ZM1353.87 422.756C1353.96 423.145 1354.04 423.534 1354.13 423.935C1354.29 423.931 1354.45 423.928 1354.61 423.924C1354.68 423.609 1354.75 423.294 1354.82 422.97C1354.51 422.899 1354.19 422.829 1353.87 422.756ZM1352.69 423.022C1352.77 423.255 1352.86 423.488 1352.94 423.728C1353.01 423.491 1353.09 423.254 1353.16 423.011C1353.01 423.015 1352.85 423.018 1352.69 423.022ZM1366.21 423.161C1366.37 423.314 1366.53 423.466 1366.7 423.623C1366.69 423.467 1366.69 423.311 1366.68 423.149C1366.53 423.153 1366.37 423.157 1366.21 423.161ZM1354.61 423.924C1354.86 424.392 1354.86 424.392 1354.86 424.392L1354.61 423.924ZM1365.99 423.878C1366.15 424.031 1366.31 424.183 1366.48 424.34C1366.47 424.184 1366.47 424.028 1366.47 423.866C1366.31 423.87 1366.15 423.874 1365.99 423.878ZM1367.66 424.074C1367.66 424.23 1367.66 424.387 1367.67 424.548C1367.9 424.464 1368.13 424.38 1368.37 424.293C1368.14 424.221 1367.9 424.149 1367.66 424.074ZM1359.13 424.523C1359.49 424.749 1359.49 424.749 1359.85 424.979C1359.85 424.823 1359.84 424.666 1359.84 424.505C1359.61 424.511 1359.37 424.517 1359.13 424.523ZM1360.08 424.736C1360.09 424.971 1360.09 425.206 1360.1 425.447C1359.75 425.691 1359.75 425.691 1359.4 425.939C1359.99 426.042 1359.99 426.042 1360.59 426.147C1360.66 425.754 1360.73 425.361 1360.8 424.956C1360.56 424.883 1360.33 424.811 1360.08 424.736ZM1360.81 425.43C1360.82 425.664 1360.82 425.899 1360.83 426.141C1361.56 426.363 1361.56 426.363 1362.25 426.106C1362.34 426.338 1362.42 426.571 1362.51 426.811C1362.89 426.645 1363.28 426.479 1363.68 426.307C1363.15 425.723 1362.78 425.496 1362 425.4C1361.6 425.401 1361.21 425.409 1360.81 425.43ZM1364.39 426.053C1364.23 426.213 1364.08 426.373 1363.92 426.538C1364.23 426.452 1364.54 426.366 1364.86 426.278C1364.71 426.204 1364.55 426.129 1364.39 426.053ZM1364.86 426.278C1365.03 426.43 1365.19 426.583 1365.35 426.74C1365.35 426.584 1365.34 426.427 1365.34 426.266C1365.18 426.27 1365.03 426.274 1364.86 426.278ZM1218.86 430.14C1219.11 430.608 1219.11 430.608 1219.11 430.608L1218.86 430.14ZM1365.58 426.497C1365.59 426.654 1365.59 426.81 1365.59 426.971C1365.83 427.044 1366.07 427.116 1366.31 427.191C1366.38 426.954 1366.46 426.718 1366.53 426.474C1366.22 426.482 1365.9 426.489 1365.58 426.497ZM1366.78 427.179C1366.79 427.414 1366.8 427.648 1366.8 427.89C1367.04 427.962 1367.28 428.035 1367.52 428.109C1367.51 427.875 1367.51 427.64 1367.5 427.398C1367.27 427.326 1367.03 427.254 1366.78 427.179ZM1371.76 427.055C1371.85 427.288 1371.93 427.521 1372.02 427.761C1372.09 427.524 1372.16 427.287 1372.24 427.044C1372.08 427.047 1371.92 427.051 1371.76 427.055ZM1371.29 427.304C1371.22 427.541 1371.15 427.777 1371.07 428.021C1371.16 428.176 1371.24 428.33 1371.32 428.489C1371.16 428.381 1371 428.272 1370.83 428.161C1370.02 427.757 1369.35 427.677 1368.46 427.612C1368.38 427.848 1368.31 428.085 1368.24 428.329C1368.54 428.412 1368.54 428.412 1368.86 428.496C1371.36 429.181 1371.36 429.181 1372.32 429.621C1373 429.947 1373 429.947 1373.59 429.663C1373.71 429.568 1373.83 429.472 1373.95 429.373C1373.72 429.222 1373.48 429.072 1373.23 428.916C1373 429 1372.77 429.084 1372.53 429.171C1372.44 429.017 1372.36 428.862 1372.28 428.703C1372.2 428.627 1372.12 428.55 1372.03 428.472C1372.03 428.237 1372.02 428.002 1372.02 427.761C1371.86 427.764 1371.7 427.768 1371.54 427.772C1371.46 427.618 1371.38 427.463 1371.29 427.304ZM1367.75 427.867C1368 428.335 1368 428.335 1368 428.335L1367.75 427.867ZM1373.45 427.962C1373.1 428.206 1373.1 428.206 1372.75 428.454C1372.75 428.61 1372.75 428.767 1372.76 428.928C1373.07 428.764 1373.38 428.6 1373.69 428.431C1373.61 428.276 1373.53 428.122 1373.45 427.962ZM1219.86 432.25C1220.11 432.718 1220.11 432.718 1220.11 432.718L1219.86 432.25ZM1220.36 433.186C1220.6 433.654 1220.6 433.654 1220.6 433.654L1220.36 433.186ZM1226.3 433.987C1226.56 434.692 1226.56 434.692 1226.56 434.692L1226.3 433.987ZM1222.86 438.342C1223.1 438.81 1223.1 438.81 1223.1 438.81L1222.86 438.342ZM1223.1 438.81C1223.35 439.278 1223.35 439.278 1223.35 439.278L1223.1 438.81ZM1223.6 439.747C1223.85 440.215 1223.85 440.215 1223.85 440.215L1223.6 439.747ZM1233.03 456.59C1233.28 457.058 1233.28 457.058 1233.28 457.058L1233.03 456.59ZM1233.54 457.763C1233.79 458.231 1233.79 458.231 1233.79 458.231L1233.54 457.763ZM1233.79 458.231C1234.03 458.699 1234.03 458.699 1234.03 458.699L1233.79 458.231ZM1234.03 458.699C1234.28 459.168 1234.28 459.168 1234.28 459.168L1234.03 458.699Z" fill="#4B3E5A"/>
<path d="M1630.57 464L1513 0H2252V464H1630.57Z" fill="url(#paint1_linear_255_32552)"/>
<path d="M2873.43 464L2991 0H2252V464H2873.43Z" fill="url(#paint2_linear_255_32552)"/>
<defs>
<linearGradient id="paint0_linear_255_32552" x1="1793" y1="515" x2="2824" y2="515" gradientUnits="userSpaceOnUse">
<stop stop-color="#5B4B6E"/>
<stop offset="0.505" stop-color="#B995E5"/>
<stop offset="1" stop-color="#5B4B6E"/>
</linearGradient>
<linearGradient id="paint1_linear_255_32552" x1="2451.45" y1="464" x2="2451.45" y2="-109.673" gradientUnits="userSpaceOnUse">
<stop stop-color="#1F1927"/>
<stop offset="1" stop-color="#564E61"/>
</linearGradient>
<linearGradient id="paint2_linear_255_32552" x1="2451.45" y1="464" x2="2451.45" y2="-109.673" gradientUnits="userSpaceOnUse">
<stop stop-color="#1F1927"/>
<stop offset="1" stop-color="#564E61"/>
</linearGradient>
</defs>
</svg>
