<svg width="4682" height="1880" viewBox="0 0 4682 1880" fill="none" xmlns="http://www.w3.org/2000/svg">
<path d="M1050.35 41.8465L781.877 103.963C779.912 104.417 778.121 102.882 778.294 100.89L779.163 90.8863C779.218 90.2552 779.08 89.6214 778.712 89.1191C774.027 82.729 765.2 84.3412 760.075 86.4629C759.082 86.874 758.443 87.8349 758.351 88.8919L757.819 95.0222C757.658 96.8745 755.864 98.1925 754.061 97.7832L744.346 95.5778C742.641 95.1906 742 93.1382 743.161 91.7794C744.441 90.2817 743.516 88.0283 741.58 87.9261L735.034 87.5804C733.379 87.493 732.154 86.0841 732.297 84.4334L732.687 79.9485C732.817 78.4553 734.031 77.2496 735.531 77.1243L745.684 76.2763C746.603 76.1995 747.347 75.4609 747.426 74.5462C747.508 73.6063 746.863 72.7814 745.933 72.6374L692.201 64.3117C691.026 64.1297 689.917 65.0035 689.813 66.1917C689.742 67.0112 690.178 67.7748 690.913 68.1206L701.189 72.9512C702.285 73.4661 702.933 74.6032 702.827 75.8236L702.612 78.293C702.469 79.9436 701.012 81.2109 699.357 81.1235L693.857 80.8331C693.139 80.7951 692.422 81.0158 691.838 81.4549L685.119 86.5023C684.534 86.9414 683.818 87.1621 683.1 87.1241L670.915 86.4807C669.261 86.3933 668.035 84.9844 668.179 83.3337L669.035 73.4755C669.115 72.5548 668.776 71.6461 668.04 71.1106C662.706 67.228 656.893 68.8073 653.823 70.5495C653.188 70.9101 652.767 71.5409 652.583 72.2406L650.159 81.4616C649.895 82.466 649.135 83.2818 648.146 83.6213L634.357 88.3592C633.191 88.7595 632.361 89.8135 632.256 91.0267L630.982 105.688C630.869 106.992 631.616 108.191 632.829 108.649L657.493 117.976C660.063 118.948 659.936 122.616 657.298 123.583L619.177 137.557C619.042 137.606 618.904 137.646 618.764 137.677L441.779 175.868C439.92 176.269 439.902 178.914 441.757 179.215C443.461 179.492 443.641 181.839 442.008 182.48L440.854 182.933C439.119 183.615 439.027 186.024 440.709 186.721L646.105 271.768C646.531 271.944 646.995 272.018 647.462 271.983L917.832 251.905C918.71 251.84 919.529 251.396 920.072 250.69L997.563 150.022C997.988 149.469 998.21 148.785 998.223 148.099C998.561 129.745 1014.6 121.737 1023.65 119.749C1024.34 119.598 1024.97 119.244 1025.44 118.709L1076.68 60.3708C1077.11 59.873 1077.38 59.2523 1077.44 58.6027L1078.85 42.302C1079.01 40.4623 1077.48 38.9722 1075.64 39.1678L1050.35 41.8465Z" fill="url(#paint0_linear_255_32554)"/>
<path d="M1456.51 135.225L1286.93 174.534C1284.97 174.989 1283.18 173.454 1283.35 171.462L1283.75 166.873C1283.8 166.243 1283.67 165.604 1283.28 165.121C1280.43 161.588 1275.44 162.277 1272.21 163.473C1271.2 163.846 1270.56 164.812 1270.47 165.868L1270.3 167.878C1270.13 169.731 1268.34 171.049 1266.54 170.639L1261.61 169.518C1260.52 169.271 1260.11 167.962 1260.85 167.095C1261.66 166.139 1261.07 164.702 1259.84 164.636L1256.76 164.474C1255.11 164.387 1253.88 162.978 1254.02 161.327L1254.1 160.491C1254.23 158.998 1255.44 157.792 1256.94 157.667L1262.45 157.205C1263.04 157.156 1263.52 156.684 1263.57 156.101C1263.62 155.501 1263.21 154.975 1262.61 154.883L1228.4 149.575C1227.65 149.459 1226.94 150.017 1226.87 150.775C1226.83 151.298 1227.11 151.784 1227.57 152.005L1233.55 154.817C1234.59 155.308 1235.21 156.391 1235.11 157.553C1234.97 159.125 1233.58 160.333 1232 160.249L1229.85 160.136C1229.13 160.098 1228.42 160.319 1227.83 160.759L1224.21 163.483C1223.63 163.924 1222.91 164.145 1222.19 164.107L1215.92 163.776C1214.27 163.688 1213.04 162.28 1213.19 160.629L1213.59 155.949C1213.67 155.029 1213.34 154.11 1212.57 153.619C1209.5 151.65 1206.25 152.385 1204.31 153.363C1203.66 153.692 1203.24 154.328 1203.06 155.027L1201.77 159.934C1201.5 160.938 1200.75 161.754 1199.76 162.094L1192.25 164.678C1191.08 165.079 1190.25 166.133 1190.15 167.345L1189.47 175.182C1189.36 176.485 1190.1 177.683 1191.31 178.142L1203.6 182.794C1206.17 183.766 1206.04 187.432 1203.4 188.4L1181.95 196.277C1181.82 196.327 1181.68 196.367 1181.54 196.397L1068.89 220.753C1067.7 221.009 1067.69 222.696 1068.87 222.889C1069.96 223.065 1070.07 224.562 1069.03 224.971L1068.3 225.261C1067.19 225.696 1067.13 227.232 1068.21 227.677L1198.78 281.821C1199.21 281.998 1199.67 282.072 1200.14 282.037L1371.58 269.271C1372.46 269.206 1373.28 268.761 1373.82 268.054L1422.64 204.544C1423.06 203.991 1423.28 203.315 1423.31 202.63C1423.72 191.446 1433.34 186.405 1439.1 185.012C1439.79 184.846 1440.43 184.493 1440.9 183.958L1473.03 147.318C1473.46 146.82 1473.73 146.2 1473.79 145.551L1474.55 136.784C1474.71 134.944 1473.18 133.454 1471.33 133.65L1456.51 135.225Z" fill="url(#paint1_linear_255_32554)"/>
<path d="M1828.97 198.362L1699.94 228.246C1697.97 228.701 1696.18 227.166 1696.36 225.174L1696.56 222.82C1696.62 222.19 1696.49 221.546 1696.08 221.079C1693.98 218.697 1690.54 219.047 1688.12 219.854C1687.1 220.194 1686.46 221.166 1686.37 222.222L1686.34 222.532C1686.18 224.384 1684.39 225.702 1682.59 225.293L1679.61 224.617C1678.78 224.428 1678.46 223.426 1679.03 222.762C1679.66 222.03 1679.2 220.929 1678.26 220.879L1675.94 220.756C1674.65 220.688 1673.69 219.591 1673.8 218.305L1673.83 218.003C1673.94 216.688 1675.01 215.627 1676.33 215.517L1680.26 215.188C1680.71 215.151 1681.07 214.79 1681.11 214.343C1681.15 213.884 1680.84 213.481 1680.38 213.41L1654.16 209.345C1653.59 209.256 1653.04 209.683 1652.99 210.263C1652.96 210.663 1653.17 211.036 1653.53 211.205L1658.11 213.359C1658.91 213.735 1659.38 214.564 1659.3 215.454C1659.2 216.658 1658.13 217.583 1656.93 217.519L1655.54 217.445C1654.82 217.407 1654.1 217.628 1653.52 218.068L1651.17 219.836C1650.58 220.275 1649.86 220.496 1649.14 220.459L1645.3 220.256C1643.65 220.168 1642.42 218.759 1642.57 217.109L1642.79 214.567C1642.87 213.647 1642.54 212.716 1641.75 212.266C1639.6 211.049 1637.38 211.472 1635.94 212.129C1635.28 212.433 1634.86 213.074 1634.68 213.773L1633.85 216.898C1633.59 217.902 1632.83 218.718 1631.84 219.058L1626.91 220.754C1625.74 221.155 1624.91 222.209 1624.81 223.421L1624.37 228.439C1624.26 229.742 1625.01 230.94 1626.22 231.399L1633.42 234.123C1635.99 235.095 1635.86 238.762 1633.22 239.729L1618.62 245.089C1618.48 245.138 1618.34 245.178 1618.2 245.208L1531.92 263.845C1531.02 264.042 1531.01 265.334 1531.91 265.481C1532.75 265.616 1532.83 266.762 1532.04 267.076L1531.47 267.297C1530.63 267.63 1530.58 268.807 1531.4 269.147L1631.32 310.551C1631.75 310.728 1632.21 310.801 1632.68 310.767L1763.57 301.032C1764.45 300.967 1765.27 300.523 1765.81 299.816L1802.87 251.644C1803.29 251.092 1803.51 250.414 1803.54 249.729C1803.99 241.494 1811 237.686 1815.39 236.549C1816.08 236.372 1816.71 236.022 1817.18 235.487L1841.48 207.803C1841.91 207.305 1842.18 206.685 1842.24 206.036L1842.73 200.379C1842.89 198.539 1841.36 197.049 1839.51 197.244L1828.97 198.362Z" fill="url(#paint2_linear_255_32554)"/>
<path d="M2215.48 255.147L2111.58 279.238C2109.61 279.694 2107.82 278.158 2108 276.166L2108.08 275.188C2108.14 274.558 2108.01 273.91 2107.58 273.46C2105.9 271.697 2103.24 271.951 2101.33 272.573C2100.45 272.858 2099.9 273.694 2099.82 274.602L2099.81 274.743C2099.68 276.262 2098.21 277.343 2096.73 277.007L2094.35 276.466C2093.67 276.312 2093.42 275.498 2093.88 274.959C2094.39 274.365 2094.02 273.472 2093.25 273.431L2091.37 273.332C2090.33 273.276 2089.55 272.386 2089.64 271.343L2089.66 271.096C2089.76 270.029 2090.62 269.168 2091.7 269.078L2094.88 268.811C2095.24 268.781 2095.54 268.488 2095.57 268.125C2095.6 267.752 2095.35 267.425 2094.98 267.368L2073.71 264.069C2073.25 263.997 2072.81 264.343 2072.76 264.815C2072.74 265.14 2072.91 265.442 2073.2 265.579L2076.91 267.327C2077.56 267.632 2077.94 268.306 2077.88 269.028C2077.8 270.005 2076.93 270.756 2075.95 270.704L2074.96 270.651C2074.29 270.616 2073.63 270.821 2073.08 271.228L2071.45 272.456C2070.87 272.896 2070.15 273.118 2069.43 273.08L2067.09 272.956C2065.44 272.869 2064.21 271.46 2064.36 269.809L2064.46 268.582C2064.54 267.663 2064.22 266.72 2063.4 266.313C2061.83 265.532 2060.24 265.787 2059.13 266.246C2058.46 266.524 2058.04 267.169 2057.86 267.868L2057.32 269.898C2057.06 270.902 2056.3 271.718 2055.31 272.058L2051.97 273.207C2050.81 273.608 2049.98 274.661 2049.88 275.874L2049.59 279.158C2049.48 280.462 2050.22 281.66 2051.43 282.118L2055.49 283.655C2058.06 284.628 2057.93 288.293 2055.3 289.261L2044.92 293.072C2044.79 293.121 2044.65 293.162 2044.51 293.192L1974.58 308.316C1973.84 308.475 1973.83 309.524 1974.57 309.643C1975.24 309.753 1975.31 310.683 1974.67 310.938L1974.21 311.118C1973.52 311.388 1973.49 312.343 1974.15 312.62L2055.06 346.174C2055.48 346.351 2055.95 346.425 2056.42 346.39L2162.17 338.512C2163.05 338.447 2163.87 338.002 2164.42 337.295L2194.18 298.56C2194.61 298.008 2194.82 297.33 2194.87 296.646C2195.32 290.223 2200.73 287.176 2204.26 286.2C2204.95 286.012 2205.59 285.662 2206.06 285.127L2225.49 262.954C2225.93 262.456 2226.2 261.836 2226.25 261.188L2226.58 257.444C2226.74 255.604 2225.21 254.113 2223.36 254.309L2215.48 255.147Z" fill="url(#paint3_linear_255_32554)"/>
<path d="M2527.78 316.867L2447.14 335.583C2445.3 336.011 2443.62 334.572 2443.78 332.705C2443.83 332.114 2443.72 331.502 2443.3 331.099C2441.98 329.834 2439.97 330.035 2438.52 330.509C2437.83 330.732 2437.4 331.386 2437.34 332.097L2437.33 332.208C2437.23 333.396 2436.08 334.242 2434.92 333.979L2433.06 333.556C2432.53 333.435 2432.33 332.799 2432.69 332.377C2433.09 331.912 2432.8 331.213 2432.2 331.181L2430.73 331.103C2429.91 331.06 2429.31 330.364 2429.38 329.548L2429.39 329.354C2429.47 328.519 2430.15 327.845 2430.98 327.774L2433.47 327.565C2433.76 327.542 2433.99 327.312 2434.01 327.028C2434.04 326.737 2433.84 326.481 2433.55 326.436L2416.92 323.855C2416.56 323.798 2416.21 324.07 2416.18 324.438C2416.16 324.693 2416.29 324.929 2416.52 325.037L2419.42 326.404C2419.93 326.643 2420.23 327.17 2420.18 327.735C2420.12 328.5 2419.44 329.088 2418.67 329.047L2417.89 329.006C2417.37 328.979 2416.85 329.139 2416.43 329.458L2415.35 330.27C2414.77 330.71 2414.05 330.932 2413.33 330.894L2412.39 330.844C2410.74 330.757 2409.52 329.35 2409.66 327.702C2409.74 326.783 2409.42 325.822 2408.58 325.484C2407.55 325.073 2406.53 325.197 2405.75 325.471C2405.06 325.712 2404.64 326.365 2404.46 327.064L2404.2 328.066C2403.93 329.07 2403.17 329.886 2402.19 330.226L2400.34 330.862C2399.18 331.264 2398.35 332.317 2398.24 333.529L2398.1 335.189C2397.99 336.492 2398.73 337.69 2399.94 338.149L2401.06 338.573C2403.63 339.546 2403.5 343.21 2400.87 344.178L2394.45 346.537C2394.32 346.587 2394.18 346.627 2394.04 346.657L2339.4 358.486C2338.82 358.611 2338.82 359.431 2339.39 359.525C2339.92 359.611 2339.98 360.338 2339.47 360.538L2339.11 360.679C2338.57 360.89 2338.55 361.638 2339.07 361.854L2402.19 388.052C2402.62 388.23 2403.08 388.304 2403.55 388.269L2485.79 382.134C2486.67 382.069 2487.49 381.623 2488.03 380.916L2510.98 351.029C2511.4 350.477 2511.61 349.801 2511.68 349.118C2512.13 344.381 2516.06 342.053 2518.78 341.236C2519.46 341.032 2520.1 340.685 2520.57 340.149L2535.46 323.143C2535.9 322.646 2536.16 322.026 2536.22 321.378L2536.39 319.427C2536.55 317.587 2535.02 316.097 2533.17 316.293L2527.78 316.867Z" fill="url(#paint4_linear_255_32554)"/>
<path d="M1040.86 302.673L898.064 335.775C896.099 336.231 894.307 334.695 894.48 332.703L894.751 329.587C894.806 328.957 894.676 328.316 894.274 327.842C891.922 325.07 887.955 325.531 885.254 326.472C884.241 326.825 883.604 327.794 883.512 328.85L883.435 329.74C883.274 331.593 881.48 332.911 879.677 332.501L876.038 331.674C875.118 331.465 874.772 330.358 875.398 329.625C876.088 328.816 875.588 327.601 874.544 327.546L871.983 327.411C870.561 327.335 869.507 326.124 869.631 324.705L869.66 324.369C869.786 322.918 870.966 321.746 872.424 321.624L876.757 321.261C877.252 321.22 877.654 320.821 877.697 320.328C877.741 319.82 877.393 319.375 876.891 319.298L847.954 314.809C847.321 314.711 846.722 315.182 846.666 315.823C846.628 316.265 846.862 316.677 847.259 316.864L852.31 319.242C853.192 319.657 853.713 320.573 853.628 321.555C853.513 322.885 852.338 323.906 851.005 323.836L849.358 323.749C848.639 323.711 847.922 323.932 847.337 324.372L844.555 326.465C843.97 326.906 843.252 327.127 842.533 327.089L837.868 326.842C836.213 326.755 834.988 325.346 835.132 323.695L835.416 320.424C835.496 319.504 835.166 318.578 834.384 318.111C831.922 316.642 829.353 317.168 827.742 317.935C827.084 318.249 826.665 318.888 826.482 319.587L825.501 323.32C825.238 324.324 824.478 325.14 823.49 325.48L817.682 327.479C816.517 327.88 815.688 328.934 815.583 330.146L815.063 336.126C814.95 337.429 815.697 338.627 816.908 339.086L825.837 342.467C828.406 343.44 828.279 347.105 825.643 348.073L808.708 354.292C808.573 354.341 808.435 354.382 808.295 354.412L713.062 375.002C712.059 375.219 712.05 376.645 713.05 376.808C713.969 376.957 714.066 378.223 713.186 378.569L712.563 378.814C711.628 379.182 711.578 380.481 712.485 380.857L822.809 426.604C823.235 426.781 823.7 426.855 824.168 426.82L968.827 416.048C969.706 415.983 970.525 415.538 971.069 414.832L1012.12 361.426C1012.54 360.874 1012.76 360.198 1012.79 359.513C1013.23 350.273 1021.12 346.042 1025.98 344.817C1026.67 344.644 1027.3 344.293 1027.77 343.758L1054.73 313.018C1055.16 312.52 1055.43 311.9 1055.49 311.252L1056.07 304.533C1056.23 302.693 1054.7 301.203 1052.85 301.399L1040.86 302.673Z" fill="url(#paint5_linear_255_32554)"/>
<path d="M1372.22 353.443L1263.71 378.574C1261.75 379.03 1259.95 377.494 1260.13 375.502L1260.23 374.276C1260.29 373.645 1260.16 372.998 1259.74 372.544C1257.98 370.676 1255.19 370.94 1253.19 371.591C1252.27 371.888 1251.7 372.759 1251.62 373.705L1251.61 373.85C1251.47 375.433 1249.94 376.56 1248.4 376.21L1245.91 375.646C1245.21 375.486 1244.94 374.638 1245.42 374.077C1245.95 373.458 1245.57 372.527 1244.77 372.485L1242.8 372.381C1241.71 372.323 1240.91 371.395 1241 370.308L1241.02 370.052C1241.12 368.941 1242.03 368.043 1243.14 367.95L1246.46 367.672C1246.84 367.64 1247.15 367.335 1247.18 366.957C1247.22 366.569 1246.95 366.228 1246.57 366.168L1224.39 362.73C1223.9 362.655 1223.45 363.016 1223.4 363.507C1223.37 363.845 1223.55 364.161 1223.86 364.304L1227.73 366.125C1228.4 366.443 1228.8 367.144 1228.74 367.897C1228.65 368.915 1227.75 369.697 1226.73 369.643L1225.69 369.588C1224.99 369.551 1224.3 369.764 1223.74 370.189L1222 371.497C1221.41 371.937 1220.7 372.158 1219.98 372.12L1217.36 371.982C1215.71 371.894 1214.48 370.485 1214.62 368.835L1214.75 367.372C1214.83 366.451 1214.51 365.511 1213.7 365.095C1212.02 364.237 1210.31 364.521 1209.14 365.015C1208.47 365.299 1208.05 365.943 1207.87 366.642L1207.28 368.869C1207.02 369.873 1206.26 370.689 1205.27 371.028L1201.64 372.277C1200.48 372.677 1199.65 373.731 1199.54 374.944L1199.23 378.54C1199.12 379.843 1199.86 381.041 1201.08 381.5L1205.7 383.251C1208.27 384.223 1208.14 387.89 1205.51 388.857L1194.36 392.946C1194.23 392.996 1194.09 393.036 1193.95 393.066L1121.02 408.82C1120.25 408.986 1120.24 410.079 1121.01 410.203C1121.71 410.317 1121.79 411.287 1121.11 411.552L1120.64 411.739C1119.92 412.021 1119.88 413.016 1120.58 413.304L1204.97 448.276C1205.4 448.453 1205.87 448.527 1206.33 448.492L1316.7 440.284C1317.58 440.219 1318.4 439.774 1318.94 439.068L1350.05 398.634C1350.47 398.081 1350.68 397.402 1350.73 396.718C1351.18 389.969 1356.88 386.784 1360.57 385.78C1361.26 385.594 1361.9 385.245 1362.37 384.71L1382.69 361.545C1383.13 361.047 1383.4 360.427 1383.45 359.778L1383.81 355.689C1383.97 353.849 1382.44 352.359 1380.59 352.555L1372.22 353.443Z" fill="url(#paint6_linear_255_32554)"/>
<path d="M1718.39 391.973L1631.13 412.205C1629.16 412.661 1627.37 411.125 1627.54 409.133L1627.55 409.071C1627.61 408.44 1627.49 407.786 1627.04 407.355C1625.61 405.979 1623.43 406.196 1621.85 406.709C1621.11 406.95 1620.65 407.658 1620.58 408.425L1620.57 408.544C1620.46 409.829 1619.22 410.743 1617.97 410.459L1615.95 410.001C1615.38 409.871 1615.17 409.183 1615.55 408.727C1615.98 408.225 1615.67 407.469 1615.02 407.435L1613.43 407.351C1612.55 407.304 1611.89 406.551 1611.97 405.669L1611.99 405.46C1612.07 404.558 1612.8 403.83 1613.71 403.754L1616.4 403.528C1616.71 403.503 1616.96 403.255 1616.98 402.948C1617.01 402.633 1616.79 402.356 1616.48 402.308L1598.5 399.518C1598.1 399.457 1597.73 399.75 1597.7 400.148C1597.67 400.423 1597.82 400.679 1598.07 400.795L1601.21 402.273C1601.75 402.531 1602.08 403.101 1602.02 403.711C1601.95 404.538 1601.22 405.173 1600.39 405.129L1599.55 405.084C1598.99 405.055 1598.43 405.228 1597.97 405.572L1596.73 406.505C1596.14 406.946 1595.43 407.167 1594.71 407.129L1593.36 407.058C1591.71 406.971 1590.48 405.562 1590.63 403.911L1590.66 403.56C1590.74 402.64 1590.42 401.684 1589.58 401.322C1588.39 400.81 1587.21 400.968 1586.33 401.295C1585.65 401.549 1585.23 402.199 1585.05 402.898L1584.7 404.198C1584.44 405.202 1583.68 406.018 1582.69 406.358L1580.41 407.143C1579.25 407.544 1578.42 408.598 1578.31 409.81L1578.13 411.941C1578.02 413.244 1578.76 414.442 1579.97 414.901L1581.95 415.648C1584.51 416.621 1584.39 420.286 1581.75 421.253L1574.18 424.033C1574.05 424.083 1573.91 424.123 1573.77 424.153L1514.66 436.936C1514.04 437.071 1514.03 437.958 1514.66 438.059C1515.23 438.151 1515.29 438.938 1514.74 439.153L1514.35 439.306C1513.77 439.534 1513.74 440.342 1514.3 440.576L1582.62 468.911C1583.05 469.087 1583.52 469.161 1583.98 469.127L1673.09 462.489C1673.97 462.423 1674.79 461.978 1675.34 461.271L1700.28 428.818C1700.7 428.266 1700.91 427.588 1700.97 426.905C1701.42 421.68 1705.78 419.142 1708.74 418.279C1709.42 418.081 1710.06 417.734 1710.53 417.198L1726.75 398.693C1727.19 398.196 1727.46 397.576 1727.51 396.927L1727.73 394.456C1727.89 392.616 1726.36 391.126 1724.51 391.322L1718.39 391.973Z" fill="url(#paint7_linear_255_32554)"/>
<path d="M1999.51 438.862L1931.31 454.69C1929.76 455.052 1928.34 453.835 1928.47 452.256C1928.52 451.757 1928.42 451.238 1928.07 450.898C1926.95 449.828 1925.25 449.998 1924.02 450.399C1923.44 450.588 1923.08 451.141 1923.02 451.742L1923.02 451.836C1922.93 452.841 1921.96 453.556 1920.98 453.333L1919.41 452.976C1918.96 452.874 1918.79 452.336 1919.09 451.979C1919.43 451.585 1919.19 450.994 1918.68 450.967L1917.43 450.901C1916.74 450.865 1916.23 450.276 1916.29 449.586L1916.31 449.422C1916.37 448.716 1916.94 448.146 1917.65 448.086L1919.75 447.91C1920 447.889 1920.19 447.696 1920.21 447.455C1920.23 447.209 1920.06 446.992 1919.82 446.954L1905.76 444.772C1905.45 444.724 1905.16 444.953 1905.13 445.265C1905.11 445.48 1905.23 445.681 1905.42 445.771L1907.87 446.928C1908.3 447.13 1908.56 447.575 1908.51 448.053C1908.46 448.7 1907.89 449.197 1907.24 449.163L1906.58 449.128C1906.14 449.105 1905.7 449.24 1905.34 449.51L1904.57 450.091C1903.99 450.532 1903.27 450.753 1902.55 450.715L1901.93 450.683C1900.53 450.609 1899.5 449.419 1899.62 448.025C1899.69 447.248 1899.42 446.435 1898.7 446.149C1897.9 445.831 1897.11 445.893 1896.47 446.084C1895.78 446.295 1895.36 446.954 1895.18 447.652L1895.06 448.084C1894.8 449.088 1894.04 449.904 1893.05 450.244L1892.03 450.596C1890.87 450.997 1890.04 452.05 1889.94 453.262L1889.86 454.138C1889.75 455.37 1890.46 456.503 1891.6 456.937C1894.03 457.858 1893.91 461.323 1891.42 462.239L1886.79 463.942C1886.65 463.992 1886.51 464.032 1886.37 464.062L1840.2 474.058C1839.71 474.164 1839.71 474.858 1840.19 474.937C1840.64 475.009 1840.69 475.625 1840.26 475.793L1839.96 475.913C1839.5 476.092 1839.48 476.724 1839.92 476.907L1893.2 499.02C1893.62 499.198 1894.09 499.272 1894.56 499.237L1963.78 494.073C1964.66 494.007 1965.48 493.562 1966.02 492.855L1985.2 467.884C1985.62 467.332 1985.83 466.654 1985.91 465.973C1986.35 462.168 1989.47 460.243 1991.73 459.521C1992.41 459.305 1993.05 458.96 1993.52 458.424L2005.9 444.288C2006.34 443.791 2006.6 443.171 2006.66 442.523L2006.74 441.569C2006.9 439.729 2005.37 438.239 2003.53 438.435L1999.51 438.862Z" fill="url(#paint8_linear_255_32554)"/>
<path d="M2298.46 473.782L2230.27 489.61C2228.71 489.972 2227.29 488.755 2227.43 487.176C2227.47 486.677 2227.38 486.158 2227.02 485.817C2225.9 484.748 2224.2 484.918 2222.97 485.319C2222.39 485.507 2222.03 486.061 2221.98 486.661L2221.97 486.756C2221.88 487.761 2220.91 488.476 2219.93 488.253L2218.36 487.896C2217.91 487.794 2217.74 487.255 2218.05 486.899C2218.38 486.505 2218.14 485.914 2217.63 485.887L2216.39 485.821C2215.7 485.785 2215.18 485.196 2215.24 484.506L2215.26 484.342C2215.32 483.636 2215.89 483.066 2216.6 483.006L2218.71 482.83C2218.95 482.809 2219.14 482.615 2219.16 482.375C2219.19 482.129 2219.02 481.912 2218.77 481.874L2204.71 479.692C2204.4 479.644 2204.11 479.873 2204.08 480.185C2204.07 480.4 2204.18 480.6 2204.37 480.691L2206.83 481.848C2207.26 482.05 2207.51 482.495 2207.47 482.973C2207.41 483.62 2206.84 484.117 2206.19 484.083L2205.53 484.048C2205.09 484.025 2204.65 484.16 2204.3 484.43L2203.52 485.011C2202.94 485.452 2202.22 485.673 2201.5 485.635L2200.88 485.603C2199.48 485.529 2198.45 484.339 2198.57 482.945C2198.64 482.168 2198.37 481.355 2197.65 481.069C2196.85 480.751 2196.06 480.812 2195.43 481.004C2194.73 481.215 2194.31 481.874 2194.13 482.572L2194.02 483.004C2193.75 484.008 2192.99 484.824 2192.01 485.164L2190.99 485.516C2189.82 485.917 2188.99 486.97 2188.89 488.182L2188.81 489.057C2188.71 490.29 2189.41 491.423 2190.56 491.857C2192.98 492.777 2192.86 496.243 2190.37 497.159L2185.74 498.862C2185.61 498.912 2185.47 498.952 2185.33 498.982L2139.15 508.978C2138.66 509.084 2138.66 509.778 2139.15 509.857C2139.59 509.929 2139.64 510.545 2139.21 510.713L2138.91 510.833C2138.45 511.012 2138.43 511.644 2138.87 511.827L2192.15 533.94C2192.58 534.117 2193.04 534.192 2193.51 534.157L2262.74 528.993C2263.61 528.927 2264.43 528.482 2264.98 527.775L2284.15 502.804C2284.58 502.251 2284.78 501.574 2284.86 500.893C2285.3 497.088 2288.43 495.163 2290.69 494.441C2291.36 494.225 2292 493.879 2292.47 493.344L2304.85 479.208C2305.29 478.711 2305.56 478.091 2305.61 477.443L2305.7 476.489C2305.86 474.649 2304.33 473.159 2302.48 473.355L2298.46 473.782Z" fill="url(#paint9_linear_255_32554)"/>
<path d="M487.419 327.321L378.906 352.452C376.941 352.907 375.15 351.372 375.323 349.38L375.429 348.154C375.484 347.523 375.36 346.876 374.934 346.422C373.179 344.554 370.386 344.818 368.384 345.469C367.47 345.766 366.899 346.637 366.817 347.583L366.804 347.728C366.667 349.311 365.133 350.438 363.592 350.088L361.108 349.524C360.403 349.364 360.139 348.516 360.618 347.954C361.146 347.335 360.764 346.405 359.964 346.362L358 346.259C356.91 346.201 356.103 345.273 356.198 344.186L356.22 343.93C356.317 342.819 357.22 341.921 358.337 341.828L361.659 341.55C362.039 341.518 362.346 341.213 362.379 340.835C362.413 340.447 362.146 340.106 361.762 340.046L339.585 336.608C339.1 336.533 338.641 336.894 338.598 337.385C338.569 337.723 338.749 338.039 339.053 338.182L342.924 340.003C343.6 340.321 343.999 341.022 343.934 341.775C343.846 342.793 342.946 343.575 341.926 343.521L340.883 343.466C340.189 343.429 339.497 343.642 338.933 344.067L337.192 345.375C336.608 345.815 335.891 346.036 335.172 345.998L332.556 345.86C330.902 345.772 329.677 344.363 329.82 342.713L329.947 341.25C330.027 340.329 329.703 339.389 328.891 338.973C327.215 338.115 325.51 338.399 324.338 338.893C323.667 339.177 323.247 339.821 323.064 340.52L322.479 342.747C322.215 343.751 321.455 344.567 320.467 344.906L316.837 346.155C315.672 346.555 314.843 347.609 314.737 348.822L314.425 352.417C314.312 353.721 315.059 354.919 316.271 355.378L320.898 357.129C323.467 358.101 323.34 361.768 320.704 362.735L309.559 366.824C309.424 366.874 309.286 366.914 309.146 366.944L236.213 382.698C235.446 382.864 235.438 383.956 236.204 384.081C236.908 384.195 236.983 385.165 236.308 385.43L235.832 385.617C235.115 385.899 235.077 386.894 235.772 387.182L320.17 422.154C320.596 422.331 321.061 422.405 321.528 422.37L431.899 414.162C432.777 414.097 433.596 413.652 434.14 412.946L465.24 372.512C465.666 371.959 465.879 371.28 465.925 370.596C466.377 363.847 472.078 360.662 475.77 359.658C476.453 359.472 477.092 359.123 477.562 358.588L497.889 335.423C498.326 334.925 498.592 334.305 498.649 333.656L499.004 329.567C499.164 327.727 497.635 326.237 495.789 326.433L487.419 327.321Z" fill="url(#paint10_linear_255_32554)"/>
<path d="M729.494 456.014L642.235 476.246C640.269 476.702 638.477 475.166 638.65 473.174L638.656 473.112C638.711 472.481 638.591 471.827 638.143 471.396C636.716 470.02 634.535 470.237 632.958 470.75C632.217 470.991 631.754 471.699 631.687 472.466L631.677 472.585C631.565 473.87 630.321 474.784 629.071 474.5L627.058 474.042C626.486 473.912 626.271 473.224 626.66 472.768C627.089 472.266 626.778 471.51 626.129 471.476L624.538 471.392C623.654 471.345 622.999 470.592 623.076 469.71L623.094 469.501C623.172 468.599 623.906 467.871 624.812 467.795L627.504 467.569C627.813 467.544 628.062 467.296 628.089 466.989C628.116 466.674 627.9 466.397 627.588 466.349L609.604 463.559C609.21 463.498 608.838 463.791 608.803 464.189C608.779 464.464 608.925 464.72 609.172 464.836L612.311 466.314C612.859 466.572 613.183 467.142 613.13 467.752C613.058 468.579 612.328 469.214 611.5 469.17L610.656 469.125C610.093 469.096 609.532 469.269 609.074 469.613L607.834 470.546C607.249 470.987 606.532 471.208 605.813 471.17L604.469 471.099C602.815 471.012 601.589 469.603 601.733 467.952L601.763 467.601C601.843 466.681 601.523 465.725 600.685 465.363C599.498 464.851 598.314 465.009 597.436 465.336C596.754 465.59 596.335 466.24 596.151 466.939L595.81 468.239C595.546 469.243 594.787 470.059 593.799 470.399L591.518 471.184C590.354 471.585 589.524 472.639 589.419 473.851L589.234 475.982C589.121 477.285 589.867 478.483 591.079 478.942L593.051 479.689C595.619 480.662 595.493 484.327 592.857 485.295L585.289 488.074C585.154 488.124 585.016 488.164 584.876 488.194L525.768 500.977C525.145 501.112 525.139 501.999 525.761 502.1C526.332 502.193 526.392 502.979 525.845 503.194L525.458 503.347C524.877 503.575 524.846 504.383 525.41 504.617L593.729 532.952C594.156 533.128 594.621 533.202 595.089 533.168L684.2 526.53C685.079 526.464 685.899 526.019 686.442 525.313L711.382 492.859C711.806 492.307 712.016 491.629 712.075 490.946C712.529 485.721 716.888 483.183 719.846 482.32C720.526 482.122 721.166 481.775 721.636 481.239L737.859 462.734C738.295 462.237 738.561 461.617 738.617 460.968L738.832 458.497C738.992 456.657 737.463 455.167 735.617 455.363L729.494 456.014Z" fill="url(#paint11_linear_255_32554)"/>
<path d="M1100.41 512.061L1032.22 527.888C1030.66 528.25 1029.24 527.033 1029.38 525.454C1029.42 524.955 1029.33 524.437 1028.97 524.096C1027.86 523.026 1026.16 523.196 1024.93 523.597C1024.35 523.786 1023.98 524.339 1023.93 524.94L1023.92 525.034C1023.84 526.039 1022.86 526.754 1021.88 526.532L1020.31 526.174C1019.86 526.072 1019.7 525.534 1020 525.177C1020.34 524.783 1020.09 524.192 1019.58 524.165L1018.34 524.1C1017.65 524.063 1017.14 523.474 1017.2 522.784L1017.21 522.62C1017.27 521.914 1017.85 521.344 1018.56 521.284L1020.66 521.108C1020.9 521.088 1021.1 520.894 1021.12 520.654C1021.14 520.407 1020.97 520.19 1020.73 520.153L1006.66 517.97C1006.36 517.922 1006.06 518.152 1006.04 518.463C1006.02 518.678 1006.13 518.879 1006.33 518.97L1008.78 520.126C1009.21 520.328 1009.46 520.774 1009.42 521.252C1009.36 521.899 1008.79 522.395 1008.14 522.361L1007.49 522.326C1007.05 522.303 1006.61 522.439 1006.25 522.708L1005.48 523.289C1004.89 523.73 1004.17 523.952 1003.45 523.914L1002.84 523.881C1001.44 523.807 1000.4 522.617 1000.52 521.223C1000.59 520.446 1000.32 519.633 999.605 519.347C998.807 519.029 998.014 519.091 997.381 519.283C996.686 519.493 996.265 520.152 996.082 520.851L995.969 521.282C995.705 522.286 994.946 523.102 993.959 523.443L992.939 523.794C991.775 524.195 990.947 525.248 990.841 526.46L990.765 527.336C990.658 528.568 991.364 529.701 992.51 530.135C994.938 531.056 994.818 534.521 992.326 535.437L987.693 537.14C987.558 537.19 987.42 537.23 987.28 537.26L941.105 547.257C940.617 547.362 940.613 548.056 941.099 548.135C941.546 548.208 941.594 548.823 941.166 548.992L940.863 549.111C940.408 549.29 940.384 549.922 940.825 550.105L994.104 572.219C994.531 572.396 994.997 572.47 995.465 572.435L1064.69 567.271C1065.57 567.206 1066.39 566.76 1066.93 566.053L1086.11 541.082C1086.53 540.53 1086.73 539.853 1086.81 539.171C1087.26 535.367 1090.38 533.442 1092.64 532.719C1093.31 532.503 1093.96 532.158 1094.42 531.622L1106.81 517.486C1107.24 516.989 1107.51 516.369 1107.57 515.721L1107.65 514.767C1107.81 512.927 1106.28 511.437 1104.43 511.633L1100.41 512.061Z" fill="url(#paint12_linear_255_32554)"/>
<path d="M1443.33 540.473L1375.14 556.3C1373.58 556.662 1372.16 555.445 1372.3 553.866C1372.34 553.367 1372.25 552.849 1371.89 552.508C1370.78 551.438 1369.08 551.609 1367.85 552.009C1367.27 552.198 1366.91 552.751 1366.85 553.352L1366.84 553.446C1366.76 554.451 1365.78 555.166 1364.81 554.944L1363.23 554.586C1362.79 554.484 1362.62 553.946 1362.92 553.589C1363.26 553.195 1363.01 552.604 1362.51 552.577L1361.26 552.512C1360.57 552.475 1360.06 551.886 1360.12 551.196L1360.13 551.032C1360.19 550.326 1360.77 549.756 1361.48 549.697L1363.58 549.52C1363.82 549.5 1364.02 549.306 1364.04 549.066C1364.06 548.819 1363.89 548.603 1363.65 548.565L1349.59 546.382C1349.28 546.334 1348.99 546.564 1348.96 546.876C1348.94 547.091 1349.05 547.291 1349.25 547.382L1351.7 548.538C1352.13 548.74 1352.38 549.186 1352.34 549.664C1352.29 550.311 1351.71 550.807 1351.07 550.773L1350.41 550.738C1349.97 550.715 1349.53 550.851 1349.17 551.12L1348.4 551.701C1347.81 552.142 1347.1 552.364 1346.38 552.326L1345.76 552.293C1344.36 552.219 1343.33 551.029 1343.45 549.635C1343.51 548.859 1343.24 548.045 1342.53 547.759C1341.73 547.441 1340.94 547.503 1340.3 547.695C1339.61 547.905 1339.19 548.564 1339 549.263L1338.89 549.695C1338.63 550.699 1337.87 551.514 1336.88 551.855L1335.86 552.206C1334.7 552.607 1333.87 553.66 1333.76 554.873L1333.69 555.748C1333.58 556.981 1334.29 558.113 1335.43 558.548C1337.86 559.468 1337.74 562.933 1335.25 563.849L1330.62 565.552C1330.48 565.602 1330.34 565.642 1330.2 565.673L1284.03 575.669C1283.54 575.774 1283.53 576.468 1284.02 576.547C1284.47 576.62 1284.52 577.235 1284.09 577.404L1283.78 577.523C1283.33 577.702 1283.31 578.334 1283.75 578.517L1337.03 600.631C1337.45 600.808 1337.92 600.882 1338.39 600.847L1407.61 595.683C1408.49 595.618 1409.31 595.173 1409.85 594.465L1429.03 569.494C1429.45 568.942 1429.66 568.265 1429.74 567.583C1430.18 563.779 1433.3 561.854 1435.56 561.131C1436.24 560.915 1436.88 560.57 1437.35 560.034L1449.73 545.899C1450.17 545.401 1450.43 544.782 1450.49 544.133L1450.57 543.179C1450.73 541.339 1449.2 539.849 1447.35 540.045L1443.33 540.473Z" fill="url(#paint13_linear_255_32554)"/>
<path d="M1766.75 566.233L1707.84 580.129C1706.48 580.451 1705.23 579.385 1705.35 578C1705.39 577.568 1705.31 577.119 1705 576.821C1704.04 575.884 1702.57 576.032 1701.51 576.383C1701 576.55 1700.69 577.033 1700.64 577.556L1700.63 577.654C1700.56 578.528 1699.71 579.149 1698.86 578.954L1697.52 578.646C1697.13 578.556 1696.98 578.086 1697.24 577.772C1697.54 577.425 1697.32 576.908 1696.88 576.885L1695.82 576.829C1695.22 576.797 1694.77 576.286 1694.82 575.686L1694.84 575.532C1694.89 574.914 1695.39 574.415 1696.01 574.362L1697.81 574.207C1698.03 574.189 1698.2 574.019 1698.21 573.809C1698.23 573.593 1698.08 573.403 1697.87 573.369L1685.73 571.469C1685.46 571.426 1685.21 571.627 1685.18 571.901C1685.17 572.089 1685.27 572.264 1685.44 572.344L1687.55 573.352C1687.92 573.53 1688.14 573.92 1688.11 574.338C1688.06 574.906 1687.55 575.342 1686.99 575.311L1686.44 575.283C1686.05 575.262 1685.67 575.382 1685.36 575.618L1684.73 576.104C1684.2 576.505 1683.55 576.707 1682.9 576.673L1682.45 576.649C1681.22 576.584 1680.31 575.539 1680.42 574.314C1680.48 573.637 1680.24 572.927 1679.62 572.676C1678.99 572.422 1678.36 572.448 1677.84 572.584C1677.14 572.766 1676.73 573.43 1676.55 574.124L1676.53 574.179C1676.27 575.181 1675.52 575.997 1674.53 576.341L1674.11 576.49C1672.95 576.895 1672.13 577.945 1672.02 579.152L1671.98 579.689C1671.88 580.764 1672.5 581.753 1673.49 582.136C1675.61 582.946 1675.5 585.96 1673.34 586.768L1669.34 588.259C1669.21 588.31 1669.07 588.351 1668.92 588.382L1629.04 597.159C1628.61 597.253 1628.61 597.858 1629.04 597.928C1629.43 597.992 1629.47 598.529 1629.1 598.678L1628.83 598.783C1628.43 598.942 1628.41 599.493 1628.8 599.654L1674.72 618.949C1675.15 619.131 1675.63 619.206 1676.1 619.17L1735.62 614.627C1736.51 614.56 1737.33 614.109 1737.87 613.395L1754.28 591.76C1754.7 591.212 1754.89 590.541 1754.98 589.868C1755.41 586.696 1757.95 585.043 1759.86 584.381C1760.54 584.148 1761.18 583.8 1761.65 583.259L1772.19 571.072C1772.62 570.577 1772.88 569.964 1772.94 569.322L1772.96 569.043C1773.12 567.2 1771.59 565.709 1769.74 565.909L1766.75 566.233Z" fill="url(#paint14_linear_255_32554)"/>
<path d="M2051.74 595.896L1999.04 608.414C1997.81 608.706 1996.68 607.747 1996.79 606.5C1996.83 606.113 1996.76 605.711 1996.48 605.443C1995.62 604.599 1994.31 604.732 1993.36 605.048C1992.9 605.198 1992.62 605.632 1992.58 606.102L1992.57 606.197C1992.5 606.981 1991.74 607.538 1990.98 607.362L1989.79 607.086C1989.44 607.005 1989.3 606.583 1989.54 606.3C1989.8 605.987 1989.61 605.522 1989.21 605.501L1988.27 605.452C1987.73 605.423 1987.33 604.964 1987.37 604.427L1987.39 604.284C1987.44 603.728 1987.89 603.279 1988.45 603.23L1990.05 603.092C1990.24 603.075 1990.39 602.922 1990.41 602.733C1990.43 602.538 1990.29 602.367 1990.1 602.337L1979.25 600.63C1979 600.592 1978.77 600.773 1978.75 601.02C1978.74 601.188 1978.83 601.346 1978.98 601.418L1980.86 602.323C1981.2 602.484 1981.4 602.835 1981.36 603.21C1981.32 603.722 1980.87 604.115 1980.36 604.088L1979.87 604.062C1979.53 604.044 1979.19 604.152 1978.91 604.365L1978.34 604.801C1977.87 605.163 1977.29 605.345 1976.71 605.314L1976.32 605.293C1975.21 605.235 1974.39 604.293 1974.49 603.19C1974.54 602.582 1974.33 601.943 1973.77 601.718C1973.22 601.494 1972.66 601.513 1972.2 601.63C1971.56 601.792 1971.18 602.404 1971.02 603.041C1970.78 603.962 1970.09 604.713 1969.18 605.031L1968.91 605.126C1967.83 605.507 1967.06 606.489 1966.97 607.618L1966.93 608.036C1966.85 609.001 1967.4 609.89 1968.29 610.235C1970.19 610.966 1970.1 613.67 1968.15 614.4L1964.59 615.737C1964.45 615.788 1964.31 615.83 1964.17 615.861L1928.5 623.767C1928.12 623.852 1928.12 624.396 1928.5 624.459C1928.85 624.516 1928.89 624.998 1928.55 625.133L1928.32 625.228C1927.96 625.372 1927.94 625.866 1928.29 626.012L1969.3 643.334C1969.73 643.517 1970.2 643.593 1970.68 643.557L2023.71 639.47C2024.6 639.401 2025.42 638.948 2025.96 638.231L2040.51 618.954C2040.92 618.408 2041.11 617.741 2041.21 617.072C2041.62 614.341 2043.78 612.883 2045.45 612.27C2046.13 612.025 2046.77 611.676 2047.24 611.132L2056.57 600.29C2056.97 599.818 2057.22 599.234 2057.27 598.623C2057.43 596.86 2055.96 595.434 2054.19 595.627L2051.74 595.896Z" fill="url(#paint15_linear_255_32554)"/>
<path d="M3841.64 36.3895L4110.12 98.5056C4112.08 98.9603 4113.87 97.4247 4113.7 95.4333L4112.83 85.4293C4112.78 84.7982 4112.92 84.1644 4113.28 83.6621C4117.97 77.272 4126.8 78.8842 4131.92 81.0058C4132.91 81.417 4133.55 82.3779 4133.64 83.4348L4134.18 89.5652C4134.34 91.4175 4136.13 92.7354 4137.93 92.3262L4147.65 90.1207C4149.36 89.7335 4150 87.6812 4148.83 86.3224C4147.56 84.8246 4148.48 82.5713 4150.42 82.4691L4156.96 82.1234C4158.62 82.036 4159.84 80.6271 4159.7 78.9764L4159.31 74.4914C4159.18 72.9983 4157.97 71.7926 4156.46 71.6672L4146.31 70.8192C4145.39 70.7425 4144.65 70.0038 4144.57 69.0892C4144.49 68.1492 4145.13 67.3243 4146.06 67.1804L4199.8 58.8547C4200.97 58.6727 4202.08 59.5464 4202.18 60.7347C4202.25 61.5542 4201.82 62.3177 4201.08 62.6636L4190.81 67.4941C4189.71 68.0091 4189.06 69.1462 4189.17 70.3665L4189.38 72.8359C4189.53 74.4866 4190.98 75.7539 4192.64 75.6665L4198.14 75.376C4198.86 75.3381 4199.57 75.5588 4200.16 75.9979L4206.88 81.0452C4207.46 81.4843 4208.18 81.705 4208.9 81.6671L4221.08 81.0236C4222.74 80.9363 4223.96 79.5273 4223.82 77.8767L4222.96 68.0185C4222.88 67.0977 4223.22 66.1891 4223.96 65.6536C4229.29 61.771 4235.1 63.3503 4238.17 65.0925C4238.81 65.4531 4239.23 66.0839 4239.41 66.7836L4241.84 76.0046C4242.1 77.0089 4242.86 77.8248 4243.85 78.1643L4257.64 82.9021C4258.8 83.3025 4259.63 84.3565 4259.74 85.5697L4261.01 100.231C4261.13 101.535 4260.38 102.734 4259.17 103.192L4234.5 112.519C4231.93 113.491 4232.06 117.159 4234.7 118.126L4272.82 132.1C4272.95 132.149 4273.09 132.189 4273.23 132.22L4450.22 170.411C4452.08 170.812 4452.09 173.457 4450.24 173.758C4448.54 174.035 4448.36 176.382 4449.99 177.023L4451.14 177.476C4452.88 178.158 4452.97 180.567 4451.29 181.264L4245.89 266.311C4245.47 266.487 4245 266.561 4244.53 266.526L3974.16 246.448C3973.29 246.383 3972.47 245.939 3971.92 245.233L3894.43 144.565C3894.01 144.012 3893.79 143.328 3893.77 142.642C3893.43 124.288 3877.4 116.28 3868.35 114.292C3867.66 114.141 3867.02 113.787 3866.55 113.252L3815.32 54.9138C3814.88 54.4159 3814.62 53.7952 3814.56 53.1456L3813.14 36.8449C3812.98 35.0052 3814.51 33.5151 3816.36 33.7107L3841.64 36.3895Z" fill="url(#paint16_linear_255_32554)"/>
<path d="M3435.49 129.768L3605.06 169.077C3607.03 169.532 3608.82 167.997 3608.65 166.005L3608.25 161.416C3608.19 160.786 3608.33 160.147 3608.72 159.664C3611.57 156.131 3616.56 156.82 3619.79 158.016C3620.8 158.389 3621.43 159.355 3621.53 160.411L3621.7 162.421C3621.86 164.274 3623.66 165.592 3625.46 165.182L3630.39 164.061C3631.48 163.814 3631.89 162.505 3631.15 161.638C3630.33 160.682 3630.92 159.245 3632.16 159.179L3635.24 159.017C3636.89 158.93 3638.12 157.521 3637.97 155.87L3637.9 155.034C3637.77 153.541 3636.56 152.335 3635.06 152.21L3629.54 151.748C3628.96 151.699 3628.48 151.227 3628.43 150.644C3628.38 150.044 3628.79 149.518 3629.38 149.426L3663.6 144.118C3664.35 144.002 3665.06 144.56 3665.12 145.318C3665.17 145.84 3664.89 146.327 3664.42 146.548L3658.45 149.36C3657.41 149.851 3656.79 150.934 3656.89 152.096C3657.03 153.668 3658.42 154.876 3659.99 154.792L3662.14 154.679C3662.86 154.641 3663.58 154.862 3664.16 155.302L3667.79 158.026C3668.37 158.467 3669.09 158.688 3669.81 158.65L3676.07 158.319C3677.73 158.231 3678.95 156.822 3678.81 155.172L3678.4 150.492C3678.32 149.572 3678.65 148.653 3679.42 148.162C3682.5 146.193 3685.75 146.928 3687.69 147.906C3688.34 148.235 3688.76 148.871 3688.94 149.57L3690.23 154.477C3690.49 155.481 3691.25 156.297 3692.24 156.637L3699.75 159.221C3700.91 159.622 3701.74 160.676 3701.85 161.888L3702.53 169.725C3702.64 171.028 3701.89 172.226 3700.68 172.685L3688.4 177.337C3685.83 178.309 3685.96 181.975 3688.59 182.943L3710.04 190.82C3710.18 190.87 3710.32 190.91 3710.46 190.94L3823.11 215.296C3824.29 215.552 3824.31 217.239 3823.12 217.432C3822.04 217.608 3821.92 219.105 3822.96 219.514L3823.7 219.804C3824.8 220.239 3824.86 221.775 3823.79 222.22L3693.22 276.364C3692.79 276.541 3692.32 276.615 3691.86 276.58L3520.42 263.814C3519.54 263.749 3518.72 263.304 3518.17 262.597L3469.36 199.087C3468.93 198.534 3468.72 197.858 3468.69 197.173C3468.27 185.989 3458.65 180.948 3452.89 179.555C3452.21 179.389 3451.57 179.036 3451.1 178.501L3418.97 141.861C3418.53 141.363 3418.27 140.743 3418.21 140.094L3417.45 131.327C3417.29 129.487 3418.82 127.997 3420.66 128.193L3435.49 129.768Z" fill="url(#paint17_linear_255_32554)"/>
<path d="M3063.02 192.905L3192.06 222.789C3194.02 223.244 3195.81 221.709 3195.64 219.717L3195.44 217.363C3195.38 216.733 3195.51 216.089 3195.92 215.622C3198.01 213.24 3201.46 213.59 3203.88 214.397C3204.9 214.737 3205.53 215.709 3205.63 216.765L3205.65 217.075C3205.81 218.927 3207.61 220.245 3209.41 219.836L3212.39 219.16C3213.22 218.971 3213.53 217.969 3212.97 217.305C3212.34 216.573 3212.79 215.472 3213.74 215.422L3216.06 215.299C3217.35 215.231 3218.3 214.134 3218.19 212.848L3218.17 212.545C3218.05 211.231 3216.98 210.17 3215.66 210.06L3211.73 209.731C3211.28 209.694 3210.92 209.333 3210.88 208.886C3210.84 208.427 3211.16 208.024 3211.61 207.953L3237.84 203.888C3238.41 203.799 3238.95 204.226 3239 204.806C3239.04 205.206 3238.83 205.579 3238.47 205.748L3233.89 207.902C3233.09 208.278 3232.62 209.107 3232.69 209.997C3232.8 211.201 3233.86 212.125 3235.07 212.062L3236.46 211.988C3237.18 211.95 3237.89 212.171 3238.48 212.611L3240.83 214.379C3241.42 214.818 3242.13 215.039 3242.85 215.001L3246.69 214.799C3248.35 214.711 3249.57 213.302 3249.43 211.652L3249.21 209.11C3249.13 208.19 3249.46 207.259 3250.25 206.809C3252.4 205.592 3254.62 206.015 3256.05 206.672C3256.72 206.976 3257.14 207.617 3257.32 208.316L3258.14 211.441C3258.41 212.445 3259.17 213.261 3260.15 213.601L3265.09 215.297C3266.25 215.698 3267.08 216.752 3267.19 217.964L3267.62 222.982C3267.74 224.285 3266.99 225.483 3265.78 225.942L3258.58 228.666C3256.01 229.638 3256.14 233.305 3258.77 234.272L3273.38 239.632C3273.51 239.681 3273.65 239.721 3273.79 239.751L3360.07 258.388C3360.98 258.585 3360.99 259.876 3360.08 260.024C3359.25 260.159 3359.16 261.305 3359.96 261.619L3360.52 261.84C3361.37 262.173 3361.42 263.35 3360.59 263.69L3260.68 305.094C3260.25 305.271 3259.79 305.344 3259.32 305.31L3128.42 295.575C3127.54 295.51 3126.73 295.066 3126.18 294.359L3089.13 246.187C3088.71 245.635 3088.49 244.957 3088.45 244.272C3088.01 236.037 3081 232.229 3076.6 231.092C3075.92 230.915 3075.28 230.565 3074.81 230.03L3050.52 202.346C3050.08 201.848 3049.82 201.228 3049.76 200.579L3049.27 194.922C3049.11 193.082 3050.64 191.592 3052.48 191.787L3063.02 192.905Z" fill="url(#paint18_linear_255_32554)"/>
<path d="M2676.52 249.69L2780.42 273.781C2782.38 274.237 2784.17 272.701 2784 270.709L2783.92 269.731C2783.86 269.101 2783.98 268.453 2784.41 268.003C2786.1 266.24 2788.76 266.494 2790.67 267.116C2791.54 267.401 2792.09 268.237 2792.17 269.145L2792.18 269.286C2792.32 270.805 2793.79 271.886 2795.27 271.55L2797.65 271.009C2798.32 270.855 2798.58 270.041 2798.12 269.502C2797.61 268.908 2797.98 268.015 2798.74 267.974L2800.63 267.875C2801.67 267.819 2802.45 266.929 2802.35 265.886L2802.33 265.639C2802.24 264.572 2801.37 263.711 2800.3 263.621L2797.12 263.354C2796.75 263.324 2796.46 263.031 2796.43 262.668C2796.39 262.295 2796.65 261.968 2797.02 261.911L2818.28 258.612C2818.75 258.54 2819.19 258.886 2819.23 259.358C2819.26 259.682 2819.09 259.985 2818.8 260.122L2815.08 261.87C2814.44 262.175 2814.05 262.849 2814.11 263.571C2814.2 264.548 2815.06 265.299 2816.04 265.247L2817.04 265.194C2817.71 265.159 2818.37 265.364 2818.91 265.771L2820.54 266.999C2821.13 267.439 2821.85 267.661 2822.56 267.623L2824.9 267.499C2826.56 267.412 2827.78 266.003 2827.64 264.352L2827.53 263.125C2827.45 262.206 2827.78 261.263 2828.59 260.856C2830.16 260.075 2831.75 260.33 2832.86 260.788C2833.54 261.067 2833.96 261.712 2834.14 262.411L2834.67 264.441C2834.94 265.445 2835.7 266.261 2836.68 266.601L2840.02 267.75C2841.19 268.151 2842.02 269.204 2842.12 270.417L2842.41 273.701C2842.52 275.005 2841.77 276.203 2840.56 276.661L2836.5 278.198C2833.94 279.171 2834.06 282.836 2836.7 283.804L2847.07 287.615C2847.21 287.664 2847.35 287.705 2847.49 287.735L2917.42 302.859C2918.16 303.018 2918.16 304.066 2917.43 304.186C2916.75 304.296 2916.68 305.226 2917.33 305.481L2917.79 305.661C2918.47 305.931 2918.51 306.886 2917.84 307.162L2836.94 340.717C2836.51 340.894 2836.05 340.968 2835.58 340.933L2729.82 333.055C2728.94 332.99 2728.12 332.545 2727.58 331.838L2697.81 293.103C2697.39 292.551 2697.18 291.873 2697.13 291.189C2696.68 284.766 2691.27 281.719 2687.73 280.743C2687.05 280.555 2686.41 280.205 2685.94 279.67L2666.5 257.497C2666.07 256.999 2665.8 256.379 2665.74 255.731L2665.42 251.987C2665.26 250.147 2666.79 248.656 2668.63 248.852L2676.52 249.69Z" fill="url(#paint19_linear_255_32554)"/>
<path d="M2364.22 311.41L2444.85 330.126C2446.7 330.554 2448.38 329.115 2448.21 327.248C2448.16 326.657 2448.27 326.044 2448.69 325.642C2450.01 324.377 2452.02 324.578 2453.48 325.052C2454.17 325.275 2454.59 325.929 2454.66 326.64L2454.67 326.751C2454.77 327.939 2455.92 328.785 2457.08 328.522L2458.94 328.099C2459.47 327.978 2459.66 327.342 2459.3 326.92C2458.91 326.455 2459.2 325.756 2459.8 325.724L2461.27 325.646C2462.08 325.603 2462.69 324.907 2462.62 324.091L2462.6 323.896C2462.53 323.062 2461.85 322.387 2461.01 322.317L2458.52 322.108C2458.24 322.084 2458.01 321.855 2457.98 321.571C2457.96 321.28 2458.16 321.024 2458.45 320.979L2475.07 318.398C2475.44 318.341 2475.78 318.612 2475.82 318.981C2475.84 319.236 2475.7 319.472 2475.47 319.58L2472.57 320.947C2472.07 321.186 2471.77 321.713 2471.81 322.278C2471.88 323.043 2472.56 323.631 2473.32 323.59L2474.1 323.549C2474.62 323.522 2475.14 323.682 2475.57 324.001L2476.64 324.813C2477.23 325.253 2477.95 325.475 2478.67 325.437L2479.6 325.387C2481.25 325.3 2482.48 323.893 2482.33 322.244C2482.25 321.326 2482.57 320.364 2483.42 320.027C2484.45 319.616 2485.47 319.74 2486.25 320.014C2486.93 320.255 2487.35 320.908 2487.54 321.607L2487.8 322.609C2488.06 323.613 2488.82 324.429 2489.81 324.769L2491.65 325.405C2492.82 325.807 2493.65 326.86 2493.75 328.072L2493.9 329.732C2494.01 331.035 2493.26 332.233 2492.05 332.692L2490.93 333.116C2488.37 334.089 2488.49 337.753 2491.13 338.721L2497.54 341.08C2497.68 341.13 2497.82 341.17 2497.96 341.2L2552.6 353.029C2553.17 353.154 2553.18 353.974 2552.6 354.068C2552.08 354.154 2552.02 354.881 2552.53 355.081L2552.88 355.222C2553.42 355.433 2553.45 356.181 2552.93 356.397L2489.81 382.595C2489.38 382.773 2488.91 382.847 2488.45 382.812L2406.21 376.677C2405.33 376.612 2404.51 376.166 2403.97 375.459L2381.02 345.572C2380.59 345.02 2380.38 344.344 2380.32 343.661C2379.87 338.924 2375.94 336.596 2373.22 335.779C2372.54 335.575 2371.9 335.228 2371.43 334.692L2356.53 317.686C2356.1 317.189 2355.83 316.569 2355.77 315.921L2355.61 313.97C2355.45 312.13 2356.97 310.64 2358.82 310.836L2364.22 311.41Z" fill="url(#paint20_linear_255_32554)"/>
<path d="M3851.14 297.216L3993.93 330.318C3995.9 330.774 3997.69 329.238 3997.52 327.246L3997.25 324.13C3997.19 323.5 3997.32 322.859 3997.72 322.385C4000.07 319.613 4004.04 320.074 4006.74 321.015C4007.76 321.368 4008.39 322.337 4008.48 323.393L4008.56 324.283C4008.72 326.136 4010.52 327.454 4012.32 327.044L4015.96 326.217C4016.88 326.008 4017.22 324.901 4016.6 324.168C4015.91 323.359 4016.41 322.144 4017.45 322.089L4020.01 321.954C4021.44 321.878 4022.49 320.667 4022.37 319.248L4022.34 318.912C4022.21 317.461 4021.03 316.289 4019.57 316.167L4015.24 315.804C4014.74 315.763 4014.34 315.364 4014.3 314.871C4014.26 314.363 4014.6 313.918 4015.1 313.841L4044.04 309.352C4044.68 309.254 4045.27 309.725 4045.33 310.366C4045.37 310.808 4045.13 311.22 4044.74 311.407L4039.69 313.785C4038.8 314.2 4038.28 315.116 4038.37 316.098C4038.48 317.428 4039.66 318.449 4040.99 318.379L4042.64 318.292C4043.36 318.254 4044.07 318.475 4044.66 318.915L4047.44 321.008C4048.03 321.448 4048.74 321.67 4049.46 321.632L4054.13 321.385C4055.78 321.298 4057.01 319.889 4056.86 318.238L4056.58 314.967C4056.5 314.047 4056.83 313.121 4057.61 312.654C4060.07 311.185 4062.64 311.711 4064.25 312.478C4064.91 312.792 4065.33 313.43 4065.51 314.13L4066.49 317.863C4066.76 318.867 4067.52 319.683 4068.51 320.023L4074.31 322.022C4075.48 322.423 4076.31 323.476 4076.41 324.689L4076.93 330.669C4077.05 331.972 4076.3 333.17 4075.09 333.629L4066.16 337.01C4063.59 337.983 4063.72 341.648 4066.35 342.616L4083.29 348.835C4083.42 348.884 4083.56 348.925 4083.7 348.955L4178.93 369.545C4179.94 369.762 4179.95 371.188 4178.95 371.351C4178.03 371.5 4177.93 372.766 4178.81 373.112L4179.43 373.357C4180.37 373.725 4180.42 375.024 4179.51 375.4L4069.19 421.147C4068.76 421.324 4068.3 421.398 4067.83 421.363L3923.17 410.591C3922.29 410.526 3921.47 410.081 3920.93 409.374L3879.88 355.969C3879.45 355.417 3879.24 354.741 3879.21 354.056C3878.77 344.816 3870.87 340.585 3866.02 339.36C3865.33 339.187 3864.69 338.836 3864.22 338.301L3837.27 307.561C3836.83 307.063 3836.57 306.443 3836.51 305.795L3835.93 299.076C3835.77 297.236 3837.29 295.746 3839.14 295.942L3851.14 297.216Z" fill="url(#paint21_linear_255_32554)"/>
<path d="M3519.77 347.986L3628.29 373.117C3630.25 373.572 3632.04 372.037 3631.87 370.045L3631.76 368.819C3631.71 368.188 3631.83 367.541 3632.26 367.087C3634.01 365.219 3636.8 365.483 3638.81 366.134C3639.72 366.431 3640.29 367.302 3640.37 368.248L3640.39 368.393C3640.52 369.976 3642.06 371.103 3643.6 370.753L3646.08 370.189C3646.79 370.029 3647.05 369.181 3646.57 368.619C3646.05 368.001 3646.43 367.07 3647.23 367.028L3649.19 366.924C3650.28 366.866 3651.09 365.938 3650.99 364.851L3650.97 364.595C3650.87 363.484 3649.97 362.586 3648.85 362.493L3645.53 362.215C3645.15 362.183 3644.85 361.878 3644.81 361.5C3644.78 361.112 3645.05 360.771 3645.43 360.711L3667.61 357.273C3668.09 357.198 3668.55 357.559 3668.59 358.05C3668.62 358.388 3668.44 358.704 3668.14 358.847L3664.27 360.668C3663.59 360.986 3663.19 361.687 3663.26 362.44C3663.35 363.458 3664.24 364.24 3665.27 364.186L3666.31 364.131C3667 364.094 3667.69 364.307 3668.26 364.732L3670 366.04C3670.58 366.48 3671.3 366.701 3672.02 366.663L3674.64 366.525C3676.29 366.437 3677.51 365.028 3677.37 363.378L3677.24 361.915C3677.16 360.994 3677.49 360.054 3678.3 359.638C3679.98 358.78 3681.68 359.064 3682.85 359.558C3683.52 359.842 3683.94 360.486 3684.13 361.185L3684.71 363.412C3684.98 364.416 3685.74 365.232 3686.72 365.571L3690.35 366.82C3691.52 367.22 3692.35 368.274 3692.45 369.487L3692.77 373.082C3692.88 374.386 3692.13 375.584 3690.92 376.043L3686.29 377.794C3683.72 378.766 3683.85 382.433 3686.49 383.4L3697.63 387.489C3697.77 387.539 3697.91 387.579 3698.05 387.609L3770.98 403.363C3771.75 403.529 3771.75 404.621 3770.99 404.746C3770.28 404.86 3770.21 405.83 3770.88 406.095L3771.36 406.282C3772.08 406.564 3772.11 407.559 3771.42 407.847L3687.02 442.819C3686.6 442.996 3686.13 443.07 3685.66 443.035L3575.29 434.827C3574.41 434.762 3573.59 434.317 3573.05 433.611L3541.95 393.177C3541.53 392.624 3541.31 391.945 3541.27 391.261C3540.81 384.512 3535.11 381.327 3531.42 380.323C3530.74 380.137 3530.1 379.788 3529.63 379.253L3509.3 356.088C3508.87 355.59 3508.6 354.97 3508.54 354.321L3508.19 350.232C3508.03 348.392 3509.56 346.902 3511.4 347.098L3519.77 347.986Z" fill="url(#paint22_linear_255_32554)"/>
<path d="M3173.61 386.515L3260.87 406.748C3262.83 407.204 3264.62 405.668 3264.45 403.676L3264.45 403.614C3264.39 402.983 3264.51 402.329 3264.96 401.898C3266.39 400.522 3268.57 400.739 3270.14 401.252C3270.88 401.493 3271.35 402.201 3271.41 402.968L3271.42 403.087C3271.54 404.372 3272.78 405.286 3274.03 405.002L3276.04 404.544C3276.62 404.414 3276.83 403.726 3276.44 403.27C3276.01 402.768 3276.32 402.012 3276.97 401.978L3278.56 401.894C3279.45 401.847 3280.1 401.094 3280.03 400.212L3280.01 400.003C3279.93 399.101 3279.2 398.373 3278.29 398.297L3275.6 398.071C3275.29 398.046 3275.04 397.798 3275.01 397.491C3274.99 397.176 3275.2 396.899 3275.51 396.851L3293.5 394.061C3293.89 394 3294.26 394.293 3294.3 394.691C3294.32 394.966 3294.18 395.222 3293.93 395.338L3290.79 396.816C3290.24 397.074 3289.92 397.644 3289.97 398.254C3290.04 399.081 3290.77 399.716 3291.6 399.672L3292.45 399.627C3293.01 399.598 3293.57 399.771 3294.03 400.115L3295.27 401.048C3295.85 401.489 3296.57 401.71 3297.29 401.672L3298.63 401.601C3300.29 401.514 3301.51 400.105 3301.37 398.454L3301.34 398.103C3301.26 397.183 3301.58 396.227 3302.42 395.865C3303.6 395.352 3304.79 395.511 3305.67 395.838C3306.35 396.092 3306.77 396.742 3306.95 397.441L3307.29 398.741C3307.56 399.745 3308.31 400.561 3309.3 400.901L3311.58 401.686C3312.75 402.087 3313.58 403.141 3313.68 404.353L3313.87 406.484C3313.98 407.787 3313.23 408.985 3312.02 409.444L3310.05 410.191C3307.48 411.164 3307.61 414.829 3310.24 415.796L3317.81 418.576C3317.95 418.626 3318.09 418.666 3318.23 418.696L3377.33 431.479C3377.96 431.614 3377.96 432.5 3377.34 432.602C3376.77 432.694 3376.71 433.481 3377.26 433.696L3377.64 433.849C3378.22 434.077 3378.26 434.885 3377.69 435.119L3309.37 463.453C3308.95 463.63 3308.48 463.704 3308.01 463.67L3218.9 457.032C3218.02 456.966 3217.2 456.521 3216.66 455.814L3191.72 423.361C3191.3 422.808 3191.09 422.131 3191.03 421.448C3190.57 416.223 3186.21 413.685 3183.26 412.822C3182.58 412.624 3181.94 412.277 3181.47 411.741L3165.24 393.236C3164.81 392.739 3164.54 392.119 3164.48 391.47L3164.27 388.999C3164.11 387.159 3165.64 385.669 3167.48 385.865L3173.61 386.515Z" fill="url(#paint23_linear_255_32554)"/>
<path d="M2892.49 433.405L2960.68 449.233C2962.24 449.595 2963.66 448.378 2963.52 446.799C2963.48 446.3 2963.57 445.781 2963.93 445.441C2965.05 444.371 2966.75 444.541 2967.98 444.942C2968.56 445.13 2968.92 445.684 2968.97 446.285L2968.98 446.379C2969.07 447.384 2970.04 448.099 2971.02 447.876L2972.59 447.519C2973.04 447.417 2973.21 446.878 2972.9 446.522C2972.57 446.128 2972.81 445.537 2973.32 445.51L2974.56 445.444C2975.25 445.408 2975.77 444.819 2975.71 444.129L2975.69 443.965C2975.63 443.259 2975.06 442.689 2974.35 442.629L2972.24 442.453C2972 442.432 2971.81 442.239 2971.78 441.998C2971.76 441.752 2971.93 441.535 2972.18 441.497L2986.24 439.315C2986.55 439.267 2986.84 439.496 2986.86 439.808C2986.88 440.023 2986.77 440.223 2986.58 440.314L2984.12 441.471C2983.69 441.673 2983.44 442.118 2983.48 442.596C2983.54 443.243 2984.11 443.74 2984.76 443.706L2985.42 443.671C2985.86 443.648 2986.3 443.783 2986.65 444.053L2987.43 444.634C2988.01 445.075 2988.73 445.296 2989.45 445.258L2990.07 445.226C2991.46 445.152 2992.5 443.962 2992.38 442.568C2992.31 441.791 2992.58 440.978 2993.3 440.692C2994.1 440.374 2994.89 440.436 2995.52 440.627C2996.22 440.838 2996.64 441.497 2996.82 442.195L2996.93 442.627C2997.2 443.631 2997.96 444.447 2998.94 444.787L2999.96 445.139C3001.13 445.54 3001.96 446.593 3002.06 447.805L3002.14 448.681C3002.24 449.913 3001.54 451.046 3000.39 451.48C2997.96 452.401 2998.08 455.866 3000.58 456.782L3005.21 458.485C3005.34 458.535 3005.48 458.575 3005.62 458.605L3051.8 468.601C3052.28 468.707 3052.29 469.401 3051.8 469.48C3051.36 469.552 3051.31 470.168 3051.74 470.336L3052.04 470.456C3052.49 470.635 3052.52 471.267 3052.08 471.45L2998.8 493.563C2998.37 493.74 2997.91 493.815 2997.44 493.78L2928.21 488.616C2927.33 488.55 2926.51 488.105 2925.97 487.398L2906.8 462.427C2906.37 461.874 2906.17 461.197 2906.09 460.516C2905.64 456.711 2902.52 454.786 2900.26 454.064C2899.59 453.848 2898.95 453.503 2898.48 452.967L2886.09 438.831C2885.66 438.334 2885.39 437.714 2885.34 437.066L2885.25 436.112C2885.09 434.272 2886.62 432.782 2888.47 432.978L2892.49 433.405Z" fill="url(#paint24_linear_255_32554)"/>
<path d="M2593.54 468.325L2661.73 484.153C2663.29 484.515 2664.71 483.297 2664.57 481.719C2664.53 481.22 2664.62 480.701 2664.98 480.36C2666.09 479.291 2667.79 479.461 2669.02 479.862C2669.6 480.05 2669.97 480.604 2670.02 481.204L2670.03 481.299C2670.11 482.304 2671.09 483.019 2672.07 482.796L2673.64 482.438C2674.09 482.337 2674.25 481.798 2673.95 481.441C2673.61 481.048 2673.86 480.457 2674.37 480.43L2675.61 480.364C2676.3 480.328 2676.81 479.739 2676.75 479.049L2676.74 478.885C2676.68 478.179 2676.1 477.609 2675.39 477.549L2673.29 477.373C2673.05 477.352 2672.85 477.158 2672.83 476.918C2672.81 476.672 2672.98 476.455 2673.22 476.417L2687.28 474.235C2687.59 474.187 2687.88 474.416 2687.91 474.728C2687.93 474.943 2687.82 475.143 2687.62 475.234L2685.17 476.391C2684.74 476.593 2684.49 477.038 2684.53 477.516C2684.58 478.163 2685.16 478.66 2685.8 478.626L2686.46 478.591C2686.9 478.568 2687.34 478.703 2687.7 478.973L2688.47 479.554C2689.06 479.995 2689.78 480.216 2690.49 480.178L2691.11 480.146C2692.51 480.072 2693.55 478.882 2693.42 477.488C2693.36 476.711 2693.63 475.898 2694.34 475.612C2695.14 475.294 2695.93 475.355 2696.57 475.547C2697.26 475.758 2697.68 476.416 2697.87 477.115L2697.98 477.547C2698.24 478.551 2699 479.367 2699.99 479.707L2701.01 480.058C2702.17 480.46 2703 481.513 2703.11 482.725L2703.18 483.6C2703.29 484.833 2702.59 485.966 2701.44 486.4C2699.01 487.32 2699.13 490.786 2701.62 491.702L2706.26 493.405C2706.39 493.455 2706.53 493.495 2706.67 493.525L2752.84 503.521C2753.33 503.627 2753.34 504.32 2752.85 504.4C2752.4 504.472 2752.36 505.088 2752.78 505.256L2753.09 505.376C2753.54 505.555 2753.57 506.186 2753.12 506.37L2699.84 528.483C2699.42 528.66 2698.95 528.734 2698.48 528.7L2629.26 523.536C2628.38 523.47 2627.56 523.025 2627.02 522.318L2607.84 497.347C2607.42 496.794 2607.22 496.117 2607.14 495.435C2606.69 491.631 2603.57 489.706 2601.31 488.984C2600.64 488.768 2599.99 488.422 2599.52 487.887L2587.14 473.751C2586.71 473.254 2586.44 472.634 2586.38 471.986L2586.3 471.032C2586.14 469.192 2587.67 467.701 2589.52 467.898L2593.54 468.325Z" fill="url(#paint25_linear_255_32554)"/>
<path d="M4404.58 321.864L4513.09 346.995C4515.06 347.45 4516.85 345.915 4516.67 343.923L4516.57 342.697C4516.51 342.066 4516.64 341.419 4517.06 340.965C4518.82 339.097 4521.61 339.361 4523.61 340.012C4524.53 340.309 4525.1 341.18 4525.18 342.126L4525.19 342.271C4525.33 343.854 4526.86 344.981 4528.4 344.631L4530.89 344.067C4531.59 343.907 4531.86 343.059 4531.38 342.497C4530.85 341.878 4531.23 340.948 4532.03 340.905L4534 340.802C4535.09 340.744 4535.89 339.816 4535.8 338.729L4535.78 338.473C4535.68 337.361 4534.78 336.464 4533.66 336.371L4530.34 336.093C4529.96 336.061 4529.65 335.756 4529.62 335.378C4529.58 334.99 4529.85 334.649 4530.23 334.589L4552.41 331.151C4552.9 331.076 4553.36 331.437 4553.4 331.928C4553.43 332.266 4553.25 332.582 4552.94 332.725L4549.07 334.546C4548.4 334.864 4548 335.565 4548.06 336.318C4548.15 337.336 4549.05 338.118 4550.07 338.064L4551.11 338.009C4551.81 337.972 4552.5 338.185 4553.06 338.61L4554.8 339.918C4555.39 340.358 4556.11 340.579 4556.82 340.541L4559.44 340.403C4561.09 340.315 4562.32 338.906 4562.18 337.256L4562.05 335.793C4561.97 334.872 4562.29 333.931 4563.11 333.516C4564.78 332.658 4566.49 332.941 4567.66 333.436C4568.33 333.72 4568.75 334.364 4568.93 335.063L4569.52 337.29C4569.78 338.294 4570.54 339.11 4571.53 339.449L4575.16 340.698C4576.32 341.098 4577.15 342.152 4577.26 343.365L4577.57 346.96C4577.68 348.264 4576.94 349.462 4575.73 349.921L4571.1 351.672C4568.53 352.644 4568.66 356.311 4571.29 357.278L4582.44 361.367C4582.57 361.417 4582.71 361.457 4582.85 361.487L4655.78 377.241C4656.55 377.407 4656.56 378.499 4655.79 378.624C4655.09 378.738 4655.01 379.708 4655.69 379.973L4656.16 380.16C4656.88 380.442 4656.92 381.437 4656.22 381.725L4571.83 416.697C4571.4 416.874 4570.94 416.948 4570.47 416.913L4460.1 408.705C4459.22 408.64 4458.4 408.195 4457.86 407.489L4426.76 367.055C4426.33 366.502 4426.12 365.823 4426.07 365.139C4425.62 358.39 4419.92 355.205 4416.23 354.201C4415.54 354.015 4414.9 353.666 4414.43 353.131L4394.11 329.966C4393.67 329.468 4393.4 328.848 4393.35 328.199L4392.99 324.11C4392.83 322.27 4394.36 320.78 4396.21 320.976L4404.58 321.864Z" fill="url(#paint26_linear_255_32554)"/>
<path d="M4162.5 450.557L4249.76 470.789C4251.73 471.245 4253.52 469.709 4253.35 467.717L4253.34 467.655C4253.29 467.024 4253.4 466.37 4253.85 465.939C4255.28 464.563 4257.46 464.78 4259.04 465.293C4259.78 465.534 4260.24 466.242 4260.31 467.009L4260.32 467.128C4260.43 468.413 4261.68 469.327 4262.93 469.043L4264.94 468.585C4265.51 468.455 4265.72 467.767 4265.34 467.311C4264.91 466.809 4265.22 466.053 4265.87 466.019L4267.46 465.935C4268.34 465.888 4269 465.135 4268.92 464.253L4268.9 464.044C4268.82 463.142 4268.09 462.414 4267.18 462.338L4264.49 462.112C4264.18 462.087 4263.93 461.839 4263.91 461.532C4263.88 461.217 4264.1 460.94 4264.41 460.892L4282.39 458.102C4282.79 458.041 4283.16 458.334 4283.19 458.732C4283.22 459.007 4283.07 459.263 4282.82 459.379L4279.69 460.857C4279.14 461.115 4278.81 461.685 4278.87 462.295C4278.94 463.122 4279.67 463.757 4280.5 463.713L4281.34 463.668C4281.9 463.639 4282.46 463.812 4282.92 464.156L4284.16 465.089C4284.75 465.53 4285.46 465.751 4286.18 465.713L4287.53 465.642C4289.18 465.555 4290.41 464.146 4290.26 462.495L4290.23 462.144C4290.15 461.224 4290.47 460.268 4291.31 459.906C4292.5 459.394 4293.68 459.552 4294.56 459.879C4295.24 460.133 4295.66 460.783 4295.84 461.482L4296.19 462.782C4296.45 463.786 4297.21 464.602 4298.2 464.942L4300.48 465.727C4301.64 466.128 4302.47 467.182 4302.58 468.394L4302.76 470.525C4302.88 471.828 4302.13 473.026 4300.92 473.485L4298.94 474.232C4296.38 475.205 4296.5 478.87 4299.14 479.837L4306.71 482.617C4306.84 482.667 4306.98 482.707 4307.12 482.737L4366.23 495.52C4366.85 495.655 4366.86 496.542 4366.24 496.643C4365.66 496.735 4365.6 497.522 4366.15 497.737L4366.54 497.89C4367.12 498.118 4367.15 498.926 4366.59 499.16L4298.27 527.494C4297.84 527.671 4297.37 527.745 4296.91 527.711L4207.8 521.073C4206.92 521.007 4206.1 520.562 4205.55 519.855L4180.61 487.402C4180.19 486.849 4179.98 486.172 4179.92 485.489C4179.47 480.264 4175.11 477.726 4172.15 476.863C4171.47 476.665 4170.83 476.318 4170.36 475.782L4154.14 457.277C4153.7 456.78 4153.44 456.16 4153.38 455.511L4153.16 453.04C4153 451.2 4154.53 449.71 4156.38 449.906L4162.5 450.557Z" fill="url(#paint27_linear_255_32554)"/>
<path d="M3791.58 506.604L3859.78 522.431C3861.33 522.793 3862.75 521.576 3862.62 519.997C3862.57 519.498 3862.67 518.98 3863.02 518.639C3864.14 517.569 3865.84 517.739 3867.07 518.14C3867.65 518.329 3868.01 518.882 3868.06 519.483L3868.07 519.577C3868.16 520.582 3869.13 521.297 3870.11 521.075L3871.68 520.717C3872.13 520.615 3872.3 520.077 3872 519.72C3871.66 519.326 3871.9 518.735 3872.41 518.708L3873.66 518.643C3874.35 518.606 3874.86 518.017 3874.8 517.327L3874.78 517.163C3874.72 516.457 3874.15 515.887 3873.44 515.827L3871.34 515.651C3871.09 515.631 3870.9 515.437 3870.88 515.197C3870.86 514.95 3871.03 514.733 3871.27 514.696L3885.33 512.513C3885.64 512.465 3885.93 512.694 3885.96 513.006C3885.98 513.221 3885.86 513.422 3885.67 513.513L3883.22 514.669C3882.79 514.871 3882.53 515.316 3882.58 515.794C3882.63 516.442 3883.2 516.938 3883.85 516.904L3884.51 516.869C3884.95 516.846 3885.39 516.982 3885.75 517.251L3886.52 517.832C3887.1 518.273 3887.82 518.495 3888.54 518.457L3889.16 518.424C3890.56 518.35 3891.59 517.16 3891.47 515.766C3891.4 514.989 3891.67 514.176 3892.39 513.89C3893.19 513.572 3893.98 513.634 3894.62 513.826C3895.31 514.036 3895.73 514.695 3895.91 515.394L3896.03 515.825C3896.29 516.829 3897.05 517.645 3898.04 517.986L3899.06 518.337C3900.22 518.738 3901.05 519.791 3901.15 521.003L3901.23 521.879C3901.34 523.111 3900.63 524.244 3899.49 524.678C3897.06 525.599 3897.18 529.064 3899.67 529.98L3904.3 531.683C3904.44 531.733 3904.58 531.773 3904.72 531.803L3950.89 541.799C3951.38 541.905 3951.38 542.599 3950.9 542.678C3950.45 542.751 3950.4 543.366 3950.83 543.535L3951.13 543.654C3951.59 543.833 3951.61 544.465 3951.17 544.648L3897.89 566.762C3897.46 566.939 3897 567.013 3896.53 566.978L3827.31 561.814C3826.43 561.749 3825.61 561.303 3825.07 560.596L3805.89 535.625C3805.47 535.073 3805.26 534.395 3805.18 533.714C3804.74 529.909 3801.62 527.985 3799.36 527.262C3798.68 527.046 3798.04 526.701 3797.57 526.165L3785.19 512.029C3784.75 511.532 3784.49 510.912 3784.43 510.264L3784.35 509.31C3784.19 507.47 3785.72 505.98 3787.56 506.176L3791.58 506.604Z" fill="url(#paint28_linear_255_32554)"/>
<path d="M3448.66 535.016L3516.85 550.843C3518.41 551.205 3519.83 549.988 3519.69 548.409C3519.65 547.91 3519.75 547.392 3520.1 547.051C3521.22 545.981 3522.92 546.152 3524.15 546.552C3524.73 546.741 3525.09 547.294 3525.14 547.895L3525.15 547.989C3525.24 548.994 3526.21 549.709 3527.19 549.487L3528.76 549.129C3529.21 549.027 3529.38 548.489 3529.07 548.132C3528.74 547.738 3528.98 547.147 3529.49 547.12L3530.73 547.055C3531.42 547.018 3531.94 546.429 3531.88 545.739L3531.86 545.575C3531.8 544.869 3531.23 544.299 3530.52 544.24L3528.41 544.063C3528.17 544.043 3527.98 543.849 3527.96 543.609C3527.94 543.362 3528.1 543.146 3528.35 543.108L3542.41 540.925C3542.72 540.877 3543.01 541.107 3543.04 541.419C3543.06 541.634 3542.94 541.834 3542.75 541.925L3540.29 543.081C3539.87 543.283 3539.61 543.729 3539.65 544.207C3539.71 544.854 3540.28 545.35 3540.93 545.316L3541.59 545.281C3542.03 545.258 3542.47 545.394 3542.83 545.663L3543.6 546.244C3544.18 546.685 3544.9 546.907 3545.62 546.869L3546.24 546.836C3547.64 546.762 3548.67 545.572 3548.55 544.178C3548.48 543.402 3548.75 542.588 3549.47 542.302C3550.27 541.984 3551.06 542.046 3551.69 542.238C3552.39 542.448 3552.81 543.107 3552.99 543.806L3553.11 544.238C3553.37 545.242 3554.13 546.057 3555.12 546.398L3556.13 546.749C3557.3 547.15 3558.13 548.203 3558.23 549.416L3558.31 550.291C3558.42 551.523 3557.71 552.656 3556.56 553.09C3554.14 554.011 3554.26 557.476 3556.75 558.392L3561.38 560.095C3561.52 560.145 3561.65 560.185 3561.79 560.216L3607.97 570.212C3608.46 570.317 3608.46 571.011 3607.97 571.09C3607.53 571.163 3607.48 571.778 3607.91 571.947L3608.21 572.066C3608.67 572.245 3608.69 572.877 3608.25 573.06L3554.97 595.174C3554.54 595.351 3554.08 595.425 3553.61 595.39L3484.39 590.226C3483.51 590.161 3482.69 589.715 3482.14 589.008L3462.97 564.037C3462.54 563.485 3462.34 562.808 3462.26 562.126C3461.82 558.322 3458.69 556.397 3456.44 555.674C3455.76 555.458 3455.12 555.113 3454.65 554.577L3442.27 540.441C3441.83 539.944 3441.56 539.325 3441.51 538.676L3441.43 537.722C3441.27 535.882 3442.8 534.392 3444.64 534.588L3448.66 535.016Z" fill="url(#paint29_linear_255_32554)"/>
<path d="M3125.25 560.776L3184.15 574.672C3185.52 574.994 3186.77 573.928 3186.65 572.543C3186.61 572.111 3186.69 571.662 3186.99 571.364C3187.96 570.427 3189.43 570.575 3190.49 570.926C3190.99 571.093 3191.31 571.575 3191.35 572.099L3191.36 572.197C3191.44 573.071 3192.29 573.692 3193.14 573.497L3194.48 573.189C3194.87 573.099 3195.02 572.629 3194.75 572.315C3194.46 571.968 3194.68 571.451 3195.12 571.428L3196.18 571.372C3196.78 571.34 3197.22 570.829 3197.17 570.229L3197.16 570.075C3197.11 569.457 3196.6 568.958 3195.98 568.905L3194.18 568.75C3193.97 568.732 3193.8 568.562 3193.78 568.352C3193.76 568.136 3193.91 567.946 3194.12 567.912L3206.26 566.011C3206.53 565.969 3206.79 566.17 3206.81 566.444C3206.83 566.632 3206.73 566.807 3206.56 566.887L3204.45 567.895C3204.07 568.073 3203.85 568.463 3203.89 568.881C3203.94 569.448 3204.44 569.885 3205.01 569.854L3205.56 569.825C3205.94 569.805 3206.32 569.925 3206.63 570.161L3207.27 570.647C3207.8 571.048 3208.44 571.25 3209.09 571.216L3209.55 571.192C3210.78 571.127 3211.68 570.082 3211.58 568.857C3211.52 568.18 3211.75 567.47 3212.38 567.219C3213.01 566.965 3213.63 566.991 3214.16 567.127C3214.85 567.309 3215.27 567.973 3215.45 568.667L3215.46 568.722C3215.72 569.724 3216.48 570.54 3217.46 570.884L3217.89 571.033C3219.05 571.438 3219.87 572.488 3219.97 573.695L3220.02 574.232C3220.11 575.307 3219.5 576.296 3218.5 576.679C3216.39 577.489 3216.49 580.503 3218.66 581.311L3222.65 582.802C3222.79 582.853 3222.93 582.894 3223.07 582.925L3262.96 591.702C3263.38 591.796 3263.39 592.401 3262.96 592.471C3262.57 592.535 3262.53 593.072 3262.9 593.221L3263.17 593.326C3263.56 593.485 3263.58 594.036 3263.2 594.197L3217.27 613.492C3216.84 613.673 3216.37 613.749 3215.9 613.713L3156.37 609.17C3155.49 609.103 3154.67 608.652 3154.12 607.938L3137.72 586.303C3137.3 585.755 3137.1 585.084 3137.01 584.411C3136.59 581.239 3134.05 579.586 3132.13 578.924C3131.46 578.691 3130.81 578.343 3130.35 577.802L3119.81 565.615C3119.38 565.12 3119.12 564.507 3119.06 563.865L3119.04 563.585C3118.88 561.743 3120.41 560.251 3122.26 560.452L3125.25 560.776Z" fill="url(#paint30_linear_255_32554)"/>
<path d="M2840.26 590.439L2892.96 602.957C2894.19 603.249 2895.31 602.29 2895.2 601.043C2895.17 600.656 2895.24 600.254 2895.51 599.986C2896.37 599.142 2897.69 599.275 2898.64 599.591C2899.09 599.741 2899.37 600.175 2899.42 600.645L2899.42 600.74C2899.49 601.524 2900.25 602.081 2901.02 601.905L2902.21 601.629C2902.56 601.548 2902.69 601.126 2902.46 600.843C2902.2 600.53 2902.39 600.065 2902.79 600.044L2903.73 599.995C2904.27 599.966 2904.67 599.507 2904.62 598.97L2904.61 598.827C2904.56 598.271 2904.11 597.822 2903.55 597.773L2901.95 597.635C2901.76 597.618 2901.6 597.465 2901.59 597.276C2901.57 597.081 2901.7 596.91 2901.9 596.88L2912.75 595.173C2912.99 595.135 2913.22 595.316 2913.24 595.563C2913.26 595.731 2913.17 595.889 2913.02 595.961L2911.13 596.866C2910.8 597.027 2910.6 597.378 2910.63 597.753C2910.68 598.265 2911.13 598.658 2911.64 598.631L2912.12 598.605C2912.47 598.587 2912.81 598.695 2913.09 598.908L2913.66 599.344C2914.13 599.705 2914.71 599.888 2915.29 599.857L2915.68 599.836C2916.79 599.778 2917.61 598.836 2917.51 597.733C2917.46 597.125 2917.66 596.486 2918.22 596.261C2918.78 596.037 2919.33 596.056 2919.79 596.173C2920.43 596.335 2920.81 596.947 2920.98 597.584C2921.22 598.505 2921.91 599.256 2922.81 599.574L2923.08 599.669C2924.16 600.05 2924.93 601.032 2925.03 602.161L2925.07 602.579C2925.15 603.544 2924.6 604.433 2923.7 604.778C2921.81 605.509 2921.9 608.213 2923.84 608.943L2927.4 610.28C2927.54 610.331 2927.68 610.373 2927.82 610.404L2963.49 618.31C2963.87 618.395 2963.88 618.939 2963.5 619.002C2963.15 619.059 2963.11 619.541 2963.44 619.676L2963.68 619.771C2964.04 619.915 2964.05 620.409 2963.71 620.555L2922.7 637.877C2922.27 638.06 2921.79 638.136 2921.32 638.099L2868.28 634.013C2867.4 633.944 2866.57 633.491 2866.03 632.774L2851.49 613.497C2851.08 612.951 2850.89 612.284 2850.79 611.615C2850.37 608.884 2848.22 607.426 2846.54 606.813C2845.87 606.568 2845.22 606.219 2844.76 605.675L2835.43 594.833C2835.02 594.361 2834.78 593.777 2834.72 593.166C2834.57 591.403 2836.04 589.977 2837.81 590.17L2840.26 590.439Z" fill="url(#paint31_linear_255_32554)"/>
<defs>
<linearGradient id="paint0_linear_255_32554" x1="746.198" y1="219.148" x2="764.153" y2="103.968" gradientUnits="userSpaceOnUse">
<stop stop-color="#575A80"/>
<stop offset="1" stop-color="#575B7E"/>
</linearGradient>
<linearGradient id="paint1_linear_255_32554" x1="1262.77" y1="248.346" x2="1274.24" y2="174.872" gradientUnits="userSpaceOnUse">
<stop stop-color="#575A80"/>
<stop offset="1" stop-color="#575B7E"/>
</linearGradient>
<linearGradient id="paint2_linear_255_32554" x1="1680.51" y1="284.981" x2="1689.28" y2="228.717" gradientUnits="userSpaceOnUse">
<stop stop-color="#575A80"/>
<stop offset="1" stop-color="#575B7E"/>
</linearGradient>
<linearGradient id="paint3_linear_255_32554" x1="2095.07" y1="325.467" x2="2102.2" y2="279.794" gradientUnits="userSpaceOnUse">
<stop stop-color="#575A80"/>
<stop offset="1" stop-color="#575B7E"/>
</linearGradient>
<linearGradient id="paint4_linear_255_32554" x1="2433.62" y1="371.904" x2="2439.2" y2="336.161" gradientUnits="userSpaceOnUse">
<stop stop-color="#575A80"/>
<stop offset="1" stop-color="#575B7E"/>
</linearGradient>
<linearGradient id="paint5_linear_255_32554" x1="877.024" y1="398.337" x2="886.721" y2="336.202" gradientUnits="userSpaceOnUse">
<stop stop-color="#575A80"/>
<stop offset="1" stop-color="#575B7E"/>
</linearGradient>
<linearGradient id="paint6_linear_255_32554" x1="1246.67" y1="426.694" x2="1254.09" y2="379.112" gradientUnits="userSpaceOnUse">
<stop stop-color="#575A80"/>
<stop offset="1" stop-color="#575B7E"/>
</linearGradient>
<linearGradient id="paint7_linear_255_32554" x1="1616.56" y1="451.44" x2="1622.59" y2="412.816" gradientUnits="userSpaceOnUse">
<stop stop-color="#575A80"/>
<stop offset="1" stop-color="#575B7E"/>
</linearGradient>
<linearGradient id="paint8_linear_255_32554" x1="1919.88" y1="485.406" x2="1924.6" y2="455.179" gradientUnits="userSpaceOnUse">
<stop stop-color="#575A80"/>
<stop offset="1" stop-color="#575B7E"/>
</linearGradient>
<linearGradient id="paint9_linear_255_32554" x1="2218.83" y1="520.326" x2="2223.55" y2="490.099" gradientUnits="userSpaceOnUse">
<stop stop-color="#575A80"/>
<stop offset="1" stop-color="#575B7E"/>
</linearGradient>
<linearGradient id="paint10_linear_255_32554" x1="361.868" y1="400.572" x2="369.289" y2="352.99" gradientUnits="userSpaceOnUse">
<stop stop-color="#575A80"/>
<stop offset="1" stop-color="#575B7E"/>
</linearGradient>
<linearGradient id="paint11_linear_255_32554" x1="627.67" y1="515.481" x2="633.698" y2="476.857" gradientUnits="userSpaceOnUse">
<stop stop-color="#575A80"/>
<stop offset="1" stop-color="#575B7E"/>
</linearGradient>
<linearGradient id="paint12_linear_255_32554" x1="1020.79" y1="558.604" x2="1025.51" y2="528.377" gradientUnits="userSpaceOnUse">
<stop stop-color="#575A80"/>
<stop offset="1" stop-color="#575B7E"/>
</linearGradient>
<linearGradient id="paint13_linear_255_32554" x1="1363.71" y1="587.016" x2="1368.43" y2="556.789" gradientUnits="userSpaceOnUse">
<stop stop-color="#575A80"/>
<stop offset="1" stop-color="#575B7E"/>
</linearGradient>
<linearGradient id="paint14_linear_255_32554" x1="1697.89" y1="607.048" x2="1702.06" y2="580.58" gradientUnits="userSpaceOnUse">
<stop stop-color="#575A80"/>
<stop offset="1" stop-color="#575B7E"/>
</linearGradient>
<linearGradient id="paint15_linear_255_32554" x1="1990.1" y1="632.648" x2="1993.87" y2="608.829" gradientUnits="userSpaceOnUse">
<stop stop-color="#575A80"/>
<stop offset="1" stop-color="#575B7E"/>
</linearGradient>
<linearGradient id="paint16_linear_255_32554" x1="4145.8" y1="213.691" x2="4127.84" y2="98.5111" gradientUnits="userSpaceOnUse">
<stop stop-color="#575A80"/>
<stop offset="1" stop-color="#575B7E"/>
</linearGradient>
<linearGradient id="paint17_linear_255_32554" x1="3629.22" y1="242.889" x2="3617.76" y2="169.415" gradientUnits="userSpaceOnUse">
<stop stop-color="#575A80"/>
<stop offset="1" stop-color="#575B7E"/>
</linearGradient>
<linearGradient id="paint18_linear_255_32554" x1="3211.49" y1="279.524" x2="3202.71" y2="223.259" gradientUnits="userSpaceOnUse">
<stop stop-color="#575A80"/>
<stop offset="1" stop-color="#575B7E"/>
</linearGradient>
<linearGradient id="paint19_linear_255_32554" x1="2796.92" y1="320.01" x2="2789.79" y2="274.337" gradientUnits="userSpaceOnUse">
<stop stop-color="#575A80"/>
<stop offset="1" stop-color="#575B7E"/>
</linearGradient>
<linearGradient id="paint20_linear_255_32554" x1="2458.37" y1="366.447" x2="2452.79" y2="330.704" gradientUnits="userSpaceOnUse">
<stop stop-color="#575A80"/>
<stop offset="1" stop-color="#575B7E"/>
</linearGradient>
<linearGradient id="paint21_linear_255_32554" x1="4014.97" y1="392.88" x2="4005.28" y2="330.745" gradientUnits="userSpaceOnUse">
<stop stop-color="#575A80"/>
<stop offset="1" stop-color="#575B7E"/>
</linearGradient>
<linearGradient id="paint22_linear_255_32554" x1="3645.32" y1="421.237" x2="3637.9" y2="373.655" gradientUnits="userSpaceOnUse">
<stop stop-color="#575A80"/>
<stop offset="1" stop-color="#575B7E"/>
</linearGradient>
<linearGradient id="paint23_linear_255_32554" x1="3275.43" y1="445.983" x2="3269.4" y2="407.359" gradientUnits="userSpaceOnUse">
<stop stop-color="#575A80"/>
<stop offset="1" stop-color="#575B7E"/>
</linearGradient>
<linearGradient id="paint24_linear_255_32554" x1="2972.11" y1="479.949" x2="2967.39" y2="449.722" gradientUnits="userSpaceOnUse">
<stop stop-color="#575A80"/>
<stop offset="1" stop-color="#575B7E"/>
</linearGradient>
<linearGradient id="paint25_linear_255_32554" x1="2673.16" y1="514.869" x2="2668.44" y2="484.642" gradientUnits="userSpaceOnUse">
<stop stop-color="#575A80"/>
<stop offset="1" stop-color="#575B7E"/>
</linearGradient>
<linearGradient id="paint26_linear_255_32554" x1="4530.13" y1="395.115" x2="4522.71" y2="347.533" gradientUnits="userSpaceOnUse">
<stop stop-color="#575A80"/>
<stop offset="1" stop-color="#575B7E"/>
</linearGradient>
<linearGradient id="paint27_linear_255_32554" x1="4264.33" y1="510.024" x2="4258.3" y2="471.4" gradientUnits="userSpaceOnUse">
<stop stop-color="#575A80"/>
<stop offset="1" stop-color="#575B7E"/>
</linearGradient>
<linearGradient id="paint28_linear_255_32554" x1="3871.21" y1="553.147" x2="3866.49" y2="522.92" gradientUnits="userSpaceOnUse">
<stop stop-color="#575A80"/>
<stop offset="1" stop-color="#575B7E"/>
</linearGradient>
<linearGradient id="paint29_linear_255_32554" x1="3528.29" y1="581.559" x2="3523.57" y2="551.332" gradientUnits="userSpaceOnUse">
<stop stop-color="#575A80"/>
<stop offset="1" stop-color="#575B7E"/>
</linearGradient>
<linearGradient id="paint30_linear_255_32554" x1="3194.11" y1="601.591" x2="3189.93" y2="575.123" gradientUnits="userSpaceOnUse">
<stop stop-color="#575A80"/>
<stop offset="1" stop-color="#575B7E"/>
</linearGradient>
<linearGradient id="paint31_linear_255_32554" x1="2901.89" y1="627.19" x2="2898.12" y2="603.372" gradientUnits="userSpaceOnUse">
<stop stop-color="#575A80"/>
<stop offset="1" stop-color="#575B7E"/>
</linearGradient>
</defs>
</svg>
