<svg width="4682" height="435" viewBox="0 0 4682 435" fill="none" xmlns="http://www.w3.org/2000/svg">
<rect x="-6" y="185" width="4723" height="250" fill="#6D859D"/>
<path d="M114.488 104.318L-6 109.652V303H4771V134.987H4728.47L4650.51 141.654L4586.72 154.989H4544.2V160.323L4487.5 166.99L4452.06 160.323H4423.71L4402.45 166.99L4317.4 160.323L4246.52 154.989H4175.65L4118.95 160.323H4076.42L4019.72 154.989L3991.37 150.988H3870.88L3821.27 141.654L3771.66 134.987L3757.48 128.32H3693.69H3622.82L3587.38 114.986L3523.59 104.318L3481.07 98.9845V93.6508L3431.46 85.6502L3332.23 90.9839L3254.27 78.983L3211.74 81.6499L3176.3 84.3168L3126.69 89.6505L3091.25 90.9839L3048.73 93.6508L3006.2 89.6505L2942.42 78.983L2935.33 76.3162L2914.07 78.983L2899.89 70.9824L2885.72 68.3156C2885.72 70.9824 2668.34 76.3162 2616.39 67V73.6493L2595.13 80.3165L2573.86 85.6502H2559.69H2538.43L2531.34 90.9839L2510.08 98.9845L2467.55 105.652H2382.5L2311.62 117.653L2297.45 118.986H2226.57L2205.31 122.986H2155.7L2148.61 120.319L2091.91 114.986V112.319H2035.21L2013.95 114.986L1957.25 118.986L1943.07 112.319L1879.28 114.986V112.319H1815.5L1794.23 109.652L1687.92 114.986L1659.57 120.319H1489.47L1418.59 109.652L1383.16 104.318L1269.76 98.9845L1241.41 88.3171L1149.27 93.6508H1128.01L1042.96 88.3171L851.592 109.652L624.791 112.319H497.215L412.165 114.986V112.319H376.727L362.552 109.652L327.114 114.986L185.364 104.318H114.488Z" fill="#6D859D"/>
<path d="M2970.02 32H3038.84L3103.6 39.2157L3168.37 53.6471L3192.66 62.6667L3208.85 59.0588L3249.33 51.8431H3310.05L3350.53 59.0588L3374.82 66.2745H3427.44L3476.01 71.6863L3520.54 86.1176L3544.83 102.353L3548.88 111.373L3569.12 113.176L3601.5 118.588L3609.6 109.569L3646.03 95.1373L3678.41 89.7255L3722.94 87.9216L3751.27 77.098L3783.66 71.6863L3824.14 73.4902L3848.42 80.7059L3868.66 89.7255H3905.1L3949.62 96.9412L3982.01 109.569L3998.2 122.196L4010.34 138.431L4042.73 131.216L4087.25 129.412L4127.73 134.824L4160.12 147.451L4172.26 158.275L4192.5 136.627L4208.69 125.804L4241.08 111.373L4285.6 102.353L4297.75 100.549H4366.56L4411.09 107.765L4451.57 122.196L4459.66 127.608L4508.24 134.824L4548.72 145.647L4573.01 154.667L4597.29 152.863H4649.92L4670.16 138.431L4702.54 125.804L4738.97 120.392H4771.36L4815.88 127.608L4840.17 136.627L4860.41 151.059L4872.55 163.686L4904.94 176.314L4925.18 188.941L4929.23 194.353L4969.71 197.961L5002.09 206.98L5026.38 221.412L5038.52 241.255L5066.86 252.078L5079 264.706V282.745L5062.81 298.98L5050.66 306.196L2132.1 308L2124 304.392L2128.05 284.549L2152.34 266.51L2188.77 255.686L2213.05 252.078H2241.39L2253.53 253.882V239.451L2273.77 212.392L2302.11 192.549L2338.54 174.51L2387.12 158.275L2403.31 156.471L2407.36 152.863L2476.17 142.039L2520.7 138.431H2634.04L2678.57 131.216L2719.05 127.608L2747.38 98.7451L2771.67 82.5098L2808.1 64.4706L2852.63 50.0392L2901.21 39.2157L2970.02 32Z" fill="url(#paint0_linear_248_33904)" fill-opacity="0.55"/>
<path d="M3278.18 135H3364.58L3445.89 141.431L3527.21 154.294L3557.7 162.333L3578.03 159.118L3628.85 152.686H3705.08L3755.9 159.118L3786.4 165.549H3852.47L3913.45 170.373L3969.36 183.235L3999.85 197.706L4004.93 205.745L4030.34 207.353L4071 212.176L4081.16 204.137L4126.9 191.275L4167.56 186.451L4223.47 184.843L4259.04 175.196L4299.7 170.373L4350.52 171.98L4381.01 178.412L4406.42 186.451H4452.16L4508.07 192.882L4548.73 204.137L4569.05 215.392L4584.3 229.863L4624.96 223.431L4680.86 221.824L4731.69 226.647L4772.34 237.902L4787.59 247.549L4813 228.255L4833.33 218.608L4873.99 205.745L4929.89 197.706L4945.14 196.098H5031.53L5087.44 202.529L5138.26 215.392L5148.42 220.216L5209.41 226.647L5260.23 236.294L5290.73 244.333L5321.22 242.725H5387.29L5412.7 229.863L5453.36 218.608L5499.1 213.784H5539.75L5595.66 220.216L5626.15 228.255L5651.56 241.118L5666.81 252.373L5707.47 263.627L5732.88 274.882L5737.96 279.706L5788.78 282.922L5829.44 290.961L5859.93 303.824L5875.18 321.51L5910.75 331.157L5926 342.412V358.49L5905.67 372.961L5890.42 379.392L2226.16 381L2216 377.784L2221.08 360.098L2251.58 344.02L2297.32 334.373L2327.81 331.157H2363.38L2378.63 332.765V319.902L2404.04 295.784L2439.62 278.098L2485.36 262.02L2546.34 247.549L2566.67 245.941L2571.75 242.725L2658.15 233.078L2714.05 229.863H2856.36L2912.26 223.431L2963.08 220.216L2998.66 194.49L3029.15 180.02L3074.89 163.941L3130.79 151.078L3191.78 141.431L3278.18 135Z" fill="url(#paint1_linear_248_33904)" fill-opacity="0.55"/>
<path d="M2086.18 160H2172.58L2253.89 168.209L2335.21 184.627L2365.7 194.889L2386.03 190.784L2436.85 182.575H2513.08L2563.9 190.784L2594.4 198.993H2660.47L2721.45 205.15L2777.36 221.569L2807.85 240.039L2812.93 250.301L2838.34 252.353L2879 258.51L2889.16 248.248L2934.9 231.83L2975.56 225.673L3031.47 223.621L3067.04 211.307L3107.7 205.15L3158.52 207.203L3189.01 215.412L3214.42 225.673H3260.16L3316.07 233.882L3356.73 248.248L3377.05 262.614L3392.3 281.085L3432.96 272.876L3488.86 270.824L3539.69 276.98L3580.34 291.346L3595.59 303.66L3621 279.033L3641.33 266.719L3681.99 250.301L3737.89 240.039L3753.14 237.987H3839.53L3895.44 246.196L3946.26 262.614L3956.42 268.771L4017.41 276.98L4068.23 289.294L4098.73 299.556L4129.22 297.503H4195.29L4220.7 281.085L4261.36 266.719L4307.1 260.562H4347.75L4403.66 268.771L4434.15 279.033L4459.56 295.451L4474.81 309.817L4515.47 324.183L4540.88 338.549L4545.96 344.706L4596.78 348.81L4637.44 359.072L4667.93 375.49L4683.18 398.065L4718.75 410.379L4734 424.745V445.268L4713.67 463.739L4698.42 471.948L1034.16 474L1024 469.895L1029.08 447.32L1059.58 426.797L1105.32 414.484L1135.81 410.379H1171.38L1186.63 412.431V396.013L1212.04 365.229L1247.62 342.654L1293.36 322.131L1354.34 303.66L1374.67 301.608L1379.75 297.503L1466.15 285.19L1522.05 281.085H1664.36L1720.26 272.876L1771.08 268.771L1806.66 235.935L1837.15 217.464L1882.89 196.941L1938.79 180.523L1999.78 168.209L2086.18 160Z" fill="url(#paint2_linear_248_33904)" fill-opacity="0.75"/>
<path d="M-574.822 0H-488.425L-407.109 6.43137L-325.794 19.2941L-295.301 27.3333L-274.973 24.1176L-224.151 17.6863H-147.918L-97.0958 24.1176L-66.6027 30.549H-0.53418L60.4521 35.3726L116.356 48.2353L146.849 62.7059L151.932 70.7451L177.343 72.3529L218 77.1765L228.164 69.1373L273.904 56.2745L314.562 51.451L370.466 49.8431L406.041 40.1961L446.699 35.3726L497.521 36.9804L528.014 43.4118L553.425 51.451H599.165L655.069 57.8824L695.726 69.1373L716.055 80.3922L731.302 94.8627L771.959 88.4314L827.863 86.8235L878.685 91.6471L919.343 102.902L934.589 112.549L960 93.2549L980.329 83.6078L1020.99 70.7451L1076.89 62.7059L1092.14 61.098H1178.53L1234.44 67.5294L1285.26 80.3922L1295.42 85.2157L1356.41 91.6471L1407.23 101.294L1437.73 109.333L1468.22 107.725H1534.29L1559.7 94.8627L1600.36 83.6078L1646.1 78.7843H1686.75L1742.66 85.2157L1773.15 93.2549L1798.56 106.118L1813.81 117.373L1854.47 128.627L1879.88 139.882L1884.96 144.706L1935.78 147.922L1976.44 155.961L2006.93 168.824L2022.18 186.51L2057.75 196.157L2073 207.412V223.49L2052.67 237.961L2037.42 244.392L-1626.84 246L-1637 242.784L-1631.92 225.098L-1601.42 209.02L-1555.68 199.373L-1525.19 196.157H-1489.62L-1474.37 197.765V184.902L-1448.96 160.784L-1413.38 143.098L-1367.64 127.02L-1306.66 112.549L-1286.33 110.941L-1281.25 107.725L-1194.85 98.0784L-1138.95 94.8627H-996.644L-940.74 88.4314L-889.918 85.2157L-854.342 59.4902L-823.849 45.0196L-778.11 28.9412L-722.205 16.0784L-661.219 6.43137L-574.822 0Z" fill="url(#paint3_linear_248_33904)" fill-opacity="0.75"/>
<path d="M-57.952 123H51.6165L154.74 131.157L257.863 147.471L296.534 157.667L322.315 153.588L386.767 145.431H483.445L547.897 153.588L586.569 161.745H670.356L747.699 167.863L818.596 184.176L857.267 202.529L863.712 212.725L895.938 214.765L947.5 220.882L960.39 210.686L1018.4 194.373L1069.96 188.255L1140.86 186.216L1185.97 173.98L1237.53 167.863L1301.99 169.902L1340.66 178.059L1372.88 188.255H1430.89L1501.79 196.412L1553.35 210.686L1579.13 224.961L1598.47 243.314L1650.03 235.157L1720.92 233.118L1785.38 239.235L1836.94 253.51L1856.27 265.745L1888.5 241.275L1914.28 229.039L1965.84 212.725L2036.74 202.529L2056.08 200.49H2165.64L2236.54 208.647L2300.99 224.961L2313.88 231.078L2391.23 239.235L2455.68 251.471L2494.35 261.667L2533.02 259.627H2616.81L2649.03 243.314L2700.6 229.039L2758.6 222.922H2810.16L2881.06 231.078L2919.73 241.275L2951.96 257.588L2971.29 271.863L3022.86 286.137L3055.08 300.412L3061.53 306.529L3125.98 310.608L3177.54 320.804L3216.21 337.118L3235.55 359.549L3280.66 371.784L3300 386.059V406.451L3274.22 424.804L3254.88 432.961L-1392.11 435L-1405 430.922L-1398.55 408.49L-1359.88 388.098L-1301.88 375.863L-1263.21 371.784H-1218.09L-1198.75 373.824V357.51L-1166.53 326.922L-1121.41 304.49L-1063.4 284.098L-986.062 265.745L-960.281 263.706L-953.836 259.627L-844.267 247.392L-773.37 243.314H-592.904L-522.007 235.157L-457.555 231.078L-412.438 198.451L-373.767 180.098L-315.76 159.706L-244.863 143.392L-167.521 131.157L-57.952 123Z" fill="url(#paint4_linear_248_33904)" fill-opacity="0.85"/>
<defs>
<linearGradient id="paint0_linear_248_33904" x1="3601.5" y1="117.794" x2="3601.5" y2="252.649" gradientUnits="userSpaceOnUse">
<stop stop-color="#D6E6F3"/>
<stop offset="1" stop-color="#75A6CE" stop-opacity="0.95"/>
</linearGradient>
<linearGradient id="paint1_linear_248_33904" x1="4071" y1="211.469" x2="4071" y2="331.665" gradientUnits="userSpaceOnUse">
<stop stop-color="#D6E6F3"/>
<stop offset="1" stop-color="#75A6CE" stop-opacity="0.95"/>
</linearGradient>
<linearGradient id="paint2_linear_248_33904" x1="2879" y1="257.606" x2="2879" y2="411.028" gradientUnits="userSpaceOnUse">
<stop stop-color="#B1CBE1"/>
<stop offset="1" stop-color="#75A6CE" stop-opacity="0.95"/>
</linearGradient>
<linearGradient id="paint3_linear_248_33904" x1="218" y1="76.4686" x2="218" y2="196.665" gradientUnits="userSpaceOnUse">
<stop stop-color="#B1CBE1"/>
<stop offset="1" stop-color="#75A6CE" stop-opacity="0.95"/>
</linearGradient>
<linearGradient id="paint4_linear_248_33904" x1="947.5" y1="219.985" x2="947.5" y2="372.429" gradientUnits="userSpaceOnUse">
<stop stop-color="#D6E6F3"/>
<stop offset="1" stop-color="#75A6CE" stop-opacity="0.95"/>
</linearGradient>
</defs>
</svg>
