<svg width="4682" height="1225" viewBox="0 0 4682 1225" fill="none" xmlns="http://www.w3.org/2000/svg">
<path d="M2307.76 294.395L2183.48 256.428L2166.8 1227.1L2374.91 1207.21L2307.76 294.395Z" fill="url(#paint0_linear_248_33906)" fill-opacity="0.8" stroke="#C4E1F9" stroke-opacity="0.2" stroke-width="11.4561"/>
<path d="M2241.07 218.62L2120.98 169L2012 1133.68H2221.06L2241.07 218.62Z" fill="url(#paint1_linear_248_33906)" fill-opacity="0.8" stroke="#C4E1F9" stroke-opacity="0.2" stroke-width="11.4561"/>
<path d="M2393.76 304.395L2269.48 266.428L2252.8 1237.1L2460.91 1217.21L2393.76 304.395Z" fill="url(#paint2_linear_248_33906)" fill-opacity="0.8" stroke="#C4E1F9" stroke-opacity="0.2" stroke-width="11.4561"/>
<path d="M1729.27 177.808L1582.44 133.797L1449.21 989.421H1704.8L1729.27 177.808Z" fill="url(#paint3_linear_248_33906)" fill-opacity="0.8" stroke="#C4E1F9" stroke-opacity="0.2" stroke-width="11.4561"/>
<path d="M1428 172.448L1582.59 134.938L1552.75 992.793L1298.22 981.79L1428 172.448Z" fill="url(#paint4_linear_248_33906)" fill-opacity="0.8" stroke="#C4E1F9" stroke-opacity="0.2" stroke-width="11.4561"/>
<path d="M1072.43 124.776L901.713 71.0297L677.681 1064.62L980.768 1069.01L1072.43 124.776Z" fill="url(#paint5_linear_248_33906)" fill-opacity="0.8" stroke="#C4E1F9" stroke-opacity="0.2" stroke-width="11.4561"/>
<path d="M715.583 113.367L901.791 72.3627L800.203 1070.32L499.207 1053.15L715.583 113.367Z" fill="url(#paint6_linear_248_33906)" fill-opacity="0.8" stroke="#C4E1F9" stroke-opacity="0.2" stroke-width="11.4561"/>
<path d="M602.414 174.373L467.821 127.533L400.093 1093.55L629.732 1088.81L602.414 174.373Z" fill="url(#paint7_linear_248_33906)" fill-opacity="0.8" stroke="#C4E1F9" stroke-opacity="0.2" stroke-width="11.4561"/>
<path d="M331.403 173.926L468.015 128.818L493.324 1095.43L263.958 1087.76L331.403 173.926Z" fill="url(#paint8_linear_248_33906)" fill-opacity="0.8" stroke="#C4E1F9" stroke-opacity="0.2" stroke-width="11.4561"/>
<path d="M1984.85 125.815L1864.76 76.1943L1755.78 1040.87H1964.84L1984.85 125.815Z" fill="url(#paint9_linear_248_33906)" fill-opacity="0.8" stroke="#C4E1F9" stroke-opacity="0.2" stroke-width="11.4561"/>
<path d="M1984.85 125.815L1864.76 76.1943L1755.78 1040.87H1964.84L1984.85 125.815Z" fill="url(#paint10_linear_248_33906)" fill-opacity="0.8" stroke="#C4E1F9" stroke-opacity="0.2" stroke-width="11.4561"/>
<path d="M1738.44 119.78L1864.88 77.4943L1840.48 1044.57L1632.29 1032.17L1738.44 119.78Z" fill="url(#paint11_linear_248_33906)" fill-opacity="0.8" stroke="#C4E1F9" stroke-opacity="0.2" stroke-width="11.4561"/>
<path d="M3113.16 178.173L2927.75 131.573L2921.61 1097.65L3230.5 1092.5L3113.16 178.173Z" fill="url(#paint12_linear_248_33906)" fill-opacity="0.8" stroke="#C4E1F9" stroke-opacity="0.2" stroke-width="11.4561"/>
<path d="M2469.95 134.162L2284.54 87.5619L2278.4 1053.63L2587.29 1048.49L2469.95 134.162Z" fill="url(#paint13_linear_248_33906)" fill-opacity="0.8" stroke="#C4E1F9" stroke-opacity="0.2" stroke-width="11.4561"/>
<path d="M2748.1 178.207L2928.13 132.868L3047.35 1099.25L2737.74 1091.99L2748.1 178.207Z" fill="url(#paint14_linear_248_33906)" fill-opacity="0.8" stroke="#C4E1F9" stroke-opacity="0.2" stroke-width="11.4561"/>
<path d="M1994.61 121.017L2213.12 83.5358L2221.2 1053.19L1857.11 1032.58L1994.61 121.017Z" fill="url(#paint15_linear_248_33906)" fill-opacity="0.8" stroke="#C4E1F9" stroke-opacity="0.2" stroke-width="11.4561"/>
<path d="M2757.6 134.737L2624.48 86.987L2620.08 1076.89L2841.84 1071.63L2757.6 134.737Z" fill="url(#paint16_linear_248_33906)" fill-opacity="0.8" stroke="#C4E1F9" stroke-opacity="0.2" stroke-width="11.4561"/>
<path d="M2495.52 134.773L2624.76 88.3159L2710.35 1078.54L2488.08 1071.1L2495.52 134.773Z" fill="url(#paint17_linear_248_33906)" fill-opacity="0.8" stroke="#C4E1F9" stroke-opacity="0.2" stroke-width="11.4561"/>
<path d="M3380.24 179.394L3247.12 131.644L3242.72 1121.55L3464.49 1116.28L3380.24 179.394Z" fill="url(#paint18_linear_248_33906)" fill-opacity="0.8" stroke="#C4E1F9" stroke-opacity="0.2" stroke-width="11.4561"/>
<path d="M3118.15 179.432L3247.4 132.974L3332.99 1123.2L3110.72 1115.76L3118.15 179.432Z" fill="url(#paint19_linear_248_33906)" fill-opacity="0.8" stroke="#C4E1F9" stroke-opacity="0.2" stroke-width="11.4561"/>
<path d="M3795.49 60.7764L3653.69 8.32495L3649 1095.7L3885.22 1089.91L3795.49 60.7764Z" fill="url(#paint20_linear_248_33906)" fill-opacity="0.8" stroke="#C4E1F9" stroke-opacity="0.2" stroke-width="11.4561"/>
<path d="M3516.31 60.815L3653.99 9.78341L3745.16 1097.51L3508.39 1089.33L3516.31 60.815Z" fill="url(#paint21_linear_248_33906)" fill-opacity="0.8" stroke="#C4E1F9" stroke-opacity="0.2" stroke-width="11.4561"/>
<path d="M4217.6 123.556L4075.81 71.1042L4071.12 1158.48L4307.34 1152.69L4217.6 123.556Z" fill="url(#paint22_linear_248_33906)" fill-opacity="0.8" stroke="#C4E1F9" stroke-opacity="0.2" stroke-width="11.4561"/>
<path d="M3938.43 123.594L4076.1 72.5627L4167.27 1160.29L3930.5 1152.11L3938.43 123.594Z" fill="url(#paint23_linear_248_33906)" fill-opacity="0.8" stroke="#C4E1F9" stroke-opacity="0.2" stroke-width="11.4561"/>
<path d="M1477.56 172.668L1608.32 133.258L1613.95 1039.91L1395.99 1027.9L1477.56 172.668Z" fill="url(#paint24_linear_248_33906)" fill-opacity="0.75" stroke="#C4E1F9" stroke-opacity="0.2" stroke-width="11.4561"/>
<path d="M746.838 170.135L882.674 134.825L765.402 1039.76L549.523 1021.08L746.838 170.135Z" fill="url(#paint25_linear_248_33906)" fill-opacity="0.75" stroke="#C4E1F9" stroke-opacity="0.2" stroke-width="11.4561"/>
<path d="M2452.14 194.27L2551.22 151.823L2587.59 1056.91L2419.69 1050.08L2452.14 194.27Z" fill="url(#paint26_linear_248_33906)" fill-opacity="0.75" stroke="#C4E1F9" stroke-opacity="0.2" stroke-width="11.4561"/>
<path d="M3078.57 255.752L3173.71 211.307L3292.13 1114.81L3123.78 1111.43L3078.57 255.752Z" fill="url(#paint27_linear_248_33906)" fill-opacity="0.75" stroke="#C4E1F9" stroke-opacity="0.2" stroke-width="11.4561"/>
<path d="M3488.28 194.292L3609.44 147.196L3861.63 1045.98L3638.56 1047.42L3488.28 194.292Z" fill="url(#paint28_linear_248_33906)" fill-opacity="0.75" stroke="#C4E1F9" stroke-opacity="0.2" stroke-width="11.4561"/>
<path d="M4167.02 183.269L4260.69 134.067L4584.97 1026.47L4401.45 1031.96L4167.02 183.269Z" fill="url(#paint29_linear_248_33906)" fill-opacity="0.75" stroke="#C4E1F9" stroke-opacity="0.2" stroke-width="11.4561"/>
<path d="M1194.28 236.704L1311.24 200.527L1145.89 1102.76L965.515 1085.75L1194.28 236.704Z" fill="url(#paint30_linear_248_33906)" fill-opacity="0.75" stroke="#C4E1F9" stroke-opacity="0.2" stroke-width="11.4561"/>
<path d="M546.493 191.075L663.452 154.898L498.098 1057.13L317.728 1040.12L546.493 191.075Z" fill="url(#paint31_linear_248_33906)" fill-opacity="0.75" stroke="#C4E1F9" stroke-opacity="0.2" stroke-width="11.4561"/>
<path d="M2548.17 191.765L2658.49 151.138L2649.31 1056.79L2466.62 1046.88L2548.17 191.765Z" fill="url(#paint32_linear_248_33906)" fill-opacity="0.75" stroke="#C4E1F9" stroke-opacity="0.2" stroke-width="11.4561"/>
<path d="M726.916 259.766L624.707 214.583L462.91 1116.96L646.737 1114.91L726.916 259.766Z" fill="url(#paint33_linear_248_33906)" fill-opacity="0.75" stroke="#C4E1F9" stroke-opacity="0.2" stroke-width="11.4561"/>
<path d="M726.916 281.124L624.707 235.942L462.91 1138.32L646.737 1136.27L726.916 281.124Z" fill="url(#paint34_linear_248_33906)" fill-opacity="0.75" stroke="#C4E1F9" stroke-opacity="0.2" stroke-width="11.4561"/>
<path d="M1125.25 202.163L1023.04 156.98L861.24 1059.36L1045.07 1057.31L1125.25 202.163Z" fill="url(#paint35_linear_248_33906)" fill-opacity="0.75" stroke="#C4E1F9" stroke-opacity="0.2" stroke-width="11.4561"/>
<path d="M1403.94 262.032L1301.73 216.849L1139.94 1119.23L1323.76 1117.18L1403.94 262.032Z" fill="url(#paint36_linear_248_33906)" fill-opacity="0.75" stroke="#C4E1F9" stroke-opacity="0.2" stroke-width="11.4561"/>
<path d="M2896.6 242.374L2788.49 200.418L2749.09 1105.89L2932.25 1098.2L2896.6 242.374Z" fill="url(#paint37_linear_248_33906)" fill-opacity="0.75" stroke="#C4E1F9" stroke-opacity="0.2" stroke-width="11.4561"/>
<path d="M3936 158.388L3819 122.234L3985.17 1024.44L4165.53 1007.38L3936 158.388Z" fill="url(#paint38_linear_248_33906)" fill-opacity="0.75" stroke="#C4E1F9" stroke-opacity="0.2" stroke-width="11.4561"/>
<path d="M4084.19 153.534L3967.19 117.381L4133.36 1019.58L4313.72 1002.53L4084.19 153.534Z" fill="url(#paint39_linear_248_33906)" fill-opacity="0.75" stroke="#C4E1F9" stroke-opacity="0.2" stroke-width="11.4561"/>
<path d="M4447.84 209.843L4330.85 173.689L4497.01 1075.89L4677.37 1058.84L4447.84 209.843Z" fill="url(#paint40_linear_248_33906)" fill-opacity="0.75" stroke="#C4E1F9" stroke-opacity="0.2" stroke-width="11.4561"/>
<path d="M4553.2 158.388L4436.21 122.234L4602.38 1024.44L4782.73 1007.38L4553.2 158.388Z" fill="url(#paint41_linear_248_33906)" fill-opacity="0.75" stroke="#C4E1F9" stroke-opacity="0.2" stroke-width="11.4561"/>
<path d="M3488.73 139.619L3371.74 103.466L3537.91 1005.67L3718.26 988.614L3488.73 139.619Z" fill="url(#paint42_linear_248_33906)" fill-opacity="0.75" stroke="#C4E1F9" stroke-opacity="0.2" stroke-width="11.4561"/>
<path d="M2988.98 195.191L2843.44 158.963L2897.21 1065.89L3134.67 1048.55L2988.98 195.191Z" fill="url(#paint43_linear_248_33906)" fill-opacity="0.75" stroke="#C4E1F9" stroke-opacity="0.2" stroke-width="11.4561"/>
<path d="M1894.76 193.055L1741.76 148.937L1581.09 1077.65L1849.29 1071.58L1894.76 193.055Z" fill="url(#paint44_linear_248_33906)" fill-opacity="0.75" stroke="#C4E1F9" stroke-opacity="0.2" stroke-width="11.4561"/>
<path d="M395.674 212.169L291.923 160.844L-70.6866 1074.61L132.883 1081.8L395.674 212.169Z" fill="url(#paint45_linear_248_33906)" fill-opacity="0.75" stroke="#C4E1F9" stroke-opacity="0.2" stroke-width="11.4561"/>
<path d="M494.551 349.05L434.905 303.722L137.321 1133.49L261.976 1137.89L494.551 349.05Z" fill="url(#paint46_linear_248_33906)" fill-opacity="0.75" stroke="#C4E1F9" stroke-opacity="0.2" stroke-width="11.4561"/>
<path d="M121.14 191.295L207.23 156.927L-46.9375 989.957L-168.373 975.852L121.14 191.295Z" fill="url(#paint47_linear_248_33906)" fill-opacity="0.75" stroke="#C4E1F9" stroke-opacity="0.2" stroke-width="11.4561"/>
<path d="M2691.29 277.919L2765.59 237.797L2776.55 1079.55L2652.05 1074.27L2691.29 277.919Z" fill="url(#paint48_linear_248_33906)" fill-opacity="0.75" stroke="#C4E1F9" stroke-opacity="0.2" stroke-width="11.4561"/>
<path d="M3657.13 239.223L3723.38 196.023L3896.58 1033.75L3771.58 1033.93L3657.13 239.223Z" fill="url(#paint49_linear_248_33906)" fill-opacity="0.75" stroke="#C4E1F9" stroke-opacity="0.2" stroke-width="11.4561"/>
<path d="M2064.24 266.288L1993.25 224.832L1914.16 1065.76L2039 1062.77L2064.24 266.288Z" fill="url(#paint50_linear_248_33906)" fill-opacity="0.75" stroke="#C4E1F9" stroke-opacity="0.2" stroke-width="11.4561"/>
<path d="M2064.94 229.234L2141.06 189.895L2113.35 1031.56L1989.12 1024.99L2064.94 229.234Z" fill="url(#paint51_linear_248_33906)" fill-opacity="0.75" stroke="#C4E1F9" stroke-opacity="0.2" stroke-width="11.4561"/>
<path d="M3096.96 203.715L2951.41 167.487L3005.19 1074.41L3242.65 1057.08L3096.96 203.715Z" fill="url(#paint52_linear_248_33906)" fill-opacity="0.75" stroke="#C4E1F9" stroke-opacity="0.2" stroke-width="11.4561"/>
<path d="M3360.29 198.838L3209.71 162.177L3235.11 1069.71L3483.36 1053.04L3360.29 198.838Z" fill="url(#paint53_linear_248_33906)" fill-opacity="0.75" stroke="#C4E1F9" stroke-opacity="0.2" stroke-width="11.4561"/>
<path d="M1793.19 391.016L1702.38 920L1667.07 1027.06H1793.19L1848.68 438.246L1793.19 391.016Z" fill="url(#paint54_linear_248_33906)" fill-opacity="0.6" stroke="#C4E1F9" stroke-opacity="0.2" stroke-width="9.92866"/>
<path d="M1992.3 441.335L1922.75 971.574L1891.75 1079.15L2017.83 1077.18L2049.67 487.684L1992.3 441.335Z" fill="url(#paint55_linear_248_33906)" fill-opacity="0.6" stroke="#C4E1F9" stroke-opacity="0.2" stroke-width="9.92866"/>
<path d="M2068.09 343.078L2001.72 952.38L1971.36 1075.96L2097.44 1073.98L2125.75 396.485L2068.09 343.078Z" fill="url(#paint56_linear_248_33906)" fill-opacity="0.6" stroke="#C4E1F9" stroke-opacity="0.2" stroke-width="9.92866"/>
<path d="M1409.76 368.267L1343.39 977.569L1313.02 1101.15L1439.1 1099.17L1467.41 421.675L1409.76 368.267Z" fill="url(#paint57_linear_248_33906)" fill-opacity="0.6" stroke="#C4E1F9" stroke-opacity="0.2" stroke-width="9.92866"/>
<path d="M1000.61 350.912L850.988 954.437L803.802 1075.94L929.688 1080.71L1050.74 407.201L1000.61 350.912Z" fill="url(#paint58_linear_248_33906)" fill-opacity="0.6" stroke="#C4E1F9" stroke-opacity="0.2" stroke-width="9.92866"/>
<path d="M1685.43 312.355L1607.62 950.498L1569.13 1080.26L1738.51 1075.67L1763.91 367.018L1685.43 312.355Z" fill="url(#paint59_linear_248_33906)" fill-opacity="0.6" stroke="#C4E1F9" stroke-opacity="0.2" stroke-width="9.92866"/>
<path d="M2810.24 410.353L2893.56 969.181L2933.17 1082.89L2763.79 1078.3L2732.26 457.934L2810.24 410.353Z" fill="url(#paint60_linear_248_33906)" fill-opacity="0.6" stroke="#C4E1F9" stroke-opacity="0.2" stroke-width="9.92866"/>
<path d="M3001.94 363.908L3083.49 948.344L3122.74 1067.24L2953.35 1062.65L2923.8 413.776L3001.94 363.908Z" fill="url(#paint61_linear_248_33906)" fill-opacity="0.6" stroke="#C4E1F9" stroke-opacity="0.2" stroke-width="9.92866"/>
<path d="M3522.42 323.762L3599.81 967.908L3638.22 1098.89L3468.84 1094.3L3443.91 378.961L3522.42 323.762Z" fill="url(#paint62_linear_248_33906)" fill-opacity="0.6" stroke="#C4E1F9" stroke-opacity="0.2" stroke-width="9.92866"/>
<path d="M3598.42 336.55L3671.14 979.285L3704.07 1109.64L3568.45 1107.58L3536.52 392.901L3598.42 336.55Z" fill="url(#paint63_linear_248_33906)" fill-opacity="0.6" stroke="#C4E1F9" stroke-opacity="0.2" stroke-width="9.92866"/>
<path d="M3919.87 320.79L4046.73 960.243L4090.61 1089.33L3955 1091.74L3862.81 379.098L3919.87 320.79Z" fill="url(#paint64_linear_248_33906)" fill-opacity="0.6" stroke="#C4E1F9" stroke-opacity="0.2" stroke-width="9.92866"/>
<path d="M3982.35 182.065L4114.81 944.574L4159.83 1098.57L4024.22 1100.98L3925.79 251.36L3982.35 182.065Z" fill="url(#paint65_linear_248_33906)" fill-opacity="0.6" stroke="#C4E1F9" stroke-opacity="0.2" stroke-width="9.92866"/>
<path d="M4035.31 185.213L4167.77 947.722L4212.79 1101.72L4077.19 1104.12L3978.76 254.508L4035.31 185.213Z" fill="url(#paint66_linear_248_33906)" fill-opacity="0.6" stroke="#C4E1F9" stroke-opacity="0.2" stroke-width="9.92866"/>
<path d="M4175.14 186.991L4355.04 945.706L4409.62 1098.49L4274.27 1104.19L4122.94 257.608L4175.14 186.991Z" fill="url(#paint67_linear_248_33906)" fill-opacity="0.6" stroke="#C4E1F9" stroke-opacity="0.2" stroke-width="9.92866"/>
<path d="M4272.31 265.65L4452.22 1024.36L4506.8 1177.15L4371.45 1182.85L4220.12 336.266L4272.31 265.65Z" fill="url(#paint68_linear_248_33906)" fill-opacity="0.6" stroke="#C4E1F9" stroke-opacity="0.2" stroke-width="9.92866"/>
<path d="M3751.44 367.588L3913.05 957.062L3963.93 1075.6L3828.58 1081.29L3697.61 423.094L3751.44 367.588Z" fill="url(#paint69_linear_248_33906)" fill-opacity="0.6" stroke="#C4E1F9" stroke-opacity="0.2" stroke-width="9.92866"/>
<path d="M818.813 373.334L669.344 976.874L622.189 1098.38L748.076 1103.13L868.951 429.618L818.813 373.334Z" fill="url(#paint70_linear_248_33906)" fill-opacity="0.6" stroke="#C4E1F9" stroke-opacity="0.2" stroke-width="9.92866"/>
<rect x="-21" y="1093" width="4716" height="616" fill="#A3B5CB"/>
<defs>
<linearGradient id="paint0_linear_248_33906" x1="2134.83" y1="331.817" x2="2188.95" y2="1085.59" gradientUnits="userSpaceOnUse">
<stop stop-color="#A0BED7"/>
<stop offset="1" stop-color="#5484B0"/>
</linearGradient>
<linearGradient id="paint1_linear_248_33906" x1="2065.38" y1="239.417" x2="2047.52" y2="994.915" gradientUnits="userSpaceOnUse">
<stop stop-color="#A0BED7"/>
<stop offset="1" stop-color="#5484B0"/>
</linearGradient>
<linearGradient id="paint2_linear_248_33906" x1="2220.83" y1="341.817" x2="2274.95" y2="1095.59" gradientUnits="userSpaceOnUse">
<stop stop-color="#A0BED7"/>
<stop offset="1" stop-color="#5484B0"/>
</linearGradient>
<linearGradient id="paint3_linear_248_33906" x1="1514.47" y1="196.254" x2="1502.98" y2="866.52" gradientUnits="userSpaceOnUse">
<stop stop-color="#A0BED7"/>
<stop offset="1" stop-color="#5484B0"/>
</linearGradient>
<linearGradient id="paint4_linear_248_33906" x1="1638.42" y1="200.065" x2="1620.99" y2="870.639" gradientUnits="userSpaceOnUse">
<stop stop-color="#A0BED7"/>
<stop offset="1" stop-color="#5484B0"/>
</linearGradient>
<linearGradient id="paint5_linear_248_33906" x1="816.284" y1="142.557" x2="791.797" y2="923.776" gradientUnits="userSpaceOnUse">
<stop stop-color="#A0BED7"/>
<stop offset="1" stop-color="#5484B0"/>
</linearGradient>
<linearGradient id="paint6_linear_248_33906" x1="962.975" y1="149.124" x2="931.656" y2="930.964" gradientUnits="userSpaceOnUse">
<stop stop-color="#A0BED7"/>
<stop offset="1" stop-color="#5484B0"/>
</linearGradient>
<linearGradient id="paint7_linear_248_33906" x1="410.541" y1="199.129" x2="409.896" y2="954.127" gradientUnits="userSpaceOnUse">
<stop stop-color="#A0BED7"/>
<stop offset="1" stop-color="#5484B0"/>
</linearGradient>
<linearGradient id="paint8_linear_248_33906" x1="522.136" y1="201.125" x2="513.137" y2="956.2" gradientUnits="userSpaceOnUse">
<stop stop-color="#A0BED7"/>
<stop offset="1" stop-color="#5484B0"/>
</linearGradient>
<linearGradient id="paint9_linear_248_33906" x1="1809.16" y1="146.612" x2="1791.3" y2="902.109" gradientUnits="userSpaceOnUse">
<stop stop-color="#A0BED7"/>
<stop offset="1" stop-color="#5484B0"/>
</linearGradient>
<linearGradient id="paint10_linear_248_33906" x1="1809.16" y1="146.612" x2="1791.3" y2="902.109" gradientUnits="userSpaceOnUse">
<stop stop-color="#A0BED7"/>
<stop offset="1" stop-color="#5484B0"/>
</linearGradient>
<linearGradient id="paint11_linear_248_33906" x1="1910.55" y1="150.913" x2="1883.48" y2="906.406" gradientUnits="userSpaceOnUse">
<stop stop-color="#A0BED7"/>
<stop offset="1" stop-color="#5484B0"/>
</linearGradient>
<linearGradient id="paint12_linear_248_33906" x1="2856.9" y1="203.263" x2="2857.4" y2="958.254" gradientUnits="userSpaceOnUse">
<stop stop-color="#A0BED7"/>
<stop offset="1" stop-color="#5484B0"/>
</linearGradient>
<linearGradient id="paint13_linear_248_33906" x1="2213.69" y1="159.253" x2="2214.19" y2="914.244" gradientUnits="userSpaceOnUse">
<stop stop-color="#A0BED7"/>
<stop offset="1" stop-color="#5484B0"/>
</linearGradient>
<linearGradient id="paint14_linear_248_33906" x1="3007.39" y1="205.066" x2="3001.7" y2="959.56" gradientUnits="userSpaceOnUse">
<stop stop-color="#A0BED7"/>
<stop offset="1" stop-color="#5484B0"/>
</linearGradient>
<linearGradient id="paint15_linear_248_33906" x1="2296.69" y1="159.015" x2="2264.16" y2="915.141" gradientUnits="userSpaceOnUse">
<stop stop-color="#A0BED7"/>
<stop offset="1" stop-color="#5484B0"/>
</linearGradient>
<linearGradient id="paint16_linear_248_33906" x1="2573.62" y1="160.446" x2="2574.36" y2="934.064" gradientUnits="userSpaceOnUse">
<stop stop-color="#A0BED7"/>
<stop offset="1" stop-color="#5484B0"/>
</linearGradient>
<linearGradient id="paint17_linear_248_33906" x1="2681.67" y1="162.295" x2="2673.35" y2="935.358" gradientUnits="userSpaceOnUse">
<stop stop-color="#A0BED7"/>
<stop offset="1" stop-color="#5484B0"/>
</linearGradient>
<linearGradient id="paint18_linear_248_33906" x1="3196.26" y1="205.104" x2="3197" y2="978.721" gradientUnits="userSpaceOnUse">
<stop stop-color="#A0BED7"/>
<stop offset="1" stop-color="#5484B0"/>
</linearGradient>
<linearGradient id="paint19_linear_248_33906" x1="3304.31" y1="206.953" x2="3295.99" y2="980.016" gradientUnits="userSpaceOnUse">
<stop stop-color="#A0BED7"/>
<stop offset="1" stop-color="#5484B0"/>
</linearGradient>
<linearGradient id="paint20_linear_248_33906" x1="3599.51" y1="89.0171" x2="3600.35" y2="938.803" gradientUnits="userSpaceOnUse">
<stop stop-color="#A0BED7"/>
<stop offset="1" stop-color="#5484B0"/>
</linearGradient>
<linearGradient id="paint21_linear_248_33906" x1="3714.6" y1="91.0463" x2="3705.18" y2="940.217" gradientUnits="userSpaceOnUse">
<stop stop-color="#A0BED7"/>
<stop offset="1" stop-color="#5484B0"/>
</linearGradient>
<linearGradient id="paint22_linear_248_33906" x1="4021.63" y1="151.796" x2="4022.46" y2="1001.58" gradientUnits="userSpaceOnUse">
<stop stop-color="#A0BED7"/>
<stop offset="1" stop-color="#5484B0"/>
</linearGradient>
<linearGradient id="paint23_linear_248_33906" x1="4136.71" y1="153.826" x2="4127.29" y2="1003" gradientUnits="userSpaceOnUse">
<stop stop-color="#A0BED7"/>
<stop offset="1" stop-color="#5484B0"/>
</linearGradient>
<linearGradient id="paint24_linear_248_33906" x1="1658.41" y1="202.179" x2="1704.19" y2="1000.89" gradientUnits="userSpaceOnUse">
<stop stop-color="#C4E1F9"/>
<stop offset="0.5" stop-color="#959DB1"/>
<stop offset="1" stop-color="#6A95BB"/>
</linearGradient>
<linearGradient id="paint25_linear_248_33906" x1="923.314" y1="205.14" x2="944.279" y2="1001.39" gradientUnits="userSpaceOnUse">
<stop stop-color="#C4E1F9"/>
<stop offset="0.5" stop-color="#959DB1"/>
<stop offset="1" stop-color="#6A95BB"/>
</linearGradient>
<linearGradient id="paint26_linear_248_33906" x1="2592.14" y1="219.448" x2="2676.01" y2="1013.65" gradientUnits="userSpaceOnUse">
<stop stop-color="#C4E1F9"/>
<stop offset="0.5" stop-color="#959DB1"/>
<stop offset="1" stop-color="#6A95BB"/>
</linearGradient>
<linearGradient id="paint27_linear_248_33906" x1="3220.73" y1="278.028" x2="3322.48" y2="1076.66" gradientUnits="userSpaceOnUse">
<stop stop-color="#C4E1F9"/>
<stop offset="0.5" stop-color="#959DB1"/>
<stop offset="1" stop-color="#6A95BB"/>
</linearGradient>
<linearGradient id="paint28_linear_248_33906" x1="3678.68" y1="212.476" x2="3774.95" y2="1021.63" gradientUnits="userSpaceOnUse">
<stop stop-color="#C4E1F9"/>
<stop offset="0.5" stop-color="#959DB1"/>
<stop offset="1" stop-color="#6A95BB"/>
</linearGradient>
<linearGradient id="paint29_linear_248_33906" x1="4326.18" y1="197.958" x2="4464.02" y2="1011.6" gradientUnits="userSpaceOnUse">
<stop stop-color="#C4E1F9"/>
<stop offset="0.5" stop-color="#959DB1"/>
<stop offset="1" stop-color="#6A95BB"/>
</linearGradient>
<linearGradient id="paint30_linear_248_33906" x1="1340.28" y1="270.264" x2="1371.77" y2="1060.33" gradientUnits="userSpaceOnUse">
<stop stop-color="#C4E1F9"/>
<stop offset="0.5" stop-color="#959DB1"/>
<stop offset="1" stop-color="#6A95BB"/>
</linearGradient>
<linearGradient id="paint31_linear_248_33906" x1="692.489" y1="224.635" x2="723.981" y2="1014.7" gradientUnits="userSpaceOnUse">
<stop stop-color="#C4E1F9"/>
<stop offset="0.5" stop-color="#959DB1"/>
<stop offset="1" stop-color="#6A95BB"/>
</linearGradient>
<linearGradient id="paint32_linear_248_33906" x1="2699.46" y1="219.504" x2="2762.72" y2="1013.98" gradientUnits="userSpaceOnUse">
<stop stop-color="#C4E1F9"/>
<stop offset="0.5" stop-color="#959DB1"/>
<stop offset="1" stop-color="#6A95BB"/>
</linearGradient>
<linearGradient id="paint33_linear_248_33906" x1="571.002" y1="280.92" x2="471.102" y2="1083.55" gradientUnits="userSpaceOnUse">
<stop stop-color="#C4E1F9"/>
<stop offset="0.5" stop-color="#959DB1"/>
<stop offset="1" stop-color="#6A95BB"/>
</linearGradient>
<linearGradient id="paint34_linear_248_33906" x1="571.002" y1="302.279" x2="471.102" y2="1104.91" gradientUnits="userSpaceOnUse">
<stop stop-color="#C4E1F9"/>
<stop offset="0.5" stop-color="#959DB1"/>
<stop offset="1" stop-color="#6A95BB"/>
</linearGradient>
<linearGradient id="paint35_linear_248_33906" x1="969.332" y1="223.317" x2="869.432" y2="1025.95" gradientUnits="userSpaceOnUse">
<stop stop-color="#C4E1F9"/>
<stop offset="0.5" stop-color="#959DB1"/>
<stop offset="1" stop-color="#6A95BB"/>
</linearGradient>
<linearGradient id="paint36_linear_248_33906" x1="1248.03" y1="283.186" x2="1148.13" y2="1085.82" gradientUnits="userSpaceOnUse">
<stop stop-color="#C4E1F9"/>
<stop offset="0.5" stop-color="#959DB1"/>
<stop offset="1" stop-color="#6A95BB"/>
</linearGradient>
<linearGradient id="paint37_linear_248_33906" x1="2743.87" y1="268.264" x2="2670.44" y2="1064.7" gradientUnits="userSpaceOnUse">
<stop stop-color="#C4E1F9"/>
<stop offset="0.5" stop-color="#959DB1"/>
<stop offset="1" stop-color="#6A95BB"/>
</linearGradient>
<linearGradient id="paint38_linear_248_33906" x1="3790.03" y1="191.977" x2="3758.7" y2="982.026" gradientUnits="userSpaceOnUse">
<stop stop-color="#C4E1F9"/>
<stop offset="0.5" stop-color="#959DB1"/>
<stop offset="1" stop-color="#6A95BB"/>
</linearGradient>
<linearGradient id="paint39_linear_248_33906" x1="3938.22" y1="187.124" x2="3906.89" y2="977.172" gradientUnits="userSpaceOnUse">
<stop stop-color="#C4E1F9"/>
<stop offset="0.5" stop-color="#959DB1"/>
<stop offset="1" stop-color="#6A95BB"/>
</linearGradient>
<linearGradient id="paint40_linear_248_33906" x1="4301.87" y1="243.432" x2="4270.54" y2="1033.48" gradientUnits="userSpaceOnUse">
<stop stop-color="#C4E1F9"/>
<stop offset="0.5" stop-color="#959DB1"/>
<stop offset="1" stop-color="#6A95BB"/>
</linearGradient>
<linearGradient id="paint41_linear_248_33906" x1="4407.24" y1="191.977" x2="4375.91" y2="982.026" gradientUnits="userSpaceOnUse">
<stop stop-color="#C4E1F9"/>
<stop offset="0.5" stop-color="#959DB1"/>
<stop offset="1" stop-color="#6A95BB"/>
</linearGradient>
<linearGradient id="paint42_linear_248_33906" x1="3342.76" y1="173.208" x2="3311.44" y2="963.257" gradientUnits="userSpaceOnUse">
<stop stop-color="#C4E1F9"/>
<stop offset="0.5" stop-color="#959DB1"/>
<stop offset="1" stop-color="#6A95BB"/>
</linearGradient>
<linearGradient id="paint43_linear_248_33906" x1="2793.24" y1="229.115" x2="2769.24" y2="1028.25" gradientUnits="userSpaceOnUse">
<stop stop-color="#C4E1F9"/>
<stop offset="0.5" stop-color="#959DB1"/>
<stop offset="1" stop-color="#6A95BB"/>
</linearGradient>
<linearGradient id="paint44_linear_248_33906" x1="1668.91" y1="218.113" x2="1609.32" y2="1044.59" gradientUnits="userSpaceOnUse">
<stop stop-color="#C4E1F9"/>
<stop offset="0.5" stop-color="#959DB1"/>
<stop offset="1" stop-color="#6A95BB"/>
</linearGradient>
<linearGradient id="paint45_linear_248_33906" x1="219.059" y1="225.906" x2="81.2741" y2="1063.28" gradientUnits="userSpaceOnUse">
<stop stop-color="#C4E1F9"/>
<stop offset="0.5" stop-color="#959DB1"/>
<stop offset="1" stop-color="#6A95BB"/>
</linearGradient>
<linearGradient id="paint46_linear_248_33906" x1="384.773" y1="363.287" x2="211.382" y2="1117" gradientUnits="userSpaceOnUse">
<stop stop-color="#C4E1F9"/>
<stop offset="0.5" stop-color="#959DB1"/>
<stop offset="1" stop-color="#6A95BB"/>
</linearGradient>
<linearGradient id="paint47_linear_248_33906" x1="216.353" y1="220.95" x2="263.413" y2="939.15" gradientUnits="userSpaceOnUse">
<stop stop-color="#C4E1F9"/>
<stop offset="0.5" stop-color="#959DB1"/>
<stop offset="1" stop-color="#6A95BB"/>
</linearGradient>
<linearGradient id="paint48_linear_248_33906" x1="2794.76" y1="300.445" x2="2897.51" y2="1031.07" gradientUnits="userSpaceOnUse">
<stop stop-color="#C4E1F9"/>
<stop offset="0.5" stop-color="#959DB1"/>
<stop offset="1" stop-color="#6A95BB"/>
</linearGradient>
<linearGradient id="paint49_linear_248_33906" x1="3764.51" y1="257.132" x2="3905.34" y2="999.592" gradientUnits="userSpaceOnUse">
<stop stop-color="#C4E1F9"/>
<stop offset="0.5" stop-color="#959DB1"/>
<stop offset="1" stop-color="#6A95BB"/>
</linearGradient>
<linearGradient id="paint50_linear_248_33906" x1="1959.02" y1="286.899" x2="1840.79" y2="1022.1" gradientUnits="userSpaceOnUse">
<stop stop-color="#C4E1F9"/>
<stop offset="0.5" stop-color="#959DB1"/>
<stop offset="1" stop-color="#6A95BB"/>
</linearGradient>
<linearGradient id="paint51_linear_248_33906" x1="2167.35" y1="252.832" x2="2261.57" y2="981.105" gradientUnits="userSpaceOnUse">
<stop stop-color="#C4E1F9"/>
<stop offset="0.5" stop-color="#959DB1"/>
<stop offset="1" stop-color="#6A95BB"/>
</linearGradient>
<linearGradient id="paint52_linear_248_33906" x1="2901.22" y1="237.638" x2="2877.21" y2="1036.77" gradientUnits="userSpaceOnUse">
<stop stop-color="#C4E1F9"/>
<stop offset="0.5" stop-color="#959DB1"/>
<stop offset="1" stop-color="#6A95BB"/>
</linearGradient>
<linearGradient id="paint53_linear_248_33906" x1="3154.99" y1="232.22" x2="3129.72" y2="1032.53" gradientUnits="userSpaceOnUse">
<stop stop-color="#C4E1F9"/>
<stop offset="0.5" stop-color="#959DB1"/>
<stop offset="1" stop-color="#6A95BB"/>
</linearGradient>
<linearGradient id="paint54_linear_248_33906" x1="1757.2" y1="507.713" x2="1804.6" y2="1022.76" gradientUnits="userSpaceOnUse">
<stop stop-color="#BBD9F1"/>
<stop offset="0.545" stop-color="#9BA9BF"/>
<stop offset="1" stop-color="#7198BB"/>
</linearGradient>
<linearGradient id="paint55_linear_248_33906" x1="1961.01" y1="558.559" x2="2016.71" y2="1074.03" gradientUnits="userSpaceOnUse">
<stop stop-color="#BBD9F1"/>
<stop offset="0.545" stop-color="#9BA9BF"/>
<stop offset="1" stop-color="#7198BB"/>
</linearGradient>
<linearGradient id="paint56_linear_248_33906" x1="2037.5" y1="477.743" x2="2109.57" y2="1068.75" gradientUnits="userSpaceOnUse">
<stop stop-color="#BBD9F1"/>
<stop offset="0.545" stop-color="#9BA9BF"/>
<stop offset="1" stop-color="#7198BB"/>
</linearGradient>
<linearGradient id="paint57_linear_248_33906" x1="1379.17" y1="502.933" x2="1451.23" y2="1093.94" gradientUnits="userSpaceOnUse">
<stop stop-color="#BBD9F1"/>
<stop offset="0.545" stop-color="#9BA9BF"/>
<stop offset="1" stop-color="#7198BB"/>
</linearGradient>
<linearGradient id="paint58_linear_248_33906" x1="951.683" y1="483.451" x2="991.306" y2="1072.86" gradientUnits="userSpaceOnUse">
<stop stop-color="#BBD9F1"/>
<stop offset="0.545" stop-color="#9BA9BF"/>
<stop offset="1" stop-color="#7198BB"/>
</linearGradient>
<linearGradient id="paint59_linear_248_33906" x1="1646.84" y1="453.714" x2="1715.08" y2="1074.32" gradientUnits="userSpaceOnUse">
<stop stop-color="#BBD9F1"/>
<stop offset="0.545" stop-color="#9BA9BF"/>
<stop offset="1" stop-color="#7198BB"/>
</linearGradient>
<linearGradient id="paint60_linear_248_33906" x1="2850.04" y1="534.214" x2="2795.91" y2="1078.07" gradientUnits="userSpaceOnUse">
<stop stop-color="#BBD9F1"/>
<stop offset="0.545" stop-color="#9BA9BF"/>
<stop offset="1" stop-color="#7198BB"/>
</linearGradient>
<linearGradient id="paint61_linear_248_33906" x1="3041.35" y1="493.419" x2="2982.84" y2="1062.09" gradientUnits="userSpaceOnUse">
<stop stop-color="#BBD9F1"/>
<stop offset="0.545" stop-color="#9BA9BF"/>
<stop offset="1" stop-color="#7198BB"/>
</linearGradient>
<linearGradient id="paint62_linear_248_33906" x1="3560.92" y1="466.445" x2="3491.55" y2="1092.85" gradientUnits="userSpaceOnUse">
<stop stop-color="#BBD9F1"/>
<stop offset="0.545" stop-color="#9BA9BF"/>
<stop offset="1" stop-color="#7198BB"/>
</linearGradient>
<linearGradient id="paint63_linear_248_33906" x1="3631.62" y1="478.601" x2="3557.18" y2="1102.28" gradientUnits="userSpaceOnUse">
<stop stop-color="#BBD9F1"/>
<stop offset="0.545" stop-color="#9BA9BF"/>
<stop offset="1" stop-color="#7198BB"/>
</linearGradient>
<linearGradient id="paint64_linear_248_33906" x1="3965.01" y1="461.553" x2="3911.73" y2="1084.11" gradientUnits="userSpaceOnUse">
<stop stop-color="#BBD9F1"/>
<stop offset="0.545" stop-color="#9BA9BF"/>
<stop offset="1" stop-color="#7198BB"/>
</linearGradient>
<linearGradient id="paint65_linear_248_33906" x1="4028.72" y1="349.975" x2="3950.95" y2="1088.59" gradientUnits="userSpaceOnUse">
<stop stop-color="#BBD9F1"/>
<stop offset="0.545" stop-color="#9BA9BF"/>
<stop offset="1" stop-color="#7198BB"/>
</linearGradient>
<linearGradient id="paint66_linear_248_33906" x1="4081.69" y1="353.123" x2="4003.91" y2="1091.74" gradientUnits="userSpaceOnUse">
<stop stop-color="#BBD9F1"/>
<stop offset="0.545" stop-color="#9BA9BF"/>
<stop offset="1" stop-color="#7198BB"/>
</linearGradient>
<linearGradient id="paint67_linear_248_33906" x1="4231.94" y1="353.648" x2="4172.59" y2="1091.36" gradientUnits="userSpaceOnUse">
<stop stop-color="#BBD9F1"/>
<stop offset="0.545" stop-color="#9BA9BF"/>
<stop offset="1" stop-color="#7198BB"/>
</linearGradient>
<linearGradient id="paint68_linear_248_33906" x1="4329.12" y1="432.306" x2="4269.76" y2="1170.02" gradientUnits="userSpaceOnUse">
<stop stop-color="#BBD9F1"/>
<stop offset="0.545" stop-color="#9BA9BF"/>
<stop offset="1" stop-color="#7198BB"/>
</linearGradient>
<linearGradient id="paint69_linear_248_33906" x1="3804.21" y1="496.909" x2="3773.27" y2="1074.71" gradientUnits="userSpaceOnUse">
<stop stop-color="#BBD9F1"/>
<stop offset="0.545" stop-color="#9BA9BF"/>
<stop offset="1" stop-color="#7198BB"/>
</linearGradient>
<linearGradient id="paint70_linear_248_33906" x1="769.917" y1="505.878" x2="809.601" y2="1095.29" gradientUnits="userSpaceOnUse">
<stop stop-color="#BBD9F1"/>
<stop offset="0.545" stop-color="#9BA9BF"/>
<stop offset="1" stop-color="#7198BB"/>
</linearGradient>
</defs>
</svg>
