<svg width="4600" height="1885" viewBox="0 0 4600 1885" fill="none" xmlns="http://www.w3.org/2000/svg">
<path d="M132.393 220.408L0 251.91V1919H4999.79L5249 401.544H5202.27L5116.61 440.922L5046.52 519.677H4999.79V551.179L4937.49 590.556L4898.55 551.179H4867.4L4844.03 590.556L4750.58 551.179L4672.7 519.677H4594.82L4532.52 551.179H4485.79L4423.49 519.677L4392.34 496.05H4259.95L4205.43 440.922L4150.92 401.544L4135.34 362.167H4065.25H3987.37L3948.43 283.412L3878.34 220.408L3831.61 188.906V157.404L3777.1 110.151L3668.07 141.653L3582.4 70.7738L3535.68 86.5247L3496.74 102.276L3442.22 133.778L3403.28 141.653L3356.56 157.404L3309.83 133.778L3239.74 70.7738L3231.95 55.0228L3208.59 70.7738L3193.01 23.5209L3177.44 7.76989C3177.44 23.5209 2938.58 55.0228 2881.5 0V39.2718L2858.14 78.6493L2834.77 110.151H2819.2H2795.83L2788.04 141.653L2764.68 188.906L2717.95 228.283H2624.5L2546.62 299.163L2531.05 307.038H2453.17L2429.8 330.665H2375.29L2367.5 314.914L2305.2 283.412V267.661H2242.9L2219.53 283.412L2157.23 307.038L2141.65 267.661L2071.56 283.412V267.661H2001.47L1978.11 251.91L1861.29 283.412L1830.14 314.914H1643.23L1565.35 251.91L1526.42 220.408L1401.81 188.906L1370.66 125.902L1269.42 157.404H1246.05L1152.6 125.902L942.328 251.91L693.117 267.661H552.936L459.482 283.412V267.661H420.543L404.967 251.91L366.028 283.412L210.271 220.408H132.393Z" fill="url(#paint0_linear_248_33819)" fill-opacity="0.6"/>
<defs>
<linearGradient id="paint0_linear_248_33819" x1="2398.91" y1="0" x2="2398.91" y2="1936.16" gradientUnits="userSpaceOnUse">
<stop stop-color="#A5C2DA"/>
<stop offset="1" stop-color="#4E657D"/>
</linearGradient>
</defs>
</svg>
