<svg width="4682" height="1378" viewBox="0 0 4682 1378" fill="none" xmlns="http://www.w3.org/2000/svg">
<rect x="36.0674" y="376.003" width="4437.39" height="1170.58" fill="#BACFCA"/>
<path d="M1679.86 0.0488281H1725.43L1768.31 10.0018L1811.2 29.9077L1827.28 42.3489L1838 37.3724L1864.81 27.4195H1905.01L1931.82 37.3724L1947.9 47.3254H1982.74L2014.91 54.7901L2044.39 74.696L2060.47 97.0902L2063.15 109.531L2076.56 112.02L2098 119.484L2103.36 107.043L2127.48 87.1372L2148.93 79.6725L2178.41 77.1843L2197.17 62.2548L2218.61 54.7901L2245.42 57.2783L2261.5 67.2313L2274.9 79.6725H2299.03L2328.51 89.6255L2349.95 107.043L2360.67 124.461L2368.72 146.855L2390.16 136.902L2419.64 134.414L2446.45 141.878L2467.89 159.296L2475.93 174.226L2489.33 144.367L2500.05 129.437L2521.5 109.531L2550.98 97.0902L2559.02 94.6019H2604.59L2634.07 104.555L2660.88 124.461L2666.24 131.926L2698.4 141.878L2725.2 156.808L2741.29 169.249L2757.37 166.761H2792.21L2805.62 146.855L2827.06 129.437L2851.18 121.973H2872.62L2902.11 131.926L2918.19 144.367L2931.59 164.273L2939.63 181.69L2961.08 199.108L2974.48 216.526L2977.16 223.99L3003.96 228.967L3025.41 241.408L3041.49 261.314L3049.53 288.685L3068.29 303.614L3076.33 321.032V345.914L3065.61 368.308L3057.57 378.261L1125.02 380.749L1119.66 375.773L1122.34 348.402L1138.43 323.52L1162.55 308.591L1178.63 303.614H1197.39L1205.44 306.102V286.196L1218.84 248.873L1237.6 221.502L1261.72 196.62L1293.89 174.226L1304.61 171.737L1307.29 166.761L1352.86 151.831L1382.34 146.855H1457.39L1486.87 136.902L1513.68 131.926L1532.44 92.1137L1548.52 69.7195L1572.65 44.8371L1602.13 24.9312L1634.29 10.0018L1679.86 0.0488281Z" fill="url(#paint0_linear_248_33727)"/>
<path d="M376.008 70.3027H421.575L464.461 80.2557L507.346 100.162L523.429 112.603L534.15 107.626L560.954 97.6734H601.159L627.963 107.626L644.045 117.579H678.89L711.054 125.044L740.538 144.95L756.621 167.344L759.301 179.785L772.703 182.274L794.146 189.738L799.506 177.297L823.63 157.391L845.073 149.926L874.557 147.438L893.319 132.509L914.762 125.044L941.566 127.532L957.648 137.485L971.05 149.926H995.173L1024.66 159.879L1046.1 177.297L1056.82 194.715L1064.86 217.109L1086.31 207.156L1115.79 204.668L1142.59 212.132L1164.04 229.55L1172.08 244.48L1185.48 214.621L1196.2 199.691L1217.64 179.785L1247.13 167.344L1255.17 164.856H1300.74L1330.22 174.809L1357.02 194.715L1362.38 202.179L1394.55 212.132L1421.35 227.062L1437.43 239.503L1453.52 237.015H1488.36L1501.76 217.109L1523.21 199.691L1547.33 192.226H1568.77L1598.26 202.179L1614.34 214.621L1627.74 234.527L1635.78 251.944L1657.22 269.362L1670.63 286.78L1673.31 294.244L1700.11 299.221L1721.55 311.662L1737.64 331.568L1745.68 358.939L1764.44 373.868L1772.48 391.286V416.168L1761.76 438.562L1753.72 448.515L-178.828 451.003L-184.188 446.027L-181.508 418.656L-165.426 393.774L-141.303 378.844L-125.22 373.868H-106.458L-98.4167 376.356V356.45L-85.0149 319.127L-66.2523 291.756L-42.129 266.874L-9.96458 244.48L0.756895 241.991L3.43726 237.015L49.0035 222.085L78.4876 217.109H153.538L183.022 207.156L209.826 202.179L228.588 162.368L244.67 139.973L268.794 115.091L298.278 95.1851L330.442 80.2557L376.008 70.3027Z" fill="url(#paint1_linear_248_33727)"/>
<path d="M3413.07 130.113H3458.64L3501.52 140.066L3544.41 159.972L3560.49 172.413L3571.21 167.437L3598.02 157.484H3638.22L3665.02 167.437L3681.11 177.39H3715.95L3748.12 184.855L3777.6 204.76L3793.68 227.155L3796.36 239.596L3809.76 242.084L3831.21 249.549L3836.57 237.108L3860.69 217.202L3882.13 209.737L3911.62 207.249L3930.38 192.319L3951.82 184.855L3978.63 187.343L3994.71 197.296L4008.11 209.737H4032.23L4061.72 219.69L4083.16 237.108L4093.88 254.525L4101.92 276.919L4123.37 266.966L4152.85 264.478L4179.66 271.943L4201.1 289.361L4209.14 304.29L4222.54 274.431L4233.26 259.502L4254.71 239.596L4284.19 227.155L4292.23 224.666H4337.8L4367.28 234.619L4394.08 254.525L4399.45 261.99L4431.61 271.943L4458.41 286.872L4474.5 299.314L4490.58 296.825H4525.42L4538.82 276.919L4560.27 259.502L4584.39 252.037H4605.83L4635.32 261.99L4651.4 274.431L4664.8 294.337L4672.84 311.755L4694.29 329.172L4707.69 346.59L4710.37 354.055L4737.17 359.031L4758.61 371.473L4774.7 391.378L4782.74 418.749L4801.5 433.679L4809.54 451.096V475.979L4798.82 498.373L4790.78 508.326L2858.23 510.814L2852.87 505.837L2855.55 478.467L2871.64 453.584L2895.76 438.655L2911.84 433.679H2930.6L2938.64 436.167V416.261L2952.05 378.937L2970.81 351.567L2994.93 326.684L3027.1 304.29L3037.82 301.802L3040.5 296.825L3086.07 281.896L3115.55 276.919H3190.6L3220.08 266.966L3246.89 261.99L3265.65 222.178L3281.73 199.784L3305.86 174.902L3335.34 154.996L3367.5 140.066L3413.07 130.113Z" fill="url(#paint2_linear_248_33727)"/>
<defs>
<linearGradient id="paint0_linear_248_33727" x1="2042.1" y1="22.8339" x2="2042.1" y2="380.749" gradientUnits="userSpaceOnUse">
<stop stop-color="#D7E2D2"/>
<stop offset="1" stop-color="#BACFCA"/>
</linearGradient>
<linearGradient id="paint1_linear_248_33727" x1="738.251" y1="93.0878" x2="738.251" y2="451.003" gradientUnits="userSpaceOnUse">
<stop stop-color="#D7E2D2"/>
<stop offset="1" stop-color="#BACFCA"/>
</linearGradient>
<linearGradient id="paint2_linear_248_33727" x1="3775.31" y1="152.898" x2="3775.31" y2="510.814" gradientUnits="userSpaceOnUse">
<stop stop-color="#D7E2D2"/>
<stop offset="1" stop-color="#BACFCA"/>
</linearGradient>
</defs>
</svg>
