<svg width="4682" height="1810" viewBox="0 0 4682 1810" fill="none" xmlns="http://www.w3.org/2000/svg">
<rect x="-93.0479" y="1558.01" width="4724.11" height="396.84" fill="#2B352D"/>
<path d="M3071.62 1461.17L3105.41 1470.85V1597.89H844.937V1505.94H882.104L926.03 1490.21H963.198L1003.74 1497.47L1040.91 1495.05L1064.56 1501.1H1098.35H1142.28L1203.1 1505.94L1243.64 1497.47H1294.33L1355.15 1501.1L1422.72 1497.47H1493.68L1520.71 1490.21L1581.53 1485.37L1615.32 1490.21L1649.11 1485.37L1672.76 1480.53L1730.2 1485.37L1811.3 1478.11L1882.25 1480.53H1912.66L1976.86 1478.11L2061.33 1480.53H2135.67L2213.38 1490.21H2301.23H2318.13H2389.08L2470.18 1497.47H2490.45L2510.72 1490.21L2547.89 1504.73L2608.71 1516.83L2635.74 1510.78L2659.39 1490.21H2686.43H2730.35L2879.02 1470.85H2916.19L2973.63 1461.17L3027.69 1470.85L3071.62 1461.17Z" fill="#2B352D"/>
<path d="M170.332 352.314H178.828V370.667L191.572 366.079L187.324 402.783L204.316 393.607V411.959H195.82V434.899L212.812 430.311L208.564 448.663L191.572 476.191L217.06 480.779L212.812 503.719H204.316V512.895H195.82V526.659L225.556 531.247L229.804 549.6L208.564 558.776L212.812 567.952L238.301 563.364L251.045 558.776L255.293 586.304L234.052 600.068L225.556 618.42H208.564L204.316 641.36L242.549 636.772L263.789 632.184V623.008H272.285V641.36H263.789V659.712H255.293V678.064L263.789 682.652L246.797 687.24L225.556 696.416L212.812 714.768L229.804 719.356V728.532H242.549V742.297H293.525L297.773 751.473L289.277 769.825L259.541 788.177H225.556L234.052 806.529L259.541 829.469L276.533 824.881L280.781 815.705H289.277L293.525 824.881L327.509 834.057L323.261 847.821H302.021L293.525 870.761L268.037 884.525L246.797 889.113L255.293 921.23L285.029 925.818L289.277 916.641H297.773L306.269 925.818L323.261 907.465H331.757L336.005 921.23L344.502 925.818V934.994H331.757L327.509 962.522L314.765 967.11L306.269 980.874L276.533 985.462V999.226L263.789 1003.81V1012.99L289.277 1022.17L293.525 1045.11L285.029 1063.46L302.021 1058.87L319.013 1063.46L314.765 1081.81L331.757 1068.05H340.254L344.502 1077.22L365.742 1086.4L352.998 1068.05V1054.28H395.478L391.23 1035.93H365.742L361.494 1026.75L365.742 1017.58H348.75V1008.4H357.246V999.226H348.75L352.998 980.874L386.982 990.05L382.734 967.11L374.238 953.346L382.734 944.17H399.726V934.994H408.222V925.818L386.982 916.641L382.734 898.289L408.222 893.701L412.47 879.937H399.726V870.761L408.222 866.173V843.233H450.703L442.207 861.585L433.71 875.349L450.703 870.761L446.455 889.113L467.695 875.349V898.289L454.951 916.641H467.695V925.818H484.687L480.439 939.582L459.199 962.522H450.703L454.951 976.286L488.935 980.874L484.687 1012.99L459.199 1017.58L450.703 1035.93H459.199V1045.11H484.687L488.935 1049.69L484.687 1081.81L450.703 1100.16V1109.34L467.695 1123.1V1132.28L493.183 1127.69H510.175V1118.51H497.431L493.183 1100.16L501.679 1086.4L522.919 1095.57L539.911 1090.99L544.16 1077.22H552.656L561.152 1054.28L522.919 1058.87L510.175 1045.11L493.183 1035.93L497.431 1022.17L518.671 1026.75L514.423 1003.81H531.415L552.656 1012.99L569.648 1008.4L565.4 994.638L552.656 990.05L548.408 971.698L565.4 953.346L578.144 948.758L582.392 934.994L565.4 930.406L561.152 925.818H522.919V916.641H539.911L535.663 889.113L582.392 884.525L595.136 856.997L569.648 861.585V843.233L552.656 847.821L539.911 843.233L535.663 824.881L522.919 820.293L527.167 811.117H548.408L561.152 801.941H590.888L607.88 797.353L603.632 779.001L582.392 769.825L586.64 760.649H603.632V742.297L578.144 746.885L569.648 723.944L552.656 719.356L544.16 710.18L565.4 705.592H586.64V696.416L607.88 691.828L616.376 678.064V664.3L578.144 641.36V632.184H607.88L616.376 623.008L620.624 604.656H599.384L603.632 586.304L624.872 590.892L620.624 572.54L612.128 567.952V558.776H633.368V549.6L624.872 545.011L641.864 540.423L637.616 522.071H646.113V480.779H654.609V512.895H667.353L663.105 540.423H671.601V531.247H680.097L671.601 558.776L663.105 572.54L684.345 563.364H701.337L697.089 586.304L684.345 609.244H675.849L684.345 627.596L680.097 659.712H718.329V678.064H709.833L714.081 696.416H688.593L684.345 714.768L705.585 728.532L739.569 733.12L735.321 751.473L709.833 769.825L680.097 779.001L688.593 797.353L705.585 815.705H697.089V843.233L735.321 838.645V847.821L756.562 834.057L765.058 838.645L752.314 866.173V889.113L722.577 893.701L718.329 898.289H697.089L701.337 916.641L697.089 925.818L735.321 921.23V934.994L756.562 930.406L752.314 948.758L735.321 957.934H722.577L718.329 980.874L752.314 971.698L765.058 980.874L760.81 957.934H777.802L799.042 962.522V953.346H807.538V944.17H790.546L786.298 925.818L777.802 902.877H807.538L811.786 898.289H833.026L824.53 879.937L811.786 875.349L799.042 861.585V852.409H790.546V843.233H816.034L824.53 847.821V834.057L845.77 838.645V815.705L824.53 806.529V797.353H816.034V788.177H858.515L850.019 769.825L854.267 765.237L824.53 751.473V723.944L858.515 733.12V714.768H875.507L867.011 701.004L862.763 678.064L850.019 668.888V650.536L871.259 659.712L879.755 664.3L867.011 632.184V613.832H879.755L884.003 572.54H892.499L896.747 613.832H909.491V604.656H917.987L913.739 627.596L905.243 641.36H896.747L905.243 659.712L922.235 655.124L917.987 682.652L900.995 710.18L922.235 705.592V714.768H913.739L909.491 733.12L900.995 751.473L922.235 742.297H934.979L930.731 765.237L922.235 779.001L917.987 806.529L943.475 792.765H951.972L947.723 815.705L943.475 843.233H926.483V852.409H917.987V861.585L994.452 856.997L990.204 875.349L985.956 889.113L964.716 893.701L960.468 907.465L947.723 916.641H917.987V925.818H934.979V934.994H943.475V944.17H956.22L951.972 980.874H934.979V990.05H913.739L926.483 1008.4H947.723L960.468 1012.99L981.708 1008.4L994.452 1031.34V1045.11L968.964 1054.28V1063.46L947.723 1068.05L968.964 1072.63V1081.81H960.468V1090.99L926.483 1100.16V1109.34H956.22H973.212L985.956 1127.69H1024.19L1019.94 1141.45L990.204 1150.63L994.452 1173.57L964.716 1182.75L943.475 1187.33L934.979 1182.75V1201.1L951.972 1205.69L990.204 1210.28H1019.94L1015.69 1242.39L998.7 1256.16L968.964 1265.33L960.468 1269.92L951.972 1265.33L960.468 1288.27L985.956 1292.86L981.708 1306.62L964.716 1315.8V1329.56L973.212 1334.15L1019.94 1338.74V1347.92L1036.93 1343.33L1028.44 1324.98L1011.44 1320.39L1007.2 1302.04H1036.93L1041.18 1283.68H1019.94L1028.44 1265.33L1045.43 1256.16L1070.92 1251.57L1066.67 1242.39L1036.93 1237.8V1210.28L1041.18 1201.1L1024.19 1196.51L1015.69 1173.57L1045.43 1168.98L1075.16 1173.57L1070.92 1159.81L1062.42 1155.22V1146.04L1083.66 1136.87L1087.91 1127.69H1096.4V1118.51L1070.92 1123.1L1036.93 1090.99L1041.18 1081.81L1096.4 1077.22L1109.15 1068.05L1113.4 1054.28H1087.91L1079.41 1031.34L1070.92 1026.75V1017.58L1092.16 1022.17L1117.65 1017.58V1008.4H1104.9V980.874H1126.14L1117.65 967.11L1104.9 962.522V953.346L1117.65 948.758V921.23L1126.14 912.053L1134.64 893.701L1147.38 930.406L1164.37 934.994L1155.88 953.346L1147.38 957.934L1151.63 985.462L1164.37 980.874L1160.13 1003.81L1151.63 1012.99L1155.88 1031.34L1177.12 1026.75L1194.11 1022.17L1189.86 1063.46L1172.87 1058.87L1168.62 1072.63H1155.88L1151.63 1086.4L1172.87 1090.99V1104.75L1155.88 1113.93L1164.37 1123.1L1189.86 1118.51L1194.11 1127.69L1185.61 1146.04V1173.57L1160.13 1182.75L1155.88 1191.92L1181.37 1196.51L1211.1 1187.33L1232.34 1182.75L1236.59 1196.51L1249.33 1201.1V1210.28H1232.34L1228.09 1228.63L1223.85 1242.39L1202.61 1233.22L1198.36 1242.39L1172.87 1246.98V1265.33H1189.86V1274.51L1211.1 1269.92L1232.34 1274.51L1249.33 1279.1L1240.84 1283.68L1236.59 1302.04H1223.85V1311.21H1232.34L1228.09 1324.98L1215.35 1320.39V1329.56L1189.86 1320.39L1194.11 1334.15L1206.85 1343.33L1232.34 1338.74L1249.33 1347.92L1279.07 1343.33L1270.57 1366.27L1266.33 1393.8L1249.33 1402.97L1223.85 1398.38V1412.15H1202.61L1206.85 1430.5L1249.33 1435.09L1253.58 1444.26L1300.31 1439.68L1296.06 1467.2H1287.57L1291.81 1485.56H1300.31V1494.73L1274.82 1499.32L1249.33 1490.14L1228.09 1494.73L1236.59 1517.67L1279.07 1513.08L1308.81 1522.26L1304.56 1545.2L1283.32 1558.96H1274.82L1270.57 1577.32L1257.83 1572.73V1563.55H1249.33L1245.09 1577.32L1228.09 1586.49H-704.765L-738.749 1568.14L-759.989 1563.55V1554.38L-742.997 1545.2L-721.757 1540.61L-709.013 1531.44L-713.261 1517.67H-747.245L-759.989 1476.38L-751.493 1471.79L-734.501 1480.97H-696.269L-687.773 1485.56L-692.021 1471.79L-704.765 1462.62L-730.253 1453.44V1439.68H-738.749V1430.5H-700.517L-696.269 1416.74H-675.028L-670.78 1402.97H-692.021L-696.269 1389.21L-717.509 1384.62V1375.44H-687.773V1366.27L-709.013 1361.68V1347.92L-670.78 1338.74V1320.39L-687.773 1324.98L-692.021 1315.8L-709.013 1306.62L-704.765 1292.86L-670.78 1288.27V1279.1L-679.276 1274.51L-675.028 1256.16L-696.269 1260.74V1237.8L-666.532 1228.63V1224.04L-687.773 1219.45L-683.525 1201.1H-670.78L-679.276 1168.98L-662.284 1164.39V1146.04H-653.788V1173.57H-645.292V1182.75H-653.788V1191.92H-641.044L-649.54 1219.45L-628.3 1214.86L-641.044 1242.39L-653.788 1256.16L-632.548 1260.74V1269.92L-619.804 1274.51L-624.052 1283.68L-641.044 1292.86L-628.3 1306.62V1320.39H-607.06L-611.308 1338.74L-581.572 1334.15L-560.331 1311.21L-556.083 1302.04L-560.331 1279.1L-585.82 1269.92L-590.068 1256.16L-551.835 1233.22L-547.587 1219.45L-539.091 1214.86L-534.843 1196.51L-568.827 1201.1L-577.323 1224.04H-585.82V1214.86L-607.06 1210.28V1191.92H-624.052L-628.3 1168.98L-632.548 1155.22H-619.804V1164.39H-577.323L-543.339 1146.04H-534.843V1127.69H-556.083L-560.331 1136.87H-568.827V1127.69H-598.564V1118.51H-585.82V1100.16L-534.843 1095.57L-526.347 1068.05L-534.843 1072.63H-564.579L-581.572 1058.87L-577.323 1045.11L-539.091 1040.52L-517.851 1031.34V1003.81L-543.339 1008.4H-556.083L-577.323 985.462L-573.075 967.11L-556.083 962.522H-539.091L-509.355 957.934V939.582L-534.843 930.406L-543.339 925.818V912.053L-505.107 902.877L-492.363 879.937L-509.355 875.349L-517.851 870.761V861.585H-500.859L-517.851 843.233L-522.099 852.409L-526.347 847.821V824.881L-543.339 820.293L-547.587 806.529L-517.851 811.117L-483.867 806.529V788.177L-500.859 783.589L-509.355 779.001V760.649H-483.867V733.12L-496.611 728.532L-500.859 705.592L-479.619 714.768L-483.867 687.24H-492.363V678.064H-479.619L-483.867 650.536H-475.37V627.596H-466.874L-462.626 650.536L-466.874 659.712L-454.13 664.3L-458.378 678.064H-449.882L-458.378 705.592H-441.386L-449.882 723.944L-458.378 742.297H-449.882V751.473L-432.89 746.885L-441.386 769.825H-458.378L-449.882 788.177V806.529H-424.394L-432.89 824.881H-441.386L-432.89 843.233H-407.402L-415.898 861.585L-449.882 879.937L-454.13 889.113H-432.89H-420.146L-407.402 893.701L-411.65 912.053L-424.394 921.23V939.582L-415.898 944.17V953.346L-424.394 957.934V980.874H-403.154L-377.666 990.05V999.226H-398.906V1008.4H-407.402V1017.58L-428.642 1026.75L-432.89 1035.93L-411.65 1040.52L-343.681 1054.28L-356.425 1072.63H-364.921L-369.169 1090.99L-390.41 1100.16L-407.402 1090.99V1100.16L-415.898 1104.75L-407.402 1127.69L-356.425 1136.87L-352.177 1155.22L-369.169 1173.57L-398.906 1182.75L-420.146 1191.92L-424.394 1201.1L-386.162 1210.28H-330.937L-335.185 1228.63L-339.433 1237.8L-352.177 1242.39L-356.425 1260.74L-403.154 1274.51V1288.27L-390.41 1283.68H-347.929L-330.937 1279.1L-335.185 1297.45L-343.681 1311.21L-360.673 1320.39L-364.921 1338.74L-373.417 1343.33L-377.666 1357.09L-339.433 1352.5V1343.33L-322.441 1347.92V1357.09L-305.449 1361.68V1375.44H-326.689L-322.441 1393.8H-339.433V1412.15H-347.929V1421.32L-313.945 1416.74V1398.38L-288.457 1393.8V1375.44H-262.968V1366.27H-271.464V1347.92L-288.457 1338.74V1329.56H-254.472V1302.04H-267.216L-271.464 1279.1L-296.953 1288.27L-305.449 1283.68L-313.945 1246.98L-309.697 1228.63L-305.449 1233.22H-245.976V1214.86L-271.464 1205.69L-267.216 1191.92H-258.72V1182.75L-267.216 1178.16L-245.976 1164.39H-237.48V1146.04H-262.968V1123.1L-288.457 1118.51V1100.16L-267.216 1095.57L-250.224 1090.99H-241.728L-237.48 1081.81H-228.984V1072.63L-245.976 1068.05L-241.728 1045.11L-267.216 1031.34L-262.968 1017.58L-224.736 1008.4L-220.488 990.05H-237.48L-233.232 971.698L-216.24 967.11L-211.992 948.758H-228.984L-233.232 939.582L-254.472 934.994V925.818H-228.984V916.641H-237.48L-233.232 902.877L-207.744 898.289V889.113L-220.488 884.525L-216.24 866.173V856.997L-220.488 843.233H-203.496L-211.992 829.469V815.705L-190.752 806.529L-173.76 815.705L-178.008 843.233L-161.015 838.645L-165.263 861.585L-169.511 870.761H-161.015V879.937H-152.519L-161.015 907.465H-169.511L-161.015 925.818L-165.263 944.17L-152.519 953.346L-156.767 971.698L-161.015 985.462L-139.775 980.874L-144.023 999.226L-156.767 1017.58H-165.263V1026.75L-139.775 1035.93L-127.031 1054.28V1068.05L-131.279 1086.4L-118.535 1081.81V1072.63L-93.0467 1077.22L-84.5506 1058.87L-76.0546 1035.93L-97.2948 1040.52L-127.031 1026.75V1017.58H-97.2948V1008.4L-118.535 1003.81L-122.783 980.874L-93.0467 971.698L-76.0546 962.522L-71.8065 953.346H-80.3026L-93.0467 939.582L-110.039 944.17L-131.279 925.818V916.641L-80.3026 902.877V889.113L-97.2948 884.525L-105.791 861.585L-101.543 843.233H-71.8065L-76.0546 829.469L-105.791 811.117L-101.543 788.177L-59.0624 797.353L-63.3104 779.001H-76.0546V769.825H-54.8143L-59.0624 756.061L-76.0546 737.709L-71.8065 723.944H-59.0624L-63.3104 701.004H-46.3183L-42.0702 664.3L-33.5741 668.888V696.416L-12.3339 687.24L-20.83 723.944L0.410194 719.356L8.90628 742.297L-12.3339 751.473H-25.0781V760.649H-16.582V769.825H13.1543L8.90628 792.765L-12.3339 801.941L-8.08589 820.293L0.410194 824.881V843.233L-12.3339 847.821L-16.582 861.585H8.90628V852.409H34.3945L25.8984 870.761H17.4024L8.90628 898.289L34.3945 889.113L59.8828 879.937L72.6269 875.349L85.371 843.233H68.3789L64.1308 829.469L42.8906 824.881L30.1465 806.529V783.589H64.1308L93.8671 774.413L110.859 769.825V760.649L93.8671 756.061L89.6191 742.297L68.3789 733.12V723.944L85.371 719.356V696.416L119.355 701.004V682.652L85.371 664.3L93.8671 641.36L72.6269 636.772L68.3789 613.832L81.123 609.244L119.355 604.656V586.304L136.348 577.128L127.851 554.188L93.8671 549.6V540.423H102.363V531.247H93.8671L89.6191 517.483L140.596 508.307L136.348 489.955L127.851 480.779L144.844 467.015V448.663L127.851 439.487V411.959L161.836 421.135V402.783H153.34V393.607H161.836L170.332 352.314ZM42.8906 925.818V934.994L21.6504 944.17L30.1465 962.522L42.8906 967.11L51.3867 990.05L64.1308 994.638V962.522L72.6269 944.17L68.3789 934.994L42.8906 925.818ZM786.298 994.638L782.05 1008.4L769.306 1003.81L739.569 1031.34L735.321 1040.52L722.577 1045.11L739.569 1072.63H726.825V1081.81L756.562 1086.4L773.554 1090.99V1100.16H765.058V1109.34H756.562V1127.69L739.569 1123.1V1146.04L760.81 1155.22L769.306 1173.57H782.05L786.298 1150.63H777.802V1136.87L799.042 1127.69V1100.16H807.538V1090.99H816.034V1077.22L807.538 1072.63H782.05V1049.69L769.306 1045.11L782.05 1035.93V1026.75H807.538L803.29 1003.81L786.298 994.638ZM42.8906 1008.4L38.6426 1022.17L25.8984 1026.75V1035.93L59.8828 1040.52L55.6347 1017.58L51.3867 1008.4H42.8906ZM306.269 1118.51L289.277 1127.69V1136.87H280.781L285.029 1150.63L302.021 1164.39L331.757 1168.98L340.254 1173.57L348.75 1132.28L340.254 1118.51H306.269ZM514.423 1150.63L510.175 1173.57L493.183 1182.75V1201.1H484.687V1210.28L501.679 1205.69L510.175 1201.1V1210.28L548.408 1205.69L552.656 1191.92H535.663V1173.57H527.167V1164.39H535.663V1155.22L514.423 1150.63ZM518.671 1242.39L510.175 1246.98L518.671 1265.33L539.911 1274.51L544.16 1265.33H535.663L531.415 1242.39H518.671ZM1028.44 1370.86L1007.2 1384.62L1002.95 1398.38L985.956 1393.8L990.204 1412.15L1019.94 1439.68L1028.44 1453.44L1036.93 1448.85V1430.5H1028.44V1421.32L1041.18 1425.91L1045.43 1393.8H1036.93V1370.86H1028.44Z" fill="#2B352D"/>
<path d="M-246.893 0.0820312H-236.472V22.5891L-220.841 16.9623L-226.051 61.9764L-205.209 50.7229V73.2299H-215.63V101.364L-194.788 95.7369L-199.998 118.244L-220.841 152.005L-189.577 157.631L-194.788 185.765H-205.209V197.019H-215.63V213.899L-179.156 219.526L-173.946 242.033L-199.998 253.286L-194.788 264.54L-163.525 258.913L-147.893 253.286L-142.683 287.047L-168.735 303.927L-179.156 326.434H-199.998L-205.209 354.568L-158.314 348.941L-132.262 343.314V332.061H-121.84V354.568H-132.262V377.075H-142.683V399.582L-132.262 405.209L-153.104 410.835L-179.156 422.089L-194.788 444.596L-173.946 450.223V461.476H-158.314V478.357H-95.7878L-90.5772 489.61L-100.998 512.117L-137.472 534.624H-179.156L-168.735 557.131L-137.472 585.265L-116.63 579.638L-111.419 568.385H-100.998L-95.7878 579.638L-54.1035 590.892L-59.314 607.772H-85.3667L-95.7878 635.906L-127.051 652.786L-153.104 658.413L-142.683 697.8L-106.209 703.427L-100.998 692.173H-90.5772L-80.1562 703.427L-59.314 680.92H-48.893L-43.6824 697.8L-33.2614 703.427V714.68H-48.893L-54.1035 748.441L-69.7351 754.068L-80.1562 770.948L-116.63 776.575V793.455L-132.262 799.082V810.335L-100.998 821.589L-95.7878 849.723L-106.209 872.23L-85.3667 866.603L-64.5246 872.23L-69.7351 894.737L-48.893 877.856H-38.4719L-33.2614 889.11L-7.20872 900.363L-22.8403 877.856V860.976H29.265L24.0545 838.469H-7.20872L-12.4193 827.216L-7.20872 815.962H-28.0508V804.709H-17.6298V793.455H-28.0508L-22.8403 770.948L18.8439 782.202L13.6334 754.068L3.21235 737.187L13.6334 725.934H34.4755V714.68H44.8966V703.427L18.8439 692.173L13.6334 669.666L44.8966 664.04L50.1071 647.159H34.4755V635.906L44.8966 630.279V602.145H97.0019L86.5809 624.652L76.1598 641.533L97.0019 635.906L91.7914 658.413L117.844 641.533V669.666L102.212 692.173H117.844V703.427H138.686L133.476 720.307L107.423 748.441H97.0019L102.212 765.321L143.897 770.948L138.686 810.335L107.423 815.962L97.0019 838.469H107.423V849.723H138.686L143.897 855.349L138.686 894.737L97.0019 917.244V928.497L117.844 945.378V956.631L149.107 951.004H169.949V939.751H154.318L149.107 917.244L159.528 900.363L185.581 911.617L206.423 905.99L211.634 889.11H222.055L232.476 860.976L185.581 866.603L169.949 849.723L149.107 838.469L154.318 821.589L180.37 827.216L175.16 799.082H196.002L222.055 810.335L242.897 804.709L237.686 787.828L222.055 782.202L216.844 759.695L237.686 737.187L253.318 731.561L258.528 714.68L237.686 709.054L232.476 703.427H185.581V692.173H206.423L201.213 658.413L258.528 652.786L274.16 619.026L242.897 624.652V602.145L222.055 607.772L206.423 602.145L201.213 579.638L185.581 574.011L190.792 562.758H216.844L232.476 551.504H268.95L289.792 545.878L284.581 523.371L258.528 512.117L263.739 500.864H284.581V478.357L253.318 483.983L242.897 455.85L222.055 450.223L211.634 438.969L237.686 433.342H263.739V422.089L289.792 416.462L300.213 399.582V382.702L253.318 354.568V343.314H289.792L300.213 332.061L305.423 309.554H279.371L284.581 287.047L310.634 292.674L305.423 270.166L295.002 264.54V253.286H321.055V242.033L310.634 236.406L331.476 230.779L326.265 208.272H336.686V157.631H347.108V197.019H362.739L357.529 230.779H367.95V219.526H378.371L367.95 253.286L357.529 270.166L383.581 258.913H404.423L399.213 287.047L383.581 315.181H373.16L383.581 337.688L378.371 377.075H425.266V399.582H414.844L420.055 422.089H388.792L383.581 444.596L409.634 461.476L451.318 467.103L446.108 489.61L414.844 512.117L378.371 523.371L388.792 545.878L409.634 568.385H399.213V602.145L446.108 596.518V607.772L472.16 590.892L482.581 596.518L466.95 630.279V658.413L430.476 664.04L425.266 669.666H399.213L404.423 692.173L399.213 703.427L446.108 697.8V714.68L472.16 709.054L466.95 731.561L446.108 742.814H430.476L425.266 770.948L466.95 759.695L482.581 770.948L477.371 742.814H498.213L524.266 748.441V737.187H534.687V725.934H513.845L508.634 703.427L498.213 675.293H534.687L539.897 669.666H565.95L555.529 647.159L539.897 641.533L524.266 624.652V613.399H513.845V602.145H545.108L555.529 607.772V590.892L581.582 596.518V568.385L555.529 557.131V545.878H545.108V534.624H597.213L586.792 512.117L592.003 506.49L555.529 489.61V455.85L597.213 467.103V444.596H618.055L607.634 427.716L602.424 399.582L586.792 388.328V365.821L612.845 377.075L623.266 382.702L607.634 343.314V320.807H623.266L628.476 270.166H638.897L644.108 320.807H659.74V309.554H670.161L664.95 337.688L654.529 354.568H644.108L654.529 377.075L675.371 371.448L670.161 405.209L649.318 438.969L675.371 433.342V444.596H664.95L659.74 467.103L649.318 489.61L675.371 478.357H691.003L685.792 506.49L675.371 523.371L670.161 557.131L701.424 540.251H711.845L706.634 568.385L701.424 602.145H680.582V613.399H670.161V624.652L763.95 619.026L758.74 641.533L753.529 658.413L727.476 664.04L722.266 680.92L706.634 692.173H670.161V703.427H691.003V714.68H701.424V725.934H717.055L711.845 770.948H691.003V782.202H664.95L680.582 804.709H706.634L722.266 810.335L748.319 804.709L763.95 832.842V849.723L732.687 860.976V872.23L706.634 877.856L732.687 883.483V894.737H722.266V905.99L680.582 917.244V928.497H717.055H737.898L753.529 951.004H800.424L795.213 967.885L758.74 979.138L763.95 1007.27L727.476 1018.53L701.424 1024.15L691.003 1018.53V1041.03L711.845 1046.66L758.74 1052.29H795.213L790.003 1091.67L769.161 1108.55L732.687 1119.81L722.266 1125.43L711.845 1119.81L722.266 1147.94L753.529 1153.57L748.319 1170.45L727.476 1181.7V1198.58L737.898 1204.21L795.213 1209.84V1221.09L816.056 1215.46L805.634 1192.95L784.792 1187.33L779.582 1164.82H816.056L821.266 1142.31H795.213L805.634 1119.81L826.477 1108.55L857.74 1102.93L852.529 1091.67L816.056 1086.05V1052.29L821.266 1041.03L800.424 1035.41L790.003 1007.27L826.477 1001.65L862.95 1007.27L857.74 990.392L847.319 984.765V973.511L873.371 962.258L878.582 951.004H889.003V939.751L857.74 945.378L816.056 905.99L821.266 894.737L889.003 889.11L904.635 877.856L909.845 860.976H878.582L868.161 832.842L857.74 827.216V815.962L883.792 821.589L915.056 815.962V804.709H899.424V770.948H925.477L915.056 754.068L899.424 748.441V737.187L915.056 731.561V697.8L925.477 686.547L935.898 664.04L951.529 709.054L972.372 714.68L961.95 737.187L951.529 742.814L956.74 776.575L972.372 770.948L967.161 799.082L956.74 810.335L961.95 832.842L988.003 827.216L1008.85 821.589L1003.63 872.23L982.793 866.603L977.582 883.483H961.95L956.74 900.363L982.793 905.99V922.871L961.95 934.124L972.372 945.378L1003.63 939.751L1008.85 951.004L998.424 973.511V1007.27L967.161 1018.53L961.95 1029.78L993.214 1035.41L1029.69 1024.15L1055.74 1018.53L1060.95 1035.41L1076.58 1041.03V1052.29H1055.74L1050.53 1074.79L1045.32 1091.67L1019.27 1080.42L1014.06 1091.67L982.793 1097.3V1119.81H1003.63V1131.06L1029.69 1125.43L1055.74 1131.06L1076.58 1136.69L1066.16 1142.31L1060.95 1164.82H1045.32V1176.07H1055.74L1050.53 1192.95L1034.9 1187.33V1198.58L1003.63 1187.33L1008.85 1204.21L1024.48 1215.46L1055.74 1209.84L1076.58 1221.09L1113.06 1215.46L1102.63 1243.6L1097.42 1277.36L1076.58 1288.61L1045.32 1282.98V1299.86H1019.27L1024.48 1322.37L1076.58 1328L1081.79 1339.25L1139.11 1333.62L1133.9 1367.38H1123.48L1128.69 1389.89H1139.11V1401.15L1107.85 1406.77L1076.58 1395.52L1050.53 1401.15L1060.95 1429.28L1113.06 1423.65L1149.53 1434.91L1144.32 1463.04L1118.27 1479.92H1107.85L1102.63 1502.43L1087 1496.8V1485.55H1076.58L1071.37 1502.43L1050.53 1513.68H-1320.26L-1361.95 1491.17L-1388 1485.55V1474.29L-1367.16 1463.04L-1341.11 1457.41L-1325.47 1446.16L-1330.68 1429.28H-1372.37L-1388 1378.64L-1377.58 1373.01L-1356.74 1384.26H-1309.84L-1299.42 1389.89L-1304.63 1373.01L-1320.26 1361.76L-1351.53 1350.5V1333.62H-1361.95V1322.37H-1315.05L-1309.84 1305.49H-1283.79L-1278.58 1288.61H-1304.63L-1309.84 1271.73L-1335.89 1266.1V1254.85H-1299.42V1243.6L-1325.47 1237.97V1221.09L-1278.58 1209.84V1187.33L-1299.42 1192.95L-1304.63 1181.7L-1325.47 1170.45L-1320.26 1153.57L-1278.58 1147.94V1136.69L-1289 1131.06L-1283.79 1108.55L-1309.84 1114.18V1086.05L-1273.37 1074.79V1069.17L-1299.42 1063.54L-1294.21 1041.03H-1278.58L-1289 1001.65L-1268.16 996.018V973.511H-1257.74V1007.27H-1247.32V1018.53H-1257.74V1029.78H-1242.11L-1252.53 1063.54L-1226.47 1057.91L-1242.11 1091.67L-1257.74 1108.55L-1231.68 1114.18V1125.43L-1216.05 1131.06L-1221.26 1142.31L-1242.11 1153.57L-1226.47 1170.45V1187.33H-1200.42L-1205.63 1209.84L-1169.16 1204.21L-1143.1 1176.07L-1137.89 1164.82L-1143.1 1136.69L-1174.37 1125.43L-1179.58 1108.55L-1132.68 1080.42L-1127.47 1063.54L-1117.05 1057.91L-1111.84 1035.41L-1153.53 1041.03L-1163.95 1069.17H-1174.37V1057.91L-1200.42 1052.29V1029.78H-1221.26L-1226.47 1001.65L-1231.68 984.765H-1216.05V996.018H-1163.95L-1122.26 973.511H-1111.84V951.004H-1137.89L-1143.1 962.258H-1153.53V951.004H-1190V939.751H-1174.37V917.244L-1111.84 911.617L-1101.42 877.856L-1111.84 883.483H-1148.32L-1169.16 866.603L-1163.95 849.723L-1117.05 844.096L-1091 832.842V799.082L-1122.26 804.709H-1137.89L-1163.95 776.575L-1158.74 754.068L-1137.89 748.441H-1117.05L-1080.58 742.814V720.307L-1111.84 709.054L-1122.26 703.427V686.547L-1075.37 675.293L-1059.74 647.159L-1080.58 641.533L-1091 635.906V624.652H-1070.16L-1091 602.145L-1096.21 613.399L-1101.42 607.772V579.638L-1122.26 574.011L-1127.47 557.131L-1091 562.758L-1049.32 557.131V534.624L-1070.16 528.997L-1080.58 523.371V500.864H-1049.32V467.103L-1064.95 461.476L-1070.16 433.342L-1044.1 444.596L-1049.32 410.835H-1059.74V399.582H-1044.1L-1049.32 365.821H-1038.89V337.688H-1028.47L-1023.26 365.821L-1028.47 377.075L-1012.84 382.702L-1018.05 399.582H-1007.63L-1018.05 433.342H-997.21L-1007.63 455.85L-1018.05 478.357H-1007.63V489.61L-986.789 483.983L-997.21 512.117H-1018.05L-1007.63 534.624V557.131H-976.368L-986.789 579.638H-997.21L-986.789 602.145H-955.526L-965.947 624.652L-1007.63 647.159L-1012.84 658.413H-986.789H-971.157L-955.526 664.04L-960.736 686.547L-976.368 697.8V720.307L-965.947 725.934V737.187L-976.368 742.814V770.948H-950.315L-919.052 782.202V793.455H-945.105V804.709H-955.526V815.962L-981.578 827.216L-986.789 838.469L-960.736 844.096L-877.368 860.976L-892.999 883.483H-903.42L-908.631 905.99L-934.684 917.244L-955.526 905.99V917.244L-965.947 922.871L-955.526 951.004L-892.999 962.258L-887.789 984.765L-908.631 1007.27L-945.105 1018.53L-971.157 1029.78L-976.368 1041.03L-929.473 1052.29H-861.736L-866.947 1074.79L-872.157 1086.05L-887.789 1091.67L-892.999 1114.18L-950.315 1131.06V1147.94L-934.684 1142.31H-882.578L-861.736 1136.69L-866.947 1159.19L-877.368 1176.07L-898.21 1187.33L-903.42 1209.84L-913.841 1215.46L-919.052 1232.34L-872.157 1226.72V1215.46L-851.315 1221.09V1232.34L-830.473 1237.97V1254.85H-856.526L-851.315 1277.36H-872.157V1299.86H-882.578V1311.12L-840.894 1305.49V1282.98L-809.631 1277.36V1254.85H-778.368V1243.6H-788.789V1221.09L-809.631 1209.84V1198.58H-767.947V1164.82H-783.578L-788.789 1136.69L-820.052 1147.94L-830.473 1142.31L-840.894 1097.3L-835.683 1074.79L-830.473 1080.42H-757.525V1057.91L-788.789 1046.66L-783.578 1029.78H-773.157V1018.53L-783.578 1012.9L-757.525 996.018H-747.104V973.511H-778.368V945.378L-809.631 939.751V917.244L-783.578 911.617L-762.736 905.99H-752.315L-747.104 894.737H-736.683V883.483L-757.525 877.856L-752.315 849.723L-783.578 832.842L-778.368 815.962L-731.473 804.709L-726.262 782.202H-747.104L-741.894 759.695L-721.052 754.068L-715.841 731.561H-736.683L-741.894 720.307L-767.947 714.68V703.427H-736.683V692.173H-747.104L-741.894 675.293L-710.631 669.666V658.413L-726.262 652.786L-721.052 630.279V619.026L-726.262 602.145H-705.42L-715.841 585.265V568.385L-689.789 557.131L-668.946 568.385L-674.157 602.145L-653.315 596.518L-658.525 624.652L-663.736 635.906H-653.315V647.159H-642.894L-653.315 680.92H-663.736L-653.315 703.427L-658.525 725.934L-642.894 737.187L-648.104 759.695L-653.315 776.575L-627.262 770.948L-632.473 793.455L-648.104 815.962H-658.525V827.216L-627.262 838.469L-611.631 860.976V877.856L-616.841 900.363L-601.209 894.737V883.483L-569.946 889.11L-559.525 866.603L-549.104 838.469L-575.157 844.096L-611.631 827.216V815.962H-575.157V804.709L-601.209 799.082L-606.42 770.948L-569.946 759.695L-549.104 748.441L-543.894 737.187H-554.315L-569.946 720.307L-590.788 725.934L-616.841 703.427V692.173L-554.315 675.293V658.413L-575.157 652.786L-585.578 624.652L-580.367 602.145H-543.894L-549.104 585.265L-585.578 562.758L-580.367 534.624L-528.262 545.878L-533.473 523.371H-549.104V512.117H-523.051L-528.262 495.237L-549.104 472.73L-543.894 455.85H-528.262L-533.473 427.716H-512.63L-507.42 382.702L-496.999 388.328V422.089L-470.946 410.835L-481.367 455.85L-455.315 450.223L-444.894 478.357L-470.946 489.61H-486.578V500.864H-476.157V512.117H-439.683L-444.894 540.251L-470.946 551.504L-465.736 574.011L-455.315 579.638V602.145L-470.946 607.772L-476.157 624.652H-444.894V613.399H-413.63L-424.051 635.906H-434.472L-444.894 669.666L-413.63 658.413L-382.367 647.159L-366.736 641.533L-351.104 602.145H-371.946L-377.157 585.265L-403.209 579.638L-418.841 557.131V528.997H-377.157L-340.683 517.744L-319.841 512.117V500.864L-340.683 495.237L-345.893 478.357L-371.946 467.103V455.85L-351.104 450.223V422.089L-309.42 427.716V405.209L-351.104 382.702L-340.683 354.568L-366.736 348.941L-371.946 320.807L-356.314 315.181L-309.42 309.554V287.047L-288.578 275.793L-298.999 247.659L-340.683 242.033V230.779H-330.262V219.526H-340.683L-345.893 202.645L-283.367 191.392L-288.578 168.885L-298.999 157.631L-278.156 140.751V118.244L-298.999 106.99V73.2299L-257.314 84.4834V61.9764H-267.735V50.7229H-257.314L-246.893 0.0820312ZM-403.209 703.427V714.68L-429.262 725.934L-418.841 748.441L-403.209 754.068L-392.788 782.202L-377.157 787.828V748.441L-366.736 725.934L-371.946 714.68L-403.209 703.427ZM508.634 787.828L503.424 804.709L487.792 799.082L451.318 832.842L446.108 844.096L430.476 849.723L451.318 883.483H435.687V894.737L472.16 900.363L493.002 905.99V917.244H482.581V928.497H472.16V951.004L451.318 945.378V973.511L477.371 984.765L487.792 1007.27H503.424L508.634 979.138H498.213V962.258L524.266 951.004V917.244H534.687V905.99H545.108V889.11L534.687 883.483H503.424V855.349L487.792 849.723L503.424 838.469V827.216H534.687L529.476 799.082L508.634 787.828ZM-403.209 804.709L-408.42 821.589L-424.051 827.216V838.469L-382.367 844.096L-387.578 815.962L-392.788 804.709H-403.209ZM-80.1562 939.751L-100.998 951.004V962.258H-111.419L-106.209 979.138L-85.3667 996.018L-48.893 1001.65L-38.4719 1007.27L-28.0508 956.631L-38.4719 939.751H-80.1562ZM175.16 979.138L169.949 1007.27L149.107 1018.53V1041.03H138.686V1052.29L159.528 1046.66L169.949 1041.03V1052.29L216.844 1046.66L222.055 1029.78H201.213V1007.27H190.792V996.018H201.213V984.765L175.16 979.138ZM180.37 1091.67L169.949 1097.3L180.37 1119.81L206.423 1131.06L211.634 1119.81H201.213L196.002 1091.67H180.37ZM805.634 1249.22L779.582 1266.1L774.371 1282.98L753.529 1277.36L758.74 1299.86L795.213 1333.62L805.634 1350.5L816.056 1344.88V1322.37H805.634V1311.12L821.266 1316.74L826.477 1277.36H816.056V1249.22H805.634Z" fill="#2B352D"/>
<path d="M3946.61 371.525L3956.12 371.658L3955.86 390.913L3970.19 386.297L3964.9 424.741L3984.05 415.378L3983.79 434.633L3974.28 434.501L3973.94 458.57L3993.03 454.021L3988.01 473.21L3968.58 501.828L3997.05 507.039L3991.96 531.041L3982.45 530.909L3982.31 540.537L3972.8 540.405L3972.6 554.846L4005.82 560.122L4010.31 579.444L3986.4 588.741L3991.02 598.435L4019.62 594.017L4033.95 589.402L4038.31 618.351L4014.33 632.462L4004.55 651.585L3985.53 651.32L3980.44 675.323L4023.3 671.104L4047.15 666.621L4047.28 656.993L4056.79 657.125L4056.52 676.38L4047.01 676.248L4046.75 695.503L4037.24 695.371L4036.97 714.626L4046.41 719.572L4027.32 724.122L4003.41 733.419L3988.88 752.476L4007.84 757.554L4007.7 767.182L4021.97 767.38L4021.77 781.821L4078.83 782.614L4083.45 792.308L4073.67 811.431L4040.12 830.224L4002.08 829.695L4011.32 849.082L4039.52 873.548L4058.6 868.998L4063.49 859.437L4073 859.569L4077.62 869.263L4115.53 879.419L4110.58 893.794L4086.8 893.464L4076.96 917.401L4048.22 931.445L4024.38 935.929L4033.42 969.758L4066.64 975.034L4071.53 965.472L4081.04 965.605L4090.42 975.364L4109.71 956.373L4119.22 956.506L4123.77 971.013L4133.21 975.959L4133.08 985.587L4118.82 985.388L4113.66 1014.21L4099.33 1018.82L4089.62 1033.13L4056.26 1037.48L4056.06 1051.92L4041.73 1056.54L4041.6 1066.17L4069.99 1076.19L4074.41 1100.32L4064.64 1119.45L4083.72 1114.9L4102.68 1119.98L4097.65 1139.17L4116.88 1124.99L4126.39 1125.12L4131.01 1134.81L4154.65 1144.77L4140.65 1125.32L4140.85 1110.88L4188.4 1111.54L4183.92 1092.22L4155.38 1091.82L4150.76 1082.13L4155.65 1072.57L4136.63 1072.3L4136.77 1062.67L4146.28 1062.81L4146.41 1053.18L4136.9 1053.05L4141.92 1033.86L4179.83 1044.01L4175.41 1019.88L4166.1 1005.3L4175.74 995.809L4194.76 996.073L4194.9 986.446L4204.41 986.578L4204.54 976.95L4180.9 966.992L4176.41 947.671L4205.01 943.254L4209.97 928.878L4195.7 928.68L4195.83 919.053L4205.41 914.371L4205.75 890.302L4253.3 890.963L4243.52 910.086L4233.81 924.395L4252.9 919.846L4247.87 939.035L4271.85 924.924L4271.52 948.993L4256.98 968.05L4271.25 968.248L4271.11 977.875L4290.14 978.14L4285.18 992.515L4261.07 1016.25L4251.56 1016.12L4256.11 1030.63L4294.09 1035.97L4288.86 1069.6L4260.27 1074.02L4250.49 1093.14L4260 1093.27L4259.86 1102.9L4288.4 1103.3L4293.08 1108.18L4287.86 1141.81L4249.55 1160.54L4249.42 1170.16L4268.24 1184.87L4268.1 1194.5L4296.7 1190.08L4315.72 1190.34L4315.86 1180.72L4301.59 1180.52L4297.1 1161.2L4306.81 1146.89L4330.46 1156.84L4349.54 1152.3L4354.5 1137.92L4364.01 1138.05L4373.85 1114.12L4330.99 1118.33L4316.93 1103.69L4298.04 1093.8L4303 1079.43L4326.7 1084.57L4322.28 1060.44L4341.3 1060.7L4364.95 1070.66L4384.03 1066.11L4379.48 1051.6L4365.28 1046.59L4360.79 1027.27L4380.08 1008.28L4394.41 1003.66L4399.37 989.287L4380.42 984.209L4375.73 979.329L4332.93 978.734L4333.07 969.107L4352.09 969.371L4347.73 940.422L4400.11 936.335L4414.77 907.651L4386.17 912.068L4386.44 892.813L4367.35 897.363L4353.16 892.35L4348.67 873.029L4334.47 868.017L4339.36 858.456L4363.13 858.786L4377.53 849.357L4410.82 849.819L4429.91 845.27L4425.42 825.949L4401.78 815.991L4406.67 806.429L4425.69 806.693L4425.96 787.438L4397.36 791.856L4388.18 767.654L4369.23 762.576L4359.85 752.817L4383.69 748.333L4407.47 748.664L4407.6 739.036L4431.45 734.553L4441.16 720.243L4441.36 705.802L4398.9 681.138L4399.03 671.511L4432.32 671.973L4441.96 662.478L4446.98 643.289L4423.21 642.958L4428.23 623.769L4451.94 628.913L4447.45 609.592L4438.01 604.646L4438.14 595.019L4461.92 595.349L4462.05 585.721L4452.61 580.775L4471.7 576.226L4467.21 556.905L4476.72 557.037L4477.32 513.713L4486.83 513.845L4486.36 547.541L4500.63 547.74L4495.47 576.556L4504.98 576.689L4505.12 567.061L4514.63 567.193L4504.71 595.944L4495 610.253L4518.91 600.956L4537.93 601.22L4532.84 625.223L4518.24 649.094L4508.73 648.962L4517.98 668.349L4512.75 701.979L4555.55 702.574L4555.28 721.829L4545.77 721.697L4550.26 741.018L4521.73 740.622L4516.71 759.811L4540.28 774.583L4578.25 779.925L4573.23 799.114L4544.43 817.973L4511.01 827.138L4520.26 846.525L4539.01 866.045L4529.5 865.913L4529.1 894.795L4571.96 890.576L4571.83 900.204L4595.8 886.093L4605.25 891.039L4590.58 919.724L4590.25 943.792L4556.89 948.144L4552.07 952.891L4528.29 952.561L4532.78 971.882L4527.89 981.444L4570.76 977.225L4570.56 991.666L4594.4 987.183L4589.38 1006.37L4570.22 1015.74L4555.96 1015.54L4550.87 1039.54L4589.04 1030.44L4603.17 1040.27L4598.75 1016.13L4617.77 1016.4L4641.48 1021.54L4641.62 1011.91L4651.13 1012.04L4651.26 1002.42L4632.24 1002.15L4627.75 982.832L4618.58 958.63L4651.86 959.093L4656.68 954.345L4680.46 954.676L4671.22 935.288L4657.02 930.276L4642.95 915.637L4643.09 906.009L4633.58 905.877L4633.71 896.249L4662.24 896.646L4671.69 901.592L4671.89 887.15L4695.6 892.294L4695.93 868.226L4672.29 858.268L4672.42 848.64L4662.91 848.508L4663.05 838.88L4710.6 839.541L4701.35 820.154L4706.18 815.406L4673.09 800.502L4673.49 771.619L4711.4 781.775L4711.67 762.52L4730.69 762.785L4721.38 748.211L4716.96 724.076L4702.83 714.25L4703.09 694.995L4726.74 704.953L4736.18 709.899L4722.38 676.004L4722.65 656.749L4736.91 656.947L4742.27 613.689L4751.78 613.821L4755.94 657.212L4770.2 657.41L4770.33 647.782L4779.84 647.914L4774.76 671.917L4765.04 686.226L4755.53 686.094L4764.78 705.482L4783.86 700.932L4778.71 729.749L4759.29 758.367L4783.13 753.884L4782.99 763.512L4773.48 763.379L4768.46 782.568L4758.68 801.691L4782.59 792.394L4796.86 792.593L4791.77 816.595L4782.06 830.905L4776.9 859.721L4805.63 845.676L4815.14 845.809L4810.05 869.811L4804.9 898.628L4785.88 898.364L4785.74 907.991L4776.23 907.859L4776.1 917.487L4861.76 913.863L4856.74 933.052L4851.78 947.427L4827.94 951.91L4822.98 966.286L4808.58 975.715L4775.3 975.252L4775.16 984.88L4794.18 985.144L4794.05 994.772L4803.56 994.904L4803.43 1004.53L4817.69 1004.73L4812.4 1043.17L4793.38 1042.91L4793.25 1052.54L4769.47 1052.21L4783.47 1071.66L4807.24 1071.99L4821.44 1077L4845.29 1072.52L4859.22 1096.79L4859.02 1111.23L4830.35 1120.46L4830.22 1130.09L4806.37 1134.57L4830.08 1139.71L4829.95 1149.34L4820.44 1149.21L4820.31 1158.84L4782.13 1167.94L4782 1177.56L4815.28 1178.03L4834.3 1178.29L4848.3 1197.74L4891.1 1198.34L4886.14 1212.71L4852.72 1221.88L4857.14 1246.01L4823.72 1255.18L4799.88 1259.66L4790.44 1254.72L4790.17 1273.97L4809.12 1279.05L4851.85 1284.46L4885.14 1284.92L4879.92 1318.55L4860.69 1332.73L4827.27 1341.89L4817.7 1346.58L4808.25 1341.63L4817.43 1365.83L4845.89 1371.04L4840.94 1385.42L4821.78 1394.78L4821.58 1409.22L4831.03 1414.17L4883.27 1419.71L4883.13 1429.34L4902.22 1424.79L4892.98 1405.4L4874.02 1400.32L4869.54 1381L4902.82 1381.46L4907.84 1362.27L4884.07 1361.94L4893.85 1342.82L4913 1333.46L4941.6 1329.04L4936.98 1319.34L4903.76 1314.07L4904.16 1285.19L4909.05 1275.62L4890.09 1270.55L4880.92 1246.34L4914.27 1241.99L4947.49 1247.27L4942.94 1232.76L4933.49 1227.82L4933.63 1218.19L4957.54 1208.89L4962.43 1199.33L4971.94 1199.46L4972.07 1189.83L4943.47 1194.25L4905.9 1160.03L4910.79 1150.47L4972.67 1146.51L4987.07 1137.08L4992.03 1122.71L4963.5 1122.31L4954.32 1098.11L4944.88 1093.16L4945.01 1083.53L4968.72 1088.68L4997.32 1084.26L4997.45 1074.63L4983.19 1074.44L4983.59 1045.55L5007.36 1045.88L4998.05 1031.31L4983.85 1026.3L4983.99 1016.67L4998.32 1012.05L4998.72 983.172L5008.37 973.677L5018.14 954.554L5031.87 993.262L5050.83 998.34L5041.05 1017.46L5031.47 1022.14L5035.83 1051.09L5050.16 1046.48L5045.07 1070.48L5035.43 1079.98L5039.91 1099.3L5063.76 1094.81L5082.84 1090.26L5077.49 1133.52L5058.53 1128.44L5053.58 1142.82L5039.31 1142.62L5034.36 1157L5058.06 1162.14L5057.86 1176.58L5038.71 1185.95L5048.09 1195.71L5076.68 1191.29L5081.3 1200.98L5071.53 1220.11L5071.13 1248.99L5042.46 1258.22L5037.57 1267.78L5066.04 1272.99L5099.46 1263.83L5123.3 1259.34L5127.85 1273.85L5142.05 1278.86L5141.92 1288.49L5122.9 1288.23L5117.87 1307.41L5112.92 1321.79L5089.28 1311.83L5084.39 1321.39L5055.79 1325.81L5055.52 1345.07L5074.54 1345.33L5074.41 1354.96L5098.25 1350.47L5121.96 1355.62L5140.91 1360.7L5131.34 1365.38L5126.31 1384.57L5112.05 1384.37L5111.92 1394L5121.43 1394.13L5116.47 1408.5L5102.27 1403.49L5102.14 1413.12L5073.74 1403.1L5078.29 1417.6L5092.43 1427.43L5121.02 1423.01L5139.91 1432.9L5173.26 1428.55L5163.42 1452.49L5158.26 1481.31L5139.11 1490.67L5110.64 1485.46L5110.44 1499.9L5086.67 1499.57L5091.16 1518.89L5138.64 1524.37L5143.26 1534.06L5195.64 1529.97L5190.48 1558.79L5180.97 1558.66L5185.46 1577.98L5194.97 1578.11L5194.83 1587.74L5166.23 1592.16L5137.84 1582.13L5113.99 1586.61L5123.17 1610.82L5170.79 1606.66L5203.94 1616.75L5198.85 1640.76L5174.88 1654.87L5165.37 1654.73L5160.34 1673.92L5146.14 1668.91L5146.28 1659.28L5136.77 1659.15L5131.81 1673.53L5112.66 1682.89L2949.05 1652.82L2911.28 1633.04L2887.57 1627.9L2887.71 1618.27L2906.86 1608.9L2930.7 1604.42L2945.1 1594.99L2940.55 1580.48L2902.51 1579.96L2888.84 1536.43L2898.42 1531.75L2917.31 1541.64L2960.1 1542.24L2969.55 1547.18L2964.99 1532.68L2950.86 1522.85L2922.46 1512.83L2922.66 1498.39L2913.15 1498.25L2913.29 1488.63L2956.08 1489.22L2961.04 1474.85L2984.82 1475.18L2989.77 1460.8L2966 1460.47L2961.44 1445.96L2937.73 1440.82L2937.87 1431.19L2971.15 1431.65L2971.29 1422.03L2947.58 1416.88L2947.78 1402.44L2990.71 1393.41L2990.98 1374.15L2971.89 1378.7L2967.27 1369.01L2948.38 1359.12L2953.34 1344.74L2991.44 1340.46L2991.58 1330.83L2982.13 1325.88L2987.16 1306.69L2963.31 1311.18L2963.65 1287.11L2997.07 1277.94L2997.14 1273.13L2973.43 1267.98L2978.45 1248.8L2992.72 1248.99L2983.67 1215.16L3002.76 1210.62L3003.03 1191.36L3012.54 1191.49L3012.14 1220.37L3021.65 1220.51L3021.51 1230.13L3012 1230L3011.87 1239.63L3026.14 1239.83L3016.22 1268.58L3040.07 1264.1L3025.4 1292.78L3010.93 1307.02L3034.64 1312.17L3034.51 1321.8L3048.71 1326.81L3043.82 1336.37L3024.66 1345.73L3038.73 1360.37L3038.53 1374.81L3062.3 1375.14L3057.28 1394.33L3090.63 1389.98L3114.74 1366.24L3119.63 1356.68L3115.21 1332.55L3086.82 1322.52L3082.26 1308.01L3125.39 1284.54L3130.35 1270.16L3139.92 1265.48L3144.95 1246.29L3106.84 1250.58L3096.99 1274.52L3087.48 1274.38L3087.62 1264.76L3063.91 1259.61L3064.18 1240.36L3045.16 1240.09L3040.74 1215.96L3036.18 1201.45L3050.45 1201.65L3050.31 1211.28L3097.86 1211.94L3136.17 1193.21L3145.68 1193.34L3145.95 1174.09L3122.18 1173.76L3117.29 1183.32L3107.78 1183.19L3107.91 1173.56L3074.62 1173.1L3074.76 1163.47L3089.02 1163.67L3089.29 1144.41L3146.42 1140.39L3156.33 1111.64L3146.75 1116.32L3113.47 1115.86L3094.65 1101.15L3099.6 1086.78L3142.47 1082.56L3166.38 1073.26L3166.78 1044.38L3138.18 1048.8L3123.91 1048.6L3100.47 1024.2L3105.5 1005.01L3124.58 1000.46L3143.6 1000.72L3176.96 996.373L3177.22 977.118L3148.83 967.094L3139.38 962.148L3139.58 947.707L3182.52 938.674L3197.12 914.803L3178.16 909.725L3168.72 904.779L3168.85 895.152L3187.87 895.416L3169.12 875.896L3164.23 885.458L3159.54 880.578L3159.88 856.509L3140.92 851.431L3136.37 836.923L3169.59 842.2L3207.7 837.915L3207.96 818.659L3189.01 813.581L3179.57 808.635L3179.83 789.38L3208.36 789.777L3208.77 760.894L3194.57 755.882L3190.15 731.747L3213.79 741.705L3209.44 712.756L3199.92 712.624L3200.06 702.996L3214.32 703.194L3209.97 674.246L3219.48 674.378L3219.82 650.309L3229.33 650.441L3233.75 674.576L3228.86 684.138L3243.06 689.15L3238.1 703.525L3247.61 703.657L3237.7 732.408L3256.72 732.672L3246.94 751.795L3237.16 770.918L3246.67 771.05L3246.54 780.678L3265.63 776.128L3255.78 800.065L3236.76 799.801L3246 819.188L3245.74 838.443L3274.27 838.84L3264.49 857.963L3254.98 857.831L3264.22 877.218L3292.75 877.614L3282.98 896.737L3244.67 915.464L3239.78 925.025L3263.55 925.356L3277.82 925.554L3292.02 930.566L3286.99 949.755L3272.6 959.185L3272.33 978.44L3281.77 983.386L3281.64 993.013L3272.06 997.695L3271.73 1021.76L3295.5 1022.09L3323.9 1032.12L3323.77 1041.75L3299.99 1041.42L3299.86 1051.04L3290.35 1050.91L3290.21 1060.54L3266.3 1069.84L3261.41 1079.4L3285.12 1084.54L3361 1100.04L3346.47 1119.1L3336.96 1118.96L3331.94 1138.15L3308.03 1147.45L3289.14 1137.56L3289.01 1147.19L3279.43 1151.87L3288.61 1176.07L3345.53 1186.49L3350.02 1205.81L3330.73 1224.8L3297.31 1233.97L3273.4 1243.26L3268.52 1252.83L3311.18 1263.05L3373 1263.91L3367.97 1283.1L3363.08 1292.66L3348.75 1297.27L3343.73 1316.46L3291.22 1330.18L3291.02 1344.62L3305.35 1340L3352.9 1340.66L3371.99 1336.11L3366.97 1355.3L3357.26 1369.61L3338.1 1378.98L3333.08 1398.17L3323.5 1402.85L3318.55 1417.22L3361.41 1413L3361.54 1403.38L3380.5 1408.45L3380.36 1418.08L3399.32 1423.16L3399.12 1437.6L3375.34 1437.27L3379.83 1456.59L3360.81 1456.33L3360.54 1475.58L3351.03 1475.45L3350.9 1485.08L3389.01 1480.79L3389.27 1461.54L3417.87 1457.12L3418.14 1437.86L3446.67 1438.26L3446.8 1428.63L3437.29 1428.5L3437.56 1409.25L3418.67 1399.35L3418.81 1389.73L3456.85 1390.26L3457.25 1361.37L3442.98 1361.17L3438.56 1337.04L3409.9 1346.27L3400.46 1341.32L3391.48 1302.68L3396.5 1283.49L3401.19 1288.37L3467.76 1289.3L3468.03 1270.04L3439.63 1260.02L3444.59 1245.64L3454.1 1245.78L3454.23 1236.15L3444.79 1231.2L3468.77 1217.09L3478.28 1217.22L3478.55 1197.97L3450.01 1197.57L3450.35 1173.5L3421.88 1168.29L3422.15 1149.04L3445.99 1144.55L3465.08 1140L3474.59 1140.14L3479.48 1130.58L3488.99 1130.71L3489.13 1121.08L3470.17 1116L3475.26 1092L3446.93 1077.16L3451.89 1062.79L3494.82 1053.75L3499.84 1034.56L3480.82 1034.3L3485.84 1015.11L3504.93 1010.56L3509.95 991.371L3490.93 991.107L3486.31 981.413L3462.6 976.269L3462.74 966.642L3491.27 967.038L3491.4 957.411L3481.89 957.278L3486.85 942.903L3515.44 938.486L3515.58 928.858L3501.38 923.846L3506.4 904.657L3506.54 895.029L3501.98 880.522L3521 880.786L3511.69 866.213L3511.89 851.771L3535.8 842.474L3554.69 852.366L3549.53 881.183L3568.62 876.633L3563.53 900.636L3558.64 910.198L3568.15 910.33L3568.02 919.958L3577.53 920.09L3567.62 948.84L3558.11 948.708L3567.35 968.095L3562.33 987.285L3576.46 997.11L3571.44 1016.3L3566.48 1030.67L3590.32 1026.19L3585.3 1045.38L3570.77 1064.44L3561.26 1064.31L3561.12 1073.93L3589.52 1083.96L3603.52 1103.41L3603.32 1117.85L3598.29 1137.04L3612.63 1132.43L3612.76 1122.8L3641.22 1128.01L3651 1108.88L3660.85 1084.95L3637 1089.43L3603.92 1074.53L3604.05 1064.9L3637.34 1065.36L3637.47 1055.73L3613.76 1050.59L3609.34 1026.46L3642.76 1017.29L3661.92 1007.93L3666.81 998.366L3657.3 998.234L3643.23 983.594L3624.14 988.144L3600.64 968.558L3600.77 958.93L3658.03 945.282L3658.23 930.841L3639.28 925.763L3630.1 901.561L3635.13 882.372L3668.41 882.835L3663.86 868.327L3630.84 848.61L3635.93 824.607L3683.35 834.895L3678.86 815.574L3664.59 815.376L3664.73 805.748L3688.5 806.078L3683.95 791.571L3665.2 772.051L3670.15 757.676L3684.42 757.874L3680 733.739L3699.02 734.004L3704.31 695.559L3713.75 700.505L3713.35 729.388L3737.26 720.091L3727.21 758.469L3751.06 753.986L3760.23 778.187L3736.32 787.484L3722.06 787.286L3721.92 796.913L3731.43 797.046L3731.3 806.673L3764.59 807.136L3759.5 831.139L3735.59 840.436L3740.07 859.757L3749.52 864.703L3749.25 883.958L3734.92 888.574L3729.96 902.949L3758.49 903.346L3758.63 893.718L3787.16 894.114L3777.38 913.237L3767.87 913.105L3757.96 941.856L3786.62 932.625L3815.29 923.394L3829.62 918.778L3844.35 885.28L3825.33 885.015L3820.78 870.508L3797.07 865.364L3783.07 845.91L3783.41 821.841L3821.45 822.37L3854.87 813.205L3873.95 808.656L3874.09 799.028L3855.13 793.95L3850.58 779.442L3826.94 769.484L3827.07 759.857L3846.16 755.307L3846.49 731.238L3884.47 736.581L3884.74 717.326L3846.96 697.542L3856.81 673.605L3833.1 668.461L3828.68 644.326L3843.01 639.71L3885.87 635.491L3886.14 616.236L3905.3 606.873L3896.12 582.672L3858.14 577.329L3858.28 567.702L3867.79 567.834L3867.92 558.206L3858.41 558.074L3853.86 543.566L3911.05 534.732L3906.57 515.411L3897.19 505.651L3916.41 491.474L3916.68 472.219L3897.79 462.327L3898.19 433.444L3936.1 443.6L3936.37 424.345L3926.86 424.213L3926.99 414.585L3936.5 414.717L3946.61 371.525ZM3795.6 971.267L3795.46 980.895L3771.55 990.192L3780.8 1009.58L3795 1014.59L3804.17 1038.79L3818.37 1043.8L3818.84 1010.11L3828.62 990.985L3823.99 981.291L3795.6 971.267ZM4626.75 1055.04L4621.79 1069.41L4607.59 1064.4L4573.91 1092.82L4569.02 1102.38L4554.69 1107L4573.3 1136.15L4559.04 1135.95L4558.91 1145.58L4592.12 1150.85L4611.08 1155.93L4610.94 1165.56L4601.43 1165.43L4601.3 1175.05L4591.79 1174.92L4591.52 1194.18L4572.57 1189.1L4572.23 1213.17L4595.88 1223.12L4605.12 1242.51L4619.38 1242.71L4624.47 1218.71L4614.96 1218.58L4615.16 1204.13L4639.07 1194.84L4639.48 1165.95L4648.99 1166.09L4649.12 1156.46L4658.63 1156.59L4658.83 1142.15L4649.39 1137.2L4620.86 1136.81L4621.19 1112.74L4606.99 1107.73L4621.39 1098.3L4621.53 1088.67L4650.06 1089.07L4645.64 1064.93L4626.75 1055.04ZM3794.39 1057.92L3789.44 1072.29L3775.11 1076.91L3774.97 1086.53L3812.95 1091.88L3808.52 1067.74L3803.9 1058.05L3794.39 1057.92ZM4087.61 1177.54L4068.45 1186.91L4068.32 1196.53L4058.81 1196.4L4063.36 1210.91L4082.18 1225.62L4115.4 1230.89L4124.85 1235.84L4134.96 1192.65L4125.65 1178.07L4087.61 1177.54ZM4320.14 1214.48L4315.05 1238.48L4295.9 1247.84L4295.63 1267.1L4286.12 1266.97L4285.99 1276.59L4305.08 1272.05L4314.65 1267.36L4314.52 1276.99L4357.38 1272.77L4362.34 1258.4L4343.32 1258.13L4343.58 1238.88L4334.07 1238.75L4334.21 1229.12L4343.72 1229.25L4343.85 1219.62L4320.14 1214.48ZM4323.56 1310.82L4313.98 1315.5L4323.23 1334.89L4346.87 1344.85L4351.76 1335.29L4342.25 1335.15L4337.83 1311.02L4323.56 1310.82ZM4892.31 1453.54L4868.33 1467.65L4863.38 1482.02L4844.42 1476.94L4848.91 1496.27L4881.79 1525.61L4891.1 1540.18L4900.68 1535.5L4900.95 1516.25L4891.44 1516.12L4891.57 1506.49L4905.77 1511.5L4910.99 1477.87L4901.48 1477.74L4901.82 1453.67L4892.31 1453.54Z" fill="#2B352D"/>
<path d="M2566.4 645.659L2575.08 646.625L2582.79 651.456L2583.75 667.882L2591.47 669.814L2595.32 689.138L2611.71 783.827L2612.68 787.691L2624.25 791.556V800.252L2618.46 805.083L2617.5 811.847L2629.07 849.529V855.326L2625.21 861.123L2602.07 862.089L2595.32 875.616L2592.43 885.278L2594.36 886.244L2611.71 880.447L2626.17 876.582H2629.07L2630.99 872.717L2644.49 866.92H2655.1L2669.56 909.433L2673.42 921.994L2672.45 935.521L2677.27 950.014V951.946L2639.67 965.473L2644.49 969.338L2660.88 980.932H2663.77L2667.63 981.899L2676.31 988.662L2681.13 987.696L2684.99 985.763L2697.52 983.831L2711.02 984.797L2721.62 988.662L2729.34 995.426L2734.16 1003.16L2737.05 1014.75V1028.28L2734.16 1037.94L2728.37 1046.63L2720.66 1054.36L2718.73 1060.16L2713.91 1117.17L2712.95 1134.56V1164.51L2714.87 1179L2716.8 1187.7V1195.43L2715.84 1198.33L2727.41 1204.13V1211.86L2717.77 1214.75V1229.25L2723.55 1307.51V1322L2719.69 1329.73L2716.8 1328.77L2715.84 1324.9L2717.77 1317.17L2716.8 1310.41L2710.05 1323.94L2699.45 1350.99L2694.63 1364.52L2684.99 1378.04L2683.06 1386.74L2672.45 1401.23L2659.92 1418.62L2647.38 1435.05L2637.74 1446.64L2629.07 1461.14L2625.21 1467.9L2622.32 1483.36L2617.5 1493.02L2616.53 1493.99V1498.82L2621.35 1499.78V1516.21H2481.55L2486.38 1505.58H2476.73L2466.13 1507.51L2459.38 1513.31L2454.56 1514.28L2449.74 1511.38L2446.85 1514.28H2432.38L2433.35 1507.51L2424.67 1504.62L2428.53 1501.72L2449.74 1493.99L2457.45 1492.06H2481.55L2486.38 1490.12L2487.34 1481.43L2505.66 1475.63L2519.16 1471.76L2525.9 1470.8L2550.01 1460.17H2552.9V1466.93H2564.47L2570.25 1470.8L2573.15 1474.66V1476.6H2575.08L2577.97 1465.97L2581.82 1458.24L2585.68 1456.31H2592.43L2597.25 1448.58L2603.03 1446.64L2608.82 1439.88L2619.42 1423.45L2635.82 1396.4L2650.28 1371.28L2658.95 1355.82L2660.88 1347.12V1330.7L2657.03 1326.83V1316.21L2662.81 1315.24V1306.54L2659.92 1298.81V1288.19L2674.38 1068.86V1053.4L2662.81 1037.94L2655.1 1034.07L2638.71 1017.65L2624.25 1011.85L2601.11 1004.12L2579.9 999.29L2504.69 998.324V991.561L2492.16 989.628L2484.45 987.696L2470.95 988.662L2439.13 980.932L2436.24 979.966V969.338H2445.88L2458.42 971.27L2460.34 972.237L2456.49 963.541V960.642H2454.56L2453.6 965.473L2448.77 964.507L2447.81 962.575L2452.63 950.98L2459.38 940.352L2468.06 933.588L2476.73 930.69L2474.81 926.825L2466.13 914.264L2463.24 907.501L2461.31 900.737L2460.34 899.771L2461.31 888.177L2451.67 887.211H2440.1L2435.28 892.042L2423.71 914.264L2417.92 925.859L2409.25 935.521L2405.39 938.419L2402.5 939.386H2394.78L2376.47 936.487H2367.79L2354.29 943.25L2345.61 945.183L2334.04 944.217L2322.47 939.386L2318.62 936.487L2315.73 923.926L2313.8 919.095L2314.76 914.264L2320.55 899.771V896.873L2317.65 893.974L2315.73 887.211L2313.8 886.244H2285.84L2284.87 887.211H2240.52V871.751H2281.98L2285.84 874.65H2324.4L2329.22 872.717L2344.65 870.785L2346.58 863.055L2348.51 839.866L2354.29 808.948L2362 775.131L2365.86 753.874L2366.82 745.178V733.584L2355.25 738.415L2338.86 743.246L2333.08 742.28L2331.15 738.415L2338.86 732.618L2355.25 724.888L2368.75 720.057L2373.57 721.023L2389 715.226L2415.99 708.463L2437.21 701.699H2440.1L2437.21 689.138L2427.56 690.105L2398.64 698.8L2394.78 697.834V695.902L2454.56 677.544L2529.76 654.355L2536.51 653.389H2543.26L2566.4 645.659ZM2518.19 663.051L2517.23 670.781H2520.12L2521.08 663.051H2518.19ZM2507.59 665.949L2488.3 671.747V672.713L2496.98 674.645L2501.8 679.476L2503.73 683.341L2510.48 682.375L2511.44 681.409V665.949H2507.59ZM2479.63 673.679V676.578H2483.48V673.679H2479.63ZM2470.95 675.612V678.51H2473.84V675.612H2470.95ZM2465.16 678.51V682.375L2460.34 680.443L2451.67 682.375L2443.95 685.274L2444.92 692.037L2446.85 697.834L2467.09 693.969L2468.06 684.307L2469.99 678.51H2465.16ZM2579.9 861.123L2576.04 868.853L2585.68 872.717H2588.57L2594.36 861.123H2579.9ZM2550.01 870.785L2534.58 871.751V878.515L2538.44 893.974L2550.01 888.177L2553.86 883.346L2554.83 877.548L2551.94 870.785H2550.01ZM2565.43 880.447L2562.54 884.312V890.109L2568.33 897.839L2571.22 898.805L2577 893.974L2584.72 890.109L2582.79 888.177L2572.18 884.312L2568.33 880.447H2565.43ZM2551.94 893.008L2540.37 898.805L2537.47 899.771L2536.51 913.298L2541.33 916.197L2546.15 915.23L2550.97 908.467L2560.61 903.636L2553.86 893.008H2551.94ZM2505.66 984.797V987.696L2538.44 988.662L2537.47 985.763L2505.66 984.797ZM2654.13 1020.55V1022.48L2659.92 1023.45V1020.55H2654.13ZM2709.09 1219.59L2706.2 1244.71L2701.38 1267.9L2697.52 1283.35V1287.22H2706.2L2713.91 1290.12V1276.59L2711.02 1225.38L2710.05 1219.59H2709.09Z" fill="url(#paint0_linear_248_33700)"/>
<path d="M2548.5 980.961H2551.39L2555.25 981.927L2563.92 988.691L2568.74 987.725L2572.6 985.792L2585.13 983.86L2598.63 984.826L2609.24 988.691L2616.95 995.454L2621.77 1003.18L2624.66 1014.78V1028.31L2621.77 1037.97L2615.99 1046.66L2608.27 1054.39L2606.34 1060.19L2601.52 1117.2L2600.56 1134.59V1164.54L2602.49 1179.03L2604.42 1187.73V1195.46L2603.45 1198.36L2615.02 1204.15V1211.88L2605.38 1214.78V1229.28L2611.16 1307.54V1322.03L2607.31 1329.76L2604.42 1328.8L2603.45 1324.93L2605.38 1317.2L2604.42 1310.44L2597.67 1323.96L2587.06 1351.02L2582.24 1364.54L2572.6 1378.07L2570.67 1386.77L2560.07 1401.26L2547.53 1418.65L2535 1435.08L2525.36 1446.67L2516.68 1461.17L2512.82 1467.93L2509.93 1483.39L2505.11 1493.05L2504.15 1494.02V1498.85L2508.97 1499.81V1516.24H2369.17L2373.99 1505.61H2364.35L2353.74 1507.54L2346.99 1513.34L2342.17 1514.31L2337.35 1511.41L2334.46 1514.31H2320L2320.96 1507.54L2312.29 1504.64L2316.14 1501.75L2337.35 1494.02L2345.07 1492.08H2369.17L2373.99 1490.15L2374.95 1481.46L2393.27 1475.66L2406.77 1471.79L2413.52 1470.83L2437.62 1460.2H2440.51V1466.96H2452.08L2457.87 1470.83L2460.76 1474.69V1476.62H2462.69L2465.58 1466L2469.44 1458.27L2473.29 1456.33H2480.04L2484.86 1448.6L2490.65 1446.67L2496.43 1439.91L2507.04 1423.48L2523.43 1396.43L2537.89 1371.31L2546.57 1355.85L2548.5 1347.15V1330.73L2544.64 1326.86V1316.23L2550.42 1315.27V1306.57L2547.53 1298.84V1288.21L2561.99 1068.89V1053.43L2550.42 1037.97L2542.71 1034.1L2526.32 1017.68L2511.86 1011.88M2541.75 1020.58V1022.51L2547.53 1023.47V1020.58H2541.75ZM2596.7 1219.61L2593.81 1244.74L2588.99 1267.92L2585.13 1283.38V1287.25H2593.81L2601.52 1290.15V1276.62L2598.63 1225.41L2597.67 1219.61H2596.7Z" fill="url(#paint1_linear_248_33700)"/>
<path d="M2192.53 1045.78L2197.04 1046.28L2201.05 1048.79L2201.55 1057.31L2205.56 1058.31L2207.57 1068.34L2216.09 1117.46L2216.59 1119.46L2222.61 1121.47V1125.98L2219.6 1128.48L2219.1 1131.99L2225.11 1151.54V1154.55L2223.11 1157.56L2211.08 1158.06L2207.57 1165.07L2206.07 1170.09L2207.07 1170.59L2216.09 1167.58L2223.61 1165.58H2225.11L2226.12 1163.57L2233.13 1160.56H2238.65L2246.16 1182.62L2248.17 1189.13L2247.67 1196.15L2250.17 1203.67V1204.67L2230.63 1211.69L2233.13 1213.69L2241.65 1219.71H2243.16L2245.16 1220.21L2249.67 1223.72L2252.18 1223.22L2254.18 1222.22L2260.7 1221.21L2267.72 1221.71L2273.23 1223.72L2277.24 1227.23L2279.75 1231.24L2281.25 1237.25V1244.27L2279.75 1249.28L2276.74 1253.79L2272.73 1257.8L2271.73 1260.81L2269.22 1290.38L2268.72 1299.41V1314.94L2269.72 1322.46L2270.72 1326.97V1330.98L2270.22 1332.49L2276.24 1335.49V1339.5L2271.23 1341.01V1348.53L2274.23 1389.13V1396.65L2272.23 1400.65L2270.72 1400.15L2270.22 1398.15L2271.23 1394.14L2270.72 1390.63L2267.22 1397.65L2261.7 1411.68L2259.2 1418.7L2254.18 1425.72L2253.18 1430.23L2247.67 1437.75L2241.15 1446.77L2234.64 1455.29L2229.62 1461.3L2225.11 1468.82L2223.11 1472.33L2221.6 1480.35L2219.1 1485.36L2218.6 1485.86V1488.37L2221.1 1488.87V1497.39H2148.42L2150.93 1491.88H2145.92L2140.4 1492.88L2136.9 1495.89L2134.39 1496.39L2131.88 1494.89L2130.38 1496.39H2122.86L2123.36 1492.88L2118.85 1491.38L2120.86 1489.87L2131.88 1485.86L2135.89 1484.86H2148.42L2150.93 1483.86L2151.43 1479.35L2160.95 1476.34L2167.97 1474.34L2171.48 1473.84L2184.01 1468.32H2185.52V1471.83H2191.53L2194.54 1473.84L2196.04 1475.84V1476.84H2197.04L2198.55 1471.33L2200.55 1467.32L2202.56 1466.32H2206.07L2208.57 1462.31L2211.58 1461.3L2214.59 1457.8L2220.1 1449.27L2228.62 1435.24L2236.14 1422.21L2240.65 1414.19L2241.65 1409.68V1401.16L2239.65 1399.15V1393.64L2242.66 1393.14V1388.63L2241.15 1384.62V1379.1L2248.67 1265.32V1257.3L2242.66 1249.28L2238.65 1247.28L2230.12 1238.76L2222.61 1235.75L2210.58 1231.74L2199.55 1229.23L2160.45 1228.73V1225.22L2153.94 1224.22L2149.93 1223.22L2142.91 1223.72L2126.37 1219.71L2124.87 1219.21V1213.69H2129.88L2136.39 1214.7L2137.4 1215.2L2135.39 1210.69V1209.18H2134.39L2133.89 1211.69L2131.38 1211.19L2130.88 1210.19L2133.39 1204.17L2136.9 1198.66L2141.41 1195.15L2145.92 1193.65L2144.92 1191.64L2140.4 1185.12L2138.9 1181.62L2137.9 1178.11L2137.4 1177.61L2137.9 1171.59L2132.89 1171.09H2126.87L2124.36 1173.6L2118.35 1185.12L2115.34 1191.14L2110.83 1196.15L2108.83 1197.66L2107.32 1198.16H2103.31L2093.79 1196.65H2089.28L2082.26 1200.16L2077.75 1201.16L2071.73 1200.66L2065.72 1198.16L2063.72 1196.65L2062.21 1190.14L2061.21 1187.63L2061.71 1185.12L2064.72 1177.61V1176.1L2063.21 1174.6L2062.21 1171.09L2061.21 1170.59H2046.67L2046.17 1171.09H2023.12V1163.07H2044.67L2046.67 1164.57H2066.72L2069.23 1163.57L2077.25 1162.57L2078.25 1158.56L2079.25 1146.53L2082.26 1130.49L2086.27 1112.95L2088.28 1101.92L2088.78 1097.41V1091.39L2082.76 1093.9L2074.24 1096.41L2071.23 1095.9L2070.23 1093.9L2074.24 1090.89L2082.76 1086.88L2089.78 1084.38L2092.29 1084.88L2100.31 1081.87L2114.34 1078.36L2125.37 1074.85H2126.87L2125.37 1068.34L2120.35 1068.84L2105.32 1073.35L2103.31 1072.85V1071.85L2134.39 1062.32L2173.49 1050.29L2176.99 1049.79H2180.5L2192.53 1045.78ZM2167.47 1054.8L2166.97 1058.81H2168.47L2168.97 1054.8H2167.47ZM2161.96 1056.31L2151.93 1059.31V1059.82L2156.44 1060.82L2158.95 1063.32L2159.95 1065.33L2163.46 1064.83L2163.96 1064.33V1056.31H2161.96ZM2147.42 1060.32V1061.82H2149.43V1060.32H2147.42ZM2142.91 1061.32V1062.82H2144.41V1061.32H2142.91ZM2139.9 1062.82V1064.83L2137.4 1063.83L2132.89 1064.83L2128.88 1066.33L2129.38 1069.84L2130.38 1072.85L2140.91 1070.84L2141.41 1065.83L2142.41 1062.82H2139.9ZM2199.55 1157.56L2197.54 1161.57L2202.56 1163.57H2204.06L2207.07 1157.56H2199.55ZM2184.01 1162.57L2175.99 1163.07V1166.58L2178 1174.6L2184.01 1171.59L2186.02 1169.08L2186.52 1166.08L2185.01 1162.57H2184.01ZM2192.03 1167.58L2190.53 1169.59V1172.59L2193.53 1176.6L2195.04 1177.1L2198.05 1174.6L2202.06 1172.59L2201.05 1171.59L2195.54 1169.59L2193.53 1167.58H2192.03ZM2185.01 1174.1L2179 1177.1L2177.5 1177.61L2176.99 1184.62L2179.5 1186.13L2182.01 1185.63L2184.51 1182.12L2189.52 1179.61L2186.02 1174.1H2185.01ZM2160.95 1221.71V1223.22L2178 1223.72L2177.5 1222.22L2160.95 1221.71ZM2238.14 1240.26V1241.26L2241.15 1241.76V1240.26H2238.14ZM2266.71 1343.51L2265.21 1356.55L2262.71 1368.58L2260.7 1376.6V1378.6H2265.21L2269.22 1380.1V1373.09L2267.72 1346.52L2267.22 1343.51H2266.71Z" fill="#364338"/>
<g clip-path="url(#clip0_248_33700)">
<path d="M2183.22 1219.72H2184.73L2186.73 1220.22L2191.24 1223.73L2193.75 1223.23L2195.76 1222.23L2202.27 1221.23L2209.29 1221.73L2214.8 1223.73L2218.81 1227.24L2221.32 1231.25L2222.82 1237.27V1244.28L2221.32 1249.3L2218.31 1253.81L2214.3 1257.82L2213.3 1260.82L2210.79 1290.4L2210.29 1299.42V1314.96L2211.29 1322.48L2212.3 1326.99V1331L2211.79 1332.5L2217.81 1335.51V1339.52L2212.8 1341.02V1348.54L2215.8 1389.14V1396.66L2213.8 1400.67L2212.3 1400.17L2211.79 1398.16L2212.8 1394.15L2212.3 1390.64L2208.79 1397.66L2203.27 1411.7L2200.77 1418.71L2195.76 1425.73L2194.75 1430.24L2189.24 1437.76L2182.72 1446.78L2176.21 1455.3L2171.19 1461.32L2166.68 1468.84L2164.68 1472.35L2163.17 1480.37L2160.67 1485.38L2160.17 1485.88V1488.39L2162.67 1488.89V1497.41H2089.99L2092.5 1491.89H2087.49L2081.97 1492.9L2078.47 1495.9L2075.96 1496.41L2073.45 1494.9L2071.95 1496.41H2064.43L2064.93 1492.9L2060.42 1491.39L2062.43 1489.89L2073.45 1485.88L2077.46 1484.88H2089.99L2092.5 1483.87L2093 1479.36L2102.53 1476.36L2109.54 1474.35L2113.05 1473.85L2125.58 1468.34H2127.09V1471.84H2133.1L2136.11 1473.85L2137.61 1475.85V1476.86H2138.61L2140.12 1471.34L2142.12 1467.33L2144.13 1466.33H2147.64L2150.14 1462.32L2153.15 1461.32L2156.16 1457.81L2161.67 1449.29L2170.19 1435.25L2177.71 1422.22L2182.22 1414.2L2183.22 1409.69V1401.17L2181.22 1399.17V1393.65L2184.23 1393.15V1388.64L2182.72 1384.63V1379.12L2190.24 1265.34V1257.32L2184.23 1249.3L2180.22 1247.29L2171.7 1238.77L2164.18 1235.76M2179.72 1240.27V1241.28L2182.72 1241.78V1240.27H2179.72ZM2208.29 1343.53L2206.78 1356.56L2204.28 1368.59L2202.27 1376.61V1378.61H2206.78L2210.79 1380.12V1373.1L2209.29 1346.54L2208.79 1343.53H2208.29Z" fill="#364338"/>
</g>
<defs>
<linearGradient id="paint0_linear_248_33700" x1="2489.25" y1="1478.52" x2="2489.25" y2="610.672" gradientUnits="userSpaceOnUse">
<stop stop-color="#2B352D"/>
<stop offset="1" stop-color="#436149"/>
</linearGradient>
<linearGradient id="paint1_linear_248_33700" x1="2489.25" y1="1478.52" x2="2489.25" y2="610.672" gradientUnits="userSpaceOnUse">
<stop stop-color="#2B352D"/>
<stop offset="1" stop-color="#436149"/>
</linearGradient>
<clipPath id="clip0_248_33700">
<rect width="162.4" height="277.684" fill="white" transform="translate(2060.42 1219.72)"/>
</clipPath>
</defs>
</svg>
