<svg width="4479" height="2296" viewBox="0 0 4479 2296" fill="none" xmlns="http://www.w3.org/2000/svg">
<path d="M1239.19 1377.41L1212.78 1388.66V1796.22H2259.94V1442.06H2250.62L2233.53 1456.12L2219.55 1484.22H2210.23V1495.47L2197.8 1509.52L2190.03 1495.47H2183.81L2179.15 1509.52L2160.51 1495.47L2144.97 1484.22H2129.44L2117.01 1495.47H2107.69L2095.26 1484.22L2089.04 1475.79H2062.63L2051.75 1456.12L2040.88 1442.06L2037.77 1428.01H2023.79H2008.25L2000.48 1399.9L1986.5 1377.41L1977.18 1366.17V1354.93L1966.3 1338.06L1944.55 1349.31L1927.46 1324.01L1918.14 1329.63L1910.37 1335.25L1899.5 1346.5L1891.73 1349.31L1882.41 1354.93L1873.08 1346.5L1859.1 1324.01L1857.55 1318.39L1852.89 1324.01L1849.78 1307.14L1846.67 1301.52L1840.46 1321.2L1835.8 1326.82L1829.58 1338.06L1824.92 1335.25C1824.92 1335.25 1820.26 1326.26 1820.26 1324.01C1820.26 1321.76 1819.22 1315.58 1818.71 1312.77L1807.83 1338.06H1801.61C1799.54 1330.57 1795.4 1315.01 1795.4 1312.77C1795.4 1310.52 1791.26 1300.59 1789.19 1295.9L1787.63 1312.77L1782.97 1326.82L1778.31 1338.06H1775.2H1770.54L1768.99 1349.31L1764.33 1366.17L1755.01 1380.23H1736.36L1720.82 1405.52L1717.72 1408.33H1702.18L1697.52 1416.77H1686.64L1685.09 1411.14L1672.66 1399.9V1394.28H1660.23L1655.57 1399.9L1643.14 1408.33L1640.03 1394.28L1626.05 1399.9V1394.28H1612.07L1607.41 1388.66L1584.1 1399.9L1577.89 1411.14H1540.6L1525.06 1388.66L1517.3 1377.41L1492.44 1366.17L1486.22 1343.68L1466.03 1354.93H1461.36L1442.72 1343.68L1400.77 1388.66L1351.05 1394.28H1323.09L1304.45 1399.9V1394.28H1296.68L1293.57 1388.66L1285.8 1399.9L1254.73 1377.41H1239.19Z" fill="#849D89"/>
<path d="M1211.46 1385.01L1242.8 1396.25L1311.16 1705.08L4440.31 1636.73L4478.29 2381.04L0.0683594 2434.21V1449.66H11.1313L31.4136 1463.71L48.0078 1491.82H59.0708V1503.06L73.8213 1517.12L83.04 1503.06H90.4155L95.9473 1517.12L118.073 1503.06L136.511 1491.82H154.949L169.7 1503.06H180.763L195.513 1491.82L202.888 1483.39H234.234L247.14 1463.71L260.047 1449.66L263.735 1435.6H280.329H298.767L307.987 1407.5L324.581 1385.01L335.644 1373.77V1362.52L348.55 1345.66L374.364 1356.9L394.646 1331.6L405.709 1337.23L414.928 1342.85L427.835 1354.09L437.054 1356.9L448.117 1362.52L459.18 1354.09L475.774 1331.6L477.618 1325.98L483.15 1331.6L486.837 1314.74L490.525 1309.12L497.9 1328.79L503.431 1334.41L510.807 1345.66L516.339 1342.85C516.339 1342.85 521.87 1333.85 521.87 1331.6C521.87 1329.36 523.099 1323.17 523.714 1320.36L536.62 1345.66H543.996C546.454 1338.16 551.371 1322.61 551.371 1320.36C551.371 1318.11 556.288 1308.18 558.746 1303.5L560.59 1320.36L566.122 1334.41L571.653 1345.66H575.34H580.872L582.716 1356.9L588.247 1373.77L599.31 1387.82H621.436L639.875 1413.12L643.562 1415.93H662L667.532 1424.36H680.439L682.283 1418.74L697.033 1407.5V1401.87H711.783L717.315 1407.5L732.066 1415.93L735.753 1401.87L752.347 1407.5V1401.87H768.942L774.473 1396.25L802.131 1407.5L809.506 1418.74H853.758L872.196 1396.25L881.415 1385.01L910.917 1373.77L918.292 1351.28L942.261 1362.52H947.793L969.918 1351.28L1019.7 1396.25L1078.7 1401.87H1111.89L1134.02 1407.5V1401.87H1143.24L1146.93 1396.25L1156.14 1407.5L1193.02 1385.01H1211.46Z" fill="#849D89"/>
<path d="M3506.88 1385.01L3539.35 1396.25V1803.82H2251.99V1449.66H2263.45L2284.46 1463.71L2301.65 1491.82H2313.11V1503.06L2328.39 1517.12L2337.94 1503.06H2345.58L2351.31 1517.12L2374.23 1503.06L2393.33 1491.82H2412.43L2427.72 1503.06H2439.18L2454.46 1491.82L2462.1 1483.39H2494.57L2507.94 1463.71L2521.31 1449.66L2525.13 1435.6H2542.32H2561.42L2570.97 1407.5L2588.16 1385.01L2599.62 1373.77V1362.52L2612.99 1345.66L2639.73 1356.9L2660.74 1331.6L2672.2 1337.23L2681.75 1342.85L2695.12 1354.09L2704.67 1356.9L2716.13 1362.52L2727.59 1354.09L2744.78 1331.6L2746.69 1325.98L2752.42 1331.6L2756.24 1314.74L2760.06 1309.12L2767.7 1328.79L2773.43 1334.41L2781.07 1345.66L2786.8 1342.85C2786.8 1342.85 2792.53 1333.85 2792.53 1331.6C2792.53 1329.36 2793.8 1323.17 2794.44 1320.36L2807.81 1345.66H2815.45C2818 1338.16 2823.09 1322.61 2823.09 1320.36C2823.09 1318.11 2828.18 1308.18 2830.73 1303.5L2832.64 1320.36L2838.37 1334.41L2844.1 1345.66H2847.92H2853.65L2855.56 1356.9L2861.29 1373.77L2872.75 1387.82H2895.67L2914.77 1413.12L2918.59 1415.93H2937.69L2943.42 1424.36H2956.79L2958.7 1418.74L2973.98 1407.5V1401.87H2989.26L2994.99 1407.5L3010.27 1415.93L3014.09 1401.87L3031.28 1407.5V1401.87H3048.47L3054.2 1396.25L3082.85 1407.5L3090.49 1418.74H3136.33L3155.43 1396.25L3164.98 1385.01L3195.55 1373.77L3203.19 1351.28L3228.02 1362.52H3233.75L3256.67 1351.28L3308.24 1396.25L3369.36 1401.87H3403.74L3426.66 1407.5V1401.87H3436.21L3440.03 1396.25L3449.58 1407.5L3487.78 1385.01H3506.88Z" fill="#849D89"/>
<path d="M3336.1 1381.36L3309.55 1395.67L3355.24 1800.67L4457.7 1676.3L4418 1324.37L4408.19 1325.47L4391.77 1341.47L4380.2 1371.06L4370.38 1372.17L4371.64 1383.34L4360.13 1398.78L4350.38 1385.74L4343.84 1386.48L4340.51 1401L4319.3 1389.25L4301.69 1379.92L4285.33 1381.76L4273.5 1394.41L4263.69 1395.52L4249.34 1385.82L4241.85 1378.18L4214.05 1381.32L4200.39 1363.06L4187.37 1350.39L4182.52 1336.79L4167.8 1338.45L4151.44 1340.3L4140.11 1313.29L4122.87 1292.6L4111.8 1282.54L4110.54 1271.37L4097.2 1255.9L4075.56 1269.65L4054.73 1246.55L4045.54 1253.24L4038 1259.75L4027.81 1272.21L4019.94 1275.93L4010.76 1282.62L4000 1275.35L3982.76 1254.67L3980.49 1249.26L3976.21 1255.4L3971.05 1239.01L3967.15 1233.8L3962.81 1254.09L3958.54 1260.23L3953.25 1272.14L3948.03 1269.9C3948.03 1269.9 3942.12 1261.51 3941.86 1259.28C3941.61 1257.04 3939.83 1251.02 3938.97 1248.29L3930.35 1274.72L3923.81 1275.46C3920.79 1268.26 3914.68 1253.29 3914.43 1251.06C3914.18 1248.82 3908.71 1239.45 3906 1235.04L3906.25 1251.98L3902.92 1266.5L3899.28 1278.23L3896 1278.6L3891.1 1279.15L3890.72 1290.51L3887.71 1307.82L3879.47 1322.89L3859.84 1325.11L3846.32 1352.09L3843.36 1355.25L3827 1357.1L3823.04 1366.03L3811.59 1367.32L3809.33 1361.92L3794.98 1352.22L3794.35 1346.64L3781.26 1348.11L3776.99 1354.25L3764.85 1364.11L3760 1350.51L3745.91 1357.76L3745.28 1352.17L3730.56 1353.83L3725.02 1348.8L3701.75 1362.74L3696.46 1374.65L3657.21 1379.08L3638.33 1358.58L3628.89 1348.33L3601.46 1340.11L3592.4 1318.5L3572.39 1332.08L3567.48 1332.63L3546.6 1323.67L3507.47 1373.34L3455.76 1384.83L3426.32 1388.15L3407.32 1395.96L3406.69 1390.37L3398.51 1391.29L3394.61 1386.07L3387.69 1398.17L3352.46 1379.52L3336.1 1381.36Z" fill="#849D89"/>
<path d="M3354.22 0H3426.97L3478.94 13.8626L3520.51 31.1909L3558.62 55.4504V76.2443L3562.08 93.5726L3548.23 86.6413L3544.76 72.7787L3530.9 69.313L3523.98 62.3817L3520.51 69.313L3506.65 72.7787L3510.12 79.71L3503.19 83.1756L3506.65 107.435V110.901H3513.58L3517.05 128.229H3537.83L3562.08 149.023L3575.94 152.489L3565.55 135.16L3555.16 124.763L3541.3 121.298H3530.9L3523.98 100.504H3530.9L3537.83 110.901L3582.87 124.763L3600.19 138.626V145.557H3614.05V155.954L3624.44 166.351L3607.12 169.817L3603.66 180.214H3617.51L3620.98 194.076H3627.91L3631.37 183.679L3659.09 187.145L3662.55 201.008L3652.16 207.939V214.87H3638.3L3631.37 232.199L3638.3 235.664H3617.51V242.596L3641.77 246.061L3669.48 249.527L3666.02 256.458L3648.69 259.924L3652.16 284.183L3662.55 287.649L3666.02 298.046L3686.8 301.512L3679.87 318.84L3690.27 325.771L3686.8 343.099L3690.27 350.031L3683.34 353.496L3717.98 360.428L3724.91 367.359H3735.3L3745.7 356.962L3749.16 363.893V384.687L3731.84 388.153V402.015L3724.91 408.947L3711.05 405.481L3717.98 388.153H3704.12L3700.66 398.55L3669.48 395.084V377.756L3662.55 374.29V391.618L3652.16 377.756L3662.55 412.412L3655.62 415.878V405.481L3634.84 408.947L3627.91 405.481V398.55L3614.05 405.481H3600.19V398.55L3607.12 395.084L3610.59 381.222H3586.34L3575.94 377.756V388.153L3555.16 384.687L3551.69 391.618L3537.83 388.153L3534.37 377.756L3541.3 374.29L3586.34 370.825V363.893L3562.08 356.962L3537.83 360.428H3510.12L3472.01 353.496L3447.76 343.099L3461.62 339.634H3475.47V332.702H3523.98L3537.83 343.099H3544.76L3541.3 329.237L3544.76 322.305H3510.12L3492.8 315.374L3496.26 287.649L3513.58 291.115L3520.51 298.046H3562.08L3586.34 304.977L3593.26 318.84L3596.73 304.977L3593.26 280.718H3572.48L3565.55 273.786L3548.23 277.252H3523.98L3510.12 270.321L3499.73 280.718L3485.87 277.252L3478.94 259.924L3482.4 249.527L3503.19 246.061L3513.58 252.992L3534.37 249.527V235.664L3558.62 239.13L3555.16 225.267L3548.23 228.733H3503.19V221.802L3537.83 225.267L3534.37 218.336H3517.05L3513.58 201.008L3551.69 207.939L3555.16 214.87L3558.62 207.939L3569.01 204.473L3544.76 197.542V187.145L3555.16 183.679H3544.76L3537.83 194.076L3475.47 190.611L3465.08 187.145H3454.69V180.214L3444.3 183.679L3430.44 176.748L3451.22 162.886V155.954L3461.62 159.42L3465.08 166.351V155.954L3510.12 162.886L3506.65 152.489L3485.87 149.023L3475.47 155.954L3472.01 138.626L3468.55 110.901H3437.37V121.298H3430.44V114.366L3413.12 110.901L3423.51 103.97L3444.3 100.504L3437.37 93.5726L3423.51 97.0382H3385.4L3388.86 90.1069L3437.37 79.71L3420.04 76.2443L3399.26 69.313L3388.86 62.3817L3364.61 65.8474L3350.76 62.3817V55.4504H3368.08L3371.54 38.1222L3402.72 31.1909L3433.9 38.1222H3437.37L3426.97 31.1909L3385.4 24.2596L3378.47 17.3283L3381.94 10.397H3329.97L3333.43 3.46565L3354.22 0ZM3399.26 10.397L3392.33 17.3283L3451.22 27.7252H3468.55V20.7939H3454.69V13.8626L3399.26 10.397ZM3510.12 38.1222L3506.65 45.0535H3517.05L3527.44 55.4504H3534.37V48.5191L3520.51 38.1222H3510.12ZM3388.86 41.5878L3392.33 48.5191H3416.58V45.0535L3388.86 41.5878ZM3402.72 62.3817L3416.58 69.313L3430.44 65.8474L3423.51 62.3817H3402.72ZM3444.3 72.7787L3451.22 79.71V72.7787H3444.3ZM3523.98 138.626L3537.83 152.489L3541.3 142.092L3523.98 138.626ZM3579.41 180.214L3582.87 187.145H3593.26V180.214H3579.41ZM3544.76 239.13L3541.3 246.061L3551.69 242.596L3544.76 239.13ZM3631.37 291.115L3638.3 298.046L3641.77 291.115H3631.37ZM3555.16 315.374L3562.08 339.634L3569.01 325.771L3558.62 315.374H3555.16ZM3603.66 325.771V329.237H3624.44V325.771H3603.66ZM3672.95 363.893V367.359H3697.2V363.893H3672.95Z" fill="url(#paint0_linear_248_33726)"/>
<path d="M3187.93 90.1069L3194.86 103.97L3212.18 100.504L3201.79 128.229L3198.32 131.695H3163.68L3170.61 114.366L3187.93 90.1069ZM3181 117.832L3184.47 128.229L3187.93 117.832H3181Z" fill="url(#paint1_linear_248_33726)"/>
<path d="M3142.89 51.9848L3160.21 55.4504V65.8474L3181 72.7787L3170.61 76.2443L3167.14 93.5726L3163.68 103.97L3160.21 121.298H3149.82V117.832L3139.43 128.229L3187.93 135.16H3194.86L3229.5 117.832L3243.36 114.366H3295.33L3336.9 135.16L3361.15 162.886L3371.54 187.145L3375.01 221.802L3364.61 263.389L3343.83 298.046L3326.51 318.84L3343.83 315.374L3347.29 318.84V301.512H3357.69L3364.61 294.58L3368.08 304.977L3381.94 308.443V301.512L3368.08 298.046V294.58H3385.4L3388.86 311.909V318.84H3364.61V329.237L3381.94 332.702L3385.4 363.893V370.825H3392.33V332.702H3395.79L3399.26 353.496H3402.72V391.618L3399.26 402.015H3406.19V374.29L3409.65 388.153H3420.04L3423.51 395.084L3430.44 381.222V343.099L3437.37 318.84H3440.83V370.825L3437.37 412.412L3423.51 415.878L3437.37 419.344L3579.41 429.741L3738.77 433.206V436.672L3721.45 440.138H3600.19L3503.19 433.206H3461.62L3444.3 429.741L3350.76 422.809L3440.83 433.206L3454.69 440.138L3451.22 450.535L3444.3 447.069L3447.76 440.138H3437.37L3433.9 450.535L3420.04 457.466L3413.12 450.535L3409.65 474.794H3437.37L3440.83 488.657L3451.22 499.054L3447.76 505.985L3440.83 502.519V512.916L3458.15 509.451L3465.08 447.069H3468.55V485.191L3465.08 505.985L3485.87 502.519V509.451L3506.65 505.985H3527.44V499.054H3537.83V509.451H3565.55L3562.08 502.519L3548.23 495.588H3558.62V485.191H3527.44L3520.51 478.26H3558.62L3575.94 481.725V471.328H3586.34V478.26L3614.05 481.725V471.328H3638.3L3655.62 478.26L3676.41 481.725L3672.95 499.054L3679.87 495.588L3683.34 478.26L3686.8 471.328H3693.73V499.054H3704.12L3700.66 481.725L3704.12 467.863L3714.52 471.328L3721.45 460.931L3735.3 464.397L3742.23 457.466L3738.77 488.657L3711.05 564.901L3707.59 568.367L3672.95 571.832L3652.16 578.764L3641.77 575.298L3638.3 589.161H3593.26L3600.19 599.558L3593.26 606.489L3569.01 603.023L3544.76 596.092L3562.08 613.42V620.351L3541.3 634.214V641.145H3506.65L3503.19 648.077H3510.12V655.008L3499.73 658.474L3517.05 665.405L3506.65 675.802L3510.12 682.733L3506.65 689.664H3527.44L3534.37 696.596H3517.05V703.527H3475.47L3468.55 724.321L3461.62 727.787V738.183L3430.44 762.443H3447.76L3454.69 758.977L3475.47 762.443L3472.01 769.374L3440.83 776.306L3375.01 779.771V783.237H3302.25L3239.9 769.374L3184.47 748.58L3135.96 720.855L3094.39 689.664L3087.46 682.733L3090.93 672.336L3111.71 686.199L3129.03 703.527L3122.11 686.199L3170.61 693.13H3174.07L3108.25 675.802L3094.39 655.008H3084L3080.53 661.939L3097.86 665.405L3101.32 672.336L3070.14 665.405L3038.96 630.748L3004.32 578.764L2980.07 523.313L2962.74 460.931L2959.28 443.603V381.222L2976.6 384.687H2986.99L2990.46 381.222L2959.28 374.29V343.099L2973.14 273.786L2990.46 225.267L3004.32 204.473L3018.17 176.748L3049.35 135.16L3087.46 93.5726L3125.57 62.3817L3142.89 51.9848ZM3090.93 103.97L3084 117.832L3097.86 103.97H3090.93ZM3115.18 103.97L3118.64 110.901L3122.11 103.97H3115.18ZM3097.86 128.229V131.695H3122.11V128.229H3097.86ZM3087.46 135.16L3077.07 152.489L3073.6 176.748L3084 166.351L3097.86 142.092V135.16H3087.46ZM3070.14 138.626L3052.82 162.886L3056.28 173.283L3077.07 145.557V138.626H3070.14ZM3177.54 142.092L3153.29 166.351L3132.5 207.939L3129.03 228.733V266.855L3142.89 298.046L3167.14 325.771L3194.86 339.634L3208.72 343.099H3260.68L3288.4 336.168L3316.11 325.771L3312.65 318.84L3274.54 325.771L3226.04 322.305L3194.86 308.443L3163.68 277.252H3153.29V201.008L3163.68 173.283L3184.47 142.092H3177.54ZM3042.42 155.954L3025.1 183.679L3028.57 194.076L3045.89 166.351L3042.42 155.954ZM3101.32 155.954L3087.46 176.748L3084 190.611H3090.93L3094.39 180.214L3104.78 176.748L3108.25 155.954H3101.32ZM3129.03 155.954L3122.11 166.351H3132.5L3129.03 155.954ZM3354.22 207.939L3347.29 214.87V239.13L3364.61 235.664L3368.08 232.199V207.939H3354.22ZM3049.35 218.336L3028.57 280.718L3014.71 277.252V291.115H3025.1V308.443H3032.03L3049.35 242.596L3052.82 239.13H3070.14L3073.6 225.267L3059.75 221.802L3056.28 225.267L3049.35 218.336ZM3336.9 221.802L3326.51 228.733L3329.97 232.199L3319.58 239.13L3336.9 242.596L3343.83 225.267L3336.9 221.802ZM3073.6 235.664V242.596L3101.32 246.061V239.13L3073.6 235.664ZM3115.18 242.596L3108.25 259.924L3111.71 273.786L3118.64 242.596H3115.18ZM3184.47 249.527L3167.14 256.458L3174.07 266.855V259.924L3187.93 270.321L3181 273.786L3184.47 284.183H3198.32V273.786L3208.72 266.855L3205.25 252.992L3201.79 249.527H3184.47ZM3319.58 249.527L3329.97 259.924V249.527H3319.58ZM3077.07 252.992L3070.14 284.183L3077.07 280.718L3080.53 252.992H3077.07ZM3316.11 256.458V263.389L3329.97 266.855V259.924L3316.11 256.458ZM3049.35 273.786L3045.89 294.58L3056.28 284.183L3052.82 273.786H3049.35ZM3101.32 287.649L3097.86 318.84L3104.78 311.909L3108.25 287.649H3101.32ZM3222.57 291.115L3219.11 304.977L3226.04 291.115H3222.57ZM3316.11 291.115L3319.58 304.977L3333.43 301.512V294.58L3316.11 291.115ZM3038.96 304.977L3035.5 322.305L3042.42 318.84L3038.96 304.977ZM3142.89 315.374L3139.43 329.237V360.428H3142.89L3146.36 315.374H3142.89ZM3063.21 322.305L3059.75 336.168L3063.21 343.099H3070.14L3066.68 363.893L3084 360.428L3094.39 329.237L3084 322.305H3063.21ZM3118.64 322.305V346.565H3122.11V322.305H3118.64ZM3208.72 350.031V377.756L3215.64 374.29V350.031H3208.72ZM2962.74 356.962V363.893L2976.6 360.428L2962.74 356.962ZM3090.93 356.962L3094.39 370.825L3097.86 360.428L3090.93 356.962ZM3045.89 311.909L3038.96 325.771H3032.03V346.565L3035.5 356.962L3028.57 363.893H3025.1V346.565H3018.17V363.893L2983.53 360.428V367.359L2993.92 374.29L3052.82 381.222V374.29L3042.42 370.825L3049.35 311.909H3045.89ZM3066.68 377.756L3063.21 384.687H3084L3080.53 377.756H3066.68ZM3004.32 381.222V388.153L3014.71 395.084H3035.5V384.687L3004.32 381.222ZM3042.42 388.153L3045.89 395.084L3084 402.015L3087.46 391.618L3070.14 388.153H3042.42ZM3222.57 388.153V402.015H3246.82L3250.29 391.618H3229.5L3222.57 388.153ZM3381.94 388.153V405.481L3388.86 398.55V388.153H3381.94ZM3118.64 395.084V402.015L3125.57 405.481L3132.5 415.878L3146.36 412.412V405.481L3177.54 412.412L3184.47 415.878L3181 402.015L3118.64 395.084ZM3014.71 398.55L3011.25 405.481V426.275L3014.71 433.206H3021.64L3025.1 443.603H3032.03V412.412H3021.64V398.55H3014.71ZM3267.61 398.55L3271.08 405.481H3295.33L3288.4 398.55H3267.61ZM3350.76 405.481V412.412L3381.94 408.947V405.481H3350.76ZM3153.29 415.878L3156.75 422.809L3170.61 415.878H3153.29ZM3187.93 415.878L3201.79 422.809V415.878H3187.93ZM3056.28 422.809L3052.82 426.275V447.069L3063.21 450.535V426.275L3056.28 422.809ZM3045.89 426.275L3042.42 429.741L3045.89 464.397L3063.21 467.863V460.931H3052.82L3049.35 426.275H3045.89ZM3066.68 426.275L3070.14 454H3073.6L3077.07 429.741L3066.68 426.275ZM3194.86 426.275L3191.39 436.672L3198.32 443.603V426.275H3194.86ZM3326.51 433.206L3329.97 447.069L3336.9 450.535L3333.43 433.206H3326.51ZM3191.39 450.535L3187.93 499.054H3181L3177.54 492.122L3160.21 495.588L3163.68 509.451H3232.97L3229.5 502.519H3201.79V474.794L3198.32 450.535H3191.39ZM3028.57 454L3032.03 464.397L3035.5 454H3028.57ZM3073.6 454V460.931H3087.46L3084 454H3073.6ZM3326.51 454L3323.04 478.26L3329.97 485.191L3319.58 488.657V509.451H3329.97L3336.9 492.122V460.931L3326.51 454ZM3018.17 474.794V509.451L3025.1 512.916L3028.57 502.519V478.26L3018.17 474.794ZM3049.35 474.794L3035.5 481.725L3042.42 519.848L3049.35 554.504L3059.75 557.97L3052.82 519.848V488.657L3063.21 519.848L3066.68 509.451L3063.21 485.191H3070.14L3073.6 519.848L3080.53 526.779L3077.07 488.657L3084 492.122L3090.93 523.313V530.244L3101.32 526.779L3097.86 499.054L3153.29 502.519L3149.82 495.588L3125.57 492.122L3097.86 481.725L3066.68 478.26L3049.35 474.794ZM3222.57 481.725V499.054L3232.97 492.122L3250.29 495.588V485.191L3222.57 481.725ZM3624.44 499.054L3620.98 505.985H3634.84V499.054H3624.44ZM3028.57 502.519V526.779L3038.96 523.313L3032.03 502.519H3028.57ZM3368.08 502.519L3354.22 509.451L3361.15 512.916L3364.61 519.848L3368.08 512.916L3375.01 519.848L3378.47 505.985L3368.08 502.519ZM3267.61 516.382V519.848L3291.86 526.779V516.382H3267.61ZM3302.25 519.848L3295.33 533.71H3309.18L3302.25 519.848ZM3063.21 526.779L3070.14 533.71L3073.6 526.779H3063.21ZM3454.69 523.313L3440.83 530.244H3458.15L3454.69 523.313ZM3090.93 537.176L3084 540.641L3087.46 551.038L3101.32 554.504L3118.64 551.038L3129.03 547.573L3101.32 537.176H3090.93ZM3212.18 554.504V564.901L3222.57 561.435L3212.18 554.504ZM3232.97 554.504V571.832H3236.43V554.504H3232.97ZM3575.94 561.435V571.832L3582.87 564.901L3575.94 561.435ZM3284.93 564.901L3288.4 582.229L3291.86 568.367L3284.93 564.901ZM3243.36 575.298L3257.22 582.229L3264.15 575.298H3243.36ZM3537.83 585.695L3541.3 592.626L3548.23 585.695H3537.83ZM3104.78 596.092L3111.71 609.954L3115.18 599.558L3104.78 596.092ZM3139.43 596.092L3135.96 599.558L3139.43 630.748L3132.5 609.954L3125.57 623.817L3129.03 630.748H3122.11L3111.71 616.886L3104.78 641.145L3087.46 637.68L3090.93 648.077L3122.11 651.542L3129.03 672.336L3132.5 661.939L3125.57 644.611L3111.71 641.145L3115.18 637.68L3170.61 651.542L3177.54 661.939V648.077L3201.79 655.008L3208.72 648.077L3205.25 630.748L3215.64 641.145L3226.04 655.008L3222.57 630.748L3205.25 620.351L3194.86 623.817L3187.93 634.214V644.611L3177.54 641.145L3170.61 627.283V641.145L3153.29 637.68L3149.82 620.351L3142.89 596.092H3139.43ZM3312.65 627.283V637.68H3319.58L3316.11 627.283H3312.65ZM3052.82 630.748L3066.68 655.008L3073.6 658.474L3070.14 644.611L3080.53 641.145L3059.75 630.748H3052.82ZM3246.82 634.214L3253.75 648.077H3267.61V637.68L3246.82 634.214ZM3347.29 634.214V641.145L3361.15 644.611L3350.76 634.214H3347.29ZM3336.9 641.145V648.077L3347.29 644.611L3336.9 641.145ZM3381.94 641.145V651.542L3409.65 655.008V644.611H3388.86L3381.94 641.145ZM3468.55 644.611L3482.4 651.542V644.611H3468.55ZM3246.82 651.542L3250.29 686.199L3253.75 693.13L3271.08 710.458L3274.54 703.527L3267.61 675.802L3260.68 672.336L3271.08 665.405L3264.15 651.542H3246.82ZM3333.43 651.542L3326.51 661.939L3354.22 668.871L3357.69 655.008L3347.29 658.474L3343.83 651.542H3333.43ZM3326.51 668.871L3333.43 679.267L3329.97 689.664L3347.29 693.13V682.733H3340.36L3343.83 672.336L3326.51 668.871ZM3406.19 668.871V672.336H3423.51V668.871H3406.19ZM3281.47 672.336V679.267L3295.33 675.802L3281.47 672.336ZM3312.65 672.336V689.664H3305.72V703.527L3316.11 706.993L3319.58 700.061V675.802L3312.65 672.336ZM3357.69 675.802V679.267H3375.01V675.802H3357.69ZM3388.86 679.267L3392.33 693.13H3406.19V686.199H3395.79V679.267H3388.86ZM3284.93 693.13L3288.4 700.061L3295.33 696.596L3284.93 693.13ZM3215.64 696.596V703.527L3246.82 706.993V700.061L3215.64 696.596ZM3326.51 696.596L3329.97 703.527L3343.83 700.061L3326.51 696.596ZM3364.61 700.061L3375.01 706.993L3378.47 700.061H3364.61ZM3326.51 706.993L3329.97 713.924L3343.83 710.458L3326.51 706.993ZM3375.01 706.993L3361.15 713.924L3381.94 717.39V706.993H3375.01ZM3388.86 710.458V717.39L3406.19 713.924V710.458H3388.86ZM3347.29 727.787L3350.76 734.718H3364.61V727.787H3347.29ZM3385.4 738.183L3388.86 745.115L3395.79 741.649L3385.4 738.183ZM3406.19 738.183L3399.26 752.046L3423.51 755.512L3426.97 745.115L3406.19 738.183ZM3423.51 738.183V741.649H3444.3V738.183H3423.51ZM3329.97 765.909L3333.43 776.306H3354.22V765.909H3329.97Z" fill="url(#paint2_linear_248_33726)"/>
<path d="M3503.19 402.015L3520.51 405.481L3523.98 419.344H3503.19V402.015Z" fill="url(#paint3_linear_248_33726)"/>
<path d="M3475.47 440.138H3482.4L3485.87 485.191L3472.01 499.054L3475.47 440.138Z" fill="url(#paint4_linear_248_33726)"/>
<path d="M2815.83 800.075L2830.06 788.045L2758.59 704.635L2758.37 690.962L2760.55 689.894C2766.38 683.467 2761.71 679.118 2758.65 677.747L2745.08 676.466L2742.7 660.987L2741.3 660.169L2735.18 659.798L2734.7 656.466L2737.56 655.715L2737.08 653.866L2735.68 653.048L2730.69 652.873L2730.18 650.932L2735.27 649.599L2722.56 536.356L2720.96 535.888L2697.9 536.5L2697.03 537.321L2674.14 649.327L2674.56 650.898L2684.62 665.548L2687.86 664.699L2705.29 658.844L2705.46 659.491L2698.49 661.912L2696.88 663.715L2695.76 664.701L2676.65 671.689L2675.57 674.343L2673.54 675.665C2671.9 676.648 2670.53 678.728 2670.04 679.645L2668.65 681.886L2656.84 686.171C2652.37 691.766 2656.48 696.736 2659.09 698.522C2656.83 701.847 2652.13 709 2651.4 711.011C2650.66 713.022 2651.97 713.724 2652.73 713.823L2661.51 714.186L2625.51 762.254L2627.33 764.644L2644.59 755.87C2659.54 740.06 2689.72 708.054 2690.82 706.502C2691.91 704.951 2695.23 703.369 2696.75 702.772L2724.64 707.412L2724.35 710.058C2724.11 715.178 2725.97 716.22 2726.92 716.101L2727.21 717.21C2727.11 719.844 2728.55 721.042 2729.28 721.312L2815.83 800.075Z" fill="#7E8A93" fill-opacity="0.7"/>
<defs>
<linearGradient id="paint0_linear_248_33726" x1="3225.27" y1="6.27657e-06" x2="3419.7" y2="681.389" gradientUnits="userSpaceOnUse">
<stop stop-color="#90A5A0"/>
<stop offset="1" stop-color="#54706B" stop-opacity="0"/>
</linearGradient>
<linearGradient id="paint1_linear_248_33726" x1="3225.27" y1="6.27657e-06" x2="3419.7" y2="681.389" gradientUnits="userSpaceOnUse">
<stop stop-color="#90A5A0"/>
<stop offset="1" stop-color="#54706B" stop-opacity="0"/>
</linearGradient>
<linearGradient id="paint2_linear_248_33726" x1="3225.27" y1="6.27657e-06" x2="3419.7" y2="681.389" gradientUnits="userSpaceOnUse">
<stop stop-color="#90A5A0"/>
<stop offset="1" stop-color="#54706B" stop-opacity="0"/>
</linearGradient>
<linearGradient id="paint3_linear_248_33726" x1="3225.27" y1="6.27657e-06" x2="3419.7" y2="681.389" gradientUnits="userSpaceOnUse">
<stop stop-color="#90A5A0"/>
<stop offset="1" stop-color="#54706B" stop-opacity="0"/>
</linearGradient>
<linearGradient id="paint4_linear_248_33726" x1="3225.27" y1="6.27657e-06" x2="3419.7" y2="681.389" gradientUnits="userSpaceOnUse">
<stop stop-color="#90A5A0"/>
<stop offset="1" stop-color="#54706B" stop-opacity="0"/>
</linearGradient>
</defs>
</svg>
