<svg width="4682" height="2531" viewBox="0 0 4682 2531" fill="none" xmlns="http://www.w3.org/2000/svg">
<path d="M1305.2 1450.86L1277.38 1462.7V1892H2380.38V1518.96H2370.56L2352.55 1533.76L2337.83 1563.37H2328.01V1575.21L2314.92 1590.01L2306.73 1575.21H2300.19L2295.28 1590.01L2275.64 1575.21L2259.27 1563.37H2242.91L2229.82 1575.21H2220L2206.91 1563.37L2200.36 1554.48H2172.54L2161.08 1533.76L2149.63 1518.96L2146.36 1504.15H2131.63H2115.26L2107.08 1474.54L2092.35 1450.86L2082.53 1439.02V1427.17L2071.08 1409.41L2048.17 1421.25L2030.16 1394.61L2020.35 1400.53L2012.16 1406.45L2000.71 1418.29L1992.52 1421.25L1982.71 1427.17L1972.89 1418.29L1958.16 1394.61L1956.52 1388.69L1951.61 1394.61L1948.34 1376.84L1945.07 1370.92L1938.52 1391.65L1933.61 1397.57L1927.06 1409.41L1922.16 1406.45C1922.16 1406.45 1917.25 1396.98 1917.25 1394.61C1917.25 1392.24 1916.15 1385.72 1915.61 1382.76L1904.15 1409.41H1897.61C1895.43 1401.51 1891.06 1385.13 1891.06 1382.76C1891.06 1380.4 1886.7 1369.93 1884.52 1365L1882.88 1382.76L1877.97 1397.57L1873.06 1409.41H1869.79H1864.88L1863.24 1421.25L1858.33 1439.02L1848.51 1453.82H1828.88L1812.51 1480.47L1809.24 1483.43H1792.87L1787.96 1492.31H1776.51L1774.87 1486.39L1761.78 1474.54V1468.62H1748.69L1743.78 1474.54L1730.69 1483.43L1727.41 1468.62L1712.68 1474.54V1468.62H1697.96L1693.05 1462.7L1668.5 1474.54L1661.95 1486.39H1622.68L1606.31 1462.7L1598.13 1450.86L1571.94 1439.02L1565.4 1415.33L1544.12 1427.17H1539.21L1519.58 1415.33L1475.39 1462.7L1423.02 1468.62H1393.57L1373.93 1474.54V1468.62H1365.75L1362.47 1462.7L1354.29 1474.54L1321.56 1450.86H1305.2Z" fill="#849D89"/>
<path d="M1275.98 1458.86L1309 1470.7L1381 1796L4677 1724L4717 2508L0 2564V1526.96H11.6528L33.0166 1541.76L50.4956 1571.37H62.1484V1583.21L77.6855 1598.01L87.396 1583.21H95.1646L100.991 1598.01L124.297 1583.21L143.718 1571.37H163.14L178.677 1583.21H190.329L205.866 1571.37L213.635 1562.48H246.651L260.246 1541.76L273.841 1526.96L277.726 1512.15H295.205H314.626L324.337 1482.54L341.816 1458.86L353.469 1447.02V1435.17L367.063 1417.41L394.254 1429.25L415.617 1402.61L427.27 1408.53L436.98 1414.45L450.576 1426.29L460.286 1429.25L471.939 1435.17L483.592 1426.29L501.071 1402.61L503.014 1396.69L508.84 1402.61L512.724 1384.84L516.608 1378.92L524.377 1399.65L530.203 1405.57L537.972 1417.41L543.798 1414.45C543.798 1414.45 549.625 1404.98 549.625 1402.61C549.625 1400.24 550.919 1393.72 551.567 1390.76L565.162 1417.41H572.93C575.52 1409.51 580.699 1393.13 580.699 1390.76C580.699 1388.4 585.878 1377.93 588.467 1373L590.409 1390.76L596.236 1405.57L602.062 1417.41H605.946H611.773L613.715 1429.25L619.542 1447.02L631.194 1461.82H654.5L673.921 1488.47L677.806 1491.43H697.227L703.054 1500.31H716.648L718.591 1494.39L734.127 1482.54V1476.62H749.665L755.491 1482.54L771.028 1491.43L774.913 1476.62L792.392 1482.54V1476.62H809.871L815.697 1470.7L844.829 1482.54L852.598 1494.39H899.209L918.631 1470.7L928.341 1458.86L959.416 1447.02L967.184 1423.33L992.432 1435.17H998.258L1021.56 1423.33L1074 1470.7L1136.15 1476.62H1171.11L1194.41 1482.54V1476.62H1204.12L1208.01 1470.7L1217.72 1482.54L1256.56 1458.86H1275.98Z" fill="#849D89"/>
<path d="M3693.8 1458.86L3728 1470.7V1900H2372V1526.96H2384.07L2406.2 1541.76L2424.31 1571.37H2436.38V1583.21L2452.47 1598.01L2462.53 1583.21H2470.58L2476.62 1598.01L2500.76 1583.21L2520.88 1571.37H2541L2557.09 1583.21H2569.16L2585.26 1571.37L2593.31 1562.48H2627.51L2641.59 1541.76L2655.67 1526.96L2659.7 1512.15H2677.8H2697.92L2707.98 1482.54L2726.09 1458.86L2738.16 1447.02V1435.17L2752.24 1417.41L2780.41 1429.25L2802.54 1402.61L2814.61 1408.53L2824.67 1414.45L2838.75 1426.29L2848.81 1429.25L2860.88 1435.17L2872.96 1426.29L2891.06 1402.61L2893.07 1396.69L2899.11 1402.61L2903.13 1384.84L2907.16 1378.92L2915.2 1399.65L2921.24 1405.57L2929.29 1417.41L2935.32 1414.45C2935.32 1414.45 2941.36 1404.98 2941.36 1402.61C2941.36 1400.24 2942.7 1393.72 2943.37 1390.76L2957.45 1417.41H2965.5C2968.18 1409.51 2973.55 1393.13 2973.55 1390.76C2973.55 1388.4 2978.91 1377.93 2981.6 1373L2983.61 1390.76L2989.64 1405.57L2995.68 1417.41H2999.7H3005.74L3007.75 1429.25L3013.79 1447.02L3025.86 1461.82H3050L3070.12 1488.47L3074.14 1491.43H3094.26L3100.3 1500.31H3114.38L3116.39 1494.39L3132.49 1482.54V1476.62H3148.58L3154.62 1482.54L3170.71 1491.43L3174.74 1476.62L3192.84 1482.54V1476.62H3210.95L3216.99 1470.7L3247.16 1482.54L3255.21 1494.39H3303.5L3323.61 1470.7L3333.67 1458.86L3365.86 1447.02L3373.91 1423.33L3400.07 1435.17H3406.1L3430.24 1423.33L3484.56 1470.7L3548.94 1476.62H3585.16L3609.3 1482.54V1476.62H3619.36L3623.38 1470.7L3633.44 1482.54L3673.68 1458.86H3693.8Z" fill="#849D89"/>
<path d="M3513.91 1455.02L3485.95 1470.09L3534.08 1896.68L4695.32 1765.68L4653.5 1394.98L4643.16 1396.15L4625.87 1413L4613.68 1444.17L4603.35 1445.33L4604.67 1457.1L4592.55 1473.37L4582.28 1459.63L4575.39 1460.41L4571.88 1475.7L4549.54 1463.32L4530.98 1453.5L4513.76 1455.44L4501.3 1468.76L4490.96 1469.93L4475.85 1459.72L4467.96 1451.67L4438.67 1454.97L4424.29 1435.74L4410.57 1422.39L4405.47 1408.07L4389.96 1409.82L4372.73 1411.76L4360.8 1383.31L4342.64 1361.53L4330.97 1350.92L4329.64 1339.16L4315.59 1322.86L4292.8 1337.35L4270.86 1313.01L4261.19 1320.06L4253.23 1326.92L4242.5 1340.05L4234.22 1343.96L4224.55 1351.01L4213.21 1343.35L4195.05 1321.57L4192.66 1315.88L4188.16 1322.34L4182.72 1305.08L4178.61 1299.58L4174.04 1320.96L4169.54 1327.42L4163.97 1339.97L4158.47 1337.61C4158.47 1337.61 4152.24 1328.78 4151.98 1326.43C4151.71 1324.07 4149.83 1317.73 4148.93 1314.85L4139.85 1342.69L4132.96 1343.47C4129.78 1335.88 4123.35 1320.12 4123.08 1317.77C4122.82 1315.41 4117.05 1305.54 4114.2 1300.89L4114.47 1318.74L4110.96 1334.03L4107.12 1346.38L4103.67 1346.77L4098.5 1347.35L4098.11 1359.32L4094.93 1377.55L4086.25 1393.43L4065.58 1395.76L4051.34 1424.18L4048.22 1427.51L4030.99 1429.46L4026.82 1438.87L4014.76 1440.23L4012.37 1434.54L3997.26 1424.32L3996.6 1418.44L3982.82 1420L3978.31 1426.46L3965.52 1436.84L3960.42 1422.52L3945.57 1430.16L3944.91 1424.27L3929.4 1426.02L3923.57 1420.72L3899.06 1435.4L3893.49 1447.95L3852.14 1452.61L3832.26 1431.02L3822.32 1420.22L3793.42 1411.57L3783.87 1388.81L3762.8 1403.1L3757.64 1403.69L3735.63 1394.25L3694.42 1446.57L3639.96 1458.67L3608.94 1462.17L3588.93 1470.39L3588.27 1464.5L3579.65 1465.48L3575.54 1459.98L3568.26 1472.72L3531.14 1453.07L3513.91 1455.02Z" fill="#849D89"/>
<path d="M3533 0H3609.63L3664.37 14.6018L3708.16 32.854L3748.3 58.4071V80.3097L3751.95 98.5619L3737.35 91.2611L3733.7 76.6593L3719.11 73.0088L3711.81 65.708L3708.16 73.0088L3693.56 76.6593L3697.21 83.9602L3689.91 87.6106L3693.56 113.164V116.814H3700.86L3704.51 135.066H3726.4L3751.95 156.969L3766.54 160.619L3755.6 142.367L3744.65 131.416L3730.05 127.765H3719.11L3711.81 105.863H3719.11L3726.4 116.814L3773.84 131.416L3792.09 146.018V153.319H3806.68V164.27L3817.63 175.221L3799.39 178.872L3795.74 189.823H3810.33L3813.98 204.425H3821.28L3824.93 193.473L3854.12 197.124L3857.77 211.726L3846.82 219.027V226.327H3832.23L3824.93 244.58L3832.23 248.23H3810.33V255.531L3835.88 259.181L3865.07 262.832L3861.42 270.133L3843.18 273.783L3846.82 299.336L3857.77 302.987L3861.42 313.938L3883.32 317.588L3876.02 335.841L3886.96 343.142L3883.32 361.394L3886.96 368.695L3879.67 372.345L3916.16 379.646L3923.46 386.947H3934.4L3945.35 375.996L3949 383.296V405.199L3930.75 408.85V423.451L3923.46 430.752L3908.86 427.102L3916.16 408.85H3901.56L3897.91 419.801L3865.07 416.15V397.898L3857.77 394.248V412.5L3846.82 397.898L3857.77 434.403L3850.47 438.053V427.102L3828.58 430.752L3821.28 427.102V419.801L3806.68 427.102H3792.09V419.801L3799.39 416.15L3803.04 401.549H3777.49L3766.54 397.898V408.85L3744.65 405.199L3741 412.5L3726.4 408.85L3722.75 397.898L3730.05 394.248L3777.49 390.597V383.296L3751.95 375.996L3726.4 379.646H3697.21L3657.07 372.345L3631.53 361.394L3646.12 357.743H3660.72V350.442H3711.81L3726.4 361.394H3733.7L3730.05 346.792L3733.7 339.491H3697.21L3678.96 332.19L3682.61 302.987L3700.86 306.637L3708.16 313.938H3751.95L3777.49 321.239L3784.79 335.841L3788.44 321.239L3784.79 295.686H3762.89L3755.6 288.385L3737.35 292.035H3711.81L3697.21 284.735L3686.26 295.686L3671.67 292.035L3664.37 273.783L3668.02 262.832L3689.91 259.181L3700.86 266.482L3722.75 262.832V248.23L3748.3 251.881L3744.65 237.279L3737.35 240.929H3689.91V233.628L3726.4 237.279L3722.75 229.978H3704.51L3700.86 211.726L3741 219.027L3744.65 226.327L3748.3 219.027L3759.25 215.376L3733.7 208.075V197.124L3744.65 193.473H3733.7L3726.4 204.425L3660.72 200.774L3649.77 197.124H3638.82V189.823L3627.88 193.473L3613.28 186.173L3635.18 171.571V164.27L3646.12 167.92L3649.77 175.221V164.27L3697.21 171.571L3693.56 160.619L3671.67 156.969L3660.72 164.27L3657.07 146.018L3653.42 116.814H3620.58V127.765H3613.28V120.465L3595.04 116.814L3605.98 109.513L3627.88 105.863L3620.58 98.5619L3605.98 102.212H3565.84L3569.49 94.9115L3620.58 83.9602L3602.33 80.3097L3580.44 73.0088L3569.49 65.708L3543.95 69.3584L3529.35 65.708V58.4071H3547.6L3551.25 40.1549L3584.09 32.854L3616.93 40.1549H3620.58L3609.63 32.854L3565.84 25.5531L3558.54 18.2522L3562.19 10.9513H3507.46L3511.11 3.65044L3533 0ZM3580.44 10.9513L3573.14 18.2522L3635.18 29.2035H3653.42V21.9027H3638.82V14.6018L3580.44 10.9513ZM3697.21 40.1549L3693.56 47.4558H3704.51L3715.46 58.4071H3722.75V51.1062L3708.16 40.1549H3697.21ZM3569.49 43.8053L3573.14 51.1062H3598.68V47.4558L3569.49 43.8053ZM3584.09 65.708L3598.68 73.0088L3613.28 69.3584L3605.98 65.708H3584.09ZM3627.88 76.6593L3635.18 83.9602V76.6593H3627.88ZM3711.81 146.018L3726.4 160.619L3730.05 149.668L3711.81 146.018ZM3770.19 189.823L3773.84 197.124H3784.79V189.823H3770.19ZM3733.7 251.881L3730.05 259.181L3741 255.531L3733.7 251.881ZM3824.93 306.637L3832.23 313.938L3835.88 306.637H3824.93ZM3744.65 332.19L3751.95 357.743L3759.25 343.142L3748.3 332.19H3744.65ZM3795.74 343.142V346.792H3817.63V343.142H3795.74ZM3868.72 383.296V386.947H3894.26V383.296H3868.72Z" fill="url(#paint0_linear_248_33726)"/>
<path d="M3357.84 94.9115L3365.14 109.513L3383.39 105.863L3372.44 135.066L3368.79 138.717H3332.3L3339.6 120.465L3357.84 94.9115ZM3350.54 124.115L3354.19 135.066L3357.84 124.115H3350.54Z" fill="url(#paint1_linear_248_33726)"/>
<path d="M3310.4 54.7566L3328.65 58.4071V69.3584L3350.54 76.6593L3339.6 80.3097L3335.95 98.5619L3332.3 109.513L3328.65 127.765H3317.7V124.115L3306.75 135.066L3357.84 142.367H3365.14L3401.63 124.115L3416.23 120.465H3470.96L3514.75 142.367L3540.3 171.571L3551.25 197.124L3554.89 233.628L3543.95 277.434L3522.05 313.938L3503.81 335.841L3522.05 332.19L3525.7 335.841V317.588H3536.65L3543.95 310.288L3547.6 321.239L3562.19 324.889V317.588L3547.6 313.938V310.288H3565.84L3569.49 328.54V335.841H3543.95V346.792L3562.19 350.442L3565.84 383.296V390.597H3573.14V350.442H3576.79L3580.44 372.345H3584.09V412.5L3580.44 423.451H3587.74V394.248L3591.39 408.85H3602.33L3605.98 416.15L3613.28 401.549V361.394L3620.58 335.841H3624.23V390.597L3620.58 434.403L3605.98 438.053L3620.58 441.704L3770.19 452.655L3938.05 456.305V459.956L3919.81 463.606H3792.09L3689.91 456.305H3646.12L3627.88 452.655L3529.35 445.354L3624.23 456.305L3638.82 463.606L3635.18 474.557L3627.88 470.907L3631.53 463.606H3620.58L3616.93 474.557L3602.33 481.858L3595.04 474.557L3591.39 500.111H3620.58L3624.23 514.712L3635.18 525.664L3631.53 532.965L3624.23 529.314V540.265L3642.47 536.615L3649.77 470.907H3653.42V511.062L3649.77 532.965L3671.67 529.314V536.615L3693.56 532.965H3715.46V525.664H3726.4V536.615H3755.6L3751.95 529.314L3737.35 522.013H3748.3V511.062H3715.46L3708.16 503.761H3748.3L3766.54 507.412V496.46H3777.49V503.761L3806.68 507.412V496.46H3832.23L3850.47 503.761L3872.37 507.412L3868.72 525.664L3876.02 522.013L3879.67 503.761L3883.32 496.46H3890.61V525.664H3901.56L3897.91 507.412L3901.56 492.81L3912.51 496.46L3919.81 485.509L3934.4 489.159L3941.7 481.858L3938.05 514.712L3908.86 595.022L3905.21 598.673L3868.72 602.323L3846.82 609.624L3835.88 605.973L3832.23 620.575H3784.79L3792.09 631.527L3784.79 638.827L3759.25 635.177L3733.7 627.876L3751.95 646.128V653.429L3730.05 668.031V675.332H3693.56L3689.91 682.633H3697.21V689.934L3686.26 693.584L3704.51 700.885L3693.56 711.836L3697.21 719.137L3693.56 726.438H3715.46L3722.75 733.739H3704.51V741.04H3660.72L3653.42 762.942L3646.12 766.593V777.544L3613.28 803.097H3631.53L3638.82 799.447L3660.72 803.097L3657.07 810.398L3624.23 817.699L3554.89 821.35V825H3478.26L3412.58 810.398L3354.19 788.496L3303.11 759.292L3259.32 726.438L3252.02 719.137L3255.67 708.186L3277.56 722.788L3295.81 741.04L3288.51 722.788L3339.6 730.088H3343.25L3273.91 711.836L3259.32 689.934H3248.37L3244.72 697.234L3262.96 700.885L3266.61 708.186L3233.77 700.885L3200.93 664.381L3164.44 609.624L3138.89 551.217L3120.65 485.509L3117 467.257V401.549L3135.25 405.199H3146.19L3149.84 401.549L3117 394.248V361.394L3131.6 288.385L3149.84 237.279L3164.44 215.376L3179.04 186.173L3211.88 142.367L3252.02 98.5619L3292.16 65.708L3310.4 54.7566ZM3255.67 109.513L3248.37 124.115L3262.96 109.513H3255.67ZM3281.21 109.513L3284.86 116.814L3288.51 109.513H3281.21ZM3262.96 135.066V138.717H3288.51V135.066H3262.96ZM3252.02 142.367L3241.07 160.619L3237.42 186.173L3248.37 175.221L3262.96 149.668V142.367H3252.02ZM3233.77 146.018L3215.53 171.571L3219.18 182.522L3241.07 153.319V146.018H3233.77ZM3346.89 149.668L3321.35 175.221L3299.46 219.027L3295.81 240.929V281.084L3310.4 313.938L3335.95 343.142L3365.14 357.743L3379.74 361.394H3434.47L3463.67 354.093L3492.86 343.142L3489.21 335.841L3449.07 343.142L3397.98 339.491L3365.14 324.889L3332.3 292.035H3321.35V211.726L3332.3 182.522L3354.19 149.668H3346.89ZM3204.58 164.27L3186.33 193.473L3189.98 204.425L3208.23 175.221L3204.58 164.27ZM3266.61 164.27L3252.02 186.173L3248.37 200.774H3255.67L3259.32 189.823L3270.26 186.173L3273.91 164.27H3266.61ZM3295.81 164.27L3288.51 175.221H3299.46L3295.81 164.27ZM3533 219.027L3525.7 226.327V251.881L3543.95 248.23L3547.6 244.58V219.027H3533ZM3211.88 229.978L3189.98 295.686L3175.39 292.035V306.637H3186.33V324.889H3193.63L3211.88 255.531L3215.53 251.881H3233.77L3237.42 237.279L3222.82 233.628L3219.18 237.279L3211.88 229.978ZM3514.75 233.628L3503.81 240.929L3507.46 244.58L3496.51 251.881L3514.75 255.531L3522.05 237.279L3514.75 233.628ZM3237.42 248.23V255.531L3266.61 259.181V251.881L3237.42 248.23ZM3281.21 255.531L3273.91 273.783L3277.56 288.385L3284.86 255.531H3281.21ZM3354.19 262.832L3335.95 270.133L3343.25 281.084V273.783L3357.84 284.735L3350.54 288.385L3354.19 299.336H3368.79V288.385L3379.74 281.084L3376.09 266.482L3372.44 262.832H3354.19ZM3496.51 262.832L3507.46 273.783V262.832H3496.51ZM3241.07 266.482L3233.77 299.336L3241.07 295.686L3244.72 266.482H3241.07ZM3492.86 270.133V277.434L3507.46 281.084V273.783L3492.86 270.133ZM3211.88 288.385L3208.23 310.288L3219.18 299.336L3215.53 288.385H3211.88ZM3266.61 302.987L3262.96 335.841L3270.26 328.54L3273.91 302.987H3266.61ZM3394.33 306.637L3390.68 321.239L3397.98 306.637H3394.33ZM3492.86 306.637L3496.51 321.239L3511.11 317.588V310.288L3492.86 306.637ZM3200.93 321.239L3197.28 339.491L3204.58 335.841L3200.93 321.239ZM3310.4 332.19L3306.75 346.792V379.646H3310.4L3314.05 332.19H3310.4ZM3226.47 339.491L3222.82 354.093L3226.47 361.394H3233.77L3230.12 383.296L3248.37 379.646L3259.32 346.792L3248.37 339.491H3226.47ZM3284.86 339.491V365.044H3288.51V339.491H3284.86ZM3379.74 368.695V397.898L3387.04 394.248V368.695H3379.74ZM3120.65 375.996V383.296L3135.25 379.646L3120.65 375.996ZM3255.67 375.996L3259.32 390.597L3262.96 379.646L3255.67 375.996ZM3208.23 328.54L3200.93 343.142H3193.63V365.044L3197.28 375.996L3189.98 383.296H3186.33V365.044H3179.04V383.296L3142.54 379.646V386.947L3153.49 394.248L3215.53 401.549V394.248L3204.58 390.597L3211.88 328.54H3208.23ZM3230.12 397.898L3226.47 405.199H3248.37L3244.72 397.898H3230.12ZM3164.44 401.549V408.85L3175.39 416.15H3197.28V405.199L3164.44 401.549ZM3204.58 408.85L3208.23 416.15L3248.37 423.451L3252.02 412.5L3233.77 408.85H3204.58ZM3394.33 408.85V423.451H3419.88L3423.53 412.5H3401.63L3394.33 408.85ZM3562.19 408.85V427.102L3569.49 419.801V408.85H3562.19ZM3284.86 416.15V423.451L3292.16 427.102L3299.46 438.053L3314.05 434.403V427.102L3346.89 434.403L3354.19 438.053L3350.54 423.451L3284.86 416.15ZM3175.39 419.801L3171.74 427.102V449.004L3175.39 456.305H3182.68L3186.33 467.257H3193.63V434.403H3182.68V419.801H3175.39ZM3441.77 419.801L3445.42 427.102H3470.96L3463.67 419.801H3441.77ZM3529.35 427.102V434.403L3562.19 430.752V427.102H3529.35ZM3321.35 438.053L3325 445.354L3339.6 438.053H3321.35ZM3357.84 438.053L3372.44 445.354V438.053H3357.84ZM3219.18 445.354L3215.53 449.004V470.907L3226.47 474.557V449.004L3219.18 445.354ZM3208.23 449.004L3204.58 452.655L3208.23 489.159L3226.47 492.81V485.509H3215.53L3211.88 449.004H3208.23ZM3230.12 449.004L3233.77 478.208H3237.42L3241.07 452.655L3230.12 449.004ZM3365.14 449.004L3361.49 459.956L3368.79 467.257V449.004H3365.14ZM3503.81 456.305L3507.46 470.907L3514.75 474.557L3511.11 456.305H3503.81ZM3361.49 474.557L3357.84 525.664H3350.54L3346.89 518.363L3328.65 522.013L3332.3 536.615H3405.28L3401.63 529.314H3372.44V500.111L3368.79 474.557H3361.49ZM3189.98 478.208L3193.63 489.159L3197.28 478.208H3189.98ZM3237.42 478.208V485.509H3252.02L3248.37 478.208H3237.42ZM3503.81 478.208L3500.16 503.761L3507.46 511.062L3496.51 514.712V536.615H3507.46L3514.75 518.363V485.509L3503.81 478.208ZM3179.04 500.111V536.615L3186.33 540.265L3189.98 529.314V503.761L3179.04 500.111ZM3211.88 500.111L3197.28 507.412L3204.58 547.566L3211.88 584.071L3222.82 587.721L3215.53 547.566V514.712L3226.47 547.566L3230.12 536.615L3226.47 511.062H3233.77L3237.42 547.566L3244.72 554.867L3241.07 514.712L3248.37 518.363L3255.67 551.217V558.518L3266.61 554.867L3262.96 525.664L3321.35 529.314L3317.7 522.013L3292.16 518.363L3262.96 507.412L3230.12 503.761L3211.88 500.111ZM3394.33 507.412V525.664L3405.28 518.363L3423.53 522.013V511.062L3394.33 507.412ZM3817.63 525.664L3813.98 532.965H3828.58V525.664H3817.63ZM3189.98 529.314V554.867L3200.93 551.217L3193.63 529.314H3189.98ZM3547.6 529.314L3533 536.615L3540.3 540.265L3543.95 547.566L3547.6 540.265L3554.89 547.566L3558.54 532.965L3547.6 529.314ZM3441.77 543.916V547.566L3467.32 554.867V543.916H3441.77ZM3478.26 547.566L3470.96 562.168H3485.56L3478.26 547.566ZM3226.47 554.867L3233.77 562.168L3237.42 554.867H3226.47ZM3638.82 551.217L3624.23 558.518H3642.47L3638.82 551.217ZM3255.67 565.819L3248.37 569.469L3252.02 580.42L3266.61 584.071L3284.86 580.42L3295.81 576.77L3266.61 565.819H3255.67ZM3383.39 584.071V595.022L3394.33 591.372L3383.39 584.071ZM3405.28 584.071V602.323H3408.93V584.071H3405.28ZM3766.54 591.372V602.323L3773.84 595.022L3766.54 591.372ZM3460.02 595.022L3463.67 613.274L3467.32 598.673L3460.02 595.022ZM3416.23 605.973L3430.82 613.274L3438.12 605.973H3416.23ZM3726.4 616.925L3730.05 624.226L3737.35 616.925H3726.4ZM3270.26 627.876L3277.56 642.478L3281.21 631.527L3270.26 627.876ZM3306.75 627.876L3303.11 631.527L3306.75 664.381L3299.46 642.478L3292.16 657.08L3295.81 664.381H3288.51L3277.56 649.779L3270.26 675.332L3252.02 671.681L3255.67 682.633L3288.51 686.283L3295.81 708.186L3299.46 697.234L3292.16 678.982L3277.56 675.332L3281.21 671.681L3339.6 686.283L3346.89 697.234V682.633L3372.44 689.934L3379.74 682.633L3376.09 664.381L3387.04 675.332L3397.98 689.934L3394.33 664.381L3376.09 653.429L3365.14 657.08L3357.84 668.031V678.982L3346.89 675.332L3339.6 660.73V675.332L3321.35 671.681L3317.7 653.429L3310.4 627.876H3306.75ZM3489.21 660.73V671.681H3496.51L3492.86 660.73H3489.21ZM3215.53 664.381L3230.12 689.934L3237.42 693.584L3233.77 678.982L3244.72 675.332L3222.82 664.381H3215.53ZM3419.88 668.031L3427.18 682.633H3441.77V671.681L3419.88 668.031ZM3525.7 668.031V675.332L3540.3 678.982L3529.35 668.031H3525.7ZM3514.75 675.332V682.633L3525.7 678.982L3514.75 675.332ZM3562.19 675.332V686.283L3591.39 689.934V678.982H3569.49L3562.19 675.332ZM3653.42 678.982L3668.02 686.283V678.982H3653.42ZM3419.88 686.283L3423.53 722.788L3427.18 730.088L3445.42 748.341L3449.07 741.04L3441.77 711.836L3434.47 708.186L3445.42 700.885L3438.12 686.283H3419.88ZM3511.11 686.283L3503.81 697.234L3533 704.535L3536.65 689.934L3525.7 693.584L3522.05 686.283H3511.11ZM3503.81 704.535L3511.11 715.487L3507.46 726.438L3525.7 730.088V719.137H3518.4L3522.05 708.186L3503.81 704.535ZM3587.74 704.535V708.186H3605.98V704.535H3587.74ZM3456.37 708.186V715.487L3470.96 711.836L3456.37 708.186ZM3489.21 708.186V726.438H3481.91V741.04L3492.86 744.69L3496.51 737.389V711.836L3489.21 708.186ZM3536.65 711.836V715.487H3554.89V711.836H3536.65ZM3569.49 715.487L3573.14 730.088H3587.74V722.788H3576.79V715.487H3569.49ZM3460.02 730.088L3463.67 737.389L3470.96 733.739L3460.02 730.088ZM3387.04 733.739V741.04L3419.88 744.69V737.389L3387.04 733.739ZM3503.81 733.739L3507.46 741.04L3522.05 737.389L3503.81 733.739ZM3543.95 737.389L3554.89 744.69L3558.54 737.389H3543.95ZM3503.81 744.69L3507.46 751.991L3522.05 748.341L3503.81 744.69ZM3554.89 744.69L3540.3 751.991L3562.19 755.642V744.69H3554.89ZM3569.49 748.341V755.642L3587.74 751.991V748.341H3569.49ZM3525.7 766.593L3529.35 773.894H3543.95V766.593H3525.7ZM3565.84 777.544L3569.49 784.845L3576.79 781.195L3565.84 777.544ZM3587.74 777.544L3580.44 792.146L3605.98 795.796L3609.63 784.845L3587.74 777.544ZM3605.98 777.544V781.195H3627.88V777.544H3605.98ZM3507.46 806.748L3511.11 817.699H3533V806.748H3507.46Z" fill="url(#paint2_linear_248_33726)"/>
<path d="M3689.91 423.451L3708.16 427.102L3711.81 441.704H3689.91V423.451Z" fill="url(#paint3_linear_248_33726)"/>
<path d="M3660.72 463.606H3668.02L3671.67 511.062L3657.07 525.664L3660.72 463.606Z" fill="url(#paint4_linear_248_33726)"/>
<path d="M2965.9 842.736L2980.89 830.063L2905.61 742.206L2905.37 727.804L2907.68 726.679C2913.81 719.91 2908.9 715.329 2905.68 713.885L2891.38 712.535L2888.87 696.231L2887.4 695.369L2880.95 694.979L2880.44 691.469L2883.46 690.678L2882.95 688.73L2881.48 687.868L2876.23 687.685L2875.69 685.64L2881.04 684.236L2867.66 564.955L2865.97 564.461L2841.69 565.106L2840.77 565.971L2816.66 683.949L2817.09 685.604L2827.7 701.035L2831.1 700.141L2849.47 693.973L2849.64 694.655L2842.3 697.205L2840.61 699.104L2839.43 700.143L2819.3 707.503L2818.16 710.299L2816.03 711.691C2814.3 712.727 2812.85 714.918 2812.34 715.884L2810.88 718.244L2798.43 722.758C2793.73 728.651 2798.05 733.887 2800.8 735.768C2798.42 739.27 2793.48 746.804 2792.7 748.922C2791.92 751.04 2793.31 751.78 2794.1 751.885L2803.36 752.267L2765.44 802.898L2767.35 805.415L2785.53 796.173C2801.28 779.521 2833.07 745.807 2834.22 744.173C2835.38 742.539 2838.87 740.873 2840.48 740.244L2869.85 745.131L2869.54 747.918C2869.29 753.312 2871.25 754.409 2872.25 754.283L2872.56 755.452C2872.45 758.226 2873.97 759.488 2874.73 759.773L2965.9 842.736Z" fill="#7E8A93" fill-opacity="0.7"/>
<defs>
<linearGradient id="paint0_linear_248_33726" x1="3397.18" y1="6.61124e-06" x2="3601.97" y2="717.722" gradientUnits="userSpaceOnUse">
<stop stop-color="#90A5A0"/>
<stop offset="1" stop-color="#54706B" stop-opacity="0"/>
</linearGradient>
<linearGradient id="paint1_linear_248_33726" x1="3397.18" y1="6.61124e-06" x2="3601.97" y2="717.722" gradientUnits="userSpaceOnUse">
<stop stop-color="#90A5A0"/>
<stop offset="1" stop-color="#54706B" stop-opacity="0"/>
</linearGradient>
<linearGradient id="paint2_linear_248_33726" x1="3397.18" y1="6.61124e-06" x2="3601.97" y2="717.722" gradientUnits="userSpaceOnUse">
<stop stop-color="#90A5A0"/>
<stop offset="1" stop-color="#54706B" stop-opacity="0"/>
</linearGradient>
<linearGradient id="paint3_linear_248_33726" x1="3397.18" y1="6.61124e-06" x2="3601.97" y2="717.722" gradientUnits="userSpaceOnUse">
<stop stop-color="#90A5A0"/>
<stop offset="1" stop-color="#54706B" stop-opacity="0"/>
</linearGradient>
<linearGradient id="paint4_linear_248_33726" x1="3397.18" y1="6.61124e-06" x2="3601.97" y2="717.722" gradientUnits="userSpaceOnUse">
<stop stop-color="#90A5A0"/>
<stop offset="1" stop-color="#54706B" stop-opacity="0"/>
</linearGradient>
</defs>
</svg>
