<svg width="4682" height="1564" viewBox="0 0 4682 1564" fill="none" xmlns="http://www.w3.org/2000/svg">
<rect y="396" width="4674" height="1233" fill="#BACFCA"/>
<path d="M1731.44 0H1779.44L1824.61 10.4837L1869.78 31.451L1886.72 44.5556L1898.02 39.3137L1926.25 28.8301H1968.6L1996.83 39.3137L2013.77 49.7974H2050.47L2084.35 57.6601L2115.41 78.6274L2132.35 102.216L2135.17 115.32L2149.29 117.941L2171.88 125.804L2177.52 112.699L2202.93 91.732L2225.52 83.8693L2256.57 81.2484L2276.34 65.5229L2298.92 57.6601L2327.16 60.281L2344.1 70.7647L2358.21 83.8693H2383.62L2414.68 94.3529L2437.26 112.699L2448.56 131.046L2457.03 154.634L2479.61 144.15L2510.67 141.529L2538.9 149.392L2561.49 167.739L2569.96 183.464L2584.08 152.013L2595.37 136.288L2617.95 115.32L2649.01 102.216L2657.48 99.5948H2705.48L2736.53 110.078L2764.77 131.046L2770.41 138.908L2804.29 149.392L2832.52 165.118L2849.46 178.222L2866.4 175.601H2903.11L2917.22 154.634L2939.81 136.288L2965.22 128.425H2987.81L3018.86 138.908L3035.8 152.013L3049.92 172.98L3058.39 191.327L3080.97 209.673L3095.09 228.02L3097.91 235.882L3126.15 241.124L3148.73 254.229L3165.67 275.196L3174.14 304.026L3193.91 319.752L3202.38 338.098V364.307L3191.08 387.895L3182.61 398.379L1147.02 401L1141.38 395.758L1144.2 366.928L1161.14 340.719L1186.55 324.993L1203.49 319.752H1223.25L1231.72 322.373V301.405L1245.84 262.091L1265.6 233.261L1291.01 207.052L1324.89 183.464L1336.18 180.843L1339.01 175.601L1387 159.876L1418.06 154.634H1497.11L1528.17 144.15L1556.4 138.908L1576.16 96.9739L1593.1 73.3856L1618.51 47.1765L1649.57 26.2091L1683.45 10.4837L1731.44 0Z" fill="url(#paint0_linear_248_33727)"/>
<path d="M358.067 74H406.063L451.236 84.4837L496.408 105.451L513.348 118.556L524.641 113.314L552.874 102.83H595.223L623.456 113.314L640.396 123.797H677.099L710.978 131.66L742.034 152.627L758.974 176.216L761.797 189.32L775.914 191.941L798.5 199.804L804.147 186.699L829.556 165.732L852.142 157.869L883.199 155.248L902.962 139.523L925.548 131.66L953.781 134.281L970.721 144.765L984.837 157.869H1010.25L1041.3 168.353L1063.89 186.699L1075.18 205.046L1083.65 228.634L1106.24 218.15L1137.29 215.529L1165.53 223.392L1188.11 241.739L1196.58 257.464L1210.7 226.013L1221.99 210.288L1244.58 189.32L1275.64 176.216L1284.11 173.595H1332.1L1363.16 184.078L1391.39 205.046L1397.04 212.908L1430.92 223.392L1459.15 239.118L1476.09 252.222L1493.03 249.601H1529.73L1543.85 228.634L1566.43 210.288L1591.84 202.425H1614.43L1645.49 212.908L1662.43 226.013L1676.54 246.98L1685.01 265.327L1707.6 283.673L1721.72 302.02L1724.54 309.882L1752.77 315.124L1775.36 328.229L1792.3 349.196L1800.77 378.026L1820.53 393.752L1829 412.098V438.307L1817.71 461.895L1809.24 472.379L-226.353 475L-232 469.758L-229.177 440.928L-212.237 414.719L-186.827 398.993L-169.888 393.752H-150.125L-141.655 396.373V375.405L-127.538 336.091L-107.775 307.261L-82.3658 281.052L-48.4863 257.464L-37.1931 254.843L-34.3699 249.601L13.626 233.876L44.6822 228.634H123.734L154.79 218.15L183.023 212.908L202.786 170.974L219.726 147.386L245.136 121.176L276.192 100.209L310.071 84.4837L358.067 74Z" fill="url(#paint1_linear_248_33727)"/>
<path d="M3557.07 137H3605.06L3650.24 147.484L3695.41 168.451L3712.35 181.556L3723.64 176.314L3751.87 165.83H3794.22L3822.46 176.314L3839.4 186.797H3876.1L3909.98 194.66L3941.03 215.627L3957.97 239.216L3960.8 252.32L3974.91 254.941L3997.5 262.804L4003.15 249.699L4028.56 228.732L4051.14 220.869L4082.2 218.248L4101.96 202.523L4124.55 194.66L4152.78 197.281L4169.72 207.765L4183.84 220.869H4209.25L4240.3 231.353L4262.89 249.699L4274.18 268.046L4282.65 291.634L4305.24 281.15L4336.29 278.529L4364.53 286.392L4387.11 304.739L4395.58 320.464L4409.7 289.013L4420.99 273.288L4443.58 252.32L4474.64 239.216L4483.11 236.595H4531.1L4562.16 247.078L4590.39 268.046L4596.04 275.908L4629.92 286.392L4658.15 302.118L4675.09 315.222L4692.03 312.601H4728.73L4742.85 291.634L4765.43 273.288L4790.84 265.425H4813.43L4844.49 275.908L4861.43 289.013L4875.54 309.98L4884.01 328.327L4906.6 346.673L4920.72 365.02L4923.54 372.882L4951.77 378.124L4974.36 391.229L4991.3 412.196L4999.77 441.026L5019.53 456.752L5028 475.098V501.307L5016.71 524.895L5008.24 535.379L2972.65 538L2967 532.758L2969.82 503.928L2986.76 477.719L3012.17 461.993L3029.11 456.752H3048.88L3057.35 459.373V438.405L3071.46 399.091L3091.22 370.261L3116.63 344.052L3150.51 320.464L3161.81 317.843L3164.63 312.601L3212.63 296.876L3243.68 291.634H3322.73L3353.79 281.15L3382.02 275.908L3401.79 233.974L3418.73 210.386L3444.14 184.176L3475.19 163.209L3509.07 147.484L3557.07 137Z" fill="url(#paint2_linear_248_33727)"/>
<defs>
<linearGradient id="paint0_linear_248_33727" x1="2113" y1="24" x2="2113" y2="401" gradientUnits="userSpaceOnUse">
<stop stop-color="#D7E2D2"/>
<stop offset="1" stop-color="#BACFCA"/>
</linearGradient>
<linearGradient id="paint1_linear_248_33727" x1="739.625" y1="98" x2="739.625" y2="475" gradientUnits="userSpaceOnUse">
<stop stop-color="#D7E2D2"/>
<stop offset="1" stop-color="#BACFCA"/>
</linearGradient>
<linearGradient id="paint2_linear_248_33727" x1="3938.62" y1="161" x2="3938.62" y2="538" gradientUnits="userSpaceOnUse">
<stop stop-color="#D7E2D2"/>
<stop offset="1" stop-color="#BACFCA"/>
</linearGradient>
</defs>
</svg>
