<svg width="4490" height="660" viewBox="0 0 4490 660" fill="none" xmlns="http://www.w3.org/2000/svg">
<path d="M0.0673828 365.29L3684.6 338.707H4445.06V766.877H0.0673828V365.29Z" fill="#465A4A"/>
<path d="M2715.51 22.5645H2721.83L2731.32 43.7967L2737.64 46.8299L2734.48 65.029L2740.8 77.1617L2737.64 83.2281L2747.12 86.2613L2740.8 101.427L2753.44 104.46L2759.77 107.494V113.56H2753.44V134.792L2766.09 140.859L2762.93 156.024H2756.6L2759.77 162.091H2775.57L2778.73 174.224H2772.41L2769.25 198.489L2762.93 207.589L2791.37 198.489L2797.7 201.522V210.622L2785.05 219.721L2778.73 234.887L2807.18 231.854L2816.66 237.92V243.987H2822.98V213.655V201.522V192.423H2832.47L2835.63 180.29H2841.95L2848.27 192.423V204.555H2854.59L2851.43 240.954L2848.27 247.02H2864.07L2867.23 253.086L2857.75 271.285V277.352H2883.04L2876.72 292.518L2867.23 295.551V307.684H2879.88V322.85L2892.52 319.816L2905.17 325.883L2892.52 344.082H2886.2L2892.52 356.215L2905.17 365.314V374.414L2889.36 380.48H1318.41L1296.28 374.414V368.347L1308.93 362.281L1305.76 344.082H1299.44V331.949H1293.12V322.85L1318.41 319.816V313.75H1312.09V307.684H1318.41V301.617L1305.76 295.551L1299.44 286.451V277.352H1318.41L1315.25 268.252L1327.89 265.219L1318.41 240.954L1315.25 234.887L1318.41 228.821H1331.05L1327.89 204.555L1331.05 198.489H1324.73V186.356H1331.05V192.423H1337.37L1334.21 174.224V159.058L1343.7 156.024L1350.02 183.323L1356.34 195.456L1350.02 210.622L1365.82 207.589V237.92L1375.3 247.02L1368.98 259.153L1365.82 262.186L1378.46 259.153L1381.63 253.086V234.887H1387.95V228.821H1397.43L1403.75 243.987L1413.23 247.02L1416.4 237.92L1432.2 247.02V240.954L1419.56 234.887L1410.07 213.655L1406.91 204.555H1422.72L1419.56 192.423L1429.04 189.39L1425.88 168.157H1438.52L1425.88 146.925V131.759H1432.2L1429.04 107.494L1432.2 83.2281L1438.52 71.0954H1444.84V89.2945H1457.49L1451.16 107.494L1466.97 113.56L1463.81 125.693L1457.49 128.726V140.859L1476.45 149.958V156.024L1466.97 162.091L1470.13 174.224L1482.77 186.356V210.622L1476.45 222.755H1495.42V228.821H1489.1V240.954L1498.58 237.92L1501.74 219.721L1495.42 216.688V192.423H1501.74L1508.06 174.224H1514.38V168.157H1508.06L1511.22 149.958L1520.7 146.925L1527.03 159.058V168.157H1533.35V183.323L1539.67 186.356V207.589L1552.31 213.655L1545.99 222.755H1539.67L1542.83 231.854L1555.47 234.887L1552.31 268.252L1558.63 262.186V253.086H1571.28L1574.44 243.987L1564.96 240.954V234.887H1558.63L1555.47 225.788L1577.6 228.821L1571.28 219.721V204.555H1577.6V183.323L1571.28 177.257V168.157H1583.92L1580.76 156.024L1583.92 125.693H1590.24L1593.4 113.56L1602.89 131.759L1606.05 137.825L1602.89 149.958H1609.21L1618.69 183.323L1615.53 195.456L1621.85 198.489V204.555H1615.53V210.622L1628.17 213.655L1625.01 225.788L1615.53 228.821L1625.01 247.02L1637.66 243.987V253.086L1631.33 265.219L1647.14 271.285L1650.3 277.352L1653.46 265.219H1647.14V243.987L1662.94 240.954L1656.62 222.755L1662.94 195.456L1672.43 189.39L1681.91 198.489V213.655L1691.39 219.721V213.655L1707.2 216.688L1694.55 192.423L1688.23 180.29H1716.68V174.224H1710.36L1704.03 159.058V149.958H1713.52L1710.36 128.726L1704.03 125.693V119.626H1716.68L1719.84 101.427L1716.68 89.2945L1719.84 83.2281L1729.32 89.2945L1723 71.0954L1732.48 43.7967L1735.64 31.664H1741.96V46.8299H1751.45V65.029L1760.93 68.0622L1757.77 86.2613L1773.57 83.2281L1770.41 98.394L1764.09 107.494L1773.57 128.726L1783.06 137.825L1773.57 156.024H1779.9V168.157H1792.54L1786.22 180.29L1783.06 186.356L1802.02 183.323L1808.34 189.39L1795.7 192.423V198.489L1827.31 192.423V198.489H1817.83L1811.5 210.622L1805.18 222.755H1798.86V228.821H1792.54V234.887H1798.86V240.954H1792.54V247.02H1811.5V253.086H1802.02V259.153L1824.15 256.12L1830.47 259.153V253.086L1824.15 250.053L1830.47 237.92L1836.79 210.622H1843.11V204.555H1849.43L1855.76 222.755V237.92H1862.08V250.053H1868.4L1865.24 265.219L1868.4 274.319H1874.72V283.418H1881.04L1884.2 265.219L1887.36 259.153H1893.69L1900.01 268.252L1903.17 286.451L1909.49 292.518L1903.17 301.617L1915.81 304.65L1906.33 322.85L1934.78 319.816L1944.26 322.85L1934.78 307.684V301.617L1947.42 298.584L1944.26 274.319L1956.9 277.352L1953.74 262.186L1956.9 240.954H1963.23V222.755L1975.87 228.821L1982.19 240.954V259.153H1988.51L1985.35 271.285L1988.51 283.418H2001.16V289.485H1994.83V307.684H2001.16L1998 319.816H2007.48V310.717L2020.12 313.75V301.617L2010.64 298.584V295.551H2032.76V289.485H2026.44L2023.28 271.285L2016.96 250.053L2035.93 253.086L2032.76 240.954H2042.25L2039.09 222.755H2032.76L2029.6 204.555H2039.09L2042.25 192.423L2039.09 174.224H2045.41L2042.25 156.024L2061.21 140.859L2064.37 143.892V165.124H2073.86V183.323L2080.18 195.456L2077.02 216.688H2083.34V198.489H2089.66L2086.5 183.323L2102.3 180.29V174.224L2089.66 168.157V162.091H2083.34V156.024L2099.14 152.991L2092.82 143.892V131.759L2105.46 128.726L2099.14 107.494H2108.63V101.427H2102.3V83.2281H2108.63L2105.46 68.0622L2114.95 58.9626H2121.27L2130.75 89.2945L2140.23 101.427L2133.91 119.626L2140.23 149.958V162.091H2159.2L2165.52 171.19L2152.88 189.39V201.522H2171.84L2178.16 216.688H2171.84V222.755L2187.65 225.788L2184.49 204.555H2193.97L2197.13 174.224L2203.45 162.091L2212.93 165.124L2216.1 177.257L2222.42 180.29L2225.58 204.555L2235.06 207.589L2228.74 222.755V228.821H2247.7L2250.87 240.954L2238.22 253.086L2235.06 259.153L2247.7 265.219V277.352H2260.35V283.418H2279.31L2276.15 271.285L2269.83 262.186V253.086L2285.63 259.153V240.954L2272.99 228.821V222.755L2288.8 219.721V201.522L2282.47 189.39L2298.28 186.356V180.29H2291.96L2295.12 152.991L2288.8 149.958V143.892L2298.28 137.825L2304.6 116.593H2310.92L2314.08 131.759H2320.4L2317.24 143.892L2326.73 140.859L2329.89 152.991V174.224L2333.05 180.29L2329.89 189.39L2348.85 192.423V198.489H2342.53L2336.21 210.622H2329.89L2339.37 219.721L2355.17 222.755L2352.01 234.887L2345.69 240.954L2342.53 253.086L2361.5 256.12L2367.82 240.954L2355.17 237.92L2367.82 225.788L2370.98 216.688L2361.5 213.655V204.555L2370.98 198.489L2380.46 165.124H2386.78V180.29H2393.1L2396.27 198.489L2402.59 183.323V159.058L2399.43 143.892H2405.75L2408.91 128.726H2415.23L2418.39 119.626L2424.71 122.659L2427.87 143.892L2434.2 156.024L2440.52 168.157L2437.36 186.356L2462.64 189.39L2450 210.622V216.688L2468.97 225.788L2462.64 228.821V250.053L2459.48 265.219L2468.97 268.252L2465.8 283.418L2475.29 271.285L2478.45 265.219L2468.97 262.186L2472.13 247.02H2484.77V222.755L2481.61 207.589H2497.41L2494.25 183.323L2503.73 174.224L2506.9 162.091H2513.22L2519.54 183.323L2522.7 198.489L2532.18 201.522L2525.86 228.821H2544.83V234.887H2538.5V240.954H2554.31L2547.99 259.153L2544.83 271.285L2547.99 277.352H2570.11L2573.27 283.418L2570.11 301.617H2576.43V280.385L2592.24 277.352V271.285L2582.76 268.252V259.153H2576.43L2579.6 247.02L2598.56 243.987L2579.6 222.755L2582.76 210.622L2611.2 204.555L2608.04 189.39V174.224L2611.2 168.157L2608.04 152.991L2614.37 149.958L2620.69 152.991L2617.53 134.792L2620.69 128.726L2623.85 113.56L2630.17 98.394H2639.65V119.626L2642.81 131.759H2652.3V137.825H2645.97L2652.3 156.024V165.124L2668.1 171.19L2664.94 180.29H2658.62L2664.94 204.555L2661.78 213.655L2671.26 216.688V231.854L2677.58 222.755H2683.9V204.555H2677.58L2671.26 186.356V174.224H2677.58V180.29L2690.23 183.323V168.157H2680.74L2677.58 152.991H2687.07L2706.03 156.024V149.958H2696.55L2687.07 137.825V131.759L2699.71 128.726L2696.55 98.394L2706.03 95.3608L2699.71 65.029L2712.35 61.9958L2709.19 43.7967L2715.51 22.5645ZM2083.34 216.688V228.821H2089.66V216.688H2083.34ZM1691.39 222.755L1688.23 243.987L1691.39 259.153L1704.03 253.086L1697.71 222.755H1691.39ZM2168.68 222.755L2159.2 228.821V234.887H2171.84L2168.68 222.755ZM2772.41 234.887V240.954H2778.73V234.887H2772.41ZM1482.77 240.954V247.02H1489.1V240.954H1482.77ZM2813.5 243.987L2810.34 253.086H2804.02L2794.53 265.219L2797.7 277.352H2804.02L2800.86 289.485L2810.34 292.518L2813.5 256.12L2816.66 243.987H2813.5ZM1786.22 247.02V253.086H1792.54V247.02H1786.22ZM1413.23 250.053L1406.91 256.12V274.319L1416.4 277.352V259.153L1419.56 250.053H1413.23ZM1485.93 253.086L1482.77 265.219H1489.1L1492.26 253.086H1485.93ZM1653.46 253.086V259.153L1659.78 256.12L1653.46 253.086ZM1830.47 259.153V265.219H1824.15V271.285L1833.63 268.252L1830.47 259.153ZM1817.83 271.285L1811.5 283.418H1805.18V289.485H1820.99L1824.15 271.285H1817.83ZM1561.8 277.352L1558.63 280.385V295.551H1568.12L1564.96 283.418H1571.28V277.352H1561.8ZM1640.82 280.385L1631.33 289.485V295.551H1653.46V289.485H1647.14V280.385H1640.82ZM1874.72 292.518V301.617H1881.04L1877.88 292.518H1874.72ZM2250.87 292.518L2247.7 307.684L2254.03 319.816L2266.67 316.783L2263.51 295.551L2250.87 292.518ZM1634.5 301.617L1631.33 316.783L1640.82 319.816L1643.98 301.617H1634.5Z" fill="#465A4A"/>
<path d="M1422.46 47.248H1428.78L1438.26 68.4803L1444.59 71.5135L1441.42 89.7126L1447.75 101.845L1444.59 107.912L1454.07 110.945L1447.75 126.111L1460.39 129.144L1466.71 132.177V138.244H1460.39V159.476L1473.03 165.542L1469.87 180.708H1463.55L1466.71 186.774H1482.52L1485.68 198.907H1479.36L1476.19 223.173L1469.87 232.272L1498.32 223.173L1504.64 226.206V235.305L1492 244.405L1485.68 259.571L1514.12 256.538L1523.61 262.604V268.67H1529.93V238.339V226.206V217.106H1539.41L1542.57 204.974H1548.89L1555.22 217.106V229.239H1561.54L1558.38 265.637L1555.22 271.704H1571.02L1574.18 277.77L1564.7 295.969V302.035H1589.99L1583.66 317.201L1574.18 320.235V332.367H1586.82V347.533L1599.47 344.5L1612.11 350.566L1599.47 368.765H1593.15L1599.47 380.898L1612.11 389.998V399.097L1596.31 405.164H25.3544L3.22825 399.097V393.031L15.8717 386.965L12.7109 368.765H6.38912V356.633H0.0673828V347.533L25.3544 344.5V338.434H19.0326V332.367H25.3544V326.301L12.7109 320.235L6.38912 311.135V302.035H25.3544L22.1935 292.936L34.837 289.903L25.3544 265.637L22.1935 259.571L25.3544 253.504H37.9978L34.837 229.239L37.9978 223.173H31.6761V211.04H37.9978V217.106H44.3196L41.1587 198.907V183.741L50.6413 180.708L56.9631 208.007L63.2848 220.139L56.9631 235.305L72.7674 232.272V262.604L82.25 271.704L75.9283 283.836L72.7674 286.869L85.4109 283.836L88.5718 277.77V259.571H94.8935V253.504H104.376L110.698 268.67L120.18 271.704L123.341 262.604L139.146 271.704V265.637L126.502 259.571L117.02 238.339L113.859 229.239H129.663L126.502 217.106L135.985 214.073L132.824 192.841H145.467L132.824 171.609V156.443H139.146L135.985 132.177L139.146 107.912L145.467 95.779H151.789V113.978H164.433L158.111 132.177L173.915 138.244L170.754 150.376L164.433 153.409V165.542L183.398 174.642V180.708L173.915 186.774L177.076 198.907L189.72 211.04V235.305L183.398 247.438H202.363V253.504H196.041V265.637L205.524 262.604L208.685 244.405L202.363 241.372V217.106H208.685L215.007 198.907H221.328V192.841H215.007L218.167 174.642L227.65 171.609L233.972 183.741V192.841H240.294V208.007L246.615 211.04V232.272L259.259 238.339L252.937 247.438H246.615L249.776 256.538L262.42 259.571L259.259 292.936L265.581 286.869V277.77H278.224L281.385 268.67L271.902 265.637V259.571H265.581L262.42 250.471L284.546 253.504L278.224 244.405V229.239H284.546V208.007L278.224 201.94V192.841H290.868L287.707 180.708L290.868 150.376H297.189L300.35 138.244L309.833 156.443L312.994 162.509L309.833 174.642H316.154L325.637 208.007L322.476 220.139L328.798 223.173V229.239H322.476V235.305L335.12 238.339L331.959 250.471L322.476 253.504L331.959 271.704L344.602 268.67V277.77L338.281 289.903L354.085 295.969L357.246 302.035L360.407 289.903H354.085V268.67L369.889 265.637L363.568 247.438L369.889 220.139L379.372 214.073L388.855 223.173V238.339L398.337 244.405V238.339L414.141 241.372L401.498 217.106L395.176 204.974H423.624V198.907H417.302L410.981 183.741V174.642H420.463L417.302 153.409L410.981 150.376V144.31H423.624L426.785 126.111L423.624 113.978L426.785 107.912L436.268 113.978L429.946 95.779L439.428 68.4803L442.589 56.3476H448.911V71.5135H458.394V89.7126L467.876 92.7458L464.715 110.945L480.52 107.912L477.359 123.078L471.037 132.177L480.52 153.409L490.002 162.509L480.52 180.708H486.842V192.841H499.485L493.163 204.974L490.002 211.04L508.968 208.007L515.289 214.073L502.646 217.106V223.173L534.255 217.106V223.173H524.772L518.45 235.305L512.128 247.438H505.807V253.504H499.485V259.571H505.807V265.637H499.485V271.704H518.45V277.77H508.968V283.836L531.094 280.803L537.415 283.836V277.77L531.094 274.737L537.415 262.604L543.737 235.305H550.059V229.239H556.381L562.702 247.438V262.604H569.024V274.737H575.346L572.185 289.903L575.346 299.002H581.668V308.102H587.989L591.15 289.903L594.311 283.836H600.633L606.955 292.936L610.115 311.135L616.437 317.201L610.115 326.301L622.759 329.334L613.276 347.533L641.724 344.5L651.207 347.533L641.724 332.367V326.301L654.368 323.268L651.207 299.002L663.85 302.035L660.689 286.869L663.85 265.637H670.172V247.438L682.816 253.504L689.137 265.637V283.836H695.459L692.298 295.969L695.459 308.102H708.102V314.168H701.781V332.367H708.102L704.942 344.5H714.424V335.4L727.068 338.434V326.301L717.585 323.268V320.235H739.711V314.168H733.389L730.229 295.969L723.907 274.737L742.872 277.77L739.711 265.637H749.194L746.033 247.438H739.711L736.55 229.239H746.033L749.194 217.106L746.033 198.907H752.355L749.194 180.708L768.159 165.542L771.32 168.575V189.808H780.803V208.007L787.124 220.139L783.963 241.372H790.285V223.173H796.607L793.446 208.007L809.25 204.974V198.907L796.607 192.841V186.774H790.285V180.708L806.089 177.675L799.768 168.575V156.443L812.411 153.409L806.089 132.177H815.572V126.111H809.25V107.912H815.572L812.411 92.7458L821.894 83.6462H828.216L837.698 113.978L847.181 126.111L840.859 144.31L847.181 174.642V186.774H866.146L872.468 195.874L859.824 214.073V226.206H878.79L885.111 241.372H878.79V247.438L894.594 250.471L891.433 229.239H900.916L904.076 198.907L910.398 186.774L919.881 189.808L923.042 201.94L929.363 204.974L932.524 229.239L942.007 232.272L935.685 247.438V253.504H954.65L957.811 265.637L945.168 277.77L942.007 283.836L954.65 289.903V302.035H967.294V308.102H986.259L983.098 295.969L976.777 286.869V277.77L992.581 283.836V265.637L979.937 253.504V247.438L995.742 244.405V226.206L989.42 214.073L1005.22 211.04V204.974H998.903L1002.06 177.675L995.742 174.642V168.575L1005.22 162.509L1011.55 141.277H1017.87L1021.03 156.443H1027.35L1024.19 168.575L1033.67 165.542L1036.83 177.675V198.907L1039.99 204.974L1036.83 214.073L1055.8 217.106V223.173H1049.48L1043.15 235.305H1036.83L1046.32 244.405L1062.12 247.438L1058.96 259.571L1052.64 265.637L1049.48 277.77L1068.44 280.803L1074.76 265.637L1062.12 262.604L1074.76 250.471L1077.92 241.372L1068.44 238.339V229.239L1077.92 223.173L1087.41 189.808H1093.73V204.974H1100.05L1103.21 223.173L1109.53 208.007V183.741L1106.37 168.575H1112.69L1115.85 153.409H1122.18L1125.34 144.31L1131.66 147.343L1134.82 168.575L1141.14 180.708L1147.46 192.841L1144.3 211.04L1169.59 214.073L1156.95 235.305V241.372L1175.91 250.471L1169.59 253.504V274.737L1166.43 289.903L1175.91 292.936L1172.75 308.102L1182.23 295.969L1185.39 289.903L1175.91 286.869L1179.07 271.704H1191.72V247.438L1188.55 232.272H1204.36L1201.2 208.007L1210.68 198.907L1213.84 186.774H1220.16L1226.49 208.007L1229.65 223.173L1239.13 226.206L1232.81 253.504H1251.77V259.571H1245.45V265.637H1261.25L1254.93 283.836L1251.77 295.969L1254.93 302.035H1277.06L1280.22 308.102L1277.06 326.301H1283.38V305.069L1299.19 302.035V295.969L1289.7 292.936V283.836H1283.38L1286.54 271.704L1305.51 268.67L1286.54 247.438L1289.7 235.305L1318.15 229.239L1314.99 214.073V198.907L1318.15 192.841L1314.99 177.675L1321.31 174.642L1327.63 177.675L1324.47 159.476L1327.63 153.409L1330.79 138.244L1337.12 123.078H1346.6V144.31L1349.76 156.443H1359.24V162.509H1352.92L1359.24 180.708V189.808L1375.05 195.874L1371.89 204.974H1365.56L1371.89 229.239L1368.72 238.339L1378.21 241.372V256.538L1384.53 247.438H1390.85V229.239H1384.53L1378.21 211.04V198.907H1384.53V204.974L1397.17 208.007V192.841H1387.69L1384.53 177.675H1394.01L1412.98 180.708V174.642H1403.49L1394.01 162.509V156.443L1406.65 153.409L1403.49 123.078L1412.98 120.044L1406.65 89.7126L1419.3 86.6794L1416.14 68.4803L1422.46 47.248ZM790.285 241.372V253.504H796.607V241.372H790.285ZM398.337 247.438L395.176 268.67L398.337 283.836L410.981 277.77L404.659 247.438H398.337ZM875.629 247.438L866.146 253.504V259.571H878.79L875.629 247.438ZM1479.36 259.571V265.637H1485.68V259.571H1479.36ZM189.72 265.637V271.704H196.041V265.637H189.72ZM1520.45 268.67L1517.29 277.77H1510.96L1501.48 289.903L1504.64 302.035H1510.96L1507.8 314.168L1517.29 317.201L1520.45 280.803L1523.61 268.67H1520.45ZM493.163 271.704V277.77H499.485V271.704H493.163ZM120.18 274.737L113.859 280.803V299.002L123.341 302.035V283.836L126.502 274.737H120.18ZM192.881 277.77L189.72 289.903H196.041L199.202 277.77H192.881ZM360.407 277.77V283.836L366.728 280.803L360.407 277.77ZM537.415 283.836V289.903H531.094V295.969L540.576 292.936L537.415 283.836ZM524.772 295.969L518.45 308.102H512.128V314.168H527.933L531.094 295.969H524.772ZM268.741 302.035L265.581 305.069V320.235H275.063L271.902 308.102H278.224V302.035H268.741ZM347.763 305.069L338.281 314.168V320.235H360.407V314.168H354.085V305.069H347.763ZM581.668 317.201V326.301H587.989L584.829 317.201H581.668ZM957.811 317.201L954.65 332.367L960.972 344.5L973.616 341.467L970.455 320.235L957.811 317.201ZM341.441 326.301L338.281 341.467L347.763 344.5L350.924 326.301H341.441Z" fill="#465A4A"/>
<path d="M4300.02 0.728516H4306.35L4315.83 21.9608L4322.15 24.994L4318.99 43.1931L4325.31 55.3258L4322.15 61.3922L4331.63 64.4254L4325.31 79.5913L4337.96 82.6245L4344.28 85.6576V91.724H4337.96V112.956L4350.6 119.023L4347.44 134.189H4341.12L4344.28 140.255H4360.08L4363.24 152.388H4356.92L4353.76 176.653L4347.44 185.753L4375.89 176.653L4382.21 179.686V188.786L4369.56 197.885L4363.24 213.051L4391.69 210.018L4401.17 216.084V222.151H4407.49V191.819V179.686V170.587H4416.98L4420.14 158.454H4426.46L4432.78 170.587V182.719H4439.1L4435.94 219.118L4432.78 225.184H4448.59L4451.75 231.25L4442.26 249.45V255.516H4467.55L4461.23 270.682L4451.75 273.715V285.848H4464.39V301.014L4477.03 297.98L4489.68 304.047L4477.03 322.246H4470.71L4477.03 334.379L4489.68 343.478V352.578L4473.87 358.644H2902.92L2880.79 352.578V346.511L2893.44 340.445L2890.28 322.246H2883.95V310.113H2877.63V301.014L2902.92 297.98V291.914H2896.6V285.848H2902.92V279.781L2890.28 273.715L2883.95 264.615V255.516H2902.92L2899.76 246.416L2912.4 243.383L2902.92 219.118L2899.76 213.051L2902.92 206.985H2915.56L2912.4 182.719L2915.56 176.653H2909.24V164.52H2915.56V170.587H2921.89L2918.72 152.388V137.222L2928.21 134.189L2934.53 161.487L2940.85 173.62L2934.53 188.786L2950.33 185.753V216.084L2959.82 225.184L2953.49 237.317L2950.33 240.35L2962.98 237.317L2966.14 231.25V213.051H2972.46V206.985H2981.94L2988.26 222.151L2997.75 225.184L3000.91 216.084L3016.71 225.184V219.118L3004.07 213.051L2994.59 191.819L2991.42 182.719H3007.23L3004.07 170.587L3013.55 167.554L3010.39 146.321H3023.03L3010.39 125.089V109.923H3016.71L3013.55 85.6576L3016.71 61.3922L3023.03 49.2594H3029.35V67.4585H3042L3035.68 85.6576L3051.48 91.724L3048.32 103.857L3042 106.89V119.023L3060.96 128.122V134.189L3051.48 140.255L3054.64 152.388L3067.29 164.52V188.786L3060.96 200.919H3079.93V206.985H3073.61V219.118L3083.09 216.084L3086.25 197.885L3079.93 194.852V170.587H3086.25L3092.57 152.388H3098.89V146.321H3092.57L3095.73 128.122L3105.22 125.089L3111.54 137.222V146.321H3117.86V161.487L3124.18 164.52V185.753L3136.82 191.819L3130.5 200.919H3124.18L3127.34 210.018L3139.99 213.051L3136.82 246.416L3143.15 240.35V231.25H3155.79L3158.95 222.151L3149.47 219.118V213.051H3143.15L3139.99 203.952L3162.11 206.985L3155.79 197.885V182.719H3162.11V161.487L3155.79 155.421V146.321H3168.43L3165.27 134.189L3168.43 103.857H3174.75L3177.92 91.724L3187.4 109.923L3190.56 115.989L3187.4 128.122H3193.72L3203.2 161.487L3200.04 173.62L3206.36 176.653V182.719H3200.04V188.786L3212.69 191.819L3209.52 203.952L3200.04 206.985L3209.52 225.184L3222.17 222.151V231.25L3215.85 243.383L3231.65 249.45L3234.81 255.516L3237.97 243.383H3231.65V222.151L3247.45 219.118L3241.13 200.919L3247.45 173.62L3256.94 167.554L3266.42 176.653V191.819L3275.9 197.885V191.819L3291.71 194.852L3279.06 170.587L3272.74 158.454H3301.19V152.388H3294.87L3288.55 137.222V128.122H3298.03L3294.87 106.89L3288.55 103.857V97.7904H3301.19L3304.35 79.5913L3301.19 67.4585L3304.35 61.3922L3313.83 67.4585L3307.51 49.2594L3316.99 21.9608L3320.15 9.82806H3326.48V24.994H3335.96V43.1931L3345.44 46.2263L3342.28 64.4254L3358.09 61.3922L3354.92 76.5581L3348.6 85.6576L3358.09 106.89L3367.57 115.989L3358.09 134.189H3364.41V146.321H3377.05L3370.73 158.454L3367.57 164.52L3386.53 161.487L3392.85 167.554L3380.21 170.587V176.653L3411.82 170.587V176.653H3402.34L3396.02 188.786L3389.69 200.919H3383.37V206.985H3377.05V213.051H3383.37V219.118H3377.05V225.184H3396.02V231.25H3386.53V237.317L3408.66 234.284L3414.98 237.317V231.25L3408.66 228.217L3414.98 216.084L3421.3 188.786H3427.62V182.719H3433.95L3440.27 200.919V216.084H3446.59V228.217H3452.91L3449.75 243.383L3452.91 252.483H3459.23V261.582H3465.55L3468.72 243.383L3471.88 237.317H3478.2L3484.52 246.416L3487.68 264.615L3494 270.682L3487.68 279.781L3500.32 282.815L3490.84 301.014L3519.29 297.98L3528.77 301.014L3519.29 285.848V279.781L3531.93 276.748L3528.77 252.483L3541.42 255.516L3538.25 240.35L3541.42 219.118H3547.74V200.919L3560.38 206.985L3566.7 219.118V237.317H3573.02L3569.86 249.45L3573.02 261.582H3585.67V267.649H3579.35V285.848H3585.67L3582.51 297.98H3591.99V288.881L3604.63 291.914V279.781L3595.15 276.748V273.715H3617.28V267.649H3610.95L3607.79 249.45L3601.47 228.217L3620.44 231.25L3617.28 219.118H3626.76L3623.6 200.919H3617.28L3614.12 182.719H3623.6L3626.76 170.587L3623.6 152.388H3629.92L3626.76 134.189L3645.72 119.023L3648.89 122.056V143.288H3658.37V161.487L3664.69 173.62L3661.53 194.852H3667.85V176.653H3674.17L3671.01 161.487L3686.82 158.454V152.388L3674.17 146.321V140.255H3667.85V134.189L3683.65 131.155L3677.33 122.056V109.923L3689.98 106.89L3683.65 85.6576H3693.14V79.5913H3686.82V61.3922H3693.14L3689.98 46.2263L3699.46 37.1267H3705.78L3715.26 67.4585L3724.75 79.5913L3718.42 97.7904L3724.75 128.122V140.255H3743.71L3750.03 149.354L3737.39 167.554V179.686H3756.35L3762.68 194.852H3756.35V200.919L3772.16 203.952L3769 182.719H3778.48L3781.64 152.388L3787.96 140.255L3797.45 143.288L3800.61 155.421L3806.93 158.454L3810.09 182.719L3819.57 185.753L3813.25 200.919V206.985H3832.22L3835.38 219.118L3822.73 231.25L3819.57 237.317L3832.22 243.383V255.516H3844.86V261.582H3863.82L3860.66 249.45L3854.34 240.35V231.25L3870.15 237.317V219.118L3857.5 206.985V200.919L3873.31 197.885V179.686L3866.99 167.554L3882.79 164.52V158.454H3876.47L3879.63 131.155L3873.31 128.122V122.056L3882.79 115.989L3889.11 94.7572H3895.43L3898.59 109.923H3904.92L3901.76 122.056L3911.24 119.023L3914.4 131.155V152.388L3917.56 158.454L3914.4 167.554L3933.36 170.587V176.653H3927.04L3920.72 188.786H3914.4L3923.88 197.885L3939.69 200.919L3936.52 213.051L3930.2 219.118L3927.04 231.25L3946.01 234.284L3952.33 219.118L3939.69 216.084L3952.33 203.952L3955.49 194.852L3946.01 191.819V182.719L3955.49 176.653L3964.97 143.288H3971.29V158.454H3977.62L3980.78 176.653L3987.1 161.487V137.222L3983.94 122.056H3990.26L3993.42 106.89H3999.74L4002.9 97.7904L4009.22 100.824L4012.39 122.056L4018.71 134.189L4025.03 146.321L4021.87 164.52L4047.16 167.554L4034.51 188.786V194.852L4053.48 203.952L4047.16 206.985V228.217L4043.99 243.383L4053.48 246.416L4050.32 261.582L4059.8 249.45L4062.96 243.383L4053.48 240.35L4056.64 225.184H4069.28V200.919L4066.12 185.753H4081.92L4078.76 161.487L4088.25 152.388L4091.41 140.255H4097.73L4104.05 161.487L4107.21 176.653L4116.69 179.686L4110.37 206.985H4129.34V213.051H4123.02V219.118H4138.82L4132.5 237.317L4129.34 249.45L4132.5 255.516H4154.62L4157.79 261.582L4154.62 279.781H4160.95V258.549L4176.75 255.516V249.45L4167.27 246.416V237.317H4160.95L4164.11 225.184L4183.07 222.151L4164.11 200.919L4167.27 188.786L4195.72 182.719L4192.56 167.554V152.388L4195.72 146.321L4192.56 131.155L4198.88 128.122L4205.2 131.155L4202.04 112.956L4205.2 106.89L4208.36 91.724L4214.68 76.5581H4224.16V97.7904L4227.32 109.923H4236.81V115.989H4230.49L4236.81 134.189V143.288L4252.61 149.354L4249.45 158.454H4243.13L4249.45 182.719L4246.29 191.819L4255.77 194.852V210.018L4262.09 200.919H4268.42V182.719H4262.09L4255.77 164.52V152.388H4262.09V158.454L4274.74 161.487V146.321H4265.26L4262.09 131.155H4271.58L4290.54 134.189V128.122H4281.06L4271.58 115.989V109.923L4284.22 106.89L4281.06 76.5581L4290.54 73.5249L4284.22 43.1931L4296.86 40.1599L4293.7 21.9608L4300.02 0.728516ZM3667.85 194.852V206.985H3674.17V194.852H3667.85ZM3275.9 200.919L3272.74 222.151L3275.9 237.317L3288.55 231.25L3282.22 200.919H3275.9ZM3753.19 200.919L3743.71 206.985V213.051H3756.35L3753.19 200.919ZM4356.92 213.051V219.118H4363.24V213.051H4356.92ZM3067.29 219.118V225.184H3073.61V219.118H3067.29ZM4398.01 222.151L4394.85 231.25H4388.53L4379.05 243.383L4382.21 255.516H4388.53L4385.37 267.649L4394.85 270.682L4398.01 234.284L4401.17 222.151H4398.01ZM3370.73 225.184V231.25H3377.05V225.184H3370.73ZM2997.75 228.217L2991.42 234.284V252.483L3000.91 255.516V237.317L3004.07 228.217H2997.75ZM3070.45 231.25L3067.29 243.383H3073.61L3076.77 231.25H3070.45ZM3237.97 231.25V237.317L3244.29 234.284L3237.97 231.25ZM3414.98 237.317V243.383H3408.66V249.45L3418.14 246.416L3414.98 237.317ZM3402.34 249.45L3396.02 261.582H3389.69V267.649H3405.5L3408.66 249.45H3402.34ZM3146.31 255.516L3143.15 258.549V273.715H3152.63L3149.47 261.582H3155.79V255.516H3146.31ZM3225.33 258.549L3215.85 267.649V273.715H3237.97V267.649H3231.65V258.549H3225.33ZM3459.23 270.682V279.781H3465.55L3462.39 270.682H3459.23ZM3835.38 270.682L3832.22 285.848L3838.54 297.98L3851.18 294.947L3848.02 273.715L3835.38 270.682ZM3219.01 279.781L3215.85 294.947L3225.33 297.98L3228.49 279.781H3219.01Z" fill="#465A4A"/>
</svg>
