<svg width="4682" height="2019" viewBox="0 0 4682 2019" fill="none" xmlns="http://www.w3.org/2000/svg">
<rect x="-136" y="1641" width="4976" height="418" fill="#2B352D"/>
<path d="M3197.41 1539L3233 1549.19V1683H852V1586.15H891.149L937.417 1569.58H976.566L1019.27 1577.23L1058.42 1574.68L1083.34 1581.05H1118.93H1165.2L1229.26 1586.15L1271.97 1577.23H1325.35L1389.42 1581.05L1460.6 1577.23H1535.34L1563.81 1569.58L1627.87 1564.49L1663.46 1569.58L1699.05 1564.49L1723.97 1559.39L1784.47 1564.49L1869.89 1556.84L1944.63 1559.39H1976.66L2044.28 1556.84L2133.26 1559.39H2211.55L2293.41 1569.58H2385.95H2403.74H2478.48L2563.9 1577.23H2585.25L2606.61 1569.58L2645.76 1584.88L2709.82 1597.62L2738.29 1591.25L2763.21 1569.58H2791.68H2837.95L2994.54 1549.19H3033.69L3094.2 1539L3151.14 1549.19L3197.41 1539Z" fill="#2B352D"/>
<path d="M141.424 371.014H150.373V390.344L163.797 385.512L159.322 424.173L177.22 414.508V433.838H168.271V458.002L186.169 453.169L181.695 472.5L163.797 501.496L190.644 506.328L186.169 530.492H177.22V540.157H168.271V554.655L199.593 559.488L204.068 578.818L181.695 588.483L186.169 598.149L213.017 593.316L226.44 588.483L230.915 617.479L208.542 631.977L199.593 651.308H181.695L177.22 675.471L217.491 670.639L239.864 665.806V656.141H248.813V675.471H239.864V694.802H230.915V714.133L239.864 718.965L221.966 723.798L199.593 733.463L186.169 752.794L204.068 757.627V767.292H217.491V781.79H271.186L275.66 791.455L266.711 810.786L235.389 830.117H199.593L208.542 849.447L235.389 873.611L253.288 868.778L257.762 859.113H266.711L271.186 868.778L306.982 878.443L302.508 892.941H280.135L271.186 917.105L244.339 931.603L221.966 936.435L230.915 970.264L262.237 975.096L266.711 965.431H275.66L284.61 975.096L302.508 955.766H311.457L315.931 970.264L324.881 975.096V984.762H311.457L306.982 1013.76L293.559 1018.59L284.61 1033.09L253.288 1037.92V1052.42L239.864 1057.25V1066.92L266.711 1076.58L271.186 1100.75L262.237 1120.08L280.135 1115.24L298.033 1120.08L293.559 1139.41L311.457 1124.91H320.406L324.881 1134.57L347.253 1144.24L333.83 1124.91V1110.41H378.575L374.101 1091.08H347.253L342.779 1081.42L347.253 1071.75H329.355V1062.08H338.304V1052.42H329.355L333.83 1033.09L369.626 1042.75L365.151 1018.59L356.202 1004.09L365.151 994.427H383.05V984.762H391.999V975.096L369.626 965.431L365.151 946.101L391.999 941.268L396.473 926.77H383.05V917.105L391.999 912.272V888.109H436.744L427.795 907.439L418.846 921.937L436.744 917.105L432.27 936.435L454.643 921.937V946.101L441.219 965.431H454.643V975.096H472.541L468.066 989.594L445.693 1013.76H436.744L441.219 1028.26L477.015 1033.09L472.541 1066.92L445.693 1071.75L436.744 1091.08H445.693V1100.75H472.541L477.015 1105.58L472.541 1139.41L436.744 1158.74V1168.4L454.643 1182.9V1192.57L481.49 1187.73H499.388V1178.07H485.964L481.49 1158.74L490.439 1144.24L512.812 1153.91L530.71 1149.07L535.184 1134.57H544.134L553.083 1110.41L512.812 1115.24L499.388 1100.75L481.49 1091.08L485.964 1076.58L508.337 1081.42L503.863 1057.25H521.761L544.134 1066.92L562.032 1062.08L557.557 1047.59L544.134 1042.75L539.659 1023.42L557.557 1004.09L570.981 999.26L575.455 984.762L557.557 979.929L553.083 975.096H512.812V965.431H530.71L526.235 936.435L575.455 931.603L588.879 902.607L562.032 907.439V888.109L544.134 892.941L530.71 888.109L526.235 868.778L512.812 863.945L517.286 854.28H539.659L553.083 844.615H584.405L602.303 839.782L597.828 820.451L575.455 810.786L579.93 801.121H597.828V781.79L570.981 786.623L562.032 762.459L544.134 757.627L535.184 747.961L557.557 743.129H579.93V733.463L602.303 728.631L611.252 714.133V699.635L570.981 675.471V665.806H602.303L611.252 656.141L615.726 636.81H593.354L597.828 617.479L620.201 622.312L615.726 602.981L606.777 598.149V588.483H629.15V578.818L620.201 573.986L638.099 569.153L633.625 549.822H642.574V506.328H651.523V540.157H664.946L660.472 569.153H669.421V559.488H678.37L669.421 588.483L660.472 602.981L682.845 593.316H700.743L696.268 617.479L682.845 641.643H673.896L682.845 660.973L678.37 694.802H718.641V714.133H709.692L714.167 733.463H687.319L682.845 752.794L705.217 767.292L741.014 772.125L736.539 791.455L709.692 810.786L678.37 820.451L687.319 839.782L705.217 859.113H696.268V888.109L736.539 883.276V892.941L758.912 878.443L767.861 883.276L754.437 912.272V936.435L723.116 941.268L718.641 946.101H696.268L700.743 965.431L696.268 975.096L736.539 970.264V984.762L758.912 979.929L754.437 999.26L736.539 1008.93H723.116L718.641 1033.09L754.437 1023.42L767.861 1033.09L763.387 1008.93H781.285L803.658 1013.76V1004.09H812.607V994.427H794.708L790.234 975.096L781.285 950.933H812.607L817.081 946.101H839.454L830.505 926.77L817.081 921.937L803.658 907.439V897.774H794.708V888.109H821.556L830.505 892.941V878.443L852.878 883.276V859.113L830.505 849.447V839.782H821.556V830.117H866.301L857.352 810.786L861.827 805.953L830.505 791.455V762.459L866.301 772.125V752.794H884.199L875.25 738.296L870.776 714.133L857.352 704.467V685.137L879.725 694.802L888.674 699.635L875.25 665.806V646.475H888.674L893.149 602.981H902.098L906.572 646.475H919.996V636.81H928.945L924.47 660.973L915.521 675.471H906.572L915.521 694.802L933.42 689.969L928.945 718.965L911.047 747.961L933.42 743.129V752.794H924.47L919.996 772.125L911.047 791.455L933.42 781.79H946.843L942.369 805.953L933.42 820.451L928.945 849.447L955.792 834.949H964.741L960.267 859.113L955.792 888.109H937.894V897.774H928.945V907.439L1009.49 902.607L1005.01 921.937L1000.54 936.435L978.165 941.268L973.69 955.766L960.267 965.431H928.945V975.096H946.843V984.762H955.792V994.427H969.216L964.741 1033.09H946.843V1042.75H924.47L937.894 1062.08H960.267L973.69 1066.92L996.063 1062.08L1009.49 1086.25V1100.75L982.64 1110.41V1120.08L960.267 1124.91L982.64 1129.74V1139.41H973.69V1149.07L937.894 1158.74V1168.4H969.216H987.114L1000.54 1187.73H1040.81L1036.33 1202.23L1005.01 1211.9L1009.49 1236.06L978.165 1245.73L955.792 1250.56L946.843 1245.73V1265.06L964.741 1269.89L1005.01 1274.72H1036.33L1031.86 1308.55L1013.96 1323.05L982.64 1332.71L973.69 1337.55L964.741 1332.71L973.69 1356.88L1000.54 1361.71L996.063 1376.21L978.165 1385.87V1400.37L987.114 1405.2L1036.33 1410.04V1419.7L1054.23 1414.87L1045.28 1395.54L1027.39 1390.71L1022.91 1371.37H1054.23L1058.71 1352.04H1036.33L1045.28 1332.71L1063.18 1323.05L1090.03 1318.22L1085.55 1308.55L1054.23 1303.72V1274.72L1058.71 1265.06L1040.81 1260.22L1031.86 1236.06L1063.18 1231.23L1094.5 1236.06L1090.03 1221.56L1081.08 1216.73V1207.06L1103.45 1197.4L1107.93 1187.73H1116.88V1178.07L1090.03 1182.9L1054.23 1149.07L1058.71 1139.41L1116.88 1134.57L1130.3 1124.91L1134.77 1110.41H1107.93L1098.98 1086.25L1090.03 1081.42V1071.75L1112.4 1076.58L1139.25 1071.75V1062.08H1125.83V1033.09H1148.2L1139.25 1018.59L1125.83 1013.76V1004.09L1139.25 999.26V970.264L1148.2 960.599L1157.15 941.268L1170.57 979.929L1188.47 984.762L1179.52 1004.09L1170.57 1008.93L1175.05 1037.92L1188.47 1033.09L1183.99 1057.25L1175.05 1066.92L1179.52 1086.25L1201.89 1081.42L1219.79 1076.58L1215.32 1120.08L1197.42 1115.24L1192.94 1129.74H1179.52L1175.05 1144.24L1197.42 1149.07V1163.57L1179.52 1173.24L1188.47 1182.9L1215.32 1178.07L1219.79 1187.73L1210.84 1207.06V1236.06L1183.99 1245.73L1179.52 1255.39L1206.37 1260.22L1237.69 1250.56L1260.06 1245.73L1264.54 1260.22L1277.96 1265.06V1274.72H1260.06L1255.59 1294.05L1251.11 1308.55L1228.74 1298.88L1224.27 1308.55L1197.42 1313.38V1332.71H1215.32V1342.38L1237.69 1337.55L1260.06 1342.38L1277.96 1347.21L1269.01 1352.04L1264.54 1371.37H1251.11V1381.04H1260.06L1255.59 1395.54L1242.16 1390.71V1400.37L1215.32 1390.71L1219.79 1405.2L1233.21 1414.87L1260.06 1410.04L1277.96 1419.7L1309.28 1414.87L1300.33 1439.03L1295.86 1468.03L1277.96 1477.69L1251.11 1472.86V1487.36H1228.74L1233.21 1506.69L1277.96 1511.52L1282.43 1521.19L1331.65 1516.35L1327.18 1545.35H1318.23L1322.71 1564.68H1331.65V1574.35L1304.81 1579.18L1277.96 1569.51L1255.59 1574.35L1264.54 1598.51L1309.28 1593.68L1340.6 1603.34L1336.13 1627.51L1313.76 1642H1304.81L1300.33 1661.33L1286.91 1656.5V1646.84H1277.96L1273.49 1661.33L1255.59 1671H-780.334L-816.13 1651.67L-838.503 1646.84V1637.17L-820.605 1627.51L-798.232 1622.67L-784.808 1613.01L-789.283 1598.51H-825.079L-838.503 1555.02L-829.554 1550.18L-811.656 1559.85H-771.385L-762.436 1564.68L-766.91 1550.18L-780.334 1540.52L-807.181 1530.85V1516.35H-816.13V1506.69H-775.859L-771.385 1492.19H-749.012L-744.537 1477.69H-766.91L-771.385 1463.2L-793.757 1458.36V1448.7H-762.436V1439.03L-784.808 1434.2V1419.7L-744.537 1410.04V1390.71L-762.436 1395.54L-766.91 1385.87L-784.808 1376.21L-780.334 1361.71L-744.537 1356.88V1347.21L-753.486 1342.38L-749.012 1323.05L-771.385 1327.88V1303.72L-740.063 1294.05V1289.22L-762.436 1284.39L-757.961 1265.06H-744.537L-753.486 1231.23L-735.588 1226.39V1207.06H-726.639V1236.06H-717.69V1245.73H-726.639V1255.39H-713.215L-722.165 1284.39L-699.792 1279.55L-713.215 1308.55L-726.639 1323.05L-704.266 1327.88V1337.55L-690.843 1342.38L-695.317 1352.04L-713.215 1361.71L-699.792 1376.21V1390.71H-677.419L-681.894 1410.04L-650.572 1405.2L-628.199 1381.04L-623.724 1371.37L-628.199 1347.21L-655.046 1337.55L-659.521 1323.05L-619.25 1298.88L-614.775 1284.39L-605.826 1279.55L-601.352 1260.22L-637.148 1265.06L-646.097 1289.22H-655.046V1279.55L-677.419 1274.72V1255.39H-695.317L-699.792 1231.23L-704.266 1216.73H-690.843V1226.39H-646.097L-610.301 1207.06H-601.352V1187.73H-623.724L-628.199 1197.4H-637.148V1187.73H-668.47V1178.07H-655.046V1158.74L-601.352 1153.91L-592.403 1124.91L-601.352 1129.74H-632.674L-650.572 1115.24L-646.097 1100.75L-605.826 1095.91L-583.453 1086.25V1057.25L-610.301 1062.08H-623.724L-646.097 1037.92L-641.623 1018.59L-623.724 1013.76H-605.826L-574.504 1008.93V989.594L-601.352 979.929L-610.301 975.096V960.599L-570.03 950.933L-556.606 926.77L-574.504 921.937L-583.453 917.105V907.439H-565.555L-583.453 888.109L-587.928 897.774L-592.403 892.941V868.778L-610.301 863.945L-614.775 849.447L-583.453 854.28L-547.657 849.447V830.117L-565.555 825.284L-574.504 820.451V801.121H-547.657V772.125L-561.081 767.292L-565.555 743.129L-543.183 752.794L-547.657 723.798H-556.606V714.133H-543.183L-547.657 685.137H-538.708V660.973H-529.759L-525.284 685.137L-529.759 694.802L-516.335 699.635L-520.81 714.133H-511.861L-520.81 743.129H-502.912L-511.861 762.459L-520.81 781.79H-511.861V791.455L-493.962 786.623L-502.912 810.786H-520.81L-511.861 830.117V849.447H-485.013L-493.962 868.778H-502.912L-493.962 888.109H-467.115L-476.064 907.439L-511.861 926.77L-516.335 936.435H-493.962H-480.539L-467.115 941.268L-471.59 960.599L-485.013 970.264V989.594L-476.064 994.427V1004.09L-485.013 1008.93V1033.09H-462.641L-435.793 1042.75V1052.42H-458.166V1062.08H-467.115V1071.75L-489.488 1081.42L-493.962 1091.08L-471.59 1095.91L-399.997 1110.41L-413.421 1129.74H-422.37L-426.844 1149.07L-449.217 1158.74L-467.115 1149.07V1158.74L-476.064 1163.57L-467.115 1187.73L-413.421 1197.4L-408.946 1216.73L-426.844 1236.06L-458.166 1245.73L-480.539 1255.39L-485.013 1265.06L-444.742 1274.72H-386.573L-391.048 1294.05L-395.522 1303.72L-408.946 1308.55L-413.421 1327.88L-462.641 1342.38V1356.88L-449.217 1352.04H-404.471L-386.573 1347.21L-391.048 1366.54L-399.997 1381.04L-417.895 1390.71L-422.37 1410.04L-431.319 1414.87L-435.793 1429.37L-395.522 1424.53V1414.87L-377.624 1419.7V1429.37L-359.726 1434.2V1448.7H-382.099L-377.624 1468.03H-395.522V1487.36H-404.471V1497.02L-368.675 1492.19V1472.86L-341.828 1468.03V1448.7H-314.98V1439.03H-323.929V1419.7L-341.828 1410.04V1400.37H-306.031V1371.37H-319.455L-323.929 1347.21L-350.777 1356.88L-359.726 1352.04L-368.675 1313.38L-364.2 1294.05L-359.726 1298.88H-297.082V1279.55L-323.929 1269.89L-319.455 1255.39H-310.506V1245.73L-319.455 1240.89L-297.082 1226.39H-288.133V1207.06H-314.98V1182.9L-341.828 1178.07V1158.74L-319.455 1153.91L-301.557 1149.07H-292.608L-288.133 1139.41H-279.184V1129.74L-297.082 1124.91L-292.608 1100.75L-319.455 1086.25L-314.98 1071.75L-274.709 1062.08L-270.235 1042.75H-288.133L-283.659 1023.42L-265.76 1018.59L-261.286 999.26H-279.184L-283.659 989.594L-306.031 984.762V975.096H-279.184V965.431H-288.133L-283.659 950.933L-256.811 946.101V936.435L-270.235 931.603L-265.76 912.272V902.607L-270.235 888.109H-252.337L-261.286 873.611V859.113L-238.913 849.447L-221.015 859.113L-225.489 888.109L-207.591 883.276L-212.066 907.439L-216.54 917.105H-207.591V926.77H-198.642L-207.591 955.766H-216.54L-207.591 975.096L-212.066 994.427L-198.642 1004.09L-203.117 1023.42L-207.591 1037.92L-185.218 1033.09L-189.693 1052.42L-203.117 1071.75H-212.066V1081.42L-185.218 1091.08L-171.795 1110.41V1124.91L-176.269 1144.24L-162.846 1139.41V1129.74L-135.998 1134.57L-127.049 1115.24L-118.1 1091.08L-140.473 1095.91L-171.795 1081.42V1071.75H-140.473V1062.08L-162.846 1057.25L-167.32 1033.09L-135.998 1023.42L-118.1 1013.76L-113.626 1004.09H-122.575L-135.998 989.594L-153.897 994.427L-176.269 975.096V965.431L-122.575 950.933V936.435L-140.473 931.603L-149.422 907.439L-144.947 888.109H-113.626L-118.1 873.611L-149.422 854.28L-144.947 830.117L-100.202 839.782L-104.676 820.451H-118.1V810.786H-95.7274L-100.202 796.288L-118.1 776.957L-113.626 762.459H-100.202L-104.676 738.296H-86.7782L-82.3037 699.635L-73.3546 704.467V733.463L-50.9818 723.798L-59.9309 762.459L-37.5582 757.627L-28.6091 781.79L-50.9818 791.455H-64.4055V801.121H-55.4564V810.786H-24.1345L-28.6091 834.949L-50.9818 844.615L-46.5073 863.945L-37.5582 868.778V888.109L-50.9818 892.941L-55.4564 907.439H-28.6091V897.774H-1.76177L-10.7109 917.105H-19.66L-28.6091 946.101L-1.76177 936.435L25.0855 926.77L38.5092 921.937L51.9329 888.109H34.0346L29.5601 873.611L7.18734 868.778L-6.23632 849.447V825.284H29.5601L60.882 815.619L78.7802 810.786V801.121L60.882 796.288L56.4074 781.79L34.0346 772.125V762.459L51.9329 757.627V733.463L87.7293 738.296V718.965L51.9329 699.635L60.882 675.471L38.5092 670.639L34.0346 646.475L47.4583 641.643L87.7293 636.81V617.479L105.627 607.814L96.6784 583.651L60.882 578.818V569.153H69.8311V559.488H60.882L56.4074 544.99L110.102 535.324L105.627 515.994L96.6784 506.328L114.577 491.83V472.5L96.6784 462.834V433.838L132.475 443.504V424.173H123.526V414.508H132.475L141.424 371.014ZM7.18734 975.096V984.762L-15.1854 994.427L-6.23632 1013.76L7.18734 1018.59L16.1364 1042.75L29.5601 1047.59V1013.76L38.5092 994.427L34.0346 984.762L7.18734 975.096ZM790.234 1047.59L785.759 1062.08L772.336 1057.25L741.014 1086.25L736.539 1095.91L723.116 1100.75L741.014 1129.74H727.59V1139.41L758.912 1144.24L776.81 1149.07V1158.74H767.861V1168.4H758.912V1187.73L741.014 1182.9V1207.06L763.387 1216.73L772.336 1236.06H785.759L790.234 1211.9H781.285V1197.4L803.658 1187.73V1158.74H812.607V1149.07H821.556V1134.57L812.607 1129.74H785.759V1105.58L772.336 1100.75L785.759 1091.08V1081.42H812.607L808.132 1057.25L790.234 1047.59ZM7.18734 1062.08L2.71279 1076.58L-10.7109 1081.42V1091.08L25.0855 1095.91L20.611 1071.75L16.1364 1062.08H7.18734ZM284.61 1178.07L266.711 1187.73V1197.4H257.762L262.237 1211.9L280.135 1226.39L311.457 1231.23L320.406 1236.06L329.355 1192.57L320.406 1178.07H284.61ZM503.863 1211.9L499.388 1236.06L481.49 1245.73V1265.06H472.541V1274.72L490.439 1269.89L499.388 1265.06V1274.72L539.659 1269.89L544.134 1255.39H526.235V1236.06H517.286V1226.39H526.235V1216.73L503.863 1211.9ZM508.337 1308.55L499.388 1313.38L508.337 1332.71L530.71 1342.38L535.184 1332.71H526.235L521.761 1308.55H508.337ZM1045.28 1443.86L1022.91 1458.36L1018.44 1472.86L1000.54 1468.03L1005.01 1487.36L1036.33 1516.35L1045.28 1530.85L1054.23 1526.02V1506.69H1045.28V1497.02L1058.71 1501.86L1063.18 1468.03H1054.23V1443.86H1045.28Z" fill="#2B352D"/>
<path d="M-298.048 0H-287.072V23.7071L-270.607 17.7803L-276.095 65.1946L-254.142 53.341V77.0482H-265.118V106.682L-243.165 100.755L-248.653 124.462L-270.607 160.023L-237.676 165.95L-243.165 195.584H-254.142V207.437H-265.118V225.218L-226.7 231.145L-221.211 254.852L-248.653 266.705L-243.165 278.559L-210.235 272.632L-193.77 266.705L-188.281 302.266L-215.723 320.046L-226.7 343.753H-248.653L-254.142 373.387L-204.746 367.461L-177.304 361.534V349.68H-166.328V373.387H-177.304V397.094H-188.281V420.802L-177.304 426.728L-199.258 432.655L-226.7 444.509L-243.165 468.216L-221.211 474.143V485.996H-204.746V503.777H-138.886L-133.398 515.63L-144.374 539.337L-182.793 563.044H-226.7L-215.723 586.752L-182.793 616.385L-160.839 610.459L-155.351 598.605H-144.374L-138.886 610.459L-94.979 622.312L-100.467 640.093H-127.909L-138.886 669.726L-171.816 687.507L-199.258 693.434L-188.281 734.921L-149.863 740.848L-144.374 728.994H-133.398L-122.421 740.848L-100.467 717.141H-89.4906L-84.0023 734.921L-73.0256 740.848V752.701H-89.4906L-94.979 788.262L-111.444 794.189L-122.421 811.969L-160.839 817.896V835.676L-177.304 841.603V853.457L-144.374 865.31L-138.886 894.944L-149.863 918.651L-127.909 912.725L-105.956 918.651L-111.444 942.359L-89.4906 924.578H-78.5139L-73.0256 936.432L-45.5837 948.285L-62.0488 924.578V906.798H-7.16519L-12.6536 883.091H-45.5837L-51.0721 871.237L-45.5837 859.384H-67.5372V847.53H-56.5605V835.676H-67.5372L-62.0488 811.969L-18.1419 823.823L-23.6303 794.189L-34.607 776.409L-23.6303 764.555H-1.67683V752.701H9.2999V740.848L-18.1419 728.994L-23.6303 705.287L9.2999 699.36L14.7883 681.58H-1.67683V669.726L9.2999 663.8V634.166H64.1835L53.2068 657.873L42.2301 675.653L64.1835 669.726L58.6952 693.434L86.137 675.653V705.287L69.6719 728.994H86.137V740.848H108.09L102.602 758.628L75.1603 788.262H64.1835L69.6719 806.042L113.579 811.969L108.09 853.457L75.1603 859.384L64.1835 883.091H75.1603V894.944H108.09L113.579 900.871L108.09 942.359L64.1835 966.066V977.919L86.137 995.7V1007.55L119.067 1001.63H141.021V989.773H124.556L119.067 966.066L130.044 948.285L157.486 960.139L179.439 954.212L184.928 936.432H195.904L206.881 906.798L157.486 912.725L141.021 894.944L119.067 883.091L124.556 865.31L151.997 871.237L146.509 841.603H168.462L195.904 853.457L217.858 847.53L212.369 829.75L195.904 823.823L190.416 800.116L212.369 776.409L228.834 770.482L234.323 752.701L212.369 746.775L206.881 740.848H157.486V728.994H179.439L173.951 693.434L234.323 687.507L250.788 651.946L217.858 657.873V634.166L195.904 640.093L179.439 634.166L173.951 610.459L157.486 604.532L162.974 592.678H190.416L206.881 580.825H245.3L267.253 574.898L261.765 551.191L234.323 539.337L239.811 527.484H261.765V503.777L228.834 509.703L217.858 480.069L195.904 474.143L184.928 462.289L212.369 456.362H239.811V444.509L267.253 438.582L278.23 420.802V403.021L228.834 373.387V361.534H267.253L278.23 349.68L283.718 325.973H256.276L261.765 302.266L289.206 308.193L283.718 284.486L272.741 278.559V266.705H300.183V254.852L289.206 248.925L311.16 242.998L305.672 219.291H316.648V165.95H327.625V207.437H344.09L338.602 242.998H349.578V231.145H360.555L349.578 266.705L338.602 284.486L366.044 272.632H387.997L382.509 302.266L366.044 331.9H355.067L366.044 355.607L360.555 397.094H409.95V420.802H398.974L404.462 444.509H371.532L366.044 468.216L393.485 485.996L437.392 491.923L431.904 515.63L398.974 539.337L360.555 551.191L371.532 574.898L393.485 598.605H382.509V634.166L431.904 628.239V640.093L459.346 622.312L470.322 628.239L453.857 663.8V693.434L415.439 699.36L409.95 705.287H382.509L387.997 728.994L382.509 740.848L431.904 734.921V752.701L459.346 746.775L453.857 770.482L431.904 782.335H415.439L409.95 811.969L453.857 800.116L470.322 811.969L464.834 782.335H486.788L514.229 788.262V776.409H525.206V764.555H503.253L497.764 740.848L486.788 711.214H525.206L530.694 705.287H558.136L547.159 681.58L530.694 675.653L514.229 657.873V646.019H503.253V634.166H536.183L547.159 640.093V622.312L574.601 628.239V598.605L547.159 586.752V574.898H536.183V563.044H591.066L580.09 539.337L585.578 533.41L547.159 515.63V480.069L591.066 491.923V468.216H613.02L602.043 450.436L596.555 420.802L580.09 408.948V385.241L607.531 397.094L618.508 403.021L602.043 361.534V337.827H618.508L623.997 284.486H634.973L640.462 337.827H656.927V325.973H667.903L662.415 355.607L651.438 373.387H640.462L651.438 397.094L673.392 391.168L667.903 426.728L645.95 462.289L673.392 456.362V468.216H662.415L656.927 491.923L645.95 515.63L673.392 503.777H689.857L684.369 533.41L673.392 551.191L667.903 586.752L700.834 568.971H711.81L706.322 598.605L700.834 634.166H678.88V646.019H667.903V657.873L766.694 651.946L761.206 675.653L755.717 693.434L728.275 699.36L722.787 717.141L706.322 728.994H667.903V740.848H689.857V752.701H700.834V764.555H717.299L711.81 811.969H689.857V823.823H662.415L678.88 847.53H706.322L722.787 853.457L750.229 847.53L766.694 877.164V894.944L733.764 906.798V918.651L706.322 924.578L733.764 930.505V942.359H722.787V954.212L678.88 966.066V977.919H717.299H739.252L755.717 1001.63H805.113L799.624 1019.41L761.206 1031.26L766.694 1060.89L728.275 1072.75L700.834 1078.67L689.857 1072.75V1096.45L711.81 1102.38L761.206 1108.31H799.624L794.136 1149.8L772.182 1167.58L733.764 1179.43L722.787 1185.36L711.81 1179.43L722.787 1209.06L755.717 1214.99L750.229 1232.77L728.275 1244.62V1262.4L739.252 1268.33L799.624 1274.26V1286.11L821.578 1280.19L810.601 1256.48L788.647 1250.55L783.159 1226.84H821.578L827.066 1203.14H799.624L810.601 1179.43L832.554 1167.58L865.485 1161.65L859.996 1149.8L821.578 1143.87V1108.31L827.066 1096.45L805.113 1090.53L794.136 1060.89L832.554 1054.97L870.973 1060.89L865.485 1043.11L854.508 1037.19V1025.33L881.95 1013.48L887.438 1001.63H898.415V989.773L865.485 995.7L821.578 954.212L827.066 942.359L898.415 936.432L914.88 924.578L920.368 906.798H887.438L876.461 877.164L865.485 871.237V859.384L892.926 865.31L925.857 859.384V847.53H909.391V811.969H936.833L925.857 794.189L909.391 788.262V776.409L925.857 770.482V734.921L936.833 723.068L947.81 699.36L964.275 746.775L986.229 752.701L975.252 776.409L964.275 782.335L969.763 817.896L986.229 811.969L980.74 841.603L969.763 853.457L975.252 877.164L1002.69 871.237L1024.65 865.31L1019.16 918.651L997.205 912.725L991.717 930.505H975.252L969.763 948.285L997.205 954.212V971.992L975.252 983.846L986.229 995.7L1019.16 989.773L1024.65 1001.63L1013.67 1025.33V1060.89L980.74 1072.75L975.252 1084.6L1008.18 1090.53L1046.6 1078.67L1074.04 1072.75L1079.53 1090.53L1096 1096.45V1108.31H1074.04L1068.55 1132.02L1063.07 1149.8L1035.62 1137.94L1030.14 1149.8L997.205 1155.72V1179.43H1019.16V1191.28L1046.6 1185.36L1074.04 1191.28L1096 1197.21L1085.02 1203.14L1079.53 1226.84H1063.07V1238.7H1074.04L1068.55 1256.48L1052.09 1250.55V1262.4L1019.16 1250.55L1024.65 1268.33L1041.11 1280.19L1074.04 1274.26L1096 1286.11L1134.41 1280.19L1123.44 1309.82L1117.95 1345.38L1096 1357.23L1063.07 1351.31V1369.09H1035.62L1041.11 1392.79L1096 1398.72L1101.48 1410.57L1161.86 1404.65L1156.37 1440.21H1145.39L1150.88 1463.92H1161.86V1475.77L1128.93 1481.7L1096 1469.84L1068.55 1475.77L1079.53 1505.4L1134.41 1499.48L1172.83 1511.33L1167.34 1540.96L1139.9 1558.74H1128.93L1123.44 1582.45L1106.97 1576.52V1564.67H1096L1090.51 1582.45L1068.55 1594.3H-1428.65L-1472.56 1570.6L-1500 1564.67V1552.82L-1478.05 1540.96L-1450.6 1535.04L-1434.14 1523.18L-1439.63 1505.4H-1483.53L-1500 1452.06L-1489.02 1446.14L-1467.07 1457.99H-1417.67L-1406.7 1463.92L-1412.19 1446.14L-1428.65 1434.28L-1461.58 1422.43V1404.65H-1472.56V1392.79H-1423.16L-1417.67 1375.01H-1390.23L-1384.74 1357.23H-1412.19L-1417.67 1339.45L-1445.12 1333.53V1321.67H-1406.7V1309.82L-1434.14 1303.89V1286.11L-1384.74 1274.26V1250.55L-1406.7 1256.48L-1412.19 1244.62L-1434.14 1232.77L-1428.65 1214.99L-1384.74 1209.06V1197.21L-1395.72 1191.28L-1390.23 1167.58L-1417.67 1173.5V1143.87L-1379.26 1132.02V1126.09L-1406.7 1120.16L-1401.21 1096.45H-1384.74L-1395.72 1054.97L-1373.77 1049.04V1025.33H-1362.79V1060.89H-1351.81V1072.75H-1362.79V1084.6H-1346.33L-1357.3 1120.16L-1329.86 1114.24L-1346.33 1149.8L-1362.79 1167.58L-1335.35 1173.5V1185.36L-1318.88 1191.28L-1324.37 1203.14L-1346.33 1214.99L-1329.86 1232.77V1250.55H-1302.42L-1307.91 1274.26L-1269.49 1268.33L-1242.05 1238.7L-1236.56 1226.84L-1242.05 1197.21L-1274.98 1185.36L-1280.47 1167.58L-1231.07 1137.94L-1225.58 1120.16L-1214.61 1114.24L-1209.12 1090.53L-1253.02 1096.45L-1264 1126.09H-1274.98V1114.24L-1302.42 1108.31V1084.6H-1324.37L-1329.86 1054.97L-1335.35 1037.19H-1318.88V1049.04H-1264L-1220.09 1025.33H-1209.12V1001.63H-1236.56L-1242.05 1013.48H-1253.02V1001.63H-1291.44V989.773H-1274.98V966.066L-1209.12 960.139L-1198.14 924.578L-1209.12 930.505H-1247.54L-1269.49 912.725L-1264 894.944L-1214.61 889.017L-1187.16 877.164V841.603L-1220.09 847.53H-1236.56L-1264 817.896L-1258.51 794.189L-1236.56 788.262H-1214.61L-1176.19 782.335V758.628L-1209.12 746.775L-1220.09 740.848V723.068L-1170.7 711.214L-1154.23 681.58L-1176.19 675.653L-1187.16 669.726V657.873H-1165.21L-1187.16 634.166L-1192.65 646.019L-1198.14 640.093V610.459L-1220.09 604.532L-1225.58 586.752L-1187.16 592.678L-1143.26 586.752V563.044L-1165.21 557.118L-1176.19 551.191V527.484H-1143.26V491.923L-1159.72 485.996L-1165.21 456.362L-1137.77 468.216L-1143.26 432.655H-1154.23V420.802H-1137.77L-1143.26 385.241H-1132.28V355.607H-1121.3L-1115.81 385.241L-1121.3 397.094L-1104.84 403.021L-1110.33 420.802H-1099.35L-1110.33 456.362H-1088.37L-1099.35 480.069L-1110.33 503.777H-1099.35V515.63L-1077.4 509.703L-1088.37 539.337H-1110.33L-1099.35 563.044V586.752H-1066.42L-1077.4 610.459H-1088.37L-1077.4 634.166H-1044.47L-1055.44 657.873L-1099.35 681.58L-1104.84 693.434H-1077.4H-1060.93L-1044.47 699.36L-1049.95 723.068L-1066.42 734.921V758.628L-1055.44 764.555V776.409L-1066.42 782.335V811.969H-1038.98L-1006.05 823.823V835.676H-1033.49V847.53H-1044.47V859.384L-1071.91 871.237L-1077.4 883.091L-1049.95 889.017L-962.14 906.798L-978.605 930.505H-989.582L-995.071 954.212L-1022.51 966.066L-1044.47 954.212V966.066L-1055.44 971.992L-1044.47 1001.63L-978.605 1013.48L-973.117 1037.19L-995.071 1060.89L-1033.49 1072.75L-1060.93 1084.6L-1066.42 1096.45L-1017.02 1108.31H-945.675L-951.164 1132.02L-956.652 1143.87L-973.117 1149.8L-978.605 1173.5L-1038.98 1191.28V1209.06L-1022.51 1203.14H-967.629L-945.675 1197.21L-951.164 1220.92L-962.14 1238.7L-984.094 1250.55L-989.582 1274.26L-1000.56 1280.19L-1006.05 1297.97L-956.652 1292.04V1280.19L-934.699 1286.11V1297.97L-912.745 1303.89V1321.67H-940.187L-934.699 1345.38H-956.652V1369.09H-967.629V1380.94L-923.722 1375.01V1351.31L-890.792 1345.38V1321.67H-857.861V1309.82H-868.838V1286.11L-890.792 1274.26V1262.4H-846.885V1226.84H-863.35L-868.838 1197.21L-901.768 1209.06L-912.745 1203.14L-923.722 1155.72L-918.233 1132.02L-912.745 1137.94H-835.908V1114.24L-868.838 1102.38L-863.35 1084.6H-852.373V1072.75L-863.35 1066.82L-835.908 1049.04H-824.931V1025.33H-857.861V995.7L-890.792 989.773V966.066L-863.35 960.139L-841.396 954.212H-830.42L-824.931 942.359H-813.955V930.505L-835.908 924.578L-830.42 894.944L-863.35 877.164L-857.861 859.384L-808.466 847.53L-802.978 823.823H-824.931L-819.443 800.116L-797.49 794.189L-792.001 770.482H-813.955L-819.443 758.628L-846.885 752.701V740.848H-813.955V728.994H-824.931L-819.443 711.214L-786.513 705.287V693.434L-802.978 687.507L-797.49 663.8V651.946L-802.978 634.166H-781.024L-792.001 616.385V598.605L-764.559 586.752L-742.606 598.605L-748.094 634.166L-726.141 628.239L-731.629 657.873L-737.118 669.726H-726.141V681.58H-715.164L-726.141 717.141H-737.118L-726.141 740.848L-731.629 764.555L-715.164 776.409L-720.652 800.116L-726.141 817.896L-698.699 811.969L-704.187 835.676L-720.652 859.384H-731.629V871.237L-698.699 883.091L-682.234 906.798V924.578L-687.722 948.285L-671.257 942.359V930.505L-638.327 936.432L-627.35 912.725L-616.374 883.091L-643.815 889.017L-682.234 871.237V859.384H-643.815V847.53L-671.257 841.603L-676.746 811.969L-638.327 800.116L-616.374 788.262L-610.885 776.409H-621.862L-638.327 758.628L-660.28 764.555L-687.722 740.848V728.994L-621.862 711.214V693.434L-643.815 687.507L-654.792 657.873L-649.304 634.166H-610.885L-616.374 616.385L-654.792 592.678L-649.304 563.044L-594.42 574.898L-599.908 551.191H-616.374V539.337H-588.932L-594.42 521.557L-616.374 497.85L-610.885 480.069H-594.42L-599.908 450.436H-577.955L-572.467 403.021L-561.49 408.948V444.509L-534.048 432.655L-545.025 480.069L-517.583 474.143L-506.606 503.777L-534.048 515.63H-550.513V527.484H-539.536V539.337H-501.118L-506.606 568.971L-534.048 580.825L-528.56 604.532L-517.583 610.459V634.166L-534.048 640.093L-539.536 657.873H-506.606V646.019H-473.676L-484.653 669.726H-495.63L-506.606 705.287L-473.676 693.434L-440.746 681.58L-424.281 675.653L-407.816 634.166H-429.769L-435.258 616.385L-462.699 610.459L-479.164 586.752V557.118H-435.258L-396.839 545.264L-374.886 539.337V527.484L-396.839 521.557L-402.327 503.777L-429.769 491.923V480.069L-407.816 474.143V444.509L-363.909 450.436V426.728L-407.816 403.021L-396.839 373.387L-424.281 367.461L-429.769 337.827L-413.304 331.9L-363.909 325.973V302.266L-341.955 290.412L-352.932 260.778L-396.839 254.852V242.998H-385.862V231.145H-396.839L-402.327 213.364L-336.467 201.511L-341.955 177.803L-352.932 165.95L-330.979 148.17V124.462L-352.932 112.609V77.0482L-309.025 88.9017V65.1946H-320.002V53.341H-309.025L-298.048 0ZM-462.699 740.848V752.701L-490.141 764.555L-479.164 788.262L-462.699 794.189L-451.723 823.823L-435.258 829.75V788.262L-424.281 764.555L-429.769 752.701L-462.699 740.848ZM497.764 829.75L492.276 847.53L475.811 841.603L437.392 877.164L431.904 889.017L415.439 894.944L437.392 930.505H420.927V942.359L459.346 948.285L481.299 954.212V966.066H470.322V977.919H459.346V1001.63L437.392 995.7V1025.33L464.834 1037.19L475.811 1060.89H492.276L497.764 1031.26H486.788V1013.48L514.229 1001.63V966.066H525.206V954.212H536.183V936.432L525.206 930.505H492.276V900.871L475.811 894.944L492.276 883.091V871.237H525.206L519.718 841.603L497.764 829.75ZM-462.699 847.53L-468.188 865.31L-484.653 871.237V883.091L-440.746 889.017L-446.234 859.384L-451.723 847.53H-462.699ZM-122.421 989.773L-144.374 1001.63V1013.48H-155.351L-149.863 1031.26L-127.909 1049.04L-89.4906 1054.97L-78.5139 1060.89L-67.5372 1007.55L-78.5139 989.773H-122.421ZM146.509 1031.26L141.021 1060.89L119.067 1072.75V1096.45H108.09V1108.31L130.044 1102.38L141.021 1096.45V1108.31L190.416 1102.38L195.904 1084.6H173.951V1060.89H162.974V1049.04H173.951V1037.19L146.509 1031.26ZM151.997 1149.8L141.021 1155.72L151.997 1179.43L179.439 1191.28L184.928 1179.43H173.951L168.462 1149.8H151.997ZM810.601 1315.75L783.159 1333.53L777.671 1351.31L755.717 1345.38L761.206 1369.09L799.624 1404.65L810.601 1422.43L821.578 1416.5V1392.79H810.601V1380.94L827.066 1386.87L832.554 1345.38H821.578V1315.75H810.601Z" fill="#2B352D"/>
<path d="M4119.06 391.249L4129.08 391.388L4128.8 411.67L4143.89 406.809L4138.32 447.303L4158.5 437.44L4158.22 457.722L4148.2 457.583L4147.85 482.935L4167.95 478.143L4162.66 498.356L4142.2 528.5L4172.18 533.988L4166.82 559.271L4156.81 559.132L4156.67 569.273L4146.65 569.133L4146.44 584.345L4181.43 589.902L4186.15 610.254L4160.97 620.047L4165.84 630.257L4195.96 625.605L4211.06 620.743L4215.64 651.235L4190.39 666.099L4180.09 686.241L4160.05 685.963L4154.69 711.246L4199.84 706.802L4224.96 702.079L4225.1 691.938L4235.11 692.078L4234.83 712.359L4224.81 712.22L4224.53 732.502L4214.52 732.363L4214.23 752.645L4224.18 757.854L4204.08 762.646L4178.89 772.439L4163.58 792.512L4183.55 797.861L4183.41 808.002L4198.43 808.211L4198.22 823.423L4258.33 824.258L4263.19 834.468L4252.89 854.611L4217.55 874.406L4177.48 873.849L4187.22 894.27L4216.92 920.04L4237.02 915.248L4242.17 905.176L4252.19 905.316L4257.06 915.526L4296.99 926.224L4291.77 941.366L4266.72 941.018L4256.35 966.231L4226.09 981.025L4200.97 985.747L4210.5 1021.38L4245.49 1026.94L4250.64 1016.87L4260.66 1017.01L4270.53 1027.29L4290.85 1007.28L4300.87 1007.42L4305.66 1022.7L4315.61 1027.91L4315.47 1038.05L4300.44 1037.84L4295.01 1068.2L4279.92 1073.06L4269.69 1088.13L4234.56 1092.71L4234.34 1107.93L4219.25 1112.79L4219.11 1122.93L4249.02 1133.49L4253.67 1158.91L4243.38 1179.05L4263.48 1174.26L4283.45 1179.61L4278.15 1199.82L4298.4 1184.89L4308.42 1185.03L4313.29 1195.24L4338.19 1205.73L4323.44 1185.24L4323.66 1170.02L4373.74 1170.72L4369.02 1150.37L4338.96 1149.95L4334.1 1139.74L4339.25 1129.67L4319.21 1129.39L4319.35 1119.25L4329.37 1119.39L4329.51 1109.25L4319.49 1109.11L4324.78 1088.9L4364.71 1099.59L4360.06 1074.17L4350.25 1058.82L4360.41 1048.82L4380.44 1049.1L4380.58 1038.96L4390.6 1039.1L4390.74 1028.96L4365.84 1018.47L4361.11 998.115L4391.24 993.463L4396.46 978.321L4381.43 978.112L4381.57 967.971L4391.66 963.04L4392.01 937.687L4442.1 938.383L4431.8 958.526L4421.57 973.598L4441.67 968.806L4436.38 989.019L4461.64 974.155L4461.29 999.508L4445.98 1019.58L4461.01 1019.79L4460.86 1029.93L4480.9 1030.21L4475.68 1045.35L4450.28 1070.35L4440.27 1070.22L4445.06 1085.5L4485.06 1091.12L4479.56 1126.55L4449.44 1131.2L4439.14 1151.34L4449.16 1151.48L4449.01 1161.62L4479.07 1162.04L4484.01 1167.18L4478.5 1202.6L4438.15 1222.33L4438.01 1232.47L4457.83 1247.96L4457.69 1258.1L4487.82 1253.45L4507.85 1253.73L4507.99 1243.59L4492.97 1243.38L4488.24 1223.03L4498.47 1207.95L4523.37 1218.44L4543.48 1213.65L4548.7 1198.51L4558.71 1198.65L4569.08 1173.43L4523.93 1177.88L4509.12 1162.46L4489.23 1152.04L4494.45 1136.9L4519.42 1142.32L4514.76 1116.89L4534.8 1117.17L4559.7 1127.66L4579.81 1122.87L4575.01 1107.59L4560.05 1102.31L4555.33 1081.96L4575.64 1061.95L4590.74 1057.09L4595.96 1041.95L4575.99 1036.6L4571.06 1031.46L4525.98 1030.84L4526.12 1020.69L4546.15 1020.97L4541.57 990.48L4596.73 986.175L4612.18 955.961L4582.06 960.614L4582.34 940.332L4562.24 945.124L4547.28 939.845L4542.55 919.494L4527.6 914.214L4532.75 904.143L4557.79 904.491L4572.96 894.559L4608.02 895.046L4628.13 890.254L4623.4 869.903L4598.5 859.414L4603.65 849.342L4623.68 849.621L4623.96 829.339L4593.84 833.992L4584.17 808.5L4564.21 803.151L4554.33 792.871L4579.45 788.149L4604.49 788.497L4604.63 778.356L4629.75 773.633L4639.97 758.561L4640.19 743.35L4595.46 717.371L4595.6 707.23L4630.66 707.717L4640.82 697.715L4646.11 677.503L4621.07 677.155L4626.36 656.943L4651.33 662.361L4646.6 642.01L4636.66 636.8L4636.8 626.659L4661.84 627.007L4661.98 616.866L4652.04 611.657L4672.14 606.865L4667.41 586.513L4677.43 586.652L4678.07 541.018L4688.08 541.157L4687.59 576.651L4702.62 576.859L4697.18 607.213L4707.2 607.352L4707.34 597.211L4717.36 597.35L4706.92 627.634L4696.69 642.706L4721.88 632.913L4741.91 633.191L4736.55 658.474L4721.17 683.618L4711.15 683.479L4720.89 703.9L4715.39 739.323L4760.47 739.95L4760.18 760.232L4750.17 760.092L4754.89 780.444L4724.84 780.026L4719.55 800.239L4744.38 815.798L4784.38 821.425L4779.09 841.638L4748.76 861.502L4713.56 871.156L4723.29 891.577L4743.04 912.137L4733.03 911.998L4732.6 942.421L4777.75 937.976L4777.61 948.117L4802.87 933.254L4812.81 938.464L4797.36 968.678L4797.01 994.03L4761.88 998.613L4756.8 1003.61L4731.76 1003.27L4736.49 1023.62L4731.34 1033.69L4776.48 1029.24L4776.27 1044.46L4801.39 1039.73L4796.1 1059.95L4775.92 1069.81L4760.89 1069.6L4755.53 1094.88L4795.74 1085.3L4810.63 1095.65L4805.97 1070.23L4826.01 1070.5L4850.98 1075.92L4851.12 1065.78L4861.14 1065.92L4861.28 1055.78L4841.25 1055.5L4836.52 1035.15L4826.85 1009.66L4861.91 1010.15L4866.99 1005.15L4892.04 1005.49L4882.3 985.072L4867.35 979.793L4852.53 964.373L4852.67 954.232L4842.65 954.093L4842.8 943.952L4872.85 944.369L4882.79 949.579L4883.01 934.368L4907.98 939.786L4908.33 914.434L4883.43 903.945L4883.57 893.804L4873.55 893.665L4873.69 883.524L4923.78 884.22L4914.04 863.799L4919.12 858.798L4884.27 843.099L4884.7 812.676L4924.63 823.374L4924.91 803.092L4944.94 803.371L4935.14 788.02L4930.48 762.598L4915.59 752.248L4915.88 731.967L4940.78 742.455L4950.73 747.665L4936.19 711.963L4936.48 691.681L4951.5 691.89L4957.14 646.325L4967.16 646.465L4971.54 692.168L4986.56 692.377L4986.7 682.236L4996.72 682.375L4991.36 707.658L4981.13 722.73L4971.11 722.591L4980.85 743.012L5000.95 738.22L4995.52 768.573L4975.07 798.718L5000.18 793.995L5000.04 804.136L4990.02 803.997L4984.73 824.209L4974.43 844.352L4999.62 834.559L5014.64 834.768L5009.28 860.051L4999.05 875.123L4993.62 905.476L5023.88 890.682L5033.9 890.822L5028.54 916.104L5023.11 946.458L5003.07 946.179L5002.93 956.32L4992.92 956.181L4992.77 966.322L5083 962.504L5077.71 982.717L5072.49 997.858L5047.38 1002.58L5042.16 1017.72L5026.99 1027.65L4991.93 1027.17L4991.79 1037.31L5011.82 1037.59L5011.68 1047.73L5021.7 1047.87L5021.56 1058.01L5036.59 1058.22L5031.01 1098.71L5010.98 1098.43L5010.84 1108.57L4985.79 1108.23L5000.54 1128.72L5025.58 1129.06L5040.54 1134.34L5065.65 1129.62L5080.32 1155.18L5080.11 1170.39L5049.92 1180.12L5049.78 1190.26L5024.67 1194.98L5049.64 1200.4L5049.5 1210.54L5039.48 1210.4L5039.34 1220.54L4999.13 1230.13L4998.99 1240.27L5034.05 1240.75L5054.08 1241.03L5068.83 1261.52L5113.91 1262.15L5108.69 1277.29L5073.48 1286.94L5078.14 1312.37L5042.94 1322.02L5017.82 1326.74L5007.88 1321.53L5007.6 1341.82L5027.56 1347.16L5072.57 1352.86L5107.63 1353.35L5102.13 1388.77L5081.88 1403.7L5046.68 1413.36L5036.59 1418.29L5026.64 1413.08L5036.31 1438.57L5066.29 1444.06L5061.07 1459.2L5040.9 1469.06L5040.68 1484.28L5050.63 1489.49L5105.66 1495.32L5105.52 1505.46L5125.62 1500.67L5115.89 1480.25L5095.92 1474.9L5091.19 1454.55L5126.25 1455.04L5131.55 1434.82L5106.5 1434.48L5116.8 1414.33L5136.98 1404.47L5167.1 1399.82L5162.23 1389.61L5127.24 1384.05L5127.66 1353.63L5132.81 1343.56L5112.85 1338.21L5103.18 1312.71L5138.32 1308.13L5173.31 1313.69L5168.51 1298.41L5158.56 1293.2L5158.7 1283.06L5183.89 1273.26L5189.04 1263.19L5199.05 1263.33L5199.2 1253.19L5169.07 1257.84L5129.5 1221.79L5134.65 1211.72L5199.83 1207.56L5215 1197.63L5220.22 1182.48L5190.16 1182.07L5180.5 1156.57L5170.55 1151.36L5170.69 1141.22L5195.67 1146.64L5225.79 1141.99L5225.93 1131.85L5210.9 1131.64L5211.33 1101.22L5236.37 1101.56L5226.56 1086.21L5211.61 1080.93L5211.75 1070.79L5226.85 1065.93L5227.27 1035.51L5237.43 1025.51L5247.73 1005.36L5262.19 1046.14L5282.15 1051.49L5271.85 1071.63L5261.77 1076.56L5266.35 1107.05L5281.45 1102.19L5276.09 1127.47L5265.93 1137.48L5270.66 1157.83L5295.77 1153.1L5315.88 1148.31L5310.23 1193.88L5290.27 1188.53L5285.05 1203.67L5270.02 1203.46L5264.8 1218.6L5289.78 1224.02L5289.56 1239.23L5269.39 1249.1L5279.26 1259.38L5309.39 1254.72L5314.26 1264.93L5303.96 1285.08L5303.53 1315.5L5273.34 1325.22L5268.19 1335.29L5298.17 1340.78L5333.37 1331.13L5358.49 1326.41L5363.29 1341.69L5378.24 1346.97L5378.1 1357.11L5358.07 1356.83L5352.77 1377.04L5347.55 1392.18L5322.65 1381.69L5317.5 1391.76L5287.38 1396.42L5287.1 1416.7L5307.13 1416.98L5306.99 1427.12L5332.11 1422.4L5357.08 1427.82L5377.04 1433.16L5366.96 1438.1L5361.66 1458.31L5346.64 1458.1L5346.5 1468.24L5356.52 1468.38L5351.29 1483.52L5336.34 1478.24L5336.2 1488.38L5306.29 1477.82L5311.08 1493.1L5325.97 1503.45L5356.09 1498.8L5375.99 1509.22L5411.12 1504.64L5400.75 1529.85L5395.32 1560.2L5375.14 1570.07L5345.16 1564.58L5344.95 1579.79L5319.9 1579.44L5324.63 1599.79L5374.65 1605.56L5379.52 1615.77L5434.68 1611.47L5429.25 1641.82L5419.23 1641.68L5423.96 1662.03L5433.98 1662.17L5433.84 1672.31L5403.71 1676.96L5373.8 1666.41L5348.69 1671.13L5358.35 1696.62L5408.51 1692.25L5443.43 1702.87L5438.07 1728.16L5412.81 1743.02L5402.8 1742.88L5397.51 1763.09L5382.55 1757.81L5382.69 1747.67L5372.67 1747.53L5367.45 1762.67L5347.28 1772.54L3068.31 1740.87L3028.52 1720.03L3003.55 1714.61L3003.69 1704.47L3023.87 1694.61L3048.98 1689.88L3064.15 1679.95L3059.35 1664.67L3019.28 1664.11L3004.89 1618.27L3014.98 1613.34L3034.87 1623.76L3079.95 1624.39L3089.9 1629.6L3085.1 1614.31L3070.21 1603.96L3040.3 1593.41L3040.51 1578.19L3030.5 1578.06L3030.64 1567.91L3075.72 1568.54L3080.94 1553.4L3105.98 1553.75L3111.2 1538.61L3086.16 1538.26L3081.36 1522.98L3056.39 1517.56L3056.53 1507.42L3091.59 1507.9L3091.73 1497.76L3066.76 1492.34L3066.97 1477.13L3112.19 1467.62L3112.47 1447.34L3092.36 1452.13L3087.49 1441.92L3067.6 1431.5L3072.82 1416.36L3112.96 1411.84L3113.1 1401.7L3103.16 1396.49L3108.45 1376.28L3083.33 1381L3083.68 1355.65L3118.89 1346L3118.96 1340.93L3093.98 1335.51L3099.27 1315.3L3114.3 1315.5L3104.78 1279.87L3124.88 1275.08L3125.16 1254.8L3135.18 1254.94L3134.76 1285.36L3144.77 1285.5L3144.63 1295.64L3134.62 1295.5L3134.48 1305.64L3149.5 1305.85L3139.06 1336.13L3164.18 1331.41L3148.73 1361.63L3133.49 1376.63L3158.46 1382.05L3158.32 1392.19L3173.28 1397.47L3168.13 1407.54L3147.95 1417.4L3162.77 1432.82L3162.56 1448.03L3187.6 1448.38L3182.31 1468.59L3217.44 1464.01L3242.84 1439.01L3247.99 1428.93L3243.33 1403.51L3213.42 1392.95L3208.62 1377.67L3254.05 1352.95L3259.27 1337.81L3269.36 1332.87L3274.65 1312.66L3234.51 1317.18L3224.14 1342.39L3214.12 1342.25L3214.26 1332.11L3189.29 1326.69L3189.57 1306.41L3169.54 1306.13L3164.88 1280.71L3160.08 1265.43L3175.11 1265.64L3174.97 1275.78L3225.06 1276.47L3265.41 1256.75L3275.42 1256.89L3275.71 1236.6L3250.66 1236.26L3245.51 1246.33L3235.5 1246.19L3235.64 1236.05L3200.58 1235.56L3200.72 1225.42L3215.74 1225.63L3216.02 1205.35L3276.2 1201.11L3286.64 1170.83L3276.55 1175.76L3241.49 1175.27L3221.67 1159.78L3226.89 1144.64L3272.04 1140.2L3297.22 1130.4L3297.64 1099.98L3267.52 1104.63L3252.49 1104.42L3227.8 1078.72L3233.09 1058.51L3253.2 1053.72L3273.23 1054L3308.37 1049.41L3308.65 1029.13L3278.74 1018.57L3268.79 1013.36L3269 998.153L3314.22 988.639L3329.6 963.495L3309.63 958.146L3299.69 952.937L3299.83 942.796L3319.86 943.074L3300.11 922.514L3294.96 932.585L3290.02 927.445L3290.37 902.093L3270.41 896.744L3265.61 881.463L3300.6 887.02L3340.74 882.507L3341.03 862.225L3321.06 856.876L3311.11 851.666L3311.4 831.384L3341.45 831.802L3341.87 801.379L3326.92 796.1L3322.26 770.678L3347.16 781.167L3342.58 750.675L3332.56 750.535L3332.7 740.394L3347.72 740.603L3343.14 710.111L3353.16 710.25L3353.51 684.898L3363.53 685.037L3368.18 710.459L3363.03 720.53L3377.99 725.809L3372.77 740.951L3382.79 741.09L3372.35 771.374L3392.38 771.652L3382.08 791.795L3371.78 811.938L3381.8 812.077L3381.66 822.218L3401.76 817.426L3391.39 842.639L3371.36 842.361L3381.09 862.782L3380.81 883.064L3410.87 883.481L3400.57 903.624L3390.55 903.485L3400.28 923.906L3430.34 924.323L3420.04 944.466L3379.69 964.191L3374.54 974.262L3399.58 974.61L3414.61 974.819L3429.56 980.099L3424.27 1000.31L3409.1 1010.24L3408.82 1030.52L3418.77 1035.73L3418.63 1045.88L3408.54 1050.81L3408.19 1076.16L3433.23 1076.51L3463.14 1087.07L3463 1097.21L3437.96 1096.86L3437.82 1107L3427.8 1106.86L3427.66 1117L3402.47 1126.79L3397.32 1136.87L3422.3 1142.28L3502.23 1158.61L3486.92 1178.68L3476.9 1178.54L3471.61 1198.76L3446.43 1208.55L3426.53 1198.13L3426.39 1208.27L3416.3 1213.2L3425.97 1238.69L3485.93 1249.67L3490.66 1270.02L3470.34 1290.02L3435.14 1299.68L3409.96 1309.47L3404.81 1319.54L3449.74 1330.31L3514.86 1331.21L3509.57 1351.43L3504.42 1361.5L3489.32 1366.36L3484.03 1386.57L3428.72 1401.02L3428.51 1416.23L3443.61 1411.37L3493.69 1412.06L3513.8 1407.27L3508.51 1427.48L3498.28 1442.56L3478.1 1452.42L3472.81 1472.63L3462.73 1477.56L3457.51 1492.7L3502.65 1488.26L3502.8 1478.12L3522.76 1483.47L3522.62 1493.61L3542.58 1498.96L3542.37 1514.17L3517.33 1513.82L3522.06 1534.17L3502.02 1533.89L3501.74 1554.18L3491.72 1554.04L3491.58 1564.18L3531.72 1559.66L3532 1539.38L3562.13 1534.73L3562.41 1514.45L3592.46 1514.86L3592.6 1504.72L3582.58 1504.58L3582.86 1484.3L3562.97 1473.88L3563.11 1463.74L3603.18 1464.3L3603.6 1433.88L3588.58 1433.67L3583.92 1408.25L3553.73 1417.97L3543.78 1412.76L3534.33 1372.06L3539.62 1351.84L3544.56 1356.98L3614.68 1357.96L3614.96 1337.68L3585.05 1327.12L3590.27 1311.98L3600.29 1312.12L3600.43 1301.97L3590.48 1296.76L3615.74 1281.9L3625.75 1282.04L3626.03 1261.76L3595.98 1261.34L3596.33 1235.99L3566.35 1230.5L3566.63 1210.22L3591.75 1205.5L3611.85 1200.7L3621.87 1200.84L3627.02 1190.77L3637.04 1190.91L3637.18 1180.77L3617.22 1175.42L3622.58 1150.14L3592.74 1134.51L3597.96 1119.37L3643.17 1109.85L3648.47 1089.64L3628.43 1089.36L3633.72 1069.15L3653.83 1064.36L3659.12 1044.15L3639.08 1043.87L3634.21 1033.66L3609.24 1028.24L3609.38 1018.1L3639.43 1018.52L3639.58 1008.37L3629.56 1008.24L3634.78 993.093L3664.9 988.44L3665.04 978.299L3650.09 973.02L3655.38 952.808L3655.52 942.667L3650.72 927.386L3670.76 927.664L3660.95 912.314L3661.16 897.102L3686.34 887.309L3706.24 897.729L3700.81 928.082L3720.91 923.29L3715.55 948.573L3710.4 958.644L3720.42 958.783L3720.28 968.924L3730.3 969.063L3719.86 999.347L3709.84 999.208L3719.57 1019.63L3714.28 1039.84L3729.17 1050.19L3723.88 1070.4L3718.66 1085.55L3743.77 1080.82L3738.48 1101.03L3723.17 1121.11L3713.16 1120.97L3713.02 1131.11L3742.93 1141.67L3757.67 1162.16L3757.46 1177.37L3752.17 1197.58L3767.27 1192.72L3767.41 1182.58L3797.39 1188.07L3807.69 1167.93L3818.06 1142.71L3792.94 1147.43L3758.09 1131.74L3758.23 1121.6L3793.3 1122.08L3793.44 1111.94L3768.46 1106.52L3763.81 1081.1L3799.01 1071.45L3819.18 1061.58L3824.33 1051.51L3814.32 1051.37L3799.5 1035.95L3779.4 1040.75L3754.63 1020.12L3754.78 1009.98L3815.09 995.599L3815.3 980.388L3795.34 975.039L3785.67 949.547L3790.96 929.335L3826.03 929.822L3821.23 914.541L3786.45 893.772L3791.81 868.489L3841.76 879.326L3837.03 858.975L3822 858.766L3822.14 848.625L3847.19 848.973L3842.39 833.692L3822.64 813.132L3827.86 797.99L3842.88 798.199L3838.23 772.777L3858.26 773.055L3863.83 732.561L3873.78 737.771L3873.36 768.194L3898.54 758.401L3887.96 798.825L3913.08 794.103L3922.74 819.594L3897.56 829.387L3882.53 829.178L3882.39 839.319L3892.41 839.459L3892.27 849.599L3927.33 850.087L3921.97 875.369L3896.78 885.162L3901.51 905.514L3911.46 910.724L3911.17 931.005L3896.08 935.867L3890.86 951.009L3920.91 951.427L3921.05 941.286L3951.1 941.703L3940.8 961.846L3930.79 961.707L3920.35 991.99L3950.54 982.267L3980.73 972.544L3995.83 967.682L4011.35 932.397L3991.31 932.119L3986.52 916.838L3961.54 911.42L3946.8 890.929L3947.15 865.577L3987.22 866.133L4022.42 856.48L4042.53 851.688L4042.67 841.547L4022.7 836.198L4017.91 820.917L3993 810.428L3993.15 800.287L4013.25 795.495L4013.6 770.142L4053.6 775.77L4053.88 755.488L4014.1 734.649L4024.47 709.436L3999.49 704.017L3994.84 678.596L4009.93 673.734L4055.08 669.29L4055.36 649.008L4075.54 639.145L4065.87 613.654L4025.88 608.027L4026.02 597.886L4036.03 598.025L4036.17 587.884L4026.16 587.745L4021.36 572.464L4081.6 563.158L4076.88 542.807L4067 532.526L4087.25 517.593L4087.53 497.311L4067.64 486.892L4068.06 456.469L4107.99 467.167L4108.27 446.885L4098.25 446.746L4098.39 436.605L4108.41 436.744L4119.06 391.249ZM3959.99 1022.97L3959.85 1033.11L3934.67 1042.9L3944.4 1063.32L3959.36 1068.6L3969.02 1094.1L3983.98 1099.38L3984.47 1063.88L3994.77 1043.74L3989.9 1033.53L3959.99 1022.97ZM4835.46 1111.21L4830.24 1126.35L4815.29 1121.07L4779.8 1151.01L4774.65 1161.08L4759.56 1165.94L4779.17 1196.64L4764.14 1196.43L4764 1206.57L4798.99 1212.13L4818.96 1217.48L4818.81 1227.62L4808.8 1227.48L4808.66 1237.62L4798.64 1237.48L4798.36 1257.76L4778.39 1252.42L4778.04 1277.77L4802.94 1288.26L4812.68 1308.68L4827.7 1308.89L4833.07 1283.6L4823.05 1283.46L4823.26 1268.25L4848.44 1258.46L4848.87 1228.04L4858.88 1228.18L4859.03 1218.04L4869.04 1218.17L4869.25 1202.96L4859.31 1197.75L4829.25 1197.34L4829.61 1171.98L4814.65 1166.7L4829.82 1156.77L4829.96 1146.63L4860.01 1147.05L4855.36 1121.63L4835.46 1111.21ZM3958.72 1114.24L3953.5 1129.38L3938.41 1134.24L3938.27 1144.38L3978.27 1150.01L3973.61 1124.59L3968.74 1114.38L3958.72 1114.24ZM4267.57 1240.25L4247.4 1250.11L4247.26 1260.25L4237.24 1260.11L4242.04 1275.39L4261.86 1290.88L4296.85 1296.44L4306.8 1301.65L4317.45 1256.15L4307.64 1240.8L4267.57 1240.25ZM4512.51 1279.15L4507.15 1304.43L4486.97 1314.29L4486.69 1334.58L4476.67 1334.44L4476.53 1344.58L4496.64 1339.79L4506.72 1334.85L4506.58 1345L4551.73 1340.55L4556.95 1325.41L4536.92 1325.13L4537.2 1304.85L4527.18 1304.71L4527.32 1294.57L4537.34 1294.71L4537.48 1284.57L4512.51 1279.15ZM4516.11 1380.63L4506.02 1385.56L4515.75 1405.98L4540.66 1416.47L4545.81 1406.4L4535.79 1406.26L4531.13 1380.84L4516.11 1380.63ZM5115.18 1530.95L5089.93 1545.82L5084.71 1560.96L5064.74 1555.61L5069.47 1575.96L5104.11 1606.87L5113.91 1622.22L5124 1617.29L5124.28 1597.01L5114.26 1596.87L5114.41 1586.73L5129.36 1592.01L5134.86 1556.58L5124.85 1556.45L5125.2 1531.09L5115.18 1530.95Z" fill="#2B352D"/>
<path d="M2665.25 680L2674.39 681.018L2682.51 686.106L2683.53 703.408L2691.65 705.443L2695.72 725.798L2712.98 825.535L2714 829.605L2726.18 833.676V842.836L2720.09 847.925L2719.07 855.049L2731.26 894.74V900.846L2727.2 906.953L2702.83 907.97L2695.72 922.218L2692.67 932.396L2694.7 933.413L2712.98 927.307L2728.21 923.236H2731.26L2733.29 919.165L2747.51 913.059H2758.68L2773.91 957.839L2777.97 971.069L2776.96 985.317L2782.04 1000.58V1002.62L2742.43 1016.87L2747.51 1020.94L2764.77 1033.15H2767.82L2771.88 1034.17L2781.02 1041.29L2786.1 1040.27L2790.16 1038.24L2803.36 1036.2L2817.58 1037.22L2828.75 1041.29L2836.88 1048.42L2841.95 1056.56L2845 1068.77V1083.02L2841.95 1093.2L2835.86 1102.36L2827.74 1110.5L2825.7 1116.6L2820.63 1176.65L2819.61 1194.97V1226.52L2821.64 1241.78L2823.67 1250.94V1259.09L2822.66 1262.14L2834.84 1268.24V1276.39L2824.69 1279.44V1294.71L2830.78 1377.14V1392.41L2826.72 1400.55L2823.67 1399.53L2822.66 1395.46L2824.69 1387.32L2823.67 1380.19L2816.57 1394.44L2805.39 1422.94L2800.32 1437.19L2790.16 1451.44L2788.13 1460.59L2776.96 1475.86L2763.76 1494.18L2750.56 1511.48L2740.4 1523.69L2731.26 1538.96L2727.2 1546.08L2724.15 1562.37L2719.07 1572.54L2718.06 1573.56V1578.65L2723.14 1579.67V1596.97H2575.88L2580.96 1585.77H2570.81L2559.63 1587.81L2552.53 1593.92L2547.45 1594.93L2542.37 1591.88L2539.32 1594.93H2524.09L2525.11 1587.81L2515.97 1584.76L2520.03 1581.7L2542.37 1573.56L2550.5 1571.53H2575.88L2580.96 1569.49L2581.98 1560.33L2601.27 1554.23L2615.49 1550.15L2622.6 1549.14L2647.99 1537.94H2651.03V1545.07H2663.22L2669.31 1549.14L2672.36 1553.21V1555.24H2674.39L2677.44 1544.05L2681.5 1535.91L2685.56 1533.87H2692.67L2697.75 1525.73L2703.84 1523.69L2709.93 1516.57L2721.1 1499.27L2738.37 1470.77L2753.6 1444.31L2762.74 1428.03L2764.77 1418.87V1401.57L2760.71 1397.5V1386.3L2766.8 1385.28V1376.12L2763.76 1367.98V1356.79L2778.99 1125.76V1109.48L2766.8 1093.2L2758.68 1089.13L2741.42 1071.82L2726.18 1065.72L2701.81 1057.58L2679.47 1052.49L2600.26 1051.47V1044.35L2587.05 1042.31L2578.93 1040.27L2564.71 1041.29L2531.2 1033.15L2528.15 1032.13V1020.94H2538.31L2551.51 1022.97L2553.54 1023.99L2549.48 1014.83V1011.78H2547.45L2546.43 1016.87L2541.36 1015.85L2540.34 1013.81L2545.42 1001.6L2552.53 990.406L2561.67 983.282L2570.81 980.229L2568.77 976.158L2559.63 962.927L2556.59 955.803L2554.56 948.679L2553.54 947.662L2554.56 935.449L2544.4 934.431H2532.22L2527.14 939.52L2514.95 962.927L2508.86 975.14L2499.72 985.317L2495.66 988.37L2492.61 989.388H2484.49L2465.19 986.335H2456.05L2441.83 993.459L2432.69 995.495L2420.51 994.477L2408.32 989.388L2404.26 986.335L2401.21 973.105L2399.18 968.016L2400.2 962.927L2406.29 947.662V944.608L2403.24 941.555L2401.21 934.431L2399.18 933.413H2369.73L2368.71 934.431H2322V918.147H2365.67L2369.73 921.201H2410.35L2415.43 919.165L2431.68 917.13L2433.71 908.988L2435.74 884.563L2441.83 851.995L2449.96 816.375L2454.02 793.985L2455.03 784.826V772.613L2442.85 777.702L2425.58 782.79L2419.49 781.772L2417.46 777.702L2425.58 771.595L2442.85 763.453L2457.07 758.365L2462.14 759.383L2478.39 753.276L2506.83 746.152L2529.17 739.028H2532.22L2529.17 725.798L2519.01 726.815L2488.55 735.975L2484.49 734.957V732.922L2547.45 713.585L2626.66 689.16L2633.77 688.142H2640.88L2665.25 680ZM2614.47 698.319L2613.46 706.461H2616.5L2617.52 698.319H2614.47ZM2603.3 701.372L2582.99 707.479V708.496L2592.13 710.532L2597.21 715.62L2599.24 719.691L2606.35 718.674L2607.37 717.656V701.372H2603.3ZM2573.85 709.514V712.567H2577.91V709.514H2573.85ZM2564.71 711.549V714.603H2567.76V711.549H2564.71ZM2558.62 714.603V718.674L2553.54 716.638L2544.4 718.674L2536.28 721.727L2537.29 728.851L2539.32 734.957L2560.65 730.886L2561.67 720.709L2563.7 714.603H2558.62ZM2679.47 906.953L2675.41 915.094L2685.56 919.165H2688.61L2694.7 906.953H2679.47ZM2647.99 917.13L2631.74 918.147V925.272L2635.8 941.555L2647.99 935.449L2652.05 930.36L2653.06 924.254L2650.02 917.13H2647.99ZM2664.23 927.307L2661.19 931.378V937.484L2667.28 945.626L2670.33 946.644L2676.42 941.555L2684.55 937.484L2682.51 935.449L2671.34 931.378L2667.28 927.307H2664.23ZM2650.02 940.537L2637.83 946.644L2634.78 947.662L2633.77 961.91L2638.85 964.963L2643.92 963.945L2649 956.821L2659.16 951.732L2652.05 940.537H2650.02ZM2601.27 1037.22V1040.27L2635.8 1041.29L2634.78 1038.24L2601.27 1037.22ZM2757.66 1074.88V1076.91L2763.76 1077.93V1074.88H2757.66ZM2815.55 1284.53L2812.5 1310.99L2807.43 1335.41L2803.36 1351.7V1355.77H2812.5L2820.63 1358.82V1344.57L2817.58 1290.63L2816.57 1284.53H2815.55Z" fill="url(#paint0_linear_248_33700)"/>
<path d="M2646.39 1033.18H2649.44L2653.5 1034.2L2662.64 1041.32L2667.72 1040.3L2671.78 1038.27L2684.98 1036.23L2699.2 1037.25L2710.37 1041.32L2718.5 1048.45L2723.57 1056.59L2726.62 1068.8V1083.05L2723.57 1093.23L2717.48 1102.39L2709.36 1110.53L2707.33 1116.63L2702.25 1176.68L2701.23 1195V1226.55L2703.26 1241.81L2705.3 1250.97V1259.12L2704.28 1262.17L2716.47 1268.28V1276.42L2706.31 1279.47V1294.74L2712.4 1377.17V1392.44L2708.34 1400.58L2705.3 1399.56L2704.28 1395.49L2706.31 1387.35L2705.3 1380.22L2698.19 1394.47L2687.02 1422.97L2681.94 1437.22L2671.78 1451.47L2669.75 1460.62L2658.58 1475.89L2645.38 1494.21L2632.18 1511.51L2622.02 1523.72L2612.88 1538.99L2608.82 1546.11L2605.77 1562.4L2600.7 1572.57L2599.68 1573.59V1578.68L2604.76 1579.7V1597H2457.5L2462.58 1585.8H2452.43L2441.26 1587.84L2434.15 1593.95L2429.07 1594.96L2423.99 1591.91L2420.95 1594.96H2405.71L2406.73 1587.84L2397.59 1584.79L2401.65 1581.73L2423.99 1573.59L2432.12 1571.56H2457.5L2462.58 1569.52L2463.6 1560.36L2482.89 1554.26L2497.11 1550.18L2504.22 1549.17L2529.61 1537.97H2532.65V1545.1H2544.84L2550.93 1549.17L2553.98 1553.24V1555.27H2556.01L2559.06 1544.08L2563.12 1535.94L2567.18 1533.9H2574.29L2579.37 1525.76L2585.46 1523.72L2591.56 1516.6L2602.73 1499.3L2619.99 1470.8L2635.22 1444.34L2644.36 1428.06L2646.39 1418.9V1401.6L2642.33 1397.53V1386.33L2648.43 1385.31V1376.15L2645.38 1368.01V1356.82L2660.61 1125.79V1109.51L2648.43 1093.23L2640.3 1089.16L2623.04 1071.85L2607.8 1065.75M2639.29 1074.91V1076.94L2645.38 1077.96V1074.91H2639.29ZM2697.17 1284.56L2694.12 1311.02L2689.05 1335.44L2684.98 1351.73V1355.8H2694.12L2702.25 1358.85V1344.6L2699.2 1290.66L2698.19 1284.56H2697.17Z" fill="url(#paint1_linear_248_33700)"/>
<path d="M2271.45 1101.46L2276.2 1101.98L2280.43 1104.62L2280.95 1113.6L2285.18 1114.66L2287.29 1125.22L2296.26 1176.96L2296.79 1179.07L2303.13 1181.18V1185.93L2299.96 1188.57L2299.43 1192.27L2305.77 1212.86V1216.02L2303.66 1219.19L2290.99 1219.72L2287.29 1227.11L2285.71 1232.39L2286.76 1232.92L2296.26 1229.75L2304.18 1227.64H2305.77L2306.82 1225.53L2314.22 1222.36H2320.02L2327.94 1245.59L2330.05 1252.45L2329.53 1259.85L2332.17 1267.76V1268.82L2311.58 1276.21L2314.22 1278.32L2323.19 1284.66H2324.77L2326.89 1285.19L2331.64 1288.88L2334.28 1288.35L2336.39 1287.3L2343.25 1286.24L2350.64 1286.77L2356.45 1288.88L2360.68 1292.58L2363.32 1296.8L2364.9 1303.14V1310.53L2363.32 1315.81L2360.15 1320.56L2355.92 1324.78L2354.87 1327.95L2352.23 1359.1L2351.7 1368.6V1384.97L2352.76 1392.89L2353.81 1397.64V1401.87L2353.28 1403.45L2359.62 1406.62V1410.84L2354.34 1412.43V1420.35L2357.51 1463.11V1471.03L2355.4 1475.25L2353.81 1474.72L2353.28 1472.61L2354.34 1468.39L2353.81 1464.69L2350.12 1472.09L2344.31 1486.87L2341.67 1494.26L2336.39 1501.65L2335.33 1506.4L2329.53 1514.32L2322.66 1523.83L2315.8 1532.8L2310.52 1539.14L2305.77 1547.06L2303.66 1550.75L2302.07 1559.2L2299.43 1564.48L2298.9 1565.01V1567.65L2301.54 1568.17V1577.15H2224.99L2227.63 1571.34H2222.35L2216.54 1572.4L2212.85 1575.57L2210.21 1576.09L2207.57 1574.51L2205.98 1576.09H2198.06L2198.59 1572.4L2193.84 1570.81L2195.95 1569.23L2207.57 1565.01L2211.79 1563.95H2224.99L2227.63 1562.89L2228.16 1558.14L2238.19 1554.97L2245.58 1552.86L2249.28 1552.34L2262.48 1546.53H2264.06V1550.22H2270.39L2273.56 1552.34L2275.15 1554.45V1555.5H2276.2L2277.79 1549.7L2279.9 1545.47L2282.01 1544.42H2285.71L2288.35 1540.19L2291.51 1539.14L2294.68 1535.44L2300.49 1526.47L2309.46 1511.68L2317.38 1497.96L2322.13 1489.51L2323.19 1484.76V1475.78L2321.08 1473.67V1467.86L2324.25 1467.33V1462.58L2322.66 1458.36V1452.55L2330.58 1332.7V1324.26L2324.25 1315.81L2320.02 1313.7L2311.05 1304.72L2303.13 1301.55L2290.46 1297.33L2278.84 1294.69L2237.66 1294.16V1290.47L2230.8 1289.41L2226.57 1288.35L2219.18 1288.88L2201.76 1284.66L2200.18 1284.13V1278.32H2205.46L2212.32 1279.38L2213.37 1279.91L2211.26 1275.16V1273.57H2210.21L2209.68 1276.21L2207.04 1275.68L2206.51 1274.63L2209.15 1268.29L2212.85 1262.48L2217.6 1258.79L2222.35 1257.21L2221.29 1255.09L2216.54 1248.23L2214.96 1244.53L2213.9 1240.84L2213.37 1240.31L2213.9 1233.98L2208.62 1233.45H2202.29L2199.65 1236.09L2193.31 1248.23L2190.14 1254.57L2185.39 1259.85L2183.28 1261.43L2181.7 1261.96H2177.47L2167.44 1260.37H2162.69L2155.3 1264.07L2150.55 1265.12L2144.21 1264.6L2137.88 1261.96L2135.76 1260.37L2134.18 1253.51L2133.12 1250.87L2133.65 1248.23L2136.82 1240.31V1238.73L2135.24 1237.14L2134.18 1233.45L2133.12 1232.92H2117.81L2117.29 1233.45H2093V1225H2115.7L2117.81 1226.58H2138.93L2141.57 1225.53L2150.02 1224.47L2151.08 1220.25L2152.13 1207.58L2155.3 1190.68L2159.52 1172.2L2161.63 1160.59L2162.16 1155.84V1149.5L2155.83 1152.14L2146.85 1154.78L2143.68 1154.25L2142.63 1152.14L2146.85 1148.97L2155.83 1144.75L2163.22 1142.11L2165.86 1142.64L2174.31 1139.47L2189.09 1135.77L2200.7 1132.08H2202.29L2200.7 1125.22L2195.42 1125.74L2179.59 1130.49L2177.47 1129.97V1128.91L2210.21 1118.88L2251.39 1106.21L2255.08 1105.68H2258.78L2271.45 1101.46ZM2245.05 1110.96L2244.52 1115.18H2246.11L2246.64 1110.96H2245.05ZM2239.24 1112.54L2228.69 1115.71V1116.24L2233.44 1117.3L2236.08 1119.94L2237.13 1122.05L2240.83 1121.52L2241.36 1120.99V1112.54H2239.24ZM2223.93 1116.77V1118.35H2226.05V1116.77H2223.93ZM2219.18 1117.82V1119.41H2220.77V1117.82H2219.18ZM2216.01 1119.41V1121.52L2213.37 1120.46L2208.62 1121.52L2204.4 1123.1L2204.93 1126.8L2205.98 1129.97L2217.07 1127.86L2217.6 1122.58L2218.65 1119.41H2216.01ZM2278.84 1219.19L2276.73 1223.42L2282.01 1225.53H2283.59L2286.76 1219.19H2278.84ZM2262.48 1224.47L2254.03 1225V1228.7L2256.14 1237.14L2262.48 1233.98L2264.59 1231.34L2265.12 1228.17L2263.53 1224.47H2262.48ZM2270.92 1229.75L2269.34 1231.86V1235.03L2272.51 1239.25L2274.09 1239.78L2277.26 1237.14L2281.48 1235.03L2280.43 1233.98L2274.62 1231.86L2272.51 1229.75H2270.92ZM2263.53 1236.61L2257.2 1239.78L2255.61 1240.31L2255.08 1247.7L2257.72 1249.29L2260.36 1248.76L2263 1245.06L2268.28 1242.42L2264.59 1236.61H2263.53ZM2238.19 1286.77V1288.35L2256.14 1288.88L2255.61 1287.3L2238.19 1286.77ZM2319.49 1306.31V1307.36L2322.66 1307.89V1306.31H2319.49ZM2349.59 1415.07L2348 1428.79L2345.36 1441.46L2343.25 1449.91V1452.02H2348L2352.23 1453.61V1446.22L2350.64 1418.23L2350.12 1415.07H2349.59Z" fill="#364338"/>
<g clip-path="url(#clip0_248_33700)">
<path d="M2261.65 1284.67H2263.23L2265.34 1285.2L2270.09 1288.9L2272.73 1288.37L2274.84 1287.31L2281.71 1286.26L2289.1 1286.79L2294.91 1288.9L2299.13 1292.59L2301.77 1296.82L2303.35 1303.15V1310.54L2301.77 1315.82L2298.6 1320.58L2294.38 1324.8L2293.32 1327.97L2290.68 1359.12L2290.15 1368.62V1384.99L2291.21 1392.91L2292.27 1397.66V1401.88L2291.74 1403.46L2298.07 1406.63V1410.86L2292.79 1412.44V1420.36L2295.96 1463.12V1471.04L2293.85 1475.27L2292.27 1474.74L2291.74 1472.63L2292.79 1468.4L2292.27 1464.71L2288.57 1472.1L2282.76 1486.88L2280.12 1494.27L2274.84 1501.67L2273.79 1506.42L2267.98 1514.34L2261.12 1523.84L2254.25 1532.82L2248.97 1539.15L2244.22 1547.07L2242.11 1550.77L2240.53 1559.21L2237.89 1564.49L2237.36 1565.02V1567.66L2240 1568.19V1577.16H2163.44L2166.08 1571.36H2160.8L2155 1572.41L2151.3 1575.58L2148.66 1576.11L2146.02 1574.52L2144.44 1576.11H2136.52L2137.05 1572.41L2132.29 1570.83L2134.41 1569.24L2146.02 1565.02L2150.25 1563.97H2163.44L2166.08 1562.91L2166.61 1558.16L2176.64 1554.99L2184.04 1552.88L2187.73 1552.35L2200.93 1546.54H2202.51V1550.24H2208.85L2212.02 1552.35L2213.6 1554.46V1555.52H2214.66L2216.24 1549.71L2218.35 1545.49L2220.46 1544.43H2224.16L2226.8 1540.21L2229.97 1539.15L2233.14 1535.46L2238.94 1526.48L2247.92 1511.7L2255.84 1497.97L2260.59 1489.52L2261.65 1484.77V1475.8L2259.53 1473.68V1467.88L2262.7 1467.35V1462.6L2261.12 1458.37V1452.57L2269.04 1332.72V1324.27L2262.7 1315.82L2258.48 1313.71L2249.5 1304.74L2241.58 1301.57M2257.95 1306.32V1307.38L2261.12 1307.9V1306.32H2257.95ZM2288.04 1415.08L2286.46 1428.81L2283.82 1441.48L2281.71 1449.93V1452.04H2286.46L2290.68 1453.62V1446.23L2289.1 1418.25L2288.57 1415.08H2288.04Z" fill="#364338"/>
</g>
<defs>
<linearGradient id="paint0_linear_248_33700" x1="2583.98" y1="1557.27" x2="2583.98" y2="643.147" gradientUnits="userSpaceOnUse">
<stop stop-color="#2B352D"/>
<stop offset="1" stop-color="#436149"/>
</linearGradient>
<linearGradient id="paint1_linear_248_33700" x1="2583.98" y1="1557.27" x2="2583.98" y2="643.147" gradientUnits="userSpaceOnUse">
<stop stop-color="#2B352D"/>
<stop offset="1" stop-color="#436149"/>
</linearGradient>
<clipPath id="clip0_248_33700">
<rect width="171.059" height="292.49" fill="white" transform="translate(2132.29 1284.67)"/>
</clipPath>
</defs>
</svg>
