<svg width="4682" height="807" viewBox="0 0 4682 807" fill="none" xmlns="http://www.w3.org/2000/svg">
<path d="M0 384L3881 356H4682V807H0V384Z" fill="#465A4A"/>
<path d="M2860.24 23H2866.89L2876.88 45.3644L2883.54 48.5593L2880.21 67.7288L2886.87 80.5085L2883.54 86.8983L2893.53 90.0932L2886.87 106.068L2900.19 109.263L2906.85 112.458V118.847H2900.19V141.212L2913.51 147.602L2910.18 163.576H2903.52L2906.85 169.966H2923.49L2926.82 182.746H2920.16L2916.84 208.305L2910.18 217.89L2940.14 208.305L2946.8 211.5V221.085L2933.48 230.669L2926.82 246.644L2956.79 243.449L2966.78 249.839V256.229H2973.44V224.28V211.5V201.915H2983.42L2986.75 189.136H2993.41L3000.07 201.915V214.695H3006.73L3003.4 253.034L3000.07 259.424H3016.72L3020.05 265.814L3010.06 284.983V291.373H3036.69L3030.04 307.347L3020.05 310.542V323.322H3033.36V339.297L3046.68 336.102L3060 342.492L3046.68 361.661H3040.02L3046.68 374.441L3060 384.025V393.61L3043.35 400H1388.64L1365.33 393.61V387.22L1378.65 380.831L1375.32 361.661H1368.66V348.881H1362V339.297L1388.64 336.102V329.712H1381.98V323.322H1388.64V316.932L1375.32 310.542L1368.66 300.958V291.373H1388.64L1385.31 281.788L1398.62 278.593L1388.64 253.034L1385.31 246.644L1388.64 240.254H1401.95L1398.62 214.695L1401.95 208.305H1395.29V195.525H1401.95V201.915H1408.61L1405.28 182.746V166.771L1415.27 163.576L1421.93 192.331L1428.59 205.11L1421.93 221.085L1438.58 217.89V249.839L1448.56 259.424L1441.91 272.203L1438.58 275.398L1451.89 272.203L1455.22 265.814V246.644H1461.88V240.254H1471.87L1478.53 256.229L1488.52 259.424L1491.85 249.839L1508.49 259.424V253.034L1495.18 246.644L1485.19 224.28L1481.86 214.695H1498.51L1495.18 201.915L1505.16 198.72L1501.84 176.356H1515.15L1501.84 153.992V138.017H1508.49L1505.16 112.458L1508.49 86.8983L1515.15 74.1186H1521.81V93.2881H1535.13L1528.47 112.458L1545.12 118.847L1541.79 131.627L1535.13 134.822V147.602L1555.11 157.186V163.576L1545.12 169.966L1548.45 182.746L1561.76 195.525V221.085L1555.11 233.864H1575.08V240.254H1568.42V253.034L1578.41 249.839L1581.74 230.669L1575.08 227.475V201.915H1581.74L1588.4 182.746H1595.06V176.356H1588.4L1591.73 157.186L1601.72 153.992L1608.38 166.771V176.356H1615.04V192.331L1621.69 195.525V217.89L1635.01 224.28L1628.35 233.864H1621.69L1625.02 243.449L1638.34 246.644L1635.01 281.788L1641.67 275.398V265.814H1654.99L1658.32 256.229L1648.33 253.034V246.644H1641.67L1638.34 237.059L1661.65 240.254L1654.99 230.669V214.695H1661.65V192.331L1654.99 185.941V176.356H1668.31L1664.98 163.576L1668.31 131.627H1674.96L1678.29 118.847L1688.28 138.017L1691.61 144.407L1688.28 157.186H1694.94L1704.93 192.331L1701.6 205.11L1708.26 208.305V214.695H1701.6V221.085L1714.92 224.28L1711.59 237.059L1701.6 240.254L1711.59 259.424L1724.91 256.229V265.814L1718.25 278.593L1734.89 284.983L1738.22 291.373L1741.55 278.593H1734.89V256.229L1751.54 253.034L1744.88 233.864L1751.54 205.11L1761.53 198.72L1771.52 208.305V224.28L1781.51 230.669V224.28L1798.15 227.475L1784.84 201.915L1778.18 189.136H1808.14V182.746H1801.48L1794.82 166.771V157.186H1804.81L1801.48 134.822L1794.82 131.627V125.237H1808.14L1811.47 106.068L1808.14 93.2881L1811.47 86.8983L1821.46 93.2881L1814.8 74.1186L1824.79 45.3644L1828.12 32.5847H1834.78V48.5593H1844.76V67.7288L1854.75 70.9237L1851.42 90.0932L1868.07 86.8983L1864.74 102.873L1858.08 112.458L1868.07 134.822L1878.06 144.407L1868.07 163.576H1874.73V176.356H1888.05L1881.39 189.136L1878.06 195.525L1898.04 192.331L1904.69 198.72L1891.38 201.915V208.305L1924.67 201.915V208.305H1914.68L1908.02 221.085L1901.36 233.864H1894.71V240.254H1888.05V246.644H1894.71V253.034H1888.05V259.424H1908.02V265.814H1898.04V272.203L1921.34 269.008L1928 272.203V265.814L1921.34 262.619L1928 249.839L1934.66 221.085H1941.32V214.695H1947.98L1954.64 233.864V249.839H1961.29V262.619H1967.95L1964.62 278.593L1967.95 288.178H1974.61V297.763H1981.27L1984.6 278.593L1987.93 272.203H1994.59L2001.25 281.788L2004.58 300.958L2011.24 307.347L2004.58 316.932L2017.89 320.127L2007.91 339.297L2037.87 336.102L2047.86 339.297L2037.87 323.322V316.932L2051.19 313.737L2047.86 288.178L2061.18 291.373L2057.85 275.398L2061.18 253.034H2067.84V233.864L2081.15 240.254L2087.81 253.034V272.203H2094.47L2091.14 284.983L2094.47 297.763H2107.79V304.153H2101.13V323.322H2107.79L2104.46 336.102H2114.45V326.517L2127.76 329.712V316.932L2117.78 313.737V310.542H2141.08V304.153H2134.42L2131.09 284.983L2124.44 262.619L2144.41 265.814L2141.08 253.034H2151.07L2147.74 233.864H2141.08L2137.75 214.695H2147.74L2151.07 201.915L2147.74 182.746H2154.4L2151.07 163.576L2171.05 147.602L2174.38 150.797V173.161H2184.36V192.331L2191.02 205.11L2187.69 227.475H2194.35V208.305H2201.01L2197.68 192.331L2214.33 189.136V182.746L2201.01 176.356V169.966H2194.35V163.576L2211 160.381L2204.34 150.797V138.017L2217.66 134.822L2211 112.458H2220.99V106.068H2214.33V86.8983H2220.99L2217.66 70.9237L2227.65 61.339H2234.31L2244.29 93.2881L2254.28 106.068L2247.62 125.237L2254.28 157.186V169.966H2274.26L2280.92 179.551L2267.6 198.72V211.5H2287.58L2294.24 227.475H2287.58V233.864L2304.22 237.059L2300.89 214.695H2310.88L2314.21 182.746L2320.87 169.966L2330.86 173.161L2334.19 185.941L2340.85 189.136L2344.18 214.695L2354.16 217.89L2347.51 233.864V240.254H2367.48L2370.81 253.034L2357.49 265.814L2354.16 272.203L2367.48 278.593V291.373H2380.8V297.763H2400.78L2397.45 284.983L2390.79 275.398V265.814L2407.44 272.203V253.034L2394.12 240.254V233.864L2410.76 230.669V211.5L2404.11 198.72L2420.75 195.525V189.136H2414.09L2417.42 160.381L2410.76 157.186V150.797L2420.75 144.407L2427.41 122.042H2434.07L2437.4 138.017H2444.06L2440.73 150.797L2450.72 147.602L2454.05 160.381V182.746L2457.38 189.136L2454.05 198.72L2474.02 201.915V208.305H2467.36L2460.71 221.085H2454.05L2464.04 230.669L2480.68 233.864L2477.35 246.644L2470.69 253.034L2467.36 265.814L2487.34 269.008L2494 253.034L2480.68 249.839L2494 237.059L2497.33 227.475L2487.34 224.28V214.695L2497.33 208.305L2507.32 173.161H2513.98V189.136H2520.64L2523.96 208.305L2530.62 192.331V166.771L2527.29 150.797H2533.95L2537.28 134.822H2543.94L2547.27 125.237L2553.93 128.432L2557.26 150.797L2563.92 163.576L2570.58 176.356L2567.25 195.525L2593.88 198.72L2580.56 221.085V227.475L2600.54 237.059L2593.88 240.254V262.619L2590.55 278.593L2600.54 281.788L2597.21 297.763L2607.2 284.983L2610.53 278.593L2600.54 275.398L2603.87 259.424H2617.19V233.864L2613.86 217.89H2630.51L2627.18 192.331L2637.16 182.746L2640.49 169.966H2647.15L2653.81 192.331L2657.14 208.305L2667.13 211.5L2660.47 240.254H2680.45V246.644H2673.79V253.034H2690.44L2683.78 272.203L2680.45 284.983L2683.78 291.373H2707.08L2710.41 297.763L2707.08 316.932H2713.74V294.568L2730.39 291.373V284.983L2720.4 281.788V272.203H2713.74L2717.07 259.424L2737.05 256.229L2717.07 233.864L2720.4 221.085L2750.36 214.695L2747.04 198.72V182.746L2750.36 176.356L2747.04 160.381L2753.69 157.186L2760.35 160.381L2757.02 141.212L2760.35 134.822L2763.68 118.847L2770.34 102.873H2780.33V125.237L2783.66 138.017H2793.65V144.407H2786.99L2793.65 163.576V173.161L2810.29 179.551L2806.96 189.136H2800.31L2806.96 214.695L2803.64 224.28L2813.62 227.475V243.449L2820.28 233.864H2826.94V214.695H2820.28L2813.62 195.525V182.746H2820.28V189.136L2833.6 192.331V176.356H2823.61L2820.28 160.381H2830.27L2850.25 163.576V157.186H2840.26L2830.27 144.407V138.017L2843.59 134.822L2840.26 102.873L2850.25 99.678L2843.59 67.7288L2856.91 64.5339L2853.58 45.3644L2860.24 23ZM2194.35 227.475V240.254H2201.01V227.475H2194.35ZM1781.51 233.864L1778.18 256.229L1781.51 272.203L1794.82 265.814L1788.16 233.864H1781.51ZM2284.25 233.864L2274.26 240.254V246.644H2287.58L2284.25 233.864ZM2920.16 246.644V253.034H2926.82V246.644H2920.16ZM1561.76 253.034V259.424H1568.42V253.034H1561.76ZM2963.45 256.229L2960.12 265.814H2953.46L2943.47 278.593L2946.8 291.373H2953.46L2950.13 304.153L2960.12 307.347L2963.45 269.008L2966.78 256.229H2963.45ZM1881.39 259.424V265.814H1888.05V259.424H1881.39ZM1488.52 262.619L1481.86 269.008V288.178L1491.85 291.373V272.203L1495.18 262.619H1488.52ZM1565.09 265.814L1561.76 278.593H1568.42L1571.75 265.814H1565.09ZM1741.55 265.814V272.203L1748.21 269.008L1741.55 265.814ZM1928 272.203V278.593H1921.34V284.983L1931.33 281.788L1928 272.203ZM1914.68 284.983L1908.02 297.763H1901.36V304.153H1918.01L1921.34 284.983H1914.68ZM1645 291.373L1641.67 294.568V310.542H1651.66L1648.33 297.763H1654.99V291.373H1645ZM1728.24 294.568L1718.25 304.153V310.542H1741.55V304.153H1734.89V294.568H1728.24ZM1974.61 307.347V316.932H1981.27L1977.94 307.347H1974.61ZM2370.81 307.347L2367.48 323.322L2374.14 336.102L2387.46 332.907L2384.13 310.542L2370.81 307.347ZM1721.58 316.932L1718.25 332.907L1728.24 336.102L1731.56 316.932H1721.58Z" fill="#465A4A"/>
<path d="M1498.24 49H1504.89L1514.88 71.3644L1521.54 74.5593L1518.21 93.7288L1524.87 106.508L1521.54 112.898L1531.53 116.093L1524.87 132.068L1538.19 135.263L1544.85 138.458V144.847H1538.19V167.212L1551.51 173.602L1548.18 189.576H1541.52L1544.85 195.966H1561.49L1564.82 208.746H1558.16L1554.84 234.305L1548.18 243.89L1578.14 234.305L1584.8 237.5V247.085L1571.48 256.669L1564.82 272.644L1594.79 269.449L1604.78 275.839V282.229H1611.44V250.28V237.5V227.915H1621.42L1624.75 215.136H1631.41L1638.07 227.915V240.695H1644.73L1641.4 279.034L1638.07 285.424H1654.72L1658.05 291.814L1648.06 310.983V317.373H1674.69L1668.04 333.347L1658.05 336.542V349.322H1671.36V365.297L1684.68 362.102L1698 368.492L1684.68 387.661H1678.02L1684.68 400.441L1698 410.025V419.61L1681.35 426H26.6353L3.32941 419.61V413.22L16.6471 406.831L13.3176 387.661H6.65882V374.881H0V365.297L26.6353 362.102V355.712H19.9765V349.322H26.6353V342.932L13.3176 336.542L6.65882 326.958V317.373H26.6353L23.3059 307.788L36.6235 304.593L26.6353 279.034L23.3059 272.644L26.6353 266.254H39.9529L36.6235 240.695L39.9529 234.305H33.2941V221.525H39.9529V227.915H46.6118L43.2824 208.746V192.771L53.2706 189.576L59.9294 218.331L66.5882 231.11L59.9294 247.085L76.5765 243.89V275.839L86.5647 285.424L79.9059 298.203L76.5765 301.398L89.8941 298.203L93.2235 291.814V272.644H99.8824V266.254H109.871L116.529 282.229L126.518 285.424L129.847 275.839L146.494 285.424V279.034L133.176 272.644L123.188 250.28L119.859 240.695H136.506L133.176 227.915L143.165 224.72L139.835 202.356H153.153L139.835 179.992V164.017H146.494L143.165 138.458L146.494 112.898L153.153 100.119H159.812V119.288H173.129L166.471 138.458L183.118 144.847L179.788 157.627L173.129 160.822V173.602L193.106 183.186V189.576L183.118 195.966L186.447 208.746L199.765 221.525V247.085L193.106 259.864H213.082V266.254H206.424V279.034L216.412 275.839L219.741 256.669L213.082 253.475V227.915H219.741L226.4 208.746H233.059V202.356H226.4L229.729 183.186L239.718 179.992L246.376 192.771V202.356H253.035V218.331L259.694 221.525V243.89L273.012 250.28L266.353 259.864H259.694L263.024 269.449L276.341 272.644L273.012 307.788L279.671 301.398V291.814H292.988L296.318 282.229L286.329 279.034V272.644H279.671L276.341 263.059L299.647 266.254L292.988 256.669V240.695H299.647V218.331L292.988 211.941V202.356H306.306L302.976 189.576L306.306 157.627H312.965L316.294 144.847L326.282 164.017L329.612 170.407L326.282 183.186H332.941L342.929 218.331L339.6 231.11L346.259 234.305V240.695H339.6V247.085L352.918 250.28L349.588 263.059L339.6 266.254L349.588 285.424L362.906 282.229V291.814L356.247 304.593L372.894 310.983L376.224 317.373L379.553 304.593H372.894V282.229L389.541 279.034L382.882 259.864L389.541 231.11L399.529 224.72L409.518 234.305V250.28L419.506 256.669V250.28L436.153 253.475L422.835 227.915L416.176 215.136H446.141V208.746H439.482L432.824 192.771V183.186H442.812L439.482 160.822L432.824 157.627V151.237H446.141L449.471 132.068L446.141 119.288L449.471 112.898L459.459 119.288L452.8 100.119L462.788 71.3644L466.118 58.5847H472.776V74.5593H482.765V93.7288L492.753 96.9237L489.424 116.093L506.071 112.898L502.741 128.873L496.082 138.458L506.071 160.822L516.059 170.407L506.071 189.576H512.729V202.356H526.047L519.388 215.136L516.059 221.525L536.035 218.331L542.694 224.72L529.376 227.915V234.305L562.671 227.915V234.305H552.682L546.024 247.085L539.365 259.864H532.706V266.254H526.047V272.644H532.706V279.034H526.047V285.424H546.024V291.814H536.035V298.203L559.341 295.008L566 298.203V291.814L559.341 288.619L566 275.839L572.659 247.085H579.318V240.695H585.976L592.635 259.864V275.839H599.294V288.619H605.953L602.624 304.593L605.953 314.178H612.612V323.763H619.271L622.6 304.593L625.929 298.203H632.588L639.247 307.788L642.576 326.958L649.235 333.347L642.576 342.932L655.894 346.127L645.906 365.297L675.871 362.102L685.859 365.297L675.871 349.322V342.932L689.188 339.737L685.859 314.178L699.176 317.373L695.847 301.398L699.176 279.034H705.835V259.864L719.153 266.254L725.812 279.034V298.203H732.471L729.141 310.983L732.471 323.763H745.788V330.153H739.129V349.322H745.788L742.459 362.102H752.447V352.517L765.765 355.712V342.932L755.776 339.737V336.542H779.082V330.153H772.424L769.094 310.983L762.435 288.619L782.412 291.814L779.082 279.034H789.071L785.741 259.864H779.082L775.753 240.695H785.741L789.071 227.915L785.741 208.746H792.4L789.071 189.576L809.047 173.602L812.376 176.797V199.161H822.365V218.331L829.024 231.11L825.694 253.475H832.353V234.305H839.012L835.682 218.331L852.329 215.136V208.746L839.012 202.356V195.966H832.353V189.576L849 186.381L842.341 176.797V164.017L855.659 160.822L849 138.458H858.988V132.068H852.329V112.898H858.988L855.659 96.9237L865.647 87.339H872.306L882.294 119.288L892.282 132.068L885.624 151.237L892.282 183.186V195.966H912.259L918.918 205.551L905.6 224.72V237.5H925.576L932.235 253.475H925.576V259.864L942.224 263.059L938.894 240.695H948.882L952.212 208.746L958.871 195.966L968.859 199.161L972.188 211.941L978.847 215.136L982.176 240.695L992.165 243.89L985.506 259.864V266.254H1005.48L1008.81 279.034L995.494 291.814L992.165 298.203L1005.48 304.593V317.373H1018.8V323.763H1038.78L1035.45 310.983L1028.79 301.398V291.814L1045.44 298.203V279.034L1032.12 266.254V259.864L1048.76 256.669V237.5L1042.11 224.72L1058.75 221.525V215.136H1052.09L1055.42 186.381L1048.76 183.186V176.797L1058.75 170.407L1065.41 148.042H1072.07L1075.4 164.017H1082.06L1078.73 176.797L1088.72 173.602L1092.05 186.381V208.746L1095.38 215.136L1092.05 224.72L1112.02 227.915V234.305H1105.36L1098.71 247.085H1092.05L1102.04 256.669L1118.68 259.864L1115.35 272.644L1108.69 279.034L1105.36 291.814L1125.34 295.008L1132 279.034L1118.68 275.839L1132 263.059L1135.33 253.475L1125.34 250.28V240.695L1135.33 234.305L1145.32 199.161H1151.98V215.136H1158.64L1161.96 234.305L1168.62 218.331V192.771L1165.29 176.797H1171.95L1175.28 160.822H1181.94L1185.27 151.237L1191.93 154.432L1195.26 176.797L1201.92 189.576L1208.58 202.356L1205.25 221.525L1231.88 224.72L1218.56 247.085V253.475L1238.54 263.059L1231.88 266.254V288.619L1228.55 304.593L1238.54 307.788L1235.21 323.763L1245.2 310.983L1248.53 304.593L1238.54 301.398L1241.87 285.424H1255.19V259.864L1251.86 243.89H1268.51L1265.18 218.331L1275.16 208.746L1278.49 195.966H1285.15L1291.81 218.331L1295.14 234.305L1305.13 237.5L1298.47 266.254H1318.45V272.644H1311.79V279.034H1328.44L1321.78 298.203L1318.45 310.983L1321.78 317.373H1345.08L1348.41 323.763L1345.08 342.932H1351.74V320.568L1368.39 317.373V310.983L1358.4 307.788V298.203H1351.74L1355.07 285.424L1375.05 282.229L1355.07 259.864L1358.4 247.085L1388.36 240.695L1385.04 224.72V208.746L1388.36 202.356L1385.04 186.381L1391.69 183.186L1398.35 186.381L1395.02 167.212L1398.35 160.822L1401.68 144.847L1408.34 128.873H1418.33V151.237L1421.66 164.017H1431.65V170.407H1424.99L1431.65 189.576V199.161L1448.29 205.551L1444.96 215.136H1438.31L1444.96 240.695L1441.64 250.28L1451.62 253.475V269.449L1458.28 259.864H1464.94V240.695H1458.28L1451.62 221.525V208.746H1458.28V215.136L1471.6 218.331V202.356H1461.61L1458.28 186.381H1468.27L1488.25 189.576V183.186H1478.26L1468.27 170.407V164.017L1481.59 160.822L1478.26 128.873L1488.25 125.678L1481.59 93.7288L1494.91 90.5339L1491.58 71.3644L1498.24 49ZM832.353 253.475V266.254H839.012V253.475H832.353ZM419.506 259.864L416.176 282.229L419.506 298.203L432.824 291.814L426.165 259.864H419.506ZM922.247 259.864L912.259 266.254V272.644H925.576L922.247 259.864ZM1558.16 272.644V279.034H1564.82V272.644H1558.16ZM199.765 279.034V285.424H206.424V279.034H199.765ZM1601.45 282.229L1598.12 291.814H1591.46L1581.47 304.593L1584.8 317.373H1591.46L1588.13 330.153L1598.12 333.347L1601.45 295.008L1604.78 282.229H1601.45ZM519.388 285.424V291.814H526.047V285.424H519.388ZM126.518 288.619L119.859 295.008V314.178L129.847 317.373V298.203L133.176 288.619H126.518ZM203.094 291.814L199.765 304.593H206.424L209.753 291.814H203.094ZM379.553 291.814V298.203L386.212 295.008L379.553 291.814ZM566 298.203V304.593H559.341V310.983L569.329 307.788L566 298.203ZM552.682 310.983L546.024 323.763H539.365V330.153H556.012L559.341 310.983H552.682ZM283 317.373L279.671 320.568V336.542H289.659L286.329 323.763H292.988V317.373H283ZM366.235 320.568L356.247 330.153V336.542H379.553V330.153H372.894V320.568H366.235ZM612.612 333.347V342.932H619.271L615.941 333.347H612.612ZM1008.81 333.347L1005.48 349.322L1012.14 362.102L1025.46 358.907L1022.13 336.542L1008.81 333.347ZM359.576 342.932L356.247 358.907L366.235 362.102L369.565 342.932H359.576Z" fill="#465A4A"/>
<path d="M4529.24 0H4535.89L4545.88 22.3644L4552.54 25.5593L4549.21 44.7288L4555.87 57.5085L4552.54 63.8983L4562.53 67.0932L4555.87 83.0678L4569.19 86.2627L4575.85 89.4576V95.8475H4569.19V118.212L4582.51 124.602L4579.18 140.576H4572.52L4575.85 146.966H4592.49L4595.82 159.746H4589.16L4585.84 185.305L4579.18 194.89L4609.14 185.305L4615.8 188.5V198.085L4602.48 207.669L4595.82 223.644L4625.79 220.449L4635.78 226.839V233.229H4642.44V201.28V188.5V178.915H4652.42L4655.75 166.136H4662.41L4669.07 178.915V191.695H4675.73L4672.4 230.034L4669.07 236.424H4685.72L4689.05 242.814L4679.06 261.983V268.373H4705.69L4699.04 284.347L4689.05 287.542V300.322H4702.36V316.297L4715.68 313.102L4729 319.492L4715.68 338.661H4709.02L4715.68 351.441L4729 361.025V370.61L4712.35 377H3057.64L3034.33 370.61V364.22L3047.65 357.831L3044.32 338.661H3037.66V325.881H3031V316.297L3057.64 313.102V306.712H3050.98V300.322H3057.64V293.932L3044.32 287.542L3037.66 277.958V268.373H3057.64L3054.31 258.788L3067.62 255.593L3057.64 230.034L3054.31 223.644L3057.64 217.254H3070.95L3067.62 191.695L3070.95 185.305H3064.29V172.525H3070.95V178.915H3077.61L3074.28 159.746V143.771L3084.27 140.576L3090.93 169.331L3097.59 182.11L3090.93 198.085L3107.58 194.89V226.839L3117.56 236.424L3110.91 249.203L3107.58 252.398L3120.89 249.203L3124.22 242.814V223.644H3130.88V217.254H3140.87L3147.53 233.229L3157.52 236.424L3160.85 226.839L3177.49 236.424V230.034L3164.18 223.644L3154.19 201.28L3150.86 191.695H3167.51L3164.18 178.915L3174.16 175.72L3170.84 153.356H3184.15L3170.84 130.992V115.017H3177.49L3174.16 89.4576L3177.49 63.8983L3184.15 51.1186H3190.81V70.2881H3204.13L3197.47 89.4576L3214.12 95.8475L3210.79 108.627L3204.13 111.822V124.602L3224.11 134.186V140.576L3214.12 146.966L3217.45 159.746L3230.76 172.525V198.085L3224.11 210.864H3244.08V217.254H3237.42V230.034L3247.41 226.839L3250.74 207.669L3244.08 204.475V178.915H3250.74L3257.4 159.746H3264.06V153.356H3257.4L3260.73 134.186L3270.72 130.992L3277.38 143.771V153.356H3284.04V169.331L3290.69 172.525V194.89L3304.01 201.28L3297.35 210.864H3290.69L3294.02 220.449L3307.34 223.644L3304.01 258.788L3310.67 252.398V242.814H3323.99L3327.32 233.229L3317.33 230.034V223.644H3310.67L3307.34 214.059L3330.65 217.254L3323.99 207.669V191.695H3330.65V169.331L3323.99 162.941V153.356H3337.31L3333.98 140.576L3337.31 108.627H3343.96L3347.29 95.8475L3357.28 115.017L3360.61 121.407L3357.28 134.186H3363.94L3373.93 169.331L3370.6 182.11L3377.26 185.305V191.695H3370.6V198.085L3383.92 201.28L3380.59 214.059L3370.6 217.254L3380.59 236.424L3393.91 233.229V242.814L3387.25 255.593L3403.89 261.983L3407.22 268.373L3410.55 255.593H3403.89V233.229L3420.54 230.034L3413.88 210.864L3420.54 182.11L3430.53 175.72L3440.52 185.305V201.28L3450.51 207.669V201.28L3467.15 204.475L3453.84 178.915L3447.18 166.136H3477.14V159.746H3470.48L3463.82 143.771V134.186H3473.81L3470.48 111.822L3463.82 108.627V102.237H3477.14L3480.47 83.0678L3477.14 70.2881L3480.47 63.8983L3490.46 70.2881L3483.8 51.1186L3493.79 22.3644L3497.12 9.58475H3503.78V25.5593H3513.76V44.7288L3523.75 47.9237L3520.42 67.0932L3537.07 63.8983L3533.74 79.8729L3527.08 89.4576L3537.07 111.822L3547.06 121.407L3537.07 140.576H3543.73V153.356H3557.05L3550.39 166.136L3547.06 172.525L3567.04 169.331L3573.69 175.72L3560.38 178.915V185.305L3593.67 178.915V185.305H3583.68L3577.02 198.085L3570.36 210.864H3563.71V217.254H3557.05V223.644H3563.71V230.034H3557.05V236.424H3577.02V242.814H3567.04V249.203L3590.34 246.008L3597 249.203V242.814L3590.34 239.619L3597 226.839L3603.66 198.085H3610.32V191.695H3616.98L3623.64 210.864V226.839H3630.29V239.619H3636.95L3633.62 255.593L3636.95 265.178H3643.61V274.763H3650.27L3653.6 255.593L3656.93 249.203H3663.59L3670.25 258.788L3673.58 277.958L3680.24 284.347L3673.58 293.932L3686.89 297.127L3676.91 316.297L3706.87 313.102L3716.86 316.297L3706.87 300.322V293.932L3720.19 290.737L3716.86 265.178L3730.18 268.373L3726.85 252.398L3730.18 230.034H3736.84V210.864L3750.15 217.254L3756.81 230.034V249.203H3763.47L3760.14 261.983L3763.47 274.763H3776.79V281.153H3770.13V300.322H3776.79L3773.46 313.102H3783.45V303.517L3796.76 306.712V293.932L3786.78 290.737V287.542H3810.08V281.153H3803.42L3800.09 261.983L3793.44 239.619L3813.41 242.814L3810.08 230.034H3820.07L3816.74 210.864H3810.08L3806.75 191.695H3816.74L3820.07 178.915L3816.74 159.746H3823.4L3820.07 140.576L3840.05 124.602L3843.38 127.797V150.161H3853.36V169.331L3860.02 182.11L3856.69 204.475H3863.35V185.305H3870.01L3866.68 169.331L3883.33 166.136V159.746L3870.01 153.356V146.966H3863.35V140.576L3880 137.381L3873.34 127.797V115.017L3886.66 111.822L3880 89.4576H3889.99V83.0678H3883.33V63.8983H3889.99L3886.66 47.9237L3896.65 38.339H3903.31L3913.29 70.2881L3923.28 83.0678L3916.62 102.237L3923.28 134.186V146.966H3943.26L3949.92 156.551L3936.6 175.72V188.5H3956.58L3963.24 204.475H3956.58V210.864L3973.22 214.059L3969.89 191.695H3979.88L3983.21 159.746L3989.87 146.966L3999.86 150.161L4003.19 162.941L4009.85 166.136L4013.18 191.695L4023.16 194.89L4016.51 210.864V217.254H4036.48L4039.81 230.034L4026.49 242.814L4023.16 249.203L4036.48 255.593V268.373H4049.8V274.763H4069.78L4066.45 261.983L4059.79 252.398V242.814L4076.44 249.203V230.034L4063.12 217.254V210.864L4079.76 207.669V188.5L4073.11 175.72L4089.75 172.525V166.136H4083.09L4086.42 137.381L4079.76 134.186V127.797L4089.75 121.407L4096.41 99.0424H4103.07L4106.4 115.017H4113.06L4109.73 127.797L4119.72 124.602L4123.05 137.381V159.746L4126.38 166.136L4123.05 175.72L4143.02 178.915V185.305H4136.36L4129.71 198.085H4123.05L4133.04 207.669L4149.68 210.864L4146.35 223.644L4139.69 230.034L4136.36 242.814L4156.34 246.008L4163 230.034L4149.68 226.839L4163 214.059L4166.33 204.475L4156.34 201.28V191.695L4166.33 185.305L4176.32 150.161H4182.98V166.136H4189.64L4192.96 185.305L4199.62 169.331V143.771L4196.29 127.797H4202.95L4206.28 111.822H4212.94L4216.27 102.237L4222.93 105.432L4226.26 127.797L4232.92 140.576L4239.58 153.356L4236.25 172.525L4262.88 175.72L4249.56 198.085V204.475L4269.54 214.059L4262.88 217.254V239.619L4259.55 255.593L4269.54 258.788L4266.21 274.763L4276.2 261.983L4279.53 255.593L4269.54 252.398L4272.87 236.424H4286.19V210.864L4282.86 194.89H4299.51L4296.18 169.331L4306.16 159.746L4309.49 146.966H4316.15L4322.81 169.331L4326.14 185.305L4336.13 188.5L4329.47 217.254H4349.45V223.644H4342.79V230.034H4359.44L4352.78 249.203L4349.45 261.983L4352.78 268.373H4376.08L4379.41 274.763L4376.08 293.932H4382.74V271.568L4399.39 268.373V261.983L4389.4 258.788V249.203H4382.74L4386.07 236.424L4406.05 233.229L4386.07 210.864L4389.4 198.085L4419.36 191.695L4416.04 175.72V159.746L4419.36 153.356L4416.04 137.381L4422.69 134.186L4429.35 137.381L4426.02 118.212L4429.35 111.822L4432.68 95.8475L4439.34 79.8729H4449.33V102.237L4452.66 115.017H4462.65V121.407H4455.99L4462.65 140.576V150.161L4479.29 156.551L4475.96 166.136H4469.31L4475.96 191.695L4472.64 201.28L4482.62 204.475V220.449L4489.28 210.864H4495.94V191.695H4489.28L4482.62 172.525V159.746H4489.28V166.136L4502.6 169.331V153.356H4492.61L4489.28 137.381H4499.27L4519.25 140.576V134.186H4509.26L4499.27 121.407V115.017L4512.59 111.822L4509.26 79.8729L4519.25 76.678L4512.59 44.7288L4525.91 41.5339L4522.58 22.3644L4529.24 0ZM3863.35 204.475V217.254H3870.01V204.475H3863.35ZM3450.51 210.864L3447.18 233.229L3450.51 249.203L3463.82 242.814L3457.16 210.864H3450.51ZM3953.25 210.864L3943.26 217.254V223.644H3956.58L3953.25 210.864ZM4589.16 223.644V230.034H4595.82V223.644H4589.16ZM3230.76 230.034V236.424H3237.42V230.034H3230.76ZM4632.45 233.229L4629.12 242.814H4622.46L4612.47 255.593L4615.8 268.373H4622.46L4619.13 281.153L4629.12 284.347L4632.45 246.008L4635.78 233.229H4632.45ZM3550.39 236.424V242.814H3557.05V236.424H3550.39ZM3157.52 239.619L3150.86 246.008V265.178L3160.85 268.373V249.203L3164.18 239.619H3157.52ZM3234.09 242.814L3230.76 255.593H3237.42L3240.75 242.814H3234.09ZM3410.55 242.814V249.203L3417.21 246.008L3410.55 242.814ZM3597 249.203V255.593H3590.34V261.983L3600.33 258.788L3597 249.203ZM3583.68 261.983L3577.02 274.763H3570.36V281.153H3587.01L3590.34 261.983H3583.68ZM3314 268.373L3310.67 271.568V287.542H3320.66L3317.33 274.763H3323.99V268.373H3314ZM3397.24 271.568L3387.25 281.153V287.542H3410.55V281.153H3403.89V271.568H3397.24ZM3643.61 284.347V293.932H3650.27L3646.94 284.347H3643.61ZM4039.81 284.347L4036.48 300.322L4043.14 313.102L4056.46 309.907L4053.13 287.542L4039.81 284.347ZM3390.58 293.932L3387.25 309.907L3397.24 313.102L3400.56 293.932H3390.58Z" fill="#465A4A"/>
</svg>
