<svg width="4682" height="1038" viewBox="0 0 4682 1038" fill="none" xmlns="http://www.w3.org/2000/svg">
<rect y="521" width="4908" height="611" fill="#C15A51"/>
<path d="M2635.41 0H2747.03L2840.04 12.1149L2939.26 36.3448L2970.26 51.4885L3026.07 81.7759L3044.67 96.9195V102.977L3069.48 99.9483H3125.29L3212.1 109.034L3298.91 130.236L3367.12 160.523L3410.53 193.839L3435.33 224.126L3447.74 248.356L3509.74 263.5L3534.55 233.213L3559.35 218.069L3608.96 202.925L3627.56 199.897L3701.97 196.868L3726.78 181.724L3770.19 172.638H3813.59L3863.2 184.753L3881.8 193.839V199.897H3950.01L4005.82 212.011L4036.83 224.126L4067.83 254.414L4074.03 269.557L4142.24 257.443H4191.85L4241.46 266.529L4272.46 278.644L4297.27 299.845V330.132L4377.88 314.989L4433.69 308.931H4563.91L4638.32 318.017L4712.73 336.19L4774.74 360.42L4824.35 390.707L4855.35 424.023V436.138L4873.96 433.109H4966.97L5028.98 442.195L5084.79 460.368L5134.4 487.626L5153 511.856V527H37.2058L18.6029 511.856V505.799L6.20096 502.77L12.4019 493.684L0 490.655L12.4019 460.368L37.2058 442.195L74.4116 427.052L124.019 420.994V414.937H136.421L148.823 396.764L204.632 369.506H217.034L223.235 363.448L254.239 357.391L260.44 339.218L279.043 311.96L334.852 281.672L365.857 275.615L372.058 269.557L415.464 263.5L489.876 266.529L564.288 284.701L589.091 296.816V302.874L632.498 305.902L688.307 321.046L713.111 327.103V333.161H744.116L762.718 330.132H793.723L812.326 333.161L843.331 308.931L880.537 296.816L942.546 290.759L992.154 296.816L1078.97 293.787L1091.37 275.615L1116.17 257.443L1171.98 233.213L1184.38 230.184L1209.19 196.868L1258.8 169.609L1289.8 163.552L1296 157.494L1345.61 151.437H1407.62L1475.83 163.552L1531.64 187.782L1562.64 215.04H1705.26L1761.07 190.81L1823.08 175.667L1897.49 163.552L1934.7 142.351L1990.51 124.178L2064.92 112.063H2164.14L2238.55 124.178L2288.16 139.322L2343.96 87.8333L2399.77 54.5172L2474.18 27.2586L2554.8 9.08621L2635.41 0Z" fill="url(#paint0_linear_254_28000)"/>
<defs>
<linearGradient id="paint0_linear_254_28000" x1="1671.13" y1="73.1249" x2="1671.13" y2="428.868" gradientUnits="userSpaceOnUse">
<stop stop-color="#D26258"/>
<stop offset="1" stop-color="#C15A51"/>
</linearGradient>
</defs>
</svg>
