<svg width="4682" height="1549" viewBox="0 0 4682 1549" fill="none" xmlns="http://www.w3.org/2000/svg">
<path d="M2881.72 62.7121V67.0103H3195.68V61.6376H3192.45V59.4884H3177.4V55.1902H3169.87V47.6683H3164.5V54.1156H3160.2V41.2209H3158.05V47.6683H3151.6V51.9665H3146.22V47.6683H3144.07V32.6245H3139.77V43.3701H3133.32V16.5061H3131.17V41.2209H3127.94V46.5937H3121.49V51.9665H3116.11V30.4753H3111.81V0.387695H3109.66V30.4753H3105.36V39.0718H3103.21V49.8174H3099.99V44.4446H3096.76V39.0718H3094.61V35.8481H3090.31V39.0718H3086.01V44.4446H3081.71V41.2209H3079.56V44.4446H3077.41V49.8174H3074.18V41.2209H3072.03V39.0718H3069.88V35.8481H3058.05V41.2209H3053.75V43.3701H3048.38V46.5937H3044.07V41.2209H3038.7V30.4753H3026.87V39.0718H3022.57V17.5806H3019.35V41.2209H3013.97V51.9665H3007.52V49.8174H3004.29V46.5937H2995.69V28.3262H2990.31V34.7736H2987.09V41.2209H2986.01V49.8174H2981.71V34.7736H2975.26V16.5061H2974.19V34.7736H2968.81V39.0718H2960.21V46.5937H2955.91V43.3701H2949.46V46.5937H2943.01V56.2648H2938.7V58.4139H2932.25V43.3701H2918.28V56.2648H2912.9V62.7121H2909.67V32.6245H2907.52V62.7121H2902.15V51.9665H2892.47V56.2648H2888.17V62.7121H2881.72Z" fill="url(#paint0_linear_254_27999)"/>
<path d="M3132.24 421.615V414.093H3053.75V636.527H3067.73V630.08H3061.28V601.067L3067.73 586.023V506.505H3076.33V496.834H3067.73V491.462L3076.33 482.865V474.269H3084.93V467.821H3106.44V456.001H3098.91V451.703L3103.21 447.405H3127.94L3115.04 434.51V429.137H3123.64V421.615H3132.24Z" fill="url(#paint1_linear_254_27999)"/>
<path d="M2948.38 420.541V413.019H3026.87V635.453H3012.89V629.006H3019.35V599.993L3012.89 584.949V505.431H3004.29V495.76H3012.89V490.388L3004.29 481.791V473.195H2995.69V466.747H2974.19V454.927H2981.71V450.629L2977.41 446.331H2952.68L2965.58 433.436V428.063H2956.98V420.541H2948.38Z" fill="url(#paint2_linear_254_27999)"/>
<path d="M3025.8 372.185H3055.9V1143.72H3025.8V372.185Z" fill="url(#paint3_linear_254_27999)"/>
<path d="M2421.69 284.905C2404.78 271.659 2405.59 255.763 2413.11 243.841C2420.62 231.919 2466.73 184.23 2481.04 184.23C2481.04 160.386 2485.73 156.412 2502.75 153.763L2818.17 75.6073H2971.41V382.931H2839.88C2735.59 360.853 2516.98 320.287 2481.04 308.75C2459.64 301.878 2441.13 295.541 2421.69 284.905Z" fill="url(#paint4_linear_254_27999)"/>
<path d="M3695.31 284.905C3712.22 271.659 3711.41 255.763 3703.89 243.841C3696.38 231.919 3650.27 184.23 3635.96 184.23C3635.96 160.386 3631.27 156.412 3614.25 153.763L3298.83 75.6073H3145.59V382.931H3277.12C3381.41 360.853 3600.02 320.287 3635.96 308.75C3657.36 301.878 3675.87 295.541 3695.31 284.905Z" fill="url(#paint5_linear_254_27999)"/>
<path d="M2902.59 131.483H3212.25V372.185H2902.59V131.483Z" fill="url(#paint6_linear_254_27999)"/>
<path d="M3063.88 1151.24C3063.88 1173.2 3052.8 1191 3039.15 1191C3025.49 1191 3014.42 1173.2 3014.42 1151.24C3014.42 1129.28 3025.49 1111.48 3039.15 1111.48C3052.8 1111.48 3063.88 1129.28 3063.88 1151.24Z" fill="url(#paint7_linear_254_27999)"/>
<path d="M3495.59 147.431C3521.71 160.079 2555.49 166.446 2580.51 147.432C2728.72 34.8104 3289.56 17.258 3495.59 147.431Z" fill="url(#paint8_linear_254_27999)"/>
<path d="M2567.13 348.546H3560.62V299.116H2567.13V348.546Z" fill="url(#paint9_linear_254_27999)"/>
<path d="M2997.84 509.723H3086.01V498.977H2997.84V509.723Z" fill="url(#paint10_linear_254_27999)"/>
<path d="M3608.56 339.128C3264.34 361.157 2794.06 365.045 2479.59 331.352C2676.49 460.94 3422.99 457.052 3608.56 339.128Z" fill="url(#paint11_linear_254_27999)"/>
<path d="M2754.21 952.006H2895L3000.59 974.239L3049.87 992.026L3099.15 1018.71L3141.38 1049.83L3268.1 1076.51L3331.45 1098.75L3380.73 1125.43L3408.89 1143.21L3486.32 1138.77H3570.8L3620.08 1143.21L3634.15 1112.09L3690.47 1067.62L3767.91 1036.49L3852.38 1023.15L3943.9 1027.6L4014.29 1045.39L4084.69 1076.51L4133.97 1129.87L4148.04 1156.55V1174.34L4197.32 1183.23L4246.6 1218.81L4267.72 1232.15L4309.95 1285.51L4394.43 1294.4L4443.71 1303.29V1312.19L4478.9 1307.74L4535.22 1281.06L4591.54 1263.27L4647.85 1254.38H4767.53L4852 1272.17L4922.4 1298.85L4936.48 1303.29L4999.83 1285.51H5063.19L5119.51 1298.85L5154.7 1312.19H5232.14L5302.54 1334.42L5344.77 1369.99L5351.81 1383.33L5422.21 1405.57L5471.49 1441.14L5492.6 1472.27L5499.64 1503.39L5548.92 1530.07L5563 1552.31L5555.96 1587.88L5513.72 1619.01H-448.802L-476.96 1596.77L-484 1583.43V1543.41L-476.96 1525.63L-434.723 1503.39L-406.565 1485.61H-378.406L-371.367 1476.71L-279.852 1463.37H-195.377L-153.14 1432.25L-117.942 1423.35L-40.5064 1405.57L65.0873 1410.01V1418.91L114.364 1423.35L128.444 1405.57L184.76 1374.44L248.116 1343.31L283.314 1334.42L290.354 1325.53L367.789 1312.19H501.541L564.898 1325.53V1334.42L600.095 1343.31L628.254 1352.21L691.61 1338.87H825.362L874.639 1312.19L945.035 1298.85H1008.39V1307.74H1043.59L1078.79 1329.97L1092.87 1338.87L1128.06 1334.42L1135.1 1307.74L1156.22 1254.38L1198.46 1209.91L1254.78 1174.34L1289.97 1156.55L1353.33 1143.21L1480.04 1134.32L1578.6 1156.55L1599.72 1161V1169.89L1627.87 1178.79L1656.03 1192.13L1684.19 1214.36L1733.47 1218.81L1782.75 1232.15L1789.78 1241.04L1824.98 1249.93L1853.14 1258.83L1888.34 1285.51L1993.93 1281.06L2050.25 1285.51L2064.33 1258.83L2113.61 1218.81L2198.08 1196.57H2296.63L2359.99 1214.36L2381.11 1218.81L2409.27 1209.91H2430.39V1156.55L2458.54 1098.75L2472.62 1072.07H2486.7L2500.78 1049.83L2571.18 1005.37L2578.22 996.473L2676.77 965.346H2697.89L2704.93 956.453L2754.21 952.006Z" fill="url(#paint12_linear_254_27999)"/>
<path d="M1933.08 89.1044C1934.99 89.9275 1935.65 90.8795 1936.42 92.74C1937.07 94.5138 1937.07 94.5138 1937.07 95.4791C1937.72 95.4791 1938.38 95.4791 1939.06 95.4791C1939.66 96.8222 1939.86 97.5526 1939.86 99.0649C1940.29 98.9586 1940.29 98.9586 1940.74 98.8501C1943.49 98.3964 1946.1 99.3561 1948.36 100.92C1949.85 102.106 1950.66 103.141 1951 105.016C1951.13 106.664 1950.63 107.573 1949.83 109.025C1949.63 109.736 1949.45 110.45 1949.28 111.167C1948.75 113.253 1947.9 114.86 1946.64 116.595C1946.87 116.542 1947.1 116.49 1947.34 116.435C1947.65 116.365 1947.96 116.294 1948.28 116.222C1948.59 116.153 1948.89 116.083 1949.21 116.012C1949.71 115.906 1949.71 115.906 1950.23 115.799C1950.76 115.638 1950.76 115.638 1951.3 115.475C1953.28 115.363 1954.77 116.157 1956.56 116.969C1957.08 117.2 1957.08 117.2 1957.62 117.435C1958.48 117.814 1959.34 118.198 1960.2 118.588C1962.15 116.481 1962.15 116.481 1963.29 113.881C1964.66 110.182 1967.98 107.554 1971.44 105.843C1973.32 105.166 1975 104.931 1976.95 105.44C1979.16 106.896 1979.9 109.362 1980.54 111.814C1980.86 111.872 1981.18 111.929 1981.51 111.989C1982.53 112.213 1982.53 112.213 1982.93 112.611C1982.95 113.408 1982.95 114.205 1982.93 115.002C1983.45 115.043 1983.97 115.084 1984.5 115.126C1987.88 115.519 1990.57 116.413 1992.9 118.986C1994.23 120.911 1994.32 122.695 1994.1 124.962C1993.96 125.357 1993.83 125.751 1993.7 126.158C1993.43 126.158 1993.17 126.158 1992.9 126.158C1992.85 126.556 1992.8 126.955 1992.75 127.365C1992.3 130.478 1991.54 134.312 1989.06 136.442C1988.48 136.865 1987.9 137.288 1987.32 137.712C1986.65 138.347 1985.98 138.986 1985.32 139.629C1980.91 143.634 1975.54 146.382 1970.17 148.867C1969.91 148.989 1969.65 149.111 1969.38 149.237C1964.81 151.356 1960.06 152.956 1955.29 154.545C1954.98 154.647 1954.67 154.749 1954.36 154.855C1949.19 156.569 1944.03 158.265 1938.66 159.226C1938.15 159.33 1937.63 159.433 1937.11 159.539C1927.8 161.367 1927.8 161.367 1925.17 159.713C1923.91 158.425 1923.91 158.425 1923.91 157.234C1926.13 151.131 1930.69 146.749 1935.24 142.308C1935.82 141.743 1936.39 141.172 1936.96 140.6C1938.37 139.205 1939.69 137.97 1941.5 137.139C1942.94 136.36 1943.46 135.542 1944.24 134.126C1944.39 133.598 1944.53 133.067 1944.64 132.532C1944.32 132.436 1944 132.339 1943.67 132.24C1939.13 130.817 1939.13 130.817 1937.86 129.345C1937.73 128.868 1937.6 128.392 1937.47 127.901C1937.21 126.519 1937.21 126.519 1936.19 125.958C1933.93 125.556 1932.02 126.187 1929.99 127.154C1919.53 131.859 1907.37 135.36 1895.99 136.915C1895.23 137.055 1894.48 137.196 1893.72 137.338C1887.17 138.424 1887.17 138.424 1884.42 136.516C1884.02 136.118 1884.02 136.118 1884 134.973C1884.64 131.166 1888.37 128.07 1891.05 125.526C1892.16 124.464 1892.94 123.551 1893.6 122.173C1894.27 121.885 1894.94 121.599 1895.62 121.339C1898.09 120.179 1900.17 117.733 1901.95 115.724C1902.77 115.002 1902.77 115.002 1903.83 114.69C1905.5 114.081 1906.71 113.164 1908.1 112.088C1909.68 110.891 1911.22 109.73 1912.96 108.776C1914.46 107.877 1915.21 106.697 1916.1 105.217C1916.78 104.168 1917.55 103.287 1918.37 102.352C1919.64 100.819 1920.19 99.5722 1920.67 97.6455C1921.54 94.3821 1923.57 92.6472 1926.41 90.9503C1927.16 90.569 1927.92 90.2318 1928.69 89.9012C1928.96 89.76 1929.22 89.6188 1929.5 89.4733C1930.74 88.8913 1931.72 88.964 1933.08 89.1044Z" fill="url(#paint13_linear_254_27999)"/>
<path d="M1970.33 199.151C1973.2 200.41 1974.19 201.866 1975.34 204.711C1976.31 207.424 1976.31 207.424 1976.31 208.901C1977.3 208.901 1978.29 208.901 1979.31 208.901C1980.2 210.955 1980.5 212.072 1980.5 214.385C1981.15 214.222 1981.15 214.222 1981.82 214.056C1985.96 213.362 1989.87 214.83 1993.25 217.222C1995.49 219.035 1996.7 220.619 1997.21 223.487C1997.41 226.007 1996.65 227.397 1995.46 229.618C1995.16 230.705 1994.89 231.798 1994.63 232.894C1993.83 236.084 1992.56 238.542 1990.67 241.196C1991.02 241.115 1991.37 241.034 1991.72 240.951C1992.19 240.843 1992.66 240.736 1993.14 240.625C1993.6 240.519 1994.05 240.413 1994.53 240.303C1995.28 240.142 1995.28 240.142 1996.05 239.977C1996.85 239.732 1996.85 239.732 1997.66 239.482C2000.64 239.311 2002.88 240.526 2005.55 241.767C2006.34 242.12 2006.34 242.12 2007.15 242.48C2008.44 243.06 2009.73 243.647 2011.01 244.243C2013.94 241.021 2013.94 241.022 2015.65 237.045C2017.7 231.387 2022.68 227.368 2027.88 224.751C2030.69 223.716 2033.21 223.356 2036.14 224.134C2039.45 226.361 2040.57 230.134 2041.52 233.884C2042 233.972 2042.48 234.06 2042.98 234.15C2044.51 234.493 2044.51 234.493 2045.11 235.103C2045.13 236.321 2045.13 237.54 2045.11 238.759C2045.89 238.821 2046.66 238.884 2047.46 238.949C2052.54 239.549 2056.57 240.918 2060.06 244.852C2062.05 247.796 2062.2 250.525 2061.86 253.992C2061.66 254.596 2061.46 255.199 2061.26 255.82C2060.87 255.82 2060.47 255.82 2060.06 255.82C2059.99 256.43 2059.92 257.039 2059.84 257.667C2059.17 262.428 2058.02 268.292 2054.31 271.549C2053.43 272.197 2052.56 272.844 2051.69 273.491C2050.69 274.463 2049.69 275.441 2048.7 276.424C2042.08 282.549 2034.03 286.753 2025.97 290.553C2025.58 290.74 2025.19 290.926 2024.79 291.118C2017.93 294.359 2010.81 296.806 2003.64 299.236C2003.18 299.393 2002.72 299.549 2002.25 299.71C1994.5 302.332 1986.75 304.925 1978.71 306.396C1977.94 306.554 1977.17 306.712 1976.37 306.875C1962.42 309.67 1962.42 309.67 1958.47 307.141C1956.58 305.17 1956.58 305.17 1956.57 303.35C1959.91 294.015 1966.75 287.313 1973.58 280.522C1974.45 279.658 1975.3 278.784 1976.16 277.909C1978.26 275.776 1980.25 273.887 1982.97 272.616C1985.12 271.425 1985.91 270.172 1987.08 268.007C1987.3 267.2 1987.5 266.388 1987.68 265.57C1987.2 265.422 1986.71 265.275 1986.21 265.122C1979.41 262.947 1979.41 262.947 1977.51 260.695C1977.31 259.966 1977.12 259.237 1976.91 258.486C1976.53 256.374 1976.53 256.374 1975.01 255.516C1971.61 254.9 1968.74 255.865 1965.7 257.344C1950.01 264.541 1931.76 269.895 1914.7 272.273C1913.56 272.487 1912.43 272.703 1911.3 272.92C1901.46 274.581 1901.46 274.581 1897.35 271.663C1896.75 271.054 1896.75 271.054 1896.71 269.302C1897.68 263.48 1903.27 258.745 1907.28 254.855C1908.95 253.23 1910.12 251.834 1911.11 249.727C1912.11 249.286 1913.12 248.849 1914.14 248.451C1917.86 246.677 1920.96 242.936 1923.63 239.863C1924.87 238.759 1924.87 238.759 1926.46 238.282C1928.97 237.35 1930.77 235.948 1932.87 234.303C1935.24 232.472 1937.54 230.696 1940.16 229.238C1942.41 227.862 1943.53 226.057 1944.87 223.794C1945.88 222.19 1947.04 220.842 1948.27 219.412C1950.18 217.068 1951 215.161 1951.71 212.214C1953.02 207.223 1956.07 204.569 1960.34 201.974C1961.45 201.391 1962.6 200.875 1963.75 200.37C1964.15 200.154 1964.55 199.938 1964.96 199.715C1966.83 198.825 1968.29 198.936 1970.33 199.151Z" fill="url(#paint14_linear_254_27999)"/>
<defs>
<linearGradient id="paint0_linear_254_27999" x1="3020.6" y1="63.8724" x2="3058.45" y2="1191" gradientUnits="userSpaceOnUse">
<stop stop-color="#C3463B"/>
<stop offset="1" stop-color="#6D2822"/>
</linearGradient>
<linearGradient id="paint1_linear_254_27999" x1="3020.6" y1="63.8724" x2="3058.45" y2="1191" gradientUnits="userSpaceOnUse">
<stop stop-color="#C3463B"/>
<stop offset="1" stop-color="#6D2822"/>
</linearGradient>
<linearGradient id="paint2_linear_254_27999" x1="3020.6" y1="63.8724" x2="3058.45" y2="1191" gradientUnits="userSpaceOnUse">
<stop stop-color="#C3463B"/>
<stop offset="1" stop-color="#6D2822"/>
</linearGradient>
<linearGradient id="paint3_linear_254_27999" x1="3020.6" y1="63.8724" x2="3058.45" y2="1191" gradientUnits="userSpaceOnUse">
<stop stop-color="#C3463B"/>
<stop offset="1" stop-color="#6D2822"/>
</linearGradient>
<linearGradient id="paint4_linear_254_27999" x1="3020.6" y1="63.8724" x2="3058.45" y2="1191" gradientUnits="userSpaceOnUse">
<stop stop-color="#C3463B"/>
<stop offset="1" stop-color="#6D2822"/>
</linearGradient>
<linearGradient id="paint5_linear_254_27999" x1="3020.6" y1="63.8724" x2="3058.45" y2="1191" gradientUnits="userSpaceOnUse">
<stop stop-color="#C3463B"/>
<stop offset="1" stop-color="#6D2822"/>
</linearGradient>
<linearGradient id="paint6_linear_254_27999" x1="3020.6" y1="63.8724" x2="3058.45" y2="1191" gradientUnits="userSpaceOnUse">
<stop stop-color="#C3463B"/>
<stop offset="1" stop-color="#6D2822"/>
</linearGradient>
<linearGradient id="paint7_linear_254_27999" x1="3020.6" y1="63.8724" x2="3058.45" y2="1191" gradientUnits="userSpaceOnUse">
<stop stop-color="#C3463B"/>
<stop offset="1" stop-color="#6D2822"/>
</linearGradient>
<linearGradient id="paint8_linear_254_27999" x1="3020.6" y1="63.8724" x2="3058.45" y2="1191" gradientUnits="userSpaceOnUse">
<stop stop-color="#C3463B"/>
<stop offset="1" stop-color="#6D2822"/>
</linearGradient>
<linearGradient id="paint9_linear_254_27999" x1="3020.6" y1="63.8724" x2="3058.45" y2="1191" gradientUnits="userSpaceOnUse">
<stop stop-color="#C3463B"/>
<stop offset="1" stop-color="#6D2822"/>
</linearGradient>
<linearGradient id="paint10_linear_254_27999" x1="3020.6" y1="63.8724" x2="3058.45" y2="1191" gradientUnits="userSpaceOnUse">
<stop stop-color="#C3463B"/>
<stop offset="1" stop-color="#6D2822"/>
</linearGradient>
<linearGradient id="paint11_linear_254_27999" x1="3020.6" y1="63.8724" x2="3058.45" y2="1191" gradientUnits="userSpaceOnUse">
<stop stop-color="#C3463B"/>
<stop offset="1" stop-color="#6D2822"/>
</linearGradient>
<linearGradient id="paint12_linear_254_27999" x1="2356.11" y1="1619.01" x2="2356.11" y2="952.006" gradientUnits="userSpaceOnUse">
<stop stop-color="#9A342B"/>
<stop offset="1" stop-color="#BA453A"/>
</linearGradient>
<linearGradient id="paint13_linear_254_27999" x1="3044.72" y1="-568.746" x2="3119.15" y2="1650.25" gradientUnits="userSpaceOnUse">
<stop stop-color="#C3463B"/>
<stop offset="1" stop-color="#6D2822"/>
</linearGradient>
<linearGradient id="paint14_linear_254_27999" x1="3044.72" y1="-568.746" x2="3119.15" y2="1650.25" gradientUnits="userSpaceOnUse">
<stop stop-color="#C3463B"/>
<stop offset="1" stop-color="#6D2822"/>
</linearGradient>
</defs>
</svg>
