<svg width="4682" height="1157" viewBox="0 0 4682 1157" fill="none" xmlns="http://www.w3.org/2000/svg">
<rect x="-14" y="459" width="4696" height="698" fill="#C6756E"/>
<path d="M459.077 0H535.786L607.984 12.4706L680.181 37.4118L707.255 53L725.304 46.7647L770.427 34.2941H838.112L883.236 46.7647L910.31 59.2353H968.97L1023.12 68.5882L1072.75 93.5294L1099.83 121.588L1104.34 137.176L1126.9 140.294L1163 149.647L1172.02 134.059L1212.64 109.118L1248.73 99.7647L1298.37 96.6471L1329.96 77.9412L1366.05 68.5882L1411.18 71.7059L1438.25 84.1765L1460.81 99.7647H1501.42L1551.06 112.235L1587.16 134.059L1605.21 155.882L1618.75 183.941L1654.84 171.471L1704.48 168.353L1749.6 177.706L1785.7 199.529L1799.24 218.235L1821.8 180.824L1839.85 162.118L1875.95 137.176L1925.58 121.588L1939.12 118.471H2015.83L2065.47 130.941L2110.59 155.882L2119.61 165.235L2173.76 177.706L2218.88 196.412L2245.96 212L2273.03 208.882H2331.69L2354.25 183.941L2390.35 162.118L2430.96 152.765H2467.06L2516.7 165.235L2543.77 180.824L2566.33 205.765L2579.87 227.588L2615.97 249.412L2638.53 271.235L2643.04 280.588L2688.17 286.824L2724.27 302.412L2751.34 327.353L2764.88 361.647L2796.46 380.353L2810 402.176V433.353L2791.95 461.412L2778.41 473.882L-474.975 477L-484 470.765L-479.488 436.471L-452.414 405.294L-411.803 386.588L-384.729 380.353H-353.142L-339.605 383.471V358.529L-317.044 311.765L-285.458 277.471L-244.847 246.294L-190.699 218.235L-172.649 215.118L-168.137 208.882L-91.4274 190.176L-41.7918 183.941H84.5534L134.189 171.471L179.312 165.235L210.899 115.353L237.973 87.2941L278.584 56.1176L328.219 31.1765L382.367 12.4706L459.077 0Z" fill="url(#paint0_linear_254_28002)"/>
<path d="M3483.08 161H3559.79L3631.98 173.471L3704.18 198.412L3731.25 214L3749.3 207.765L3794.43 195.294H3862.11L3907.24 207.765L3934.31 220.235H3992.97L4047.12 229.588L4096.75 254.529L4123.83 282.588L4128.34 298.176L4150.9 301.294L4187 310.647L4196.02 295.059L4236.64 270.118L4272.73 260.765L4322.37 257.647L4353.96 238.941L4390.05 229.588L4435.18 232.706L4462.25 245.176L4484.81 260.765H4525.42L4575.06 273.235L4611.16 295.059L4629.21 316.882L4642.75 344.941L4678.84 332.471L4728.48 329.353L4773.6 338.706L4809.7 360.529L4823.24 379.235L4845.8 341.824L4863.85 323.118L4899.95 298.176L4949.58 282.588L4963.12 279.471H5039.83L5089.47 291.941L5134.59 316.882L5143.61 326.235L5197.76 338.706L5242.88 357.412L5269.96 373L5297.03 369.882H5355.69L5378.25 344.941L5414.35 323.118L5454.96 313.765H5491.06L5540.7 326.235L5567.77 341.824L5590.33 366.765L5603.87 388.588L5639.97 410.412L5662.53 432.235L5667.04 441.588L5712.17 447.824L5748.27 463.412L5775.34 488.353L5788.88 522.647L5820.46 541.353L5834 563.176V594.353L5815.95 622.412L5802.41 634.882L2549.02 638L2540 631.765L2544.51 597.471L2571.59 566.294L2612.2 547.588L2639.27 541.353H2670.86L2684.39 544.471V519.529L2706.96 472.765L2738.54 438.471L2779.15 407.294L2833.3 379.235L2851.35 376.118L2855.86 369.882L2932.57 351.176L2982.21 344.941H3108.55L3158.19 332.471L3203.31 326.235L3234.9 276.353L3261.97 248.294L3302.58 217.118L3352.22 192.176L3406.37 173.471L3483.08 161Z" fill="url(#paint1_linear_254_28002)"/>
<defs>
<linearGradient id="paint0_linear_254_28002" x1="663.235" y1="477" x2="663.235" y2="-81" gradientUnits="userSpaceOnUse">
<stop stop-color="#C6756E"/>
<stop offset="1" stop-color="#EAA374"/>
</linearGradient>
<linearGradient id="paint1_linear_254_28002" x1="3687.23" y1="638" x2="3687.23" y2="80" gradientUnits="userSpaceOnUse">
<stop stop-color="#C6756E"/>
<stop offset="1" stop-color="#EAA374"/>
</linearGradient>
</defs>
</svg>
