<svg width="4682" height="1432" viewBox="0 0 4682 1432" fill="none" xmlns="http://www.w3.org/2000/svg">
<path d="M3172.05 530.48C3172.05 530.48 3190.66 530.479 3190.66 512.968C3190.66 505.303 3327.56 502.025 3327.56 512.968C3327.56 523.912 3353.85 530.48 3353.85 530.48L3399.84 718.729C3399.84 760.318 3121.67 751.563 3121.67 718.729L3172.05 530.48Z" fill="#D4D0BA"/>
<path d="M3940.03 576.12C3940.03 576.12 3951.73 576.12 3951.73 565.12C3951.73 560.305 4037.71 558.246 4037.71 565.12C4037.71 571.995 4054.22 576.12 4054.22 576.12L4083.12 694.37C4083.12 720.495 3908.39 714.995 3908.39 694.37L3940.03 576.12Z" fill="#D4D0BA"/>
<path d="M4077.38 596.113C4077.38 596.113 4089.08 596.113 4089.08 585.113C4089.08 580.298 4175.07 578.239 4175.07 585.113C4175.07 591.988 4191.58 596.113 4191.58 596.113L4220.47 714.364C4220.47 740.489 4045.74 734.989 4045.74 714.364L4077.38 596.113Z" fill="#D4D0BA"/>
<path d="M3651.9 551.343C3651.9 551.343 3670.52 551.342 3670.52 533.831C3670.52 526.166 3807.42 522.889 3807.42 533.831C3807.42 544.776 3833.7 551.343 3833.7 551.343L3879.7 739.592C3879.7 781.182 3601.52 772.426 3601.52 739.592L3651.9 551.343Z" fill="#D4D0BA"/>
<path d="M3401.64 470.366C3401.64 470.366 3425.44 470.364 3425.44 447.986C3425.44 438.19 3600.41 434.001 3600.41 447.986C3600.41 461.973 3634.01 470.366 3634.01 470.366L3692.8 710.944C3692.8 764.095 3337.25 752.905 3337.25 710.944L3401.64 470.366Z" fill="#D4D0BA"/>
<path d="M700.543 423.84L643.285 682.852C721.638 737.147 976.283 705.475 1093.81 682.852L1035.05 423.84H1006.42L989.844 415.529H736.705L723.144 423.84H700.543Z" fill="#D4D0BA"/>
<path d="M268.5 542.064L211.242 801.076C289.595 855.372 544.24 823.699 661.769 801.076L603.004 542.064H574.375L557.801 533.754H304.662L291.101 542.064H268.5Z" fill="#D4D0BA"/>
<path d="M911.781 521.201L854.523 780.213C932.876 834.508 1187.52 802.836 1305.05 780.213L1246.29 521.201H1217.66L1201.08 512.891H947.944L934.383 521.201H911.781Z" fill="#D4D0BA"/>
<path d="M3800.43 2.70995C3800.43 1.21436 3801.64 0.00195312 3803.13 0.00195312V0.00195312C3804.63 0.00195312 3805.84 1.21437 3805.84 2.70996V223.864H3800.43V2.70995Z" fill="#D4D0BA"/>
<path d="M3795.01 206.41C3795.01 202.09 3798.51 198.589 3802.83 198.589H3804.34C3808.66 198.589 3812.16 202.09 3812.16 206.41V293.369H3795.01V206.41Z" fill="#D4D0BA"/>
<path d="M3786.88 286.747C3786.88 282.427 3790.38 278.926 3794.7 278.926H3814.27C3818.59 278.926 3822.09 282.427 3822.09 286.747V373.706H3786.88V286.747Z" fill="#D4D0BA"/>
<path d="M3767.03 441.1C3767.03 430.302 3775.78 421.548 3786.58 421.548H3819.69C3830.49 421.548 3839.24 430.302 3839.24 441.1V555.143H3767.03V441.1Z" fill="#D4D0BA"/>
<path d="M3758 563.709C3758 547.511 3771.13 534.381 3787.33 534.381H3820.74C3836.94 534.381 3850.07 547.511 3850.07 563.709V713.109C3818.11 729.575 3789.96 729.575 3758 713.109V563.709Z" fill="#D4D0BA"/>
<rect x="3782.37" y="416.132" width="45.1334" height="5.41601" fill="#D4D0BA"/>
<rect x="3776.95" y="373.707" width="55.9654" height="48.7438" rx="9.77591" fill="#D4D0BA"/>
<path d="M562.684 113.323C562.684 111.844 563.883 110.645 565.362 110.645V110.645C566.842 110.645 568.041 111.844 568.041 113.323V332.09H562.684V113.323Z" fill="#D4D0BA"/>
<path d="M557.324 314.909C557.324 310.589 560.826 307.088 565.145 307.088H566.469C570.788 307.088 574.29 310.589 574.29 314.909V400.845H557.324V314.909Z" fill="#D4D0BA"/>
<path d="M549.289 394.378C549.289 390.059 552.791 386.558 557.11 386.558H576.292C580.612 386.558 584.113 390.059 584.113 394.378V480.315H549.289V394.378Z" fill="#D4D0BA"/>
<path d="M529.645 547.191C529.645 536.393 538.398 527.64 549.196 527.64H581.527C592.325 527.64 601.078 536.393 601.078 547.191V659.792H529.645V547.191Z" fill="#D4D0BA"/>
<path d="M520.715 668.582C520.715 652.384 533.845 639.254 550.043 639.254H582.465C598.663 639.254 611.793 652.384 611.793 668.582V816.053C580.174 832.341 552.334 832.341 520.715 816.053V668.582Z" fill="#D4D0BA"/>
<rect x="544.824" y="522.281" width="44.6462" height="5.35717" fill="#D4D0BA"/>
<rect x="539.465" y="480.315" width="55.3612" height="48.2179" rx="9.77591" fill="#D4D0BA"/>
</svg>
