<svg width="4682" height="1148" viewBox="0 0 4682 1148" fill="none" xmlns="http://www.w3.org/2000/svg">
<path d="M2586.88 119.351L2603.72 76.1947C2603.91 75.6912 2603.96 75.2082 2604.13 74.6945C2612.16 50.1505 3019.9 46.9042 3028.42 74.5475C3028.6 75.1481 3028.69 75.7283 3028.95 76.299L3048.98 119.739C3049.95 121.848 3049.22 124.292 3047.04 125.096C2990.63 145.928 2656.78 144.01 2589.34 124.808C2586.99 124.138 2585.99 121.629 2586.88 119.351Z" fill="#A99A6C" fill-opacity="0.77"/>
<path d="M2541.47 179.954L2560.91 129.468C2561.68 127.476 2563.65 126.314 2565.75 126.726C2663.87 146.031 2946.8 145.972 3065.3 126.549C3067.25 126.23 3069.08 127.264 3069.89 129.061L3093.24 180.344C3094.19 182.441 3093.54 184.835 3091.4 185.68C3026.43 211.28 2622.5 208.93 2543.85 185.391C2541.53 184.694 2540.6 182.222 2541.47 179.954Z" fill="#A99A6C" fill-opacity="0.77" stroke="#D2D9C1" stroke-width="6.95442"/>
<path d="M2493.72 247.116L2517.1 185.365C2517.86 183.355 2519.84 182.177 2521.95 182.603C2636.74 205.802 2970.51 205.742 3109.55 182.421C3111.51 182.092 3113.35 183.141 3114.16 184.956L3142.15 247.508C3143.09 249.591 3142.5 251.932 3140.39 252.812C3066.29 283.789 2586.71 280.953 2496.04 252.525C2493.74 251.804 2492.86 249.371 2493.72 247.116Z" fill="#A99A6C" fill-opacity="0.77" stroke="#D2D9C1" stroke-width="6.95442"/>
<path d="M2438.93 320.125L2466.65 243.647C2467.39 241.59 2469.4 240.379 2471.54 240.834C2604.44 269.094 2993.22 269.029 3154.53 240.64C3156.52 240.288 3158.39 241.37 3159.19 243.234L3192.3 320.522C3193.18 322.567 3192.65 324.814 3190.63 325.735C3106.93 363.743 2544.7 360.272 2441.18 325.457C2438.94 324.704 2438.12 322.346 2438.93 320.125Z" fill="#A99A6C" fill-opacity="0.77" stroke="#D2D9C1" stroke-width="6.95442"/>
<path d="M2377.42 421.618L2415.15 326.159C2415.95 324.154 2417.99 323.012 2420.09 323.49C2606.97 365.981 3023.86 362.499 3211.45 329.634C3213.43 329.287 3215.3 330.357 3216.11 332.207L3255.11 422.075C3256 424.132 3255.5 426.383 3253.46 427.32C3157.72 471.331 2499.04 467.326 2379.61 427.07C2377.32 426.298 2376.53 423.867 2377.42 421.618Z" fill="#A99A6C" fill-opacity="0.77"/>
<path d="M1806.23 144.217L1737.62 8.99512L1765.75 8.99464L1816.85 144.217L1806.23 144.217Z" fill="#A99A6C"/>
<path d="M1817.66 145.85L1775.6 7.82551L1810.72 12.1793L1828.69 151.566L1817.66 145.85Z" fill="#A99A6C"/>
<path d="M1832.77 154.019L1818.89 20.1234L1840.12 20.1241L1845.02 154.019L1832.77 154.019Z" fill="#A99A6C"/>
<path d="M1851.61 165.559L1846.85 31.0295L1867.89 29.877L1863.83 166.391L1851.61 165.559Z" fill="#A99A6C"/>
<path d="M1865.22 181.572L1874.13 47.2543L1892.39 47.2537L1877.29 183.64L1865.22 181.572Z" fill="#A99A6C"/>
<path d="M1876.25 196.878L1903.35 65.0197L1919.34 65.02L1887.93 200.569L1876.25 196.878Z" fill="#A99A6C"/>
<path d="M1893.48 228.152L1945.92 104.17L1962.5 105.468L1904.21 234.062L1893.48 228.152Z" fill="#A99A6C"/>
<path d="M1904.42 242.221L1967.38 123.233L1983.79 125.959L1914.6 249.036L1904.42 242.221Z" fill="#A99A6C"/>
<path d="M1919.12 265.09L1982.08 146.102L1998.49 148.829L1929.3 271.905L1919.12 265.09Z" fill="#A99A6C"/>
<path d="M1929.75 290.406L1992.7 171.419L2009.11 174.145L1939.93 297.222L1929.75 290.406Z" fill="#A99A6C"/>
<path d="M1885.41 209.413L1928.02 81.7233L1944.66 81.7249L1896.57 214.47L1885.41 209.413Z" fill="#A99A6C"/>
<rect x="1712.69" y="24.3682" width="21.5608" height="146.709" transform="rotate(-27.6601 1712.69 24.3682)" fill="#A99A6C"/>
<path d="M1727.51 49.1568L1726.79 12.0733L1576.6 6.35278L1577.3 42.5271L1727.51 49.1568Z" fill="#A99A6C" stroke="#DBDFBF" stroke-width="5.88035"/>
<rect x="1687.02" y="48.373" width="25.7674" height="146.709" transform="rotate(-27.6601 1687.02 48.373)" fill="#A99A6C"/>
<path d="M1713.6 87.6855L1712.78 45.8237L1538.49 39.5615L1539.28 80.4077L1713.6 87.6855Z" fill="#A99A6C" stroke="#DBDFBF" stroke-width="5.88035"/>
<rect x="1671.88" y="85.9414" width="25.7674" height="146.709" transform="rotate(-27.6601 1671.88 85.9414)" fill="#A99A6C"/>
<path d="M1699.72 129.77L1698.8 82.6013L1507.59 75.5645L1508.49 121.601L1699.72 129.77Z" fill="#A99A6C" stroke="#DBDFBF" stroke-width="5.88035"/>
<rect x="1657.18" y="121.878" width="25.7674" height="146.709" transform="rotate(-27.6601 1657.18 121.878)" fill="#A99A6C"/>
<path d="M1699.91 179.775L1698.88 126.708L1479.91 118.97L1480.92 170.775L1699.91 179.775Z" fill="#A99A6C" stroke="#DBDFBF" stroke-width="5.88035"/>
<path d="M1700.29 224.521V164.754L1446.46 151.352V209.709L1700.29 224.521Z" fill="#A99A6C" stroke="#DBDFBF" stroke-width="5.88035"/>
<path d="M1714.02 267.663V201.406L1400.4 186.617V251.317L1714.02 267.663Z" fill="#A99A6C" stroke="#DBDFBF" stroke-width="5.88035"/>
<path d="M1677.27 316.21V243.469L1363.65 227.351V298.395L1677.27 316.21Z" fill="#A99A6C" stroke="#DBDFBF" stroke-width="5.88035"/>
<path d="M1654.97 362.884V283.59L1314.72 266.103V343.557L1654.97 362.884Z" fill="#A99A6C" stroke="#DBDFBF" stroke-width="5.88035"/>
<path d="M1639.53 400.005V339.418L1272.99 325.756V384.905L1639.53 400.005Z" fill="#A99A6C" stroke="#DBDFBF" stroke-width="5.88035"/>
</svg>
