<svg width="4682" height="1615" viewBox="0 0 4682 1615" fill="none" xmlns="http://www.w3.org/2000/svg">
<path d="M4695 888.001L-17.0001 1376L-47 1626L4681 945.917L4695 888.001Z" fill="url(#paint0_linear_255_31835)"/>
<path d="M13 1620L4682 956L4682 1666L-96.0039 1666L13 1620Z" fill="url(#paint1_linear_255_31835)"/>
<path d="M3789.35 1008.5L-10.2387 1443.27L-23.2699 1457.2L3789.35 1008.5Z" fill="url(#paint2_linear_255_31835)" fill-opacity="0.8"/>
<path d="M3776.89 1003.03L-0.400427 1425.42L-12.0626 1437.22L3776.89 1003.03Z" fill="url(#paint3_linear_255_31835)" fill-opacity="0.8"/>
<path d="M3771.37 998.95L3.5964 1407.19L-13.0795 1422.34L3771.37 998.95Z" fill="url(#paint4_linear_255_31835)" fill-opacity="0.8"/>
<path d="M3752.9 994.73L4.28085 1386.5L-6.54242 1402.05L3752.9 994.73Z" fill="url(#paint5_linear_255_31835)" fill-opacity="0.8"/>
<path d="M3823.62 1020.29L-5.39951 1493.96L-18.4312 1507.88L3823.62 1020.29Z" fill="url(#paint6_linear_255_31835)" fill-opacity="0.8"/>
<path d="M3821.74 1014.97L-3.67453 1474.82L-16.7062 1488.74L3821.74 1014.97Z" fill="url(#paint7_linear_255_31835)" fill-opacity="0.8"/>
<path d="M3809.06 1011.89L-5.79457 1459.13L-19.9968 1472.97L3809.06 1011.89Z" fill="url(#paint8_linear_255_31835)" fill-opacity="0.8"/>
<path d="M3859.04 1032.33L-10.7025 1552.84L-23.7342 1566.77L3859.04 1032.33Z" fill="url(#paint9_linear_255_31835)" fill-opacity="0.8"/>
<path d="M3847.6 1028.58L-8.98559 1533.7L-22.0173 1547.63L3847.6 1028.58Z" fill="url(#paint10_linear_255_31835)" fill-opacity="0.8"/>
<path d="M3835.06 1024.03L-7.12423 1513.09L-20.1559 1527.02L3835.06 1024.03Z" fill="url(#paint11_linear_255_31835)" fill-opacity="0.8"/>
<path d="M3898.11 1043.13L-16.0132 1611.72L-29.0448 1625.65L3898.11 1043.13Z" fill="url(#paint12_linear_255_31835)" fill-opacity="0.8"/>
<path d="M3878.28 1041.04L-14.2848 1592.59L-27.3164 1606.51L3878.28 1041.04Z" fill="url(#paint13_linear_255_31835)" fill-opacity="0.8"/>
<path d="M3860.85 1038.37L-12.4276 1571.98L-25.4592 1585.9L3860.85 1038.37Z" fill="url(#paint14_linear_255_31835)" fill-opacity="0.8"/>
<path d="M4532.55 919.302L-45 1384V868L4725 850L4701 900L4532.55 919.302Z" fill="url(#paint15_linear_255_31835)"/>
<path d="M2337.26 1064.85L-73.0007 1312L-95.0009 1344L2337.77 1081.18L2337.26 1064.85Z" fill="#71694A" fill-opacity="0.33"/>
<path opacity="0.3" d="M1632.1 1060.4L-47.0009 1228L-47.0009 1266L1632.97 1085.19L1632.1 1060.4Z" fill="#8C835C"/>
<path d="M3421.47 910.09L2771.29 966.781L2773.76 1004.1L3423.23 936.723L3421.47 910.09Z" fill="#71694A" fill-opacity="0.33"/>
<path d="M969.547 976.814H1272.97V1036.99C1245.28 1070.56 1001.44 1080.99 973.661 1036.99L969.547 976.814Z" fill="#A99A6C"/>
<ellipse cx="1116.63" cy="966.015" rx="176.913" ry="27.257" fill="#A99A6C"/>
<ellipse cx="1124.35" cy="938.758" rx="103.371" ry="13.3713" fill="#A99A6C"/>
<path d="M969.547 981.444C1102.34 1003.84 1153.66 1001.46 1272.97 979.387V985.044C1152.7 1009.27 1084.38 1005.05 969.547 987.976V981.444Z" fill="#EAE2C9"/>
<g opacity="0.66">
<path d="M661.266 941.045H897.262V987.844C875.722 1013.96 686.07 1022.07 664.466 987.844L661.266 941.045Z" fill="#A99A6C"/>
<ellipse cx="775.664" cy="932.645" rx="137.598" ry="21.1997" fill="#A99A6C"/>
<ellipse cx="781.664" cy="911.446" rx="80.3987" ry="10.3998" fill="#A99A6C"/>
<path d="M661.266 944.646C764.547 962.063 804.467 960.212 897.262 943.046V947.446C803.715 966.291 750.578 963.006 661.266 949.727V944.646Z" fill="#EAE2C9"/>
</g>
<path d="M1478.34 834.563L1477.53 905.725C1516.79 1000.93 2541.19 1009.68 2572.69 916.305L2567.62 801.587L2384.05 714.843L2384.36 687.851L2322.52 669.964C2210.07 654.935 2201.86 579.417 2211.82 543.537L2145.21 525.597C2088.24 499.422 1967.19 512.927 1913.79 522.952L1834.86 539.229C1871.98 631.93 1755.4 671.664 1692.47 679.944L1692.16 706.936L1490.72 795.438L1478.34 834.563Z" fill="#999173"/>
<path d="M1875.54 560.646C1875.54 560.646 1900.4 563.101 1916.33 564.674C1932.26 566.246 1957.11 568.701 1957.11 568.701L1956.27 642.283C1956.27 642.283 1935.4 640.691 1915.49 638.494C1899.53 636.733 1874.71 633.28 1874.71 633.28L1875.54 560.646Z" fill="#D4CDAC"/>
<path d="M2186.04 562.296C2186.04 562.296 2161.13 564.182 2145.17 565.39C2129.21 566.598 2104.3 568.484 2104.3 568.484L2103.46 642.067C2103.46 642.067 2124.37 640.952 2144.33 639.21C2160.32 637.815 2185.21 634.93 2185.21 634.93L2186.04 562.296Z" fill="#D4CDAC"/>
<path d="M1986.55 568.563C1986.55 568.563 2011.4 568.847 2027.38 569.03C2043.36 569.213 2068.21 569.497 2068.21 569.497L2067.37 642.605C2067.37 642.605 2042.5 645.644 2026.51 645.461C2010.51 645.279 1985.72 641.672 1985.72 641.672L1986.55 568.563Z" fill="#D4CDAC"/>
<path d="M1840.29 606.125C1966.66 622.582 2104.21 624.267 2215.55 610.159C2219.57 609.651 2228.31 614.533 2224.3 614.979C2073.5 631.734 1976.66 626.409 1832.24 610.498C1832.24 610.498 1833.32 609.803 1836.27 607.948C1839.52 605.908 1840.29 606.125 1840.29 606.125Z" fill="#999173"/>
<path d="M1852.17 577.771C1966.01 594.085 2089.93 595.614 2190.27 581.38C2193.88 580.867 2201.75 585.74 2198.14 586.19C2062.25 603.116 1975.01 597.901 1844.91 582.154C1844.91 582.154 1845.88 581.457 1848.54 579.599C1851.47 577.555 1852.17 577.771 1852.17 577.771Z" fill="#999173"/>
<rect x="1613.01" y="849.17" width="8.54566" height="80.709" transform="rotate(0.654761 1613.01 849.17)" fill="#D4CDAC"/>
<rect x="1592.14" y="847.031" width="8.54572" height="80.7087" transform="rotate(0.654761 1592.14 847.031)" fill="#D4CDAC"/>
<rect x="1571.31" y="842.046" width="8.54566" height="80.709" transform="rotate(0.654761 1571.31 842.046)" fill="#D4CDAC"/>
<rect x="1550.46" y="838.009" width="8.54562" height="80.7087" transform="rotate(0.654761 1550.46 838.009)" fill="#D4CDAC"/>
<path d="M2456.09 854.085L2447.55 853.987L2446.63 934.691L2455.17 934.789L2456.09 854.085Z" fill="#D4CDAC"/>
<rect width="8.54566" height="80.709" transform="matrix(-0.999935 -0.0114275 -0.0114275 0.999935 2477.04 849.575)" fill="#D4CDAC"/>
<rect width="8.54566" height="80.709" transform="matrix(-0.999935 -0.0114275 -0.0114275 0.999935 2497.95 846.966)" fill="#D4CDAC"/>
<path d="M2518.88 843.88L2510.33 843.782L2509.41 924.486L2517.96 924.583L2518.88 843.88Z" fill="#D4CDAC"/>
<rect x="1793.23" y="866.422" width="8.54566" height="80.709" transform="rotate(0.654761 1793.23 866.422)" fill="#D4CDAC"/>
<rect x="1772.35" y="865.234" width="8.54562" height="80.7087" transform="rotate(0.654761 1772.35 865.234)" fill="#D4CDAC"/>
<rect x="1751.48" y="864.045" width="8.54566" height="80.709" transform="rotate(0.654761 1751.48 864.045)" fill="#D4CDAC"/>
<rect x="1730.61" y="861.908" width="8.54566" height="80.709" transform="rotate(0.654761 1730.61 861.908)" fill="#D4CDAC"/>
<rect x="1981.17" y="873.316" width="8.54566" height="80.709" transform="rotate(0.654761 1981.17 873.316)" fill="#D4CDAC"/>
<rect x="1960.28" y="873.077" width="8.54566" height="80.709" transform="rotate(0.654761 1960.28 873.077)" fill="#D4CDAC"/>
<rect x="1939.39" y="872.838" width="8.54566" height="80.709" transform="rotate(0.654761 1939.39 872.838)" fill="#D4CDAC"/>
<rect x="1918.52" y="871.65" width="8.54566" height="80.709" transform="rotate(0.654761 1918.52 871.65)" fill="#D4CDAC"/>
<rect width="8.54566" height="82.678" transform="matrix(-0.999935 -0.0114275 -0.0114275 0.999935 2115.98 875.736)" fill="#D4CDAC"/>
<rect width="8.54571" height="82.6783" transform="matrix(-0.999935 -0.0114275 -0.0114275 0.999935 2136.89 875.097)" fill="#D4CDAC"/>
<rect width="8.54566" height="81.7985" transform="matrix(-0.999935 -0.0114275 -0.0114275 0.999935 2157.76 876.213)" fill="#D4CDAC"/>
<rect width="8.54571" height="82.6783" transform="matrix(-0.999935 -0.0114275 -0.0114275 0.999935 2178.66 875.572)" fill="#D4CDAC"/>
<rect width="8.54566" height="80.709" transform="matrix(-0.999935 -0.0114275 -0.0114275 0.999935 2285.14 878.407)" fill="#D4CDAC"/>
<rect width="8.54566" height="80.709" transform="matrix(-0.999935 -0.0114275 -0.0114275 0.999935 2306.04 876.746)" fill="#D4CDAC"/>
<rect width="8.54566" height="80.709" transform="matrix(-0.999935 -0.0114275 -0.0114275 0.999935 2326.97 873.187)" fill="#D4CDAC"/>
<rect width="8.54572" height="80.7087" transform="matrix(-0.999935 -0.0114275 -0.0114275 0.999935 2347.89 870.576)" fill="#D4CDAC"/>
<rect x="1931.61" y="557.49" width="3.79807" height="80.709" transform="rotate(0.654761 1931.61 557.49)" fill="#999173"/>
<rect x="1912.61" y="557.273" width="3.79807" height="80.709" transform="rotate(0.654761 1912.61 557.273)" fill="#999173"/>
<rect x="1893.62" y="557.056" width="3.79809" height="80.7094" transform="rotate(0.654761 1893.62 557.056)" fill="#999173"/>
<rect x="2003.62" y="570.656" width="3.79807" height="80.709" transform="rotate(0.654761 2003.62 570.656)" fill="#999173"/>
<rect x="2025.48" y="569.009" width="3.79807" height="80.709" transform="rotate(0.654761 2025.48 569.009)" fill="#999173"/>
<rect x="2047.3" y="571.157" width="3.79807" height="80.709" transform="rotate(0.654761 2047.3 571.157)" fill="#999173"/>
<rect x="2123.38" y="561.58" width="3.79807" height="80.709" transform="rotate(0.654761 2123.38 561.58)" fill="#999173"/>
<rect x="2145.23" y="559.931" width="3.79807" height="80.709" transform="rotate(0.654761 2145.23 559.931)" fill="#999173"/>
<rect x="2167.05" y="562.079" width="3.79807" height="80.709" transform="rotate(0.654761 2167.05 562.079)" fill="#999173"/>
<path d="M1290.63 3.93175C1290.63 2.00786 1292.19 0.448242 1294.12 0.448242V0.448242C1296.04 0.448242 1297.6 2.00786 1297.6 3.93176V288.419H1290.63V3.93175Z" fill="#A99A6C"/>
<path d="M1279.51 369.26H1307.16C1310.68 369.26 1313.53 372.11 1313.53 375.627V486.282H1273.15V375.627C1273.15 372.11 1276 369.26 1279.51 369.26Z" fill="#857E64" stroke="#CFD6BB" stroke-width="4.90029"/>
<path d="M1283.1 280.584C1283.1 275.714 1287.05 271.767 1291.91 271.767H1296.34C1301.21 271.767 1305.16 275.714 1305.16 280.584V393.69H1283.1V280.584Z" fill="#857E64"/>
<path d="M1267.2 545.164H1316C1326.82 545.164 1335.6 553.936 1335.6 564.757V712.117H1247.6V564.757C1247.6 553.936 1256.37 545.164 1267.2 545.164Z" fill="#857E64" stroke="#CFD6BB" stroke-width="4.90029"/>
<path d="M1233.54 720.924C1233.54 702.663 1248.34 687.859 1266.6 687.859H1318.91C1337.18 687.859 1351.98 702.663 1351.98 720.924V917.771C1310.86 938.953 1274.66 938.953 1233.54 917.771V720.924Z" fill="#857E64"/>
<rect x="1266.63" y="537.489" width="54.5751" height="3.48351" fill="#857E64" stroke="#EAE2C9" stroke-width="3.48351"/>
<rect x="1260.37" y="486.144" width="67.0923" height="57.803" rx="8.57129" fill="#857E64" stroke="#D2D9C1" stroke-width="4.90029"/>
<defs>
<linearGradient id="paint0_linear_255_31835" x1="3151.44" y1="1097.52" x2="3171.3" y2="1231.6" gradientUnits="userSpaceOnUse">
<stop stop-color="#E4E0D4"/>
<stop offset="1" stop-color="#E2DED1"/>
</linearGradient>
<linearGradient id="paint1_linear_255_31835" x1="485" y1="1666" x2="4853" y2="1020" gradientUnits="userSpaceOnUse">
<stop stop-color="#E5EBB7"/>
<stop offset="1" stop-color="#EEF1DA"/>
</linearGradient>
<linearGradient id="paint2_linear_255_31835" x1="3771.16" y1="1007.25" x2="654.146" y2="2636.08" gradientUnits="userSpaceOnUse">
<stop stop-color="#B1A991" stop-opacity="0.13"/>
<stop offset="1" stop-color="#D1CEC6"/>
</linearGradient>
<linearGradient id="paint3_linear_255_31835" x1="3758.81" y1="1001.79" x2="688.495" y2="2637.65" gradientUnits="userSpaceOnUse">
<stop stop-color="#B1A991" stop-opacity="0.13"/>
<stop offset="1" stop-color="#D1CEC6"/>
</linearGradient>
<linearGradient id="paint4_linear_255_31835" x1="3753.3" y1="997.719" x2="711.17" y2="2646.4" gradientUnits="userSpaceOnUse">
<stop stop-color="#B1A991" stop-opacity="0.13"/>
<stop offset="1" stop-color="#D1CEC6"/>
</linearGradient>
<linearGradient id="paint5_linear_255_31835" x1="3734.95" y1="993.506" x2="745.7" y2="2650.26" gradientUnits="userSpaceOnUse">
<stop stop-color="#B1A991" stop-opacity="0.13"/>
<stop offset="1" stop-color="#D1CEC6"/>
</linearGradient>
<linearGradient id="paint6_linear_255_31835" x1="3805.3" y1="1019.04" x2="588.168" y2="2609.58" gradientUnits="userSpaceOnUse">
<stop stop-color="#B1A991" stop-opacity="0.13"/>
<stop offset="1" stop-color="#D1CEC6"/>
</linearGradient>
<linearGradient id="paint7_linear_255_31835" x1="3803.44" y1="1013.73" x2="617.204" y2="2622.06" gradientUnits="userSpaceOnUse">
<stop stop-color="#B1A991" stop-opacity="0.13"/>
<stop offset="1" stop-color="#D1CEC6"/>
</linearGradient>
<linearGradient id="paint8_linear_255_31835" x1="3790.8" y1="1010.64" x2="637.304" y2="2631.69" gradientUnits="userSpaceOnUse">
<stop stop-color="#B1A991" stop-opacity="0.13"/>
<stop offset="1" stop-color="#D1CEC6"/>
</linearGradient>
<linearGradient id="paint9_linear_255_31835" x1="3840.56" y1="1031.07" x2="508.998" y2="2578.7" gradientUnits="userSpaceOnUse">
<stop stop-color="#B1A991" stop-opacity="0.13"/>
<stop offset="1" stop-color="#D1CEC6"/>
</linearGradient>
<linearGradient id="paint10_linear_255_31835" x1="3829.16" y1="1027.33" x2="534.032" y2="2589.11" gradientUnits="userSpaceOnUse">
<stop stop-color="#B1A991" stop-opacity="0.13"/>
<stop offset="1" stop-color="#D1CEC6"/>
</linearGradient>
<linearGradient id="paint11_linear_255_31835" x1="3816.69" y1="1022.77" x2="561.008" y2="2599.01" gradientUnits="userSpaceOnUse">
<stop stop-color="#B1A991" stop-opacity="0.13"/>
<stop offset="1" stop-color="#D1CEC6"/>
</linearGradient>
<linearGradient id="paint12_linear_255_31835" x1="3879.43" y1="1041.86" x2="438.023" y2="2547.96" gradientUnits="userSpaceOnUse">
<stop stop-color="#B1A991" stop-opacity="0.13"/>
<stop offset="1" stop-color="#D1CEC6"/>
</linearGradient>
<linearGradient id="paint13_linear_255_31835" x1="3859.69" y1="1039.78" x2="459.93" y2="2557.01" gradientUnits="userSpaceOnUse">
<stop stop-color="#B1A991" stop-opacity="0.13"/>
<stop offset="1" stop-color="#D1CEC6"/>
</linearGradient>
<linearGradient id="paint14_linear_255_31835" x1="3842.35" y1="1037.11" x2="485.311" y2="2568.25" gradientUnits="userSpaceOnUse">
<stop stop-color="#B1A991" stop-opacity="0.13"/>
<stop offset="1" stop-color="#D1CEC6"/>
</linearGradient>
<linearGradient id="paint15_linear_255_31835" x1="2942.29" y1="988.454" x2="2164.66" y2="838.7" gradientUnits="userSpaceOnUse">
<stop stop-color="#DDD7C5"/>
<stop offset="1" stop-color="#D3CFB9"/>
</linearGradient>
</defs>
</svg>
