<svg width="4682" height="2055" viewBox="0 0 4682 2055" fill="none" xmlns="http://www.w3.org/2000/svg">
<circle cx="2278.77" cy="330.77" r="330.77" fill="url(#paint0_linear_255_31841)" fill-opacity="0.6"/>
<path d="M1159.36 484H1184.93L1208.99 486.824L1233.06 492.471L1242.08 496L1248.1 494.588L1263.14 491.765H1285.7L1300.75 494.588L1309.77 497.412H1329.32L1347.37 499.529L1363.92 505.176L1372.94 511.529L1374.45 515.059L1381.97 515.765L1394 517.882L1397.01 514.353L1410.55 508.706L1422.58 506.588L1439.12 505.882L1449.65 501.647L1461.68 499.529L1476.73 500.235L1485.75 503.059L1493.27 506.588H1506.81L1523.35 509.412L1535.39 514.353L1541.4 519.294L1545.92 525.647L1557.95 522.824L1574.49 522.118L1589.53 524.235L1601.57 529.176L1606.08 533.412L1613.6 524.941L1619.62 520.706L1631.65 515.059L1648.19 511.529L1652.71 510.824H1678.28L1694.82 513.647L1709.86 519.294L1712.87 521.412L1730.92 524.235L1745.96 528.471L1754.99 532L1764.01 531.294H1783.56L1791.09 525.647L1803.12 520.706L1816.65 518.588H1828.69L1845.23 521.412L1854.26 524.941L1861.78 530.588L1866.29 535.529L1878.32 540.471L1885.84 545.412L1887.35 547.529L1902.39 548.941L1914.42 552.471L1923.45 558.118L1927.96 565.882L1938.49 570.118L1943 575.059V582.118L1936.98 588.471L1932.47 591.294L848.008 592L845 590.588L846.504 582.824L855.529 575.765L869.066 571.529L878.09 570.118H888.619L893.132 570.824V565.176L900.652 554.588L911.181 546.824L924.718 539.765L942.767 533.412L948.784 532.706L950.288 531.294L975.858 527.059L992.403 525.647H1034.52L1051.06 522.824L1066.1 521.412L1076.63 510.118L1085.66 503.765L1099.19 496.706L1115.74 491.059L1133.79 486.824L1159.36 484Z" fill="url(#paint1_linear_255_31841)" fill-opacity="0.33"/>
<path d="M2725.95 207H2767.59L2806.79 213.023L2845.98 225.068L2860.68 232.596L2870.47 229.585L2894.97 223.562H2931.71L2956.21 229.585L2970.9 235.607H3002.75L3032.14 240.124L3059.09 252.17L3073.78 265.721L3076.23 273.249L3088.48 274.755L3108.08 279.271L3112.98 271.743L3135.02 259.698L3154.62 255.181L3181.56 253.675L3198.71 244.641L3218.31 240.124L3242.8 241.63L3257.5 247.653L3269.75 255.181H3291.79L3318.74 261.204L3338.33 271.743L3348.13 282.283L3355.48 295.834L3375.08 289.811L3402.02 288.305L3426.52 292.822L3446.11 303.362L3453.46 312.396L3465.71 294.328L3475.51 285.294L3495.1 273.249L3522.05 265.721L3529.4 264.215H3571.04L3597.98 270.238L3622.48 282.283L3627.38 286.8L3656.77 292.822L3681.27 301.856L3695.97 309.385L3710.66 307.879H3742.51L3754.75 295.834L3774.35 285.294L3796.4 280.777H3815.99L3842.94 286.8L3857.63 294.328L3869.88 306.373L3877.23 316.913L3896.83 327.452L3909.07 337.992L3911.52 342.509L3936.02 345.52L3955.62 353.049L3970.31 365.094L3977.66 381.656L3994.81 390.69L4002.16 401.23V416.286L3992.36 429.837L3985.01 435.86L2218.9 437.365L2214 434.354L2216.45 417.792L2231.15 402.735L2253.19 393.701L2267.89 390.69H2285.04L2292.38 392.196V380.15L2304.63 357.566L2321.78 341.003L2343.83 325.947L2373.22 312.396L2383.02 310.89L2385.47 307.879L2427.11 298.845L2454.05 295.834H2522.64L2549.59 289.811L2574.08 286.8L2591.23 262.709L2605.92 249.158L2627.97 234.102L2654.92 222.057L2684.31 213.023L2725.95 207Z" fill="url(#paint2_linear_255_31841)" fill-opacity="0.6"/>
<path d="M3545.29 539H3580.86L3614.33 544.136L3647.81 554.409L3660.36 560.829L3668.73 558.261L3689.65 553.125H3721.04L3741.96 558.261L3754.52 563.397H3781.71L3806.82 567.25L3829.84 577.522L3842.39 589.079L3844.48 595.499L3854.94 596.783L3871.68 600.635L3875.87 594.215L3894.7 583.942L3911.44 580.09L3934.45 578.806L3949.1 571.102L3965.84 567.25L3986.76 568.534L3999.31 573.67L4009.77 580.09H4028.6L4051.62 585.226L4068.36 594.215L4076.73 603.203L4083 614.76L4099.74 609.624L4122.76 608.34L4143.68 612.192L4160.42 621.18L4166.69 628.885L4177.16 613.476L4185.52 605.772L4202.26 595.499L4225.28 589.079L4231.56 587.795H4267.12L4290.14 592.931L4311.06 603.203L4315.25 607.056L4340.35 612.192L4361.28 619.896L4373.83 626.317L4386.38 625.033H4413.58L4424.05 614.76L4440.78 605.772L4459.61 601.919H4476.35L4499.37 607.056L4511.92 613.476L4522.38 623.749L4528.66 632.737L4545.4 641.725L4555.86 650.714L4557.95 654.566L4578.87 657.134L4595.61 663.555L4608.17 673.827L4614.44 687.952L4629.09 695.656L4635.37 704.645V717.486L4627 729.042L4620.72 734.178L3112.18 735.463L3108 732.894L3110.09 718.77L3122.65 705.929L3141.48 698.225L3154.03 695.656H3168.68L3174.95 696.94V686.668L3185.41 667.407L3200.06 653.282L3218.89 640.441L3244 628.885L3252.37 627.601L3254.46 625.033L3290.03 617.328L3313.04 614.76H3371.63L3394.64 609.624L3415.57 607.056L3430.21 586.511L3442.77 574.954L3461.6 562.113L3484.61 551.841L3509.72 544.136L3545.29 539Z" fill="url(#paint3_linear_255_31841)" fill-opacity="0.33"/>
<path d="M322.054 186.611H348.25L372.905 190.384L397.56 197.929L406.805 202.645L412.969 200.759L428.378 196.986H451.492L466.901 200.759L476.147 204.531H496.179L514.67 207.361L531.62 214.906L540.866 223.395L542.407 228.111L550.112 229.054L562.439 231.883L565.521 227.167L579.389 219.622L591.717 216.793L608.667 215.849L619.453 210.19L631.781 207.361L647.19 208.304L656.436 212.077L664.14 216.793H678.009L694.959 220.565L707.286 227.167L713.45 233.77L718.073 242.258L730.4 238.485L747.351 237.542L762.76 240.372L775.087 246.974L779.71 252.633L787.415 241.315L793.578 235.656L805.906 228.111L822.856 223.395L827.479 222.452H853.675L870.625 226.224L886.034 233.77L889.116 236.599L907.607 240.372L923.016 246.031L932.262 250.747L941.508 249.803H961.54L969.244 242.258L981.572 235.656L995.44 232.826H1007.77L1024.72 236.599L1033.96 241.315L1041.67 248.86L1046.29 255.462L1058.62 262.065L1066.32 268.667L1067.86 271.496L1083.27 273.383L1095.6 278.098L1104.85 285.644L1109.47 296.019L1120.26 301.678L1124.88 308.28V317.711L1118.71 326.2L1114.09 329.972L3.08186 330.916L0 329.029L1.54093 318.654L10.7865 309.223L24.6549 303.564L33.9004 301.678H44.6869L49.3097 302.621V295.075L57.0144 280.928L67.8009 270.553L81.6692 261.121L100.16 252.633L106.324 251.69L107.865 249.803L134.061 244.144L151.011 242.258H194.157L211.107 238.485L226.517 236.599L237.303 221.508L246.549 213.02L260.417 203.588L277.367 196.043L295.858 190.384L322.054 186.611Z" fill="url(#paint4_linear_255_31841)" fill-opacity="0.6"/>
<defs>
<linearGradient id="paint0_linear_255_31841" x1="2278.77" y1="0" x2="2278.77" y2="661.54" gradientUnits="userSpaceOnUse">
<stop stop-color="#F8D771"/>
<stop offset="1" stop-color="#B1A385" stop-opacity="0.31"/>
</linearGradient>
<linearGradient id="paint1_linear_255_31841" x1="1584.99" y1="484" x2="1584.99" y2="592" gradientUnits="userSpaceOnUse">
<stop stop-color="white"/>
<stop offset="1" stop-color="#BACAB5"/>
</linearGradient>
<linearGradient id="paint2_linear_255_31841" x1="2793.96" y1="169.359" x2="2793.96" y2="413.995" gradientUnits="userSpaceOnUse">
<stop stop-color="white"/>
<stop offset="1" stop-color="#BACAB5"/>
</linearGradient>
<linearGradient id="paint3_linear_255_31841" x1="3603.38" y1="506.898" x2="3603.38" y2="715.532" gradientUnits="userSpaceOnUse">
<stop stop-color="white"/>
<stop offset="1" stop-color="#BACAB5"/>
</linearGradient>
<linearGradient id="paint4_linear_255_31841" x1="364.838" y1="163.032" x2="364.838" y2="316.276" gradientUnits="userSpaceOnUse">
<stop stop-color="white"/>
<stop offset="1" stop-color="#BACAB5"/>
</linearGradient>
</defs>
</svg>
