<svg width="4682" height="1687" viewBox="0 0 4682 1687" fill="none" xmlns="http://www.w3.org/2000/svg">
<path d="M13 1692L4682 1028L4682 1738L-96.0039 1738L13 1692Z" fill="url(#paint0_linear_255_31830)"/>
<path d="M1987.23 1613.72C2224.39 1589.67 2680.93 1676.31 2597.48 1599.81L2401.02 1488.54C2584.44 1449.42 2787.86 1377.27 2956.29 1388.18C3066.39 1395.31 3221.99 1435.51 3072.3 1370.45C3018.29 1346.97 3336.36 1318.16 3411.15 1318.16C3477.22 1318.16 3648.54 1348.14 3621.52 1328.59C3585.73 1302.7 3442.67 1255.79 3516.33 1276.43C3544.08 1284.21 3651.08 1264.26 3734.53 1264.26C3820.25 1264.26 3953.59 1250.35 3953.59 1250.35C4000.23 1246.46 3960.56 1249.98 3913.61 1229.49C3896.79 1222.15 4119.15 1186.03 4252.63 1186.03C4545 1186.03 4813 1136 4813 1136L4737 1708L4454.93 2096.42L672.663 1866.85C601.318 1874.85 549.238 1879.81 526.799 1877.99C313.398 1860.68 358.51 1847.78 358.51 1847.78L672.663 1866.85C891.489 1842.31 1291.55 1789.18 1573.44 1815.4L1390.89 1721.52C1390.89 1721.52 1751.78 1637.61 1987.23 1613.72Z" fill="url(#paint1_linear_255_31830)"/>
<path d="M2295.16 1761.87C2230.66 1764.05 2216.58 1805.65 2217.6 1826.17C2203.58 1804.99 2232.85 1756.56 2298.99 1756.08C2354.32 1755.68 2354.26 1749.37 2367.24 1747.37C2401.05 1742.14 2413.81 1720.65 2422.61 1709.55C2419.07 1738.73 2375.79 1759.15 2295.16 1761.87Z" fill="#FCFCFC" fill-opacity="0.33"/>
<path d="M3411.68 1587.05C3372.91 1586.95 3363.55 1611.62 3363.71 1623.97C3355.76 1610.95 3374.38 1582.51 3414.11 1583.66C3447.34 1584.62 3447.44 1580.83 3455.28 1579.91C3475.69 1577.51 3483.82 1564.88 3489.35 1558.4C3486.59 1575.85 3460.15 1587.17 3411.68 1587.05Z" fill="#FCFCFC" fill-opacity="0.33"/>
<path d="M3543.28 1715.73C3504.5 1715.63 3495.14 1740.31 3495.31 1752.65C3487.35 1739.63 3505.98 1711.19 3545.7 1712.34C3578.93 1713.3 3579.04 1709.51 3586.87 1708.59C3607.29 1706.19 3615.41 1693.56 3620.94 1687.08C3618.18 1704.53 3591.75 1715.85 3543.28 1715.73Z" fill="#FCFCFC" fill-opacity="0.33"/>
<path d="M3011.96 1696.32C3042.27 1649.84 3079.14 1658 3093.78 1667.88C3084.44 1648.15 3035.79 1648.12 3006 1696.56C2981.08 1737.07 2976.47 1734.22 2969.22 1742.88C2950.33 1765.42 2928.85 1765.23 2916.76 1766.77C2939.8 1777.15 2974.08 1754.4 3011.96 1696.32Z" fill="#FCFCFC" fill-opacity="0.33"/>
<path d="M2676.62 1556.24C2713.96 1517.74 2747.44 1532.29 2759.5 1544.38C2754.29 1523.92 2708.13 1514.91 2670.92 1555.36C2639.79 1589.2 2635.93 1585.64 2627.45 1592.51C2605.37 1610.41 2585.02 1606.27 2573.26 1605.49C2593.21 1619.6 2629.94 1604.35 2676.62 1556.24Z" fill="#FCFCFC" fill-opacity="0.33"/>
<path d="M3246.56 1624.26C3278.63 1591.21 3307.37 1603.7 3317.74 1614.08C3313.26 1596.52 3273.62 1588.78 3241.66 1623.51C3214.92 1652.57 3211.61 1649.52 3204.33 1655.42C3185.36 1670.79 3167.89 1667.23 3157.79 1666.56C3174.92 1678.68 3206.47 1665.59 3246.56 1624.26Z" fill="#FCFCFC" fill-opacity="0.33"/>
<path d="M3246.56 1624.26C3278.63 1591.21 3307.37 1603.7 3317.74 1614.08C3313.26 1596.52 3273.62 1588.78 3241.66 1623.51C3214.92 1652.57 3211.61 1649.52 3204.33 1655.42C3185.36 1670.79 3167.89 1667.23 3157.79 1666.56C3174.92 1678.68 3206.47 1665.59 3246.56 1624.26Z" fill="#FCFCFC" fill-opacity="0.33"/>
<path d="M2944.82 1539.57C2969.06 1511.26 2996.43 1517.43 3007.08 1524.06C3000.72 1511.4 2964.26 1509.99 2940.34 1539.55C2920.33 1564.28 2916.96 1562.36 2911.24 1567.58C2896.34 1581.2 2880.24 1580.47 2871.13 1581.08C2888.06 1588.27 2914.5 1574.96 2944.82 1539.57Z" fill="#FCFCFC" fill-opacity="0.33"/>
<path d="M3154.3 1473.74C3174.1 1449.01 3194.6 1455.69 3202.38 1462.12C3198.17 1450.38 3170.52 1447.67 3150.9 1473.54C3134.48 1495.19 3132.02 1493.31 3127.41 1497.83C3115.43 1509.59 3103.23 1508.29 3096.27 1508.49C3108.79 1515.68 3129.54 1504.65 3154.3 1473.74Z" fill="#FCFCFC" fill-opacity="0.33"/>
<path d="M3178.37 1678.42C3113.87 1680.6 3099.79 1722.19 3100.81 1742.72C3086.79 1721.54 3116.06 1673.11 3182.2 1672.63C3237.53 1672.23 3237.48 1665.92 3250.45 1663.91C3284.26 1658.69 3297.02 1637.2 3305.82 1626.09C3302.28 1655.28 3259 1675.7 3178.37 1678.42Z" fill="#FCFCFC" fill-opacity="0.33"/>
<path d="M3610.74 1755.34C3546.24 1757.52 3532.15 1799.12 3533.17 1819.64C3519.15 1798.46 3548.42 1750.03 3614.57 1749.55C3669.89 1749.15 3669.84 1742.84 3682.82 1740.84C3716.63 1735.61 3729.38 1714.12 3738.19 1703.02C3734.65 1732.2 3691.36 1752.62 3610.74 1755.34Z" fill="#FCFCFC" fill-opacity="0.33"/>
<path d="M4067.38 1763.84C4017.23 1765.53 4006.28 1797.87 4007.07 1813.83C3996.18 1797.36 4018.94 1759.71 4070.36 1759.34C4113.37 1759.03 4113.33 1754.13 4123.42 1752.57C4149.7 1748.5 4159.62 1731.8 4166.46 1723.16C4163.71 1745.85 4130.06 1761.73 4067.38 1763.84Z" fill="#FCFCFC" fill-opacity="0.33"/>
<path d="M4294.89 1503.6C4256.12 1503.5 4246.76 1528.17 4246.92 1540.52C4238.97 1527.5 4257.6 1499.05 4297.32 1500.2C4330.55 1501.17 4330.65 1497.38 4338.49 1496.45C4358.9 1494.05 4367.03 1481.43 4372.56 1474.95C4369.8 1492.4 4343.36 1503.72 4294.89 1503.6Z" fill="#FCFCFC" fill-opacity="0.33"/>
<path d="M4426.49 1632.28C4387.72 1632.18 4378.35 1656.85 4378.52 1669.2C4370.57 1656.18 4389.19 1627.73 4428.92 1628.88C4462.15 1629.85 4462.25 1626.06 4470.09 1625.13C4490.5 1622.73 4498.63 1610.11 4504.16 1603.63C4501.39 1621.08 4474.96 1632.4 4426.49 1632.28Z" fill="#FCFCFC" fill-opacity="0.33"/>
<path d="M3895.18 1612.86C3925.49 1566.39 3962.35 1574.54 3977 1584.43C3967.65 1564.69 3919.01 1564.67 3889.22 1613.1C3864.3 1653.62 3859.68 1650.77 3852.43 1659.42C3833.54 1681.96 3812.06 1681.78 3799.97 1683.32C3823.01 1693.7 3857.29 1670.95 3895.18 1612.86Z" fill="#FCFCFC" fill-opacity="0.33"/>
<path d="M3559.83 1472.78C3597.18 1434.29 3630.65 1448.84 3642.71 1460.92C3637.5 1440.47 3591.35 1431.46 3554.13 1471.91C3523 1505.75 3519.15 1502.19 3510.67 1509.06C3488.58 1526.96 3468.23 1522.81 3456.48 1522.03C3476.42 1536.15 3513.15 1520.9 3559.83 1472.78Z" fill="#FCFCFC" fill-opacity="0.33"/>
<path d="M4129.77 1540.81C4161.84 1507.75 4190.58 1520.25 4200.95 1530.63C4196.47 1513.06 4156.83 1505.32 4124.87 1540.06C4098.14 1569.12 4094.83 1566.07 4087.54 1571.97C4068.57 1587.34 4051.1 1583.78 4041.01 1583.11C4058.13 1595.23 4089.68 1582.13 4129.77 1540.81Z" fill="#FCFCFC" fill-opacity="0.33"/>
<path d="M4129.77 1540.81C4161.84 1507.75 4190.58 1520.25 4200.95 1530.63C4196.47 1513.06 4156.83 1505.32 4124.87 1540.06C4098.14 1569.12 4094.83 1566.07 4087.54 1571.97C4068.57 1587.34 4051.1 1583.78 4041.01 1583.11C4058.13 1595.23 4089.68 1582.13 4129.77 1540.81Z" fill="#FCFCFC" fill-opacity="0.33"/>
<path d="M4276.5 1667.01C4308.57 1633.95 4337.32 1646.44 4347.68 1656.82C4343.2 1639.26 4303.57 1631.52 4271.61 1666.26C4244.87 1695.32 4241.56 1692.26 4234.28 1698.16C4215.31 1713.53 4197.83 1709.97 4187.74 1709.3C4204.87 1721.42 4236.41 1708.33 4276.5 1667.01Z" fill="#FCFCFC" fill-opacity="0.33"/>
<path d="M3828.03 1456.12C3852.27 1427.8 3879.64 1433.98 3890.29 1440.61C3883.94 1427.95 3847.47 1426.54 3823.55 1456.1C3803.54 1480.83 3800.17 1478.9 3794.45 1484.13C3779.55 1497.74 3763.45 1497.01 3754.34 1497.63C3771.27 1504.81 3797.71 1491.51 3828.03 1456.12Z" fill="#FCFCFC" fill-opacity="0.33"/>
<path d="M4037.51 1390.28C4057.32 1365.55 4077.82 1372.24 4085.59 1378.67C4081.38 1366.93 4053.73 1364.22 4034.11 1390.09C4017.69 1411.73 4015.23 1409.86 4010.62 1414.37C3998.64 1426.14 3986.44 1424.84 3979.48 1425.04C3992 1432.22 4012.75 1421.2 4037.51 1390.28Z" fill="#FCFCFC" fill-opacity="0.33"/>
<ellipse cx="4.26175" cy="4.21846" rx="4.26175" ry="4.21846" transform="matrix(0.965971 0.262026 -0.246521 0.968211 1341.77 1681.59)" fill="#CED3A6"/>
<rect width="65.1098" height="28.7784" transform="matrix(0.936293 0.35804 -0.344319 0.936221 2585.84 1586.95)" fill="#CED3A6"/>
<rect width="48.2104" height="23.8986" transform="matrix(0.936293 0.35804 -0.344319 0.936221 2642.17 1612.22)" fill="#CED3A6"/>
<rect width="59.717" height="28.7784" transform="matrix(0.936293 0.35804 -0.344319 0.936221 2533.87 1557.15)" fill="#CED3A6"/>
<rect width="59.9646" height="28.7784" transform="matrix(0.936293 0.35804 -0.344319 0.936221 2482.92 1531.19)" fill="#CED3A6"/>
<rect width="59.9646" height="28.7784" transform="matrix(0.936293 0.35804 -0.344319 0.936221 2427.59 1505.48)" fill="#CED3A6"/>
<rect width="59.9646" height="28.7784" transform="matrix(0.936293 0.35804 -0.344319 0.936221 2375.62 1480.67)" fill="#CED3A6"/>
<rect width="7.66425" height="30.3456" transform="matrix(0.965971 0.262026 -0.246521 0.968211 2373.11 1478.56)" fill="#CED3A6"/>
<rect width="7.6643" height="37.2425" transform="matrix(0.965971 0.262026 -0.246521 0.968211 2425.42 1499.18)" fill="#CED3A6"/>
<rect width="7.6643" height="37.2425" transform="matrix(0.965971 0.262026 -0.246521 0.968211 2478.58 1519.31)" fill="#CED3A6"/>
<rect width="7.6643" height="37.2425" transform="matrix(0.965971 0.262026 -0.246521 0.968211 2533.23 1547.7)" fill="#CED3A6"/>
<rect width="7.66436" height="37.2429" transform="matrix(0.965971 0.262026 -0.246521 0.968211 2584 1577.17)" fill="#CED3A6"/>
<rect width="7.6643" height="30.3458" transform="matrix(0.965971 0.262026 -0.246521 0.968211 2639.16 1606.42)" fill="#CED3A6"/>
<rect width="7.6643" height="26.8974" transform="matrix(0.965971 0.262026 -0.246521 0.968211 2682.21 1626.66)" fill="#CED3A6"/>
<ellipse cx="3.83216" cy="3.79337" rx="3.83216" ry="3.79337" transform="matrix(0.965971 0.262026 -0.246521 0.968211 2426.95 1493.17)" fill="#CED3A6"/>
<ellipse cx="3.83215" cy="3.79322" rx="3.83215" ry="3.79322" transform="matrix(0.965971 0.262026 -0.246521 0.968211 2374.64 1472.55)" fill="#CED3A6"/>
<ellipse cx="3.83215" cy="3.79322" rx="3.83215" ry="3.79322" transform="matrix(0.965971 0.262026 -0.246521 0.968211 2640.69 1600.4)" fill="#CED3A6"/>
<ellipse cx="3.83215" cy="3.79322" rx="3.83215" ry="3.79322" transform="matrix(0.965971 0.262026 -0.246521 0.968211 2585.54 1571.17)" fill="#CED3A6"/>
<ellipse cx="3.83215" cy="3.79322" rx="3.83215" ry="3.79322" transform="matrix(0.965971 0.262026 -0.246521 0.968211 2534.76 1541.69)" fill="#CED3A6"/>
<ellipse cx="3.83215" cy="3.79322" rx="3.83215" ry="3.79322" transform="matrix(0.965971 0.262026 -0.246521 0.968211 2479.94 1513.97)" fill="#CED3A6"/>
<ellipse cx="3.83215" cy="3.79322" rx="3.83215" ry="3.79322" transform="matrix(0.965971 0.262026 -0.246521 0.968211 2683.92 1619.98)" fill="#CED3A6"/>
<path d="M3213.89 1420.85L3266.71 1442.76L3259.84 1465.75L3210.14 1447.5L3213.89 1420.85Z" fill="#CED3A6"/>
<rect width="38.8013" height="19.9833" transform="matrix(0.953503 0.311002 -0.285642 0.955428 3263.07 1444.64)" fill="#CED3A6"/>
<rect width="48.0621" height="24.0636" transform="matrix(0.953503 0.311002 -0.285642 0.955428 3173.75 1404.29)" fill="#CED3A6"/>
<rect width="48.2614" height="24.0636" transform="matrix(0.953503 0.311002 -0.285642 0.955428 3131.73 1385.27)" fill="#CED3A6"/>
<rect width="48.2614" height="24.0636" transform="matrix(0.953503 0.311002 -0.285642 0.955428 3086.19 1366.67)" fill="#CED3A6"/>
<rect width="48.2614" height="24.0636" transform="matrix(0.953503 0.311002 -0.285642 0.955428 3043.4 1348.66)" fill="#CED3A6"/>
<rect width="6.16595" height="25.3843" transform="matrix(0.978711 0.209651 -0.189967 0.980911 3041.29 1347.03)" fill="#CED3A6"/>
<rect width="6.16591" height="31.1538" transform="matrix(0.978711 0.209651 -0.189967 0.980911 3084.19 1361.53)" fill="#CED3A6"/>
<rect width="6.16595" height="31.1535" transform="matrix(0.978711 0.209651 -0.189967 0.980911 3127.75 1375.57)" fill="#CED3A6"/>
<rect width="6.16595" height="31.1535" transform="matrix(0.978711 0.209651 -0.189967 0.980911 3172.85 1396.43)" fill="#CED3A6"/>
<rect width="6.16595" height="31.1535" transform="matrix(0.978711 0.209651 -0.189967 0.980911 3214.88 1418.4)" fill="#CED3A6"/>
<rect width="6.16595" height="25.3843" transform="matrix(0.978711 0.209651 -0.189967 0.980911 3260.41 1439.94)" fill="#CED3A6"/>
<rect width="6.16595" height="22.4997" transform="matrix(0.978711 0.209651 -0.189967 0.980911 3295.85 1454.61)" fill="#CED3A6"/>
<ellipse cx="3.08291" cy="3.17289" rx="3.08291" ry="3.17289" transform="matrix(0.978711 0.209651 -0.189967 0.980911 3085.18 1356.43)" fill="#CED3A6"/>
<ellipse cx="3.083" cy="3.17289" rx="3.083" ry="3.17289" transform="matrix(0.978711 0.209651 -0.189967 0.980911 3042.27 1341.94)" fill="#CED3A6"/>
<ellipse cx="3.08297" cy="3.17304" rx="3.08297" ry="3.17304" transform="matrix(0.978711 0.209651 -0.189967 0.980911 3261.39 1434.85)" fill="#CED3A6"/>
<ellipse cx="3.08297" cy="3.17304" rx="3.08297" ry="3.17304" transform="matrix(0.978711 0.209651 -0.189967 0.980911 3215.86 1413.31)" fill="#CED3A6"/>
<ellipse cx="3.08297" cy="3.17304" rx="3.08297" ry="3.17304" transform="matrix(0.978711 0.209651 -0.189967 0.980911 3173.83 1391.34)" fill="#CED3A6"/>
<ellipse cx="3.08291" cy="3.17289" rx="3.08291" ry="3.17289" transform="matrix(0.978711 0.209651 -0.189967 0.980911 3128.62 1371.05)" fill="#CED3A6"/>
<ellipse cx="3.083" cy="3.17289" rx="3.083" ry="3.17289" transform="matrix(0.978711 0.209651 -0.189967 0.980911 3296.95 1448.95)" fill="#CED3A6"/>
<path d="M3603.84 1317.26L3638.91 1332.64L3634 1347.94L3600.97 1335.06L3603.84 1317.26Z" fill="#CED3A6"/>
<rect width="25.9832" height="13.3818" transform="matrix(0.947112 0.329953 -0.304636 0.949542 3636.44 1333.84)" fill="#CED3A6"/>
<rect width="32.1847" height="16.1142" transform="matrix(0.947112 0.329953 -0.304636 0.949542 3577.18 1305.64)" fill="#CED3A6"/>
<rect width="32.3182" height="16.1142" transform="matrix(0.947112 0.329953 -0.304636 0.949542 3549.3 1292.34)" fill="#CED3A6"/>
<rect width="32.3182" height="16.1142" transform="matrix(0.947112 0.329953 -0.304636 0.949542 3519.06 1279.28)" fill="#CED3A6"/>
<rect width="32.3182" height="16.1142" transform="matrix(0.947112 0.329953 -0.304636 0.949542 3490.65 1266.65)" fill="#CED3A6"/>
<rect width="4.12905" height="16.9982" transform="matrix(0.974336 0.229124 -0.209488 0.976928 3489.26 1265.53)" fill="#CED3A6"/>
<rect width="4.12902" height="20.8616" transform="matrix(0.974336 0.229124 -0.209488 0.976928 3517.79 1275.81)" fill="#CED3A6"/>
<rect width="4.12902" height="20.8619" transform="matrix(0.974336 0.229124 -0.209488 0.976928 3546.77 1285.8)" fill="#CED3A6"/>
<rect width="4.12902" height="20.8616" transform="matrix(0.974336 0.229124 -0.209488 0.976928 3576.68 1300.36)" fill="#CED3A6"/>
<rect width="4.12902" height="20.8616" transform="matrix(0.974336 0.229124 -0.209488 0.976928 3604.53 1315.63)" fill="#CED3A6"/>
<rect width="4.12902" height="16.9986" transform="matrix(0.974336 0.229124 -0.209488 0.976928 3634.73 1330.66)" fill="#CED3A6"/>
<rect width="4.12903" height="15.0672" transform="matrix(0.974336 0.229124 -0.209488 0.976928 3658.26 1340.96)" fill="#CED3A6"/>
<ellipse cx="2.06451" cy="2.12482" rx="2.06451" ry="2.12482" transform="matrix(0.974336 0.229124 -0.209488 0.976928 3518.52 1272.41)" fill="#CED3A6"/>
<ellipse cx="2.06451" cy="2.12482" rx="2.06451" ry="2.12482" transform="matrix(0.974336 0.229124 -0.209488 0.976928 3489.99 1262.14)" fill="#CED3A6"/>
<ellipse cx="2.06451" cy="2.12482" rx="2.06451" ry="2.12482" transform="matrix(0.974336 0.229124 -0.209488 0.976928 3635.45 1327.27)" fill="#CED3A6"/>
<ellipse cx="2.06451" cy="2.12482" rx="2.06451" ry="2.12482" transform="matrix(0.974336 0.229124 -0.209488 0.976928 3605.25 1312.23)" fill="#CED3A6"/>
<ellipse cx="2.06451" cy="2.12482" rx="2.06451" ry="2.12482" transform="matrix(0.974336 0.229124 -0.209488 0.976928 3577.41 1296.97)" fill="#CED3A6"/>
<ellipse cx="2.06451" cy="2.12482" rx="2.06451" ry="2.12482" transform="matrix(0.974336 0.229124 -0.209488 0.976928 3547.41 1282.78)" fill="#CED3A6"/>
<ellipse cx="2.06451" cy="2.12482" rx="2.06451" ry="2.12482" transform="matrix(0.974336 0.229124 -0.209488 0.976928 3659.07 1337.18)" fill="#CED3A6"/>
<path d="M3962.76 1251.02L3987.62 1261.52L3984.3 1272.34L3960.91 1263.59L3962.76 1251.02Z" fill="#CED3A6"/>
<rect width="18.3078" height="9.42881" transform="matrix(0.951552 0.31692 -0.291572 0.953634 3985.89 1262.39)" fill="#CED3A6"/>
<rect width="22.6771" height="11.3541" transform="matrix(0.951552 0.31692 -0.291572 0.953634 3943.87 1243.09)" fill="#CED3A6"/>
<rect width="22.7712" height="11.3538" transform="matrix(0.951552 0.31692 -0.291572 0.953634 3924.1 1233.99)" fill="#CED3A6"/>
<rect width="22.7714" height="11.354" transform="matrix(0.951552 0.31692 -0.291572 0.953634 3902.67 1225.08)" fill="#CED3A6"/>
<rect width="22.7714" height="11.354" transform="matrix(0.951552 0.31692 -0.291572 0.953634 3882.53 1216.47)" fill="#CED3A6"/>
<rect width="2.9093" height="11.9772" transform="matrix(0.97739 0.215727 -0.196057 0.979712 3881.54 1215.69)" fill="#CED3A6"/>
<rect width="2.9093" height="14.6993" transform="matrix(0.97739 0.215727 -0.196057 0.979712 3901.73 1222.65)" fill="#CED3A6"/>
<rect width="2.90929" height="14.6996" transform="matrix(0.97739 0.215727 -0.196057 0.979712 3922.25 1229.41)" fill="#CED3A6"/>
<rect width="2.9093" height="14.6993" transform="matrix(0.97739 0.215727 -0.196057 0.979712 3943.46 1239.38)" fill="#CED3A6"/>
<rect width="2.9093" height="14.6993" transform="matrix(0.97739 0.215727 -0.196057 0.979712 3963.23 1249.87)" fill="#CED3A6"/>
<rect width="2.9093" height="11.9772" transform="matrix(0.97739 0.215727 -0.196057 0.979712 3984.65 1260.17)" fill="#CED3A6"/>
<rect width="2.9093" height="10.6161" transform="matrix(0.97739 0.215727 -0.196057 0.979712 4001.33 1267.19)" fill="#CED3A6"/>
<ellipse cx="1.45465" cy="1.49715" rx="1.45465" ry="1.49715" transform="matrix(0.97739 0.215727 -0.196057 0.979712 3902.21 1220.25)" fill="#CED3A6"/>
<ellipse cx="1.45465" cy="1.49715" rx="1.45465" ry="1.49715" transform="matrix(0.97739 0.215727 -0.196057 0.979712 3882.02 1213.29)" fill="#CED3A6"/>
<ellipse cx="1.45465" cy="1.49715" rx="1.45465" ry="1.49715" transform="matrix(0.97739 0.215727 -0.196057 0.979712 3985.13 1257.77)" fill="#CED3A6"/>
<ellipse cx="1.45465" cy="1.49715" rx="1.45465" ry="1.49715" transform="matrix(0.97739 0.215727 -0.196057 0.979712 3963.71 1247.47)" fill="#CED3A6"/>
<ellipse cx="1.45462" cy="1.49701" rx="1.45462" ry="1.49701" transform="matrix(0.977393 0.215711 -0.196072 0.979709 3943.95 1236.98)" fill="#CED3A6"/>
<ellipse cx="1.45465" cy="1.49715" rx="1.45465" ry="1.49715" transform="matrix(0.97739 0.215727 -0.196057 0.979712 3922.68 1227.27)" fill="#CED3A6"/>
<ellipse cx="1.45465" cy="1.49715" rx="1.45465" ry="1.49715" transform="matrix(0.97739 0.215727 -0.196057 0.979712 4001.86 1264.52)" fill="#CED3A6"/>
<path d="M2251.81 1212.56C2251.94 1213.4 2252.07 1214.24 2252.21 1215.1C2251.44 1215.65 2250.67 1216.2 2249.87 1216.77C2250.29 1217.65 2250.7 1218.53 2251.13 1219.44C2252.35 1223.73 2251.67 1225.46 2249.99 1229.53C2249.33 1231.17 2249.33 1231.17 2248.65 1232.85C2248.29 1233.68 2247.94 1234.5 2247.57 1235.35C2248.35 1234.62 2249.13 1233.89 2249.94 1233.13C2262.79 1221.34 2273.82 1216.82 2291.12 1215.51C2295.73 1216.11 2295.73 1216.11 2299.1 1216.86C2299.23 1217.7 2299.36 1218.54 2299.5 1219.4C2296.99 1219.79 2294.49 1220.19 2291.91 1220.59C2292.04 1221.43 2292.17 1222.27 2292.31 1223.13C2291.16 1223.69 2290.02 1224.24 2288.84 1224.81C2285 1226.58 2285 1226.58 2282.98 1229.8C2279.59 1229.85 2279.59 1229.85 2276.46 1229.52C2277.38 1231.31 2277.38 1231.31 2278.31 1233.14C2277.06 1233.33 2275.81 1233.53 2274.52 1233.73C2274.38 1236.97 2274.38 1236.97 2274.24 1240.28C2273.41 1240.41 2272.57 1240.55 2271.71 1240.68C2271.84 1241.52 2271.97 1242.36 2272.11 1243.22C2270.33 1244.15 2270.33 1244.15 2268.51 1245.09C2267.98 1247.79 2267.98 1247.79 2268.03 1250.37C2269.18 1250.29 2270.33 1250.2 2271.51 1250.12C2286.71 1249.41 2296.83 1252.38 2308.39 1262.35C2310.45 1264.63 2311.44 1266.54 2312.44 1269.44C2311.4 1268.96 2310.36 1268.47 2309.3 1267.98C2305.38 1266.22 2305.38 1266.22 2300.47 1267.41C2295.81 1266.8 2291.46 1265.88 2287.03 1264.31C2286.6 1265.67 2286.6 1265.67 2286.16 1267.05C2284.01 1266.96 2281.86 1266.87 2279.64 1266.77C2279.42 1268.09 2279.2 1269.42 2278.97 1270.78C2277.11 1269.79 2275.24 1268.79 2273.32 1267.76C2273.1 1269.09 2272.88 1270.41 2272.65 1271.77C2270.37 1270.84 2268.09 1269.91 2265.74 1268.95C2266.76 1269.68 2267.78 1270.4 2268.83 1271.15C2279.94 1279.38 2287.15 1286.7 2290.4 1300.64C2290.9 1306.36 2289.97 1310.57 2288.59 1316.13C2287.9 1314.99 2287.9 1314.99 2287.18 1313.83C2285.35 1311 2285.35 1311 2281.29 1310.77C2280.01 1308.29 2280.01 1308.29 2279.23 1305.89C2278.4 1306.02 2277.56 1306.15 2276.71 1306.28C2275.9 1303.83 2275.09 1301.38 2274.26 1298.86C2273.42 1298.99 2272.59 1299.12 2271.73 1299.25C2271.6 1298.41 2271.47 1297.58 2271.34 1296.71C2270.5 1296.84 2269.67 1296.97 2268.81 1297.11C2267.4 1292.17 2267.4 1292.17 2265.97 1287.14C2264.19 1288.06 2264.19 1288.06 2262.37 1289.01C2261.9 1288.06 2261.43 1287.11 2260.95 1286.14C2258.54 1282.59 2257.39 1282.35 2253.4 1281.3C2255.7 1290.71 2258.53 1299.87 2261.51 1309.07C2270.9 1338.43 2277.31 1368.14 2282.11 1398.59C2282.37 1400.2 2282.63 1401.81 2282.89 1403.46C2283.12 1404.97 2283.35 1406.48 2283.59 1408.04C2283.8 1409.39 2284 1410.74 2284.22 1412.12C2284.55 1415.24 2284.56 1417.88 2284.13 1420.97C2281.62 1421.36 2279.12 1421.75 2276.54 1422.16C2276.39 1421.11 2276.39 1421.11 2276.23 1420.04C2269.32 1373.1 2260.33 1327.83 2247.08 1282.29C2242.52 1283.7 2241.25 1284.1 2238.54 1288.27C2237.99 1289.4 2237.45 1290.54 2236.88 1291.7C2235.92 1290.99 2234.96 1290.29 2233.96 1289.56C2233.93 1292.14 2233.91 1294.72 2233.88 1297.38C2232.56 1297.16 2231.25 1296.93 2229.89 1296.7C2229.82 1298.14 2229.75 1299.57 2229.67 1301.05C2228.6 1306.72 2227.47 1307.54 2223.01 1310.8C2222.68 1312.79 2222.68 1312.79 2222.34 1314.81C2221.5 1314.94 2220.67 1315.07 2219.81 1315.21C2219.58 1316.53 2219.36 1317.86 2219.13 1319.22C2218.3 1319.35 2217.46 1319.48 2216.6 1319.62C2212.43 1299.44 2217.15 1290.28 2227.61 1273.63C2226.49 1274.13 2226.49 1274.13 2225.35 1274.65C2224.37 1275.07 2223.39 1275.49 2222.38 1275.92C2221.4 1276.34 2220.43 1276.77 2219.43 1277.2C2216.62 1277.96 2216.62 1277.96 2212.43 1276.01C2211.67 1276.8 2210.92 1277.59 2210.13 1278.41C2205.74 1281.49 2202.92 1280.87 2197.65 1280.93C2194.26 1283.16 2194.26 1283.16 2191.92 1285.74C2191.66 1284.06 2191.4 1282.38 2191.14 1280.66C2188.89 1282.73 2186.65 1284.8 2184.34 1286.93C2183.42 1285.14 2183.42 1285.14 2182.48 1283.31C2181.83 1284.09 2181.17 1284.86 2180.5 1285.66C2179.68 1286.41 2178.86 1287.15 2178.02 1287.92C2176.7 1287.7 2175.38 1287.47 2174.02 1287.24C2179.94 1275.08 2185.98 1267.62 2198.69 1262.55C2202.84 1261.61 2207.01 1260.99 2211.23 1260.42C2212.34 1260.26 2213.44 1260.09 2214.59 1259.93C2217.29 1259.53 2220 1259.16 2222.71 1258.78C2217.75 1255.06 2212.75 1251.78 2207.37 1248.73C2205.37 1247.18 2205.37 1247.18 2204.78 1243.37C2203.05 1243.21 2201.31 1243.05 2199.53 1242.89C2199.4 1242.05 2199.27 1241.21 2199.13 1240.35C2198.13 1240.4 2197.12 1240.45 2196.08 1240.5C2192.61 1240.07 2192.61 1240.07 2190.73 1237.85C2190.26 1237.03 2189.78 1236.22 2189.3 1235.39C2188.33 1234.68 2187.37 1233.97 2186.37 1233.24C2200.6 1230.08 2212.13 1230.9 2225 1238.04C2228.13 1240.21 2230.83 1242.72 2233.58 1245.36C2233.68 1244.24 2233.78 1243.13 2233.87 1241.98C2235.07 1231.16 2237 1221.77 2245.68 1214.56C2248.02 1213.16 2248.02 1213.16 2251.81 1212.56Z" fill="url(#paint2_linear_255_31830)"/>
<path d="M4101.08 1043.02C4101.13 1043.34 4101.18 1043.66 4101.23 1044C4100.93 1044.21 4100.64 1044.42 4100.33 1044.63C4100.49 1044.97 4100.65 1045.31 4100.82 1045.65C4101.29 1047.3 4101.03 1047.96 4100.38 1049.52C4100.12 1050.15 4100.12 1050.15 4099.86 1050.79C4099.72 1051.11 4099.59 1051.43 4099.45 1051.75C4099.75 1051.47 4100.05 1051.19 4100.36 1050.9C4105.31 1046.38 4109.56 1044.65 4116.22 1044.15C4118 1044.38 4118 1044.38 4119.3 1044.67C4119.35 1044.99 4119.4 1045.31 4119.45 1045.64C4118.49 1045.79 4117.52 1045.94 4116.53 1046.1C4116.58 1046.42 4116.63 1046.74 4116.68 1047.07C4116.24 1047.28 4115.8 1047.5 4115.35 1047.71C4113.87 1048.39 4113.87 1048.39 4113.09 1049.62C4111.78 1049.64 4111.78 1049.64 4110.57 1049.52C4110.93 1050.2 4110.93 1050.2 4111.29 1050.9C4110.81 1050.98 4110.33 1051.05 4109.83 1051.13C4109.78 1052.37 4109.78 1052.37 4109.72 1053.64C4109.4 1053.69 4109.08 1053.74 4108.75 1053.79C4108.8 1054.11 4108.85 1054.43 4108.9 1054.76C4108.21 1055.12 4108.21 1055.12 4107.51 1055.48C4107.31 1056.52 4107.31 1056.52 4107.33 1057.5C4107.77 1057.47 4108.21 1057.44 4108.67 1057.41C4114.53 1057.13 4118.42 1058.27 4122.88 1062.09C4123.67 1062.96 4124.05 1063.7 4124.44 1064.81C4124.04 1064.62 4123.64 1064.44 4123.23 1064.25C4121.72 1063.57 4121.72 1063.57 4119.82 1064.03C4118.03 1063.8 4116.36 1063.44 4114.65 1062.84C4114.48 1063.36 4114.48 1063.36 4114.31 1063.89C4113.48 1063.86 4112.66 1063.82 4111.8 1063.78C4111.72 1064.29 4111.63 1064.8 4111.54 1065.32C4110.82 1064.94 4110.11 1064.56 4109.37 1064.16C4109.28 1064.67 4109.2 1065.18 4109.11 1065.7C4108.23 1065.34 4107.35 1064.99 4106.44 1064.62C4106.84 1064.9 4107.23 1065.18 4107.64 1065.46C4111.91 1068.61 4114.7 1071.42 4115.95 1076.76C4116.14 1078.95 4115.78 1080.56 4115.25 1082.69C4114.98 1082.25 4114.98 1082.25 4114.71 1081.81C4114 1080.73 4114 1080.73 4112.43 1080.64C4111.94 1079.69 4111.94 1079.69 4111.64 1078.77C4111.32 1078.82 4111 1078.87 4110.67 1078.92C4110.36 1077.98 4110.05 1077.04 4109.73 1076.07C4109.41 1076.12 4109.08 1076.17 4108.75 1076.23C4108.7 1075.9 4108.65 1075.58 4108.6 1075.25C4108.28 1075.3 4107.96 1075.35 4107.63 1075.4C4107.09 1073.51 4107.09 1073.51 4106.53 1071.59C4105.85 1071.94 4105.85 1071.94 4105.15 1072.3C4104.97 1071.94 4104.79 1071.58 4104.6 1071.2C4103.67 1069.84 4103.23 1069.75 4101.69 1069.35C4102.58 1072.95 4103.67 1076.46 4104.82 1079.99C4108.43 1091.23 4110.9 1102.61 4112.75 1114.27C4112.85 1114.89 4112.95 1115.51 4113.05 1116.14C4113.14 1116.72 4113.23 1117.3 4113.32 1117.89C4113.4 1118.41 4113.48 1118.93 4113.56 1119.46C4113.69 1120.65 4113.69 1121.66 4113.53 1122.85C4112.56 1123 4111.6 1123.15 4110.61 1123.3C4110.55 1122.9 4110.55 1122.9 4110.49 1122.49C4107.82 1104.51 4104.36 1087.17 4099.26 1069.73C4097.5 1070.27 4097.01 1070.42 4095.97 1072.02C4095.76 1072.45 4095.55 1072.89 4095.33 1073.33C4094.96 1073.06 4094.59 1072.79 4094.2 1072.51C4094.19 1073.5 4094.18 1074.49 4094.17 1075.51C4093.66 1075.42 4093.16 1075.34 4092.63 1075.25C4092.61 1075.8 4092.58 1076.35 4092.55 1076.91C4092.14 1079.09 4091.7 1079.4 4089.98 1080.65C4089.85 1081.41 4089.85 1081.41 4089.72 1082.19C4089.4 1082.24 4089.08 1082.29 4088.75 1082.34C4088.66 1082.84 4088.58 1083.35 4088.49 1083.87C4088.17 1083.92 4087.85 1083.97 4087.52 1084.03C4085.91 1076.3 4087.72 1072.79 4091.75 1066.41C4091.32 1066.61 4091.32 1066.61 4090.89 1066.8C4090.51 1066.96 4090.13 1067.12 4089.74 1067.29C4089.37 1067.45 4088.99 1067.61 4088.61 1067.78C4087.52 1068.07 4087.52 1068.07 4085.91 1067.32C4085.62 1067.63 4085.32 1067.93 4085.02 1068.24C4083.33 1069.42 4082.24 1069.18 4080.22 1069.21C4078.91 1070.06 4078.91 1070.06 4078.01 1071.05C4077.91 1070.41 4077.81 1069.76 4077.7 1069.1C4076.84 1069.9 4075.98 1070.69 4075.09 1071.51C4074.73 1070.82 4074.73 1070.82 4074.37 1070.12C4074.12 1070.42 4073.87 1070.71 4073.61 1071.02C4073.29 1071.31 4072.97 1071.59 4072.65 1071.89C4072.14 1071.8 4071.64 1071.71 4071.11 1071.63C4073.39 1066.97 4075.72 1064.11 4080.61 1062.17C4082.21 1061.81 4083.82 1061.57 4085.45 1061.35C4085.87 1061.29 4086.3 1061.23 4086.74 1061.16C4087.78 1061.01 4088.83 1060.87 4089.87 1060.72C4087.96 1059.3 4086.03 1058.04 4083.96 1056.87C4083.19 1056.28 4083.19 1056.28 4082.96 1054.82C4082.29 1054.76 4081.63 1054.7 4080.94 1054.64C4080.89 1054.32 4080.84 1054 4080.79 1053.67C4080.4 1053.68 4080.01 1053.7 4079.61 1053.72C4078.27 1053.56 4078.27 1053.56 4077.55 1052.71C4077.37 1052.39 4077.18 1052.08 4077 1051.76C4076.62 1051.49 4076.25 1051.22 4075.87 1050.94C4081.35 1049.73 4085.79 1050.04 4090.75 1052.78C4091.96 1053.61 4092.99 1054.57 4094.06 1055.58C4094.09 1055.16 4094.13 1054.73 4094.17 1054.29C4094.63 1050.15 4095.37 1046.55 4098.72 1043.79C4099.62 1043.25 4099.62 1043.25 4101.08 1043.02Z" fill="url(#paint3_linear_255_31830)"/>
<path d="M4252.68 1039.66C4252.72 1039.9 4252.76 1040.14 4252.79 1040.39C4252.57 1040.55 4252.35 1040.71 4252.12 1040.87C4252.24 1041.12 4252.36 1041.38 4252.48 1041.64C4252.84 1042.87 4252.64 1043.37 4252.15 1044.54C4251.96 1045.01 4251.96 1045.01 4251.76 1045.5C4251.66 1045.74 4251.56 1045.97 4251.45 1046.22C4251.68 1046.01 4251.91 1045.8 4252.14 1045.58C4255.86 1042.18 4259.05 1040.88 4264.06 1040.5C4265.4 1040.68 4265.4 1040.68 4266.37 1040.89C4266.41 1041.14 4266.45 1041.38 4266.49 1041.63C4265.76 1041.74 4265.04 1041.85 4264.29 1041.97C4264.33 1042.21 4264.37 1042.45 4264.4 1042.7C4264.07 1042.86 4263.74 1043.02 4263.4 1043.18C4262.29 1043.69 4262.29 1043.69 4261.7 1044.62C4260.72 1044.63 4260.72 1044.63 4259.82 1044.54C4260.08 1045.05 4260.08 1045.05 4260.35 1045.58C4259.99 1045.64 4259.63 1045.69 4259.26 1045.75C4259.22 1046.68 4259.22 1046.68 4259.17 1047.64C4258.93 1047.67 4258.69 1047.71 4258.44 1047.75C4258.48 1047.99 4258.52 1048.23 4258.56 1048.48C4258.04 1048.75 4258.04 1048.75 4257.52 1049.02C4257.36 1049.8 4257.36 1049.8 4257.38 1050.54C4257.71 1050.52 4258.04 1050.49 4258.38 1050.47C4262.79 1050.26 4265.71 1051.12 4269.06 1053.99C4269.66 1054.64 4269.94 1055.2 4270.23 1056.03C4269.93 1055.89 4269.63 1055.75 4269.32 1055.61C4268.19 1055.1 4268.19 1055.1 4266.77 1055.44C4265.42 1055.27 4264.16 1055 4262.88 1054.55C4262.75 1054.94 4262.75 1054.94 4262.63 1055.34C4262 1055.31 4261.38 1055.29 4260.74 1055.26C4260.67 1055.64 4260.61 1056.02 4260.54 1056.42C4260 1056.13 4259.46 1055.84 4258.91 1055.55C4258.84 1055.93 4258.78 1056.31 4258.71 1056.7C4258.05 1056.43 4257.39 1056.16 4256.71 1055.89C4257.01 1056.1 4257.3 1056.31 4257.61 1056.52C4260.82 1058.89 4262.91 1061 4263.85 1065.01C4264 1066.66 4263.73 1067.87 4263.33 1069.47C4263.13 1069.14 4263.13 1069.14 4262.92 1068.81C4262.39 1067.99 4262.39 1067.99 4261.21 1067.93C4260.84 1067.21 4260.84 1067.21 4260.62 1066.52C4260.38 1066.56 4260.14 1066.6 4259.89 1066.63C4259.65 1065.93 4259.42 1065.22 4259.18 1064.5C4258.94 1064.53 4258.7 1064.57 4258.45 1064.61C4258.41 1064.37 4258.37 1064.13 4258.33 1063.88C4258.09 1063.92 4257.85 1063.95 4257.6 1063.99C4257.19 1062.57 4257.19 1062.57 4256.78 1061.12C4256.26 1061.39 4256.26 1061.39 4255.74 1061.66C4255.6 1061.39 4255.47 1061.12 4255.33 1060.84C4254.63 1059.81 4254.3 1059.74 4253.14 1059.44C4253.81 1062.15 4254.62 1064.79 4255.49 1067.44C4258.21 1075.89 4260.06 1084.44 4261.45 1093.2C4261.53 1093.67 4261.6 1094.13 4261.68 1094.61C4261.74 1095.04 4261.81 1095.48 4261.88 1095.92C4261.94 1096.31 4262 1096.7 4262.06 1097.1C4262.16 1098 4262.16 1098.76 4262.04 1099.64C4261.31 1099.76 4260.59 1099.87 4259.84 1099.99C4259.8 1099.69 4259.8 1099.69 4259.75 1099.38C4257.75 1085.87 4255.15 1072.84 4251.31 1059.73C4249.99 1060.13 4249.62 1060.25 4248.84 1061.45C4248.68 1061.78 4248.52 1062.1 4248.36 1062.44C4248.08 1062.23 4247.8 1062.03 4247.51 1061.82C4247.5 1062.56 4247.5 1063.31 4247.49 1064.07C4247.11 1064.01 4246.73 1063.94 4246.33 1063.88C4246.31 1064.29 4246.29 1064.7 4246.27 1065.13C4245.96 1066.76 4245.63 1067 4244.34 1067.93C4244.25 1068.51 4244.25 1068.51 4244.15 1069.09C4243.91 1069.13 4243.66 1069.16 4243.41 1069.2C4243.35 1069.58 4243.29 1069.97 4243.22 1070.36C4242.98 1070.4 4242.74 1070.43 4242.49 1070.47C4241.28 1064.67 4242.64 1062.03 4245.67 1057.24C4245.35 1057.38 4245.35 1057.38 4245.02 1057.53C4244.74 1057.65 4244.45 1057.77 4244.16 1057.89C4243.88 1058.02 4243.6 1058.14 4243.31 1058.26C4242.49 1058.48 4242.49 1058.48 4241.28 1057.92C4241.06 1058.15 4240.84 1058.38 4240.61 1058.61C4239.34 1059.5 4238.52 1059.32 4237 1059.34C4236.02 1059.98 4236.02 1059.98 4235.34 1060.72C4235.27 1060.24 4235.19 1059.75 4235.11 1059.26C4234.46 1059.85 4233.81 1060.45 4233.15 1061.06C4232.88 1060.55 4232.88 1060.55 4232.61 1060.02C4232.42 1060.25 4232.23 1060.47 4232.03 1060.7C4231.8 1060.91 4231.56 1061.13 4231.32 1061.35C4230.93 1061.28 4230.55 1061.22 4230.16 1061.15C4231.87 1057.65 4233.62 1055.51 4237.3 1054.05C4238.5 1053.77 4239.71 1053.6 4240.93 1053.43C4241.25 1053.39 4241.57 1053.34 4241.9 1053.29C4242.69 1053.18 4243.47 1053.07 4244.26 1052.96C4242.82 1051.89 4241.37 1050.95 4239.81 1050.07C4239.24 1049.62 4239.24 1049.62 4239.06 1048.52C4238.56 1048.48 4238.06 1048.43 4237.54 1048.39C4237.51 1048.15 4237.47 1047.9 4237.43 1047.66C4237.14 1047.67 4236.85 1047.69 4236.55 1047.7C4235.54 1047.58 4235.54 1047.58 4235 1046.93C4234.86 1046.7 4234.72 1046.47 4234.58 1046.23C4234.3 1046.02 4234.02 1045.82 4233.74 1045.61C4237.86 1044.7 4241.19 1044.93 4244.92 1046.99C4245.83 1047.62 4246.6 1048.34 4247.4 1049.1C4247.43 1048.78 4247.46 1048.46 4247.49 1048.12C4247.83 1045.01 4248.39 1042.31 4250.91 1040.23C4251.58 1039.83 4251.58 1039.83 4252.68 1039.66Z" fill="url(#paint4_linear_255_31830)"/>
<path d="M3766.09 1073.49C3766.17 1073.94 3766.24 1074.4 3766.31 1074.86C3765.89 1075.16 3765.48 1075.45 3765.05 1075.76C3765.27 1076.23 3765.5 1076.7 3765.73 1077.19C3766.39 1079.5 3766.02 1080.43 3765.11 1082.62C3764.75 1083.51 3764.75 1083.51 3764.38 1084.41C3764.19 1084.86 3764 1085.3 3763.8 1085.76C3764.22 1085.36 3764.65 1084.97 3765.08 1084.56C3772.03 1078.22 3778.01 1075.78 3787.37 1075.08C3789.87 1075.4 3789.87 1075.4 3791.69 1075.81C3791.76 1076.26 3791.83 1076.71 3791.9 1077.17C3790.55 1077.38 3789.19 1077.6 3787.8 1077.81C3787.87 1078.26 3787.94 1078.72 3788.01 1079.18C3787.39 1079.48 3786.77 1079.78 3786.14 1080.09C3784.06 1081.04 3784.06 1081.04 3782.96 1082.77C3781.13 1082.79 3781.13 1082.79 3779.43 1082.62C3779.93 1083.58 3779.93 1083.58 3780.44 1084.56C3779.76 1084.67 3779.08 1084.77 3778.39 1084.88C3778.31 1086.63 3778.31 1086.63 3778.23 1088.41C3777.78 1088.48 3777.33 1088.55 3776.87 1088.62C3776.94 1089.07 3777.01 1089.53 3777.08 1089.99C3776.12 1090.49 3776.12 1090.49 3775.13 1090.99C3774.85 1092.45 3774.85 1092.45 3774.87 1093.84C3775.49 1093.79 3776.12 1093.75 3776.75 1093.7C3784.98 1093.32 3790.46 1094.92 3796.71 1100.28C3797.83 1101.51 3798.37 1102.54 3798.9 1104.1C3798.34 1103.84 3797.78 1103.58 3797.21 1103.31C3795.09 1102.37 3795.09 1102.37 3792.43 1103C3789.91 1102.68 3787.55 1102.18 3785.16 1101.34C3784.92 1102.07 3784.92 1102.07 3784.69 1102.81C3783.52 1102.76 3782.36 1102.71 3781.16 1102.66C3781.04 1103.37 3780.92 1104.09 3780.79 1104.82C3779.78 1104.28 3778.78 1103.75 3777.74 1103.19C3777.62 1103.91 3777.5 1104.62 3777.37 1105.35C3776.14 1104.85 3774.9 1104.35 3773.63 1103.84C3774.18 1104.23 3774.74 1104.62 3775.3 1105.02C3781.32 1109.44 3785.22 1113.39 3786.98 1120.88C3787.25 1123.96 3786.75 1126.23 3786 1129.22C3785.62 1128.61 3785.62 1128.61 3785.24 1127.98C3784.25 1126.46 3784.25 1126.46 3782.05 1126.34C3781.36 1125 3781.36 1125 3780.94 1123.71C3780.48 1123.78 3780.03 1123.85 3779.57 1123.92C3779.13 1122.6 3778.69 1121.28 3778.24 1119.92C3777.79 1120 3777.34 1120.07 3776.87 1120.14C3776.8 1119.69 3776.73 1119.24 3776.66 1118.77C3776.21 1118.84 3775.76 1118.91 3775.29 1118.98C3774.53 1116.33 3774.53 1116.33 3773.76 1113.62C3772.79 1114.12 3772.79 1114.12 3771.81 1114.62C3771.56 1114.12 3771.3 1113.61 3771.04 1113.08C3769.74 1111.17 3769.11 1111.04 3766.96 1110.48C3768.2 1115.54 3769.73 1120.47 3771.35 1125.42C3776.42 1141.22 3779.9 1157.21 3782.49 1173.59C3782.63 1174.45 3782.77 1175.32 3782.91 1176.21C3783.04 1177.02 3783.16 1177.84 3783.29 1178.67C3783.41 1179.4 3783.52 1180.12 3783.63 1180.87C3783.82 1182.54 3783.82 1183.97 3783.58 1185.63C3782.23 1185.84 3780.87 1186.05 3779.48 1186.27C3779.39 1185.7 3779.39 1185.7 3779.31 1185.13C3775.57 1159.87 3770.71 1135.52 3763.54 1111.01C3761.07 1111.77 3760.38 1111.98 3758.91 1114.23C3758.62 1114.84 3758.32 1115.45 3758.02 1116.08C3757.49 1115.69 3756.97 1115.31 3756.43 1114.92C3756.42 1116.31 3756.41 1117.7 3756.39 1119.13C3755.68 1119.01 3754.96 1118.89 3754.23 1118.77C3754.19 1119.54 3754.15 1120.31 3754.11 1121.11C3753.53 1124.15 3752.92 1124.6 3750.51 1126.35C3750.33 1127.42 3750.33 1127.42 3750.14 1128.51C3749.69 1128.58 3749.24 1128.65 3748.77 1128.72C3748.65 1129.44 3748.53 1130.15 3748.41 1130.88C3747.96 1130.95 3747.51 1131.02 3747.04 1131.09C3744.78 1120.24 3747.33 1115.31 3753 1106.35C3752.39 1106.62 3752.39 1106.62 3751.77 1106.9C3751.24 1107.12 3750.71 1107.35 3750.16 1107.58C3749.64 1107.81 3749.11 1108.04 3748.57 1108.27C3747.05 1108.68 3747.05 1108.68 3744.78 1107.63C3744.37 1108.06 3743.96 1108.48 3743.54 1108.92C3741.16 1110.58 3739.63 1110.25 3736.79 1110.28C3734.95 1111.48 3734.95 1111.48 3733.68 1112.87C3733.54 1111.96 3733.4 1111.06 3733.26 1110.13C3732.04 1111.25 3730.83 1112.36 3729.58 1113.51C3729.08 1112.54 3729.08 1112.54 3728.57 1111.56C3728.22 1111.98 3727.87 1112.4 3727.5 1112.82C3727.06 1113.23 3726.61 1113.63 3726.16 1114.04C3725.44 1113.92 3724.73 1113.8 3724 1113.68C3727.2 1107.13 3730.47 1103.12 3737.35 1100.39C3739.59 1099.88 3741.85 1099.55 3744.13 1099.24C3744.73 1099.16 3745.33 1099.07 3745.95 1098.98C3747.41 1098.77 3748.88 1098.56 3750.35 1098.36C3747.66 1096.36 3744.96 1094.6 3742.04 1092.95C3740.96 1092.12 3740.96 1092.12 3740.64 1090.07C3739.7 1089.99 3738.77 1089.9 3737.8 1089.81C3737.73 1089.36 3737.66 1088.91 3737.59 1088.45C3737.04 1088.47 3736.5 1088.5 3735.93 1088.53C3734.06 1088.3 3734.06 1088.3 3733.04 1087.1C3732.78 1086.66 3732.53 1086.22 3732.26 1085.77C3731.74 1085.39 3731.22 1085.01 3730.68 1084.62C3738.38 1082.92 3744.62 1083.36 3751.58 1087.2C3753.28 1088.37 3754.74 1089.72 3756.23 1091.14C3756.28 1090.54 3756.33 1089.94 3756.39 1089.32C3757.03 1083.5 3758.08 1078.45 3762.78 1074.57C3764.04 1073.81 3764.04 1073.81 3766.09 1073.49Z" fill="url(#paint5_linear_255_31830)"/>
<path d="M2954.96 1146.04C2954.96 1146.68 2954.96 1147.32 2954.96 1147.98C2954.32 1148.3 2953.68 1148.62 2953.01 1148.95C2953.22 1149.65 2953.43 1150.36 2953.65 1151.08C2954.06 1154.42 2953.36 1155.63 2951.62 1158.47C2950.92 1159.62 2950.92 1159.62 2950.22 1160.79C2949.86 1161.36 2949.5 1161.94 2949.12 1162.53C2949.79 1162.07 2950.46 1161.61 2951.16 1161.14C2962.18 1153.86 2971 1151.78 2984.15 1152.83C2987.54 1153.82 2987.54 1153.82 2989.99 1154.77C2989.99 1155.41 2989.99 1156.05 2989.99 1156.71C2988.06 1156.71 2986.13 1156.71 2984.15 1156.71C2984.15 1157.35 2984.15 1157.99 2984.15 1158.65C2983.23 1158.93 2982.3 1159.21 2981.35 1159.5C2978.26 1160.36 2978.26 1160.36 2976.37 1162.53C2973.81 1162.16 2973.81 1162.16 2971.5 1161.56C2971.98 1163 2971.98 1163 2972.47 1164.47C2971.51 1164.47 2970.55 1164.47 2969.55 1164.47C2969.07 1166.87 2969.07 1166.87 2968.58 1169.32C2967.94 1169.32 2967.3 1169.32 2966.64 1169.32C2966.64 1169.96 2966.64 1170.6 2966.64 1171.26C2965.19 1171.74 2965.19 1171.74 2963.72 1172.23C2963 1174.18 2963 1174.18 2962.74 1176.11C2963.61 1176.18 2964.48 1176.25 2965.38 1176.33C2976.89 1177.57 2984.14 1180.97 2991.66 1189.76C2992.95 1191.69 2993.47 1193.24 2993.88 1195.51C2993.16 1195.03 2992.43 1194.55 2991.69 1194.05C2988.95 1192.29 2988.95 1192.29 2985.12 1192.6C2981.69 1191.6 2978.54 1190.41 2975.39 1188.72C2974.91 1189.68 2974.91 1189.68 2974.42 1190.66C2972.81 1190.34 2971.21 1190.02 2969.55 1189.69C2969.23 1190.65 2968.91 1191.61 2968.58 1192.6C2967.3 1191.64 2966.01 1190.68 2964.69 1189.69C2964.37 1190.65 2964.05 1191.61 2963.72 1192.6C2962.11 1191.64 2960.51 1190.68 2958.85 1189.69C2959.53 1190.35 2960.22 1191.01 2960.92 1191.69C2968.31 1199.11 2972.88 1205.42 2973.69 1216.18C2973.4 1220.51 2972.21 1223.54 2970.53 1227.52C2970.14 1226.59 2970.14 1226.59 2969.74 1225.64C2968.69 1223.32 2968.69 1223.32 2965.66 1222.67C2964.99 1220.67 2964.99 1220.67 2964.69 1218.79C2964.05 1218.79 2963.41 1218.79 2962.74 1218.79C2962.42 1216.87 2962.1 1214.95 2961.77 1212.97C2961.13 1212.97 2960.49 1212.97 2959.82 1212.97C2959.82 1212.33 2959.82 1211.69 2959.82 1211.03C2959.18 1211.03 2958.54 1211.03 2957.88 1211.03C2957.4 1207.19 2957.4 1207.19 2956.91 1203.27C2955.46 1203.75 2955.46 1203.75 2953.99 1204.24C2953.75 1203.48 2953.51 1202.72 2953.26 1201.93C2951.86 1199.01 2951.02 1198.69 2948.15 1197.45C2948.78 1204.72 2949.83 1211.89 2951.01 1219.09C2954.63 1242.07 2955.99 1264.96 2956.05 1288.2C2956.06 1289.43 2956.06 1290.66 2956.07 1291.93C2956.07 1293.08 2956.06 1294.24 2956.06 1295.42C2956.06 1296.45 2956.06 1297.48 2956.06 1298.54C2955.95 1300.9 2955.64 1302.87 2954.96 1305.12C2953.03 1305.12 2951.11 1305.12 2949.12 1305.12C2949.13 1304.32 2949.13 1304.32 2949.14 1303.5C2949.41 1267.72 2947.93 1232.93 2943.28 1197.45C2939.69 1197.96 2938.7 1198.11 2936.17 1200.9C2935.63 1201.68 2935.09 1202.46 2934.53 1203.27C2933.89 1202.63 2933.24 1201.99 2932.58 1201.33C2932.26 1203.25 2931.94 1205.17 2931.61 1207.15C2930.65 1206.83 2929.68 1206.51 2928.69 1206.18C2928.47 1207.24 2928.25 1208.3 2928.02 1209.39C2926.56 1213.49 2925.61 1213.97 2921.88 1215.88C2921.4 1217.32 2921.4 1217.32 2920.91 1218.79C2920.26 1218.79 2919.62 1218.79 2918.96 1218.79C2918.64 1219.75 2918.32 1220.71 2917.99 1221.7C2917.34 1221.7 2916.7 1221.7 2916.04 1221.7C2915.25 1206.18 2919.86 1199.9 2929.66 1188.72C2928.77 1188.96 2928.77 1188.96 2927.85 1189.21C2927.06 1189.41 2926.28 1189.61 2925.47 1189.81C2924.69 1190.01 2923.91 1190.21 2923.11 1190.42C2920.91 1190.66 2920.91 1190.66 2917.99 1188.72C2917.32 1189.22 2916.66 1189.72 2915.98 1190.23C2912.32 1192.02 2910.27 1191.22 2906.31 1190.66C2903.5 1191.92 2903.5 1191.92 2901.45 1193.57C2901.45 1192.29 2901.45 1191.01 2901.45 1189.69C2899.52 1190.97 2897.59 1192.25 2895.61 1193.57C2895.13 1192.13 2895.13 1192.13 2894.64 1190.66C2894.05 1191.16 2893.47 1191.66 2892.87 1192.17C2892.17 1192.63 2891.47 1193.09 2890.74 1193.57C2889.78 1193.25 2888.82 1192.93 2887.82 1192.6C2893.68 1184.22 2899.09 1179.37 2909.23 1177.08C2912.46 1176.86 2915.66 1176.89 2918.9 1176.96C2919.75 1176.97 2920.6 1176.97 2921.48 1176.98C2923.56 1177.01 2925.64 1177.04 2927.72 1177.08C2924.42 1173.73 2921.05 1170.7 2917.36 1167.79C2916.04 1166.41 2916.04 1166.41 2916.04 1163.5C2914.76 1163.18 2913.47 1162.86 2912.15 1162.53C2912.15 1161.89 2912.15 1161.25 2912.15 1160.59C2911.39 1160.51 2910.62 1160.43 2909.84 1160.34C2907.28 1159.62 2907.28 1159.62 2906.13 1157.74C2905.87 1157.08 2905.61 1156.42 2905.34 1155.74C2904.7 1155.1 2904.05 1154.46 2903.39 1153.8C2914.45 1153.1 2923.02 1155.06 2931.85 1161.89C2933.95 1163.87 2935.68 1166.06 2937.45 1168.35C2937.65 1167.53 2937.85 1166.71 2938.06 1165.86C2940.22 1157.94 2942.76 1151.17 2950.13 1146.81C2952.04 1146.04 2952.04 1146.04 2954.96 1146.04Z" fill="url(#paint6_linear_255_31830)"/>
<path d="M3821.68 1059.11C3821.68 1059.58 3821.68 1060.04 3821.68 1060.53C3821.21 1060.76 3820.74 1061 3820.26 1061.24C3820.41 1061.75 3820.56 1062.27 3820.72 1062.8C3821.02 1065.25 3820.5 1066.13 3819.24 1068.21C3818.73 1069.05 3818.73 1069.05 3818.22 1069.91C3817.95 1070.33 3817.69 1070.75 3817.42 1071.18C3817.91 1070.85 3818.4 1070.51 3818.9 1070.17C3826.94 1064.84 3833.38 1063.31 3842.97 1064.08C3845.45 1064.8 3845.45 1064.8 3847.23 1065.5C3847.23 1065.97 3847.23 1066.44 3847.23 1066.92C3845.82 1066.92 3844.42 1066.92 3842.97 1066.92C3842.97 1067.39 3842.97 1067.86 3842.97 1068.34C3842.3 1068.55 3841.62 1068.75 3840.93 1068.96C3838.67 1069.6 3838.67 1069.6 3837.29 1071.18C3835.43 1070.92 3835.43 1070.92 3833.74 1070.47C3834.09 1071.53 3834.09 1071.53 3834.45 1072.6C3833.75 1072.6 3833.05 1072.6 3832.32 1072.6C3831.97 1074.36 3831.97 1074.36 3831.61 1076.15C3831.14 1076.15 3830.68 1076.15 3830.19 1076.15C3830.19 1076.62 3830.19 1077.09 3830.19 1077.57C3829.14 1077.93 3829.14 1077.93 3828.06 1078.29C3827.54 1079.72 3827.54 1079.72 3827.35 1081.13C3827.99 1081.18 3828.62 1081.23 3829.28 1081.29C3837.67 1082.2 3842.96 1084.69 3848.45 1091.12C3849.39 1092.54 3849.77 1093.67 3850.07 1095.33C3849.54 1094.98 3849.01 1094.63 3848.47 1094.27C3846.47 1092.97 3846.47 1092.97 3843.68 1093.2C3841.18 1092.47 3838.87 1091.6 3836.58 1090.36C3836.23 1091.06 3836.23 1091.06 3835.87 1091.78C3834.7 1091.55 3833.53 1091.31 3832.32 1091.07C3832.09 1091.77 3831.85 1092.48 3831.61 1093.2C3830.68 1092.5 3829.74 1091.79 3828.77 1091.07C3828.54 1091.77 3828.3 1092.48 3828.06 1093.2C3826.89 1092.5 3825.72 1091.79 3824.51 1091.07C3825.01 1091.55 3825.51 1092.04 3826.02 1092.54C3831.41 1097.97 3834.74 1102.59 3835.34 1110.47C3835.12 1113.64 3834.26 1115.86 3833.03 1118.77C3832.75 1118.09 3832.75 1118.09 3832.46 1117.4C3831.69 1115.69 3831.69 1115.69 3829.48 1115.22C3829 1113.75 3829 1113.75 3828.77 1112.38C3828.3 1112.38 3827.84 1112.38 3827.35 1112.38C3827.12 1110.97 3826.89 1109.57 3826.64 1108.12C3826.18 1108.12 3825.71 1108.12 3825.22 1108.12C3825.22 1107.65 3825.22 1107.18 3825.22 1106.7C3824.76 1106.7 3824.29 1106.7 3823.8 1106.7C3823.45 1103.88 3823.45 1103.88 3823.09 1101.01C3822.04 1101.37 3822.04 1101.37 3820.97 1101.72C3820.79 1101.17 3820.61 1100.61 3820.43 1100.04C3819.41 1097.89 3818.8 1097.66 3816.71 1096.75C3817.16 1102.08 3817.94 1107.32 3818.79 1112.6C3821.44 1129.43 3822.43 1146.19 3822.47 1163.21C3822.48 1164.11 3822.48 1165.01 3822.48 1165.94C3822.48 1166.78 3822.48 1167.62 3822.48 1168.49C3822.48 1169.25 3822.48 1170 3822.48 1170.78C3822.4 1172.5 3822.17 1173.95 3821.68 1175.59C3820.27 1175.59 3818.86 1175.59 3817.42 1175.59C3817.42 1175.01 3817.42 1175.01 3817.43 1174.41C3817.63 1148.21 3816.55 1122.74 3813.16 1096.75C3810.54 1097.13 3809.81 1097.24 3807.97 1099.28C3807.57 1099.85 3807.18 1100.43 3806.77 1101.01C3806.3 1100.55 3805.83 1100.08 3805.35 1099.59C3805.12 1101 3804.88 1102.41 3804.64 1103.86C3803.94 1103.62 3803.23 1103.39 3802.51 1103.15C3802.35 1103.92 3802.19 1104.7 3802.02 1105.5C3800.96 1108.5 3800.27 1108.85 3797.54 1110.25C3797.19 1111.3 3797.19 1111.3 3796.83 1112.38C3796.36 1112.38 3795.9 1112.38 3795.41 1112.38C3795.18 1113.08 3794.94 1113.79 3794.7 1114.51C3794.23 1114.51 3793.77 1114.51 3793.28 1114.51C3792.71 1103.14 3796.07 1098.55 3803.22 1090.36C3802.57 1090.54 3802.57 1090.54 3801.9 1090.72C3801.32 1090.87 3800.75 1091.01 3800.16 1091.16C3799.59 1091.31 3799.02 1091.46 3798.44 1091.61C3796.83 1091.78 3796.83 1091.78 3794.7 1090.36C3794.22 1090.73 3793.74 1091.09 3793.24 1091.47C3790.57 1092.78 3789.07 1092.19 3786.19 1091.78C3784.13 1092.7 3784.13 1092.7 3782.64 1093.91C3782.64 1092.97 3782.64 1092.04 3782.64 1091.07C3781.23 1092.01 3779.83 1092.95 3778.38 1093.91C3778.03 1092.86 3778.03 1092.86 3777.67 1091.78C3777.24 1092.15 3776.82 1092.51 3776.38 1092.89C3775.87 1093.23 3775.36 1093.56 3774.83 1093.91C3774.13 1093.68 3773.42 1093.44 3772.7 1093.2C3776.97 1087.07 3780.92 1083.52 3788.31 1081.84C3790.67 1081.68 3793.01 1081.7 3795.37 1081.75C3795.99 1081.75 3796.61 1081.76 3797.25 1081.77C3798.77 1081.78 3800.28 1081.81 3801.8 1081.84C3799.4 1079.38 3796.94 1077.16 3794.25 1075.04C3793.28 1074.02 3793.28 1074.02 3793.28 1071.89C3792.35 1071.66 3791.41 1071.42 3790.44 1071.18C3790.44 1070.71 3790.44 1070.24 3790.44 1069.76C3789.89 1069.7 3789.33 1069.64 3788.76 1069.58C3786.9 1069.05 3786.9 1069.05 3786.05 1067.68C3785.86 1067.19 3785.67 1066.71 3785.48 1066.21C3785.01 1065.74 3784.54 1065.27 3784.06 1064.79C3792.12 1064.28 3798.37 1065.71 3804.81 1070.71C3806.35 1072.17 3807.61 1073.77 3808.9 1075.44C3809.05 1074.84 3809.19 1074.24 3809.35 1073.62C3810.92 1067.82 3812.78 1062.87 3818.15 1059.67C3819.55 1059.11 3819.55 1059.11 3821.68 1059.11Z" fill="url(#paint7_linear_255_31830)"/>
<path d="M3340.06 1121.63C3338.82 1122.55 3337.58 1123.47 3336.31 1124.41C3336.77 1125.33 3336.77 1125.33 3337.25 1126.26C3336.94 1127.18 3336.63 1128.1 3336.31 1129.04C3335.53 1129.31 3334.76 1129.58 3333.96 1129.85C3333.18 1130.2 3332.41 1130.54 3331.61 1130.89C3330.96 1133.07 3330.96 1133.07 3330.67 1135.53C3329.78 1137.1 3328.85 1138.65 3327.85 1140.16C3327.54 1140.77 3327.23 1141.38 3326.91 1142.01C3327.61 1141.74 3328.3 1141.48 3329.02 1141.2C3338.88 1137.64 3346.36 1136.92 3356.13 1141.02C3357.91 1142.01 3357.91 1142.01 3358.85 1143.86C3357.61 1143.86 3356.37 1143.86 3355.09 1143.86C3354.78 1144.47 3354.47 1145.09 3354.15 1145.72C3353.53 1145.69 3352.9 1145.67 3352.26 1145.65C3347.66 1145.56 3344.29 1145.65 3340.06 1147.57C3337.88 1147.92 3335.69 1148.24 3333.49 1148.5C3334.41 1148.5 3334.41 1148.5 3335.35 1148.5C3343.53 1148.84 3350.97 1151.18 3357.05 1156.79C3358.61 1158.57 3358.61 1158.57 3360.73 1161.46C3360.26 1162.38 3360.26 1162.38 3359.79 1163.32C3358.39 1162.4 3358.39 1162.4 3356.97 1161.46C3355.73 1161.46 3354.49 1161.46 3353.21 1161.46C3348.43 1161.14 3344.52 1160.44 3340.06 1158.69C3338 1158.96 3338 1158.96 3336.31 1159.61C3336 1159.61 3335.69 1159.61 3335.37 1159.61C3336.06 1160.28 3336.76 1160.95 3337.48 1161.64C3343.18 1167.39 3346.64 1172.7 3346.64 1180.92C3345.24 1180.46 3345.24 1180.46 3343.82 1179.99C3343.51 1179.38 3343.2 1178.77 3342.88 1178.14C3342.26 1178.14 3341.64 1178.14 3341 1178.14C3340.38 1177.53 3339.76 1176.92 3339.12 1176.29C3337.43 1174.9 3335.72 1173.52 3334.01 1172.15C3332.55 1170.73 3332.55 1170.73 3331.61 1167.95C3330.06 1167.95 3328.51 1167.95 3326.91 1167.95C3327.14 1168.59 3327.38 1169.22 3327.61 1169.88C3337.15 1196.35 3342.51 1222.28 3341.94 1250.4C3340.08 1250.4 3338.22 1250.4 3336.31 1250.4C3336.29 1249.87 3336.28 1249.35 3336.26 1248.81C3335.52 1222.77 3333.21 1196 3323.16 1171.65C3323.02 1172.2 3322.89 1172.75 3322.75 1173.32C3322.08 1175.9 3321.21 1178.4 3320.34 1180.92C3321.04 1181.38 3321.04 1181.38 3321.75 1181.84C3323.97 1184.77 3323.27 1187.5 3323.16 1191.11C3323.47 1191.72 3323.78 1192.33 3324.1 1192.96C3319.02 1192.19 3316.68 1188.49 3313.76 1184.62C3310.69 1179.34 3310.62 1174.8 3310.95 1168.88C3310.59 1170.22 3310.59 1170.22 3310.22 1171.58C3309.9 1172.75 3309.58 1173.92 3309.24 1175.13C3308.93 1176.29 3308.61 1177.45 3308.29 1178.65C3307.29 1181.56 3306.33 1183.23 3304.37 1185.55C3303.71 1187.54 3303.71 1187.54 3303.43 1189.26C3302.81 1189.26 3302.19 1189.26 3301.55 1189.26C3297.79 1181.83 3298.49 1174.77 3300.9 1167.07C3301.12 1166.45 3301.33 1165.82 3301.55 1165.17C3301.04 1165.55 3300.53 1165.93 3300.01 1166.32C3299.34 1166.82 3298.67 1167.32 3297.97 1167.83C3297.31 1168.33 3296.64 1168.82 3295.96 1169.33C3294.41 1170.46 3292.82 1171.53 3291.22 1172.58C3290.91 1172.28 3290.6 1171.97 3290.28 1171.65C3289.97 1172.27 3289.66 1172.88 3289.34 1173.51C3287.52 1174.49 3287.52 1174.49 3285.59 1175.36C3284.66 1175.82 3284.66 1175.82 3283.71 1176.29C3283.97 1168.91 3286.7 1164.84 3292.05 1159.8C3294.2 1157.94 3296.18 1156.24 3298.74 1154.98C3297.68 1154.98 3296.63 1154.98 3295.55 1154.98C3290.04 1154.98 3284.52 1154.98 3279.01 1154.98C3280.59 1150.32 3285.07 1148.79 3289.34 1146.64C3294.4 1144.57 3298.81 1144.73 3304.18 1145.45C3306.37 1145.78 3306.37 1145.78 3309.07 1145.72C3308.76 1144.99 3308.45 1144.26 3308.13 1143.52C3306.24 1136.76 3306.49 1131.16 3309.85 1124.96C3310.95 1123.48 3310.95 1123.48 3313.76 1121.63C3313.9 1122.51 3314.04 1123.39 3314.17 1124.29C3314.54 1127.09 3314.54 1127.09 3315.64 1129.04C3315.45 1129.58 3315.25 1130.11 3315.06 1130.66C3314.53 1133.78 3315.98 1135.63 3317.52 1138.31C3317.99 1137.22 3318.45 1136.13 3318.93 1135.01C3322.47 1128.08 3328.33 1124.25 3335.38 1121.2C3337.25 1120.7 3337.25 1120.7 3340.06 1121.63ZM3325.97 1166.1C3326.91 1167.95 3326.91 1167.95 3326.91 1167.95L3325.97 1166.1Z" fill="url(#paint8_linear_255_31830)"/>
<path d="M3002.31 1129.5C3002.98 1133.68 3004.51 1136.44 3006.76 1139.99C3008.27 1142.93 3008.32 1145.99 3008.62 1149.25C3009.32 1151.45 3010.02 1153.64 3010.72 1155.84C3010.56 1156.85 3010.4 1157.86 3010.24 1158.89C3009.74 1158.59 3009.25 1158.29 3008.74 1157.98C2999.51 1152.74 2991.29 1152.03 2980.97 1154.16C2978.53 1155 2978.53 1155 2976.02 1157.74C2977.7 1158 2979.38 1158.26 2981.11 1158.53C2980.45 1159.46 2980.45 1159.46 2979.77 1160.41C2983.48 1161.59 2986.96 1162.57 2990.81 1163.17C2991.5 1163.47 2992.18 1163.77 2992.88 1164.08C2994.72 1164.82 2994.72 1164.82 2996.92 1164.12C2996.76 1165.13 2996.6 1166.14 2996.44 1167.18C2995.84 1167.3 2995.24 1167.42 2994.63 1167.55C2985.19 1169.75 2978.38 1174.01 2972.05 1181.33C2971.04 1183.04 2971.04 1183.04 2971.58 1186.26C2972.1 1185.82 2972.62 1185.39 2973.15 1184.94C2975.16 1183.34 2975.16 1183.34 2978.16 1184.15C2982.83 1184.47 2986.16 1182.86 2990.28 1180.88C2992.46 1179.86 2992.46 1179.86 2995.4 1180.58C2997.88 1180.3 3000.37 1179.99 3002.84 1179.65C3002.34 1180.09 3001.84 1180.53 3001.33 1180.98C2995.54 1187.01 2992.25 1192.93 2990.95 1201.2C2990.73 1202.54 2990.5 1203.88 2990.27 1205.27C2989.97 1208.58 2990.01 1210.34 2991.34 1213.33C2991.68 1213.38 2992.02 1213.43 2992.36 1213.48C2993.01 1211.52 2993.66 1209.56 2994.33 1207.53C2995.26 1208.19 2995.26 1208.19 2996.21 1208.87C2998.3 1206.58 2999.82 1204.52 3001.46 1201.93C3004.38 1196.48 3004.38 1196.48 3009.08 1193.14C3010.29 1191.21 3011.29 1189.21 3012.32 1187.19C3013.29 1185.24 3013.29 1185.24 3015.6 1184.76C3015.1 1186.02 3014.6 1187.28 3014.09 1188.57C3008.86 1202.96 3005.91 1217.75 3003.62 1232.84C3003.41 1234.19 3003.41 1234.19 3003.2 1235.57C2995.03 1288.8 2995.03 1288.8 3000.35 1296.09C3002.72 1296.5 3005.1 1296.87 3007.48 1297.2C3007.47 1296.29 3007.46 1295.37 3007.45 1294.43C3007.41 1290.97 3007.38 1287.51 3007.36 1284.05C3007.34 1282.57 3007.33 1281.08 3007.31 1279.6C3007.13 1263.02 3008.77 1247.14 3011.3 1230.78C3011.53 1229.29 3011.53 1229.29 3011.76 1227.77C3014.1 1212.68 3017.07 1198.16 3022.02 1183.68C3026.07 1184.31 3026.94 1185.92 3029.53 1189.02C3030.15 1189.89 3030.76 1190.76 3031.4 1191.66C3032.97 1193.73 3032.97 1193.73 3035 1194.04C3035.23 1194.77 3035.47 1195.49 3035.7 1196.24C3036.46 1196.79 3037.21 1197.33 3037.99 1197.9C3040.93 1200.66 3041.07 1202.58 3041.4 1206.51C3042.07 1206.62 3042.75 1206.72 3043.44 1206.83C3043.62 1207.89 3043.8 1208.95 3043.98 1210.04C3045.41 1210.78 3045.41 1210.78 3046.87 1211.54C3047.22 1212.62 3047.22 1212.62 3047.58 1213.73C3048.25 1213.84 3048.92 1213.94 3049.61 1214.05C3051.68 1204.77 3050.26 1196.57 3045.37 1188.4C3041.66 1183.47 3036.9 1179.62 3031.43 1176.8C3033.6 1174.83 3033.6 1174.83 3036.02 1175.22C3036.84 1175.37 3037.66 1175.53 3038.51 1175.68C3039.34 1175.83 3040.17 1175.98 3041.02 1176.13C3041.66 1176.25 3042.29 1176.38 3042.95 1176.5C3043.39 1175.88 3043.83 1175.26 3044.28 1174.62C3045.28 1174.89 3045.28 1174.89 3046.29 1175.17C3047.18 1175.4 3048.06 1175.63 3048.97 1175.88C3049.84 1176.11 3050.71 1176.34 3051.61 1176.58C3055.53 1177.52 3058.59 1178.15 3062.6 1177.48C3062.71 1176.8 3062.81 1176.13 3062.92 1175.44C3064.83 1176.43 3066.74 1177.41 3068.71 1178.43C3067.4 1173.12 3064.23 1170.81 3059.96 1167.68C3053.04 1163.6 3044.85 1161.94 3036.94 1163.57C3035.75 1163.9 3034.56 1164.23 3033.33 1164.58C3034.11 1164.01 3034.89 1163.44 3035.69 1162.86C3036.23 1160.2 3036.23 1160.2 3036.48 1157.76C3037.08 1157.74 3037.68 1157.71 3038.3 1157.68C3040.94 1157.35 3042.98 1156.61 3045.42 1155.57C3046.21 1155.24 3047 1154.91 3047.81 1154.58C3048.41 1154.24 3049.02 1153.9 3049.65 1153.55C3049.75 1152.88 3049.85 1152.21 3049.96 1151.52C3052.48 1149.68 3054.91 1148.48 3057.88 1147.53C3057.98 1146.86 3058.09 1146.19 3058.2 1145.5C3045.05 1144.31 3034.78 1147.93 3024.27 1155.86C3024.17 1155.18 3024.07 1154.5 3023.97 1153.79C3022.3 1144.53 3018.28 1139.05 3010.73 1133.55C3005.42 1129.98 3005.42 1129.98 3002.31 1129.5Z" fill="url(#paint9_linear_255_31830)"/>
<path d="M2848.75 1144.8C2849.52 1149.62 2851.28 1152.81 2853.88 1156.9C2855.61 1160.29 2855.67 1163.82 2856.02 1167.57C2856.82 1170.1 2857.63 1172.63 2858.44 1175.17C2858.26 1176.33 2858.08 1177.49 2857.89 1178.69C2857.32 1178.34 2856.74 1177.99 2856.15 1177.63C2845.52 1171.59 2836.04 1170.77 2824.15 1173.23C2821.34 1174.2 2821.34 1174.2 2818.44 1177.36C2820.38 1177.66 2822.32 1177.96 2824.31 1178.27C2823.55 1179.34 2823.55 1179.34 2822.77 1180.43C2827.05 1181.79 2831.05 1182.93 2835.49 1183.62C2836.28 1183.96 2837.07 1184.31 2837.88 1184.67C2840 1185.52 2840 1185.52 2842.53 1184.71C2842.35 1185.88 2842.17 1187.04 2841.98 1188.23C2841.29 1188.38 2840.6 1188.52 2839.89 1188.66C2829.02 1191.2 2821.17 1196.11 2813.87 1204.54C2812.7 1206.52 2812.7 1206.52 2813.33 1210.23C2813.93 1209.72 2814.52 1209.22 2815.14 1208.7C2817.45 1206.86 2817.45 1206.86 2820.92 1207.8C2826.3 1208.17 2830.13 1206.31 2834.88 1204.03C2837.4 1202.86 2837.4 1202.86 2840.78 1203.68C2843.65 1203.36 2846.51 1203.01 2849.36 1202.61C2848.79 1203.11 2848.21 1203.62 2847.62 1204.14C2840.95 1211.1 2837.15 1217.92 2835.65 1227.45C2835.4 1229 2835.14 1230.54 2834.87 1232.14C2834.53 1235.96 2834.57 1237.99 2836.11 1241.43C2836.5 1241.49 2836.88 1241.55 2837.28 1241.61C2838.03 1239.34 2838.78 1237.08 2839.55 1234.75C2840.62 1235.51 2840.62 1235.51 2841.71 1236.29C2844.13 1233.66 2845.88 1231.28 2847.77 1228.29C2851.13 1222.01 2851.13 1222.01 2856.55 1218.16C2857.95 1215.94 2859.1 1213.63 2860.29 1211.3C2861.4 1209.06 2861.4 1209.06 2864.06 1208.5C2863.49 1209.95 2862.92 1211.4 2862.33 1212.89C2856.29 1229.48 2852.89 1246.52 2850.26 1263.92C2850.02 1265.48 2850.02 1265.48 2849.77 1267.06C2840.35 1328.42 2840.35 1328.42 2846.49 1336.83C2849.22 1337.3 2851.96 1337.73 2854.71 1338.11C2854.69 1337.05 2854.68 1335.99 2854.67 1334.91C2854.63 1330.92 2854.6 1326.94 2854.56 1322.95C2854.55 1321.24 2854.53 1319.53 2854.51 1317.82C2854.31 1298.71 2856.2 1280.4 2859.11 1261.54C2859.38 1259.83 2859.38 1259.83 2859.64 1258.08C2862.34 1240.68 2865.76 1223.94 2871.47 1207.25C2876.14 1207.98 2877.14 1209.83 2880.12 1213.41C2880.83 1214.41 2881.55 1215.42 2882.28 1216.45C2884.09 1218.84 2884.09 1218.84 2886.43 1219.2C2886.7 1220.04 2886.96 1220.87 2887.24 1221.73C2888.11 1222.36 2888.98 1222.99 2889.87 1223.64C2893.26 1226.82 2893.42 1229.04 2893.81 1233.57C2894.58 1233.7 2895.36 1233.82 2896.15 1233.94C2896.36 1235.16 2896.57 1236.38 2896.78 1237.64C2898.43 1238.5 2898.43 1238.5 2900.12 1239.37C2900.52 1240.62 2900.52 1240.62 2900.92 1241.9C2901.7 1242.02 2902.47 1242.14 2903.27 1242.26C2905.65 1231.57 2904.01 1222.11 2898.38 1212.7C2894.11 1207.02 2888.62 1202.58 2882.32 1199.32C2884.82 1197.05 2884.82 1197.05 2887.6 1197.51C2888.55 1197.68 2889.5 1197.86 2890.48 1198.04C2891.43 1198.21 2892.39 1198.38 2893.37 1198.55C2894.1 1198.7 2894.83 1198.84 2895.59 1198.98C2896.09 1198.27 2896.6 1197.55 2897.13 1196.82C2898.27 1197.13 2898.27 1197.13 2899.45 1197.44C2900.46 1197.71 2901.48 1197.98 2902.53 1198.26C2903.54 1198.53 2904.54 1198.8 2905.58 1199.07C2910.1 1200.16 2913.62 1200.89 2918.24 1200.1C2918.36 1199.33 2918.48 1198.56 2918.61 1197.76C2920.81 1198.89 2923.01 1200.03 2925.28 1201.2C2923.77 1195.08 2920.12 1192.43 2915.19 1188.81C2907.22 1184.12 2897.78 1182.2 2888.67 1184.08C2887.3 1184.46 2885.92 1184.84 2884.51 1185.24C2885.4 1184.58 2886.3 1183.93 2887.22 1183.25C2887.85 1180.19 2887.85 1180.19 2888.13 1177.38C2888.83 1177.35 2889.52 1177.32 2890.23 1177.29C2893.27 1176.91 2895.63 1176.06 2898.44 1174.85C2899.35 1174.48 2900.26 1174.1 2901.19 1173.71C2901.89 1173.32 2902.59 1172.93 2903.31 1172.53C2903.43 1171.76 2903.55 1170.98 2903.67 1170.18C2906.58 1168.06 2909.38 1166.69 2912.8 1165.59C2912.92 1164.82 2913.04 1164.04 2913.17 1163.24C2898.01 1161.88 2886.17 1166.05 2874.06 1175.19C2873.94 1174.4 2873.83 1173.62 2873.71 1172.8C2871.79 1162.13 2867.15 1155.82 2858.46 1149.47C2852.34 1145.36 2852.34 1145.36 2848.75 1144.8Z" fill="url(#paint10_linear_255_31830)"/>
<path d="M4283.93 1016.5C4284.27 1018.59 4285.03 1019.97 4286.16 1021.74C4286.91 1023.21 4286.94 1024.74 4287.08 1026.37C4287.43 1027.47 4287.78 1028.57 4288.13 1029.66C4288.06 1030.17 4287.98 1030.67 4287.9 1031.19C4287.65 1031.04 4287.4 1030.89 4287.14 1030.73C4282.53 1028.11 4278.43 1027.76 4273.27 1028.82C4272.05 1029.24 4272.05 1029.24 4270.8 1030.61C4271.64 1030.74 4272.47 1030.87 4273.34 1031.01C4273.01 1031.47 4273.01 1031.47 4272.67 1031.95C4274.53 1032.53 4276.26 1033.03 4278.19 1033.33C4278.53 1033.48 4278.87 1033.63 4279.22 1033.78C4280.14 1034.15 4280.14 1034.15 4281.24 1033.8C4281.16 1034.31 4281.08 1034.81 4281 1035.33C4280.7 1035.39 4280.4 1035.45 4280.09 1035.51C4275.38 1036.62 4271.98 1038.74 4268.81 1042.4C4268.31 1043.26 4268.31 1043.26 4268.58 1044.86C4268.84 1044.64 4269.1 1044.43 4269.36 1044.2C4270.37 1043.4 4270.37 1043.4 4271.87 1043.81C4274.2 1043.97 4275.86 1043.16 4277.92 1042.18C4279.01 1041.67 4279.01 1041.67 4280.48 1042.02C4281.72 1041.89 4282.96 1041.73 4284.2 1041.56C4283.95 1041.78 4283.7 1042 4283.44 1042.22C4280.55 1045.24 4278.9 1048.2 4278.26 1052.33C4278.15 1053 4278.03 1053.67 4277.92 1054.36C4277.77 1056.02 4277.79 1056.9 4278.45 1058.39C4278.62 1058.41 4278.79 1058.44 4278.96 1058.47C4279.29 1057.49 4279.61 1056.5 4279.95 1055.49C4280.41 1055.82 4280.41 1055.82 4280.88 1056.16C4281.93 1055.02 4282.69 1053.99 4283.51 1052.69C4284.97 1049.97 4284.97 1049.97 4287.32 1048.3C4287.92 1047.34 4288.42 1046.34 4288.94 1045.33C4289.42 1044.35 4289.42 1044.35 4290.57 1044.12C4290.32 1044.74 4290.08 1045.37 4289.82 1046.02C4287.2 1053.21 4285.73 1060.6 4284.59 1068.14C4284.48 1068.81 4284.48 1068.81 4284.38 1069.5C4280.29 1096.1 4280.29 1096.1 4282.96 1099.75C4284.14 1099.95 4285.33 1100.14 4286.52 1100.3C4286.51 1099.84 4286.51 1099.38 4286.5 1098.91C4286.48 1097.19 4286.47 1095.46 4286.45 1093.73C4286.45 1092.99 4286.44 1092.25 4286.43 1091.5C4286.34 1083.22 4287.16 1075.29 4288.43 1067.11C4288.54 1066.36 4288.54 1066.36 4288.66 1065.61C4289.82 1058.06 4291.31 1050.81 4293.78 1043.57C4295.81 1043.89 4296.24 1044.69 4297.53 1046.24C4297.84 1046.68 4298.15 1047.11 4298.47 1047.56C4299.25 1048.59 4299.25 1048.59 4300.27 1048.75C4300.39 1049.11 4300.5 1049.48 4300.62 1049.85C4301 1050.12 4301.37 1050.4 4301.76 1050.68C4303.23 1052.06 4303.3 1053.02 4303.47 1054.98C4303.8 1055.04 4304.14 1055.09 4304.48 1055.14C4304.57 1055.67 4304.66 1056.2 4304.76 1056.75C4305.47 1057.12 4305.47 1057.12 4306.2 1057.49C4306.38 1058.04 4306.38 1058.04 4306.55 1058.59C4306.89 1058.64 4307.22 1058.7 4307.57 1058.75C4308.6 1054.11 4307.89 1050.01 4305.45 1045.93C4303.6 1043.47 4301.22 1041.54 4298.49 1040.13C4299.57 1039.15 4299.57 1039.15 4300.78 1039.35C4301.19 1039.42 4301.6 1039.5 4302.02 1039.58C4302.44 1039.65 4302.85 1039.73 4303.28 1039.8C4303.6 1039.86 4303.91 1039.92 4304.24 1039.99C4304.46 1039.68 4304.68 1039.37 4304.91 1039.05C4305.4 1039.18 4305.4 1039.18 4305.91 1039.32C4306.35 1039.44 4306.79 1039.55 4307.25 1039.67C4307.69 1039.79 4308.12 1039.91 4308.57 1040.03C4310.53 1040.5 4312.06 1040.81 4314.06 1040.47C4314.11 1040.14 4314.16 1039.8 4314.22 1039.46C4315.17 1039.95 4316.13 1040.44 4317.11 1040.95C4316.46 1038.3 4314.88 1037.14 4312.74 1035.58C4309.28 1033.54 4305.19 1032.71 4301.24 1033.53C4300.64 1033.69 4300.05 1033.86 4299.44 1034.03C4299.82 1033.74 4300.21 1033.46 4300.61 1033.17C4300.88 1031.84 4300.88 1031.84 4301.01 1030.62C4301.31 1030.61 4301.61 1030.6 4301.92 1030.58C4303.24 1030.42 4304.26 1030.05 4305.48 1029.53C4305.87 1029.36 4306.26 1029.2 4306.67 1029.03C4306.97 1028.86 4307.27 1028.69 4307.59 1028.52C4307.64 1028.18 4307.69 1027.85 4307.74 1027.5C4309 1026.58 4310.22 1025.99 4311.7 1025.51C4311.75 1025.18 4311.81 1024.84 4311.86 1024.49C4305.29 1023.9 4300.16 1025.71 4294.9 1029.67C4294.86 1029.33 4294.81 1028.99 4294.76 1028.64C4293.92 1024.01 4291.91 1021.27 4288.14 1018.52C4285.49 1016.74 4285.49 1016.74 4283.93 1016.5Z" fill="url(#paint11_linear_255_31830)"/>
<path d="M2328.41 1166.93C2329.42 1173.28 2331.73 1177.48 2335.13 1182.87C2337.4 1187.34 2337.48 1191.99 2337.93 1196.94C2338.99 1200.27 2340.05 1203.6 2341.1 1206.94C2340.87 1208.47 2340.63 1210 2340.39 1211.58C2339.64 1211.12 2338.89 1210.66 2338.11 1210.18C2324.18 1202.23 2311.77 1201.15 2296.19 1204.39C2292.5 1205.67 2292.5 1205.67 2288.71 1209.82C2291.25 1210.22 2293.78 1210.62 2296.4 1211.03C2295.4 1212.44 2295.4 1212.44 2294.38 1213.88C2299.98 1215.67 2305.23 1217.16 2311.05 1218.07C2312.08 1218.53 2313.11 1218.99 2314.18 1219.46C2316.95 1220.58 2316.95 1220.58 2320.27 1219.52C2320.03 1221.05 2319.79 1222.58 2319.55 1224.16C2318.64 1224.35 2317.74 1224.53 2316.81 1224.73C2302.56 1228.07 2292.28 1234.54 2282.72 1245.65C2281.19 1248.25 2281.19 1248.25 2282.01 1253.13C2282.79 1252.47 2283.58 1251.81 2284.38 1251.13C2287.41 1248.7 2287.41 1248.7 2291.95 1249.94C2299 1250.43 2304.03 1247.98 2310.24 1244.97C2313.54 1243.42 2313.54 1243.42 2317.98 1244.51C2321.73 1244.09 2325.47 1243.62 2329.21 1243.1C2328.46 1243.76 2327.71 1244.43 2326.93 1245.12C2318.19 1254.28 2313.21 1263.27 2311.26 1275.83C2310.92 1277.87 2310.58 1279.91 2310.24 1282.01C2309.78 1287.04 2309.84 1289.72 2311.85 1294.25C2312.36 1294.32 2312.87 1294.4 2313.39 1294.49C2314.37 1291.5 2315.35 1288.52 2316.36 1285.45C2317.77 1286.45 2317.77 1286.45 2319.2 1287.47C2322.36 1284.01 2324.66 1280.88 2327.12 1276.93C2331.53 1268.66 2331.53 1268.66 2338.63 1263.58C2340.46 1260.66 2341.97 1257.63 2343.53 1254.55C2344.98 1251.6 2344.98 1251.6 2348.47 1250.87C2347.72 1252.78 2346.97 1254.68 2346.2 1256.65C2338.29 1278.5 2333.84 1300.96 2330.39 1323.88C2330.07 1325.93 2330.07 1325.93 2329.75 1328.03C2317.41 1408.87 2317.41 1408.87 2325.46 1419.95C2329.03 1420.57 2332.62 1421.14 2336.21 1421.63C2336.2 1420.24 2336.18 1418.85 2336.17 1417.42C2336.12 1412.17 2336.07 1406.92 2336.03 1401.66C2336.01 1399.41 2335.99 1397.15 2335.96 1394.9C2335.69 1369.72 2338.17 1345.6 2341.99 1320.75C2342.33 1318.49 2342.33 1318.49 2342.68 1316.18C2346.21 1293.26 2350.69 1271.21 2358.17 1249.22C2364.29 1250.17 2365.6 1252.62 2369.51 1257.33C2370.44 1258.65 2371.38 1259.97 2372.34 1261.34C2374.7 1264.48 2374.7 1264.48 2377.78 1264.96C2378.12 1266.06 2378.47 1267.16 2378.83 1268.29C2379.97 1269.13 2381.11 1269.96 2382.28 1270.81C2386.72 1275 2386.93 1277.92 2387.44 1283.9C2388.45 1284.06 2389.47 1284.22 2390.51 1284.38C2390.78 1285.99 2391.05 1287.6 2391.33 1289.26C2393.49 1290.38 2393.49 1290.38 2395.7 1291.53C2396.23 1293.18 2396.23 1293.18 2396.76 1294.86C2397.77 1295.02 2398.79 1295.18 2399.83 1295.35C2402.96 1281.26 2400.81 1268.8 2393.43 1256.4C2387.83 1248.9 2380.64 1243.05 2372.38 1238.77C2375.66 1235.77 2375.66 1235.77 2379.31 1236.37C2380.55 1236.61 2381.79 1236.84 2383.07 1237.07C2384.33 1237.3 2385.58 1237.52 2386.87 1237.76C2387.83 1237.94 2388.78 1238.13 2389.77 1238.32C2390.43 1237.38 2391.1 1236.44 2391.78 1235.47C2393.29 1235.88 2393.29 1235.88 2394.82 1236.29C2396.16 1236.65 2397.49 1237 2398.87 1237.37C2400.18 1237.72 2401.5 1238.08 2402.85 1238.44C2408.78 1239.87 2413.4 1240.83 2419.45 1239.8C2419.61 1238.78 2419.76 1237.76 2419.93 1236.71C2422.81 1238.2 2425.7 1239.7 2428.67 1241.24C2426.69 1233.18 2421.91 1229.68 2415.46 1224.92C2405.01 1218.73 2392.64 1216.2 2380.71 1218.68C2378.91 1219.19 2377.11 1219.69 2375.26 1220.21C2376.43 1219.34 2377.6 1218.48 2378.81 1217.59C2379.63 1213.56 2379.63 1213.56 2380.01 1209.86C2380.91 1209.82 2381.82 1209.78 2382.76 1209.74C2386.74 1209.23 2389.82 1208.11 2393.51 1206.53C2394.7 1206.03 2395.89 1205.53 2397.11 1205.02C2398.03 1204.51 2398.94 1203.99 2399.89 1203.47C2400.04 1202.45 2400.2 1201.42 2400.36 1200.37C2404.17 1197.58 2407.83 1195.77 2412.32 1194.32C2412.48 1193.3 2412.64 1192.28 2412.8 1191.23C2392.94 1189.43 2377.43 1194.92 2361.56 1206.97C2361.42 1205.93 2361.27 1204.9 2361.12 1203.83C2358.6 1189.76 2352.52 1181.44 2341.13 1173.08C2333.11 1167.66 2333.11 1167.66 2328.41 1166.93Z" fill="url(#paint12_linear_255_31830)"/>
<path d="M981.439 1368.26C981.621 1369.43 981.802 1370.6 981.989 1371.81C980.916 1372.58 979.842 1373.34 978.736 1374.13C979.316 1375.36 979.895 1376.59 980.491 1377.85C982.192 1383.84 981.249 1386.25 978.898 1391.93C977.972 1394.22 977.972 1394.22 977.028 1396.57C976.533 1397.72 976.039 1398.87 975.53 1400.06C976.617 1399.03 977.704 1398.01 978.824 1396.95C996.749 1380.51 1012.14 1374.2 1036.28 1372.37C1042.71 1373.21 1042.71 1373.21 1047.41 1374.26C1047.59 1375.43 1047.77 1376.6 1047.96 1377.8C1044.46 1378.35 1040.97 1378.9 1037.37 1379.46C1037.56 1380.63 1037.74 1381.8 1037.92 1383.01C1036.33 1383.78 1034.74 1384.55 1033.09 1385.35C1027.74 1387.81 1027.74 1387.81 1024.91 1392.31C1020.18 1392.37 1020.18 1392.37 1015.82 1391.92C1017.1 1394.42 1017.1 1394.42 1018.41 1396.96C1016.66 1397.24 1014.92 1397.51 1013.12 1397.79C1012.92 1402.32 1012.92 1402.32 1012.73 1406.93C1011.56 1407.11 1010.4 1407.3 1009.2 1407.48C1009.38 1408.65 1009.56 1409.82 1009.75 1411.03C1007.27 1412.32 1007.27 1412.32 1004.73 1413.63C1003.99 1417.41 1003.99 1417.41 1004.07 1421C1005.67 1420.88 1007.27 1420.77 1008.91 1420.65C1030.12 1419.66 1044.23 1423.8 1060.36 1437.72C1063.24 1440.89 1064.62 1443.56 1066.01 1447.6C1064.56 1446.93 1063.11 1446.25 1061.63 1445.56C1056.16 1443.11 1056.16 1443.11 1049.31 1444.77C1042.81 1443.92 1036.75 1442.64 1030.57 1440.45C1029.97 1442.34 1029.97 1442.34 1029.36 1444.27C1026.36 1444.14 1023.36 1444.01 1020.26 1443.88C1019.95 1445.72 1019.64 1447.57 1019.32 1449.47C1016.72 1448.08 1014.12 1446.69 1011.45 1445.26C1011.14 1447.11 1010.83 1448.95 1010.51 1450.86C1007.32 1449.56 1004.14 1448.26 1000.86 1446.92C1002.29 1447.93 1003.71 1448.95 1005.18 1449.99C1020.67 1461.46 1030.74 1471.68 1035.27 1491.12C1035.96 1499.1 1034.67 1504.98 1032.75 1512.73C1031.77 1511.14 1031.77 1511.14 1030.78 1509.52C1028.23 1505.58 1028.23 1505.58 1022.55 1505.25C1020.77 1501.79 1020.77 1501.79 1019.69 1498.44C1018.53 1498.62 1017.36 1498.8 1016.16 1498.99C1015.04 1495.57 1013.91 1492.16 1012.75 1488.63C1011.59 1488.82 1010.42 1489 1009.22 1489.19C1009.04 1488.02 1008.86 1486.85 1008.67 1485.64C1007.51 1485.82 1006.35 1486.01 1005.15 1486.2C1003.18 1479.31 1003.18 1479.31 1001.18 1472.29C998.7 1473.58 998.7 1473.58 996.167 1474.89C995.515 1473.57 994.863 1472.25 994.192 1470.89C990.829 1465.94 989.222 1465.61 983.661 1464.15C986.858 1477.26 990.806 1490.05 994.975 1502.88C1008.06 1543.84 1017.01 1585.28 1023.71 1627.75C1024.06 1629.99 1024.42 1632.24 1024.79 1634.55C1025.11 1636.66 1025.43 1638.76 1025.77 1640.93C1026.06 1642.81 1026.35 1644.69 1026.64 1646.63C1027.11 1650.97 1027.12 1654.66 1026.52 1658.97C1023.02 1659.51 1019.53 1660.06 1015.93 1660.63C1015.72 1659.16 1015.72 1659.16 1015.5 1657.67C1005.86 1592.2 993.322 1529.06 974.842 1465.53C968.479 1467.49 966.714 1468.05 962.924 1473.87C962.163 1475.45 961.402 1477.03 960.618 1478.66C959.272 1477.67 957.927 1476.68 956.541 1475.66C956.503 1479.26 956.465 1482.87 956.426 1486.58C954.589 1486.26 952.753 1485.95 950.86 1485.63C950.76 1487.63 950.661 1489.63 950.558 1491.69C949.067 1499.6 947.491 1500.74 941.263 1505.3C940.798 1508.06 940.798 1508.06 940.323 1510.89C939.159 1511.07 937.995 1511.26 936.796 1511.44C936.486 1513.29 936.176 1515.14 935.857 1517.04C934.693 1517.22 933.529 1517.4 932.329 1517.59C926.504 1489.45 933.085 1476.67 947.676 1453.45C946.119 1454.15 946.119 1454.15 944.53 1454.87C943.16 1455.45 941.79 1456.03 940.379 1456.64C939.025 1457.23 937.67 1457.82 936.275 1458.43C932.352 1459.49 932.352 1459.49 926.512 1456.77C925.453 1457.87 924.394 1458.97 923.303 1460.11C917.181 1464.41 913.235 1463.54 905.897 1463.64C901.155 1466.74 901.155 1466.74 897.903 1470.34C897.54 1468 897.177 1465.66 896.803 1463.25C893.674 1466.13 890.544 1469.02 887.32 1472C886.039 1469.5 886.039 1469.5 884.732 1466.96C883.819 1468.03 882.905 1469.11 881.965 1470.23C880.822 1471.27 879.679 1472.31 878.502 1473.38C876.665 1473.07 874.828 1472.76 872.936 1472.44C881.18 1455.46 889.612 1445.07 907.34 1437.99C913.132 1436.68 918.952 1435.82 924.832 1435.02C926.377 1434.79 927.923 1434.57 929.514 1434.33C933.291 1433.78 937.07 1433.26 940.851 1432.73C933.923 1427.55 926.958 1422.97 919.446 1418.71C916.662 1416.55 916.662 1416.55 915.838 1411.24C913.419 1411.02 911 1410.8 908.508 1410.57C908.327 1409.4 908.145 1408.23 907.958 1407.03C906.553 1407.1 905.148 1407.17 903.701 1407.24C898.865 1406.64 898.865 1406.64 896.238 1403.53C895.578 1402.4 894.918 1401.27 894.238 1400.1C892.892 1399.11 891.547 1398.12 890.161 1397.11C910.012 1392.7 926.094 1393.84 944.035 1403.8C948.412 1406.83 952.166 1410.34 956.014 1414.01C956.148 1412.46 956.281 1410.9 956.419 1409.3C958.086 1394.21 960.78 1381.11 972.894 1371.04C976.148 1369.09 976.148 1369.09 981.439 1368.26Z" fill="url(#paint13_linear_255_31830)"/>
<path d="M1088.28 1304.61C1089.69 1313.47 1092.91 1319.33 1097.65 1326.85C1100.83 1333.08 1100.94 1339.56 1101.57 1346.47C1103.04 1351.12 1104.52 1355.77 1105.99 1360.42C1105.66 1362.56 1105.33 1364.69 1104.99 1366.89C1103.94 1366.25 1102.9 1365.61 1101.82 1364.95C1082.38 1353.85 1065.07 1352.35 1043.34 1356.87C1038.2 1358.65 1038.2 1358.65 1032.91 1364.45C1036.45 1365 1039.98 1365.55 1043.63 1366.13C1042.24 1368.1 1042.24 1368.1 1040.82 1370.1C1048.63 1372.6 1055.95 1374.68 1064.07 1375.95C1065.51 1376.59 1066.95 1377.23 1068.43 1377.88C1072.31 1379.45 1072.31 1379.45 1076.93 1377.97C1076.6 1380.1 1076.27 1382.24 1075.93 1384.44C1074.66 1384.7 1073.4 1384.96 1072.1 1385.23C1052.23 1389.9 1037.89 1398.92 1024.55 1414.41C1022.42 1418.05 1022.42 1418.05 1023.56 1424.86C1024.65 1423.94 1025.75 1423.01 1026.88 1422.06C1031.1 1418.68 1031.1 1418.68 1037.43 1420.4C1047.26 1421.08 1054.27 1417.66 1062.94 1413.48C1067.55 1411.31 1067.55 1411.31 1073.73 1412.83C1078.96 1412.24 1084.19 1411.59 1089.4 1410.86C1088.35 1411.79 1087.3 1412.72 1086.22 1413.68C1074.03 1426.46 1067.09 1439 1064.36 1456.52C1063.89 1459.36 1063.42 1462.2 1062.93 1465.13C1062.3 1472.15 1062.39 1475.89 1065.19 1482.2C1065.9 1482.32 1066.6 1482.43 1067.33 1482.54C1068.7 1478.38 1070.07 1474.22 1071.48 1469.93C1073.44 1471.33 1073.44 1471.33 1075.43 1472.76C1079.84 1467.92 1083.05 1463.56 1086.49 1458.05C1092.64 1446.52 1092.64 1446.52 1102.55 1439.44C1105.1 1435.36 1107.19 1431.12 1109.37 1426.83C1111.4 1422.71 1111.4 1422.71 1116.27 1421.7C1115.23 1424.36 1114.18 1427.02 1113.1 1429.76C1102.07 1460.24 1095.86 1491.57 1091.04 1523.54C1090.6 1526.41 1090.6 1526.41 1090.15 1529.33C1072.95 1642.09 1072.95 1642.09 1084.16 1657.55C1089.15 1658.42 1094.16 1659.2 1099.17 1659.9C1099.15 1657.96 1099.13 1656.02 1099.11 1654.02C1099.03 1646.69 1098.97 1639.37 1098.91 1632.04C1098.88 1628.9 1098.85 1625.75 1098.82 1622.6C1098.44 1587.48 1101.9 1553.84 1107.23 1519.17C1107.71 1516.02 1107.71 1516.02 1108.19 1512.81C1113.11 1480.83 1119.36 1450.07 1129.8 1419.39C1138.33 1420.73 1140.16 1424.14 1145.62 1430.71C1146.92 1432.55 1148.22 1434.4 1149.56 1436.3C1152.86 1440.68 1152.86 1440.68 1157.15 1441.35C1157.63 1442.89 1158.12 1444.42 1158.62 1446.01C1160.21 1447.17 1161.79 1448.33 1163.43 1449.52C1169.62 1455.37 1169.91 1459.44 1170.62 1467.77C1172.04 1467.99 1173.45 1468.22 1174.91 1468.44C1175.29 1470.69 1175.66 1472.94 1176.05 1475.25C1179.07 1476.82 1179.07 1476.82 1182.15 1478.42C1182.88 1480.72 1182.88 1480.72 1183.63 1483.07C1185.04 1483.29 1186.46 1483.51 1187.91 1483.74C1192.27 1464.09 1189.27 1446.71 1178.99 1429.41C1171.17 1418.96 1161.15 1410.8 1149.62 1404.82C1154.19 1400.64 1154.19 1400.64 1159.28 1401.48C1161.02 1401.8 1162.75 1402.13 1164.54 1402.46C1166.28 1402.77 1168.03 1403.08 1169.83 1403.41C1171.16 1403.67 1172.5 1403.93 1173.87 1404.2C1174.8 1402.88 1175.73 1401.57 1176.69 1400.22C1178.78 1400.78 1178.78 1400.78 1180.93 1401.36C1182.79 1401.86 1184.65 1402.36 1186.57 1402.87C1188.4 1403.36 1190.24 1403.85 1192.13 1404.36C1200.39 1406.36 1206.83 1407.69 1215.27 1406.26C1215.5 1404.83 1215.72 1403.41 1215.94 1401.94C1219.97 1404.03 1223.99 1406.12 1228.14 1408.27C1225.38 1397.03 1218.71 1392.14 1209.7 1385.5C1195.13 1376.87 1177.88 1373.34 1161.23 1376.8C1158.72 1377.5 1156.22 1378.21 1153.63 1378.93C1155.27 1377.73 1156.9 1376.52 1158.59 1375.28C1159.73 1369.66 1159.73 1369.66 1160.26 1364.5C1161.52 1364.44 1162.79 1364.39 1164.09 1364.33C1169.65 1363.62 1173.95 1362.06 1179.09 1359.85C1180.75 1359.15 1182.41 1358.46 1184.12 1357.74C1185.39 1357.03 1186.67 1356.31 1187.99 1355.58C1188.21 1354.15 1188.43 1352.73 1188.65 1351.26C1193.96 1347.36 1199.07 1344.84 1205.33 1342.82C1205.55 1341.4 1205.77 1339.98 1206 1338.51C1178.3 1336 1156.67 1343.66 1134.53 1360.47C1134.32 1359.02 1134.12 1357.57 1133.91 1356.08C1130.39 1336.46 1121.92 1324.86 1106.03 1313.19C1094.84 1305.64 1094.84 1305.64 1088.28 1304.61Z" fill="url(#paint14_linear_255_31830)"/>
<path d="M3363.57 1089.24C3364.19 1093.1 3365.6 1095.65 3367.68 1098.93C3369.07 1101.64 3369.12 1104.47 3369.39 1107.48C3370.04 1109.5 3370.69 1111.53 3371.33 1113.56C3371.19 1114.49 3371.04 1115.42 3370.9 1116.37C3370.44 1116.1 3369.98 1115.82 3369.51 1115.53C3360.99 1110.69 3353.4 1110.04 3343.88 1112.01C3341.63 1112.78 3341.63 1112.78 3339.31 1115.31C3340.86 1115.55 3342.41 1115.79 3344.01 1116.04C3343.4 1116.9 3343.4 1116.9 3342.78 1117.77C3346.2 1118.86 3349.4 1119.77 3352.96 1120.32C3353.59 1120.6 3354.23 1120.88 3354.88 1121.16C3356.57 1121.85 3356.57 1121.85 3358.6 1121.2C3358.45 1122.13 3358.31 1123.06 3358.16 1124.02C3357.61 1124.13 3357.05 1124.25 3356.48 1124.36C3347.78 1126.4 3341.49 1130.33 3335.65 1137.08C3334.71 1138.66 3334.71 1138.66 3335.21 1141.63C3335.69 1141.23 3336.17 1140.82 3336.67 1140.41C3338.52 1138.93 3338.52 1138.93 3341.29 1139.69C3345.6 1139.98 3348.67 1138.49 3352.47 1136.67C3354.49 1135.73 3354.49 1135.73 3357.2 1136.39C3359.49 1136.13 3361.78 1135.85 3364.07 1135.53C3363.61 1135.93 3363.15 1136.34 3362.67 1136.76C3357.33 1142.32 3354.29 1147.79 3353.09 1155.42C3352.88 1156.66 3352.68 1157.9 3352.47 1159.17C3352.19 1162.23 3352.23 1163.86 3353.45 1166.61C3353.76 1166.66 3354.07 1166.71 3354.39 1166.76C3354.99 1164.94 3355.59 1163.13 3356.21 1161.26C3357.07 1161.87 3357.07 1161.87 3357.94 1162.5C3359.88 1160.39 3361.28 1158.49 3362.79 1156.09C3365.48 1151.07 3365.48 1151.07 3369.82 1147.98C3370.94 1146.2 3371.86 1144.36 3372.81 1142.49C3373.7 1140.69 3373.7 1140.69 3375.84 1140.25C3375.38 1141.41 3374.92 1142.57 3374.45 1143.76C3369.62 1157.04 3366.89 1170.69 3364.78 1184.62C3364.59 1185.87 3364.59 1185.87 3364.39 1187.14C3356.85 1236.27 3356.85 1236.27 3361.77 1243C3363.95 1243.38 3366.15 1243.72 3368.34 1244.02C3368.34 1243.18 3368.33 1242.33 3368.32 1241.46C3368.28 1238.27 3368.26 1235.08 3368.23 1231.89C3368.22 1230.52 3368.21 1229.15 3368.19 1227.78C3368.02 1212.47 3369.54 1197.82 3371.87 1182.72C3372.08 1181.34 3372.08 1181.34 3372.3 1179.94C3374.45 1166.01 3377.19 1152.61 3381.77 1139.25C3385.5 1139.83 3386.31 1141.31 3388.7 1144.18C3389.27 1144.98 3389.84 1145.78 3390.42 1146.61C3391.87 1148.52 3391.87 1148.52 3393.75 1148.81C3393.96 1149.48 3394.18 1150.15 3394.39 1150.84C3395.09 1151.35 3395.79 1151.85 3396.5 1152.37C3399.21 1154.92 3399.34 1156.69 3399.65 1160.32C3400.27 1160.42 3400.89 1160.52 3401.53 1160.62C3401.7 1161.59 3401.86 1162.57 3402.03 1163.58C3403.36 1164.26 3403.36 1164.26 3404.7 1164.96C3405.03 1165.96 3405.03 1165.96 3405.35 1166.99C3405.97 1167.08 3406.59 1167.18 3407.23 1167.28C3409.14 1158.72 3407.83 1151.15 3403.32 1143.61C3399.9 1139.06 3395.5 1135.5 3390.45 1132.9C3392.46 1131.08 3392.46 1131.08 3394.69 1131.44C3395.45 1131.58 3396.2 1131.72 3396.99 1131.87C3397.75 1132.01 3398.52 1132.14 3399.31 1132.28C3399.89 1132.4 3400.48 1132.51 3401.08 1132.63C3401.49 1132.05 3401.89 1131.48 3402.31 1130.89C3403.23 1131.14 3403.23 1131.14 3404.17 1131.39C3404.98 1131.61 3405.8 1131.82 3406.64 1132.05C3407.44 1132.26 3408.25 1132.48 3409.08 1132.7C3412.7 1133.57 3415.52 1134.15 3419.22 1133.52C3419.32 1132.9 3419.41 1132.28 3419.51 1131.64C3421.28 1132.55 3423.04 1133.46 3424.86 1134.4C3423.65 1129.5 3420.73 1127.37 3416.78 1124.48C3410.39 1120.72 3402.83 1119.19 3395.54 1120.69C3394.44 1121 3393.34 1121.3 3392.21 1121.62C3392.93 1121.09 3393.64 1120.57 3394.38 1120.03C3394.88 1117.58 3394.88 1117.58 3395.11 1115.33C3395.67 1115.31 3396.22 1115.28 3396.79 1115.26C3399.23 1114.95 3401.11 1114.27 3403.36 1113.31C3404.09 1113 3404.82 1112.7 3405.57 1112.39C3406.13 1112.08 3406.69 1111.77 3407.26 1111.45C3407.36 1110.83 3407.46 1110.2 3407.55 1109.57C3409.88 1107.87 3412.12 1106.77 3414.86 1105.89C3414.96 1105.27 3415.06 1104.65 3415.15 1104.01C3403.02 1102.91 3393.54 1106.25 3383.84 1113.58C3383.75 1112.95 3383.66 1112.31 3383.57 1111.66C3382.03 1103.12 3378.31 1098.06 3371.35 1092.98C3366.45 1089.69 3366.45 1089.69 3363.57 1089.24Z" fill="url(#paint15_linear_255_31830)"/>
<defs>
<linearGradient id="paint0_linear_255_31830" x1="485" y1="1738" x2="4853" y2="1092" gradientUnits="userSpaceOnUse">
<stop stop-color="#E5EBB7"/>
<stop offset="1" stop-color="#EEF1DA"/>
</linearGradient>
<linearGradient id="paint1_linear_255_31830" x1="3027.28" y1="1482.7" x2="3092.08" y2="1921.38" gradientUnits="userSpaceOnUse">
<stop stop-color="#E1F0EF"/>
<stop offset="1" stop-color="#A3D6DC"/>
</linearGradient>
<linearGradient id="paint2_linear_255_31830" x1="2233.48" y1="1215.44" x2="2266.16" y2="1423.79" gradientUnits="userSpaceOnUse">
<stop stop-color="#D7C78D"/>
<stop offset="1" stop-color="#71694A"/>
</linearGradient>
<linearGradient id="paint3_linear_255_31830" x1="4094.02" y1="1044.12" x2="4106.47" y2="1123.95" gradientUnits="userSpaceOnUse">
<stop stop-color="#D7C78D"/>
<stop offset="1" stop-color="#71694A"/>
</linearGradient>
<linearGradient id="paint4_linear_255_31830" x1="4247.37" y1="1040.49" x2="4256.73" y2="1100.47" gradientUnits="userSpaceOnUse">
<stop stop-color="#D7C78D"/>
<stop offset="1" stop-color="#71694A"/>
</linearGradient>
<linearGradient id="paint5_linear_255_31830" x1="3756.17" y1="1075.04" x2="3773.66" y2="1187.18" gradientUnits="userSpaceOnUse">
<stop stop-color="#D7C78D"/>
<stop offset="1" stop-color="#71694A"/>
</linearGradient>
<linearGradient id="paint6_linear_255_31830" x1="2940.85" y1="1146.04" x2="2940.85" y2="1305.12" gradientUnits="userSpaceOnUse">
<stop stop-color="#D7C78D"/>
<stop offset="1" stop-color="#71694A"/>
</linearGradient>
<linearGradient id="paint7_linear_255_31830" x1="3811.38" y1="1059.11" x2="3811.38" y2="1175.59" gradientUnits="userSpaceOnUse">
<stop stop-color="#D7C78D"/>
<stop offset="1" stop-color="#71694A"/>
</linearGradient>
<linearGradient id="paint8_linear_255_31830" x1="3319.87" y1="1120.87" x2="3319.87" y2="1250.4" gradientUnits="userSpaceOnUse">
<stop stop-color="#D7C78D"/>
<stop offset="1" stop-color="#71694A"/>
</linearGradient>
<linearGradient id="paint9_linear_255_31830" x1="3027.35" y1="1133.39" x2="3001.98" y2="1296.38" gradientUnits="userSpaceOnUse">
<stop stop-color="#D7C78D"/>
<stop offset="1" stop-color="#71694A"/>
</linearGradient>
<linearGradient id="paint10_linear_255_31830" x1="2877.61" y1="1149.29" x2="2848.37" y2="1337.16" gradientUnits="userSpaceOnUse">
<stop stop-color="#D7C78D"/>
<stop offset="1" stop-color="#71694A"/>
</linearGradient>
<linearGradient id="paint11_linear_255_31830" x1="4296.45" y1="1018.45" x2="4283.77" y2="1099.89" gradientUnits="userSpaceOnUse">
<stop stop-color="#D7C78D"/>
<stop offset="1" stop-color="#71694A"/>
</linearGradient>
<linearGradient id="paint12_linear_255_31830" x1="2366.22" y1="1172.85" x2="2327.48" y2="1420.31" gradientUnits="userSpaceOnUse">
<stop stop-color="#D7C78D"/>
<stop offset="1" stop-color="#71694A"/>
</linearGradient>
<linearGradient id="paint13_linear_255_31830" x1="955.865" y1="1372.27" x2="1001.46" y2="1662.9" gradientUnits="userSpaceOnUse">
<stop stop-color="#D7C78D"/>
<stop offset="1" stop-color="#71694A"/>
</linearGradient>
<linearGradient id="paint14_linear_255_31830" x1="1141.03" y1="1312.87" x2="1086.99" y2="1658.06" gradientUnits="userSpaceOnUse">
<stop stop-color="#D7C78D"/>
<stop offset="1" stop-color="#71694A"/>
</linearGradient>
<linearGradient id="paint15_linear_255_31830" x1="3386.69" y1="1092.84" x2="3363.27" y2="1243.26" gradientUnits="userSpaceOnUse">
<stop stop-color="#D7C78D"/>
<stop offset="1" stop-color="#71694A"/>
</linearGradient>
</defs>
</svg>
