<svg width="84" height="68" viewBox="0 0 84 68" fill="none" xmlns="http://www.w3.org/2000/svg">
<path d="M59 2C68.9411 2 77 10.0589 77 20C77 28.5788 70.9983 35.7545 62.9648 37.5605C61.8427 36.5614 60.5965 35.6987 59.25 35.0029C56.9754 26.8151 49.7536 20.688 41.001 20.0547C41.0009 20.0365 41 20.0182 41 20C41 10.0589 49.0589 2 59 2ZM54 8C50.134 8 47 11.134 47 15C47 18.866 50.134 22 54 22C57.866 22 61 18.866 61 15C61 11.134 57.866 8 54 8ZM54 11C56.2091 11 58 12.7909 58 15C58 17.2091 56.2091 19 54 19C51.7909 19 50 17.2091 50 15C50 12.7909 51.7909 11 54 11Z" fill="black"/>
<path d="M39.5 23C48.0048 23 55.0909 29.0673 56.6699 37.1094C62.1432 39.3458 66 44.7222 66 51C66 59.2843 59.2843 66 51 66C50.6639 66 50.3306 65.9876 50 65.9658V66H21C12.7157 66 6 59.2843 6 51C6 45.654 8.79666 40.9611 13.0068 38.3047C13.0035 38.2035 13 38.102 13 38C13 33.0294 17.0294 29 22 29C23.3059 29 24.546 29.28 25.666 29.7803C28.8674 25.6548 33.8738 23 39.5 23Z" fill="black"/>
</svg>
