<svg width="4682" height="2254" viewBox="0 0 4682 2254" fill="none" xmlns="http://www.w3.org/2000/svg">
<circle cx="3263" cy="445" r="445" fill="url(#paint0_linear_240_29964)" fill-opacity="0.6"/>
<path d="M4039.46 326L4078.24 326L4110.55 330.529L4145.01 339.586L4155.78 345.247L4175.17 356.569L4181.63 362.23L4181.63 364.494L4190.25 363.362L4209.63 363.362L4239.79 366.759L4269.94 374.684L4293.64 386.006L4308.72 398.46L4317.33 409.782L4321.64 418.839L4343.18 424.5L4351.8 413.178L4360.41 407.517L4377.65 401.856L4384.11 400.724L4409.96 399.592L4418.57 393.931L4433.65 390.535L4448.73 390.535L4465.96 395.063L4472.42 398.46L4472.42 400.724L4496.12 400.724L4515.5 405.253L4526.27 409.782L4537.04 421.104L4539.2 426.764L4562.89 422.236L4580.13 422.236L4597.36 425.632L4608.13 430.161L4616.74 438.086L4616.74 449.408L4644.75 443.747L4664.13 441.483L4709.37 441.483L4735.22 444.879L4761.06 451.672L4782.6 460.73L4799.84 472.052L4810.61 484.506L4810.61 489.035L4817.07 487.902L4849.38 487.902L4870.92 491.299L4890.31 498.092L4907.54 508.282L4914 517.339L4914 523L3136.92 523L3130.46 517.339L3130.46 515.074L3126.15 513.942L3128.31 510.546L3124 509.413L3128.31 498.092L3136.92 491.299L3149.85 485.638L3167.08 483.373L3167.08 481.109L3171.39 481.109L3175.7 474.316L3195.08 464.126L3199.39 464.126L3201.55 461.862L3212.32 459.597L3214.47 452.804L3220.93 442.615L3240.32 431.293L3251.09 429.029L3253.24 426.764L3268.32 424.5L3294.17 425.632L3320.02 432.425L3328.63 436.954L3328.63 439.218L3343.71 440.35L3363.1 446.011L3371.71 448.276L3371.71 450.54L3382.48 450.54L3388.95 449.408L3399.72 449.408L3406.18 450.54L3416.95 441.483L3429.87 436.954L3451.41 434.69L3468.64 436.954L3498.8 435.822L3503.11 429.029L3511.73 422.236L3531.11 413.178L3535.42 412.046L3544.04 399.592L3561.27 389.402L3572.04 387.138L3574.19 384.874L3591.42 382.609L3612.97 382.609L3636.66 387.138L3656.05 396.195L3666.82 406.385L3716.36 406.385L3735.74 397.328L3757.29 391.667L3783.13 387.138L3796.06 379.213L3815.44 372.42L3841.29 367.891L3875.76 367.891L3901.61 372.42L3918.84 378.081L3938.22 358.833L3957.61 346.379L3983.46 336.19L4011.46 329.397L4039.46 326Z" fill="#A5BEB1" fill-opacity="0.55"/>
<path d="M2667.48 167L2698.72 167L2724.75 170.655L2752.51 177.965L2761.19 182.534L2776.81 191.672L2782.01 196.241L2782.01 198.069L2788.95 197.155L2804.57 197.155L2828.86 199.896L2853.16 206.293L2872.25 215.431L2884.39 225.483L2891.33 234.621L2894.8 241.931L2912.16 246.5L2919.1 237.362L2926.04 232.793L2939.92 228.224L2945.13 227.31L2965.95 226.397L2972.89 221.828L2985.04 219.086L2997.18 219.086L3011.07 222.741L3016.27 225.483L3016.27 227.31L3035.36 227.31L3050.98 230.965L3059.65 234.621L3068.33 243.759L3070.06 248.328L3089.15 244.672L3103.03 244.672L3116.92 247.414L3125.59 251.069L3132.53 257.465L3132.53 266.603L3155.09 262.034L3170.71 260.207L3207.15 260.207L3227.97 262.948L3248.8 268.431L3266.15 275.741L3280.03 284.879L3288.71 294.931L3288.71 298.586L3293.91 297.672L3319.94 297.672L3337.29 300.414L3352.91 305.897L3366.79 314.121L3372 321.431L3372 326L1940.41 326L1935.21 321.431L1935.21 319.604L1931.74 318.69L1933.47 315.948L1930 315.035L1933.47 305.897L1940.41 300.414L1950.82 295.845L1964.71 294.017L1964.71 292.19L1968.18 292.19L1971.65 286.707L1987.26 278.483L1990.73 278.483L1992.47 276.655L2001.15 274.828L2002.88 269.345L2008.09 261.121L2023.7 251.983L2032.38 250.155L2034.12 248.328L2046.26 246.5L2067.09 247.414L2087.91 252.897L2094.85 256.552L2094.85 258.379L2107 259.293L2122.61 263.862L2129.55 265.69L2129.55 267.517L2138.23 267.517L2143.44 266.604L2152.11 266.604L2157.32 267.517L2166 260.207L2176.41 256.552L2193.76 254.724L2207.64 256.552L2231.94 255.638L2235.41 250.155L2242.35 244.672L2257.96 237.362L2261.43 236.448L2268.38 226.397L2282.26 218.172L2290.93 216.345L2292.67 214.517L2306.55 212.69L2323.9 212.69L2342.99 216.345L2358.61 223.655L2367.29 231.879L2407.2 231.879L2422.81 224.569L2440.17 220L2460.99 216.345L2471.4 209.948L2487.02 204.465L2507.84 200.81L2535.61 200.81L2556.43 204.465L2570.31 209.034L2585.93 193.5L2601.55 183.448L2622.37 175.224L2644.93 169.741L2667.48 167Z" fill="#98B4A7" fill-opacity="0.33"/>
<defs>
<linearGradient id="paint0_linear_240_29964" x1="3263" y1="0" x2="3263" y2="890" gradientUnits="userSpaceOnUse">
<stop stop-color="#DED588"/>
<stop offset="1" stop-color="#DED688" stop-opacity="0.09"/>
</linearGradient>
</defs>
</svg>
