<svg width="4682" height="1821" viewBox="0 0 4682 1821" fill="none" xmlns="http://www.w3.org/2000/svg">
<path fill-rule="evenodd" clip-rule="evenodd" d="M3311.01 232.608C3341.83 277.406 3393.45 306.778 3451.94 306.778C3546.35 306.778 3622.89 230.242 3622.89 135.83C3622.89 80.4611 3596.57 31.2405 3555.75 0C3575.69 27.9104 3587.43 62.0872 3587.43 99.0045C3587.43 193.165 3511.09 269.498 3416.93 269.498C3376.9 269.498 3340.1 255.703 3311.01 232.608Z" fill="url(#paint0_linear_246_33696)"/>
<g opacity="0.5">
<path d="M2741.5 1106.87V1100.68H2607.44V1109.31L2670.21 1115.5C2670.21 1115.5 2723.53 1111.52 2741.5 1106.87Z" fill="#91AFC5"/>
<path d="M2604.56 1104.45C2600.64 1108.27 2746.74 1110.2 2742.99 1104.45C2720.78 1070.39 2635.43 1065.08 2604.56 1104.45Z" fill="#095080"/>
<path d="M2604.48 1107.9C2646.73 1111.66 2704.46 1112.33 2743.06 1106.58C2718.89 1128.7 2627.26 1128.04 2604.48 1107.9Z" fill="#095080"/>
<rect width="5.56409" height="81.6411" transform="matrix(-1 0 0 1 2714.89 1117.27)" fill="#095080"/>
<rect width="4.52088" height="81.8622" transform="matrix(-1 0 0 1 2697.85 1120.37)" fill="#095080"/>
<rect width="4.52083" height="81.6411" transform="matrix(-1 0 0 1 2656.12 1117.27)" fill="#095080"/>
<rect width="5.56409" height="81.8624" transform="matrix(-1 0 0 1 2639.26 1110.85)" fill="#095080"/>
<rect width="4.6947" height="81.8624" transform="matrix(-1 0 0 1 2675.77 1110.85)" fill="#095080"/>
<path d="M2653.68 1037.51V1083.75H2649.08L2652.49 1071.36V1037.51H2653.68Z" fill="#095080"/>
<path d="M2640.99 1049.68V1082.87H2645.51L2642.17 1073.97V1049.68H2640.99Z" fill="#095080"/>
</g>
<g opacity="0.5">
<path d="M3034.9 1136.97V1129.06H2863.77V1140.07L2943.9 1147.98C2943.9 1147.98 3011.96 1142.9 3034.9 1136.97Z" fill="#91AFC5"/>
<path d="M2860.09 1133.87C2855.09 1138.75 3041.59 1141.21 3036.81 1133.87C3008.46 1090.39 2899.5 1083.62 2860.09 1133.87Z" fill="#095080"/>
<path d="M2859.99 1138.28C2913.93 1143.08 2987.62 1143.93 3036.9 1136.59C3006.05 1164.83 2889.07 1163.99 2859.99 1138.28Z" fill="#095080"/>
<rect width="7.10289" height="104.22" transform="matrix(-1 0 0 1 3000.94 1150.24)" fill="#095080"/>
<rect width="5.7711" height="104.502" transform="matrix(-1 0 0 1 2979.19 1154.2)" fill="#095080"/>
<rect width="5.7711" height="104.22" transform="matrix(-1 0 0 1 2925.92 1150.24)" fill="#095080"/>
<rect width="7.10296" height="104.502" transform="matrix(-1 0 0 1 2904.38 1142.05)" fill="#095080"/>
<rect width="5.99301" height="104.502" transform="matrix(-1 0 0 1 2951 1142.05)" fill="#095080"/>
<path d="M2922.8 1048.42V1107.45H2916.92L2921.27 1091.64V1048.42H2922.8Z" fill="#095080"/>
<path d="M2906.6 1063.96V1106.32H2912.37L2908.1 1094.97V1063.96H2906.6Z" fill="#095080"/>
</g>
<g opacity="0.5">
<path d="M2208.57 1097.02V1091.05H2079.53V1099.36L2139.95 1105.32C2139.95 1105.32 2191.28 1101.49 2208.57 1097.02Z" fill="#91AFC5"/>
<path d="M2076.76 1094.68C2072.99 1098.36 2213.62 1100.22 2210.01 1094.68C2188.63 1061.9 2106.47 1056.79 2076.76 1094.68Z" fill="#095080"/>
<path d="M2076.68 1098.01C2117.36 1101.63 2172.92 1102.27 2210.08 1096.73C2186.81 1118.03 2098.61 1117.39 2076.68 1098.01Z" fill="#095080"/>
<rect width="5.35589" height="78.5857" transform="matrix(-1 0 0 1 2182.97 1107.03)" fill="#095080"/>
<rect width="4.35165" height="78.799" transform="matrix(-1 0 0 1 2166.56 1110.01)" fill="#095080"/>
<rect width="4.35173" height="78.5857" transform="matrix(-1 0 0 1 2126.39 1107.03)" fill="#095080"/>
<rect width="5.35589" height="78.7987" transform="matrix(-1 0 0 1 2110.16 1100.85)" fill="#095080"/>
<rect width="4.51895" height="78.7987" transform="matrix(-1 0 0 1 2145.31 1100.85)" fill="#095080"/>
<path d="M2124.05 1030.25V1074.76H2119.61L2122.89 1062.84V1030.25H2124.05Z" fill="#095080"/>
<path d="M2111.83 1041.96V1073.91H2116.18L2112.96 1065.35V1041.96H2111.83Z" fill="#095080"/>
</g>
<g opacity="0.5">
<path d="M1717.96 1135.19V1129.23H1588.91V1137.54L1649.33 1143.5C1649.33 1143.5 1700.66 1139.66 1717.96 1135.19Z" fill="#91AFC5"/>
<path d="M1586.14 1132.86C1582.37 1136.54 1723 1138.39 1719.39 1132.86C1698.02 1100.07 1615.86 1094.97 1586.14 1132.86Z" fill="#095080"/>
<path d="M1586.07 1136.19C1626.74 1139.81 1682.31 1140.45 1719.46 1134.91C1696.2 1156.21 1607.99 1155.57 1586.07 1136.19Z" fill="#095080"/>
<rect width="5.35589" height="78.5857" transform="matrix(-1 0 0 1 1692.35 1145.2)" fill="#095080"/>
<rect width="4.35165" height="78.799" transform="matrix(-1 0 0 1 1675.95 1148.18)" fill="#095080"/>
<rect width="4.35173" height="78.5857" transform="matrix(-1 0 0 1 1635.78 1145.2)" fill="#095080"/>
<rect width="5.35589" height="78.7987" transform="matrix(-1 0 0 1 1619.54 1139.03)" fill="#095080"/>
<rect width="4.51895" height="78.7987" transform="matrix(-1 0 0 1 1654.69 1139.03)" fill="#095080"/>
<path d="M1633.43 1068.43V1112.94H1629L1632.28 1101.01V1068.43H1633.43Z" fill="#095080"/>
<path d="M1621.21 1080.14V1112.09H1625.56L1622.34 1103.53V1080.14H1621.21Z" fill="#095080"/>
</g>
<path d="M2169.51 1003.87V983.563H2608.88V1011.84L2403.16 1032.15C2403.16 1032.15 2228.4 1019.09 2169.51 1003.87Z" fill="#B4CED3"/>
<path d="M2618.31 995.916C2631.14 1008.45 2152.33 1014.76 2164.61 995.916C2237.39 884.294 2517.13 866.898 2618.31 995.916Z" fill="url(#paint1_linear_246_33696)"/>
<path d="M2618.57 1007.25C2480.09 1019.57 2290.89 1021.75 2164.38 1002.9C2243.59 1075.41 2543.91 1073.23 2618.57 1007.25Z" fill="url(#paint2_linear_246_33696)"/>
<path d="M2256.7 1037.95H2274.93V1305.52H2256.7V1037.95Z" fill="url(#paint3_linear_246_33696)"/>
<path d="M2312.55 1048.1H2327.36V1316.39H2312.55V1048.1Z" fill="url(#paint4_linear_246_33696)"/>
<path d="M2449.32 1037.95H2464.13V1305.52H2449.32V1037.95Z" fill="url(#paint5_linear_246_33696)"/>
<path d="M2504.59 1016.92H2522.83V1285.21H2504.59V1016.92Z" fill="url(#paint6_linear_246_33696)"/>
<path d="M2384.92 1016.92H2400.31V1285.21H2384.92V1016.92Z" fill="url(#paint7_linear_246_33696)"/>
<path d="M2457.3 776.543V928.094H2472.4L2461.23 887.487V776.543H2457.3Z" fill="url(#paint8_linear_246_33696)"/>
<path d="M2498.9 816.425V925.193H2484.09L2495.05 896.049V816.425H2498.9Z" fill="url(#paint9_linear_246_33696)"/>
<path d="M2221.22 945.332C2335.11 946.605 2461.31 946.848 2560.97 945.183C2564.6 945.122 2572.56 947.879 2568.93 947.957C2432.84 950.913 2343.56 950.826 2213.98 947.958C2213.98 947.958 2214.95 947.541 2217.6 946.431C2220.52 945.21 2221.22 945.332 2221.22 945.332Z" fill="#486E87"/>
<path d="M2212.18 973.852C2339.96 975.124 2481.55 975.367 2593.36 973.702C2597.44 973.641 2606.37 976.398 2602.3 976.477C2449.61 979.433 2349.44 979.345 2204.06 976.477C2204.06 976.477 2205.14 976.061 2208.12 974.951C2211.4 973.73 2212.18 973.852 2212.18 973.852Z" fill="#486E87"/>
<path d="M1308.51 1024.29V1010.77H1601.07V1029.6L1464.08 1043.12C1464.08 1043.12 1347.72 1034.43 1308.51 1024.29Z" fill="#B4CED3"/>
<path d="M1607.35 1019C1615.89 1027.35 1297.07 1031.55 1305.25 1019C1353.71 944.675 1539.98 933.092 1607.35 1019Z" fill="url(#paint10_linear_246_33696)"/>
<path d="M1607.51 1026.54C1515.31 1034.75 1389.33 1036.2 1305.09 1023.65C1357.84 1071.93 1557.81 1070.48 1607.51 1026.54Z" fill="url(#paint11_linear_246_33696)"/>
<path d="M1366.56 1046.99H1378.71V1225.15H1366.56V1046.99Z" fill="url(#paint12_linear_246_33696)"/>
<path d="M1403.75 1053.74H1413.62V1232.39H1403.75V1053.74Z" fill="url(#paint13_linear_246_33696)"/>
<path d="M1494.82 1046.99H1504.68V1225.15H1494.82V1046.99Z" fill="url(#paint14_linear_246_33696)"/>
<path d="M1531.62 1032.98H1543.77V1211.63H1531.62V1032.98Z" fill="url(#paint15_linear_246_33696)"/>
<path d="M1451.94 1032.98H1462.18V1211.63H1451.94V1032.98Z" fill="url(#paint16_linear_246_33696)"/>
<path d="M1500.14 872.929V973.84H1510.19L1502.75 946.801V872.929H1500.14Z" fill="url(#paint17_linear_246_33696)"/>
<path d="M1527.84 899.484V971.908H1517.97L1525.27 952.503V899.484H1527.84Z" fill="url(#paint18_linear_246_33696)"/>
<path d="M1342.94 985.318C1418.77 986.165 1502.8 986.327 1569.16 985.218C1571.58 985.178 1576.88 987.014 1574.46 987.066C1483.85 989.034 1424.4 988.976 1338.12 987.066C1338.12 987.066 1338.76 986.789 1340.53 986.05C1342.47 985.237 1342.94 985.318 1342.94 985.318Z" fill="#486E87"/>
<path d="M1336.92 1004.31C1422.01 1005.15 1516.28 1005.32 1590.73 1004.21C1593.45 1004.17 1599.4 1006 1596.68 1006.06C1495.01 1008.02 1428.32 1007.97 1331.51 1006.06C1331.51 1006.06 1332.23 1005.78 1334.22 1005.04C1336.4 1004.23 1336.92 1004.31 1336.92 1004.31Z" fill="#486E87"/>
<g opacity="0.5">
<path d="M1806.17 1057.57V1048.81H2020.86V1061.02L1920.34 1069.78C1920.34 1069.78 1834.95 1064.15 1806.17 1057.57Z" fill="#7AA5C4"/>
<path d="M2025.87 1049C2023.92 1059.45 1797.78 1057.14 1803.78 1049C1839.34 1000.8 1976.43 993.293 2025.87 1049Z" fill="#003C65"/>
<path d="M2025.87 1057.15C1961.27 1066.03 1863.81 1064.77 1803.39 1055.38C1840.42 1089.93 1988 1092.64 2025.87 1057.15Z" fill="#003C65"/>
<rect x="1848.78" y="1070.72" width="8.91043" height="94.8638" fill="#003C65"/>
<rect x="1876.07" y="1074.17" width="7.23972" height="95.1767" fill="#003C65"/>
<rect x="1942.9" y="1070.72" width="7.23972" height="87.6632" fill="#003C65"/>
<rect x="1969.9" y="1063.21" width="8.91043" height="95.1767" fill="#003C65"/>
<rect x="1911.43" y="1063.21" width="7.51819" height="95.1767" fill="#003C65"/>
<path d="M1921.17 865.654V904.476H1925.63L1922.33 894.074V865.654H1921.17Z" fill="#003C65"/>
<path d="M1918.39 877.238V904.476H1913.93L1917.23 897.178V877.238H1918.39Z" fill="#003C65"/>
<path d="M1838.47 985.251V1032.21H1831.23L1836.59 1019.63V985.251H1838.47Z" fill="#003C65"/>
<path d="M1933.93 901.032H1900.74C1906.82 966.235 1865.48 1008.93 1844.04 1022.12C1918.72 1021.09 2009.3 1032.46 1990.23 1025.01C1943.73 1006.85 1933.93 961.578 1933.93 901.032Z" fill="#003C65"/>
<rect x="1961.83" y="953.005" width="1.39225" height="31.9344" fill="#003C65"/>
<rect x="1960.71" y="972.728" width="3.61986" height="7.51397" fill="#003C65"/>
<rect x="1960.71" y="955.194" width="3.61986" height="15.0279" fill="#003C65"/>
<ellipse cx="1983.69" cy="953.006" rx="0.696127" ry="0.939246" fill="#003C65"/>
<path d="M1958.9 988.997L1957.65 1021.87L1970.46 1029.08L1966.55 988.997C1965.12 983.386 1959.79 983.787 1958.9 988.997Z" fill="#003C65"/>
</g>
<g opacity="0.5">
<path d="M1135.27 1164.02V1157.62H1292.04V1166.54L1218.64 1172.94C1218.64 1172.94 1156.28 1168.82 1135.27 1164.02Z" fill="#7AA5C4"/>
<path d="M1295.7 1157.76C1294.28 1165.39 1129.14 1163.7 1133.52 1157.76C1159.49 1122.57 1259.6 1117.08 1295.7 1157.76Z" fill="#003C65"/>
<path d="M1295.7 1163.72C1248.53 1170.19 1177.36 1169.28 1133.24 1162.42C1160.28 1187.65 1268.05 1189.63 1295.7 1163.72Z" fill="#003C65"/>
<rect x="1166.38" y="1173.62" width="6.50688" height="69.2747" fill="#003C65"/>
<rect x="1186.31" y="1176.14" width="5.28683" height="69.5032" fill="#003C65"/>
<rect x="1235.11" y="1173.62" width="5.28683" height="64.0164" fill="#003C65"/>
<rect x="1254.83" y="1168.14" width="6.50688" height="69.5032" fill="#003C65"/>
<rect x="1212.13" y="1168.14" width="5.49019" height="69.5032" fill="#003C65"/>
<path d="M1219.25 1023.87V1052.22H1222.5L1220.09 1044.63V1023.87H1219.25Z" fill="#003C65"/>
<path d="M1217.21 1032.33V1052.22H1213.96L1216.37 1046.89V1032.33H1217.21Z" fill="#003C65"/>
<path d="M1158.86 1111.21V1145.5H1153.57L1157.48 1136.31V1111.21H1158.86Z" fill="#003C65"/>
<path d="M1228.56 1049.71H1204.32C1208.77 1097.32 1178.57 1128.5 1162.92 1138.14C1217.45 1137.38 1283.6 1145.68 1269.68 1140.25C1235.72 1126.98 1228.56 1093.92 1228.56 1049.71Z" fill="#003C65"/>
<rect x="1248.94" y="1087.66" width="1.0167" height="23.3202" fill="#003C65"/>
<rect x="1248.12" y="1102.06" width="2.64342" height="5.48711" fill="#003C65"/>
<rect x="1248.12" y="1089.26" width="2.64342" height="10.9742" fill="#003C65"/>
<ellipse cx="1264.9" cy="1087.66" rx="0.50835" ry="0.685888" fill="#003C65"/>
<path d="M1246.79 1113.94L1245.88 1137.95L1255.24 1143.22L1252.38 1113.94C1251.34 1109.85 1247.44 1110.14 1246.79 1113.94Z" fill="#003C65"/>
</g>
<g opacity="0.5">
<path d="M3270.3 1156.75V1150.35H3427.08V1159.26L3353.67 1165.66C3353.67 1165.66 3291.31 1161.55 3270.3 1156.75Z" fill="#7AA5C4"/>
<path d="M3430.74 1150.49C3429.31 1158.12 3264.17 1156.43 3268.55 1150.49C3294.52 1115.29 3394.63 1109.81 3430.74 1150.49Z" fill="#003C65"/>
<path d="M3430.74 1156.44C3383.56 1162.92 3312.39 1162.01 3268.27 1155.15C3295.31 1180.37 3403.08 1182.35 3430.74 1156.44Z" fill="#003C65"/>
<rect x="3301.41" y="1166.35" width="6.50688" height="69.2747" fill="#003C65"/>
<rect x="3321.34" y="1168.87" width="5.28683" height="69.5032" fill="#003C65"/>
<rect x="3370.14" y="1166.35" width="5.28683" height="64.0164" fill="#003C65"/>
<rect x="3389.87" y="1160.86" width="6.50688" height="69.5032" fill="#003C65"/>
<rect x="3347.16" y="1160.86" width="5.49019" height="69.5032" fill="#003C65"/>
<path d="M3354.28 1016.6V1044.95H3357.53L3355.13 1037.35V1016.6H3354.28Z" fill="#003C65"/>
<path d="M3352.25 1025.06V1044.95H3348.99L3351.4 1039.62V1025.06H3352.25Z" fill="#003C65"/>
<path d="M3293.89 1103.93V1138.23H3288.6L3292.51 1129.04V1103.93H3293.89Z" fill="#003C65"/>
<path d="M3363.59 1042.43H3339.36C3343.8 1090.05 3313.61 1121.22 3297.96 1130.86C3352.49 1130.11 3418.64 1138.41 3404.71 1132.97C3370.75 1119.71 3363.59 1086.65 3363.59 1042.43Z" fill="#003C65"/>
<rect x="3383.97" y="1080.39" width="1.0167" height="23.3202" fill="#003C65"/>
<rect x="3383.15" y="1094.79" width="2.64342" height="5.48711" fill="#003C65"/>
<rect x="3383.15" y="1081.99" width="2.64342" height="10.9742" fill="#003C65"/>
<ellipse cx="3399.93" cy="1080.39" rx="0.50835" ry="0.685888" fill="#003C65"/>
<path d="M3381.83 1106.67L3380.92 1130.67L3390.27 1135.94L3387.41 1106.67C3386.38 1102.57 3382.48 1102.86 3381.83 1106.67Z" fill="#003C65"/>
</g>
<path d="M-299.656 1190.87C-413.885 1194.57 -460.291 1180.07 -469.215 1172.36V1345.88H5331.48V1172.36C4931.68 1109.43 4331.98 1138.42 4082.1 1160.79C3888.74 1191.64 3387.8 1237.14 2930.88 1172.36C2473.97 1107.57 1943.28 1145.36 1735.05 1172.36C1535.74 1210.15 1037.18 1266.75 637.379 1190.87C137.627 1096.01 -156.87 1186.24 -299.656 1190.87Z" fill="#095080"/>
<rect x="251.219" y="1317.58" width="4272.79" height="566.493" fill="#095080"/>
<defs>
<linearGradient id="paint0_linear_246_33696" x1="3317.2" y1="5.10236" x2="3513.49" y2="265.747" gradientUnits="userSpaceOnUse">
<stop stop-color="#7E96A6"/>
<stop offset="1" stop-color="#8199A9" stop-opacity="0.07"/>
</linearGradient>
<linearGradient id="paint1_linear_246_33696" x1="2391.47" y1="776.543" x2="2391.3" y2="1237.2" gradientUnits="userSpaceOnUse">
<stop stop-color="#47677D"/>
<stop offset="1" stop-color="#095080"/>
</linearGradient>
<linearGradient id="paint2_linear_246_33696" x1="2391.47" y1="776.543" x2="2391.3" y2="1237.2" gradientUnits="userSpaceOnUse">
<stop stop-color="#47677D"/>
<stop offset="1" stop-color="#095080"/>
</linearGradient>
<linearGradient id="paint3_linear_246_33696" x1="2391.47" y1="776.543" x2="2391.3" y2="1237.2" gradientUnits="userSpaceOnUse">
<stop stop-color="#47677D"/>
<stop offset="1" stop-color="#095080"/>
</linearGradient>
<linearGradient id="paint4_linear_246_33696" x1="2391.47" y1="776.543" x2="2391.3" y2="1237.2" gradientUnits="userSpaceOnUse">
<stop stop-color="#47677D"/>
<stop offset="1" stop-color="#095080"/>
</linearGradient>
<linearGradient id="paint5_linear_246_33696" x1="2391.47" y1="776.543" x2="2391.3" y2="1237.2" gradientUnits="userSpaceOnUse">
<stop stop-color="#47677D"/>
<stop offset="1" stop-color="#095080"/>
</linearGradient>
<linearGradient id="paint6_linear_246_33696" x1="2391.47" y1="776.543" x2="2391.3" y2="1237.2" gradientUnits="userSpaceOnUse">
<stop stop-color="#47677D"/>
<stop offset="1" stop-color="#095080"/>
</linearGradient>
<linearGradient id="paint7_linear_246_33696" x1="2391.47" y1="776.543" x2="2391.3" y2="1237.2" gradientUnits="userSpaceOnUse">
<stop stop-color="#47677D"/>
<stop offset="1" stop-color="#095080"/>
</linearGradient>
<linearGradient id="paint8_linear_246_33696" x1="2391.47" y1="776.543" x2="2391.3" y2="1237.2" gradientUnits="userSpaceOnUse">
<stop stop-color="#47677D"/>
<stop offset="1" stop-color="#095080"/>
</linearGradient>
<linearGradient id="paint9_linear_246_33696" x1="2391.47" y1="776.543" x2="2391.3" y2="1237.2" gradientUnits="userSpaceOnUse">
<stop stop-color="#47677D"/>
<stop offset="1" stop-color="#095080"/>
</linearGradient>
<linearGradient id="paint10_linear_246_33696" x1="1456.3" y1="872.929" x2="1456.19" y2="1179.66" gradientUnits="userSpaceOnUse">
<stop stop-color="#47677D"/>
<stop offset="1" stop-color="#095080"/>
</linearGradient>
<linearGradient id="paint11_linear_246_33696" x1="1456.3" y1="872.929" x2="1456.19" y2="1179.66" gradientUnits="userSpaceOnUse">
<stop stop-color="#47677D"/>
<stop offset="1" stop-color="#095080"/>
</linearGradient>
<linearGradient id="paint12_linear_246_33696" x1="1456.3" y1="872.929" x2="1456.19" y2="1179.66" gradientUnits="userSpaceOnUse">
<stop stop-color="#47677D"/>
<stop offset="1" stop-color="#095080"/>
</linearGradient>
<linearGradient id="paint13_linear_246_33696" x1="1456.3" y1="872.929" x2="1456.19" y2="1179.66" gradientUnits="userSpaceOnUse">
<stop stop-color="#47677D"/>
<stop offset="1" stop-color="#095080"/>
</linearGradient>
<linearGradient id="paint14_linear_246_33696" x1="1456.3" y1="872.929" x2="1456.19" y2="1179.66" gradientUnits="userSpaceOnUse">
<stop stop-color="#47677D"/>
<stop offset="1" stop-color="#095080"/>
</linearGradient>
<linearGradient id="paint15_linear_246_33696" x1="1456.3" y1="872.929" x2="1456.19" y2="1179.66" gradientUnits="userSpaceOnUse">
<stop stop-color="#47677D"/>
<stop offset="1" stop-color="#095080"/>
</linearGradient>
<linearGradient id="paint16_linear_246_33696" x1="1456.3" y1="872.929" x2="1456.19" y2="1179.66" gradientUnits="userSpaceOnUse">
<stop stop-color="#47677D"/>
<stop offset="1" stop-color="#095080"/>
</linearGradient>
<linearGradient id="paint17_linear_246_33696" x1="1456.3" y1="872.929" x2="1456.19" y2="1179.66" gradientUnits="userSpaceOnUse">
<stop stop-color="#47677D"/>
<stop offset="1" stop-color="#095080"/>
</linearGradient>
<linearGradient id="paint18_linear_246_33696" x1="1456.3" y1="872.929" x2="1456.19" y2="1179.66" gradientUnits="userSpaceOnUse">
<stop stop-color="#47677D"/>
<stop offset="1" stop-color="#095080"/>
</linearGradient>
</defs>
</svg>
