<svg width="4682" height="1533" viewBox="0 0 4682 1533" fill="none" xmlns="http://www.w3.org/2000/svg">
<path d="M2659.45 315.344C2655.89 330.205 2656.55 344.42 2662.36 351.85L2647.5 359.603C2644.4 345.13 2628.54 336.342 2621.01 333.758C2618.42 328.589 2606.02 342.396 2577.07 278.837C2574.74 273.717 2572.73 268.854 2571.03 264.24L2539.92 276.576L2541.54 264.3L2567.58 253.856C2555.63 213.331 2569.17 194.772 2582.24 189.025C2616.05 174.16 2632.78 201.988 2642.85 223.675L2673.67 211.317L2686.59 218.424L2647.45 233.942C2648.89 237.178 2650.18 239.958 2651.37 242.007C2659.45 255.9 2663.33 299.191 2659.45 315.344Z" fill="url(#paint0_linear_246_33694)"/>
<rect x="2576.43" y="239.801" width="56.2134" height="9.04584" rx="4.52292" transform="rotate(-21.2852 2576.43 239.801)" fill="url(#paint1_linear_246_33694)"/>
<path fill-rule="evenodd" clip-rule="evenodd" d="M2631.99 266.558C2636.99 266.558 2641.04 262.508 2641.04 257.513C2641.04 252.517 2636.99 248.467 2631.99 248.467C2627 248.467 2622.95 252.517 2622.95 257.513C2622.95 262.508 2627 266.558 2631.99 266.558ZM2631.99 262.035C2634.49 262.035 2636.52 260.01 2636.52 257.512C2636.52 255.014 2634.49 252.989 2631.99 252.989C2629.5 252.989 2627.47 255.014 2627.47 257.512C2627.47 260.01 2629.5 262.035 2631.99 262.035Z" fill="url(#paint2_linear_246_33694)"/>
<path fill-rule="evenodd" clip-rule="evenodd" d="M2601.62 278.839C2606.62 278.839 2610.67 274.789 2610.67 269.793C2610.67 264.797 2606.62 260.747 2601.62 260.747C2596.63 260.747 2592.58 264.797 2592.58 269.793C2592.58 274.789 2596.63 278.839 2601.62 278.839ZM2601.63 274.315C2604.12 274.315 2606.15 272.29 2606.15 269.793C2606.15 267.295 2604.12 265.27 2601.63 265.27C2599.13 265.27 2597.1 267.295 2597.1 269.793C2597.1 272.29 2599.13 274.315 2601.63 274.315Z" fill="#C9CFB9"/>
<rect x="-399.079" y="1117.13" width="5650.75" height="478.857" fill="#003C65"/>
<path d="M5179.08 1001.84C5260.57 1005.05 5293.67 992.461 5300.04 985.762V1136.48H1161.81V985.762C1447.03 931.102 1874.86 956.289 2053.12 975.715C2191.06 1002.51 2548.44 1042.03 2874.4 985.762C3200.37 929.495 3578.96 962.318 3727.51 985.762C3869.7 1018.59 4225.37 1067.75 4510.59 1001.84C4867.12 919.447 5077.21 997.82 5179.08 1001.84Z" fill="#003C65"/>
<path d="M3470.66 1001.84C3552.15 1005.05 3585.26 992.461 3591.62 985.762V1136.48H-546.605V985.762C-261.386 931.102 166.443 956.289 344.705 975.715C482.646 1002.51 840.019 1042.03 1165.98 985.762C1491.95 929.495 1870.54 962.318 2019.1 985.762C2161.28 1018.59 2516.96 1067.75 2802.18 1001.84C3158.7 919.447 3368.79 997.82 3470.66 1001.84Z" fill="#003C65"/>
<path d="M2593.9 671.479L2585.85 640.839H3336.22L3329 671.479L2984.88 714.156C2984.88 714.156 2694.47 694.459 2593.9 671.479Z" fill="url(#paint3_linear_246_33694)"/>
<path d="M3353.74 641.507C3346.93 678.045 2556.5 669.947 2577.49 641.507C2701.79 473.057 3180.95 446.805 3353.74 641.507Z" fill="url(#paint4_linear_246_33694)"/>
<path d="M3353.74 663.819C3158.13 697.487 2787.31 696.648 2576.12 663.819C2698.75 785.005 3229.17 778.585 3353.74 663.819Z" fill="url(#paint5_linear_246_33694)"/>
<path d="M2734.76 717.44H2765.9V1049.01H2734.76V717.44Z" fill="url(#paint6_linear_246_33694)"/>
<path d="M2830.14 729.477H2855.44V1062.14H2830.14V729.477Z" fill="url(#paint7_linear_246_33694)"/>
<path d="M3063.71 717.44H3089.02V1023.84H3063.71V717.44Z" fill="url(#paint8_linear_246_33694)"/>
<path d="M3158.13 691.177H3189.25V1023.62H3158.13V691.177Z" fill="url(#paint9_linear_246_33694)"/>
<path d="M2953.74 691.177H2980.02V1023.84H2953.74V691.177Z" fill="url(#paint10_linear_246_33694)"/>
<path d="M2987.8 0.681641V136.373H3003.37L2991.85 100.016V0.681641H2987.8Z" fill="url(#paint11_linear_246_33694)"/>
<path d="M2978.07 41.1704V136.373H2962.5L2974.02 110.864V41.1704H2978.07Z" fill="url(#paint12_linear_246_33694)"/>
<path d="M2698.75 418.699V582.842H2673.44L2692.17 538.861V418.699H2698.75Z" fill="url(#paint13_linear_246_33694)"/>
<path d="M3032.37 124.336H2916.37C2937.64 352.235 2793.13 501.454 2718.21 547.577C2979.21 543.959 3295.82 583.702 3229.17 557.674C3066.63 494.205 3032.37 335.956 3032.37 124.336Z" fill="url(#paint14_linear_246_33694)"/>
<path d="M3129.9 305.987H3134.76V417.605H3129.9V305.987Z" fill="url(#paint15_linear_246_33694)"/>
<path d="M3126 374.928H3138.65V401.191H3126V374.928Z" fill="url(#paint16_linear_246_33694)"/>
<path d="M3126 313.648H3138.65V366.174H3126V313.648Z" fill="url(#paint17_linear_246_33694)"/>
<path d="M3134.84 305.71C3134.84 307.523 3133.75 308.993 3132.41 308.993C3131.07 308.993 3129.98 307.523 3129.98 305.71C3129.98 303.897 3131.07 302.427 3132.41 302.427C3133.75 302.427 3134.84 303.897 3134.84 305.71Z" fill="url(#paint18_linear_246_33694)"/>
<path d="M3119.65 431.795L3115.3 546.68L3160.07 571.899L3146.39 431.795C3141.41 412.181 3122.76 413.582 3119.65 431.795Z" fill="url(#paint19_linear_246_33694)"/>
<path d="M2662.45 575.262C2862.97 586.243 3083.35 586.802 3259.54 575.077C3265.91 574.653 3279.91 578.105 3273.53 578.502C3033.35 593.441 2881.33 588.34 2649.72 578.502C2649.72 578.502 2651.42 577.988 2656.09 576.618C2661.22 575.111 2662.45 575.262 2662.45 575.262Z" fill="#486E87"/>
<path d="M2622.3 604.85C2849.7 616.878 3100.69 616.077 3298.28 604.666C3305.5 604.249 3321.35 607.727 3314.13 608.09C3078.25 619.969 2862.96 622.009 2607.89 608.09C2607.89 608.09 2609.81 607.577 2615.09 606.207C2620.9 604.699 2622.3 604.85 2622.3 604.85Z" fill="#486E87"/>
<defs>
<linearGradient id="paint0_linear_246_33694" x1="2613.26" y1="184.837" x2="2613.26" y2="359.603" gradientUnits="userSpaceOnUse">
<stop stop-color="#095080"/>
<stop offset="1" stop-color="#084670"/>
</linearGradient>
<linearGradient id="paint1_linear_246_33694" x1="2576.43" y1="244.324" x2="2632.64" y2="244.324" gradientUnits="userSpaceOnUse">
<stop stop-color="#C9CFB9"/>
<stop offset="1" stop-color="#98B8CE"/>
</linearGradient>
<linearGradient id="paint2_linear_246_33694" x1="2622.42" y1="262.754" x2="2645.91" y2="253.014" gradientUnits="userSpaceOnUse">
<stop stop-color="#C1CBBD"/>
<stop offset="1" stop-color="#9DBACD"/>
</linearGradient>
<linearGradient id="paint3_linear_246_33694" x1="2585.85" y1="677.498" x2="3336.22" y2="677.498" gradientUnits="userSpaceOnUse">
<stop stop-color="#C9CFB9"/>
<stop offset="1" stop-color="#96B7CE"/>
</linearGradient>
<linearGradient id="paint4_linear_246_33694" x1="2964.93" y1="0.681641" x2="2964.93" y2="1062.14" gradientUnits="userSpaceOnUse">
<stop stop-color="#0E5C91"/>
<stop offset="0.86" stop-color="#003C65"/>
</linearGradient>
<linearGradient id="paint5_linear_246_33694" x1="2964.93" y1="0.681641" x2="2964.93" y2="1062.14" gradientUnits="userSpaceOnUse">
<stop stop-color="#0E5C91"/>
<stop offset="0.86" stop-color="#003C65"/>
</linearGradient>
<linearGradient id="paint6_linear_246_33694" x1="2964.93" y1="0.681641" x2="2964.93" y2="1062.14" gradientUnits="userSpaceOnUse">
<stop stop-color="#0E5C91"/>
<stop offset="0.86" stop-color="#003C65"/>
</linearGradient>
<linearGradient id="paint7_linear_246_33694" x1="2964.93" y1="0.681641" x2="2964.93" y2="1062.14" gradientUnits="userSpaceOnUse">
<stop stop-color="#0E5C91"/>
<stop offset="0.86" stop-color="#003C65"/>
</linearGradient>
<linearGradient id="paint8_linear_246_33694" x1="2964.93" y1="0.681641" x2="2964.93" y2="1062.14" gradientUnits="userSpaceOnUse">
<stop stop-color="#0E5C91"/>
<stop offset="0.86" stop-color="#003C65"/>
</linearGradient>
<linearGradient id="paint9_linear_246_33694" x1="2964.93" y1="0.681641" x2="2964.93" y2="1062.14" gradientUnits="userSpaceOnUse">
<stop stop-color="#0E5C91"/>
<stop offset="0.86" stop-color="#003C65"/>
</linearGradient>
<linearGradient id="paint10_linear_246_33694" x1="2964.93" y1="0.681641" x2="2964.93" y2="1062.14" gradientUnits="userSpaceOnUse">
<stop stop-color="#0E5C91"/>
<stop offset="0.86" stop-color="#003C65"/>
</linearGradient>
<linearGradient id="paint11_linear_246_33694" x1="2964.93" y1="0.681641" x2="2964.93" y2="1062.14" gradientUnits="userSpaceOnUse">
<stop stop-color="#0E5C91"/>
<stop offset="0.86" stop-color="#003C65"/>
</linearGradient>
<linearGradient id="paint12_linear_246_33694" x1="2964.93" y1="0.681641" x2="2964.93" y2="1062.14" gradientUnits="userSpaceOnUse">
<stop stop-color="#0E5C91"/>
<stop offset="0.86" stop-color="#003C65"/>
</linearGradient>
<linearGradient id="paint13_linear_246_33694" x1="2964.93" y1="0.681641" x2="2964.93" y2="1062.14" gradientUnits="userSpaceOnUse">
<stop stop-color="#0E5C91"/>
<stop offset="0.86" stop-color="#003C65"/>
</linearGradient>
<linearGradient id="paint14_linear_246_33694" x1="2964.93" y1="0.681641" x2="2964.93" y2="1062.14" gradientUnits="userSpaceOnUse">
<stop stop-color="#0E5C91"/>
<stop offset="0.86" stop-color="#003C65"/>
</linearGradient>
<linearGradient id="paint15_linear_246_33694" x1="2964.93" y1="0.681641" x2="2964.93" y2="1062.14" gradientUnits="userSpaceOnUse">
<stop stop-color="#0E5C91"/>
<stop offset="0.86" stop-color="#003C65"/>
</linearGradient>
<linearGradient id="paint16_linear_246_33694" x1="2964.93" y1="0.681641" x2="2964.93" y2="1062.14" gradientUnits="userSpaceOnUse">
<stop stop-color="#0E5C91"/>
<stop offset="0.86" stop-color="#003C65"/>
</linearGradient>
<linearGradient id="paint17_linear_246_33694" x1="2964.93" y1="0.681641" x2="2964.93" y2="1062.14" gradientUnits="userSpaceOnUse">
<stop stop-color="#0E5C91"/>
<stop offset="0.86" stop-color="#003C65"/>
</linearGradient>
<linearGradient id="paint18_linear_246_33694" x1="2964.93" y1="0.681641" x2="2964.93" y2="1062.14" gradientUnits="userSpaceOnUse">
<stop stop-color="#0E5C91"/>
<stop offset="0.86" stop-color="#003C65"/>
</linearGradient>
<linearGradient id="paint19_linear_246_33694" x1="2964.93" y1="0.681641" x2="2964.93" y2="1062.14" gradientUnits="userSpaceOnUse">
<stop stop-color="#0E5C91"/>
<stop offset="0.86" stop-color="#003C65"/>
</linearGradient>
</defs>
</svg>
