<svg width="4682" height="1644" viewBox="0 0 4682 1644" fill="none" xmlns="http://www.w3.org/2000/svg">
<rect x="-430.52" y="1327.29" width="5748.7" height="379.699" fill="#05253A"/>
<path d="M-427.089 1211.2C-524.713 1213.97 -564.373 1203.13 -572 1197.36V1327.1H4385.49V1197.36C4043.81 1150.31 3531.28 1171.99 3317.72 1188.71C3152.47 1211.78 2724.35 1245.8 2333.85 1197.36C1943.36 1148.93 1489.81 1177.18 1311.85 1197.36C1141.51 1225.61 715.423 1267.94 373.737 1211.2C-53.3701 1140.28 -305.058 1207.74 -427.089 1211.2Z" fill="#05253A"/>
<path d="M1809.99 1228.13C1712.37 1230.9 1672.71 1220.06 1665.08 1214.29V1344.03H6622.57V1214.29C6280.89 1167.24 5768.36 1188.92 5554.81 1205.64C5389.56 1228.71 4961.43 1262.73 4570.94 1214.29C4180.44 1165.86 3726.89 1194.11 3548.93 1214.29C3378.59 1242.54 2952.5 1284.87 2610.82 1228.13C2183.71 1157.21 1932.02 1224.67 1809.99 1228.13Z" fill="#05253A"/>
<rect x="1668.06" y="56.1445" width="104.162" height="14.3547" fill="url(#paint0_linear_246_33692)"/>
<path d="M1390.65 586.018L1378.72 537.828H2494.12L2481.94 596.523L1971.86 644.693C1971.86 644.693 1540.14 619.512 1390.65 586.018Z" fill="url(#paint1_linear_246_33692)"/>
<path d="M1777.28 58.5335H1660.82C1662.27 34.6084 1679.01 0.311993 1720.14 0.316407C1758.47 0.320522 1775.35 38.3303 1777.28 58.5335Z" fill="url(#paint2_linear_246_33692)"/>
<path d="M1783.79 338.458V402.258C1746.76 423.95 1645.87 418.739 1600.06 413.422C1615.49 385.776 1652.2 328.417 1663.72 309.748C1676.01 289.807 1683.97 270.937 1685.42 261.898L1689.76 158.224C1689.76 133.498 1679.63 116.751 1670.95 105.59C1661.64 93.6234 1650.7 76.876 1646.36 67.31C1690.38 70.3914 1785.61 69.4946 1792.12 67.5215C1792.44 66.1733 1792.55 65.851 1792.47 67.31C1792.47 67.3817 1792.35 67.4523 1792.12 67.5215C1791.21 71.3214 1788.6 83.271 1783.79 86.4499C1754.86 105.59 1746.18 142.588 1746.18 158.224V185.339C1746.18 206.318 1749.07 246.746 1767.88 268.279C1786.69 289.811 1784.76 326.23 1783.79 338.458Z" fill="url(#paint3_linear_246_33692)"/>
<path d="M2518.07 515.434C2550.64 543.007 1334.5 556.886 1365.7 515.434C1550.46 269.908 2261.22 231.644 2518.07 515.434Z" fill="url(#paint4_linear_246_33692)"/>
<path d="M2518.07 580.354C2126.19 609.277 1825.33 620.16 1365.7 580.354C1566.79 739.853 2328.55 725.498 2518.07 580.354Z" fill="url(#paint5_linear_246_33692)"/>
<path d="M1600.35 667.437H1646.8V1391.03H1600.35V667.437Z" fill="url(#paint6_linear_246_33692)"/>
<path d="M1740.9 639.859H1777.83V1002.36V1364.76H1740.9V639.859Z" fill="url(#paint7_linear_246_33692)"/>
<path d="M2088.71 667.437H2126.83V1391.03H2088.71V667.437Z" fill="url(#paint8_linear_246_33692)"/>
<path d="M2229.27 610.968H2275.72V1335.87H2229.27V610.968Z" fill="url(#paint9_linear_246_33692)"/>
<path d="M1925.53 610.968H1964.84V1335.87H1925.53V610.968Z" fill="url(#paint10_linear_246_33692)"/>
<path d="M1898.08 24.2418V357.594H1936.42L1908.05 268.275V24.2418H1898.08Z" fill="url(#paint11_linear_246_33692)"/>
<path d="M2003.69 111.965V351.214H1966.08L1993.91 287.109V111.965H2003.69Z" fill="url(#paint12_linear_246_33692)"/>
<path d="M1610.98 385.415C1671.79 379.033 1736.74 366.524 1788.59 352.826C1790.48 352.327 1800.01 354.181 1798.13 354.733C1744.71 370.421 1670.87 387.871 1600.99 390.983C1600.99 390.983 1606.63 390.939 1609.61 388.945C1615.61 384.918 1610.98 385.415 1610.98 385.415Z" fill="#4B718A"/>
<defs>
<linearGradient id="paint0_linear_246_33692" x1="1668.06" y1="63.3219" x2="1827.95" y2="63.3219" gradientUnits="userSpaceOnUse">
<stop stop-color="#C9CFB9"/>
<stop offset="1" stop-color="#96B7CE"/>
</linearGradient>
<linearGradient id="paint1_linear_246_33692" x1="1378.72" y1="591.26" x2="2494.12" y2="591.26" gradientUnits="userSpaceOnUse">
<stop stop-color="#C9CFB9"/>
<stop offset="1" stop-color="#94B6CE"/>
</linearGradient>
<linearGradient id="paint2_linear_246_33692" x1="1942.2" y1="0.316406" x2="1942.2" y2="1391.03" gradientUnits="userSpaceOnUse">
<stop stop-color="#135986"/>
<stop offset="0.9" stop-color="#05253A"/>
</linearGradient>
<linearGradient id="paint3_linear_246_33692" x1="1942.2" y1="0.316406" x2="1942.2" y2="1391.03" gradientUnits="userSpaceOnUse">
<stop stop-color="#135986"/>
<stop offset="0.9" stop-color="#05253A"/>
</linearGradient>
<linearGradient id="paint4_linear_246_33692" x1="1942.2" y1="0.316406" x2="1942.2" y2="1391.03" gradientUnits="userSpaceOnUse">
<stop stop-color="#135986"/>
<stop offset="0.9" stop-color="#05253A"/>
</linearGradient>
<linearGradient id="paint5_linear_246_33692" x1="1942.2" y1="0.316406" x2="1942.2" y2="1391.03" gradientUnits="userSpaceOnUse">
<stop stop-color="#135986"/>
<stop offset="0.9" stop-color="#05253A"/>
</linearGradient>
<linearGradient id="paint6_linear_246_33692" x1="1942.2" y1="0.316406" x2="1942.2" y2="1391.03" gradientUnits="userSpaceOnUse">
<stop stop-color="#135986"/>
<stop offset="0.9" stop-color="#05253A"/>
</linearGradient>
<linearGradient id="paint7_linear_246_33692" x1="1942.2" y1="0.316406" x2="1942.2" y2="1391.03" gradientUnits="userSpaceOnUse">
<stop stop-color="#135986"/>
<stop offset="0.9" stop-color="#05253A"/>
</linearGradient>
<linearGradient id="paint8_linear_246_33692" x1="1942.2" y1="0.316406" x2="1942.2" y2="1391.03" gradientUnits="userSpaceOnUse">
<stop stop-color="#135986"/>
<stop offset="0.9" stop-color="#05253A"/>
</linearGradient>
<linearGradient id="paint9_linear_246_33692" x1="1942.2" y1="0.316406" x2="1942.2" y2="1391.03" gradientUnits="userSpaceOnUse">
<stop stop-color="#135986"/>
<stop offset="0.9" stop-color="#05253A"/>
</linearGradient>
<linearGradient id="paint10_linear_246_33692" x1="1942.2" y1="0.316406" x2="1942.2" y2="1391.03" gradientUnits="userSpaceOnUse">
<stop stop-color="#135986"/>
<stop offset="0.9" stop-color="#05253A"/>
</linearGradient>
<linearGradient id="paint11_linear_246_33692" x1="1942.2" y1="0.316406" x2="1942.2" y2="1391.03" gradientUnits="userSpaceOnUse">
<stop stop-color="#135986"/>
<stop offset="0.9" stop-color="#05253A"/>
</linearGradient>
<linearGradient id="paint12_linear_246_33692" x1="1942.2" y1="0.316406" x2="1942.2" y2="1391.03" gradientUnits="userSpaceOnUse">
<stop stop-color="#135986"/>
<stop offset="0.9" stop-color="#05253A"/>
</linearGradient>
</defs>
</svg>
