<svg width="4682" height="751" viewBox="0 0 4682 751" fill="none" xmlns="http://www.w3.org/2000/svg">
<path d="M1774.74 264.333L1729.48 275.433L1771.3 939.748L4715.41 928.437L4718.78 266.222L4659.46 250.268L4609.5 251.051L4555.12 259.697L4505.11 257.883L4473.42 264.874L4428 265.587L4368.95 266.512L4287.28 272.989L4232.63 264.754L4164.5 265.822L4082.8 271L3991.9 268.529L3896.51 270.025L3860.05 262.803L3778.21 258.892L3732.87 264.798L3687.37 260.316L3655.5 255.621L3578.36 262.026L3469.23 255.944L3373.89 260.037L3333.01 260.678L3246.67 259.434L3133.15 263.812L3033.23 265.379L2928.92 277.405L2810.83 279.257L2788.12 279.613L2692.73 281.109L2583.84 290.609L2556.59 291.036L2529.22 283.673L2479.5 300.038L2397.94 314.305L2361.51 308.383L2329.36 286.807L2293.03 287.377L2233.98 288.303L2033.8 270.661L1983.84 271.444L1906.46 262.267L1833.95 273.795L1774.74 264.333Z" fill="#107680"/>
<path d="M1711.89 234L1740.99 244.389L1812 940L-58.9999 927.957L-58.9999 272.961L-37.3569 270.363L-16.983 276.857L12.1226 276.857L49.9598 276.857L102.35 282.051L137.277 272.961L180.935 272.961L233.325 276.857L291.537 272.961L352.658 272.961L375.943 265.168L428.333 259.974L457.438 265.168L486.544 259.974L506.918 254.779L556.397 259.974L626.251 252.182L687.372 254.779L713.568 254.779L768.868 252.182L841.632 254.779L905.664 254.779L972.607 265.168L1048.28 265.168L1062.83 265.168L1123.96 265.168L1193.81 272.96L1211.27 272.96L1228.74 265.168L1260.75 280.753L1313.14 293.739L1336.43 287.246L1356.8 265.168L1380.09 265.168L1417.92 265.168L1545.99 244.389L1578 244.389L1627.48 234L1674.05 244.389L1711.89 234Z" fill="#107680"/>
<path d="M3747.05 50.0903C3744.87 51.7263 3742.69 53.3623 3740.44 55.0479C3741.26 56.684 3741.26 56.684 3742.09 58.353C3741.55 59.9891 3741 61.6251 3740.44 63.3107C3739.08 63.7879 3737.71 64.265 3736.31 64.7567C3734.95 65.3702 3733.58 65.9837 3732.18 66.6158C3731.04 70.5054 3731.04 70.5054 3730.53 74.8785C3728.96 77.6832 3727.32 80.4466 3725.57 83.1413C3725.02 84.232 3724.48 85.3227 3723.92 86.4464C3725.14 85.9692 3726.36 85.492 3727.62 85.0004C3744.96 78.6513 3758.13 77.3623 3775.31 84.6777C3778.45 86.4464 3778.45 86.4464 3780.1 89.7515C3777.92 89.7515 3775.74 89.7515 3773.49 89.7515C3772.94 90.8422 3772.4 91.9329 3771.84 93.0566C3770.74 93.0183 3769.64 92.9799 3768.51 92.9404C3760.42 92.7751 3754.49 92.943 3747.05 96.3617C3743.21 96.9918 3739.35 97.5591 3735.48 98.0143C3737.11 98.0206 3737.11 98.0206 3738.76 98.0272C3753.15 98.637 3766.23 102.799 3776.94 112.81C3779.68 115.986 3779.68 115.986 3783.4 121.15C3782.58 122.786 3782.58 122.786 3781.75 124.455C3779.3 122.819 3779.3 122.819 3776.79 121.15C3774.61 121.15 3772.43 121.15 3770.18 121.15C3761.77 120.578 3754.9 119.331 3747.05 116.192C3743.42 116.685 3743.42 116.685 3740.44 117.845C3739.9 117.845 3739.35 117.845 3738.79 117.845C3740.02 119.038 3741.24 120.231 3742.51 121.46C3752.53 131.715 3758.62 141.187 3758.62 155.854C3756.16 155.036 3756.16 155.036 3753.66 154.201C3753.11 153.11 3752.57 152.02 3752.01 150.896C3750.92 150.896 3749.83 150.896 3748.7 150.896C3747.61 149.805 3746.52 148.715 3745.4 147.591C3742.41 145.116 3739.42 142.658 3736.41 140.212C3733.83 137.675 3733.83 137.675 3732.18 132.718C3729.45 132.718 3726.73 132.718 3723.92 132.718C3724.32 133.853 3724.73 134.988 3725.15 136.158C3741.92 183.382 3751.36 229.648 3750.36 279.795C3747.08 279.795 3743.81 279.795 3740.44 279.795C3740.42 278.86 3740.39 277.925 3740.37 276.961C3739.05 230.507 3735 182.765 3717.31 139.328C3717.07 140.308 3716.83 141.288 3716.59 142.297C3715.41 146.899 3713.88 151.358 3712.35 155.854C3713.58 156.672 3713.58 156.672 3714.83 157.506C3718.74 162.726 3717.51 167.599 3717.31 174.032C3717.85 175.122 3718.4 176.213 3718.96 177.337C3710.03 175.963 3705.92 169.363 3700.78 162.464C3695.37 153.037 3695.25 144.937 3695.83 134.37C3695.2 136.761 3695.2 136.761 3694.56 139.199C3693.99 141.287 3693.42 143.374 3692.83 145.525C3692.28 147.596 3691.72 149.666 3691.15 151.8C3689.39 156.991 3687.71 159.98 3684.26 164.116C3683.1 167.665 3683.1 167.665 3682.61 170.726C3681.52 170.726 3680.43 170.726 3679.3 170.726C3672.68 157.481 3673.92 144.884 3678.16 131.156C3678.54 130.035 3678.91 128.915 3679.3 127.76C3678.41 128.438 3677.51 129.115 3676.59 129.813C3675.4 130.703 3674.22 131.594 3673 132.511C3671.83 133.393 3670.66 134.275 3669.46 135.184C3666.74 137.193 3663.94 139.104 3661.13 140.981C3660.58 140.435 3660.04 139.89 3659.47 139.328C3658.93 140.419 3658.38 141.509 3657.82 142.633C3654.62 144.389 3654.62 144.389 3651.21 145.938C3649.58 146.756 3649.58 146.756 3647.91 147.591C3648.38 134.44 3653.17 127.176 3662.59 118.174C3666.36 114.862 3669.84 111.835 3674.35 109.582C3672.5 109.582 3670.64 109.582 3668.74 109.582C3659.04 109.582 3649.34 109.582 3639.65 109.582C3642.41 101.276 3650.31 98.5379 3657.82 94.7092C3666.71 91.0194 3674.48 91.3032 3683.93 92.5789C3687.77 93.1643 3687.77 93.1643 3692.52 93.0566C3691.98 91.7614 3691.43 90.4662 3690.87 89.1318C3687.55 77.087 3687.98 67.0935 3693.9 56.0291C3695.83 53.3954 3695.83 53.3954 3700.78 50.0903C3701.02 51.6581 3701.26 53.226 3701.51 54.8414C3702.15 59.8295 3702.15 59.8295 3704.09 63.3107C3703.75 64.265 3703.41 65.2194 3703.06 66.2027C3702.13 71.7695 3704.68 75.0682 3707.39 79.8362C3708.21 77.8934 3709.03 75.9506 3709.87 73.949C3716.11 61.5865 3726.41 54.7635 3738.82 49.3156C3742.09 48.4377 3742.09 48.4377 3747.05 50.0903ZM3722.26 129.413C3723.92 132.718 3723.92 132.718 3723.92 132.718L3722.26 129.413Z" fill="url(#paint0_linear_246_31280)"/>
<path d="M3768.57 51.5952C3770.76 53.2312 3772.94 54.8672 3775.18 56.5528C3774.37 58.1888 3774.37 58.1888 3773.53 59.8579C3774.08 61.4939 3774.62 63.13 3775.18 64.8156C3776.55 65.2927 3777.91 65.7699 3779.31 66.2616C3780.68 66.8751 3782.04 67.4886 3783.45 68.1207C3784.58 72.0102 3784.58 72.0102 3785.1 76.3834C3786.66 79.1881 3788.31 81.9515 3790.06 84.6462C3790.6 85.7369 3791.15 86.8275 3791.71 87.9513C3790.49 87.4741 3789.27 86.9969 3788.01 86.5053C3770.66 80.1562 3757.49 78.8672 3740.32 86.1825C3737.18 87.9513 3737.18 87.9513 3735.53 91.2564C3737.71 91.2564 3739.89 91.2564 3742.14 91.2564C3742.68 92.3471 3743.23 93.4377 3743.79 94.5615C3744.89 94.5231 3745.98 94.4848 3747.11 94.4453C3755.2 94.28 3761.13 94.4479 3768.57 97.8666C3772.42 98.4967 3776.27 99.064 3780.14 99.5191C3778.52 99.5255 3778.52 99.5255 3776.86 99.532C3762.47 100.142 3749.39 104.304 3738.68 114.315C3735.94 117.491 3735.94 117.491 3732.22 122.655C3733.04 124.291 3733.04 124.291 3733.87 125.96C3736.33 124.324 3736.33 124.324 3738.83 122.655C3741.01 122.655 3743.19 122.655 3745.44 122.655C3753.85 122.083 3760.73 120.836 3768.57 117.697C3772.21 118.19 3772.21 118.19 3775.18 119.35C3775.73 119.35 3776.27 119.35 3776.84 119.35C3775.61 120.543 3774.38 121.736 3773.12 122.965C3763.09 133.22 3757.01 142.692 3757.01 157.358C3759.46 156.54 3759.46 156.54 3761.97 155.706C3762.51 154.615 3763.06 153.524 3763.62 152.401C3764.71 152.401 3765.8 152.401 3766.92 152.401C3768.01 151.31 3769.1 150.219 3770.23 149.096C3773.21 146.621 3776.21 144.163 3779.22 141.717C3781.79 139.18 3781.79 139.18 3783.45 134.223C3786.17 134.223 3788.9 134.223 3791.71 134.223C3791.3 135.358 3790.89 136.493 3790.47 137.663C3773.7 184.887 3764.27 231.153 3765.27 281.3C3768.54 281.3 3771.81 281.3 3775.18 281.3C3775.21 280.365 3775.23 279.43 3775.26 278.466C3776.57 232.012 3780.63 184.27 3798.32 140.833C3798.55 141.813 3798.79 142.793 3799.03 143.802C3800.22 148.404 3801.74 152.863 3803.27 157.358C3802.05 158.176 3802.05 158.176 3800.8 159.011C3796.88 164.231 3798.11 169.103 3798.32 175.536C3797.77 176.627 3797.23 177.718 3796.66 178.842C3805.59 177.468 3809.7 170.868 3814.84 163.969C3820.25 154.542 3820.37 146.442 3819.8 135.875C3820.43 138.265 3820.43 138.265 3821.07 140.704C3821.64 142.791 3822.21 144.879 3822.79 147.03C3823.35 149.101 3823.9 151.171 3824.48 153.305C3826.23 158.496 3827.92 161.485 3831.36 165.621C3832.53 169.17 3832.53 169.17 3833.02 172.231C3834.11 172.231 3835.2 172.231 3836.32 172.231C3842.94 158.986 3841.7 146.389 3837.46 132.661C3837.09 131.54 3836.71 130.42 3836.32 129.265C3837.22 129.942 3838.12 130.62 3839.04 131.318C3840.22 132.208 3841.4 133.099 3842.62 134.016C3843.79 134.898 3844.96 135.78 3846.16 136.689C3848.89 138.698 3851.68 140.608 3854.5 142.485C3855.04 141.94 3855.59 141.395 3856.15 140.833C3856.7 141.924 3857.24 143.014 3857.8 144.138C3861 145.894 3861 145.894 3864.41 147.443C3866.05 148.261 3866.05 148.261 3867.72 149.096C3867.25 135.945 3862.45 128.681 3853.04 119.679C3849.26 116.367 3845.78 113.339 3841.28 111.087C3843.13 111.087 3844.98 111.087 3846.89 111.087C3856.58 111.087 3866.28 111.087 3875.98 111.087C3873.21 102.781 3865.32 100.043 3857.8 96.214C3848.91 92.5243 3841.14 92.8081 3831.69 94.0838C3827.85 94.6692 3827.85 94.6692 3823.1 94.5615C3823.65 93.2663 3824.19 91.9711 3824.76 90.6367C3828.08 78.5919 3827.64 68.5984 3821.73 57.534C3819.8 54.9003 3819.8 54.9003 3814.84 51.5952C3814.6 53.163 3814.36 54.7309 3814.12 56.3462C3813.47 61.3344 3813.47 61.3344 3811.54 64.8156C3811.88 65.7699 3812.22 66.7243 3812.57 67.7075C3813.5 73.2744 3810.94 76.573 3808.23 81.3411C3807.41 79.3983 3806.6 77.4555 3805.75 75.4539C3799.52 63.0914 3789.21 56.2684 3776.8 50.8205C3773.53 49.9426 3773.53 49.9426 3768.57 51.5952ZM3793.36 130.918C3791.71 134.223 3791.71 134.223 3791.71 134.223L3793.36 130.918Z" fill="url(#paint1_linear_246_31280)"/>
<path d="M155.404 74.3588C153.223 75.9949 151.042 77.6309 148.794 79.3165C149.612 80.9525 149.612 80.9525 150.447 82.6216C149.902 84.2576 149.356 85.8936 148.794 87.5792C147.431 88.0564 146.068 88.5336 144.664 89.0252C143.3 89.6387 141.937 90.2522 140.533 90.8843C139.396 94.7739 139.396 94.7739 138.88 99.1471C137.315 101.952 135.671 104.715 133.923 107.41C133.378 108.501 132.833 109.591 132.271 110.715C133.491 110.238 134.712 109.761 135.969 109.269C153.317 102.92 166.486 101.631 183.662 108.946C186.799 110.715 186.799 110.715 188.451 114.02C186.27 114.02 184.089 114.02 181.842 114.02C181.297 115.111 180.751 116.201 180.189 117.325C179.093 117.287 177.996 117.248 176.865 117.209C168.776 117.044 162.844 117.212 155.404 120.63C151.561 121.26 147.705 121.828 143.837 122.283C145.46 122.289 145.46 122.289 147.116 122.296C161.507 122.906 174.585 127.068 185.295 137.078C188.038 140.254 188.038 140.254 191.756 145.419C190.938 147.055 190.938 147.055 190.104 148.724C187.65 147.088 187.65 147.088 185.147 145.419C182.965 145.419 180.784 145.419 178.537 145.419C170.124 144.847 163.25 143.6 155.404 140.461C151.773 140.953 151.773 140.953 148.794 142.113C148.249 142.113 147.704 142.113 147.142 142.113C148.369 143.306 149.596 144.499 150.86 145.728C160.886 155.983 166.971 165.455 166.971 180.122C164.517 179.304 164.517 179.304 162.013 178.47C161.468 177.379 160.923 176.288 160.361 175.164C159.27 175.164 158.18 175.164 157.056 175.164C155.966 174.074 154.875 172.983 153.752 171.859C150.767 169.384 147.769 166.927 144.76 164.481C142.185 161.944 142.185 161.944 140.533 156.986C137.806 156.986 135.08 156.986 132.271 156.986C132.678 158.122 133.085 159.257 133.505 160.427C150.275 207.651 159.709 253.916 158.709 304.063C155.437 304.063 152.165 304.063 148.794 304.063C148.77 303.128 148.746 302.193 148.721 301.23C147.405 254.776 143.35 207.033 125.661 163.597C125.425 164.576 125.188 165.556 124.945 166.566C123.762 171.168 122.237 175.626 120.704 180.122C121.931 180.94 121.931 180.94 123.183 181.775C127.097 186.994 125.866 191.867 125.661 198.3C126.207 199.391 126.752 200.482 127.314 201.605C118.388 200.232 114.275 193.632 109.138 186.732C103.726 177.305 103.607 169.206 104.181 158.639C103.551 161.029 103.551 161.029 102.909 163.467C102.34 165.555 101.772 167.643 101.186 169.794C100.63 171.864 100.074 173.935 99.501 176.068C97.7453 181.259 96.0602 184.249 92.614 188.385C91.4488 191.933 91.4488 191.933 90.9616 194.995C89.871 194.995 88.7805 194.995 87.6568 194.995C81.0348 181.75 82.2746 169.153 86.5144 155.424C86.8914 154.304 87.2684 153.183 87.6568 152.029C86.7601 152.706 85.8634 153.384 84.9395 154.082C83.7573 154.972 82.5752 155.862 81.3572 156.78C80.1878 157.662 79.0184 158.544 77.8136 159.452C75.0913 161.462 72.296 163.372 69.4808 165.249C68.9355 164.704 68.3902 164.158 67.8284 163.597C67.2831 164.687 66.7379 165.778 66.1761 166.902C62.9746 168.658 62.9746 168.658 59.5666 170.207C57.9307 171.025 57.9307 171.025 56.2618 171.859C56.7315 158.709 61.5283 151.445 70.9395 142.443C74.7177 139.13 78.1953 136.103 82.6997 133.851C80.8488 133.851 78.9978 133.851 77.0907 133.851C67.3938 133.851 57.6969 133.851 48 133.851C50.7683 125.545 58.6616 122.806 66.1761 118.978C75.0671 115.288 82.8366 115.572 92.2848 116.847C96.127 117.433 96.127 117.433 100.876 117.325C100.331 116.03 99.7852 114.735 99.2234 113.4C95.9011 101.356 96.3337 91.362 102.251 80.2977C104.181 77.6639 104.181 77.6639 109.138 74.3588C109.376 75.9267 109.615 77.4945 109.861 79.1099C110.508 84.0981 110.508 84.0981 112.442 87.5792C112.102 88.5336 111.761 89.4879 111.41 90.4712C110.482 96.038 113.038 99.3367 115.747 104.105C116.565 102.162 117.383 100.219 118.226 98.2175C124.461 85.8551 134.764 79.0321 147.174 73.5842C150.447 72.7063 150.447 72.7063 155.404 74.3588ZM130.618 153.681C132.271 156.986 132.271 156.986 132.271 156.986L130.618 153.681Z" fill="url(#paint2_linear_246_31280)"/>
<path d="M176.928 75.8637C179.109 77.4997 181.29 79.1358 183.538 80.8214C182.72 82.4574 182.72 82.4574 181.885 84.1265C182.43 85.7625 182.976 87.3985 183.538 89.0841C184.901 89.5613 186.264 90.0385 187.668 90.5301C189.032 91.1436 190.395 91.7571 191.799 92.3892C192.936 96.2788 192.936 96.2788 193.452 100.652C195.017 103.457 196.661 106.22 198.409 108.915C198.954 110.005 199.499 111.096 200.061 112.22C198.841 111.743 197.62 111.265 196.363 110.774C179.015 104.425 165.846 103.136 148.67 110.451C145.533 112.22 145.533 112.22 143.881 115.525C146.062 115.525 148.243 115.525 150.49 115.525C151.035 116.616 151.581 117.706 152.143 118.83C153.239 118.792 154.336 118.753 155.467 118.714C163.556 118.549 169.488 118.716 176.928 122.135C180.771 122.765 184.627 123.333 188.495 123.788C186.872 123.794 186.872 123.794 185.216 123.801C170.825 124.41 157.747 128.573 147.037 138.583C144.294 141.759 144.294 141.759 140.576 146.923C141.394 148.559 141.394 148.559 142.228 150.229C144.682 148.592 144.682 148.592 147.185 146.923C149.367 146.923 151.548 146.923 153.795 146.923C162.208 146.351 169.082 145.105 176.928 141.966C180.559 142.458 180.559 142.458 183.538 143.618C184.083 143.618 184.628 143.618 185.19 143.618C183.963 144.811 182.736 146.004 181.472 147.233C171.446 157.488 165.361 166.96 165.361 181.627C167.815 180.809 167.815 180.809 170.319 179.974C170.864 178.884 171.409 177.793 171.971 176.669C173.062 176.669 174.152 176.669 175.276 176.669C176.366 175.579 177.457 174.488 178.58 173.364C181.565 170.889 184.563 168.432 187.572 165.986C190.147 163.449 190.147 163.449 191.799 158.491C194.526 158.491 197.252 158.491 200.061 158.491C199.654 159.627 199.247 160.762 198.827 161.932C182.057 209.156 172.623 255.421 173.623 305.568C176.895 305.568 180.167 305.568 183.538 305.568C183.562 304.633 183.586 303.698 183.611 302.735C184.927 256.281 188.982 208.538 206.671 165.101C206.907 166.081 207.144 167.061 207.387 168.071C208.57 172.672 210.095 177.131 211.628 181.627C210.401 182.445 210.401 182.445 209.149 183.28C205.235 188.499 206.467 193.372 206.671 199.805C206.125 200.896 205.58 201.986 205.018 203.11C213.944 201.737 218.057 195.137 223.194 188.237C228.606 178.81 228.725 170.71 228.152 160.144C228.781 162.534 228.781 162.534 229.423 164.972C229.992 167.06 230.56 169.148 231.146 171.299C231.702 173.369 232.258 175.44 232.831 177.573C234.587 182.764 236.272 185.754 239.718 189.89C240.883 193.438 240.883 193.438 241.37 196.5C242.461 196.5 243.552 196.5 244.675 196.5C251.297 183.254 250.057 170.658 245.818 156.929C245.441 155.809 245.064 154.688 244.675 153.534C245.572 154.211 246.469 154.888 247.393 155.586C248.575 156.477 249.757 157.367 250.975 158.285C252.144 159.167 253.314 160.049 254.518 160.957C257.241 162.967 260.036 164.877 262.851 166.754C263.397 166.209 263.942 165.663 264.504 165.101C265.049 166.192 265.594 167.283 266.156 168.407C269.357 170.162 269.357 170.162 272.765 171.712C274.401 172.53 274.401 172.53 276.07 173.364C275.601 160.214 270.804 152.95 261.393 143.948C257.614 140.635 254.137 137.608 249.632 135.356C251.483 135.356 253.334 135.356 255.241 135.356C264.938 135.356 274.635 135.356 284.332 135.356C281.564 127.05 273.67 124.311 266.156 120.483C257.265 116.793 249.495 117.077 240.047 118.352C236.205 118.938 236.205 118.938 231.456 118.83C232.002 117.535 232.547 116.24 233.109 114.905C236.431 102.86 235.998 92.8669 230.081 81.8026C228.151 79.1688 228.152 79.1688 223.194 75.8637C222.956 77.4316 222.717 78.9994 222.471 80.6148C221.824 85.6029 221.824 85.6029 219.89 89.0841C220.23 90.0385 220.571 90.9928 220.922 91.9761C221.85 97.5429 219.294 100.842 216.585 105.61C215.767 103.667 214.949 101.724 214.106 99.7224C207.871 87.36 197.568 80.5369 185.158 75.0891C181.885 74.2112 181.885 74.2112 176.928 75.8637ZM201.714 155.186C200.061 158.491 200.061 158.491 200.061 158.491L201.714 155.186Z" fill="url(#paint3_linear_246_31280)"/>
<path d="M1110.87 7.11899C1112.11 14.8265 1114.93 19.9255 1119.08 26.4651C1121.86 31.8883 1121.95 37.5289 1122.5 43.5353C1123.79 47.5815 1125.08 51.6278 1126.37 55.674C1126.08 57.5324 1125.8 59.3907 1125.5 61.3054C1124.58 60.7464 1123.67 60.1875 1122.72 59.6116C1105.71 49.9571 1090.56 48.649 1071.55 52.5846C1067.05 54.1303 1067.05 54.1303 1062.42 59.1776C1065.52 59.6594 1068.61 60.1412 1071.8 60.6376C1070.58 62.3515 1070.58 62.3515 1069.34 64.0999C1076.18 66.2691 1082.58 68.0832 1089.68 69.1891C1090.95 69.7423 1092.21 70.2955 1093.51 70.8655C1096.9 72.2342 1096.9 72.2342 1100.94 70.9411C1100.65 72.7995 1100.36 74.6578 1100.06 76.5725C1098.96 76.7995 1097.85 77.0264 1096.71 77.2603C1079.33 81.3217 1066.78 89.1667 1055.11 102.649C1053.24 105.814 1053.24 105.814 1054.24 111.737C1055.2 110.934 1056.15 110.132 1057.14 109.305C1060.84 106.357 1060.84 106.357 1066.37 107.858C1074.98 108.451 1081.12 105.476 1088.7 101.833C1092.73 99.9507 1092.73 99.9507 1098.14 101.267C1102.72 100.759 1107.29 100.195 1111.86 99.5569C1110.94 100.366 1110.02 101.174 1109.07 102.008C1098.4 113.127 1092.33 124.041 1089.94 139.284C1089.53 141.755 1089.12 144.227 1088.69 146.773C1088.14 152.881 1088.21 156.13 1090.67 161.627C1091.29 161.723 1091.91 161.82 1092.54 161.919C1093.74 158.299 1094.94 154.678 1096.17 150.948C1097.89 152.167 1097.89 152.167 1099.63 153.409C1103.49 149.201 1106.3 145.405 1109.31 140.616C1114.68 130.583 1114.68 130.583 1123.36 124.418C1125.59 120.868 1127.42 117.186 1129.33 113.452C1131.11 109.868 1131.11 109.868 1135.37 108.984C1134.45 111.3 1133.54 113.616 1132.59 116.003C1122.94 142.519 1117.51 169.773 1113.29 197.592C1112.9 200.083 1112.9 200.083 1112.51 202.623C1097.46 300.73 1097.46 300.73 1107.27 314.175C1111.64 314.933 1116.02 315.617 1120.4 316.219C1120.39 314.531 1120.37 312.844 1120.35 311.105C1120.28 304.732 1120.23 298.36 1120.18 291.987C1120.15 289.249 1120.13 286.512 1120.1 283.775C1119.76 253.218 1122.79 223.954 1127.45 193.789C1127.87 191.048 1127.87 191.048 1128.3 188.251C1132.6 160.434 1138.08 133.674 1147.21 106.982C1154.67 108.144 1156.27 111.107 1161.05 116.827C1162.19 118.431 1163.32 120.036 1164.49 121.689C1167.38 125.503 1167.38 125.503 1171.13 126.087C1171.56 127.423 1171.99 128.758 1172.43 130.134C1173.82 131.143 1175.2 132.152 1176.63 133.192C1182.05 138.277 1182.31 141.818 1182.93 149.072C1184.17 149.264 1185.41 149.457 1186.68 149.656C1187.01 151.61 1187.34 153.565 1187.68 155.579C1190.32 156.942 1190.32 156.942 1193.02 158.332C1193.66 160.335 1193.66 160.335 1194.31 162.378C1195.55 162.571 1196.78 162.764 1198.06 162.962C1201.87 145.867 1199.25 130.745 1190.25 115.694C1183.41 106.603 1174.64 99.5032 1164.55 94.3013C1168.55 90.6676 1168.55 90.6676 1173.01 91.3963C1174.52 91.677 1176.04 91.9577 1177.6 92.2469C1179.13 92.5195 1180.66 92.792 1182.23 93.0728C1183.4 93.2993 1184.57 93.5258 1185.77 93.7591C1186.59 92.6166 1187.4 91.474 1188.23 90.2969C1190.07 90.7909 1190.07 90.7909 1191.94 91.2949C1193.57 91.727 1195.2 92.1591 1196.88 92.6042C1198.49 93.0325 1200.09 93.4608 1201.75 93.9021C1208.98 95.6411 1214.62 96.802 1222 95.553C1222.19 94.3141 1222.39 93.0752 1222.59 91.7988C1226.11 93.6159 1229.63 95.4329 1233.26 97.3051C1230.84 87.5256 1225.01 83.2728 1217.13 77.4909C1204.37 69.9864 1189.28 66.9175 1174.71 69.9274C1172.52 70.5374 1170.32 71.1474 1168.06 71.7758C1169.49 70.7296 1170.92 69.6835 1172.4 68.6056C1173.4 63.7146 1173.4 63.7146 1173.86 59.22C1174.96 59.1717 1176.07 59.1235 1177.21 59.0738C1182.07 58.4575 1185.84 57.0992 1190.34 55.1764C1191.79 54.5721 1193.24 53.9678 1194.74 53.3451C1195.85 52.7235 1196.97 52.1018 1198.12 51.4613C1198.32 50.2224 1198.51 48.9835 1198.71 47.7071C1203.35 44.3142 1207.82 42.116 1213.3 40.3655C1213.49 39.1266 1213.69 37.8877 1213.88 36.6113C1189.64 34.4249 1170.72 41.0913 1151.35 55.7159C1151.17 54.4561 1150.99 53.1962 1150.8 51.8982C1147.72 34.829 1140.31 24.7361 1126.41 14.5833C1116.62 8.01279 1116.62 8.01279 1110.87 7.11899Z" fill="url(#paint4_linear_246_31280)"/>
<path d="M3229.11 21.5137L3231.8 21.8133L3234.2 23.3113L3234.5 28.4044L3236.9 29.0036L3238.1 34.9956L3243.19 64.3562L3243.49 65.5546L3247.08 66.753V69.4494L3245.29 70.9474L3244.99 73.0446L3248.58 84.7289V86.5265L3247.38 88.3241L3240.19 88.6237L3238.1 92.8181L3237.2 95.8141L3237.8 96.1137L3243.19 94.3161L3247.68 93.1177H3248.58L3249.18 91.9193L3253.38 90.1217H3256.67L3261.17 103.304L3262.36 107.199L3262.06 111.393L3263.56 115.887V116.486L3251.88 120.681L3253.38 121.879L3258.47 125.474H3259.37L3260.57 125.774L3263.26 127.871L3264.76 127.571L3265.96 126.972L3269.85 126.373L3274.05 126.673L3277.34 127.871L3279.74 129.968L3281.24 132.365L3282.14 135.96V140.155L3281.24 143.151L3279.44 145.847L3277.04 148.244L3276.45 150.041L3274.95 167.718L3274.65 173.11V182.398L3275.25 186.892L3275.85 189.588V191.985L3275.55 192.884L3279.14 194.681V197.078L3276.15 197.977V202.471L3277.94 226.739V231.232L3276.74 233.629L3275.85 233.33L3275.55 232.131L3276.15 229.734L3275.85 227.637L3273.75 231.832L3270.45 240.22L3268.96 244.415L3265.96 248.609L3265.36 251.306L3262.06 255.8L3258.17 261.192L3254.27 266.285L3251.28 269.881L3248.58 274.375L3247.38 276.472L3246.49 281.265L3244.99 284.261L3244.69 284.561V286.059L3246.19 286.359V291.452H3202.74L3204.24 288.156H3201.25L3197.95 288.755L3195.85 290.553L3194.36 290.853L3192.86 289.954L3191.96 290.853H3187.46L3187.76 288.755L3185.07 287.857L3186.27 286.958L3192.86 284.561L3195.25 283.962H3202.74L3204.24 283.363L3204.54 280.666L3210.23 278.869L3214.43 277.67L3216.53 277.371L3224.02 274.075H3224.91V276.172H3228.51L3230.31 277.371L3231.21 278.569V279.168H3231.8L3232.7 275.873L3233.9 273.476L3235.1 272.877H3237.2L3238.7 270.48L3240.49 269.881L3242.29 267.783L3245.59 262.69L3250.68 254.302L3255.17 246.512L3257.87 241.718L3258.47 239.022V233.929L3257.27 232.73V229.435L3259.07 229.135V226.439L3258.17 224.042V220.747L3262.66 152.738V147.944L3259.07 143.151L3256.67 141.952L3251.58 136.859L3247.08 135.061L3239.89 132.665L3233.3 131.167L3209.93 130.867V128.77L3206.04 128.171L3203.64 127.571L3199.45 127.871L3189.56 125.474L3188.66 125.175V121.879H3191.66L3195.55 122.478L3196.15 122.778L3194.95 120.082V119.183H3194.36L3194.06 120.681L3192.56 120.381L3192.26 119.782L3193.76 116.187L3195.85 112.891L3198.55 110.794L3201.25 109.895L3200.65 108.697L3197.95 104.802L3197.05 102.705L3196.45 100.608L3196.15 100.308L3196.45 96.7128L3193.46 96.4132H3189.86L3188.36 97.9112L3184.77 104.802L3182.97 108.397L3180.27 111.393L3179.08 112.292L3178.18 112.592H3175.78L3170.09 111.693H3167.39L3163.2 113.79L3160.5 114.389L3156.91 114.09L3153.31 112.592L3152.11 111.693L3151.21 107.798L3150.61 106.3L3150.91 104.802L3152.71 100.308V99.4092L3151.81 98.5104L3151.21 96.4132L3150.61 96.1137H3141.93L3141.63 96.4132H3127.84V91.6197H3140.73L3141.93 92.5185H3153.91L3155.41 91.9193L3160.2 91.3201L3160.8 88.9233L3161.4 81.7329L3163.2 72.1458L3165.59 61.6598L3166.79 55.0687L3167.09 52.3723V48.7771L3163.5 50.2751L3158.4 51.7731L3156.61 51.4735L3156.01 50.2751L3158.4 48.4775L3163.5 46.0807L3167.69 44.5827L3169.19 44.8823L3173.98 43.0847L3182.37 40.9876L3188.96 38.8904H3189.86L3188.96 34.9956L3185.97 35.2952L3176.98 37.9916L3175.78 37.692V37.0928L3194.36 31.4004L3217.72 24.2101L3219.82 23.9105H3221.92L3229.11 21.5137ZM3214.13 26.9064L3213.83 29.3032H3214.73L3215.03 26.9064H3214.13ZM3210.83 27.8052L3204.84 29.6028V29.9024L3207.54 30.5016L3209.04 31.9996L3209.63 33.198L3211.73 32.8984L3212.03 32.5988V27.8052H3210.83ZM3202.14 30.202V31.1008H3203.34V30.202H3202.14ZM3199.45 30.8012V31.7H3200.35V30.8012H3199.45ZM3197.65 31.7V32.8984L3196.15 32.2992L3193.46 32.8984L3191.06 33.7972L3191.36 35.8944L3191.96 37.692L3198.25 36.4936L3198.55 33.4976L3199.15 31.7H3197.65ZM3233.3 88.3241L3232.1 90.7209L3235.1 91.9193H3236L3237.8 88.3241H3233.3ZM3224.02 91.3201L3219.22 91.6197V93.7169L3220.42 98.5104L3224.02 96.7128L3225.21 95.2149L3225.51 93.4173L3224.61 91.3201H3224.02ZM3228.81 94.3161L3227.91 95.5145V97.312L3229.71 99.7088L3230.61 100.008L3232.4 98.5104L3234.8 97.312L3234.2 96.7128L3230.91 95.5145L3229.71 94.3161H3228.81ZM3224.61 98.2108L3221.02 100.008L3220.12 100.308L3219.82 104.502L3221.32 105.401L3222.82 105.102L3224.31 103.004L3227.31 101.506L3225.21 98.2108H3224.61ZM3210.23 126.673V127.571L3220.42 127.871L3220.12 126.972L3210.23 126.673ZM3256.37 137.758V138.357L3258.17 138.657V137.758H3256.37ZM3273.45 199.475L3272.55 207.265L3271.05 214.455L3269.85 219.249V220.447H3272.55L3274.95 221.346V217.151L3274.05 201.273L3273.75 199.475H3273.45Z" fill="#107680"/>
<g clip-path="url(#clip0_246_31280)">
<path d="M3223.55 125.482H3224.44L3225.64 125.782L3228.34 127.879L3229.84 127.58L3231.04 126.98L3234.93 126.381L3239.13 126.681L3242.42 127.879L3244.82 129.976L3246.32 132.373L3247.21 135.968V140.163L3246.32 143.159L3244.52 145.855L3242.12 148.252L3241.52 150.049L3240.02 167.726L3239.72 173.118V182.406L3240.32 186.9L3240.92 189.596V191.993L3240.62 192.892L3244.22 194.69V197.086L3241.22 197.985V202.479L3243.02 226.746V231.24L3241.82 233.637L3240.92 233.338L3240.62 232.139L3241.22 229.742L3240.92 227.645L3238.83 231.84L3235.53 240.228L3234.03 244.423L3231.04 248.617L3230.44 251.314L3227.14 255.807L3223.25 261.2L3219.35 266.293L3216.36 269.889L3213.66 274.383L3212.46 276.48L3211.56 281.273L3210.06 284.269L3209.76 284.569V286.067L3211.26 286.366V291.46H3167.82L3169.32 288.164H3166.32L3163.03 288.763L3160.93 290.561L3159.43 290.86L3157.93 289.962L3157.04 290.86H3152.54L3152.84 288.763L3150.14 287.864L3151.34 286.966L3157.93 284.569L3160.33 283.97H3167.82L3169.32 283.37L3169.62 280.674L3175.31 278.877L3179.51 277.678L3181.6 277.379L3189.09 274.083H3189.99V276.18H3193.59L3195.38 277.379L3196.28 278.577V279.176H3196.88L3197.78 275.881L3198.98 273.484L3200.18 272.885H3202.27L3203.77 270.488L3205.57 269.889L3207.37 267.791L3210.66 262.698L3215.76 254.31L3220.25 246.52L3222.95 241.726L3223.55 239.03V233.937L3222.35 232.738V229.443L3224.15 229.143V226.447L3223.25 224.05V220.755L3227.74 152.746V147.952L3224.15 143.159L3221.75 141.96L3216.66 136.867L3212.16 135.07M3221.45 137.766V138.365L3223.25 138.665V137.766H3221.45ZM3238.53 199.483L3237.63 207.273L3236.13 214.463L3234.93 219.257V220.455H3237.63L3240.02 221.354V217.159L3239.13 201.281L3238.83 199.483H3238.53Z" fill="#107680"/>
</g>
<defs>
<linearGradient id="paint0_linear_246_31280" x1="3711.52" y1="48.7314" x2="3711.52" y2="279.795" gradientUnits="userSpaceOnUse">
<stop stop-color="#1F96A2"/>
<stop offset="1" stop-color="#107680"/>
</linearGradient>
<linearGradient id="paint1_linear_246_31280" x1="3804.1" y1="50.2363" x2="3804.1" y2="281.3" gradientUnits="userSpaceOnUse">
<stop stop-color="#1F96A2"/>
<stop offset="1" stop-color="#107680"/>
</linearGradient>
<linearGradient id="paint2_linear_246_31280" x1="119.878" y1="73" x2="119.878" y2="304.063" gradientUnits="userSpaceOnUse">
<stop stop-color="#209AA5"/>
<stop offset="1" stop-color="#107680"/>
</linearGradient>
<linearGradient id="paint3_linear_246_31280" x1="212.454" y1="74.5049" x2="212.454" y2="305.568" gradientUnits="userSpaceOnUse">
<stop stop-color="#209AA5"/>
<stop offset="1" stop-color="#107680"/>
</linearGradient>
<linearGradient id="paint4_linear_246_31280" x1="1157.03" y1="14.3038" x2="1110.27" y2="314.702" gradientUnits="userSpaceOnUse">
<stop stop-color="#1F97A3"/>
<stop offset="1" stop-color="#107680"/>
</linearGradient>
<clipPath id="clip0_246_31280">
<rect width="97.0699" height="165.977" fill="white" transform="translate(3150.14 125.483)"/>
</clipPath>
</defs>
</svg>
