<svg width="4682" height="1166" viewBox="0 0 4682 1166" fill="none" xmlns="http://www.w3.org/2000/svg">
<path opacity="0.8" d="M661.881 0.851562H721.171L776.973 16.3819L832.775 47.4427L853.701 66.8557L867.652 59.0905L902.528 43.5601H954.842L989.719 59.0905L1010.64 74.6209H1055.98L1097.84 86.2687L1136.2 117.329L1157.13 152.273L1160.61 171.686L1178.05 175.568L1205.95 187.216L1212.93 167.803L1244.32 136.742L1272.22 125.095L1310.58 121.212L1334.99 97.9165L1362.9 86.2687L1397.77 90.1513L1418.7 105.682L1436.14 125.095H1467.53L1505.89 140.625L1533.79 167.803L1547.74 194.981L1558.2 229.925L1586.1 214.394L1624.47 210.512L1659.35 222.16L1687.25 249.338L1697.71 272.633L1715.15 226.042L1729.1 202.747L1757 171.686L1795.36 152.273L1805.83 148.39H1865.12L1903.48 163.921L1938.36 194.981L1945.33 206.629L1987.18 222.16L2022.06 245.455L2042.99 264.868L2063.91 260.985H2109.25L2126.69 229.925L2154.59 202.747L2185.98 191.099H2213.88L2252.24 206.629L2273.17 226.042L2290.61 257.103L2301.07 284.281L2328.97 311.459L2346.41 338.637L2349.9 350.285L2384.77 358.05L2412.68 377.463L2433.6 408.524L2444.06 451.233L2468.48 474.528L2478.94 501.706V540.532L2464.99 575.476L2478.94 1150.79H-155L-67.0354 587.124L-63.5477 544.415L-42.6219 505.589L-11.2332 482.293L9.69265 474.528H34.1061L44.569 478.411V447.35L62.0072 389.111L86.4207 346.403L117.809 307.577L159.661 272.633L173.612 268.751L177.099 260.985L236.389 237.69L274.753 229.925H372.407L410.771 214.394L445.647 206.629L470.061 144.508L490.987 109.564L522.375 70.7383L560.739 39.6775L602.591 16.3819L661.881 0.851562Z" fill="url(#paint0_linear_246_31286)"/>
<path opacity="0.8" d="M2887.94 71.8125H2947.23L3003.03 87.3429L3058.83 118.404L3079.76 137.817L3093.71 130.051L3128.59 114.521H3180.9L3215.78 130.051L3236.7 145.582H3282.04L3323.9 157.23L3362.26 188.29L3383.19 223.234L3386.67 242.647L3404.11 246.529L3432.01 258.177L3438.99 238.764L3470.38 207.703L3498.28 196.056L3536.64 192.173L3561.05 168.877L3588.96 157.23L3623.83 161.112L3644.76 176.643L3662.2 196.056H3693.58L3731.95 211.586L3759.85 238.764L3773.8 265.942L3784.26 300.886L3812.16 285.355L3850.53 281.473L3885.4 293.12L3913.31 320.299L3923.77 343.594L3941.21 297.003L3955.16 273.708L3983.06 242.647L4021.42 223.234L4031.89 219.351H4091.18L4129.54 234.882L4164.42 265.942L4171.39 277.59L4213.24 293.12L4248.12 316.416L4269.05 335.829L4289.97 331.946H4335.31L4352.75 300.886L4380.65 273.708L4412.04 262.06H4439.94L4478.3 277.59L4499.23 297.003L4516.67 328.064L4527.13 355.242L4555.03 382.42L4572.47 409.598L4575.96 421.246L4610.83 429.011L4638.73 448.424L4659.66 479.485L4670.12 522.194L4694.54 545.489L4705 572.667V611.493L4691.05 646.437L4610.83 1166L2159.02 1130.52V658.085L2162.51 615.376L2183.44 576.55L2214.83 553.254L2235.75 545.489H2260.17L2270.63 549.372V518.311L2288.07 460.072L2312.48 417.364L2343.87 378.538L2385.72 343.594L2399.67 339.712L2403.16 331.946L2462.45 308.651L2500.81 300.886H2598.47L2636.83 285.355L2671.71 277.59L2696.12 215.469L2717.05 180.525L2748.44 141.699L2786.8 110.638L2828.65 87.3429L2887.94 71.8125Z" fill="url(#paint1_linear_246_31286)"/>
<defs>
<linearGradient id="paint0_linear_246_31286" x1="819.677" y1="594.889" x2="819.677" y2="-100.023" gradientUnits="userSpaceOnUse">
<stop stop-color="#99DFF1"/>
<stop offset="1" stop-color="white"/>
</linearGradient>
<linearGradient id="paint1_linear_246_31286" x1="3045.74" y1="665.85" x2="3045.74" y2="-29.0617" gradientUnits="userSpaceOnUse">
<stop stop-color="#99DFF1"/>
<stop offset="1" stop-color="white"/>
</linearGradient>
</defs>
</svg>
