<svg width="4682" height="1676" viewBox="0 0 4682 1676" fill="none" xmlns="http://www.w3.org/2000/svg">
<path d="M2286.74 1002.92L2280.33 991.805V1115.66H2269.1V1144.24L2259.48 1150.59H2325.24L2307.59 1137.89V1115.66H2301.18V1002.92H2286.74Z" fill="url(#paint0_linear_246_31281)"/>
<rect x="-13" y="1108" width="2858" height="11" fill="#1B98A4"/>
<path d="M2210.65 969.174L2202.52 954.915V1113.8H2188.28V1150.47L2176.07 1158.61H2259.47L2237.1 1142.32V1113.8H2228.96V969.174H2210.65Z" fill="url(#paint1_linear_246_31281)"/>
<path d="M673.194 1002.92L666.779 991.805V1115.66H655.551V1144.24L645.928 1150.59H711.689L694.045 1137.89V1115.66H687.63V1002.92H673.194Z" fill="url(#paint2_linear_246_31281)"/>
<path d="M597.106 969.174L588.969 954.915V1113.8H574.729V1150.47L562.524 1158.61H645.928L623.551 1142.32V1113.8H615.414V969.174H597.106Z" fill="url(#paint3_linear_246_31281)"/>
<path d="M2696.38 1008.94L2671.74 1160.94H2888.94V236.135H2872.51L2870.46 322.915H2853V256.161H2851.46V322.915H2845.3L2810.38 713.172H2792.92L2781.62 908.3H2792.92V915.489H2781.62L2772.38 995.594H2759.03L2750.81 1028.46L2742.6 1008.94H2733.87L2731.3 944.758H2727.19L2725.14 1008.94H2717.44L2714.87 889.814H2710.76L2707.17 1008.94H2696.38Z" fill="url(#paint4_linear_246_31281)"/>
<path d="M3070.72 1008.94L3095.37 1160.94H2878.16V236.135H2894.59L2896.65 322.915H2914.11V256.161H2915.65V322.915H2921.81L2956.73 713.172H2974.19L2985.48 908.3H2974.19V915.489H2985.48L2994.73 995.594H3008.08L3016.29 1028.46L3024.51 1008.94H3033.24L3035.81 944.758H3039.91L3041.97 1008.94H3049.67L3052.24 889.814H3056.34L3059.94 1008.94H3070.72Z" fill="url(#paint5_linear_246_31281)"/>
<path d="M3575.85 1037.22C3575.5 1039.36 3574.72 1040.78 3573.56 1042.6C3572.79 1044.11 3572.76 1045.68 3572.61 1047.35C3572.25 1048.48 3571.89 1049.6 3571.53 1050.73C3571.61 1051.25 3571.69 1051.76 3571.78 1052.3C3572.03 1052.14 3572.29 1051.98 3572.55 1051.82C3577.28 1049.14 3581.5 1048.77 3586.79 1049.87C3588.04 1050.3 3588.04 1050.3 3589.33 1051.7C3588.46 1051.84 3587.6 1051.97 3586.72 1052.11C3587.06 1052.59 3587.06 1052.59 3587.4 1053.07C3585.5 1053.68 3583.72 1054.18 3581.74 1054.49C3581.39 1054.64 3581.04 1054.8 3580.68 1054.96C3579.73 1055.34 3579.73 1055.34 3578.61 1054.98C3578.69 1055.49 3578.77 1056.01 3578.85 1056.54C3579.16 1056.61 3579.47 1056.67 3579.78 1056.73C3584.62 1057.86 3588.11 1060.05 3591.36 1063.8C3591.88 1064.68 3591.88 1064.68 3591.6 1066.33C3591.34 1066.1 3591.07 1065.88 3590.8 1065.65C3589.77 1064.83 3589.77 1064.83 3588.23 1065.25C3585.83 1065.41 3584.12 1064.58 3582.01 1063.57C3580.89 1063.05 3580.89 1063.05 3579.39 1063.41C3578.11 1063.27 3576.84 1063.12 3575.57 1062.94C3575.83 1063.16 3576.08 1063.39 3576.35 1063.62C3579.32 1066.71 3581 1069.75 3581.67 1073.99C3581.78 1074.68 3581.9 1075.37 3582.02 1076.07C3582.17 1077.77 3582.15 1078.68 3581.47 1080.21C3581.3 1080.23 3581.12 1080.26 3580.95 1080.29C3580.61 1079.28 3580.28 1078.27 3579.94 1077.24C3579.46 1077.58 3579.46 1077.58 3578.97 1077.92C3577.9 1076.75 3577.12 1075.69 3576.28 1074.36C3574.79 1071.57 3574.79 1071.57 3572.37 1069.86C3571.75 1068.87 3571.24 1067.84 3570.71 1066.8C3570.22 1065.81 3570.22 1065.81 3569.03 1065.56C3569.29 1066.21 3569.54 1066.85 3569.8 1067.51C3572.49 1074.89 3574 1082.47 3575.17 1090.21C3575.28 1090.91 3575.28 1090.91 3575.39 1091.61C3579.58 1118.91 3579.58 1118.91 3576.85 1122.65C3575.63 1122.86 3574.42 1123.05 3573.19 1123.22C3573.2 1122.75 3573.2 1122.28 3573.21 1121.8C3573.23 1120.02 3573.24 1118.25 3573.26 1116.48C3573.26 1115.71 3573.27 1114.95 3573.28 1114.19C3573.37 1105.69 3572.53 1097.55 3571.23 1089.16C3571.12 1088.39 3571.12 1088.39 3571 1087.61C3569.8 1079.88 3568.28 1072.43 3565.74 1065C3563.66 1065.33 3563.21 1066.15 3561.89 1067.74C3561.57 1068.19 3561.25 1068.64 3560.93 1069.1C3560.12 1070.16 3560.12 1070.16 3559.08 1070.32C3558.96 1070.69 3558.84 1071.06 3558.72 1071.45C3558.33 1071.73 3557.95 1072.01 3557.55 1072.3C3556.04 1073.71 3555.97 1074.7 3555.8 1076.71C3555.45 1076.77 3555.11 1076.82 3554.75 1076.88C3554.66 1077.42 3554.57 1077.96 3554.48 1078.52C3553.74 1078.9 3553.74 1078.9 3552.99 1079.29C3552.81 1079.85 3552.81 1079.85 3552.63 1080.42C3552.29 1080.47 3551.94 1080.52 3551.59 1080.58C3550.53 1075.82 3551.26 1071.62 3553.76 1067.43C3555.66 1064.9 3558.11 1062.92 3560.91 1061.48C3559.8 1060.46 3559.8 1060.46 3558.56 1060.67C3558.14 1060.75 3557.71 1060.82 3557.28 1060.9C3556.85 1060.98 3556.43 1061.06 3555.99 1061.13C3555.67 1061.2 3555.34 1061.26 3555.01 1061.33C3554.78 1061.01 3554.56 1060.69 3554.32 1060.36C3553.81 1060.5 3553.81 1060.5 3553.29 1060.64C3552.84 1060.76 3552.38 1060.88 3551.92 1061C3551.47 1061.12 3551.02 1061.24 3550.56 1061.36C3548.55 1061.85 3546.98 1062.17 3544.93 1061.82C3544.87 1061.48 3544.82 1061.13 3544.76 1060.78C3543.79 1061.29 3542.81 1061.79 3541.8 1062.31C3542.47 1059.59 3544.09 1058.41 3546.28 1056.8C3549.83 1054.71 3554.03 1053.86 3558.08 1054.69C3558.7 1054.86 3559.31 1055.03 3559.94 1055.21C3559.54 1054.92 3559.14 1054.63 3558.73 1054.33C3558.45 1052.97 3558.45 1052.97 3558.32 1051.72C3558.01 1051.7 3557.71 1051.69 3557.39 1051.67C3556.04 1051.5 3554.99 1051.13 3553.74 1050.59C3553.33 1050.42 3552.93 1050.25 3552.51 1050.08C3552.2 1049.91 3551.89 1049.74 3551.57 1049.56C3551.52 1049.21 3551.46 1048.87 3551.41 1048.51C3550.12 1047.57 3548.87 1046.96 3547.35 1046.47C3547.3 1046.13 3547.24 1045.78 3547.19 1045.43C3553.93 1044.82 3559.2 1046.67 3564.59 1050.74C3564.64 1050.39 3564.69 1050.04 3564.74 1049.68C3565.59 1044.93 3567.66 1042.12 3571.52 1039.3C3574.25 1037.47 3574.25 1037.47 3575.85 1037.22Z" fill="#239DA9"/>
<path d="M2497.6 1022.99C2497.03 1026.61 2495.7 1029.01 2493.75 1032.08C2492.44 1034.63 2492.4 1037.28 2492.14 1040.11C2491.53 1042.01 2490.93 1043.91 2490.32 1045.81C2490.45 1046.69 2490.59 1047.56 2490.73 1048.46C2491.16 1048.2 2491.59 1047.93 2492.04 1047.66C2500.03 1043.13 2507.15 1042.51 2516.09 1044.36C2518.2 1045.09 2518.2 1045.09 2520.38 1047.46C2518.92 1047.69 2517.47 1047.91 2515.97 1048.15C2516.54 1048.95 2516.54 1048.95 2517.12 1049.77C2513.91 1050.79 2510.9 1051.64 2507.56 1052.16C2506.97 1052.42 2506.38 1052.68 2505.77 1052.95C2504.17 1053.6 2504.17 1053.6 2502.27 1052.99C2502.41 1053.86 2502.54 1054.74 2502.68 1055.63C2503.2 1055.74 2503.72 1055.85 2504.26 1055.96C2512.43 1057.87 2518.33 1061.55 2523.82 1067.89C2524.69 1069.38 2524.69 1069.38 2524.22 1072.16C2523.77 1071.79 2523.32 1071.41 2522.86 1071.02C2521.12 1069.63 2521.12 1069.63 2518.52 1070.34C2514.48 1070.62 2511.59 1069.22 2508.03 1067.51C2506.13 1066.62 2506.13 1066.62 2503.59 1067.24C2501.44 1067 2499.29 1066.74 2497.14 1066.44C2497.57 1066.82 2498 1067.2 2498.45 1067.59C2503.47 1072.82 2506.32 1077.95 2507.44 1085.11C2507.64 1086.27 2507.83 1087.43 2508.03 1088.63C2508.29 1091.5 2508.25 1093.03 2507.1 1095.61C2506.81 1095.66 2506.52 1095.7 2506.22 1095.75C2505.66 1094.05 2505.09 1092.35 2504.51 1090.59C2503.71 1091.17 2503.71 1091.17 2502.89 1091.75C2501.07 1089.77 2499.76 1087.99 2498.34 1085.74C2495.81 1081.02 2495.81 1081.02 2491.74 1078.12C2490.69 1076.45 2489.82 1074.72 2488.93 1072.97C2488.09 1071.28 2488.09 1071.28 2486.09 1070.87C2486.52 1071.96 2486.95 1073.05 2487.39 1074.17C2491.93 1086.63 2494.49 1099.44 2496.47 1112.52C2496.65 1113.69 2496.65 1113.69 2496.83 1114.88C2503.91 1160.99 2503.91 1160.99 2499.3 1167.31C2497.25 1167.67 2495.19 1167.99 2493.12 1168.27C2493.13 1167.48 2493.14 1166.69 2493.15 1165.87C2493.18 1162.87 2493.21 1159.88 2493.23 1156.88C2493.24 1155.6 2493.25 1154.31 2493.27 1153.02C2493.42 1138.66 2492 1124.91 2489.81 1110.73C2489.61 1109.44 2489.61 1109.44 2489.41 1108.13C2487.39 1095.05 2484.82 1082.47 2480.53 1069.93C2477.02 1070.47 2476.26 1071.87 2474.02 1074.56C2473.49 1075.31 2472.95 1076.06 2472.4 1076.84C2471.04 1078.63 2471.04 1078.63 2469.28 1078.91C2469.08 1079.54 2468.88 1080.16 2468.67 1080.81C2468.02 1081.28 2467.37 1081.76 2466.7 1082.25C2464.15 1084.64 2464.03 1086.3 2463.74 1089.71C2463.15 1089.8 2462.57 1089.89 2461.97 1089.99C2461.82 1090.9 2461.66 1091.82 2461.5 1092.77C2460.26 1093.41 2460.26 1093.41 2459 1094.06C2458.7 1095 2458.7 1095 2458.39 1095.97C2457.81 1096.06 2457.22 1096.15 2456.63 1096.24C2454.83 1088.2 2456.07 1081.1 2460.3 1074.02C2463.51 1069.75 2467.63 1066.41 2472.37 1063.97C2470.49 1062.26 2470.49 1062.26 2468.4 1062.6C2467.69 1062.73 2466.97 1062.87 2466.24 1063C2465.52 1063.13 2464.8 1063.26 2464.06 1063.39C2463.51 1063.5 2462.97 1063.6 2462.4 1063.71C2462.02 1063.18 2461.64 1062.64 2461.24 1062.09C2460.38 1062.32 2460.38 1062.32 2459.5 1062.55C2458.73 1062.76 2457.97 1062.96 2457.18 1063.17C2456.42 1063.37 2455.67 1063.57 2454.89 1063.78C2451.49 1064.6 2448.84 1065.14 2445.37 1064.56C2445.28 1063.97 2445.19 1063.39 2445.1 1062.79C2443.44 1063.65 2441.79 1064.5 2440.08 1065.38C2441.22 1060.78 2443.96 1058.78 2447.66 1056.07C2453.66 1052.54 2460.75 1051.1 2467.6 1052.51C2468.63 1052.8 2469.66 1053.09 2470.73 1053.38C2470.05 1052.89 2469.38 1052.4 2468.69 1051.89C2468.22 1049.59 2468.22 1049.59 2468 1047.48C2467.48 1047.46 2466.96 1047.43 2466.42 1047.41C2464.14 1047.12 2462.37 1046.48 2460.25 1045.58C2459.57 1045.29 2458.89 1045.01 2458.19 1044.72C2457.66 1044.43 2457.14 1044.13 2456.6 1043.83C2456.5 1043.25 2456.41 1042.67 2456.32 1042.07C2454.14 1040.47 2452.04 1039.44 2449.46 1038.62C2449.37 1038.03 2449.28 1037.45 2449.19 1036.85C2460.58 1035.82 2469.48 1038.96 2478.58 1045.83C2478.67 1045.24 2478.75 1044.65 2478.84 1044.04C2480.28 1036.01 2483.77 1031.27 2490.3 1026.5C2494.9 1023.41 2494.9 1023.41 2497.6 1022.99Z" fill="#239DA9"/>
<path d="M1600.6 1038.99C1600.03 1042.61 1598.7 1045.01 1596.75 1048.08C1595.44 1050.63 1595.4 1053.28 1595.14 1056.11C1594.53 1058.01 1593.93 1059.91 1593.32 1061.81C1593.45 1062.69 1593.59 1063.56 1593.73 1064.46C1594.16 1064.2 1594.59 1063.93 1595.04 1063.66C1603.03 1059.13 1610.15 1058.51 1619.09 1060.36C1621.2 1061.09 1621.2 1061.09 1623.38 1063.46C1621.92 1063.69 1620.47 1063.91 1618.97 1064.15C1619.54 1064.95 1619.54 1064.95 1620.12 1065.77C1616.91 1066.79 1613.9 1067.64 1610.56 1068.16C1609.97 1068.42 1609.38 1068.68 1608.77 1068.95C1607.17 1069.6 1607.17 1069.6 1605.27 1068.99C1605.41 1069.86 1605.54 1070.74 1605.68 1071.63C1606.2 1071.74 1606.72 1071.85 1607.26 1071.96C1615.43 1073.87 1621.33 1077.55 1626.82 1083.89C1627.69 1085.38 1627.69 1085.38 1627.22 1088.16C1626.77 1087.79 1626.32 1087.41 1625.86 1087.02C1624.12 1085.63 1624.12 1085.63 1621.52 1086.34C1617.48 1086.62 1614.59 1085.22 1611.03 1083.51C1609.13 1082.62 1609.13 1082.62 1606.59 1083.24C1604.44 1083 1602.29 1082.74 1600.14 1082.44C1600.57 1082.82 1601 1083.2 1601.45 1083.59C1606.47 1088.82 1609.32 1093.95 1610.44 1101.11C1610.64 1102.27 1610.83 1103.43 1611.03 1104.63C1611.29 1107.5 1611.25 1109.03 1610.1 1111.61C1609.81 1111.66 1609.52 1111.7 1609.22 1111.75C1608.66 1110.05 1608.09 1108.35 1607.51 1106.59C1606.71 1107.17 1606.71 1107.17 1605.89 1107.75C1604.07 1105.77 1602.76 1103.99 1601.34 1101.74C1598.81 1097.02 1598.81 1097.02 1594.74 1094.12C1593.69 1092.45 1592.82 1090.72 1591.93 1088.97C1591.09 1087.28 1591.09 1087.28 1589.09 1086.87C1589.52 1087.96 1589.95 1089.05 1590.39 1090.17C1594.93 1102.63 1597.49 1115.44 1599.47 1128.52C1599.65 1129.69 1599.65 1129.69 1599.83 1130.88C1606.91 1176.99 1606.91 1176.99 1602.3 1183.31C1600.25 1183.67 1598.19 1183.99 1596.12 1184.27C1596.13 1183.48 1596.14 1182.69 1596.15 1181.87C1596.18 1178.87 1596.21 1175.88 1596.23 1172.88C1596.24 1171.6 1596.25 1170.31 1596.27 1169.02C1596.42 1154.66 1595 1140.91 1592.81 1126.73C1592.61 1125.44 1592.61 1125.44 1592.41 1124.13C1590.39 1111.05 1587.82 1098.47 1583.53 1085.93C1580.02 1086.47 1579.26 1087.87 1577.02 1090.56C1576.49 1091.31 1575.95 1092.06 1575.4 1092.84C1574.04 1094.63 1574.04 1094.63 1572.28 1094.91C1572.08 1095.54 1571.88 1096.16 1571.67 1096.81C1571.02 1097.28 1570.37 1097.76 1569.7 1098.25C1567.15 1100.64 1567.03 1102.3 1566.74 1105.71C1566.15 1105.8 1565.57 1105.89 1564.97 1105.99C1564.82 1106.9 1564.66 1107.82 1564.5 1108.77C1563.26 1109.41 1563.26 1109.41 1562 1110.06C1561.7 1111 1561.7 1111 1561.39 1111.97C1560.81 1112.06 1560.22 1112.15 1559.63 1112.24C1557.83 1104.2 1559.07 1097.1 1563.3 1090.02C1566.51 1085.75 1570.63 1082.41 1575.37 1079.97C1573.49 1078.26 1573.49 1078.26 1571.4 1078.6C1570.69 1078.73 1569.97 1078.87 1569.24 1079C1568.52 1079.13 1567.8 1079.26 1567.06 1079.39C1566.51 1079.5 1565.97 1079.6 1565.4 1079.71C1565.02 1079.18 1564.64 1078.64 1564.24 1078.09C1563.38 1078.32 1563.38 1078.32 1562.5 1078.55C1561.73 1078.76 1560.97 1078.96 1560.18 1079.17C1559.42 1079.37 1558.67 1079.57 1557.89 1079.78C1554.49 1080.6 1551.84 1081.14 1548.37 1080.56C1548.28 1079.97 1548.19 1079.39 1548.1 1078.79C1546.44 1079.65 1544.79 1080.5 1543.08 1081.38C1544.22 1076.78 1546.96 1074.78 1550.66 1072.07C1556.66 1068.54 1563.75 1067.1 1570.6 1068.51C1571.63 1068.8 1572.66 1069.09 1573.73 1069.38C1573.05 1068.89 1572.38 1068.4 1571.69 1067.89C1571.22 1065.59 1571.22 1065.59 1571 1063.48C1570.48 1063.46 1569.96 1063.43 1569.42 1063.41C1567.14 1063.12 1565.37 1062.48 1563.25 1061.58C1562.57 1061.29 1561.89 1061.01 1561.19 1060.72C1560.66 1060.43 1560.14 1060.13 1559.6 1059.83C1559.5 1059.25 1559.41 1058.67 1559.32 1058.07C1557.14 1056.47 1555.04 1055.44 1552.46 1054.62C1552.37 1054.03 1552.28 1053.45 1552.19 1052.85C1563.58 1051.82 1572.48 1054.96 1581.58 1061.83C1581.67 1061.24 1581.75 1060.65 1581.84 1060.04C1583.28 1052.01 1586.77 1047.27 1593.3 1042.5C1597.9 1039.41 1597.9 1039.41 1600.6 1038.99Z" fill="#239DA9"/>
<path d="M425.603 1033.99C425.025 1037.61 423.698 1040.01 421.748 1043.08C420.441 1045.63 420.396 1048.28 420.14 1051.11C419.533 1053.01 418.926 1054.91 418.318 1056.81C418.454 1057.69 418.59 1058.56 418.73 1059.46C419.161 1059.2 419.592 1058.93 420.035 1058.66C428.03 1054.13 435.151 1053.51 444.088 1055.36C446.202 1056.09 446.202 1056.09 448.377 1058.46C446.922 1058.69 445.467 1058.91 443.968 1059.15C444.541 1059.95 444.541 1059.95 445.125 1060.77C441.911 1061.79 438.902 1062.64 435.563 1063.16C434.97 1063.42 434.377 1063.68 433.767 1063.95C432.173 1064.6 432.173 1064.6 430.273 1063.99C430.409 1064.86 430.545 1065.74 430.685 1066.63C431.204 1066.74 431.724 1066.85 432.259 1066.96C440.43 1068.87 446.33 1072.55 451.815 1078.89C452.692 1080.38 452.692 1080.38 452.222 1083.16C451.773 1082.79 451.323 1082.41 450.859 1082.02C449.122 1080.63 449.122 1080.63 446.52 1081.34C442.476 1081.62 439.591 1080.22 436.025 1078.51C434.131 1077.62 434.131 1077.62 431.588 1078.24C429.436 1078 427.286 1077.74 425.141 1077.44C425.573 1077.82 426.005 1078.2 426.45 1078.59C431.466 1083.82 434.32 1088.95 435.442 1096.11C435.636 1097.27 435.829 1098.43 436.029 1099.63C436.288 1102.5 436.254 1104.03 435.101 1106.61C434.81 1106.66 434.519 1106.7 434.219 1106.75C433.657 1105.05 433.094 1103.35 432.514 1101.59C431.709 1102.17 431.709 1102.17 430.888 1102.75C429.074 1100.77 427.756 1098.99 426.339 1096.74C423.813 1092.02 423.813 1092.02 419.735 1089.12C418.687 1087.45 417.825 1085.72 416.929 1083.97C416.094 1082.28 416.094 1082.28 414.091 1081.87C414.521 1082.96 414.951 1084.05 415.395 1085.17C419.931 1097.63 422.486 1110.44 424.468 1123.52C424.649 1124.69 424.649 1124.69 424.834 1125.88C431.911 1171.99 431.911 1171.99 427.297 1178.31C425.245 1178.67 423.187 1178.99 421.124 1179.27C421.133 1178.48 421.142 1177.69 421.15 1176.87C421.181 1173.87 421.207 1170.88 421.231 1167.88C421.242 1166.6 421.255 1165.31 421.269 1164.02C421.425 1149.66 420.003 1135.91 417.812 1121.73C417.614 1120.44 417.614 1120.44 417.413 1119.13C415.39 1106.05 412.819 1093.47 408.526 1080.93C405.017 1081.47 404.265 1082.87 402.021 1085.56C401.487 1086.31 400.952 1087.06 400.401 1087.84C399.044 1089.63 399.044 1089.63 397.28 1089.91C397.08 1090.54 396.879 1091.16 396.673 1091.81C396.02 1092.28 395.368 1092.76 394.695 1093.25C392.15 1095.64 392.028 1097.3 391.737 1100.71C391.155 1100.8 390.573 1100.89 389.973 1100.99C389.818 1101.9 389.663 1102.82 389.504 1103.77C388.262 1104.41 388.262 1104.41 386.996 1105.06C386.695 1106 386.695 1106 386.389 1106.97C385.807 1107.06 385.225 1107.15 384.625 1107.24C382.833 1099.2 384.066 1092.1 388.297 1085.02C391.51 1080.75 395.635 1077.41 400.373 1074.97C398.494 1073.26 398.494 1073.26 396.4 1073.6C395.687 1073.73 394.974 1073.87 394.24 1074C393.522 1074.13 392.804 1074.26 392.064 1074.39C391.514 1074.5 390.965 1074.6 390.399 1074.71C390.018 1074.18 389.636 1073.64 389.243 1073.09C388.38 1073.32 388.38 1073.32 387.499 1073.55C386.733 1073.76 385.968 1073.96 385.179 1074.17C384.424 1074.37 383.67 1074.57 382.892 1074.78C379.494 1075.6 376.843 1076.14 373.372 1075.56C373.281 1074.97 373.19 1074.39 373.097 1073.79C371.442 1074.65 369.787 1075.5 368.081 1076.38C369.217 1071.78 371.958 1069.78 375.663 1067.07C381.657 1063.54 388.752 1062.1 395.598 1063.51C396.63 1063.8 397.662 1064.09 398.725 1064.38C398.053 1063.89 397.38 1063.4 396.687 1062.89C396.216 1060.59 396.216 1060.59 396 1058.48C395.48 1058.46 394.96 1058.43 394.423 1058.41C392.138 1058.12 390.369 1057.48 388.254 1056.58C387.572 1056.29 386.89 1056.01 386.187 1055.72C385.662 1055.43 385.137 1055.13 384.596 1054.83C384.505 1054.25 384.414 1053.67 384.321 1053.07C382.14 1051.47 380.035 1050.44 377.462 1049.62C377.371 1049.03 377.281 1048.45 377.187 1047.85C388.581 1046.82 397.477 1049.96 406.581 1056.83C406.666 1056.24 406.751 1055.65 406.838 1055.04C408.284 1047.01 411.769 1042.27 418.304 1037.5C422.904 1034.41 422.904 1034.41 425.603 1033.99Z" fill="#239DA9"/>
<path d="M3684.07 595.794L3685.51 596.116L3689.54 599.341L3697.18 605.58L3697.49 606.231L3695.85 620.237L3693.77 637.739L3693.62 638.401L3695.39 638.798L3695.87 639.253L3696.04 639.523L3696.28 639.463L3699.04 640.083L3699.46 640.292L3700.21 639.534L3701.74 639.415L3709.09 639.212L3709.31 639.262L3709.68 638.649L3710.28 638.552L3710.52 638.025L3711.06 637.683L3714.3 637.716L3715.04 638L3715.35 638.185L3716.51 637.169L3718.15 636.032L3719.1 635.433L3720.92 634.567L3722.69 633.921L3724.79 633.35L3727.06 633.048L3729.28 632.968L3730.98 633.119L3731.23 632.016L3731.91 631.588L3735.33 632.357L3735.67 632.898L3735.73 633.143L3735.48 634.247L3736.78 634.655L3738.75 635.678L3740.87 637.082L3742.52 638.497L3744.02 640.108L3745.26 641.779L3746.12 643.131L3746.99 644.949L3747.02 645.305L3747.51 645.183L3748.59 645.542L3751.01 646.664L3751.43 647.34L3751.34 647.781L3751.84 648.126L3751.98 648.507L3751.91 648.838L3753.8 649.726L3759.94 652.845L3760.34 653.631L3760.35 654.097L3760.84 653.976L3763.6 654.596L3764.02 654.805L3764.2 654.499L3764.69 654.378L3766.46 654.775L3767.94 650.239L3776.7 624.153L3777.16 623.676L3779.5 623.044L3784.9 621.708L3787.72 621.064L3791.89 620.032L3793.32 620.354L3793.91 620.834L3794.09 621.571L3790.77 642.039L3787.48 661.819L3786.68 666.394L3785.91 669.815L3785.27 671.641L3783.27 676.409L3774.98 696.803L3769.56 710.076L3769.1 710.553L3768.59 710.785L3766.82 710.388L3766.4 709.712L3765.31 707.845L3764.73 706.788L3763.76 704.946L3762.76 703.213L3762.04 701.776L3760.95 699.909L3760.37 698.852L3759.4 697.01L3758.48 695.413L3757.91 694.356L3757.76 693.975L3757.85 693.068L3762.44 670.567L3763.26 666.925L3762.05 666.652L3761.57 666.197L3761.29 665.902L3760.93 665.938L3758.4 665.367L3757.89 665.022L3757.52 665.635L3756.87 665.952L3748.59 666.177L3748.12 666.188L3747.64 666.776L3747.04 666.873L3746.81 667.4L3746.27 667.742L3743.03 667.709L3742.17 667.4L3741.83 667.903L3740.29 669.064L3739.32 669.773L3738.26 670.347L3736.69 671.153L3734.68 671.86L3732.82 672.371L3730.31 672.732L3727.87 672.763L3726.27 672.637L3722.52 671.793L3719.97 670.756L3717.91 669.598L3716.12 668.269L3714.58 666.879L3713.28 665.428L3712.32 664.051L3711.69 663.215L3711.12 662.159L3710.34 660.476L3710.28 660.231L3709.37 660.143L3706.43 658.786L3705.98 658.22L3705.88 657.619L3705.49 657.299L3705.31 656.562L3697.5 652.605L3697.07 651.929L3696.95 651.438L3696.38 651.425L3693.84 650.854L3693.42 650.644L3692.88 650.987L3692.52 651.022L3691.31 650.75L3690.1 656.157L3685.99 672.856L3684.87 677.356L3684.28 677.919L3683.03 678.799L3682.06 679.508L3680.82 680.389L3679.56 681.379L3677.77 682.602L3676.8 683.311L3675.13 684.558L3673.62 685.61L3672.65 686.319L3670.98 687.566L3669.74 688.446L3669.49 688.507L3667.72 688.11L3667.27 687.545L3667.24 686.146L3669.14 651.91L3669.51 644.574L3669.77 642.894L3670.17 641.128L3673.15 630.437L3681.21 602.338L3682.78 596.895L3683.18 596.172L3683.83 595.855L3684.07 595.794Z" fill="#3597A1"/>
<path d="M3839.47 596.407L3840.31 596.594L3842.65 598.467L3847.09 602.092L3847.27 602.47L3846.32 610.608L3845.11 620.777L3845.02 621.161L3846.05 621.392L3846.33 621.656L3846.42 621.813L3846.57 621.778L3848.17 622.138L3848.41 622.26L3848.85 621.819L3849.74 621.75L3854.01 621.632L3854.14 621.661L3854.35 621.305L3854.7 621.249L3854.84 620.943L3855.15 620.744L3857.03 620.763L3857.47 620.928L3857.65 621.036L3858.32 620.446L3859.27 619.785L3859.82 619.437L3860.88 618.934L3861.91 618.558L3863.13 618.226L3864.45 618.051L3865.74 618.005L3866.73 618.093L3866.87 617.452L3867.26 617.203L3869.25 617.65L3869.45 617.964L3869.49 618.107L3869.34 618.748L3870.1 618.985L3871.24 619.579L3872.47 620.395L3873.43 621.217L3874.3 622.153L3875.03 623.124L3875.52 623.909L3876.03 624.966L3876.05 625.172L3876.33 625.102L3876.96 625.31L3878.36 625.962L3878.61 626.355L3878.55 626.611L3878.84 626.812L3878.93 627.033L3878.89 627.225L3879.98 627.741L3883.55 629.553L3883.78 630.01L3883.79 630.281L3884.08 630.21L3885.68 630.571L3885.92 630.692L3886.03 630.514L3886.31 630.444L3887.34 630.674L3888.2 628.039L3893.29 612.883L3893.56 612.606L3894.92 612.239L3898.06 611.463L3899.69 611.089L3902.11 610.489L3902.95 610.676L3903.29 610.955L3903.4 611.383L3901.46 623.275L3899.55 634.767L3899.09 637.425L3898.64 639.413L3898.27 640.474L3897.11 643.244L3892.29 655.093L3889.14 662.804L3888.88 663.082L3888.58 663.217L3887.55 662.986L3887.3 662.593L3886.67 661.508L3886.34 660.894L3885.77 659.824L3885.19 658.817L3884.77 657.982L3884.14 656.897L3883.8 656.284L3883.24 655.213L3882.7 654.285L3882.37 653.671L3882.29 653.45L3882.34 652.923L3885.01 639.849L3885.48 637.734L3884.78 637.575L3884.5 637.311L3884.34 637.139L3884.13 637.16L3882.65 636.829L3882.36 636.628L3882.15 636.984L3881.77 637.169L3876.96 637.299L3876.69 637.306L3876.41 637.647L3876.06 637.703L3875.92 638.009L3875.61 638.208L3873.73 638.189L3873.23 638.01L3873.03 638.302L3872.14 638.977L3871.57 639.389L3870.96 639.722L3870.04 640.19L3868.87 640.601L3867.8 640.898L3866.34 641.108L3864.92 641.126L3863.99 641.052L3861.81 640.562L3860.33 639.96L3859.13 639.287L3858.09 638.514L3857.2 637.707L3856.45 636.864L3855.88 636.064L3855.52 635.578L3855.19 634.965L3854.73 633.987L3854.7 633.844L3854.17 633.793L3852.46 633.005L3852.2 632.676L3852.14 632.327L3851.92 632.141L3851.81 631.713L3847.28 629.414L3847.03 629.021L3846.96 628.736L3846.62 628.728L3845.15 628.396L3844.9 628.275L3844.59 628.473L3844.38 628.494L3843.68 628.336L3842.97 631.477L3840.59 641.18L3839.93 643.794L3839.59 644.121L3838.87 644.633L3838.31 645.045L3837.58 645.556L3836.85 646.132L3835.81 646.842L3835.25 647.254L3834.28 647.979L3833.4 648.589L3832.84 649.002L3831.87 649.726L3831.14 650.238L3831 650.273L3829.98 650.042L3829.71 649.714L3829.69 648.901L3830.8 629.01L3831.01 624.748L3831.17 623.772L3831.4 622.746L3833.13 616.534L3837.81 600.209L3838.72 597.046L3838.95 596.626L3839.33 596.442L3839.47 596.407Z" fill="#239DA9"/>
<path d="M3594.03 1037.22C3594.37 1039.36 3595.16 1040.78 3596.31 1042.6C3597.08 1044.11 3597.11 1045.68 3597.26 1047.35C3597.62 1048.48 3597.98 1049.6 3598.34 1050.73C3598.26 1051.25 3598.18 1051.76 3598.1 1052.3C3597.84 1052.14 3597.59 1051.98 3597.32 1051.82C3592.59 1049.14 3588.38 1048.77 3583.09 1049.87C3581.84 1050.3 3581.84 1050.3 3580.55 1051.7C3581.41 1051.84 3582.27 1051.97 3583.16 1052.11C3582.82 1052.59 3582.82 1052.59 3582.47 1053.07C3584.38 1053.68 3586.16 1054.18 3588.13 1054.49C3588.48 1054.64 3588.84 1054.8 3589.2 1054.96C3590.14 1055.34 3590.14 1055.34 3591.26 1054.98C3591.18 1055.49 3591.1 1056.01 3591.02 1056.54C3590.71 1056.61 3590.41 1056.67 3590.09 1056.73C3585.25 1057.86 3581.76 1060.05 3578.51 1063.8C3577.99 1064.68 3577.99 1064.68 3578.27 1066.33C3578.54 1066.1 3578.8 1065.88 3579.08 1065.65C3580.11 1064.83 3580.11 1064.83 3581.65 1065.25C3584.04 1065.41 3585.75 1064.58 3587.86 1063.57C3588.98 1063.05 3588.98 1063.05 3590.49 1063.41C3591.76 1063.27 3593.03 1063.12 3594.3 1062.94C3594.05 1063.16 3593.79 1063.39 3593.53 1063.62C3590.56 1066.71 3588.87 1069.75 3588.2 1073.99C3588.09 1074.68 3587.98 1075.37 3587.86 1076.07C3587.7 1077.77 3587.72 1078.68 3588.41 1080.21C3588.58 1080.23 3588.75 1080.26 3588.93 1080.29C3589.26 1079.28 3589.59 1078.27 3589.94 1077.24C3590.41 1077.58 3590.41 1077.58 3590.9 1077.92C3591.97 1076.75 3592.75 1075.69 3593.59 1074.36C3595.09 1071.57 3595.09 1071.57 3597.5 1069.86C3598.12 1068.87 3598.63 1067.84 3599.16 1066.8C3599.66 1065.81 3599.66 1065.81 3600.84 1065.56C3600.59 1066.21 3600.33 1066.85 3600.07 1067.51C3597.39 1074.89 3595.87 1082.47 3594.7 1090.21C3594.59 1090.91 3594.59 1090.91 3594.48 1091.61C3590.3 1118.91 3590.3 1118.91 3593.03 1122.65C3594.24 1122.86 3595.46 1123.05 3596.68 1123.22C3596.67 1122.75 3596.67 1122.28 3596.66 1121.8C3596.65 1120.02 3596.63 1118.25 3596.62 1116.48C3596.61 1115.71 3596.6 1114.95 3596.59 1114.19C3596.5 1105.69 3597.34 1097.55 3598.64 1089.16C3598.76 1088.39 3598.76 1088.39 3598.88 1087.61C3600.07 1079.88 3601.6 1072.43 3604.14 1065C3606.21 1065.33 3606.66 1066.15 3607.99 1067.74C3608.3 1068.19 3608.62 1068.64 3608.95 1069.1C3609.75 1070.16 3609.75 1070.16 3610.79 1070.32C3610.91 1070.69 3611.03 1071.06 3611.15 1071.45C3611.54 1071.73 3611.93 1072.01 3612.32 1072.3C3613.83 1073.71 3613.9 1074.7 3614.08 1076.71C3614.42 1076.77 3614.76 1076.82 3615.12 1076.88C3615.21 1077.42 3615.3 1077.96 3615.4 1078.52C3616.13 1078.9 3616.13 1078.9 3616.88 1079.29C3617.06 1079.85 3617.06 1079.85 3617.24 1080.42C3617.59 1080.47 3617.93 1080.52 3618.29 1080.58C3619.35 1075.82 3618.62 1071.62 3616.11 1067.43C3614.21 1064.9 3611.77 1062.92 3608.96 1061.48C3610.08 1060.46 3610.08 1060.46 3611.32 1060.67C3611.74 1060.75 3612.16 1060.82 3612.59 1060.9C3613.02 1060.98 3613.44 1061.06 3613.88 1061.13C3614.21 1061.2 3614.53 1061.26 3614.87 1061.33C3615.09 1061.01 3615.32 1060.69 3615.55 1060.36C3616.06 1060.5 3616.06 1060.5 3616.58 1060.64C3617.04 1060.76 3617.49 1060.88 3617.96 1061C3618.4 1061.12 3618.85 1061.24 3619.31 1061.36C3621.32 1061.85 3622.89 1062.17 3624.95 1061.82C3625 1061.48 3625.05 1061.13 3625.11 1060.78C3626.09 1061.29 3627.07 1061.79 3628.08 1062.31C3627.41 1059.59 3625.78 1058.41 3623.59 1056.8C3620.04 1054.71 3615.84 1053.86 3611.79 1054.69C3611.18 1054.86 3610.57 1055.03 3609.94 1055.21C3610.34 1054.92 3610.74 1054.63 3611.15 1054.33C3611.42 1052.97 3611.42 1052.97 3611.55 1051.72C3611.86 1051.7 3612.17 1051.69 3612.49 1051.67C3613.84 1051.5 3614.89 1051.13 3616.14 1050.59C3616.54 1050.42 3616.94 1050.25 3617.36 1050.08C3617.67 1049.91 3617.98 1049.74 3618.3 1049.56C3618.36 1049.21 3618.41 1048.87 3618.47 1048.51C3619.76 1047.57 3621 1046.96 3622.53 1046.47C3622.58 1046.13 3622.63 1045.78 3622.69 1045.43C3615.94 1044.82 3610.68 1046.67 3605.29 1050.74C3605.24 1050.39 3605.19 1050.04 3605.14 1049.68C3604.28 1044.93 3602.22 1042.12 3598.35 1039.3C3595.63 1037.47 3595.63 1037.47 3594.03 1037.22Z" fill="#239DA9"/>
<path d="M3575.85 1037.22C3575.5 1039.36 3574.72 1040.78 3573.56 1042.6C3572.79 1044.11 3572.76 1045.68 3572.61 1047.35C3572.25 1048.48 3571.89 1049.6 3571.53 1050.73C3571.61 1051.25 3571.69 1051.76 3571.78 1052.3C3572.03 1052.14 3572.29 1051.98 3572.55 1051.82C3577.28 1049.14 3581.5 1048.77 3586.79 1049.87C3588.04 1050.3 3588.04 1050.3 3589.33 1051.7C3588.46 1051.84 3587.6 1051.97 3586.72 1052.11C3587.06 1052.59 3587.06 1052.59 3587.4 1053.07C3585.5 1053.68 3583.72 1054.18 3581.74 1054.49C3581.39 1054.64 3581.04 1054.8 3580.68 1054.96C3579.73 1055.34 3579.73 1055.34 3578.61 1054.98C3578.69 1055.49 3578.77 1056.01 3578.85 1056.54C3579.16 1056.61 3579.47 1056.67 3579.78 1056.73C3584.62 1057.86 3588.11 1060.05 3591.36 1063.8C3591.88 1064.68 3591.88 1064.68 3591.6 1066.33C3591.34 1066.1 3591.07 1065.88 3590.8 1065.65C3589.77 1064.83 3589.77 1064.83 3588.23 1065.25C3585.83 1065.41 3584.12 1064.58 3582.01 1063.57C3580.89 1063.05 3580.89 1063.05 3579.39 1063.41C3578.11 1063.27 3576.84 1063.12 3575.57 1062.94C3575.83 1063.16 3576.08 1063.39 3576.35 1063.62C3579.32 1066.71 3581 1069.75 3581.67 1073.99C3581.78 1074.68 3581.9 1075.37 3582.02 1076.07C3582.17 1077.77 3582.15 1078.68 3581.47 1080.21C3581.3 1080.23 3581.12 1080.26 3580.95 1080.29C3580.61 1079.28 3580.28 1078.27 3579.94 1077.24C3579.46 1077.58 3579.46 1077.58 3578.97 1077.92C3577.9 1076.75 3577.12 1075.69 3576.28 1074.36C3574.79 1071.57 3574.79 1071.57 3572.37 1069.86C3571.75 1068.87 3571.24 1067.84 3570.71 1066.8C3570.22 1065.81 3570.22 1065.81 3569.03 1065.56C3569.29 1066.21 3569.54 1066.85 3569.8 1067.51C3572.49 1074.89 3574 1082.47 3575.17 1090.21C3575.28 1090.91 3575.28 1090.91 3575.39 1091.61C3579.58 1118.91 3579.58 1118.91 3576.85 1122.65C3575.63 1122.86 3574.42 1123.05 3573.19 1123.22C3573.2 1122.75 3573.2 1122.28 3573.21 1121.8C3573.23 1120.02 3573.24 1118.25 3573.26 1116.48C3573.26 1115.71 3573.27 1114.95 3573.28 1114.19C3573.37 1105.69 3572.53 1097.55 3571.23 1089.16C3571.12 1088.39 3571.12 1088.39 3571 1087.61C3569.8 1079.88 3568.28 1072.43 3565.74 1065C3563.66 1065.33 3563.21 1066.15 3561.89 1067.74C3561.57 1068.19 3561.25 1068.64 3560.93 1069.1C3560.12 1070.16 3560.12 1070.16 3559.08 1070.32C3558.96 1070.69 3558.84 1071.06 3558.72 1071.45C3558.33 1071.73 3557.95 1072.01 3557.55 1072.3C3556.04 1073.71 3555.97 1074.7 3555.8 1076.71C3555.45 1076.77 3555.11 1076.82 3554.75 1076.88C3554.66 1077.42 3554.57 1077.96 3554.48 1078.52C3553.74 1078.9 3553.74 1078.9 3552.99 1079.29C3552.81 1079.85 3552.81 1079.85 3552.63 1080.42C3552.29 1080.47 3551.94 1080.52 3551.59 1080.58C3550.53 1075.82 3551.26 1071.62 3553.76 1067.43C3555.66 1064.9 3558.11 1062.92 3560.91 1061.48C3559.8 1060.46 3559.8 1060.46 3558.56 1060.67C3558.14 1060.75 3557.71 1060.82 3557.28 1060.9C3556.85 1060.98 3556.43 1061.06 3555.99 1061.13C3555.67 1061.2 3555.34 1061.26 3555.01 1061.33C3554.78 1061.01 3554.56 1060.69 3554.32 1060.36C3553.81 1060.5 3553.81 1060.5 3553.29 1060.64C3552.84 1060.76 3552.38 1060.88 3551.92 1061C3551.47 1061.12 3551.02 1061.24 3550.56 1061.36C3548.55 1061.85 3546.98 1062.17 3544.93 1061.82C3544.87 1061.48 3544.82 1061.13 3544.76 1060.78C3543.79 1061.29 3542.81 1061.79 3541.8 1062.31C3542.47 1059.59 3544.09 1058.41 3546.28 1056.8C3549.83 1054.71 3554.03 1053.86 3558.08 1054.69C3558.7 1054.86 3559.31 1055.03 3559.94 1055.21C3559.54 1054.92 3559.14 1054.63 3558.73 1054.33C3558.45 1052.97 3558.45 1052.97 3558.32 1051.72C3558.01 1051.7 3557.71 1051.69 3557.39 1051.67C3556.04 1051.5 3554.99 1051.13 3553.74 1050.59C3553.33 1050.42 3552.93 1050.25 3552.51 1050.08C3552.2 1049.91 3551.89 1049.74 3551.57 1049.56C3551.52 1049.21 3551.46 1048.87 3551.41 1048.51C3550.12 1047.57 3548.87 1046.96 3547.35 1046.47C3547.3 1046.13 3547.24 1045.78 3547.19 1045.43C3553.93 1044.82 3559.2 1046.67 3564.59 1050.74C3564.64 1050.39 3564.69 1050.04 3564.74 1049.68C3565.59 1044.93 3567.66 1042.12 3571.52 1039.3C3574.25 1037.47 3574.25 1037.47 3575.85 1037.22Z" fill="#239DA9"/>
<path d="M3594.03 1037.22C3594.37 1039.36 3595.16 1040.78 3596.31 1042.6C3597.08 1044.11 3597.11 1045.68 3597.26 1047.35C3597.62 1048.48 3597.98 1049.6 3598.34 1050.73C3598.26 1051.25 3598.18 1051.76 3598.1 1052.3C3597.84 1052.14 3597.59 1051.98 3597.32 1051.82C3592.59 1049.14 3588.38 1048.77 3583.09 1049.87C3581.84 1050.3 3581.84 1050.3 3580.55 1051.7C3581.41 1051.84 3582.27 1051.97 3583.16 1052.11C3582.82 1052.59 3582.82 1052.59 3582.47 1053.07C3584.38 1053.68 3586.16 1054.18 3588.13 1054.49C3588.48 1054.64 3588.84 1054.8 3589.2 1054.96C3590.14 1055.34 3590.14 1055.34 3591.26 1054.98C3591.18 1055.49 3591.1 1056.01 3591.02 1056.54C3590.71 1056.61 3590.41 1056.67 3590.09 1056.73C3585.25 1057.86 3581.76 1060.05 3578.51 1063.8C3577.99 1064.68 3577.99 1064.68 3578.27 1066.33C3578.54 1066.1 3578.8 1065.88 3579.08 1065.65C3580.11 1064.83 3580.11 1064.83 3581.65 1065.25C3584.04 1065.41 3585.75 1064.58 3587.86 1063.57C3588.98 1063.05 3588.98 1063.05 3590.49 1063.41C3591.76 1063.27 3593.03 1063.12 3594.3 1062.94C3594.05 1063.16 3593.79 1063.39 3593.53 1063.62C3590.56 1066.71 3588.87 1069.75 3588.2 1073.99C3588.09 1074.68 3587.98 1075.37 3587.86 1076.07C3587.7 1077.77 3587.72 1078.68 3588.41 1080.21C3588.58 1080.23 3588.75 1080.26 3588.93 1080.29C3589.26 1079.28 3589.59 1078.27 3589.94 1077.24C3590.41 1077.58 3590.41 1077.58 3590.9 1077.92C3591.97 1076.75 3592.75 1075.69 3593.59 1074.36C3595.09 1071.57 3595.09 1071.57 3597.5 1069.86C3598.12 1068.87 3598.63 1067.84 3599.16 1066.8C3599.66 1065.81 3599.66 1065.81 3600.84 1065.56C3600.59 1066.21 3600.33 1066.85 3600.07 1067.51C3597.39 1074.89 3595.87 1082.47 3594.7 1090.21C3594.59 1090.91 3594.59 1090.91 3594.48 1091.61C3590.3 1118.91 3590.3 1118.91 3593.03 1122.65C3594.24 1122.86 3595.46 1123.05 3596.68 1123.22C3596.67 1122.75 3596.67 1122.28 3596.66 1121.8C3596.65 1120.02 3596.63 1118.25 3596.62 1116.48C3596.61 1115.71 3596.6 1114.95 3596.59 1114.19C3596.5 1105.69 3597.34 1097.55 3598.64 1089.16C3598.76 1088.39 3598.76 1088.39 3598.88 1087.61C3600.07 1079.88 3601.6 1072.43 3604.14 1065C3606.21 1065.33 3606.66 1066.15 3607.99 1067.74C3608.3 1068.19 3608.62 1068.64 3608.95 1069.1C3609.75 1070.16 3609.75 1070.16 3610.79 1070.32C3610.91 1070.69 3611.03 1071.06 3611.15 1071.45C3611.54 1071.73 3611.93 1072.01 3612.32 1072.3C3613.83 1073.71 3613.9 1074.7 3614.08 1076.71C3614.42 1076.77 3614.76 1076.82 3615.12 1076.88C3615.21 1077.42 3615.3 1077.96 3615.4 1078.52C3616.13 1078.9 3616.13 1078.9 3616.88 1079.29C3617.06 1079.85 3617.06 1079.85 3617.24 1080.42C3617.59 1080.47 3617.93 1080.52 3618.29 1080.58C3619.35 1075.82 3618.62 1071.62 3616.11 1067.43C3614.21 1064.9 3611.77 1062.92 3608.96 1061.48C3610.08 1060.46 3610.08 1060.46 3611.32 1060.67C3611.74 1060.75 3612.16 1060.82 3612.59 1060.9C3613.02 1060.98 3613.44 1061.06 3613.88 1061.13C3614.21 1061.2 3614.53 1061.26 3614.87 1061.33C3615.09 1061.01 3615.32 1060.69 3615.55 1060.36C3616.06 1060.5 3616.06 1060.5 3616.58 1060.64C3617.04 1060.76 3617.49 1060.88 3617.96 1061C3618.4 1061.12 3618.85 1061.24 3619.31 1061.36C3621.32 1061.85 3622.89 1062.17 3624.95 1061.82C3625 1061.48 3625.05 1061.13 3625.11 1060.78C3626.09 1061.29 3627.07 1061.79 3628.08 1062.31C3627.41 1059.59 3625.78 1058.41 3623.59 1056.8C3620.04 1054.71 3615.84 1053.86 3611.79 1054.69C3611.18 1054.86 3610.57 1055.03 3609.94 1055.21C3610.34 1054.92 3610.74 1054.63 3611.15 1054.33C3611.42 1052.97 3611.42 1052.97 3611.55 1051.72C3611.86 1051.7 3612.17 1051.69 3612.49 1051.67C3613.84 1051.5 3614.89 1051.13 3616.14 1050.59C3616.54 1050.42 3616.94 1050.25 3617.36 1050.08C3617.67 1049.91 3617.98 1049.74 3618.3 1049.56C3618.36 1049.21 3618.41 1048.87 3618.47 1048.51C3619.76 1047.57 3621 1046.96 3622.53 1046.47C3622.58 1046.13 3622.63 1045.78 3622.69 1045.43C3615.94 1044.82 3610.68 1046.67 3605.29 1050.74C3605.24 1050.39 3605.19 1050.04 3605.14 1049.68C3604.28 1044.93 3602.22 1042.12 3598.35 1039.3C3595.63 1037.47 3595.63 1037.47 3594.03 1037.22Z" fill="#239DA9"/>
<path d="M4650.06 976.77C4649.71 978.914 4648.93 980.333 4647.78 982.152C4647 983.661 4646.97 985.231 4646.82 986.902C4646.46 988.027 4646.1 989.153 4645.75 990.279C4645.83 990.796 4645.91 991.313 4645.99 991.846C4646.24 991.69 4646.5 991.535 4646.76 991.374C4651.49 988.688 4655.71 988.324 4661 989.419C4662.25 989.849 4662.25 989.849 4663.54 991.254C4662.68 991.388 4661.82 991.522 4660.93 991.66C4661.27 992.137 4661.27 992.137 4661.61 992.623C4659.71 993.227 4657.93 993.731 4655.95 994.039C4655.6 994.193 4655.25 994.347 4654.89 994.505C4653.95 994.886 4653.95 994.886 4652.82 994.527C4652.9 995.044 4652.98 995.561 4653.07 996.093C4653.37 996.156 4653.68 996.22 4654 996.285C4658.83 997.415 4662.33 999.597 4665.57 1003.35C4666.09 1004.23 4666.09 1004.23 4665.81 1005.88C4665.55 1005.65 4665.28 1005.43 4665.01 1005.2C4663.98 1004.38 4663.98 1004.38 4662.44 1004.8C4660.04 1004.96 4658.34 1004.13 4656.23 1003.12C4655.11 1002.6 4655.11 1002.6 4653.6 1002.96C4652.33 1002.82 4651.05 1002.67 4649.78 1002.49C4650.04 1002.71 4650.29 1002.94 4650.56 1003.17C4653.53 1006.26 4655.22 1009.3 4655.88 1013.54C4656 1014.23 4656.11 1014.92 4656.23 1015.62C4656.38 1017.32 4656.36 1018.23 4655.68 1019.76C4655.51 1019.78 4655.33 1019.81 4655.16 1019.84C4654.82 1018.83 4654.49 1017.82 4654.15 1016.79C4653.67 1017.13 4653.67 1017.13 4653.19 1017.47C4652.11 1016.3 4651.33 1015.24 4650.49 1013.91C4649 1011.12 4649 1011.12 4646.58 1009.4C4645.96 1008.42 4645.45 1007.39 4644.92 1006.35C4644.43 1005.36 4644.43 1005.36 4643.24 1005.11C4643.5 1005.76 4643.75 1006.4 4644.01 1007.06C4646.7 1014.44 4648.21 1022.02 4649.39 1029.76C4649.49 1030.46 4649.49 1030.46 4649.6 1031.16C4653.79 1058.46 4653.79 1058.46 4651.06 1062.2C4649.85 1062.41 4648.63 1062.6 4647.41 1062.77C4647.41 1062.3 4647.42 1061.83 4647.42 1061.35C4647.44 1059.57 4647.46 1057.8 4647.47 1056.03C4647.48 1055.26 4647.48 1054.5 4647.49 1053.74C4647.58 1045.24 4646.74 1037.1 4645.45 1028.71C4645.33 1027.94 4645.33 1027.94 4645.21 1027.16C4644.01 1019.43 4642.49 1011.98 4639.95 1004.55C4637.87 1004.88 4637.43 1005.7 4636.1 1007.29C4635.78 1007.74 4635.47 1008.19 4635.14 1008.65C4634.34 1009.71 4634.34 1009.71 4633.29 1009.87C4633.17 1010.24 4633.05 1010.61 4632.93 1011C4632.55 1011.28 4632.16 1011.56 4631.76 1011.85C4630.25 1013.26 4630.18 1014.25 4630.01 1016.26C4629.67 1016.32 4629.32 1016.37 4628.97 1016.43C4628.87 1016.97 4628.78 1017.51 4628.69 1018.07C4627.95 1018.45 4627.95 1018.45 4627.2 1018.84C4627.03 1019.4 4627.03 1019.4 4626.84 1019.97C4626.5 1020.02 4626.16 1020.07 4625.8 1020.13C4624.74 1015.37 4625.47 1011.17 4627.97 1006.98C4629.88 1004.45 4632.32 1002.47 4635.12 1001.03C4634.01 1000.01 4634.01 1000.01 4632.77 1000.22C4632.35 1000.3 4631.93 1000.37 4631.49 1000.45C4631.07 1000.53 4630.64 1000.61 4630.2 1000.68C4629.88 1000.75 4629.55 1000.81 4629.22 1000.87C4628.99 1000.56 4628.77 1000.24 4628.53 999.912C4628.02 1000.05 4628.02 1000.05 4627.5 1000.19C4627.05 1000.31 4626.6 1000.43 4626.13 1000.55C4625.68 1000.67 4625.24 1000.79 4624.77 1000.91C4622.76 1001.4 4621.19 1001.72 4619.14 1001.37C4619.09 1001.03 4619.03 1000.68 4618.98 1000.33C4618 1000.84 4617.02 1001.34 4616.01 1001.86C4616.68 999.141 4618.3 997.957 4620.5 996.349C4624.04 994.261 4628.24 993.407 4632.3 994.244C4632.91 994.414 4633.52 994.584 4634.15 994.759C4633.75 994.468 4633.35 994.177 4632.94 993.877C4632.66 992.516 4632.66 992.516 4632.53 991.265C4632.23 991.252 4631.92 991.239 4631.6 991.225C4630.25 991.053 4629.2 990.675 4627.95 990.14C4627.54 989.972 4627.14 989.804 4626.73 989.631C4626.41 989.458 4626.1 989.285 4625.78 989.107C4625.73 988.762 4625.68 988.417 4625.62 988.062C4624.33 987.118 4623.08 986.507 4621.56 986.02C4621.51 985.675 4621.45 985.33 4621.4 984.975C4628.14 984.367 4633.41 986.222 4638.8 990.291C4638.85 989.94 4638.9 989.59 4638.95 989.228C4639.81 984.479 4641.87 981.671 4645.74 978.847C4648.46 977.019 4648.46 977.019 4650.06 976.77Z" fill="#239DA9"/>
<path d="M4668.24 976.77C4668.58 978.914 4669.37 980.333 4670.52 982.152C4671.3 983.661 4671.32 985.231 4671.47 986.902C4671.83 988.027 4672.19 989.153 4672.55 990.279C4672.47 990.796 4672.39 991.313 4672.31 991.846C4672.05 991.69 4671.8 991.535 4671.54 991.374C4666.8 988.688 4662.59 988.324 4657.3 989.419C4656.05 989.849 4656.05 989.849 4654.76 991.254C4655.62 991.388 4656.48 991.522 4657.37 991.66C4657.03 992.137 4657.03 992.137 4656.69 992.623C4658.59 993.227 4660.37 993.731 4662.35 994.039C4662.7 994.193 4663.05 994.347 4663.41 994.505C4664.35 994.886 4664.35 994.886 4665.48 994.527C4665.4 995.044 4665.32 995.561 4665.23 996.093C4664.93 996.156 4664.62 996.22 4664.3 996.285C4659.46 997.415 4655.97 999.597 4652.72 1003.35C4652.21 1004.23 4652.21 1004.23 4652.48 1005.88C4652.75 1005.65 4653.02 1005.43 4653.29 1005.2C4654.32 1004.38 4654.32 1004.38 4655.86 1004.8C4658.25 1004.96 4659.96 1004.13 4662.07 1003.12C4663.19 1002.6 4663.19 1002.6 4664.7 1002.96C4665.97 1002.82 4667.24 1002.67 4668.51 1002.49C4668.26 1002.71 4668 1002.94 4667.74 1003.17C4664.77 1006.26 4663.08 1009.3 4662.42 1013.54C4662.3 1014.23 4662.19 1014.92 4662.07 1015.62C4661.92 1017.32 4661.94 1018.23 4662.62 1019.76C4662.79 1019.78 4662.96 1019.81 4663.14 1019.84C4663.47 1018.83 4663.81 1017.82 4664.15 1016.79C4664.63 1017.13 4664.63 1017.13 4665.11 1017.47C4666.19 1016.3 4666.97 1015.24 4667.81 1013.91C4669.3 1011.12 4669.3 1011.12 4671.71 1009.4C4672.33 1008.42 4672.85 1007.39 4673.38 1006.35C4673.87 1005.36 4673.87 1005.36 4675.06 1005.11C4674.8 1005.76 4674.55 1006.4 4674.28 1007.06C4671.6 1014.44 4670.09 1022.02 4668.91 1029.76C4668.81 1030.46 4668.81 1030.46 4668.7 1031.16C4664.51 1058.46 4664.51 1058.46 4667.24 1062.2C4668.45 1062.41 4669.67 1062.6 4670.89 1062.77C4670.89 1062.3 4670.88 1061.83 4670.88 1061.35C4670.86 1059.57 4670.84 1057.8 4670.83 1056.03C4670.82 1055.26 4670.81 1054.5 4670.81 1053.74C4670.71 1045.24 4671.56 1037.1 4672.85 1028.71C4672.97 1027.94 4672.97 1027.94 4673.09 1027.16C4674.29 1019.43 4675.81 1011.98 4678.35 1004.55C4680.43 1004.88 4680.87 1005.7 4682.2 1007.29C4682.52 1007.74 4682.83 1008.19 4683.16 1008.65C4683.96 1009.71 4683.96 1009.71 4685.01 1009.87C4685.12 1010.24 4685.24 1010.61 4685.37 1011C4685.75 1011.28 4686.14 1011.56 4686.54 1011.85C4688.04 1013.26 4688.12 1014.25 4688.29 1016.26C4688.63 1016.32 4688.98 1016.37 4689.33 1016.43C4689.42 1016.97 4689.51 1017.51 4689.61 1018.07C4690.34 1018.45 4690.34 1018.45 4691.09 1018.84C4691.27 1019.4 4691.27 1019.4 4691.45 1019.97C4691.8 1020.02 4692.14 1020.07 4692.5 1020.13C4693.56 1015.37 4692.83 1011.17 4690.32 1006.98C4688.42 1004.45 4685.98 1002.47 4683.18 1001.03C4684.29 1000.01 4684.29 1000.01 4685.53 1000.22C4685.95 1000.3 4686.37 1000.37 4686.81 1000.45C4687.23 1000.53 4687.66 1000.61 4688.09 1000.68C4688.42 1000.75 4688.74 1000.81 4689.08 1000.87C4689.31 1000.56 4689.53 1000.24 4689.76 999.912C4690.27 1000.05 4690.27 1000.05 4690.8 1000.19C4691.25 1000.31 4691.7 1000.43 4692.17 1000.55C4692.62 1000.67 4693.06 1000.79 4693.52 1000.91C4695.53 1001.4 4697.1 1001.72 4699.16 1001.37C4699.21 1001.03 4699.27 1000.68 4699.32 1000.33C4700.3 1000.84 4701.28 1001.34 4702.29 1001.86C4701.62 999.141 4700 997.957 4697.8 996.349C4694.25 994.261 4690.05 993.407 4686 994.244C4685.39 994.414 4684.78 994.584 4684.15 994.759C4684.55 994.468 4684.95 994.177 4685.36 993.877C4685.64 992.516 4685.64 992.516 4685.76 991.265C4686.07 991.252 4686.38 991.239 4686.7 991.225C4688.05 991.053 4689.1 990.675 4690.35 990.14C4690.75 989.972 4691.16 989.804 4691.57 989.631C4691.88 989.458 4692.19 989.285 4692.51 989.107C4692.57 988.762 4692.62 988.417 4692.68 988.062C4693.97 987.118 4695.21 986.507 4696.74 986.02C4696.79 985.675 4696.84 985.33 4696.9 984.975C4690.16 984.367 4684.89 986.222 4679.5 990.291C4679.45 989.94 4679.4 989.59 4679.35 989.228C4678.49 984.479 4676.43 981.671 4672.56 978.847C4669.84 977.019 4669.84 977.019 4668.24 976.77Z" fill="#239DA9"/>
<path d="M973.1 1297.35L1085.82 1333.48L2411.25 1830.7L439.223 1866.35L-18.9999 1193L15 1184L51 1184L84 1184L145 1170L219 1170L248 1163.08L305 1155.16L353 1163.08L401 1155.16L541.327 1163.08L552.211 1155.16L562.196 1133.74L622.96 1133.74L622.959 1147.57L702.74 1147.57L739.823 1164.79L784.23 1312.4L851.871 1267.25L935.525 1267.24L973.1 1297.35Z" fill="#239DA9"/>
<path d="M2023.96 1149.27L1983.15 1161.63L469.486 1840.78L4740.28 1847.63L4748.08 1066.86L4702.65 1069.04L4648.15 1054.75L4602.72 1056.93L4553.53 1067.08L4507.97 1066.67L4479.37 1074.54L4438.07 1076.52L4384.37 1079.09L4310.28 1087.84L4260.28 1081.13L4198.33 1084.1L4124.17 1091.56L4041.38 1091.62L3954.64 1095.78L3921.23 1089.58L3846.63 1087.95L3805.58 1095.12L3764.03 1091.91L3734.87 1088.1L3664.9 1096.66L3565.41 1093.62L3478.79 1100.37L3441.62 1102.15L3363.02 1103.32L3259.89 1110.86L3169.03 1115.21L3074.53 1130.14L2967.14 1135.29L2946.49 1136.28L2859.76 1140.43L2761 1152.96L2736.22 1154.15L2723.15 1146.34L2711.29 1125.01L2637.85 1125.62L2637.71 1139.45L2541.29 1140.25L2496.3 1157.85L2442.6 1160.42L2259.88 1148.37L2214.45 1150.55L2143.73 1143.53L2078.15 1157.08L2023.96 1149.27Z" fill="#239DA9"/>
<path d="M2831.53 139.886C2720.2 197.356 2692.75 230.014 2693.67 242.251C2753.17 267.943 2840.83 243.726 2877.22 228.406L2831.53 139.886Z" fill="url(#paint6_linear_246_31281)"/>
<path d="M2831.53 139.885C2941.95 82.8864 2985.39 78.9598 2994.83 86.7999C2981.31 150.177 2910.79 207.611 2877.22 228.406L2831.53 139.885Z" fill="url(#paint7_linear_246_31281)"/>
<path d="M2791.98 82.289L2822.45 148.039L2836.6 140.738L2803.39 76.4007L2791.98 82.289Z" fill="url(#paint8_linear_246_31281)"/>
<path d="M2807.49 74.2784L2843.44 137.202L2829.29 144.504L2796.08 80.1667L2807.49 74.2784Z" fill="url(#paint9_linear_246_31281)"/>
<path d="M2838.1 257.846L2831.98 245.982L2842.02 240.801L2848.14 252.664L2872.04 254.194L2860.27 231.379L2889.47 216.306L2901.25 239.12L2912.93 219.219L2906.81 207.355L2918.67 201.232L2924.8 213.095L2905.02 246.421L2875.81 261.495L2838.1 257.846Z" fill="url(#paint10_linear_246_31281)"/>
<defs>
<linearGradient id="paint0_linear_246_31281" x1="2292.36" y1="991.805" x2="2292.36" y2="1150.59" gradientUnits="userSpaceOnUse">
<stop stop-color="#30C7D6"/>
<stop offset="1" stop-color="#12838E"/>
</linearGradient>
<linearGradient id="paint1_linear_246_31281" x1="2217.77" y1="954.915" x2="2217.77" y2="1158.61" gradientUnits="userSpaceOnUse">
<stop stop-color="#30C7D6"/>
<stop offset="1" stop-color="#12838E"/>
</linearGradient>
<linearGradient id="paint2_linear_246_31281" x1="678.808" y1="991.805" x2="678.808" y2="1150.59" gradientUnits="userSpaceOnUse">
<stop stop-color="#30C7D6"/>
<stop offset="1" stop-color="#12838E"/>
</linearGradient>
<linearGradient id="paint3_linear_246_31281" x1="604.226" y1="954.915" x2="604.226" y2="1158.61" gradientUnits="userSpaceOnUse">
<stop stop-color="#30C7D6"/>
<stop offset="1" stop-color="#12838E"/>
</linearGradient>
<linearGradient id="paint4_linear_246_31281" x1="2780.34" y1="236.135" x2="2780.34" y2="1160.94" gradientUnits="userSpaceOnUse">
<stop stop-color="#39969E"/>
<stop offset="1" stop-color="#239DA9"/>
</linearGradient>
<linearGradient id="paint5_linear_246_31281" x1="2986.77" y1="236.135" x2="2986.77" y2="1160.94" gradientUnits="userSpaceOnUse">
<stop stop-color="#39969E"/>
<stop offset="1" stop-color="#239DA9"/>
</linearGradient>
<linearGradient id="paint6_linear_246_31281" x1="2791.16" y1="252.91" x2="2729" y2="138.215" gradientUnits="userSpaceOnUse">
<stop stop-color="#2CABBE"/>
<stop offset="1" stop-color="#3697A0"/>
</linearGradient>
<linearGradient id="paint7_linear_246_31281" x1="2947.05" y1="172.441" x2="2889.56" y2="55.3412" gradientUnits="userSpaceOnUse">
<stop stop-color="#2CABBE"/>
<stop offset="1" stop-color="#3697A0"/>
</linearGradient>
<linearGradient id="paint8_linear_246_31281" x1="2823.37" y1="133.084" x2="2768.1" y2="57.4121" gradientUnits="userSpaceOnUse">
<stop stop-color="#2CABBE"/>
<stop offset="1" stop-color="#3697A0"/>
</linearGradient>
<linearGradient id="paint9_linear_246_31281" x1="2830.71" y1="129.291" x2="2801.04" y2="40.4068" gradientUnits="userSpaceOnUse">
<stop stop-color="#2CABBE"/>
<stop offset="1" stop-color="#3697A0"/>
</linearGradient>
<linearGradient id="paint10_linear_246_31281" x1="2886.58" y1="249.16" x2="2865.75" y2="209.963" gradientUnits="userSpaceOnUse">
<stop stop-color="#2CABBE"/>
<stop offset="1" stop-color="#3697A0"/>
</linearGradient>
</defs>
</svg>
