<svg width="4682" height="1293" viewBox="0 0 4682 1293" fill="none" xmlns="http://www.w3.org/2000/svg">
<path d="M3372.53 386.387C3377.96 390.466 3383.39 394.544 3388.99 398.746C3386.95 402.824 3386.95 402.824 3384.87 406.985C3386.23 411.063 3387.59 415.142 3388.99 419.343C3392.38 420.533 3395.78 421.722 3399.28 422.948C3402.67 424.477 3406.07 426.007 3409.56 427.582C3412.39 437.278 3412.39 437.278 3413.68 448.18C3417.58 455.172 3421.67 462.06 3426.02 468.778C3427.38 471.497 3428.74 474.215 3430.14 477.017C3427.1 475.827 3424.06 474.638 3420.93 473.412C3377.73 457.585 3344.93 454.372 3302.16 472.607C3294.34 477.017 3294.34 477.017 3290.23 485.256C3295.66 485.256 3301.09 485.256 3306.69 485.256C3308.05 487.975 3309.41 490.693 3310.8 493.495C3313.54 493.399 3316.27 493.304 3319.08 493.205C3339.23 492.793 3354 493.212 3372.53 501.734C3382.1 503.305 3391.7 504.719 3401.33 505.853C3397.29 505.869 3397.29 505.869 3393.17 505.885C3357.33 507.406 3324.76 517.781 3298.09 542.736C3291.26 550.653 3291.26 550.653 3282 563.526C3284.04 567.605 3284.04 567.605 3286.11 571.766C3292.23 567.687 3292.23 567.687 3298.46 563.526C3303.89 563.526 3309.32 563.526 3314.92 563.526C3335.87 562.101 3352.99 558.993 3372.53 551.168C3381.57 552.396 3381.57 552.396 3388.99 555.287C3390.35 555.287 3391.7 555.287 3393.1 555.287C3390.05 558.261 3386.99 561.235 3383.84 564.299C3358.88 589.863 3343.72 613.474 3343.72 650.036C3349.83 647.997 3349.83 647.997 3356.07 645.917C3357.43 643.198 3358.78 640.479 3360.18 637.678C3362.9 637.678 3365.62 637.678 3368.41 637.678C3371.13 634.959 3373.85 632.24 3376.64 629.439C3384.08 623.269 3391.54 617.143 3399.03 611.046C3405.45 604.722 3405.45 604.722 3409.56 592.363C3416.35 592.363 3423.14 592.363 3430.14 592.363C3429.12 595.193 3428.11 598.023 3427.06 600.939C3385.3 718.661 3361.81 833.992 3364.3 959C3372.45 959 3380.59 959 3388.99 959C3389.05 956.669 3389.11 954.338 3389.17 951.937C3392.45 836.135 3402.55 717.121 3446.6 608.841C3447.19 611.284 3447.78 613.727 3448.38 616.243C3451.33 627.714 3455.13 638.83 3458.94 650.036C3455.89 652.075 3455.89 652.075 3452.77 654.156C3443.02 667.167 3446.09 679.314 3446.6 695.351C3445.24 698.07 3443.88 700.789 3442.48 703.59C3464.71 700.167 3474.95 683.714 3487.75 666.514C3501.22 643.015 3501.52 622.823 3500.09 596.483C3501.66 602.441 3501.66 602.441 3503.26 608.519C3504.67 613.723 3506.09 618.928 3507.55 624.289C3508.93 629.451 3510.32 634.613 3511.75 639.931C3516.12 652.871 3520.31 660.324 3528.9 670.634C3531.8 679.48 3531.8 679.48 3533.01 687.112C3535.73 687.112 3538.44 687.112 3541.24 687.112C3557.73 654.093 3554.64 622.692 3544.09 588.469C3543.15 585.676 3542.21 582.882 3541.24 580.005C3543.47 581.693 3545.71 583.382 3548.01 585.122C3550.95 587.341 3553.9 589.561 3556.93 591.848C3559.84 594.047 3562.75 596.245 3565.75 598.51C3572.53 603.519 3579.49 608.282 3586.51 612.961C3587.86 611.601 3589.22 610.242 3590.62 608.841C3591.98 611.56 3593.34 614.279 3594.74 617.08C3602.71 621.457 3602.71 621.457 3611.2 625.319C3615.27 627.358 3615.27 627.358 3619.43 629.439C3618.26 596.656 3606.31 578.549 3582.87 556.108C3573.46 547.851 3564.8 540.305 3553.59 534.69C3558.2 534.69 3562.81 534.69 3567.55 534.69C3591.7 534.69 3615.85 534.69 3640 534.69C3633.11 513.985 3613.45 507.159 3594.74 497.614C3572.59 488.416 3553.25 489.124 3529.72 492.304C3520.15 493.763 3520.15 493.763 3508.32 493.495C3509.68 490.266 3511.04 487.037 3512.44 483.711C3520.71 453.685 3519.63 428.773 3504.9 401.192C3500.09 394.626 3500.09 394.626 3487.75 386.387C3487.15 390.296 3486.56 394.204 3485.95 398.231C3484.33 410.665 3484.33 410.665 3479.52 419.343C3480.37 421.722 3481.21 424.101 3482.09 426.553C3484.4 440.43 3478.03 448.653 3471.29 460.539C3469.25 455.696 3467.21 450.853 3465.11 445.863C3449.59 415.045 3423.93 398.037 3393.02 384.456C3384.87 382.268 3384.87 382.268 3372.53 386.387ZM3434.25 584.124C3430.14 592.363 3430.14 592.363 3430.14 592.363L3434.25 584.124Z" fill="url(#paint0_linear_246_31279)"/>
<rect x="-59" y="935" width="4795" height="531" fill="#0A484E"/>
<path d="M2312.29 864L2349 872.92V990H-107V905.257H-66.6172L-18.8923 890.761H21.4902L65.5442 897.451L105.927 895.221L131.625 900.796H168.336H216.061L282.142 905.257L326.196 897.451H381.263L447.344 900.796L520.767 897.451H597.861L627.23 890.761L693.311 886.301L730.022 890.761L766.734 886.301L792.432 881.841L854.842 886.301L942.949 879.611L1020.04 881.841H1053.08L1122.84 879.611L1214.61 881.841H1295.38L1379.82 890.761H1475.27H1493.62H1570.72L1658.82 897.451H1680.85L1702.88 890.761L1743.26 904.142L1809.34 915.292L1838.71 909.717L1864.41 890.761H1893.78H1941.5L2103.03 872.92H2143.42L2205.83 864L2264.56 872.92L2312.29 864Z" fill="#0A484E"/>
<path d="M2383.87 864L2349 872.92V990H4682V905.257H4643.64L4598.3 890.761H4559.94L4518.1 897.451L4479.74 895.221L4455.33 900.796H4420.45H4375.12L4312.35 905.257L4270.5 897.451H4218.19L4155.42 900.796L4085.67 897.451H4012.44L3984.54 890.761L3921.77 886.301L3886.9 890.761L3852.02 886.301L3827.61 881.841L3768.33 886.301L3684.63 879.611L3611.4 881.841H3580.01L3513.76 879.611L3426.57 881.841H3349.85L3269.65 890.761H3178.98H3161.54H3088.31L3004.61 897.451H2983.69L2962.76 890.761L2924.4 904.142L2861.63 915.292L2833.73 909.717L2809.32 890.761H2781.42H2736.09L2582.65 872.92H2544.29L2485 864L2429.21 872.92L2383.87 864Z" fill="#0A484E"/>
<path d="M1873.97 0.654297L1644.81 2.92749L1626.48 16.5666L1615.02 14.2934L1495.86 62.0305L1422.53 91.582L1417.95 105.221L1413.36 157.505L1411.07 171.144L1401.91 177.963L1395.03 207.515L1378.99 225.7L1388.16 266.618L1413.36 359.819L1427.11 362.092L1436.28 375.731H1468.36L1466.07 407.556L1459.2 457.566V487.117L1450.03 562.133L1440.86 643.968L1433.99 682.612L1415.66 703.071L1413.36 709.89V725.803L1415.66 739.442L1399.61 755.354L1390.45 775.813L1388.16 798.545L1392.74 809.911H1413.36L1420.24 805.364L1415.66 821.277L1390.45 832.643L1383.57 855.374L1381.28 871.287L1385.86 882.653L1372.12 884.926L1358.37 891.746V894.019H1784.6L1780.02 889.472L1759.39 882.653V878.106H1763.98V862.194L1759.39 857.648L1754.81 837.189L1731.89 823.55L1725.02 809.911H1750.23L1757.1 803.091L1754.81 778.086L1745.64 755.354L1727.31 739.442L1729.6 716.71L1715.85 693.978L1708.98 687.158H1704.39L1702.1 655.334L1699.81 637.148L1697.52 584.865L1692.94 564.406L1635.65 450.746L1631.06 432.561L1605.86 384.824L1624.19 382.551L1697.52 362.092L1706.69 357.545L1711.27 350.726H1743.35L1782.31 366.638L1846.47 378.004L1903.76 391.643H1910.64L1915.22 412.102L1924.39 418.922L1928.97 414.375L1940.43 450.746L1951.88 491.664L1958.76 496.21L1974.8 546.22L1983.97 571.225L1986.26 600.777L1961.05 630.328L1954.18 634.875L1931.26 641.694L1917.51 650.787L1912.93 664.426L1890.01 671.246L1867.1 684.885L1862.51 693.978L1876.26 714.437L1862.51 716.71L1841.89 707.617L1830.43 712.163L1823.56 718.983H1812.1L1802.93 730.349V734.895H1768.56L1775.43 741.715L1796.06 755.354L1818.97 780.359L1823.56 789.452V800.818L1844.18 823.55L1857.93 825.823L1876.26 846.282L1890.01 869.014L1899.18 884.926L1901.47 878.106V855.374L1912.93 850.828L1919.8 846.282L1926.68 830.369L1933.55 823.55V809.911L1928.97 800.818L1931.26 789.452L1938.13 784.906L1951.88 803.091L1963.34 798.545L1977.09 782.632L1990.84 759.9L1995.42 743.988L2000.01 750.808L1990.84 762.174L1986.26 778.086V809.911L2002.3 812.184L2013.76 809.911L2011.47 823.55L1995.42 832.643L1986.26 834.916L1981.67 862.194L1977.09 864.467L1979.38 880.38L1970.22 887.199L1954.18 894.019L1951.88 898.565H2167.29L2158.13 891.746L2144.38 884.926H2139.79L2142.09 864.467L2137.5 853.101L2135.21 837.189L2116.88 830.369L2107.71 825.823L2105.42 809.911L2116.88 814.457L2132.92 812.184L2135.21 807.637V787.179L2128.34 764.447L2114.59 746.261L2105.42 737.168L2112.29 730.349L2110 714.437L2093.96 691.705L2089.38 684.885L2080.21 639.421V625.782L2098.55 614.416L2105.42 603.05L2107.71 596.231V571.225L2103.13 559.86L2098.55 539.401L2064.17 462.112L2059.59 439.38L2025.21 355.272L2018.34 316.628L2002.3 289.35L2052.71 287.076L2059.59 266.618L2073.34 264.345L2093.96 266.618L2110 264.345L2126.04 266.618L2144.38 264.345L2153.54 266.618L2146.67 291.623L2158.13 293.896L2169.58 307.535L2247.5 309.808L2254.37 321.174L2268.12 323.448L2286.45 314.355L2295.62 316.628L2297.91 321.174H2359.79L2366.66 305.262L2433.12 302.989L2435.41 291.623L2407.91 289.35L2403.33 266.618L2423.95 264.345L2426.24 259.798H2403.33V255.252L2414.78 250.705L2417.07 241.613L2410.2 227.973L2380.41 212.061L2373.53 196.149L2346.04 189.329L2334.58 175.69L2295.62 166.597L2279.58 168.87L2263.54 171.144L2187.92 152.958H2162.71L2160.42 166.597H2135.21L2116.88 164.324H2082.5L2059.59 166.597V77.9428L1931.26 34.7522L1919.8 30.2058L1908.34 32.479L1899.18 21.113L1887.72 5.20068L1873.97 0.654297ZM1553.15 493.937L1592.11 557.586L1605.86 580.318L1617.31 634.875L1624.19 680.339V696.251L1612.73 725.803V739.442L1619.61 750.808L1615.02 759.9L1610.44 773.54V807.637L1633.36 809.911V823.55L1608.15 837.189L1603.56 857.648L1598.98 864.467V875.833V884.926L1571.48 891.746L1543.98 882.653L1546.28 859.921H1541.69L1534.82 839.462L1523.36 830.369L1514.19 825.823L1509.61 816.73V807.637L1539.4 805.364L1534.82 778.086L1525.65 755.354L1518.78 746.261L1527.94 732.622V716.71L1521.07 698.524L1518.78 696.251V675.792L1527.94 609.87L1534.82 589.411L1537.11 557.586L1548.57 498.483L1553.15 493.937ZM1915.22 689.431L1931.26 709.89V718.983L1922.09 714.437L1906.05 700.797H1892.3L1903.76 691.705L1915.22 689.431ZM1942.72 721.256L1954.18 732.622L1967.93 734.895V750.808L1958.76 768.993H1951.88L1954.18 755.354L1931.26 728.076L1933.55 721.256H1942.72ZM1708.98 753.081L1720.44 764.447L1727.31 773.54V791.725L1720.44 787.179V782.632L1711.27 780.359L1676.9 778.086L1674.6 762.174L1706.69 753.081H1708.98ZM1440.86 753.081L1466.07 755.354V775.813L1427.11 780.359L1420.24 784.906L1417.95 775.813L1436.28 753.081H1440.86ZM2089.38 757.627L2100.84 766.72L2107.71 778.086L2105.42 791.725L2098.55 784.906L2059.59 782.632L2057.3 759.9L2068.75 762.174L2089.38 757.627ZM1667.73 762.174L1670.02 780.359H1642.52L1637.94 789.452L1635.65 787.179V771.266L1644.81 762.174H1667.73ZM1477.53 759.9L1505.03 764.447L1511.9 778.086V787.179L1505.03 784.906L1502.74 780.359L1470.65 778.086L1472.94 759.9H1477.53ZM2048.13 764.447L2050.42 766.72V782.632H2018.34V793.998H2013.76V773.54L2020.63 766.72H2036.67L2048.13 764.447Z" fill="url(#paint1_linear_246_31279)"/>
<path d="M2346.58 1348.68C2291 1291.56 2846.08 1253.8 2627.02 1214.76C2583.21 1206.95 2132.25 1205.78 2100.35 1195.08C2041.47 1175.35 2481.6 1132.64 2100.35 1132.64L-15 1098L-35 1454L3482.34 1486.38C3482.34 1486.38 3445.87 1430.9 3147.95 1404.26C2838.66 1376.62 2421.54 1425.71 2346.58 1348.68Z" fill="url(#paint2_linear_246_31279)"/>
<path d="M770.486 592C770.486 593.594 770.486 595.187 770.486 596.829C768.894 597.626 767.301 598.423 765.661 599.244C766.18 600.996 766.699 602.749 767.235 604.554C768.266 612.872 766.507 615.881 762.192 622.938C760.48 625.8 760.48 625.8 758.733 628.719C757.834 630.148 756.935 631.577 756.009 633.049C757.673 631.913 759.337 630.777 761.052 629.606C788.398 611.475 810.262 606.299 842.872 608.902C851.288 611.364 851.288 611.364 857.349 613.732C857.349 615.325 857.349 616.919 857.349 618.561C852.571 618.561 847.794 618.561 842.872 618.561C842.872 620.155 842.872 621.748 842.872 623.39C840.582 624.087 838.293 624.785 835.935 625.503C828.269 627.66 828.269 627.66 823.569 633.049C817.235 632.143 817.235 632.143 811.505 630.634C812.699 634.22 812.699 634.22 813.917 637.878C811.529 637.878 809.14 637.878 806.679 637.878C805.485 643.854 805.485 643.854 804.266 649.951C802.674 649.951 801.081 649.951 799.44 649.951C799.44 651.545 799.44 653.139 799.44 654.78C795.857 655.976 795.857 655.976 792.202 657.195C790.433 662.061 790.433 662.061 789.789 666.854C791.948 667.034 794.106 667.215 796.33 667.401C824.863 670.506 842.852 678.955 861.505 700.828C864.694 705.649 865.983 709.492 867 715.146C865.208 713.951 863.417 712.756 861.571 711.524C854.783 707.132 854.783 707.132 845.284 707.902C836.782 705.421 828.953 702.445 821.156 698.244C819.962 700.634 819.962 700.634 818.743 703.073C814.762 702.276 810.781 701.48 806.679 700.659C805.883 703.049 805.086 705.44 804.266 707.902C801.081 705.512 797.896 703.121 794.615 700.659C793.818 703.049 793.022 705.44 792.202 707.902C788.221 705.512 784.239 703.121 780.138 700.659C781.83 702.302 783.522 703.945 785.265 705.639C803.581 724.125 814.913 739.816 816.933 766.608C816.204 777.373 813.262 784.917 809.092 794.829C808.121 792.513 808.121 792.513 807.131 790.151C804.539 784.371 804.539 784.371 797.028 782.756C795.369 777.776 795.369 777.776 794.615 773.098C793.022 773.098 791.43 773.098 789.789 773.098C788.993 768.317 788.197 763.536 787.376 758.61C785.784 758.61 784.191 758.61 782.55 758.61C782.55 757.016 782.55 755.422 782.55 753.78C780.958 753.78 779.365 753.78 777.725 753.78C776.53 744.219 776.53 744.219 775.312 734.463C771.729 735.659 771.729 735.659 768.073 736.878C767.476 734.986 766.879 733.093 766.264 731.143C762.798 723.859 760.721 723.077 753.596 719.976C755.15 738.088 757.775 755.914 760.684 773.852C769.677 831.049 773.051 888.027 773.201 945.895C773.212 948.956 773.223 952.017 773.235 955.171C773.23 958.04 773.225 960.908 773.22 963.863C773.217 966.423 773.214 968.984 773.211 971.622C772.938 977.495 772.18 982.397 770.486 988C765.709 988 760.931 988 756.009 988C756.025 986.01 756.025 986.01 756.042 983.979C756.727 894.899 753.058 808.311 741.532 719.976C732.626 721.261 730.155 721.628 723.888 728.578C722.545 730.52 721.201 732.462 719.817 734.463C718.224 732.87 716.632 731.276 714.991 729.634C714.195 734.415 713.398 739.196 712.578 744.122C710.189 743.325 707.801 742.528 705.339 741.707C704.792 744.347 704.245 746.986 703.681 749.706C700.052 759.907 697.71 761.101 688.45 765.854C687.255 769.439 687.255 769.439 686.037 773.098C684.444 773.098 682.852 773.098 681.211 773.098C680.415 775.488 679.619 777.879 678.798 780.341C677.206 780.341 675.613 780.341 673.972 780.341C672.02 741.704 683.456 726.085 707.752 698.244C705.527 698.851 705.527 698.851 703.256 699.47C701.306 699.962 699.356 700.454 697.347 700.96C695.415 701.465 693.484 701.969 691.494 702.488C686.037 703.073 686.037 703.073 678.798 698.244C677.156 699.489 675.514 700.734 673.822 702.017C664.755 706.457 659.665 704.477 649.844 703.073C642.87 706.207 642.87 706.207 637.78 710.317C637.78 707.13 637.78 703.942 637.78 700.659C633.002 703.846 628.225 707.033 623.303 710.317C622.108 706.731 622.108 706.731 620.89 703.073C619.447 704.318 618.004 705.563 616.517 706.846C614.775 707.991 613.033 709.137 611.239 710.317C608.85 709.52 606.461 708.723 604 707.902C618.526 687.051 631.941 674.981 657.083 669.268C665.09 668.731 673.04 668.808 681.06 668.966C683.171 668.988 685.281 669.01 687.455 669.032C692.613 669.089 697.77 669.175 702.927 669.268C694.749 660.929 686.395 653.385 677.243 646.159C673.972 642.707 673.972 642.707 673.972 635.463C670.788 634.667 667.603 633.87 664.321 633.049C664.321 631.455 664.321 629.861 664.321 628.22C662.43 628.02 660.539 627.821 658.591 627.616C652.257 625.805 652.257 625.805 649.392 621.127C648.745 619.483 648.098 617.84 647.431 616.146C645.839 614.553 644.246 612.959 642.606 611.317C670.031 609.593 691.273 614.463 713.172 631.455C718.39 636.397 722.677 641.846 727.055 647.537C727.556 645.495 728.057 643.453 728.572 641.349C733.923 621.635 740.233 604.776 758.497 593.915C763.248 592 763.248 592 770.486 592Z" fill="url(#paint3_linear_246_31279)"/>
<path d="M4509.06 479C4509.06 481.032 4509.06 483.065 4509.06 485.159C4507.04 486.175 4505.01 487.191 4502.92 488.238C4503.58 490.473 4504.24 492.707 4504.92 495.01C4506.24 505.618 4504 509.454 4498.5 518.453C4496.32 522.103 4496.32 522.103 4494.09 525.827C4492.95 527.648 4491.8 529.47 4490.62 531.348C4492.74 529.899 4494.86 528.45 4497.05 526.957C4531.88 503.835 4559.73 497.234 4601.27 500.555C4611.99 503.694 4611.99 503.694 4619.71 506.713C4619.71 508.746 4619.71 510.778 4619.71 512.872C4613.62 512.872 4607.54 512.872 4601.27 512.872C4601.27 514.904 4601.27 516.937 4601.27 519.03C4598.35 519.92 4595.43 520.809 4592.43 521.725C4582.67 524.475 4582.67 524.475 4576.68 531.348C4568.61 530.193 4568.61 530.193 4561.31 528.268C4562.83 532.841 4562.83 532.841 4564.39 537.506C4561.34 537.506 4558.3 537.506 4555.17 537.506C4553.64 545.127 4553.64 545.127 4552.09 552.902C4550.06 552.902 4548.03 552.902 4545.94 552.902C4545.94 554.935 4545.94 556.967 4545.94 559.061C4541.38 560.585 4541.38 560.585 4536.72 562.14C4534.47 568.345 4534.47 568.345 4533.65 574.457C4536.4 574.688 4539.15 574.918 4541.98 575.155C4578.33 579.115 4601.24 589.889 4625 617.784C4629.06 623.931 4630.7 628.832 4632 636.043C4629.72 634.518 4627.44 632.994 4625.08 631.424C4616.44 625.822 4616.44 625.822 4604.34 626.805C4593.51 623.64 4583.54 619.846 4573.61 614.488C4572.08 617.536 4572.08 617.536 4570.53 620.646C4565.46 619.63 4560.39 618.614 4555.17 617.567C4554.15 620.616 4553.14 623.664 4552.09 626.805C4548.03 623.756 4543.98 620.708 4539.8 617.567C4538.78 620.616 4537.77 623.664 4536.72 626.805C4531.65 623.756 4526.58 620.708 4521.36 617.567C4523.51 619.663 4525.67 621.759 4527.89 623.918C4551.22 647.493 4565.65 667.503 4568.23 701.67C4567.3 715.398 4563.55 725.018 4558.24 737.659C4557 734.705 4557 734.705 4555.74 731.692C4552.44 724.321 4552.44 724.321 4542.87 722.262C4540.76 715.911 4540.76 715.911 4539.8 709.945C4537.77 709.945 4535.74 709.945 4533.65 709.945C4532.64 703.848 4531.62 697.751 4530.58 691.47C4528.55 691.47 4526.52 691.47 4524.43 691.47C4524.43 689.437 4524.43 687.405 4524.43 685.311C4522.4 685.311 4520.37 685.311 4518.28 685.311C4516.76 673.117 4516.76 673.117 4515.21 660.677C4510.65 662.201 4510.65 662.201 4505.99 663.756C4505.23 661.343 4504.47 658.929 4503.69 656.443C4499.27 647.154 4496.63 646.156 4487.55 642.201C4489.53 665.3 4492.87 688.032 4496.58 710.907C4508.03 783.848 4512.33 856.509 4512.52 930.305C4512.54 934.209 4512.55 938.113 4512.57 942.135C4512.56 945.793 4512.55 949.451 4512.55 953.219C4512.54 956.484 4512.54 959.749 4512.54 963.113C4512.19 970.603 4511.22 976.855 4509.06 984C4502.98 984 4496.89 984 4490.62 984C4490.64 981.462 4490.64 981.462 4490.67 978.873C4491.54 865.273 4486.86 754.852 4472.18 642.201C4460.84 643.841 4457.69 644.308 4449.71 653.171C4448 655.648 4446.29 658.125 4444.52 660.677C4442.49 658.645 4440.47 656.612 4438.38 654.518C4437.36 660.615 4436.35 666.712 4435.3 672.994C4432.26 671.978 4429.22 670.962 4426.08 669.915C4425.39 673.281 4424.69 676.647 4423.97 680.115C4419.35 693.124 4416.36 694.647 4404.57 700.707C4403.05 705.28 4403.05 705.28 4401.5 709.945C4399.47 709.945 4397.44 709.945 4395.35 709.945C4394.33 712.994 4393.32 716.042 4392.28 719.183C4390.25 719.183 4388.22 719.183 4386.13 719.183C4383.64 669.911 4398.21 649.992 4429.16 614.488C4426.32 615.262 4426.32 615.262 4423.43 616.051C4420.95 616.679 4418.46 617.306 4415.9 617.952C4413.44 618.595 4410.98 619.238 4408.45 619.901C4401.5 620.646 4401.5 620.646 4392.28 614.488C4390.18 616.076 4388.09 617.663 4385.94 619.299C4374.39 624.962 4367.9 622.437 4355.39 620.646C4346.51 624.643 4346.51 624.643 4340.03 629.884C4340.03 625.82 4340.03 621.755 4340.03 617.567C4333.94 621.632 4327.86 625.696 4321.59 629.884C4320.07 625.311 4320.07 625.311 4318.51 620.646C4316.68 622.234 4314.84 623.822 4312.94 625.458C4310.72 626.918 4308.51 628.379 4306.22 629.884C4303.18 628.868 4300.13 627.852 4297 626.805C4315.5 600.214 4332.59 584.821 4364.61 577.537C4374.81 576.852 4384.94 576.949 4395.16 577.152C4397.84 577.179 4400.53 577.207 4403.3 577.236C4409.87 577.308 4416.44 577.418 4423.01 577.537C4412.59 566.902 4401.95 557.281 4390.29 548.067C4386.13 543.665 4386.13 543.665 4386.13 534.427C4382.07 533.411 4378.01 532.395 4373.83 531.348C4373.83 529.315 4373.83 527.283 4373.83 525.189C4371.43 524.935 4369.02 524.681 4366.54 524.419C4358.47 522.11 4358.47 522.11 4354.82 516.144C4353.99 514.048 4353.17 511.952 4352.32 509.793C4350.29 507.76 4348.26 505.728 4346.17 503.634C4381.11 501.435 4408.17 507.645 4436.06 529.315C4442.71 535.618 4448.17 542.566 4453.74 549.823C4454.38 547.219 4455.02 544.615 4455.68 541.933C4462.49 516.793 4470.53 495.292 4493.79 481.442C4499.84 479 4499.84 479 4509.06 479Z" fill="url(#paint4_linear_246_31279)"/>
<defs>
<linearGradient id="paint0_linear_246_31279" x1="3461" y1="383" x2="3461" y2="959" gradientUnits="userSpaceOnUse">
<stop stop-color="#1A828C"/>
<stop offset="1" stop-color="#0A484E"/>
</linearGradient>
<linearGradient id="paint1_linear_246_31279" x1="1896.89" y1="0.654297" x2="1896.89" y2="898.565" gradientUnits="userSpaceOnUse">
<stop stop-color="#176B72"/>
<stop offset="1" stop-color="#0A484E"/>
</linearGradient>
<linearGradient id="paint2_linear_246_31279" x1="1658.67" y1="1222.52" x2="1308.68" y2="2023.38" gradientUnits="userSpaceOnUse">
<stop stop-color="#60CDEA"/>
<stop offset="1" stop-color="#52C0DD"/>
</linearGradient>
<linearGradient id="paint3_linear_246_31279" x1="735.5" y1="592" x2="735.5" y2="889.32" gradientUnits="userSpaceOnUse">
<stop stop-color="#1A828C"/>
<stop offset="1" stop-color="#0A484E"/>
</linearGradient>
<linearGradient id="paint4_linear_246_31279" x1="4464.5" y1="479" x2="4464.5" y2="858.159" gradientUnits="userSpaceOnUse">
<stop stop-color="#1A828C"/>
<stop offset="1" stop-color="#0A484E"/>
</linearGradient>
</defs>
</svg>
