<svg width="4682" height="533" viewBox="0 0 4682 533" fill="none" xmlns="http://www.w3.org/2000/svg">
<path d="M3554.5 17.999C3595.97 19.1219 3612.82 14.7239 3616.06 12.3846V65.0196H1510.23V12.3846C1655.37 -6.70438 1873.08 2.0915 1963.8 8.87557C2033.99 18.2329 2215.85 32.035 2381.72 12.3846C2547.59 -7.2658 2740.25 4.19692 2815.84 12.3846C2888.2 23.8473 3069.19 41.018 3214.33 17.999C3395.76 -10.7748 3502.67 16.5954 3554.5 17.999Z" fill="#60CDEA"/>
<path d="M2685.14 17.999C2726.61 19.1219 2743.45 14.7239 2746.69 12.3846V65.0196H640.869V12.3846C786.009 -6.70438 1003.72 2.0915 1094.43 8.87557C1164.62 18.2329 1346.48 32.035 1512.36 12.3846C1678.23 -7.2658 1870.89 4.19692 1946.48 12.3846C2018.83 23.8473 2199.83 41.018 2344.97 17.999C2526.39 -10.7748 2633.3 16.5954 2685.14 17.999Z" fill="#60CDEA"/>
<path d="M4630.45 17.999C4671.91 19.1219 4688.76 14.7239 4692 12.3846L4653.36 533L2283.51 517.638L2232 45.8176C2377.14 26.7287 2949.03 2.0915 3039.74 8.87557C3109.93 18.2329 3291.79 32.035 3457.66 12.3846C3623.54 -7.2658 3816.19 4.19692 3891.79 12.3846C3964.14 23.8473 4145.13 41.018 4290.27 17.999C4471.7 -10.7748 4578.61 16.5954 4630.45 17.999Z" fill="#60CDEA"/>
<path d="M3761.08 17.999C3802.55 19.1219 3819.4 14.7239 3822.64 12.3846V65.0196H1716.81V12.3846C1861.95 -6.70438 2079.66 2.0915 2170.37 8.87557C2240.57 18.2329 2422.42 32.035 2588.3 12.3846C2754.17 -7.2658 2946.83 4.19692 3022.42 12.3846C3094.78 23.8473 3275.77 41.018 3420.91 17.999C3602.33 -10.7748 3709.24 16.5954 3761.08 17.999Z" fill="#60CDEA"/>
<path d="M3073 17.999C3114.47 19.1219 3131.32 14.7239 3134.56 12.3846V65.0196H1028.73V12.3846C1173.87 -6.70438 1391.58 2.0915 1482.3 8.87557C1552.49 18.2329 1734.35 32.035 1900.22 12.3846C2066.1 -7.2658 2258.75 4.19692 2334.35 12.3846C2406.7 23.8473 2587.69 41.018 2732.83 17.999C2914.26 -10.7748 3021.17 16.5954 3073 17.999Z" fill="#60CDEA"/>
<path d="M2203.64 17.999C2245.11 19.1219 2261.95 14.7239 2265.19 12.3846V515.444H-15L4.81478 65.0196H159.37V12.3846C304.51 -6.70438 522.22 2.0915 612.932 8.87557C683.126 18.2329 864.983 32.035 1030.86 12.3846C1196.73 -7.2658 1389.39 4.19692 1464.98 12.3846C1537.33 23.8473 1718.33 41.018 1863.47 17.999C2044.89 -10.7748 2151.8 16.5954 2203.64 17.999Z" fill="#60CDEA"/>
</svg>
