<svg width="4682" height="1015" viewBox="0 0 4682 1015" fill="none" xmlns="http://www.w3.org/2000/svg">
<path d="M1794.95 726.51H1821L1845.52 732.195L1870.04 743.565L1879.23 750.671L1885.36 747.828L1900.69 742.143H1923.67L1939 747.828L1948.19 753.513H1968.11L1986.5 757.777L2003.36 769.147L2012.55 781.938L2014.09 789.045L2021.75 790.466L2034.01 794.73L2037.07 787.623L2050.86 776.253L2063.12 771.99L2079.98 770.568L2090.71 762.041L2102.97 757.777L2118.29 759.198L2127.48 764.883L2135.15 771.99H2148.94L2165.8 777.675L2178.05 787.623L2184.18 797.572L2188.78 810.363L2201.04 804.678L2217.9 803.257L2233.22 807.521L2245.48 817.47L2250.08 825.997L2257.74 808.942L2263.87 800.415L2276.13 789.045L2292.99 781.938L2297.58 780.517H2323.63L2340.49 786.202L2355.82 797.572L2358.88 801.836L2377.27 807.521L2392.59 816.048L2401.79 823.154L2410.98 821.733H2430.9L2438.57 810.363L2450.83 800.415L2464.62 796.151H2476.88L2493.73 801.836L2502.93 808.942L2510.59 820.312L2515.19 830.261L2527.45 840.209L2535.11 850.158L2536.64 854.422L2551.97 857.264L2564.23 864.371L2573.42 875.741L2578.02 891.374L2588.74 899.902L2593.34 909.851V924.063L2587.21 936.854L2582.61 942.539L1477.74 943.96L1474.67 941.118L1476.2 925.484L1485.4 911.272L1499.19 902.744L1508.39 899.902H1519.11L1523.71 901.323V889.953L1531.37 868.634L1542.1 853.001L1555.89 838.788L1574.28 825.997L1580.41 824.576L1581.94 821.733L1607.99 813.206L1624.85 810.363H1667.76L1684.61 804.678L1699.94 801.836L1710.67 779.096L1719.86 766.305L1733.65 752.092L1750.51 740.722L1768.9 732.195L1794.95 726.51Z" fill="url(#paint0_linear_255_32000)"/>
<path d="M895.277 797H921.328L945.847 802.685L970.365 814.055L979.56 821.161L985.69 818.319L1001.01 812.634H1024L1039.32 818.319L1048.52 824.004H1068.44L1086.83 828.267L1103.69 839.637L1112.88 852.429L1114.41 859.535L1122.08 860.956L1134.33 865.22L1137.4 858.114L1151.19 846.744L1163.45 842.48L1180.31 841.059L1191.03 832.531L1203.29 828.267L1218.62 829.689L1227.81 835.374L1235.47 842.48H1249.27L1266.12 848.165L1278.38 858.114L1284.51 868.062L1289.11 880.854L1301.37 875.169L1318.23 873.747L1333.55 878.011L1345.81 887.96L1350.41 896.487L1358.07 879.432L1364.2 870.905L1376.46 859.535L1393.31 852.429L1397.91 851.007H1423.96L1440.82 856.692L1456.14 868.062L1459.21 872.326L1477.6 878.011L1492.92 886.539L1502.12 893.645L1511.31 892.223H1531.23L1538.89 880.854L1551.15 870.905L1564.95 866.641H1577.21L1594.06 872.326L1603.26 879.432L1610.92 890.802L1615.52 900.751L1627.78 910.7L1635.44 920.648L1636.97 924.912L1652.29 927.755L1664.55 934.861L1673.75 946.231L1678.35 961.865L1689.07 970.392L1693.67 980.341V994.553L1687.54 1007.34L1682.94 1013.03L578.065 1014.45L575 1011.61L576.532 995.974L585.727 981.762L599.519 973.235L608.713 970.392H619.44L624.038 971.813V960.443L631.7 939.125L642.427 923.491L656.218 909.278L674.608 896.487L680.737 895.066L682.27 892.223L708.321 883.696L725.178 880.854H768.085L784.942 875.169L800.266 872.326L810.993 849.586L820.188 836.795L833.98 822.582L850.836 811.212L869.225 802.685L895.277 797Z" fill="url(#paint1_linear_255_32000)"/>
<path d="M-152.723 688H-126.672L-102.153 693.685L-77.6346 705.055L-68.44 712.161L-62.3103 709.319L-46.9861 703.634H-23.9997L-8.6755 709.319L0.519045 715.004H20.4406L38.8296 719.267L55.6863 730.637L64.8809 743.429L66.4133 750.535L74.0754 751.956L86.3348 756.22L89.3996 749.114L103.191 737.744L115.451 733.48L132.308 732.059L143.034 723.531L155.294 719.267L170.618 720.689L179.813 726.374L187.475 733.48H201.267L218.123 739.165L230.383 749.114L236.512 759.062L241.11 771.854L253.369 766.169L270.226 764.747L285.55 769.011L297.809 778.96L302.407 787.487L310.069 770.432L316.198 761.905L328.458 750.535L345.314 743.429L349.912 742.007H375.963L392.82 747.692L408.144 759.062L411.209 763.326L429.598 769.011L444.922 777.539L454.117 784.645L463.311 783.223H483.233L490.895 771.854L503.154 761.905L516.946 757.641H529.205L546.062 763.326L555.257 770.432L562.919 781.802L567.516 791.751L579.775 801.7L587.437 811.648L588.97 815.912L604.294 818.755L616.554 825.861L625.748 837.231L630.345 852.865L641.072 861.392L645.67 871.341V885.553L639.54 898.344L634.943 904.029L-469.935 905.451L-473 902.608L-471.468 886.974L-462.273 872.762L-448.481 864.235L-439.287 861.392H-428.56L-423.962 862.813V851.443L-416.3 830.125L-405.573 814.491L-391.782 800.278L-373.392 787.487L-367.263 786.066L-365.73 783.223L-339.679 774.696L-322.822 771.854H-279.915L-263.058 766.169L-247.734 763.326L-237.007 740.586L-227.812 727.795L-214.02 713.582L-197.164 702.212L-178.775 693.685L-152.723 688Z" fill="url(#paint2_linear_255_32000)"/>
<path d="M2694.32 185.654H2720.37L2744.89 191.339L2769.4 202.709L2778.6 209.815L2784.73 206.973L2800.05 201.288H2823.04L2838.36 206.973L2847.56 212.658H2867.48L2885.87 216.922L2902.73 228.292L2911.92 241.083L2913.45 248.189L2921.11 249.61L2933.37 253.874L2936.44 246.768L2950.23 235.398L2962.49 231.134L2979.35 229.713L2990.07 221.185L3002.33 216.922L3017.66 218.343L3026.85 224.028L3034.51 231.134H3048.31L3065.16 236.819L3077.42 246.768L3083.55 256.717L3088.15 269.508L3100.41 263.823L3117.26 262.402L3132.59 266.665L3144.85 276.614L3149.45 285.142L3157.11 268.087L3163.24 259.559L3175.5 248.189L3192.35 241.083L3196.95 239.662H3223L3239.86 245.347L3255.18 256.717L3258.25 260.98L3276.64 266.665L3291.96 275.193L3301.16 282.299L3310.35 280.878H3330.27L3337.93 269.508L3350.19 259.559L3363.99 255.295H3376.24L3393.1 260.98L3402.3 268.087L3409.96 279.457L3414.56 289.405L3426.81 299.354L3434.48 309.303L3436.01 313.566L3451.33 316.409L3463.59 323.515L3472.79 334.885L3477.38 350.519L3488.11 359.046L3492.71 368.995V383.207L3486.58 395.999L3481.98 401.684L2377.1 403.105L2374.04 400.262L2375.57 384.629L2384.77 370.416L2398.56 361.889L2407.75 359.046H2418.48L2423.08 360.468V349.098L2430.74 327.779L2441.47 312.145L2455.26 297.933L2473.65 285.142L2479.78 283.72L2481.31 280.878L2507.36 272.35L2524.22 269.508H2567.12L2583.98 263.823L2599.31 260.98L2610.03 238.24L2619.23 225.449L2633.02 211.237L2649.88 199.867L2668.26 191.339L2694.32 185.654Z" fill="url(#paint3_linear_255_32000)"/>
<path d="M3621.35 294H3640.98L3659.46 298.261L3677.94 306.784L3684.87 312.111L3689.48 309.98L3701.03 305.719H3718.35L3729.9 309.98L3736.83 314.242H3751.84L3765.7 317.438L3778.4 325.961L3785.33 335.549L3786.49 340.876L3792.26 341.941L3801.5 345.137L3803.81 339.81L3814.2 331.288L3823.44 328.092L3836.14 327.026L3844.23 320.634L3853.47 317.438L3865.01 318.503L3871.94 322.765L3877.72 328.092H3888.11L3900.81 332.353L3910.05 339.81L3914.67 347.268L3918.13 356.856L3927.37 352.595L3940.08 351.529L3951.62 354.725L3960.86 362.183L3964.33 368.575L3970.1 355.791L3974.72 349.399L3983.96 340.876L3996.66 335.549L4000.12 334.484H4019.76L4032.46 338.745L4044.01 347.268L4046.32 350.464L4060.17 354.725L4071.72 361.118L4078.65 366.444L4085.58 365.379H4100.59L4106.37 356.856L4115.6 349.399L4126 346.203H4135.24L4147.94 350.464L4154.87 355.791L4160.64 364.314L4164.11 371.771L4173.34 379.229L4179.12 386.686L4180.27 389.882L4191.82 392.013L4201.06 397.34L4207.99 405.863L4211.45 417.582L4219.54 423.974L4223 431.431V442.085L4218.38 451.673L4214.92 455.935L3382.31 457L3380 454.869L3381.15 443.15L3388.08 432.497L3398.48 426.105L3405.41 423.974H3413.49L3416.95 425.039V416.516L3422.73 400.536L3430.81 388.817L3441.2 378.163L3455.06 368.575L3459.68 367.51L3460.84 365.379L3480.47 358.987L3493.17 356.856H3525.5L3538.21 352.595L3549.75 350.464L3557.84 333.418L3564.77 323.83L3575.16 313.176L3587.86 304.654L3601.72 298.261L3621.35 294Z" fill="url(#paint4_linear_255_32000)"/>
<path d="M2662.54 621.172H2699.04L2733.39 629.16L2767.73 645.136L2780.62 655.121L2789.2 651.127L2810.67 643.139H2842.87L2864.34 651.127L2877.22 659.115H2905.13L2930.89 665.106L2954.5 681.082L2967.38 699.055L2969.53 709.04L2980.26 711.037L2997.44 717.027L3001.73 707.043L3021.05 691.067L3038.22 685.076L3061.84 683.079L3076.87 671.097L3094.04 665.106L3115.51 667.103L3128.39 675.091L3139.12 685.076H3158.44L3182.06 693.064L3199.23 707.043L3207.82 721.021L3214.26 738.994L3231.43 731.006L3255.05 729.009L3276.51 735L3293.69 748.979L3300.13 760.961L3310.86 736.997L3319.45 725.015L3336.62 709.04L3360.24 699.055L3366.68 697.058H3403.17L3426.79 705.046L3448.25 721.021L3452.55 727.012L3478.31 735L3499.77 746.982L3512.66 756.967L3525.54 754.97H3553.44L3564.18 738.994L3581.35 725.015L3600.67 719.024H3617.85L3641.46 727.012L3654.34 736.997L3665.07 752.973L3671.51 766.952L3688.69 780.931L3699.42 794.91L3701.57 800.901L3723.04 804.895L3740.21 814.88L3753.09 830.856L3759.53 852.823L3774.56 864.805L3781 878.784V898.754L3772.41 916.727L3765.97 924.715L2218.17 926.712L2213.88 922.718L2216.02 900.751L2228.9 880.781L2248.22 868.799L2261.1 864.805H2276.13L2282.57 866.802V850.826L2293.3 820.871L2308.33 798.904L2327.65 778.934L2353.41 760.961L2362 758.964L2364.15 754.97L2400.64 742.988L2424.26 738.994H2484.36L2507.98 731.006L2529.45 727.012L2544.47 695.061L2557.35 677.088L2576.67 657.118L2600.29 641.142L2626.05 629.16L2662.54 621.172Z" fill="url(#paint5_linear_255_32000)"/>
<path d="M3908.67 540H3945.16L3979.51 547.988L4013.86 563.964L4026.74 573.949L4035.33 569.955L4056.79 561.967H4089L4110.46 569.955L4123.34 577.943H4151.25L4177.01 583.934L4200.63 599.91L4213.51 617.883L4215.65 627.868L4226.39 629.865L4243.56 635.856L4247.86 625.871L4267.18 609.895L4284.35 603.904L4307.96 601.907L4322.99 589.925L4340.17 583.934L4361.63 585.931L4374.51 593.919L4385.25 603.904H4404.57L4428.18 611.892L4445.36 625.871L4453.94 639.85L4460.38 657.823L4477.56 649.835L4501.17 647.838L4522.64 653.829L4539.81 667.807L4546.25 679.789L4556.99 655.826L4565.57 643.844L4582.75 627.868L4606.36 617.883L4612.8 615.886H4649.3L4672.91 623.874L4694.38 639.85L4698.67 645.841L4724.43 653.829L4745.9 665.81L4758.78 675.795L4771.66 673.798H4799.57L4810.3 657.823L4827.48 643.844L4846.8 637.853H4863.97L4887.58 645.841L4900.47 655.826L4911.2 671.801L4917.64 685.78L4934.81 699.759L4945.55 713.738L4947.69 719.729L4969.16 723.723L4986.33 733.708L4999.22 749.684L5005.66 771.651L5020.68 783.633L5027.12 797.612V817.582L5018.54 835.555L5012.1 843.543L3464.29 845.54L3460 841.546L3462.15 819.579L3475.03 799.609L3494.35 787.627L3507.23 783.633H3522.26L3528.7 785.63V769.654L3539.43 739.699L3554.46 717.732L3573.78 697.762L3599.54 679.789L3608.13 677.792L3610.27 673.798L3646.77 661.816L3670.38 657.823H3730.49L3754.1 649.835L3775.57 645.841L3790.6 613.889L3803.48 595.916L3822.8 575.946L3846.41 559.97L3872.17 547.988L3908.67 540Z" fill="url(#paint6_linear_255_32000)"/>
<circle cx="973.434" cy="201.434" r="201.434" fill="url(#paint7_linear_255_32000)" fill-opacity="0.67"/>
<defs>
<linearGradient id="paint0_linear_255_32000" x1="2002.05" y1="739.524" x2="2002.05" y2="943.96" gradientUnits="userSpaceOnUse">
<stop stop-color="#D7E2D2"/>
<stop offset="1" stop-color="#BACFCA"/>
</linearGradient>
<linearGradient id="paint1_linear_255_32000" x1="1102.38" y1="810.015" x2="1102.38" y2="1014.45" gradientUnits="userSpaceOnUse">
<stop stop-color="#D7E2D2"/>
<stop offset="1" stop-color="#BACFCA"/>
</linearGradient>
<linearGradient id="paint2_linear_255_32000" x1="54.3784" y1="701.015" x2="54.3784" y2="905.451" gradientUnits="userSpaceOnUse">
<stop stop-color="#D7E2D2"/>
<stop offset="1" stop-color="#BACFCA"/>
</linearGradient>
<linearGradient id="paint3_linear_255_32000" x1="2901.42" y1="198.669" x2="2901.42" y2="403.105" gradientUnits="userSpaceOnUse">
<stop stop-color="#D7E2D2"/>
<stop offset="1" stop-color="#BACFCA"/>
</linearGradient>
<linearGradient id="paint4_linear_255_32000" x1="3777.42" y1="303.756" x2="3777.42" y2="457" gradientUnits="userSpaceOnUse">
<stop stop-color="#D7E2D2"/>
<stop offset="1" stop-color="#BACFCA"/>
</linearGradient>
<linearGradient id="paint5_linear_255_32000" x1="2952.67" y1="639.459" x2="2952.67" y2="926.712" gradientUnits="userSpaceOnUse">
<stop stop-color="#D7E2D2"/>
<stop offset="1" stop-color="#BACFCA"/>
</linearGradient>
<linearGradient id="paint6_linear_255_32000" x1="4198.79" y1="558.287" x2="4198.79" y2="845.54" gradientUnits="userSpaceOnUse">
<stop stop-color="#D7E2D2"/>
<stop offset="1" stop-color="#BACFCA"/>
</linearGradient>
<linearGradient id="paint7_linear_255_32000" x1="973.434" y1="0" x2="973.434" y2="402.869" gradientUnits="userSpaceOnUse">
<stop stop-color="#F9D450" stop-opacity="0.68"/>
<stop offset="1" stop-color="#B49767" stop-opacity="0.17"/>
</linearGradient>
</defs>
</svg>
