<svg width="4682" height="1374" viewBox="0 0 4682 1374" fill="none" xmlns="http://www.w3.org/2000/svg">
<path d="M1773.8 0C1775.56 0.350955 1777.32 0.701911 1779.14 1.0635C1786.5 2.20336 1786.5 2.20336 1794.36 0.827168C1796.69 0.554202 1799.02 0.281237 1801.42 0C1803.08 1.24784 1804.74 2.49568 1806.45 3.78134C1804.84 4.01531 1803.23 4.24928 1801.58 4.49034C1799.87 4.88029 1798.16 5.27024 1796.4 5.67201C1795.57 6.91985 1794.74 8.16769 1793.89 9.45334C1795.5 9.40948 1797.11 9.36561 1798.77 9.32041C1812.5 9.10469 1823.6 9.83541 1836.58 13.2347C1838.24 11.9868 1839.9 10.739 1841.6 9.45334C1844.09 12.5729 1846.58 15.6926 1849.14 18.9067C1850.69 18.5557 1852.24 18.2048 1853.84 17.8432C1859.18 17.016 1859.18 17.016 1864.2 18.9067C1864.2 17.6588 1864.2 16.411 1864.2 15.1254C1873.62 12.9983 1873.62 12.9983 1879.27 15.1254C1881.81 15.3983 1884.35 15.6713 1886.96 15.9525C1889.4 16.3035 1891.83 16.6544 1894.34 17.016C1895.17 18.2639 1896 19.5117 1896.85 20.7974C1902.51 21.6122 1902.51 21.6122 1909.09 21.8609C1916.61 22.2651 1922.29 22.7718 1929.49 24.5787C1931.25 27.0677 1932.93 29.5894 1934.52 32.1414C1936.17 32.7653 1937.83 33.3892 1939.54 34.032C1939.54 35.2799 1939.54 36.5277 1939.54 37.8134C1945.34 37.8134 1951.14 37.8134 1957.12 37.8134C1959.94 48.6847 1959.94 48.6847 1957.12 52.9387C1959.03 52.5878 1960.95 52.2368 1962.93 51.8752C1969.67 51.0481 1969.67 51.0481 1977.21 52.9387C1976.38 55.4344 1975.55 57.9301 1974.7 60.5014C1978.01 61.7492 1981.33 62.9971 1984.74 64.2827C1984.74 65.5306 1984.74 66.7784 1984.74 68.0641C1990.65 69.3645 1990.65 69.3645 1997.3 69.9548C1999.78 68.7069 2002.27 67.4591 2004.83 66.1734C2004.83 68.0452 2004.83 69.9169 2004.83 71.8454C2006.49 73.7172 2008.15 75.5889 2009.85 77.5174C2009.85 78.7653 2009.85 80.0131 2009.85 81.2988C2017.75 84.1814 2022.6 85.0776 2031.51 84.9619C2039.99 85.0801 2039.99 85.0801 2044.85 87.6798C2047.52 90.7521 2047.52 90.7521 2047.52 94.5334C2054.98 93.9095 2062.44 93.2856 2070.12 92.6428C2071.78 95.1385 2073.44 97.6341 2075.14 100.205C2076.8 100.205 2078.46 100.205 2080.17 100.205C2081.36 101.726 2082.55 103.247 2083.78 104.814C2087.2 110.211 2087.2 110.211 2095.23 111.549C2095.23 110.302 2095.23 109.054 2095.23 107.768C2100.26 107.768 2105.28 107.768 2110.3 107.768C2112.81 118.876 2112.81 118.876 2112.81 121.003C2115.3 121.627 2117.78 122.251 2120.35 122.893C2119.52 124.141 2118.69 125.389 2117.84 126.675C2116.18 126.675 2114.52 126.675 2112.81 126.675C2112.81 127.923 2112.81 129.171 2112.81 130.456C2116.13 130.456 2119.44 130.456 2122.86 130.456C2122.86 133.576 2122.86 136.695 2122.86 139.91C2125.34 140.533 2127.83 141.157 2130.39 141.8C2130.39 143.048 2130.39 144.296 2130.39 145.582C2132.05 145.582 2133.71 145.582 2135.41 145.582C2139.56 153.692 2143.7 161.803 2147.97 170.16C2151.28 170.16 2154.6 170.16 2158.01 170.16C2158.01 171.408 2158.01 172.656 2158.01 173.942C2156.36 175.189 2154.7 176.437 2152.99 177.723C2152.99 179.595 2152.99 181.466 2152.99 183.395C2147.97 187.531 2147.97 187.531 2142.95 190.958C2146.26 191.581 2149.58 192.205 2152.99 192.848C2152.99 191.6 2152.99 190.353 2152.99 189.067C2155.48 189.067 2157.96 189.067 2160.53 189.067C2161.35 190.939 2162.18 192.81 2163.04 194.739C2168.01 195.363 2172.98 195.987 2178.1 196.63C2178.93 199.125 2179.76 201.621 2180.62 204.192C2182.17 204.387 2183.72 204.582 2185.32 204.783C2190.66 206.083 2190.66 206.083 2195.68 211.755C2197.34 211.755 2199 211.755 2200.7 211.755C2200.7 214.251 2200.7 216.746 2200.7 219.318C2202.36 219.318 2204.02 219.318 2205.73 219.318C2206.56 223.061 2207.38 226.805 2208.24 230.662C2204.51 231.597 2204.51 231.597 2200.7 232.552C2199.88 233.8 2199.05 235.048 2198.19 236.334C2196.54 236.334 2194.88 236.334 2193.17 236.334C2193.17 237.581 2193.17 238.829 2193.17 240.115C2188.2 241.987 2188.2 241.987 2183.13 243.896C2186.44 243.896 2189.76 243.896 2193.17 243.896C2193.17 245.144 2193.17 246.392 2193.17 247.678C2190.68 247.678 2188.2 247.678 2185.64 247.678C2186.47 248.925 2187.29 250.173 2188.15 251.459C2190.12 251.147 2192.08 250.835 2194.11 250.514C2200.7 249.568 2200.7 249.568 2205.73 249.568C2206.56 247.697 2207.38 245.825 2208.24 243.896C2209.9 244.52 2211.55 245.144 2213.26 245.787C2212.43 247.035 2211.6 248.283 2210.75 249.568C2214.89 248.32 2219.04 247.073 2223.31 245.787C2223.31 247.659 2223.31 249.53 2223.31 251.459C2220.82 251.459 2218.33 251.459 2215.77 251.459C2217.43 252.707 2219.09 253.955 2220.79 255.24C2223.28 254.616 2225.77 253.992 2228.33 253.35C2228.33 260.472 2227.74 262.636 2223.31 268.475C2225.79 268.475 2228.28 268.475 2230.84 268.475C2236.18 269.775 2236.18 269.775 2240.88 272.256C2242.77 277.219 2242.77 277.219 2243.4 281.71C2240.08 283.581 2236.77 285.453 2233.35 287.382C2226.72 283.638 2220.09 279.895 2213.26 276.038C2213.26 277.909 2213.26 279.781 2213.26 281.71C2215.75 281.71 2218.23 281.71 2220.79 281.71C2222.45 282.958 2224.11 284.205 2225.82 285.491C2224.87 290.454 2224.87 290.454 2223.31 294.944C2224.96 294.944 2226.62 294.944 2228.33 294.944C2229.99 296.192 2231.64 297.44 2233.35 298.726C2238.34 299.478 2243.37 300.121 2248.42 300.616C2248.73 302.137 2249.04 303.658 2249.36 305.225C2250.14 307.623 2250.14 307.623 2250.93 310.07C2252.59 310.694 2254.24 311.318 2255.95 311.96C2259.15 322.263 2259.15 322.263 2255.95 327.086C2257.61 327.086 2259.27 327.086 2260.97 327.086C2259.32 330.205 2257.66 333.325 2255.95 336.539C2254.29 336.539 2252.64 336.539 2250.93 336.539C2250.1 339.659 2249.27 342.778 2248.42 345.992C2246.76 345.992 2245.1 345.992 2243.4 345.992C2243.4 347.24 2243.4 348.488 2243.4 349.774C2241.74 350.398 2240.08 351.022 2238.37 351.664C2238.37 353.536 2238.37 355.408 2238.37 357.336C2240.86 357.336 2243.34 357.336 2245.91 357.336C2251.24 366.081 2251.24 366.081 2248.42 372.462C2240.73 374.707 2240.73 374.707 2233.35 376.243C2233.35 374.995 2233.35 373.747 2233.35 372.462C2231.64 373.983 2229.93 375.503 2228.17 377.07C2219.52 382.753 2214.53 383.484 2203.22 383.806C2201.56 383.182 2199.9 382.558 2198.19 381.915C2198.19 380.043 2198.19 378.172 2198.19 376.243C2196.54 374.371 2194.88 372.5 2193.17 370.571C2193.17 371.819 2193.17 373.067 2193.17 374.352C2192.42 379.403 2191.52 384.437 2190.66 389.478C2188.17 388.854 2185.69 388.23 2183.13 387.587C2182.3 386.339 2181.47 385.091 2180.62 383.806C2180.62 385.678 2180.62 387.549 2180.62 389.478C2173.08 389.478 2173.08 389.478 2168.84 386.642C2167.76 385.706 2166.67 384.77 2165.55 383.806C2163.89 385.054 2162.23 386.301 2160.53 387.587C2160.53 385.715 2160.53 383.844 2160.53 381.915C2158.87 381.915 2157.21 381.915 2155.5 381.915C2155.5 380.667 2155.5 379.419 2155.5 378.134C2153.85 378.134 2152.19 378.134 2150.48 378.134C2152.14 380.629 2153.8 383.125 2155.5 385.696C2146.39 385.696 2137.27 385.696 2127.88 385.696C2127.88 386.944 2127.88 388.192 2127.88 389.478C2110.94 391.626 2094.85 393.259 2077.66 393.259C2073.4 393.835 2069.17 394.47 2064.94 395.15C2041.37 398.893 2041.37 398.893 2031.51 394.204C2029.49 392.801 2029.49 392.801 2027.43 391.368C2027.43 392.616 2027.43 393.864 2027.43 395.15C2009.68 396.893 1999.14 391.124 1984.74 383.806C1976.84 379.84 1974.92 379.546 1965.91 379.67C1962.99 379.688 1962.99 379.688 1960.02 379.707C1954.15 379.886 1954.15 379.886 1947.07 381.915C1949.56 383.163 1952.05 384.411 1954.61 385.696C1952.95 388.192 1951.29 390.688 1949.58 393.259C1947.93 393.259 1946.27 393.259 1944.56 393.259C1944.56 394.507 1944.56 395.755 1944.56 397.04C1934.52 397.04 1924.47 397.04 1914.43 397.04C1912.37 397.128 1910.32 397.216 1908.2 397.306C1896.13 397.673 1886.94 397.656 1876.13 393.377C1862.95 388.252 1849.83 388.547 1835.24 388.141C1827.53 387.65 1823.04 386.943 1816.33 384.278C1808.88 381.16 1808.88 381.16 1800.64 384.042C1793.41 387.378 1793.41 387.378 1788.87 393.259C1787.21 392.635 1785.55 392.011 1783.85 391.368C1783.17 392.46 1782.5 393.552 1781.8 394.677C1778.82 398.931 1778.82 398.931 1774.9 402.358C1769.83 408.16 1769.25 412.835 1768.78 419.729C1770.66 425.558 1770.66 425.558 1773.8 431.073C1774.89 433.939 1774.89 433.939 1776 436.863C1779.1 442.952 1783.36 446.894 1788.87 451.87C1788.87 453.118 1788.87 454.366 1788.87 455.651C1790.32 455.888 1791.78 456.124 1793.28 456.368C1798.94 457.547 1803.48 459.135 1808.64 461.205C1819.4 465.352 1829.34 468.886 1841.6 468.886C1843.26 469.51 1844.92 470.134 1846.63 470.777C1846.63 472.024 1846.63 473.272 1846.63 474.558C1849.11 475.182 1851.6 475.806 1854.16 476.449C1852.5 477.696 1850.84 478.944 1849.14 480.23C1840.49 480.061 1832.04 479.509 1823.44 478.864C1818.62 478.553 1813.79 478.433 1808.96 478.339C1807.3 479.587 1805.64 480.835 1803.93 482.121C1788.41 486.016 1775.63 481.28 1761.64 476.301C1754.91 474.136 1748.41 473.227 1741.15 472.667C1741.15 478.283 1741.15 483.898 1741.15 489.683C1737.84 489.059 1734.53 488.435 1731.11 487.793C1730.49 486.545 1729.87 485.297 1729.23 484.011C1726.61 479.89 1726.61 479.89 1721.32 479.314C1716.23 478.857 1711.11 478.588 1706 478.339C1706 479.587 1706 480.835 1706 482.121C1692.03 487.15 1678.54 489.612 1663.31 491.574C1662.48 489.702 1661.65 487.83 1660.8 485.902C1664.41 481.766 1664.41 481.766 1668.33 478.339C1664.25 478.923 1660.17 479.516 1656.09 480.112C1653.82 480.441 1651.54 480.77 1649.2 481.109C1643.22 481.931 1643.22 481.931 1638.2 484.011C1632.9 483.892 1627.62 483.635 1622.34 483.302C1619.5 483.132 1616.67 482.961 1613.74 482.785C1606.67 482.211 1599.95 481.306 1592.99 480.23C1588.55 479.835 1584.11 479.479 1579.65 479.166C1577.44 479.008 1575.22 478.85 1572.93 478.686C1571.27 478.572 1569.6 478.457 1567.88 478.339C1567.05 476.467 1566.22 474.596 1565.37 472.667C1581.31 468.303 1596.25 468.511 1613.08 468.886C1613.08 467.638 1613.08 466.39 1613.08 465.105C1614.74 465.105 1616.4 465.105 1618.11 465.105C1618.11 466.352 1618.11 467.6 1618.11 468.886C1619.76 468.886 1621.42 468.886 1623.13 468.886C1623.96 466.39 1624.79 463.895 1625.64 461.323C1626.47 463.195 1627.3 465.067 1628.15 466.995C1628.93 465.825 1629.7 464.656 1630.5 463.45C1632.23 460.851 1633.96 458.251 1635.68 455.651C1640.86 454.47 1640.86 454.47 1645.73 453.761C1650.08 443.612 1651.97 434.14 1652.79 423.51C1652.95 422.057 1653.11 420.605 1653.28 419.108C1654.1 408.791 1651.69 402.53 1645.73 393.259C1645.73 391.387 1645.73 389.516 1645.73 387.587C1644.07 387.587 1642.41 387.587 1640.71 387.587C1639.88 389.459 1639.05 391.331 1638.2 393.259C1635.71 392.635 1633.22 392.011 1630.66 391.368C1629.83 387.001 1629 382.634 1628.15 378.134C1623.71 377.663 1619.26 377.238 1614.81 376.834C1611.1 376.472 1611.1 376.472 1607.31 376.103C1600.49 375.681 1600.49 375.681 1596.71 378.917C1595.48 379.906 1594.26 380.896 1592.99 381.915C1586.66 383.163 1586.66 383.163 1579.5 383.924C1572.25 384.713 1566.02 385.497 1559.23 387.58C1549.17 390.556 1538.76 391.145 1528.1 392.196C1520.62 393.199 1514.61 394.906 1507.61 397.04C1501.76 397.185 1495.89 397.213 1490.03 397.04C1483.51 389.666 1484.63 382.909 1485.01 374.352C1473.34 374.751 1463.37 375.263 1453.31 380.024C1444.2 384.087 1437.75 385.232 1427.25 385.696C1425.6 385.073 1423.94 384.449 1422.23 383.806C1421.4 386.301 1420.57 388.797 1419.72 391.368C1417.23 390.745 1414.75 390.121 1412.19 389.478C1412.19 390.726 1412.19 391.973 1412.19 393.259C1408.04 393.883 1403.9 394.507 1399.63 395.15C1399.63 393.278 1399.63 391.406 1399.63 389.478C1397.87 390.458 1396.1 391.437 1394.29 392.447C1385.25 395.836 1381.74 395.082 1372.17 393.023C1369.54 392.46 1366.91 391.897 1364.21 391.317C1356.19 389.288 1349.17 387.01 1341.87 383.806C1341.87 383.182 1341.87 382.558 1341.87 381.915C1316.88 381.143 1295.8 382.927 1271.56 387.587C1270.32 382.908 1270.32 382.908 1269.05 378.134C1265.73 378.134 1262.42 378.134 1259 378.134C1259 381.253 1259 384.373 1259 387.587C1253.2 386.963 1247.4 386.339 1241.43 385.696C1240.6 383.825 1239.77 381.953 1238.91 380.024C1237.05 380.024 1235.19 380.024 1233.26 380.024C1227.61 380.024 1221.96 380.024 1216.31 380.024C1213.83 383.768 1213.83 383.768 1211.29 387.587C1207.16 387.372 1203.02 387.131 1198.89 386.878C1196.59 386.747 1194.29 386.615 1191.92 386.479C1190.02 386.221 1188.13 385.963 1186.18 385.696C1185.35 384.449 1184.52 383.201 1183.67 381.915C1186.15 380.043 1186.15 380.043 1188.69 378.134C1189.52 376.886 1190.35 375.638 1191.2 374.352C1197.64 373.171 1197.64 373.171 1203.76 372.462C1204.59 369.966 1205.42 367.47 1206.27 364.899C1204.35 365.328 1202.44 365.757 1200.46 366.199C1198.23 366.394 1196.01 366.589 1193.71 366.79C1192.52 365.854 1191.33 364.918 1190.1 363.954C1188.16 362.55 1188.16 362.55 1186.18 361.118C1178.27 361.558 1178.27 361.558 1171.11 363.008C1171.11 364.256 1171.11 365.504 1171.11 366.79C1168.63 366.79 1166.14 366.79 1163.58 366.79C1163.99 364.723 1164.41 362.656 1164.83 360.527C1166.26 353.791 1166.26 353.791 1166.09 347.883C1166.09 346.011 1166.09 344.14 1166.09 342.211C1164.43 342.211 1162.77 342.211 1161.07 342.211C1161.07 340.963 1161.07 339.715 1161.07 338.43C1153.4 338.131 1153.4 338.131 1146 340.32C1146 336.577 1146 332.833 1146 328.976C1148.49 328.352 1150.97 327.729 1153.53 327.086C1151.05 326.462 1148.56 325.838 1146 325.195C1146 322.699 1146 320.204 1146 317.632C1147.61 317.437 1149.21 317.242 1150.87 317.042C1152.57 316.613 1154.28 316.184 1156.04 315.742C1156.87 313.87 1157.7 311.998 1158.56 310.07C1160.21 310.07 1161.87 310.07 1163.58 310.07C1163.58 308.822 1163.58 307.574 1163.58 306.288C1161.92 306.288 1160.26 306.288 1158.56 306.288C1158.56 305.041 1158.56 303.793 1158.56 302.507C1160.01 302.858 1161.46 303.209 1162.95 303.571C1169.48 304.526 1172.58 304.571 1178.65 302.507C1183.09 297.819 1183.09 297.819 1186.18 293.054C1182.04 292.43 1177.89 291.806 1173.62 291.163C1173.62 289.915 1173.62 288.667 1173.62 287.382C1171.97 287.382 1170.31 287.382 1168.6 287.382C1168.18 278.077 1167.98 271.304 1173.62 262.803C1175.28 262.803 1176.94 262.803 1178.65 262.803C1176.55 258.707 1176.55 258.707 1171.11 257.131C1171.11 255.883 1171.11 254.635 1171.11 253.35C1172.77 253.35 1174.43 253.35 1176.13 253.35C1177.3 251.068 1177.3 251.068 1178.49 248.741C1181.16 243.896 1181.16 243.896 1183.67 242.006C1188.69 241.928 1193.71 241.925 1198.74 242.006C1197.91 239.51 1197.08 237.014 1196.22 234.443C1203.52 232.067 1208.27 230.662 1216.31 230.662C1216.31 228.79 1216.31 226.918 1216.31 224.99C1214.66 224.99 1213 224.99 1211.29 224.99C1209.63 220.622 1207.98 216.255 1206.27 211.755C1210.41 208.635 1214.56 205.516 1218.82 202.302C1217.94 201.132 1217.06 199.962 1216.16 198.757C1214.99 196.768 1214.99 196.768 1213.8 194.739C1216.96 189.992 1220.08 189.31 1226.36 187.176C1226.36 185.304 1226.36 183.433 1226.36 181.504C1228.59 180.997 1230.81 180.49 1233.11 179.968C1240.9 177.865 1247.02 175.363 1253.98 172.051C1257.31 170.763 1260.65 169.492 1264.03 168.27C1261.54 167.022 1259.05 165.774 1256.49 164.488C1256.71 161.453 1256.98 158.421 1257.28 155.389C1257.42 153.7 1257.57 152.011 1257.72 150.271C1259.19 144.899 1260.76 143.158 1266.54 139.91C1269.13 139.325 1271.72 138.74 1274.39 138.137C1276.77 137.474 1279.15 136.811 1281.6 136.128C1283.49 132.486 1283.49 132.486 1284.12 128.565C1287.73 125.257 1287.73 125.257 1291.65 122.893C1293.31 122.893 1294.96 122.893 1296.67 122.893C1296.46 121.178 1296.26 119.462 1296.04 117.694C1296.67 111.549 1296.67 111.549 1300.75 107.177C1307.82 103.396 1313.23 102.682 1321.78 102.096C1321.78 103.344 1321.78 104.592 1321.78 105.877C1323.12 105.332 1324.45 104.786 1325.83 104.223C1327.6 103.521 1329.37 102.819 1331.2 102.096C1332.95 101.394 1334.7 100.692 1336.5 99.9691C1341.87 98.3148 1341.87 98.3148 1351.92 98.3148C1352.75 96.443 1353.58 94.5713 1354.43 92.6428C1357.02 92.7598 1359.61 92.8768 1362.28 92.9973C1372.85 92.6119 1381.85 90.9022 1389.59 85.0801C1393.77 85.0033 1397.96 84.9993 1402.14 85.0801C1402.14 83.8323 1402.14 82.5844 1402.14 81.2988C1400.49 81.2988 1398.83 81.2988 1397.12 81.2988C1399 76.6903 1399 76.6903 1402.14 71.8454C1407.48 70.3093 1407.48 70.3093 1412.19 69.9548C1412.19 68.7069 1412.19 67.4591 1412.19 66.1734C1414.21 65.9394 1416.23 65.7055 1418.31 65.4644C1420.43 65.0745 1422.56 64.6845 1424.74 64.2827C1425.99 62.411 1425.99 62.411 1427.25 60.5014C1433.91 59.3792 1440.54 59.0984 1447.34 58.6107C1447.34 56.1151 1447.34 53.6194 1447.34 51.0481C1456.48 41.9488 1467.85 37.9473 1482.5 35.9227C1484.99 36.5466 1487.47 37.1706 1490.03 37.8134C1490.03 36.5655 1490.03 35.3177 1490.03 34.032C1492.52 34.032 1495.01 34.032 1497.57 34.032C1497.57 35.2799 1497.57 36.5277 1497.57 37.8134C1498.97 36.9555 1500.37 36.0976 1501.81 35.2137C1510.18 30.7821 1516.39 27.8857 1526.76 29.1872C1529.71 29.7136 1529.71 29.7136 1532.73 30.2507C1535.21 29.6268 1537.7 29.0029 1540.26 28.36C1537.77 23.6806 1537.77 23.6806 1535.24 18.9067C1537.98 19.2187 1540.73 19.5306 1543.55 19.852C1551.2 20.6327 1558.17 20.8236 1565.85 20.7309C1567.82 20.7138 1569.78 20.6968 1571.81 20.6792C1574.76 20.6463 1574.76 20.6463 1577.78 20.6127C1582.95 20.7974 1582.95 20.7974 1587.97 22.688C1588.8 20.8163 1589.63 18.9445 1590.48 17.016C1601.59 17.9257 1612.68 18.8564 1623.76 19.9702C1634.76 21.1237 1634.76 21.1237 1645.73 20.7974C1646.87 19.5495 1648.01 18.3017 1649.18 17.016C1650.53 15.7682 1651.88 14.5203 1653.26 13.2347C1662.52 12.762 1662.52 12.762 1670.84 13.2347C1670.84 11.9868 1670.84 10.739 1670.84 9.45334C1675.81 9.45334 1680.79 9.45334 1685.91 9.45334C1685.91 10.7012 1685.91 11.949 1685.91 13.2347C1688.39 13.8586 1690.88 14.4825 1693.44 15.1254C1693.44 13.8775 1693.44 12.6297 1693.44 11.344C1706.72 9.90049 1717.84 9.3462 1731.11 11.344C1736.13 11.414 1741.16 11.434 1746.18 11.344C1745.35 12.5919 1744.52 13.8397 1743.67 15.1254C1746.98 15.1254 1750.3 15.1254 1753.71 15.1254C1753.71 13.2536 1753.71 11.3818 1753.71 9.45334C1760.34 7.58158 1766.97 5.70982 1773.8 3.78134C1773.8 2.5335 1773.8 1.28565 1773.8 0ZM1776.31 5.67201C1778.82 9.45334 1778.82 9.45334 1778.82 9.45334L1776.31 5.67201ZM1783.85 5.67201C1783.02 6.91985 1782.19 8.16769 1781.33 9.45334C1783.82 8.82942 1786.31 8.2055 1788.87 7.56268C1787.21 6.93876 1785.55 6.31483 1783.85 5.67201ZM1909.41 26.4694C1909.41 28.3411 1909.41 30.2129 1909.41 32.1414C1913.55 31.5175 1917.69 30.8935 1921.96 30.2507C1915.98 27.5776 1915.98 27.5776 1909.41 26.4694ZM2060.08 102.096C2060.91 103.344 2061.73 104.592 2062.59 105.877C2064.25 105.877 2065.9 105.877 2067.61 105.877C2067.61 104.63 2067.61 103.382 2067.61 102.096C2065.12 102.096 2062.64 102.096 2060.08 102.096ZM2097.75 122.893C2097.75 124.141 2097.75 125.389 2097.75 126.675C2100.23 127.299 2102.72 127.923 2105.28 128.565C2105.28 127.318 2105.28 126.07 2105.28 124.784C2102.79 124.16 2100.31 123.536 2097.75 122.893ZM2218.28 260.912C2217.45 262.16 2216.63 263.408 2215.77 264.694C2217.43 264.694 2219.09 264.694 2220.79 264.694C2219.97 263.446 2219.14 262.198 2218.28 260.912ZM2233.35 276.038C2233.35 277.286 2233.35 278.533 2233.35 279.819C2235.01 279.195 2236.67 278.571 2238.37 277.928C2236.72 277.304 2235.06 276.68 2233.35 276.038ZM2243.4 308.179C2245.91 311.96 2245.91 311.96 2245.91 311.96L2243.4 308.179ZM2070.12 364.899C2069.29 366.147 2068.46 367.395 2067.61 368.68C2069.27 369.928 2070.93 371.176 2072.63 372.462C2073.46 369.966 2074.29 367.47 2075.14 364.899C2073.49 364.899 2071.83 364.899 2070.12 364.899ZM2228.33 366.79C2230.84 370.571 2230.84 370.571 2230.84 370.571L2228.33 366.79ZM1585.46 372.462C1587.12 373.71 1588.78 374.957 1590.48 376.243C1590.48 374.995 1590.48 373.747 1590.48 372.462C1588.83 372.462 1587.17 372.462 1585.46 372.462ZM2050.03 376.243C2050.03 377.491 2050.03 378.739 2050.03 380.024C2051.69 379.401 2053.35 378.777 2055.05 378.134C2053.4 377.51 2051.74 376.886 2050.03 376.243ZM2158.01 376.243C2160.53 380.024 2160.53 380.024 2160.53 380.024L2158.01 376.243ZM1196.22 378.134C1195.4 379.382 1194.57 380.629 1193.71 381.915C1196.2 381.291 1198.69 380.667 1201.25 380.024C1199.59 379.401 1197.93 378.777 1196.22 378.134ZM2142.95 378.134C2145.46 381.915 2145.46 381.915 2145.46 381.915L2142.95 378.134ZM1404.65 383.806C1404.65 386.301 1404.65 388.797 1404.65 391.368C1405.48 388.873 1406.31 386.377 1407.16 383.806C1406.34 383.806 1405.51 383.806 1404.65 383.806ZM2039.99 383.806C2040.82 385.678 2041.65 387.549 2042.5 389.478C2042.5 387.606 2042.5 385.734 2042.5 383.806C2041.67 383.806 2040.84 383.806 2039.99 383.806ZM2092.72 385.696C2092.72 386.944 2092.72 388.192 2092.72 389.478C2095.21 388.854 2097.7 388.23 2100.26 387.587C2097.77 386.963 2095.28 386.339 2092.72 385.696ZM1497.57 389.478C1497.57 395.15 1497.57 395.15 1497.57 395.15V389.478Z" fill="#ADBEA8"/>
<path d="M848.806 866.852C593.736 941.247 -76.621 950.983 -103 1039.95C-112.15 1070.81 435.158 1039.95 435.158 1039.95H1873.23V459C1873.23 459 1571.48 453.16 1450.13 483.238C1287.4 523.572 1164.2 709.154 1164.2 709.154C1164.2 709.154 1090.93 796.234 848.806 866.852Z" fill="#ADBEA8"/>
<path d="M2855.88 744.033C2949.5 810.52 3076 967.616 3076 967.616V1058H1835V472.879C1835 472.879 1859.88 461.902 1928.64 472.878C2070.71 495.556 2142.45 655.846 2316.12 716.848C2472.29 771.704 2710.59 640.848 2855.88 744.033Z" fill="#ADBEA8"/>
<path d="M2270.35 724.723L2239.35 738.813L2294.42 1011.69L3583.6 751.533L3535.75 514.41L3524.28 516.726L3505.13 530.381L3491.72 552.675L3480.24 554.99L3481.76 562.518L3468.36 575.016L3456.89 567.536L3449.24 569.08L3445.4 579.648L3420.55 574.87L3399.91 571.202L3380.78 575.062L3367 585.678L3355.52 587.994L3338.7 583.554L3329.91 579.452L3297.39 586.014L3281.34 575.543L3266.06 568.835L3260.33 560.197L3243.12 563.671L3223.99 567.531L3210.63 550.642L3190.38 539.06L3177.38 533.848L3175.86 526.321L3160.19 517.731L3134.93 530.663L3110.48 517.971L3099.76 524.051L3090.95 529.745L3079.08 539.975L3069.9 543.787L3059.18 549.866L3046.57 546.536L3026.31 534.955L3023.64 531.577L3018.66 536.499L3012.56 525.979L3007.97 522.988L3002.98 537.705L2998 542.627L2991.87 551.699L2985.75 550.975C2985.75 550.975 2978.8 546.11 2978.5 544.605C2978.19 543.099 2976.08 539.216 2975.06 537.463L2965.09 557.102L2957.44 558.646C2953.88 554.143 2946.68 544.759 2946.37 543.253C2946.07 541.747 2939.63 536.127 2936.44 533.505L2936.81 545.183L2932.97 555.751L2928.75 564.436L2924.93 565.208L2919.19 566.366L2918.79 574.28L2915.33 586.73L2905.76 598.455L2882.8 603.087L2867.09 623.884L2863.65 626.538L2844.52 630.398L2839.92 637.202L2826.53 639.904L2823.86 636.526L2807.04 632.086L2806.28 628.322L2790.98 631.41L2786 636.332L2771.84 645.066L2766.11 636.428L2749.66 643.666L2748.9 639.902L2731.68 643.376L2725.19 640.77L2698.01 654.088L2691.88 663.16L2645.98 672.423L2623.81 661.228L2612.73 655.63L2580.6 654.278L2569.92 640.767L2546.57 653.313L2540.83 654.471L2516.36 651.575L2470.79 692.107L2410.34 708.223L2375.91 715.171L2353.72 723.567L2352.96 719.803L2343.4 721.733L2338.81 718.741L2330.77 728.199L2289.47 720.863L2270.35 724.723Z" fill="#B1BFAC"/>
<path d="M3564.93 514.796L3536.06 522.501L2965 886.997L2221 1003L-30.9997 1039L-30.9995 1382.99L4681.29 1382.99L4681.29 557.976L4671.09 557.985L4652.41 567.601L4637.13 586.813L4626.94 586.822L4626.95 594.501L4613.36 604.113L4604.86 594.521L4598.06 594.527L4592.97 604.13L4572.57 594.549L4555.58 586.884L4538.59 586.899L4525 594.59L4514.81 594.599L4501.21 586.932L4494.4 581.178L4465.52 581.203L4453.61 567.775L4441.71 558.186L4438.3 548.59L4423.01 548.603L4406.02 548.618L4397.51 529.427L4382.2 514.081L4372 506.41L4372 498.731L4360.09 487.222L4336.31 494.922L4317.61 477.66L4307.42 481.509L4298.92 485.356L4287.04 493.046L4278.54 494.973L4268.35 498.822L4258.15 493.071L4242.84 477.725L4241.14 473.887L4236.05 477.731L4232.64 466.215L4229.24 462.378L4222.45 475.823L4217.36 479.668L4210.57 487.353L4205.47 485.438C4205.47 485.438 4200.37 479.298 4200.37 477.763C4200.37 476.227 4199.23 472.004 4198.66 470.085L4186.78 487.374L4179.99 487.38C4177.72 482.262 4173.18 471.643 4173.18 470.107C4173.17 468.571 4168.64 461.791 4166.37 458.594L4164.68 470.114L4159.59 479.718L4154.5 487.402L4151.1 487.405L4146.01 487.409L4144.31 495.09L4139.23 506.614L4129.04 516.222L4108.65 516.24L4091.67 533.534L4088.28 535.457L4071.29 535.471L4066.19 541.236L4054.3 541.246L4052.6 537.408L4039 529.74L4039 525.9L4025.4 525.912L4020.31 529.756L4006.72 535.528L4003.31 525.932L3988.03 529.785L3988.02 525.945L3972.73 525.958L3967.63 522.123L3942.15 529.825L3935.36 537.51L3894.58 537.546L3877.58 522.202L3869.07 514.53L3841.88 506.874L3835.07 491.521L3812.99 499.22L3807.89 499.224L3787.5 491.563L3741.65 522.321L3687.28 526.208L3656.7 526.235L3636.31 530.092L3636.31 526.253L3627.81 526.26L3624.41 522.423L3615.92 530.11L3581.93 514.781L3564.93 514.796Z" fill="#B1BFAC"/>
<path d="M686.851 273.058C687.169 273.844 687.099 274.157 686.819 274.978C686.68 275.287 686.538 275.593 686.393 275.899C686.324 276.055 686.255 276.212 686.184 276.373C685.649 277.53 685.649 277.53 684.708 277.882C684.573 278.101 684.438 278.321 684.299 278.547C684.141 278.51 683.982 278.473 683.818 278.435C683.683 278.654 683.548 278.873 683.409 279.1C683.25 279.062 683.092 279.025 682.928 278.987C682.838 279.109 682.747 279.231 682.654 279.357C681.98 280.106 681.144 280.6 680.31 281.158C679.752 281.494 679.752 281.494 679.68 282.031C679.19 282.344 678.695 282.651 678.197 282.952C677.982 283.153 677.768 283.354 677.547 283.56C678.654 284.742 680.101 285.225 681.623 285.67C682.181 285.939 682.349 286.234 682.627 286.778C682.24 287.33 682.008 287.595 681.366 287.83C681.195 287.847 681.024 287.865 680.847 287.883C680.707 287.766 680.567 287.65 680.422 287.53C679.944 287.408 679.463 287.294 678.98 287.192C679.003 287.449 679.027 287.705 679.051 287.97C679.588 288.179 680.125 288.388 680.678 288.604C680.702 288.861 680.725 289.117 680.75 289.382C681.28 289.878 681.28 289.878 681.936 290.341C682.155 290.503 682.373 290.665 682.599 290.831C682.769 290.954 682.938 291.076 683.113 291.202C683.02 291.584 683.02 291.584 682.924 291.972C682.844 292.306 682.764 292.639 682.683 292.972C682.642 293.14 682.601 293.307 682.558 293.48C682.317 294.407 682.317 294.407 682.397 295.346C682.052 295.804 682.052 295.804 681.691 296.195C681.612 296.177 681.533 296.158 681.451 296.139C681.477 295.934 681.503 295.729 681.53 295.518C681.557 295.249 681.585 294.98 681.613 294.703C681.658 294.303 681.658 294.303 681.704 293.895C681.717 293.113 681.717 293.113 681.161 292.568C680.98 292.427 680.799 292.285 680.612 292.139C680.45 292.002 680.289 291.864 680.123 291.723C679.944 291.579 679.944 291.579 679.763 291.433C679.553 291.97 679.344 292.507 679.128 293.06C678.708 292.71 678.288 292.361 677.855 292.001C677.929 291.683 678.003 291.366 678.08 291.039C677.877 290.968 677.877 290.968 677.67 290.896C676.787 290.322 676.556 289.389 676.303 288.404C676.109 287.751 676.109 287.751 675.581 287.427C674.65 287.187 673.832 287.236 672.872 287.285C672.835 287.443 672.798 287.602 672.76 287.766C672.383 287.931 672.006 288.096 671.629 288.262C671.592 288.421 671.555 288.579 671.517 288.743C671.657 288.859 671.797 288.976 671.941 289.096C671.885 289.334 671.83 289.572 671.772 289.817C670.699 289.122 670.699 289.122 670.555 288.518C669.348 288.152 669.348 288.152 668.134 288.363C667.821 288.463 667.821 288.463 667.501 288.564C666.991 288.238 666.991 288.238 666.652 287.858C666.726 287.541 666.8 287.223 666.877 286.896C666.662 286.851 666.448 286.806 666.227 286.76C665.434 286.559 665.434 286.559 664.82 286.272C664.266 285.976 664.266 285.976 663.511 286.109C663.394 286.249 663.278 286.389 663.158 286.533C662.999 286.496 662.841 286.459 662.677 286.421C662.625 286.555 662.572 286.689 662.519 286.828C662.122 287.471 661.691 287.721 661.025 288.063C660.866 288.026 660.708 287.989 660.544 287.951C660.507 288.109 660.47 288.268 660.432 288.431C660.661 288.48 660.89 288.528 661.126 288.578C661.874 288.769 661.874 288.769 662.299 289.122C662.262 289.281 662.224 289.439 662.186 289.603C662.821 289.751 663.456 289.9 664.11 290.053C664.054 290.291 663.998 290.529 663.941 290.774C664.179 290.827 664.417 290.879 664.662 290.934C664.971 291.004 665.279 291.074 665.597 291.146C665.905 291.215 666.212 291.284 666.529 291.355C667.307 291.562 667.307 291.562 667.731 291.914C667.782 292.775 667.677 293.344 667.225 294.078C665.696 293.944 665.696 293.944 665.245 293.869C665.185 293.771 665.124 293.673 665.061 293.572C664.079 293.279 664.079 293.279 663.082 293.362C662.942 293.246 662.801 293.129 662.657 293.009C662.62 293.168 662.583 293.327 662.545 293.49C662.715 293.567 662.885 293.643 663.061 293.722C663.581 293.961 664.089 294.212 664.596 294.477C664.559 294.636 664.522 294.795 664.483 294.958C664.622 295.019 664.761 295.079 664.904 295.141C665.942 295.612 666.626 295.975 667.328 296.892C667.924 297.213 667.924 297.213 668.473 297.413C668.436 297.572 668.399 297.731 668.361 297.894C668.58 298.029 668.8 298.164 669.026 298.303C668.992 298.501 668.959 298.698 668.924 298.901C668.861 299.292 668.861 299.292 668.796 299.692C668.754 299.95 668.711 300.207 668.667 300.473C668.592 301.241 668.578 301.817 668.791 302.559C669.193 302.915 669.193 302.915 669.724 303.111C669.908 303.188 670.093 303.266 670.283 303.346C671.647 303.859 671.647 303.859 673.062 303.812C673.007 304.05 672.951 304.288 672.894 304.534C674.163 304.831 675.432 305.128 676.74 305.434C676.703 305.592 676.666 305.751 676.628 305.915C677.678 306.077 678.728 306.239 679.81 306.405C679.921 305.929 680.032 305.453 680.147 304.963C680.264 304.823 680.38 304.683 680.5 304.538C681.165 304.948 681.165 304.948 681.289 305.445C681.307 305.635 681.324 305.824 681.342 306.019C681.361 306.21 681.381 306.4 681.4 306.596C681.412 306.743 681.424 306.889 681.436 307.04C681.726 307.144 682.015 307.248 682.313 307.356C682.97 307.598 683.597 307.851 684.209 308.196C684.246 308.037 684.283 307.878 684.321 307.715C684.956 307.863 685.591 308.012 686.245 308.165C686.208 308.323 686.171 308.482 686.132 308.646C686.44 308.671 686.748 308.696 687.066 308.721C687.842 308.784 688.331 308.965 689.017 309.321C689.474 309.445 689.934 309.557 690.396 309.659C690.634 309.712 690.871 309.766 691.115 309.82C691.296 309.86 691.476 309.899 691.662 309.939C691.529 309.793 691.396 309.647 691.259 309.496C691.13 309.33 691.002 309.164 690.869 308.993C690.906 308.834 690.943 308.676 690.982 308.512C690.762 308.377 690.543 308.242 690.317 308.103C690.154 307.759 690.154 307.759 689.988 307.408C689.651 306.707 689.415 306.403 688.787 305.97C689.086 305.313 689.211 305.09 689.846 304.696C690.604 305.142 691.179 305.518 691.785 306.164C691.748 306.323 691.71 306.482 691.672 306.645C692.249 307.053 692.825 307.446 693.427 307.816C693.39 307.975 693.353 308.134 693.314 308.297C693.552 308.353 693.79 308.409 694.036 308.466C693.998 308.625 693.961 308.783 693.923 308.947C694.085 309.058 694.248 309.169 694.415 309.284C694.919 309.642 695.393 310.013 695.862 310.415C695.825 310.574 695.788 310.732 695.749 310.896C696.253 310.888 696.253 310.888 696.767 310.88C696.804 310.722 696.842 310.563 696.88 310.4C701.694 311.752 701.694 311.752 703.539 312.354C706.124 313.182 708.652 313.605 711.355 313.834C711.67 313.863 711.986 313.891 712.311 313.921C714.306 314.097 716.287 314.209 718.29 314.198C719.226 314.346 719.645 314.722 720.314 315.375C720.276 315.534 720.239 315.693 720.201 315.856C720.381 315.917 720.562 315.978 720.747 316.04C721.347 316.378 721.347 316.378 721.615 316.947C721.667 317.163 721.72 317.38 721.773 317.603C721.829 317.82 721.885 318.036 721.942 318.259C722.043 318.823 722.043 318.823 721.93 319.304C722.089 319.341 722.248 319.378 722.411 319.416C722.543 320.284 722.675 321.152 722.81 322.046C721.91 321.732 721.172 321.315 720.399 320.768C720.208 320.635 720.017 320.501 719.82 320.363C719.245 319.943 719.245 319.943 718.763 319.53C716.387 317.658 712.473 317.105 709.514 317.366C709.051 317.436 708.59 317.513 708.129 317.596C707.602 317.66 707.075 317.722 706.548 317.781C706.319 317.809 706.09 317.838 705.854 317.867C705.397 317.922 704.94 317.968 704.482 318.011C704.286 318.132 704.09 318.254 703.888 318.379C703.65 318.323 703.412 318.268 703.167 318.21C702.783 318.272 702.401 318.348 702.021 318.433C701.065 318.633 700.256 318.648 699.279 318.569C699.163 318.709 699.046 318.849 698.926 318.993C698.404 319.09 697.878 319.164 697.35 319.227C696.291 319.359 695.25 319.507 694.206 319.727C693.319 319.906 692.537 319.938 691.632 319.822C691.595 319.981 691.558 320.14 691.52 320.303C691.239 320.316 690.959 320.329 690.67 320.342C690.095 320.371 689.52 320.409 688.947 320.462C688.36 320.377 687.774 320.281 687.19 320.178C687.02 320.148 686.849 320.119 686.674 320.088C686.13 319.994 685.587 319.898 685.043 319.802C684.333 319.677 683.622 319.553 682.912 319.43C682.596 319.375 682.281 319.319 681.956 319.262C681.32 319.169 680.761 319.117 680.122 319.158C680.317 319.344 680.511 319.53 680.712 319.722C680.964 319.966 681.215 320.211 681.467 320.455C681.596 320.578 681.724 320.701 681.857 320.827C682.182 321.144 682.491 321.478 682.798 321.813C682.761 321.971 682.724 322.13 682.685 322.294C682.885 322.403 683.084 322.512 683.289 322.625C684.016 323.112 684.016 323.112 684.486 323.745C685.114 324.501 685.695 324.695 686.619 324.989C686.736 324.849 686.852 324.709 686.972 324.565C693.623 326.622 693.623 326.622 696.447 327.641C699.018 328.55 701.678 328.998 704.366 329.411C704.661 329.458 704.957 329.505 705.261 329.554C706.782 329.812 706.782 329.812 708.314 329.812C708.713 329.868 709.111 329.935 709.507 330.01C709.734 330.053 709.962 330.096 710.197 330.14C710.434 330.185 710.671 330.231 710.915 330.278C711.155 330.323 711.395 330.368 711.642 330.414C712.235 330.526 712.827 330.639 713.419 330.752C713.456 330.594 713.493 330.435 713.532 330.272C714.048 330.343 714.565 330.417 715.081 330.491C715.368 330.532 715.656 330.573 715.952 330.615C716.713 330.762 716.713 330.762 717.378 331.172C717.568 331.465 717.753 331.761 717.931 332.062C718.071 332.178 718.211 332.295 718.355 332.415C718.318 332.573 718.281 332.732 718.243 332.895C718.481 332.951 718.719 333.007 718.964 333.064C718.927 333.223 718.89 333.382 718.852 333.545C719.02 333.632 719.188 333.718 719.361 333.807C720.196 334.527 720.271 335.147 720.509 336.215C720.472 336.374 720.435 336.533 720.397 336.696C720.555 336.733 720.714 336.77 720.878 336.809C720.906 337.401 720.935 337.994 720.965 338.604C721.203 338.66 721.441 338.715 721.686 338.773C721.654 339.111 721.654 339.111 721.621 339.455C721.593 340.169 721.641 340.671 721.845 341.346C720.717 340.897 719.772 340.224 718.781 339.536C718.606 339.415 718.432 339.294 718.251 339.17C716.936 338.257 715.634 337.332 714.401 336.308C713.179 335.922 711.933 335.617 710.688 335.312C710.505 335.267 710.323 335.222 710.134 335.176C706.807 334.378 703.831 334.267 700.415 334.623C699.708 334.681 699.028 334.653 698.324 334.575C698.268 334.813 698.212 335.051 698.155 335.296C697.856 335.257 697.556 335.218 697.247 335.179C696.403 335.069 695.7 335.142 694.861 335.286C694.152 335.389 693.442 335.484 692.732 335.58C692.544 335.606 692.356 335.633 692.163 335.66C691.368 335.766 690.743 335.844 689.955 335.66C689.918 335.818 689.881 335.977 689.843 336.14C689.189 336.071 688.536 336.002 687.863 335.931C687.826 336.089 687.789 336.248 687.751 336.412C687.097 336.342 686.444 336.273 685.771 336.202C685.697 336.519 685.622 336.837 685.546 337.164C685.326 337.029 685.107 336.894 684.881 336.755C684.094 336.8 683.33 336.875 682.548 336.97C682.251 337.001 681.955 337.033 681.649 337.066C679.826 337.254 679.826 337.254 678.026 337.588C676.753 337.749 675.688 337.537 674.441 337.276C674.197 337.227 673.953 337.179 673.702 337.129C671.912 336.768 670.132 336.367 668.361 335.923C667.293 335.66 666.232 335.463 665.143 335.304C663.389 335.044 661.675 334.659 659.95 334.25C659.649 334.18 659.347 334.111 659.037 334.039C658.606 333.938 658.606 333.938 658.167 333.834C657.908 333.774 657.65 333.713 657.384 333.65C656.741 333.467 656.741 333.467 656.076 333.058C656.113 332.899 656.15 332.741 656.189 332.577C655.722 332.418 655.256 332.26 654.789 332.101C654.321 331.887 654.321 331.887 653.713 331.237C653.336 331.051 652.955 330.875 652.567 330.715C652.604 330.557 652.641 330.398 652.679 330.234C652.454 330.192 652.228 330.15 651.996 330.106C651.237 329.897 651.237 329.897 650.628 329.247C650.355 329.142 650.081 329.036 649.8 328.927C649.001 328.613 649.001 328.613 648.633 328.02C648.399 327.923 648.166 327.827 647.925 327.727C647.701 327.633 647.477 327.539 647.247 327.442C647.204 327.265 647.162 327.087 647.119 326.905C646.738 326.728 646.356 326.555 645.973 326.383C645.489 326.037 645.013 325.682 644.542 325.319C643.433 324.48 642.311 323.784 641.075 323.151C640.176 322.65 639.375 322.031 638.55 321.419C637.404 320.611 636.186 319.928 634.964 319.243C635.001 319.084 635.038 318.925 635.077 318.762C634.461 318.534 633.844 318.306 633.21 318.071C633.247 317.913 633.284 317.754 633.322 317.591C632.706 317.363 632.09 317.135 631.455 316.9C631.492 316.741 631.529 316.583 631.567 316.419C631.342 316.377 631.116 316.335 630.884 316.291C630.125 316.082 630.125 316.082 629.516 315.432C629.266 315.337 629.017 315.242 628.759 315.144C627.793 314.76 627.171 314.345 626.375 313.683C626.333 313.506 626.291 313.328 626.247 313.146C626.022 313.103 625.796 313.061 625.564 313.018C624.805 312.808 624.805 312.808 624.196 312.159C623.923 312.053 623.649 311.947 623.368 311.838C622.569 311.524 622.569 311.524 622.201 310.931C621.745 310.724 621.283 310.529 620.815 310.353C620.852 310.194 620.889 310.036 620.927 309.872C620.702 309.83 620.476 309.788 620.244 309.744C619.485 309.535 619.485 309.535 618.876 308.885C618.339 308.66 617.797 308.446 617.249 308.251C617.286 308.092 617.323 307.934 617.362 307.77C616.745 307.542 616.129 307.314 615.494 307.08C615.532 306.921 615.569 306.762 615.607 306.599C614.972 306.45 614.337 306.302 613.684 306.149C613.641 305.971 613.599 305.794 613.556 305.612C612.527 304.839 611.377 304.255 610.174 303.806C610.211 303.647 610.248 303.489 610.287 303.325C610.017 303.273 609.747 303.22 609.468 303.165C608.604 302.932 608.604 302.932 608.235 302.338C607.658 302.045 607.087 301.776 606.494 301.519C606.331 301.447 606.169 301.375 606.002 301.3C605.601 301.123 605.2 300.948 604.798 300.773C604.854 300.535 604.909 300.297 604.967 300.052C604.76 300.019 604.553 299.986 604.34 299.953C603.384 299.673 602.794 299.202 602.01 298.599C601.772 298.544 601.534 298.488 601.289 298.43C601.326 298.272 601.363 298.113 601.401 297.95C600.785 297.722 600.169 297.494 599.534 297.259C599.571 297.1 599.608 296.942 599.646 296.778C596.978 296.129 594.322 295.495 591.607 295.077C590.538 294.913 589.474 294.731 588.409 294.545C588.232 294.515 588.055 294.485 587.873 294.453C586.975 294.296 586.091 294.116 585.206 293.898C584.274 293.673 583.364 293.589 582.407 293.506C581.684 293.366 580.97 293.194 580.255 293.018C580.068 292.973 579.881 292.928 579.688 292.882C579.232 292.772 578.776 292.661 578.32 292.549C578.283 292.708 578.246 292.867 578.208 293.03C577.573 292.882 576.938 292.733 576.284 292.58C576.321 292.421 576.359 292.263 576.397 292.099C574.601 291.759 573.094 291.826 571.307 292.176C570.944 292.24 570.58 292.303 570.217 292.365C569.84 292.434 569.84 292.434 569.455 292.504C569.418 292.662 569.381 292.821 569.343 292.985C569.145 292.959 568.947 292.934 568.743 292.908C567.764 292.886 566.924 293.042 565.972 293.251C565.455 293.343 565.455 293.343 564.974 293.23C564.937 293.389 564.9 293.548 564.862 293.711C564.013 293.764 563.164 293.816 562.289 293.87C562.326 293.711 562.363 293.553 562.401 293.389C562.56 293.426 562.719 293.463 562.882 293.502C563.057 293.291 563.057 293.291 563.235 293.077C563.771 292.945 564.308 292.817 564.846 292.693C565.14 292.511 565.14 292.511 565.44 292.325C565.828 292.202 566.22 292.088 566.614 291.982C567.502 291.737 568.38 291.475 569.256 291.189C569.433 291.147 569.61 291.105 569.793 291.061C569.73 290.878 569.666 290.694 569.601 290.505C569.311 289.552 569.103 288.595 568.902 287.62C568.864 287.437 568.825 287.254 568.786 287.066C568.506 285.722 568.506 285.722 568.57 285.45C568.397 285.411 568.225 285.372 568.047 285.331C567.268 285.154 566.49 284.976 565.711 284.797C565.44 284.735 565.168 284.674 564.888 284.611C564.629 284.551 564.37 284.491 564.103 284.429C563.744 284.347 563.744 284.347 563.378 284.264C562.8 284.1 562.8 284.1 562.375 283.747C562.412 283.588 562.449 283.429 562.488 283.266C564.165 283.336 566.711 283.474 568.017 284.56C567.958 283.215 567.342 282.019 566.585 280.928C566.118 280.623 566.118 280.623 565.679 280.462C565.717 280.304 565.754 280.145 565.792 279.982C566.207 279.995 566.623 280.009 567.05 280.022C567.013 280.181 566.976 280.34 566.938 280.503C567.142 280.504 567.346 280.505 567.556 280.505C567.873 280.524 567.873 280.524 568.196 280.544C568.257 280.642 568.318 280.74 568.38 280.841C568.81 280.989 569.243 281.125 569.678 281.255C570.775 281.6 571.783 282.002 572.808 282.518C574.515 283.369 576.379 283.853 578.197 284.406C578.16 284.564 578.123 284.723 578.084 284.886C578.322 284.933 578.559 284.98 578.803 285.028C580.646 285.419 582.14 285.835 583.686 286.958C583.821 286.738 583.956 286.519 584.095 286.293C584.352 286.269 584.608 286.246 584.873 286.221C585.087 286.02 585.301 285.819 585.522 285.612C585.681 285.649 585.84 285.687 586.003 285.725C586.04 285.566 586.077 285.408 586.116 285.244C586.274 285.281 586.433 285.318 586.596 285.357C586.634 285.198 586.671 285.039 586.709 284.876C587.026 284.95 587.344 285.024 587.671 285.101C587.504 285.815 587.337 286.529 587.164 287.265C587.323 287.302 587.482 287.339 587.645 287.377C587.552 287.774 587.46 288.17 587.364 288.579C587.632 288.634 587.9 288.689 588.176 288.746C589.395 289.032 590.528 289.486 591.686 289.955C593.217 290.565 594.742 291.153 596.32 291.635C596.756 291.791 596.756 291.791 597.181 292.144C597.507 292.238 597.837 292.319 598.169 292.391C598.632 292.491 598.632 292.491 599.104 292.594C599.067 292.753 599.03 292.911 598.991 293.075C599.156 293.066 599.32 293.058 599.489 293.049C600.989 293.181 602.367 293.86 603.744 294.44C603.902 294.477 604.061 294.515 604.225 294.553C604.187 294.712 604.15 294.87 604.112 295.034C606.392 295.608 608.641 296.032 610.974 296.322C611.266 296.363 611.558 296.403 611.859 296.445C614.411 296.767 616.483 296.456 618.916 295.708C619.075 295.745 619.233 295.782 619.397 295.82C619.434 295.662 619.471 295.503 619.509 295.34C619.668 295.377 619.827 295.414 619.99 295.452C620.162 295.074 620.334 294.696 620.512 294.306C620.731 294.441 620.951 294.576 621.177 294.715C621.214 294.557 621.251 294.398 621.289 294.235C621.448 294.272 621.607 294.309 621.77 294.347C621.807 294.188 621.844 294.03 621.883 293.866C622.041 293.903 622.2 293.941 622.364 293.979C622.34 293.722 622.316 293.466 622.292 293.201C622.609 293.276 622.927 293.35 623.254 293.426C624.118 292.976 624.632 292.676 625.146 291.84C625.403 291.817 625.659 291.793 625.924 291.769C626.175 291.613 626.425 291.457 626.684 291.297C627.042 291.075 627.042 291.075 627.407 290.848C627.566 290.885 627.724 290.922 627.888 290.96C627.944 290.722 627.999 290.484 628.057 290.239C627.879 290.281 627.702 290.324 627.52 290.367C626.954 290.247 626.397 290.115 625.837 289.973C624.014 289.528 622.182 289.161 620.339 288.814C617.565 288.288 614.819 287.677 612.076 287.007C612.039 287.166 612.002 287.325 611.964 287.488C610.983 287.253 610.006 287.005 609.029 286.754C608.751 286.687 608.472 286.621 608.186 286.552C606.115 286.011 606.115 286.011 605.539 285.09C605.47 284.867 605.4 284.644 605.329 284.414C604.888 284.15 604.888 284.15 604.388 284.099C604.219 284.07 604.049 284.041 603.875 284.012C603.375 283.961 602.889 283.968 602.387 283.98C602.168 283.844 601.949 283.709 601.722 283.57C601.606 283.71 601.489 283.851 601.369 283.995C601.169 283.781 600.968 283.566 600.761 283.345C601.632 283.089 602.377 283.084 603.281 283.142C603.527 283.158 603.773 283.173 604.027 283.188C604.213 283.201 604.4 283.214 604.592 283.227C603.961 281.929 603.274 280.802 602.382 279.667C602.289 279.504 602.197 279.341 602.101 279.174C601.737 278.642 601.279 278.359 600.74 278.015C600.777 277.856 600.814 277.698 600.852 277.534C601.475 277.554 601.475 277.554 602.111 277.575C602.074 277.734 602.037 277.892 601.998 278.056C602.273 278.136 602.548 278.215 602.831 278.297C603.197 278.404 603.562 278.511 603.927 278.618C604.108 278.67 604.288 278.723 604.475 278.777C605.485 279.074 606.447 279.412 607.416 279.831C607.819 279.977 608.224 280.12 608.631 280.258C608.927 280.359 608.927 280.359 609.228 280.462C609.79 280.65 609.79 280.65 610.485 280.802C610.448 280.961 610.411 281.12 610.372 281.283C610.61 281.339 610.848 281.395 611.094 281.452C611.21 281.312 611.327 281.172 611.447 281.027C611.685 281.083 611.923 281.139 612.168 281.196C612.284 281.056 612.401 280.916 612.521 280.772C612.838 280.846 613.155 280.92 613.482 280.997C613.617 280.777 613.753 280.558 613.892 280.332C614.695 280.218 614.695 280.218 615.447 280.188C615.637 279.731 615.828 279.273 616.025 278.802C615.737 278.758 615.737 278.758 615.443 278.713C614.297 278.382 613.359 277.802 612.347 277.181C612.421 276.863 612.495 276.546 612.572 276.219C612.754 276.267 612.936 276.315 613.124 276.364C613.791 276.537 613.791 276.537 614.551 276.429C616.53 276.576 618.481 276.957 620.434 277.298C620.512 276.369 620.262 275.962 619.695 275.239C619.088 274.43 618.578 273.669 618.209 272.72C618.246 272.561 618.283 272.402 618.321 272.239C618.102 272.104 617.882 271.969 617.656 271.83C617.425 271.266 617.425 271.266 617.456 270.515C617.856 269.817 618.362 269.224 618.884 268.614C619.022 268.447 619.16 268.279 619.303 268.107C619.644 267.694 619.99 267.286 620.336 266.878C620.556 267.013 620.775 267.148 621.001 267.287C620.113 269.195 620.113 269.195 619.534 270.034C619.105 270.837 619.183 271.342 619.339 272.223C619.577 272.279 619.815 272.335 620.06 272.392C620.047 272.807 620.033 273.223 620.019 273.651C620.239 273.786 620.458 273.921 620.684 274.06C620.647 274.218 620.61 274.377 620.572 274.541C620.731 274.578 620.889 274.615 621.053 274.653C621.058 274.989 621.063 275.325 621.068 275.671C621.331 275.733 621.594 275.794 621.865 275.857C622.401 275.983 622.936 276.108 623.472 276.234C623.635 276.23 623.798 276.226 623.966 276.222C624.49 276.218 624.49 276.218 625.452 276.443C625.415 276.602 625.378 276.761 625.34 276.924C625.638 277.078 625.937 277.231 626.245 277.389C626.38 277.17 626.515 276.951 626.654 276.724C628.498 277.378 628.498 277.378 628.706 277.712C628.914 277.624 629.123 277.537 629.338 277.447C630.076 277.272 630.076 277.272 630.586 277.533C630.992 278.064 631.005 278.341 630.941 278.995C631.1 279.033 631.258 279.07 631.422 279.108C631.497 278.921 631.572 278.735 631.649 278.543C631.795 278.255 631.795 278.255 631.944 277.962C632.121 277.92 632.298 277.878 632.481 277.834C632.444 277.993 632.406 278.151 632.368 278.315C632.591 278.326 632.591 278.326 632.817 278.338C634.444 278.467 634.444 278.467 635.217 279.077C635.351 279.244 635.484 279.411 635.622 279.583C637.124 280.833 639.685 280.494 641.504 280.453C642.265 280.438 643.02 280.449 643.781 280.478C643.794 280.063 643.808 279.648 643.821 279.22C643.104 279.098 643.104 279.098 642.323 279.123C641.951 279.526 641.951 279.526 641.617 279.972C640.907 280.172 640.476 280.227 639.772 280C639.586 279.854 639.586 279.854 639.397 279.706C639.373 279.449 639.349 279.193 639.325 278.928C639.484 278.965 639.642 279.003 639.806 279.041C639.889 278.867 639.971 278.692 640.056 278.513C640.805 277.691 641.589 277.732 642.66 277.68C642.697 277.521 642.734 277.363 642.773 277.199C641.848 276.857 641.848 276.857 640.906 276.509C640.943 276.35 640.98 276.191 641.018 276.028C640.463 275.898 639.907 275.768 639.335 275.634C639.311 275.377 639.288 275.121 639.263 274.857C644.226 274.674 644.226 274.674 645.202 275.485C645.356 275.187 645.51 274.888 645.668 274.58C645.509 274.543 645.35 274.506 645.187 274.467C645.224 274.309 645.261 274.15 645.299 273.987C645.08 273.852 644.861 273.717 644.634 273.577C644.593 273.285 644.593 273.285 644.551 272.987C644.407 272.088 644.01 271.534 643.514 270.779C643.472 270.602 643.43 270.425 643.386 270.242C643.719 269.896 644.053 269.552 644.389 269.209C644.71 268.601 644.71 268.601 644.91 268.063C645.069 268.1 645.228 268.137 645.391 268.176C645.526 267.956 645.661 267.737 645.8 267.511C645.859 268.309 645.729 268.828 645.416 269.56C645.125 270.334 645.061 270.59 645.216 271.431C645.468 272.02 645.468 272.02 645.934 272.36C645.939 272.699 645.944 273.038 645.949 273.378C646.089 273.494 646.229 273.611 646.374 273.731C646.397 273.987 646.421 274.244 646.445 274.508C646.858 274.911 646.858 274.911 647.295 275.214C647.332 275.055 647.369 274.897 647.407 274.733C648.676 275.03 649.946 275.327 651.254 275.633C651.217 275.792 651.18 275.951 651.141 276.114C651.386 276.119 651.631 276.124 651.883 276.129C653.025 276.222 653.938 276.715 654.932 277.255C654.993 277.116 655.054 276.977 655.116 276.834C655.536 276.111 656.167 275.833 656.881 275.428C657.021 275.545 657.161 275.661 657.305 275.781C657.212 276.178 657.12 276.575 657.024 276.983C659.375 277.691 661.522 277.786 663.946 277.721C664.694 277.704 665.44 277.711 666.188 277.717C667.514 277.724 668.838 277.7 670.164 277.662C670.81 277.673 670.81 277.673 671.772 277.898C671.732 277.596 671.693 277.294 671.653 276.983C671.64 276.289 671.68 275.953 672.069 275.37C672.829 274.59 673.376 274.154 674.467 273.964C674.369 274.165 674.271 274.365 674.17 274.571C673.807 275.37 673.485 276.13 673.255 276.977C673.589 277.876 673.589 277.876 674.176 278.461C674.139 278.619 674.102 278.778 674.063 278.942C674.344 279.174 674.624 279.407 674.913 279.647C674.875 279.806 674.838 279.965 674.8 280.128C675.02 280.263 675.239 280.398 675.465 280.537C675.52 281.055 675.567 281.574 675.608 282.093C675.793 282.639 675.793 282.639 676.161 282.983C676.664 283.12 676.664 283.12 677.179 282.967C677.55 282.564 677.55 282.564 677.885 282.118C678.16 282.015 678.435 281.912 678.719 281.806C678.854 281.586 678.989 281.367 679.128 281.141C679.523 280.895 679.919 280.65 680.314 280.404C680.431 280.264 680.547 280.124 680.667 279.98C681.213 279.323 681.928 278.976 682.664 278.561C683.143 278.257 683.143 278.257 683.624 277.708C683.781 277.551 683.938 277.394 684.1 277.232C684.258 277.27 684.417 277.307 684.58 277.345C684.688 277.041 684.796 276.736 684.907 276.423C685.234 275.501 685.234 275.501 685.568 275.294C685.665 275.034 685.762 274.774 685.863 274.507C686.202 273.667 686.202 273.667 686.851 273.058ZM672.549 277.826C672.2 278.711 672.27 279.034 672.608 279.948C673.047 280.793 673.047 280.793 673.788 281.001C673.968 281.012 674.149 281.023 674.335 281.034C674.26 281.351 674.186 281.668 674.11 281.995C674.268 282.033 674.427 282.07 674.59 282.108C674.744 281.809 674.898 281.51 675.056 281.202C674.908 281.032 674.759 280.861 674.606 280.685C674.079 279.959 674.079 279.959 673.762 279.077C673.534 278.279 673.534 278.279 672.963 277.955C672.758 277.891 672.758 277.891 672.549 277.826ZM645.545 278.355C645.069 278.841 644.848 279.074 644.803 279.766C644.82 279.917 644.837 280.067 644.855 280.222C645.936 280.495 646.915 280.73 648.037 280.713C648.074 280.554 648.111 280.396 648.149 280.232C648.406 280.209 648.662 280.185 648.927 280.161C647.975 279.938 647.022 279.715 646.042 279.486C646.036 279.15 646.031 278.814 646.026 278.468C645.867 278.43 645.709 278.393 645.545 278.355ZM657.71 282.723C657.696 283.138 657.683 283.553 657.669 283.981C658.341 283.971 659.013 283.961 659.705 283.95C659.663 283.773 659.62 283.596 659.577 283.413C659.147 283.195 659.147 283.195 658.635 283.034C658.33 282.932 658.025 282.829 657.71 282.723ZM655.674 282.754C655.637 282.912 655.6 283.071 655.561 283.234C655.72 283.272 655.879 283.309 656.042 283.347C655.889 283.646 655.735 283.945 655.577 284.252C656.09 284.205 656.603 284.158 657.132 284.109C656.954 283.54 656.954 283.54 656.636 282.979C656.318 282.904 656.001 282.83 655.674 282.754ZM661.644 285.418C661.607 285.577 661.569 285.736 661.531 285.899C661.359 285.892 661.186 285.886 661.008 285.879C660.668 285.866 660.668 285.866 660.321 285.854C659.985 285.841 659.985 285.841 659.641 285.828C658.988 285.806 658.988 285.806 658.237 285.889C658.2 286.048 658.163 286.207 658.124 286.37C658.283 286.407 658.442 286.444 658.605 286.483C658.629 286.739 658.653 286.996 658.677 287.26C659.252 287.738 659.821 287.798 660.544 287.951C660.605 287.803 660.666 287.655 660.728 287.502C660.867 287.276 660.867 287.276 661.01 287.045C661.266 287.021 661.523 286.998 661.787 286.973C661.959 286.595 662.131 286.217 662.309 285.828C662.467 285.865 662.626 285.902 662.79 285.94C662.827 285.781 662.864 285.623 662.902 285.459C662.377 285.309 662.377 285.309 661.644 285.418ZM618.219 281.344C617.742 281.951 617.742 281.951 617.907 282.485C618.344 283.602 618.344 283.602 619.242 284.357C619.414 284.403 619.587 284.448 619.764 284.495C619.581 283.809 619.581 283.809 619.324 283.124C619.166 283.087 619.007 283.05 618.843 283.012C618.853 282.857 618.863 282.703 618.874 282.543C618.879 281.913 618.879 281.913 618.219 281.344ZM620.455 282.628C620.359 283.653 620.359 283.653 620.486 284.664C621.594 285.261 622.765 285.737 623.923 286.229C624.356 286.415 624.356 286.415 624.797 286.604C627.455 287.739 627.455 287.739 630.231 287.451C629.663 287.193 629.663 287.193 629.085 286.929C629.103 286.85 629.122 286.771 629.141 286.689C628.268 286.485 627.395 286.281 626.496 286.07C626.533 285.912 626.57 285.753 626.609 285.589C626.246 285.405 625.881 285.226 625.515 285.048C625.312 284.948 625.109 284.847 624.9 284.744C624.273 284.462 624.273 284.462 623.483 284.858C623.52 284.699 623.557 284.541 623.596 284.377C623.448 284.316 623.3 284.256 623.147 284.193C622.207 283.738 621.337 283.185 620.455 282.628ZM660.14 292.928C660.005 293.147 659.87 293.367 659.731 293.593C660.239 294.463 660.671 295.193 661.501 295.782C661.464 295.941 661.427 296.099 661.389 296.263C661.627 296.319 661.865 296.374 662.11 296.432C662.125 296.681 662.14 296.93 662.155 297.187C662.161 297.992 662.161 297.992 662.678 298.34C662.684 298.991 662.684 298.991 662.637 299.598C662.894 299.574 663.15 299.551 663.415 299.526C663.452 299.368 663.489 299.209 663.527 299.046C663.704 299.003 663.882 298.961 664.064 298.918C664.002 299.319 664.002 299.319 663.938 299.728C663.828 300.622 663.828 300.622 664.214 301.156C664.83 301.718 665.37 301.887 666.168 302.12C666.423 302.196 666.678 302.273 666.942 302.352C667.137 302.407 667.332 302.462 667.533 302.519C667.603 301.419 667.484 300.785 666.893 299.833C666.309 299.473 666.309 299.473 665.747 299.311C665.723 299.055 665.7 298.798 665.675 298.534C665.517 298.497 665.358 298.46 665.195 298.421C665.073 298.226 664.951 298.03 664.826 297.828C664.574 297.5 664.317 297.176 664.055 296.855C663.92 296.687 663.784 296.518 663.645 296.345C663.247 295.869 663.247 295.869 662.519 295.767C662.556 295.608 662.593 295.449 662.632 295.286C662.294 294.945 661.948 294.612 661.598 294.283C661.426 294.06 661.253 293.836 661.075 293.606C660.687 293.004 660.687 293.004 660.14 292.928ZM655.531 293.117C654.816 293.457 654.816 293.457 654.345 293.854C654.368 294.111 654.392 294.367 654.416 294.632C654.575 294.669 654.734 294.706 654.897 294.744C654.762 294.964 654.627 295.183 654.488 295.409C654.451 295.568 654.414 295.726 654.375 295.89C654.147 295.643 653.92 295.394 653.694 295.144C653.568 295.006 653.441 294.867 653.311 294.725C652.974 294.294 652.974 294.294 652.662 293.46C652.149 293.508 651.635 293.555 651.107 293.604C651.069 293.762 651.032 293.921 650.994 294.084C650.849 294.077 650.705 294.069 650.556 294.061C649.893 294.105 649.444 294.318 648.846 294.596C649.215 294.89 649.585 295.182 649.956 295.474C650.162 295.637 650.368 295.8 650.58 295.968C651.43 296.575 652.151 296.895 653.17 297.114C653.939 297.307 654.446 297.567 655.122 297.955C656.129 298.477 657.205 298.846 658.267 299.241C658.504 299.331 658.741 299.42 658.985 299.512C659.566 299.731 660.147 299.949 660.729 300.166C661.123 299.495 661.198 299.295 661.123 298.483C660.964 298.446 660.805 298.409 660.642 298.37C660.652 298.237 660.663 298.103 660.673 297.966C660.609 297.127 660.339 296.452 660.002 295.685C659.844 295.648 659.685 295.611 659.521 295.572C659.514 295.069 659.514 295.069 659.506 294.554C659.347 294.517 659.189 294.48 659.025 294.442C659.018 293.938 659.018 293.938 659.01 293.424C657.895 292.708 656.776 292.86 655.531 293.117ZM646.579 291.276C646.444 291.496 646.309 291.715 646.17 291.941C646.856 292.227 646.856 292.227 647.557 292.519C647.533 292.263 647.509 292.006 647.485 291.742C647.042 291.452 647.042 291.452 646.579 291.276ZM630.174 287.692C629.978 287.813 629.783 287.935 629.581 288.06C630.148 288.318 630.148 288.318 630.727 288.582C630.703 288.325 630.679 288.068 630.655 287.804C630.496 287.767 630.338 287.73 630.174 287.692ZM648.39 292.207C648.512 292.403 648.633 292.599 648.759 292.801C648.796 292.642 648.833 292.483 648.871 292.32C648.712 292.283 648.554 292.246 648.39 292.207ZM631.51 292.822C631.473 292.981 631.435 293.14 631.397 293.303C631 293.21 630.604 293.117 630.195 293.022C630.06 293.241 629.925 293.461 629.786 293.687C629.548 293.631 629.31 293.575 629.065 293.518C629.027 293.677 628.99 293.835 628.952 293.999C628.789 294.024 628.627 294.048 628.459 294.074C627.772 294.288 627.614 294.558 627.172 295.104C626.915 295.128 626.659 295.151 626.394 295.176C626.094 295.353 625.798 295.538 625.504 295.728C625.127 295.899 625.127 295.899 624.742 296.073C624.523 296.184 624.303 296.294 624.077 296.408C624.04 296.567 624.003 296.726 623.965 296.889C623.708 296.913 623.452 296.937 623.187 296.961C623.15 297.12 623.113 297.278 623.075 297.442C622.917 297.468 622.759 297.494 622.597 297.52C621.919 297.722 621.569 298.015 621.054 298.491C620.907 298.582 620.907 298.582 620.758 298.675C620.324 299.208 620.024 299.599 619.906 300.282C620.052 300.977 620.287 301.237 620.804 301.729C621.416 301.959 621.989 302.147 622.617 302.311C624.335 302.782 624.335 302.782 624.538 303.11C624.816 303.175 625.093 303.239 625.38 303.306C625.657 303.371 625.935 303.436 626.221 303.503C626.312 303.65 626.312 303.65 626.405 303.8C626.989 304.04 627.571 304.264 628.164 304.481C628.325 304.542 628.486 304.602 628.652 304.665C630.712 305.462 630.712 305.462 632.862 305.469C633.05 305.377 633.239 305.286 633.434 305.191C633.471 305.032 633.508 304.874 633.546 304.71C633.705 304.747 633.864 304.784 634.027 304.823C635.94 302.522 636.043 298.137 636.518 295.262C635.887 294.963 635.333 294.731 634.651 294.571C634.688 294.413 634.725 294.254 634.763 294.091C634.479 293.987 634.194 293.884 633.901 293.778C633.168 293.508 632.458 293.211 631.75 292.878C631.671 292.86 631.591 292.841 631.51 292.822ZM662.524 300.079C662.567 300.256 662.609 300.433 662.652 300.616C662.769 300.476 662.885 300.336 663.005 300.191C662.847 300.154 662.688 300.117 662.524 300.079ZM644.554 299.932C644.358 300.053 644.163 300.175 643.961 300.3C644.358 300.393 644.754 300.486 645.163 300.581C645.06 300.798 644.957 301.014 644.851 301.237C644.763 301.478 644.676 301.719 644.585 301.968C644.707 302.163 644.828 302.359 644.953 302.561C645.191 302.617 645.429 302.672 645.675 302.73C645.638 302.888 645.6 303.047 645.562 303.211C645.684 303.406 645.805 303.602 645.931 303.804C645.961 304.35 645.961 304.35 645.946 304.822C646.184 304.878 646.422 304.933 646.667 304.991C646.618 305.269 646.618 305.269 646.567 305.554C646.56 306.291 646.56 306.291 647.14 306.829C648.055 307.405 648.765 307.567 649.824 307.758C649.829 308.094 649.834 308.43 649.839 308.776C650.044 308.881 650.25 308.987 650.461 309.096C651.257 309.536 651.978 310.052 652.711 310.589C653.643 311.269 654.541 311.906 655.584 312.402C655.761 312.36 655.938 312.318 656.121 312.274C656.163 312.452 656.205 312.629 656.249 312.811C656.426 312.769 656.603 312.727 656.786 312.683C656.749 312.842 656.712 313.001 656.673 313.164C657.248 313.642 657.818 313.702 658.54 313.855C658.503 314.013 658.466 314.172 658.428 314.336C658.705 314.502 658.705 314.502 658.988 314.671C659.23 314.817 659.471 314.963 659.72 315.113C660.08 315.33 660.08 315.33 660.447 315.551C661.088 315.972 661.088 315.972 661.697 316.622C662.233 316.809 662.233 316.809 662.817 316.916C663.012 316.957 663.207 316.998 663.409 317.04C663.558 317.069 663.707 317.098 663.861 317.128C663.824 317.287 663.786 317.446 663.748 317.609C663.907 317.646 664.066 317.683 664.229 317.722C664.271 317.899 664.313 318.076 664.357 318.259C664.764 318.054 664.764 318.054 664.869 317.222C664.928 316.948 664.987 316.674 665.047 316.392C665.285 316.447 665.523 316.503 665.769 316.56C665.818 316.988 665.818 316.988 665.868 317.424C666.037 318.382 666.336 318.82 667.13 319.415C667.957 319.907 668.86 320.149 669.779 320.415C670.035 320.49 670.035 320.49 670.295 320.567C670.84 320.727 671.385 320.886 671.931 321.045C672.642 321.253 673.354 321.462 674.065 321.671C674.238 321.722 674.41 321.773 674.588 321.825C676.121 322.277 677.645 322.754 679.166 323.245C679.203 323.087 679.24 322.928 679.279 322.764C679.12 322.727 678.961 322.69 678.798 322.652C678.774 322.395 678.751 322.139 678.726 321.874C678.475 321.414 678.475 321.414 678.174 320.984C677.928 320.589 677.683 320.193 677.437 319.798C677.217 319.663 676.998 319.528 676.772 319.388C676.809 319.23 676.846 319.071 676.884 318.908C676.726 318.87 676.567 318.833 676.404 318.795C676.38 318.538 676.356 318.282 676.332 318.018C674.904 317.683 673.476 317.349 672.004 317.005C672.041 316.846 672.079 316.688 672.117 316.524C671.955 316.419 671.793 316.314 671.626 316.205C671.411 316.065 671.196 315.926 670.975 315.782C670.763 315.644 670.551 315.506 670.333 315.364C669.927 315.096 669.527 314.817 669.137 314.527C668.601 314.177 668.201 314.033 667.578 313.909C667.135 313.821 667.135 313.821 666.684 313.731C666.721 313.573 666.758 313.414 666.797 313.251C665.612 312.406 664.556 311.845 663.175 311.389C663.212 311.23 663.249 311.072 663.287 310.908C662.653 310.76 662.018 310.611 661.364 310.458C661.328 310.073 661.328 310.073 661.292 309.68C660.832 309.311 660.832 309.311 660.245 309.008C660.052 308.899 659.859 308.79 659.661 308.678C659.06 308.398 658.504 308.242 657.855 308.115C657.892 307.957 657.929 307.798 657.967 307.635C657.332 307.486 656.698 307.338 656.044 307.185C656.081 307.026 656.118 306.867 656.156 306.704C654.972 305.859 653.916 305.298 652.535 304.842C652.572 304.683 652.609 304.525 652.647 304.361C652.492 304.291 652.337 304.221 652.178 304.149C651.973 304.057 651.768 303.964 651.558 303.868C651.356 303.777 651.153 303.686 650.945 303.591C650.355 303.318 650.355 303.318 649.861 303.043C649.44 302.796 649.44 302.796 648.913 302.98C648.889 302.724 648.865 302.467 648.841 302.203C648.286 302.073 647.73 301.943 647.158 301.809C647.195 301.65 647.232 301.491 647.271 301.328C646.832 301.084 646.391 300.845 645.95 300.607C645.704 300.473 645.459 300.339 645.206 300.201C644.991 300.112 644.776 300.023 644.554 299.932ZM616.379 298.015C615.331 298.229 614.589 298.329 613.56 298.005C613.565 298.341 613.57 298.677 613.576 299.023C614.887 299.497 616.199 299.972 617.55 300.46C617.961 300.03 617.961 300.03 618.072 299.314C618.241 298.93 618.414 298.548 618.594 298.168C617.719 297.63 617.37 297.813 616.379 298.015ZM612.246 298.205C613.151 298.67 613.151 298.67 613.151 298.67L612.246 298.205ZM636.656 304.423C635.938 304.757 635.785 304.926 635.504 305.691C635.4 305.913 635.296 306.134 635.188 306.362C634.495 306.549 634.495 306.549 633.874 306.562C633.837 306.721 633.8 306.879 633.761 307.043C634.827 307.508 635.908 307.881 637.013 308.239C637.496 308.424 637.496 308.424 637.68 308.72C637.997 308.795 638.314 308.869 638.641 308.945C638.959 309.02 639.276 309.094 639.603 309.17C639.664 309.268 639.725 309.366 639.787 309.467C640.346 309.608 640.907 309.74 641.47 309.861C641.32 309.302 641.32 309.302 640.974 308.73C640.274 308.361 640.274 308.361 639.588 308.152C639.625 307.994 639.662 307.835 639.7 307.671C639.117 307.017 638.811 306.703 637.946 306.5C638.001 306.262 638.057 306.024 638.114 305.779C637.876 305.723 637.638 305.668 637.393 305.61C637.369 305.354 637.346 305.097 637.321 304.833C637.102 304.698 636.883 304.563 636.656 304.423Z" fill="#7C9688" fill-opacity="0.5"/>
</svg>
