<svg width="100" height="100" viewBox="0 0 100 100" fill="none" xmlns="http://www.w3.org/2000/svg">
<path d="M49.5 10L10 35.099V63.8937L49.5 89L89 63.901V35.099L49.5 10ZM49.5 57.3691L38.3392 49.6323L49.5 42.0203L60.6608 49.6323L49.5 57.3691ZM53.2619 35.5912V21.1902L78.5225 37.2444L67.2001 45.0915L53.2619 35.5912ZM45.7381 35.5912L31.7999 45.0915L20.4775 37.2444L45.7381 21.1902V35.5912ZM25.224 49.5808L17.5238 54.8269V44.2392L25.224 49.5808ZM31.7632 54.1142L45.7381 63.8055V77.8098L20.5142 61.7776L31.7632 54.1142ZM53.2619 63.8055L67.2368 54.1142L78.4858 61.7776L53.2619 77.8098V63.8055ZM73.776 49.5808L81.4762 44.2392V54.8269L73.776 49.5808Z" fill="#FAFAFA"/>
</svg>
