<svg width="100" height="100" viewBox="0 0 100 100" fill="none" xmlns="http://www.w3.org/2000/svg">
<path d="M23.0265 32.816C25.8439 28.4 29.6858 24.72 34.2641 22.16C40.8914 24.336 48.095 28.56 53.6338 34.864C44.3492 38.256 33.4637 38.288 23.0265 32.816ZM32.4072 76.72C23.7309 70.992 18 61.168 18 50C18 45.968 18.7364 42.096 20.1451 38.544C26.9004 42.064 33.8159 43.632 40.5073 43.632C46.5263 43.632 52.3212 42.384 57.6038 40.208C58.7884 42.128 59.8129 44.24 60.6453 46.48C57.6038 47.568 54.5943 49.008 51.7449 50.768C41.916 56.912 35.0005 66.192 32.4072 76.72ZM42.9085 18.8C45.1816 18.288 47.5828 18 50.016 18C57.3157 18 64.007 20.432 69.3857 24.528C66.6643 27.472 63.3667 30.064 59.6848 32.112C54.9465 26.224 48.9275 21.808 42.9085 18.8ZM62.8544 56.048C64.3272 70.96 57.7319 80.144 56.9315 81.232C56.8994 81.232 56.8994 81.264 56.8994 81.264C54.6903 81.744 52.3852 82 50.016 82C45.8539 82 41.916 81.2 38.2661 79.76C40.1551 70.224 46.2381 61.712 55.1066 56.208C57.4437 54.736 59.8769 53.552 62.3742 52.656C62.5663 53.744 62.7264 54.896 62.8544 56.048ZM82 51.088C81.6158 62.416 75.3727 72.272 66.1521 77.648C68.2651 72.528 70.1861 64.976 69.2256 55.408C69.0655 53.872 68.8414 52.368 68.5533 50.928C73.1636 50.032 77.7419 50.064 82 51.088ZM66.8564 44.752C65.8959 42.128 64.7434 39.664 63.3667 37.392C67.4327 35.056 71.0825 32.176 74.06 28.88C77.8699 33.2 80.5273 38.544 81.5518 44.464C76.8134 43.632 71.8189 43.728 66.8564 44.752Z" fill="#FAFAFA"/>
</svg>
