<svg width="100" height="100" viewBox="0 0 100 100" fill="none" xmlns="http://www.w3.org/2000/svg">
<path d="M50 15C30.6713 15 15 30.6893 15 50.0402C15 66.4595 26.2933 80.1981 41.5183 84C41.355 83.527 41.25 82.978 41.25 82.2976V76.3087C39.8296 76.3087 37.4496 76.3087 36.8517 76.3087C34.4571 76.3087 32.3279 75.2779 31.2954 73.3624C30.1492 71.2337 29.9508 67.9779 27.11 65.9864C26.2671 65.3236 26.9087 64.5673 27.88 64.6695C29.6738 65.1776 31.1613 66.4098 32.5613 68.2378C33.9554 70.0686 34.6117 70.4832 37.2162 70.4832C38.4792 70.4832 40.3692 70.4102 42.1483 70.1299C43.105 67.6975 44.7588 65.4579 46.78 64.4008C35.125 63.2007 29.5629 57.3957 29.5629 49.5146C29.5629 46.1215 31.0067 42.8394 33.4596 40.0742C32.6546 37.3294 31.6425 31.7317 33.7688 29.6001C39.0129 29.6001 42.1833 33.0048 42.9446 33.9246C45.5579 33.0282 48.4279 32.5201 51.4438 32.5201C54.4654 32.5201 57.3471 33.0282 59.9663 33.9305C60.7188 33.0165 63.8921 29.6001 69.1479 29.6001C71.2829 31.7346 70.2592 37.3556 69.4454 40.0946C71.8838 42.854 73.3188 46.1274 73.3188 49.5146C73.3188 57.3899 67.7654 63.192 56.1279 64.3979C59.3304 66.0711 61.6667 70.7723 61.6667 74.3143V82.2976C61.6667 82.6013 61.5996 82.8203 61.5646 83.0802C75.2029 78.2943 85 65.3294 85 50.0402C85 30.6893 69.3288 15 50 15Z" fill="#FAFAFA"/>
</svg>
