<svg width="100" height="100" viewBox="0 0 100 100" fill="none" xmlns="http://www.w3.org/2000/svg">
<path d="M23.4583 12C17.1671 12 12 17.1671 12 23.4583V75.5417C12 81.8329 17.1671 87 23.4583 87H75.5417C81.8329 87 87 81.8329 87 75.5417V23.4583C87 17.1671 81.8329 12 75.5417 12H23.4583ZM23.4583 18.25H75.5417C78.4546 18.25 80.75 20.5454 80.75 23.4583V75.5417C80.75 78.4546 78.4546 80.75 75.5417 80.75H23.4583C20.5454 80.75 18.25 78.4546 18.25 75.5417V23.4583C18.25 20.5454 20.5454 18.25 23.4583 18.25ZM31.7917 26.5833C30.4103 26.5833 29.0856 27.1321 28.1088 28.1088C27.1321 29.0856 26.5833 30.4103 26.5833 31.7917C26.5833 33.173 27.1321 34.4978 28.1088 35.4745C29.0856 36.4513 30.4103 37 31.7917 37C33.173 37 34.4978 36.4513 35.4745 35.4745C36.4513 34.4978 37 33.173 37 31.7917C37 30.4103 36.4513 29.0856 35.4745 28.1088C34.4978 27.1321 33.173 26.5833 31.7917 26.5833ZM28.6667 41.1667C27.5146 41.1667 26.5833 42.0979 26.5833 43.25V70.3333C26.5833 71.4854 27.5146 72.4167 28.6667 72.4167H34.9167C36.0687 72.4167 37 71.4854 37 70.3333V43.25C37 42.0979 36.0687 41.1667 34.9167 41.1667H28.6667ZM43.25 41.1667C42.0979 41.1667 41.1667 42.0979 41.1667 43.25V70.3333C41.1667 71.4854 42.0979 72.4167 43.25 72.4167H49.5C50.6521 72.4167 51.5833 71.4854 51.5833 70.3333V54.7083C51.5833 51.8354 53.9187 49.5 56.7917 49.5C59.6646 49.5 62 51.8354 62 54.7083V70.3333C62 71.4854 62.9312 72.4167 64.0833 72.4167H70.3333C71.4854 72.4167 72.4167 71.4854 72.4167 70.3333V53.6667C72.4167 46.7729 66.8104 41.1667 59.9167 41.1667C56.7125 41.1667 53.7979 42.3875 51.5833 44.3771V43.25C51.5833 42.0979 50.6521 41.1667 49.5 41.1667H43.25Z" fill="#FAFAFA"/>
</svg>
