<svg width="100" height="100" viewBox="0 0 100 100" fill="none" xmlns="http://www.w3.org/2000/svg">
<path d="M21.4583 12C15.1292 12 10 17.1292 10 23.4583V74.5C10 81.4042 15.5958 87 22.5 87H76.6667C83.5708 87 89.1667 81.4042 89.1667 74.5V23.4583C89.1667 17.1292 84.0375 12 77.7083 12H21.4583ZM21.4583 20.3333C23.1833 20.3333 24.5833 21.7333 24.5833 23.4583C24.5833 25.1833 23.1833 26.5833 21.4583 26.5833C19.7333 26.5833 18.3333 25.1833 18.3333 23.4583C18.3333 21.7333 19.7333 20.3333 21.4583 20.3333ZM31.875 20.3333C33.6 20.3333 35 21.7333 35 23.4583C35 25.1833 33.6 26.5833 31.875 26.5833C30.15 26.5833 28.75 25.1833 28.75 23.4583C28.75 21.7333 30.15 20.3333 31.875 20.3333ZM44.375 20.3333H77.7083C79.4333 20.3333 80.8333 21.7333 80.8333 23.4583C80.8333 25.1833 79.4333 26.6444 77.7083 26.6444H44.375C42.65 26.6444 41.25 25.1854 41.25 23.4583C41.25 21.7312 42.65 20.3333 44.375 20.3333ZM18.3333 34.9167H80.8333V74.5C80.8333 76.8021 78.9687 78.6667 76.6667 78.6667H22.5C20.1979 78.6667 18.3333 76.8021 18.3333 74.5V34.9167ZM37.0833 41.1667C35.1495 41.1667 33.2948 41.9349 31.9273 43.3023C30.5599 44.6698 29.7917 46.5245 29.7917 48.4583C29.7917 50.3922 30.5599 52.2469 31.9273 53.6143C33.2948 54.9818 35.1495 55.75 37.0833 55.75C39.0172 55.75 40.8719 54.9818 42.2393 53.6143C43.6068 52.2469 44.375 50.3922 44.375 48.4583C44.375 46.5245 43.6068 44.6698 42.2393 43.3023C40.8719 41.9349 39.0172 41.1667 37.0833 41.1667ZM56.875 41.1667C56.4609 41.1608 56.0498 41.2373 55.6655 41.3917C55.2812 41.5462 54.9315 41.7754 54.6366 42.0662C54.3416 42.3569 54.1075 42.7034 53.9476 43.0855C53.7878 43.4675 53.7055 43.8775 53.7055 44.2917C53.7055 44.7058 53.7878 45.1158 53.9476 45.4979C54.1075 45.8799 54.3416 46.2264 54.6366 46.5172C54.9315 46.8079 55.2812 47.0372 55.6655 47.1916C56.0498 47.346 56.4609 47.4225 56.875 47.4167H71.4583C71.8724 47.4225 72.2836 47.346 72.6678 47.1916C73.0521 47.0372 73.4019 46.8079 73.6968 46.5172C73.9917 46.2264 74.2259 45.8799 74.3857 45.4979C74.5455 45.1158 74.6278 44.7058 74.6278 44.2917C74.6278 43.8775 74.5455 43.4675 74.3857 43.0855C74.2259 42.7034 73.9917 42.3569 73.6968 42.0662C73.4019 41.7754 73.0521 41.5462 72.6678 41.3917C72.2836 41.2373 71.8724 41.1608 71.4583 41.1667H56.875ZM56.875 53.6667C56.4609 53.6608 56.0498 53.7373 55.6655 53.8917C55.2812 54.0462 54.9315 54.2754 54.6366 54.5662C54.3416 54.8569 54.1075 55.2034 53.9476 55.5855C53.7878 55.9675 53.7055 56.3775 53.7055 56.7917C53.7055 57.2058 53.7878 57.6158 53.9476 57.9979C54.1075 58.3799 54.3416 58.7264 54.6366 59.0172C54.9315 59.3079 55.2812 59.5372 55.6655 59.6916C56.0498 59.846 56.4609 59.9225 56.875 59.9167H71.4583C71.8724 59.9225 72.2836 59.846 72.6678 59.6916C73.0521 59.5372 73.4019 59.3079 73.6968 59.0172C73.9917 58.7264 74.2259 58.3799 74.3857 57.9979C74.5455 57.6158 74.6278 57.2058 74.6278 56.7917C74.6278 56.3775 74.5455 55.9675 74.3857 55.5855C74.2259 55.2034 73.9917 54.8569 73.6968 54.5662C73.4019 54.2754 73.0521 54.0462 72.6678 53.8917C72.2836 53.7373 71.8724 53.6608 71.4583 53.6667H56.875ZM27.7083 59.9167C25.9833 59.9167 24.5833 61.3167 24.5833 63.0417V65.125C24.5833 69.1521 30.1792 72.4167 37.0833 72.4167C43.9875 72.4167 49.5833 69.1521 49.5833 65.125V63.0417C49.5833 61.3167 48.1833 59.9167 46.4583 59.9167H27.7083ZM56.875 66.1667C56.4609 66.1608 56.0498 66.2373 55.6655 66.3917C55.2812 66.5461 54.9315 66.7754 54.6366 67.0662C54.3416 67.3569 54.1075 67.7034 53.9476 68.0855C53.7878 68.4675 53.7055 68.8775 53.7055 69.2917C53.7055 69.7058 53.7878 70.1158 53.9476 70.4979C54.1075 70.8799 54.3416 71.2264 54.6366 71.5172C54.9315 71.8079 55.2812 72.0372 55.6655 72.1916C56.0498 72.346 56.4609 72.4225 56.875 72.4167H71.4583C71.8724 72.4225 72.2836 72.346 72.6678 72.1916C73.0521 72.0372 73.4019 71.8079 73.6968 71.5172C73.9917 71.2264 74.2259 70.8799 74.3857 70.4979C74.5455 70.1158 74.6278 69.7058 74.6278 69.2917C74.6278 68.8775 74.5455 68.4675 74.3857 68.0855C74.2259 67.7034 73.9917 67.3569 73.6968 67.0662C73.4019 66.7754 73.0521 66.5461 72.6678 66.3917C72.2836 66.2373 71.8724 66.1608 71.4583 66.1667H56.875Z" fill="#FAFAFA"/>
</svg>
