<svg width="4682" height="2160" viewBox="0 0 4682 2160" fill="none" xmlns="http://www.w3.org/2000/svg">
<path d="M-86.4268 699.738L-205.596 736.669L-86.4269 2223L4935 2263L4715.92 308.945L4591.26 320.103L4515.71 358.163L4457.73 424.004L4414.76 428.748L4417.35 452.239L4363.29 487.927L4324.24 462.517L4295.59 465.679L4277.34 497.414L4188.15 477.539L4113.94 461.955L4042.31 469.861L3987.6 499.677L3944.63 504.421L3884.74 487.255L3854.14 472.8L3732.38 486.241L3677.71 450.667L3624.33 426.839L3606.76 399.057L3542.3 406.173L3470.67 414.079L3428.38 359.306L3358.73 319.441L3313.16 300.695L3310.57 277.204L3256.54 247.503L3158.86 282.063L3074.24 237.906L3032.56 254.395L2998.04 270.094L2950.5 299.119L2915.34 308.944L2873.66 325.433L2828.74 312.559L2759.09 272.694L2750.63 261.74L2730.44 275.857L2712.22 242.203L2696.6 232.039L2672.49 276.309L2652.3 290.427L2626.24 317.079L2604.11 313.579C2604.11 313.579 2580.55 297.158 2580.03 292.46C2579.51 287.762 2573.31 275.37 2570.27 269.761L2525.97 328.148L2497.32 331.311C2486.04 316.705 2463.35 286.318 2462.83 281.62C2462.32 276.922 2440.93 258.281 2430.29 249.547L2427.02 285.573L2408.78 317.308L2389.88 343.171L2375.56 344.752L2354.07 347.124L2349.5 371.405L2331.9 409.012L2292.17 443.119L2206.22 452.607L2140.43 513.366L2126.75 520.82L2055.13 528.727L2035.58 548.716L1985.45 554.251L1976.99 543.296L1917.09 526.131L1915.8 514.386L1858.5 520.711L1838.31 534.828L1782.95 558.771L1765.38 530.989L1702.22 549.85L1700.92 538.105L1636.46 545.221L1613.68 535.847L1508.83 571.197L1482.77 597.85L1310.87 616.826L1234.06 577.751L1195.66 558.214L1078.47 547.374L1044.63 503.556L954.11 537.324L932.623 539.696L844.08 525.693L661.065 641.002L433.162 678.048L304.237 692.279L219.584 713.512L218.287 701.767L182.475 705.72L166.853 695.556L133.634 723L-14.8019 691.832L-86.4268 699.738Z" fill="url(#paint0_linear_229_29742)" fill-opacity="0.5"/>
<defs>
<linearGradient id="paint0_linear_229_29742" x1="2405.53" y1="252.28" x2="2557.72" y2="1539.64" gradientUnits="userSpaceOnUse">
<stop stop-color="#DA8E52"/>
<stop offset="1" stop-color="#E09356"/>
</linearGradient>
</defs>
</svg>
