<svg width="4682" height="3010" viewBox="0 0 4682 3010" fill="none" xmlns="http://www.w3.org/2000/svg">
<path d="M-86.4268 1549.74L-205.596 1586.67L-86.4269 3073L4935 3113L4715.92 1158.94L4591.26 1170.1L4515.71 1208.16L4457.73 1274L4414.76 1278.75L4417.35 1302.24L4363.29 1337.93L4324.24 1312.52L4295.59 1315.68L4277.34 1347.41L4188.15 1327.54L4113.94 1311.96L4042.31 1319.86L3987.6 1349.68L3944.63 1354.42L3884.74 1337.26L3854.14 1322.8L3732.38 1336.24L3677.71 1300.67L3624.33 1276.84L3606.76 1249.06L3542.3 1256.17L3470.67 1264.08L3428.38 1209.31L3358.73 1169.44L3313.16 1150.69L3310.57 1127.2L3256.54 1097.5L3158.86 1132.06L3074.24 1087.91L3032.56 1104.4L2998.04 1120.09L2950.5 1149.12L2915.34 1158.94L2873.66 1175.43L2828.74 1162.56L2759.09 1122.69L2750.63 1111.74L2730.44 1125.86L2712.22 1092.2L2696.6 1082.04L2672.49 1126.31L2652.3 1140.43L2626.24 1167.08L2604.11 1163.58C2604.11 1163.58 2580.55 1147.16 2580.03 1142.46C2579.51 1137.76 2573.31 1125.37 2570.27 1119.76L2525.97 1178.15L2497.32 1181.31C2486.04 1166.7 2463.35 1136.32 2462.83 1131.62C2462.32 1126.92 2440.93 1108.28 2430.29 1099.55L2427.02 1135.57L2408.78 1167.31L2389.88 1193.17L2375.56 1194.75L2354.07 1197.12L2349.5 1221.4L2331.9 1259.01L2292.17 1293.12L2206.22 1302.61L2140.43 1363.37L2126.75 1370.82L2055.13 1378.73L2035.58 1398.72L1985.45 1404.25L1976.99 1393.3L1917.09 1376.13L1915.8 1364.39L1858.5 1370.71L1838.31 1384.83L1782.95 1408.77L1765.38 1380.99L1702.22 1399.85L1700.92 1388.1L1636.46 1395.22L1613.68 1385.85L1508.83 1421.2L1482.77 1447.85L1310.87 1466.83L1234.06 1427.75L1195.66 1408.21L1078.47 1397.37L1044.63 1353.56L954.11 1387.32L932.623 1389.7L844.08 1375.69L661.065 1491L433.162 1528.05L304.237 1542.28L219.584 1563.51L218.287 1551.77L182.475 1555.72L166.853 1545.56L133.634 1573L-14.8019 1541.83L-86.4268 1549.74Z" fill="url(#paint0_linear_229_29742)" fill-opacity="0.5"/>
<ellipse cx="946.395" cy="787.391" rx="271.495" ry="271.21" fill="url(#paint1_linear_229_29742)"/>
<circle cx="208.45" cy="295.45" r="295.45" fill="url(#paint2_linear_229_29742)"/>
<defs>
<linearGradient id="paint0_linear_229_29742" x1="2405.53" y1="1102.28" x2="2557.72" y2="2389.64" gradientUnits="userSpaceOnUse">
<stop stop-color="#DA8E52"/>
<stop offset="1" stop-color="#E09356"/>
</linearGradient>
<linearGradient id="paint1_linear_229_29742" x1="946.395" y1="516.182" x2="946.395" y2="1058.6" gradientUnits="userSpaceOnUse">
<stop stop-color="#C76A28"/>
<stop offset="1" stop-color="#DB7468" stop-opacity="0.12"/>
</linearGradient>
<linearGradient id="paint2_linear_229_29742" x1="208.45" y1="0" x2="208.45" y2="590.9" gradientUnits="userSpaceOnUse">
<stop stop-color="#FAE18F"/>
<stop offset="1" stop-color="#DECB88" stop-opacity="0.22"/>
</linearGradient>
</defs>
</svg>
