<svg width="4682" height="959" viewBox="0 0 4682 959" fill="none" xmlns="http://www.w3.org/2000/svg">
<rect width="4695" height="428" transform="matrix(1 0 0 -1 -13 959)" fill="#894F22"/>
<path d="M829.696 496.174C637.448 515.328 169.795 504.155 -40 496.174V568H4709V450C4358.07 475.082 3461.67 515.328 2683.52 475.652C1710.84 426.058 1070.01 472.232 829.696 496.174Z" fill="#894F22"/>
<rect x="3427.99" y="447.155" width="65.9738" height="65.9738" fill="#894F22"/>
<rect x="3427.99" y="381.182" width="65.9738" height="51.3129" fill="#894F22"/>
<rect x="3442.65" y="271.226" width="36.6521" height="197.921" fill="#894F22"/>
<rect x="3435.32" y="249.234" width="51.3129" height="21.9913" fill="#894F22"/>
<rect x="3449.98" y="139.278" width="21.9913" height="117.287" fill="#894F22"/>
<rect x="3457.31" width="7.33042" height="153.939" fill="#894F22"/>
<rect x="3406" y="256.564" width="7.33042" height="227.243" fill="#894F22"/>
<rect x="3508.63" y="256.564" width="7.33042" height="227.243" fill="#894F22"/>
<rect x="3406" y="315.208" width="109.956" height="7.33042" fill="#894F22"/>
<rect x="3406" y="483.808" width="109.956" height="7.33042" fill="#894F22"/>
<rect x="3442.65" y="183.261" width="36.6521" height="36.6519" fill="#894F22"/>
<path d="M3467.09 12.2172L3499.16 1.63666L3499.16 22.7978L3467.09 12.2172Z" fill="#894F22"/>
<path d="M3454.87 12.2172L3422.8 1.63666L3422.8 22.7978L3454.87 12.2172Z" fill="#894F22"/>
</svg>
