<svg width="4682" height="1220" viewBox="0 0 4682 1220" fill="none" xmlns="http://www.w3.org/2000/svg">
<rect x="-13" y="934" width="4749" height="593" fill="#451603"/>
<path d="M3866.3 888.174C4058.55 907.328 4526.2 896.155 4736 888.174V960H-13V842C337.93 867.082 1234.33 907.328 2012.48 867.652C2985.16 818.058 3625.99 864.232 3866.3 888.174Z" fill="#451603"/>
<path d="M748.696 555.398C919.56 -50.9604 1584.78 245.424 1558.74 539.77L1451.95 912.234C1260.25 987.248 995.267 957.381 886.741 933.071H748.696V555.398Z" fill="url(#paint0_linear_229_29736)"/>
<path d="M860.694 943.479L480.419 930.456L470 748.131L550.744 737.713C608.045 459.002 795.579 623.1 795.579 737.713L860.694 758.55V943.479Z" fill="url(#paint1_linear_229_29736)"/>
<path d="M1701.99 563.195L1693.79 562.363C1592.47 555.538 1570.51 685.664 1556.13 753.329H1477.99V963.001C1442.57 963.001 1364.26 953.885 1329.53 953.885V753.329L1386.83 737.706C1382.66 581.428 1475.39 544.095 1522.27 544.963L1693.79 562.363C1696.47 562.544 1699.2 562.82 1701.99 563.195Z" fill="url(#paint2_linear_229_29736)"/>
<path d="M821.626 581.422H670.558C753.906 604.343 783.425 692.553 792.975 737.7L858.091 758.537V940.861L990.927 925.233C1082.61 971.075 1279.17 954.752 1365.99 940.861V737.7C1215.97 779.374 1053.44 746.382 990.927 724.677L954.462 701.235C948.211 634.556 864.168 601.391 821.626 581.422Z" fill="url(#paint3_linear_229_29736)"/>
<path d="M1527.48 755.896C1574.36 459 1838.73 542.355 1820.5 755.896V952.584L1588.69 963.003H1471.48L1479.29 746.819L1527.48 755.896Z" fill="url(#paint4_linear_229_29736)"/>
<path d="M1541.17 943.466H1778.24C1796.44 664.188 1761.57 613.991 1660.44 604.864C1592.81 614.421 1521.69 649.585 1541.17 943.466Z" fill="#391100" fill-opacity="0.7"/>
<rect x="3875.87" y="782.316" width="113.622" height="113.622" fill="#451603"/>
<rect x="3875.87" y="668.702" width="113.622" height="88.3726" fill="#451603"/>
<rect x="3901.12" y="479.333" width="63.123" height="340.865" fill="#451603"/>
<rect x="3888.5" y="441.459" width="88.3723" height="37.8738" fill="#451603"/>
<rect x="3913.75" y="252.082" width="37.8738" height="201.994" fill="#451603"/>
<rect x="3926.37" y="12.2178" width="12.6246" height="265.117" fill="#451603"/>
<rect x="3838" y="454.073" width="12.6246" height="391.363" fill="#451603"/>
<rect x="4014.74" y="454.073" width="12.6246" height="391.363" fill="#451603"/>
<rect x="3838" y="555.081" width="189.369" height="12.625" fill="#451603"/>
<rect x="3838" y="845.441" width="189.369" height="12.6246" fill="#451603"/>
<rect x="3901.12" y="327.838" width="63.1231" height="63.1231" fill="#451603"/>
<path d="M3941.85 24.4344L3996.83 3.27331L3996.83 45.5955L3941.85 24.4344Z" fill="#451603"/>
<path d="M3923.52 24.4344L3868.54 3.27331L3868.54 45.5955L3923.52 24.4344Z" fill="#451603"/>
<path d="M3199.93 543C3329 586.005 3253.71 618.259 3199.93 629.01H3178.42L3135.4 704.269C3161.21 704.269 3160.49 725.772 3156.91 736.523C3139.7 788.129 3099.54 808.198 3081.62 811.782H2425.53C2361 811.782 2361 779.528 2361 736.523C2361 702.119 2404.02 686.35 2425.53 682.767H2672.91H2887.32H2931.04L2931.04 650.513C2939.65 641.912 2941.8 646.929 2941.8 650.513L2941.8 682.767L3057.66 685.21L3081.62 629.01C3055.81 629.01 3049.35 614.675 3049.35 607.508V575.254C3049.35 549.451 3063.69 543 3070.86 543H3199.93Z" fill="#451603"/>
<path fill-rule="evenodd" clip-rule="evenodd" d="M2829.44 682.278L2888.3 682.278C2888.3 682.278 2888.3 682.278 2888.3 682.278L2829.44 682.278ZM2764.17 682.278C2764.17 650.413 2772.15 628.928 2784.16 616.669C2740.42 617.212 2695.16 638.518 2673.28 682.278L2764.17 682.278Z" fill="#C69A67"/>
<defs>
<linearGradient id="paint0_linear_229_29736" x1="1154.09" y1="202" x2="1154.09" y2="959.975" gradientUnits="userSpaceOnUse">
<stop stop-color="#501D09"/>
<stop offset="1" stop-color="#451603"/>
</linearGradient>
<linearGradient id="paint1_linear_229_29736" x1="665.347" y1="584.27" x2="665.347" y2="943.479" gradientUnits="userSpaceOnUse">
<stop stop-color="#501D09"/>
<stop offset="1" stop-color="#451603"/>
</linearGradient>
<linearGradient id="paint2_linear_229_29736" x1="1515.76" y1="544.948" x2="1515.76" y2="953.885" gradientUnits="userSpaceOnUse">
<stop stop-color="#4D1B08"/>
<stop offset="1" stop-color="#451603"/>
</linearGradient>
<linearGradient id="paint3_linear_229_29736" x1="1018.28" y1="581.422" x2="1018.28" y2="955.448" gradientUnits="userSpaceOnUse">
<stop stop-color="#501D09"/>
<stop offset="1" stop-color="#451603"/>
</linearGradient>
<linearGradient id="paint4_linear_229_29736" x1="1683.76" y1="563.223" x2="1683.76" y2="985.103" gradientUnits="userSpaceOnUse">
<stop stop-color="#4D1C08"/>
<stop offset="1" stop-color="#451603"/>
</linearGradient>
</defs>
</svg>
