<svg width="4682" height="1043" viewBox="0 0 4682 1043" fill="none" xmlns="http://www.w3.org/2000/svg">
<path d="M829.696 402.478C637.448 457.017 169.795 425.203 -40 402.478V607H4709V271C4358.07 342.42 3461.67 457.017 2683.52 344.043C1710.84 202.826 1070.01 334.304 829.696 402.478Z" fill="url(#paint0_linear_229_29739)"/>
<rect y="606" width="4682" height="608" fill="#CC8A55"/>
<rect x="1730.99" y="264.119" width="38.9682" height="38.9682" fill="#B56E34"/>
<rect x="1730.99" y="225.149" width="38.9682" height="30.3086" fill="#B56E34"/>
<rect x="1739.65" y="160.202" width="21.649" height="116.905" fill="#B56E34"/>
<rect x="1735.32" y="147.213" width="30.3086" height="12.9894" fill="#B56E34"/>
<rect x="1743.98" y="82.2656" width="12.9894" height="69.2769" fill="#B56E34"/>
<rect x="1748.31" width="4.3298" height="90.9259" fill="#B56E34"/>
<rect x="1718" y="151.543" width="4.3298" height="134.224" fill="#B56E34"/>
<rect x="1778.62" y="151.543" width="4.3298" height="134.224" fill="#B56E34"/>
<rect x="1718" y="186.184" width="64.947" height="4.33008" fill="#B56E34"/>
<rect x="1718" y="285.768" width="64.9471" height="4.3298" fill="#B56E34"/>
<rect x="1739.65" y="108.243" width="21.649" height="21.649" fill="#B56E34"/>
<path d="M1751.91 7.21921L1770.86 0.969674L1770.86 13.4687L1751.91 7.21921Z" fill="#B56E34"/>
<path d="M1748.31 7.21921L1729.37 0.969674L1729.37 13.4687L1748.31 7.21921Z" fill="#B56E34"/>
<rect x="3171.66" y="354.104" width="43.9824" height="43.9829" fill="#B56E34"/>
<rect x="3171.66" y="310.121" width="43.9824" height="34.209" fill="#B56E34"/>
<rect x="3181.43" y="236.817" width="24.4347" height="131.948" fill="#B56E34"/>
<rect x="3176.55" y="222.156" width="34.2086" height="14.6608" fill="#B56E34"/>
<rect x="3186.32" y="148.852" width="14.6608" height="78.1911" fill="#B56E34"/>
<rect x="3191.21" y="56" width="4.88695" height="102.626" fill="#B56E34"/>
<rect x="3157" y="227.043" width="4.88696" height="151.496" fill="#B56E34"/>
<rect x="3225.42" y="227.043" width="4.88696" height="151.496" fill="#B56E34"/>
<rect x="3157" y="266.139" width="73.3042" height="4.88695" fill="#B56E34"/>
<rect x="3157" y="378.538" width="73.3042" height="4.88695" fill="#B56E34"/>
<rect x="3181.43" y="178.174" width="24.4347" height="24.4347" fill="#B56E34"/>
<path d="M3195.28 64.15L3216.66 57.0963L3216.66 71.2037L3195.28 64.15Z" fill="#B56E34"/>
<path d="M3191.21 64.15L3169.83 57.0963L3169.83 71.2037L3191.21 64.15Z" fill="#B56E34"/>
<defs>
<linearGradient id="paint0_linear_229_29739" x1="2517.75" y1="191.582" x2="2517.75" y2="753.618" gradientUnits="userSpaceOnUse">
<stop stop-color="#A85E22"/>
<stop offset="1" stop-color="#DA9B68"/>
</linearGradient>
</defs>
</svg>
