<svg width="4682" height="1775" viewBox="0 0 4682 1775" fill="none" xmlns="http://www.w3.org/2000/svg">
<path d="M4118.32 431.055L4111 612H4717.15C4720.81 468.814 4725.93 180.381 4717.15 172.143C4708.37 163.905 4682.6 157.922 4670.81 155.961V147.134H4686.66V141.25C4661.29 108.297 4581.77 94.1749 4545.19 91.2327C4547.22 77.9928 4543.72 51.2189 4513.47 50.042C4483.23 48.8651 4481.36 77.0121 4484.2 91.2327C4392.49 100.648 4358.18 134.385 4352.48 150.076H4364.68V158.903L4345.17 163.316V120.655C4355.74 119.674 4377.37 115.064 4379.32 104.472C4381.27 93.8806 4370.37 91.2327 4364.68 91.2327C4356.96 89.2712 4341.75 84.1714 4342.73 79.4639C4343.7 74.7564 4333.38 67.6952 4328.09 64.753V60.3397H4345.17C4342.32 40.7252 4326.63 1.20174 4286.63 0.024863C4246.62 -1.15201 4237.43 39.7444 4237.84 60.3397H4258.57V64.753L4241.5 75.0507C4235.81 80.9351 4222.72 92.4096 4215.89 91.2327C4207.35 89.7616 4195.15 114.77 4215.89 114.77C4232.47 114.77 4237.43 126.539 4237.84 132.423L4228.08 275.12C4211.5 281.004 4206.54 291.302 4206.13 295.715H4228.08V304.541C4143.2 289.242 4114.66 365.837 4111 406.047L4141.49 414.873V423.7L4118.32 431.055Z" fill="#E4975A"/>
<path d="M122.119 750.474L114.377 721L196.249 734.022L197.465 737.341L259.4 744.995L261.793 743.178L289.162 747.616L292.012 750.873L310.603 753.963L294.008 807.098L285.601 813.716L285.151 817.357L281.68 816.929L279.587 818.518C285.379 819.023 284.07 823.913 282.691 826.295L276.42 833.177L236.909 828.295L233.483 823.119C229.898 815.282 233.644 812.313 235.965 811.807L203.396 807.782C201.662 807.92 199.756 808.283 206.001 808.632C212.246 808.982 210.075 814.417 208.208 817.091L200.538 824.328L163.601 820.556C162.494 819.275 159.85 815.815 158.126 812.222C156.401 808.629 157.452 805.977 158.192 805.101L122.119 750.474Z" fill="url(#paint0_linear_229_29741)"/>
<path d="M-132 789.581C200.208 839.338 917.079 908.997 1126.89 789.581C1389.16 640.311 2162.86 491.042 2569.38 640.311C2894.59 759.727 3404.27 655.238 3618.46 588.066C3775.82 525.871 4232.17 449.246 4798.67 640.311C5275.56 801.152 5420.38 747.613 5441.23 679.159V640.311C5444.69 652.905 5445.15 666.295 5441.23 679.159V1215H-132V789.581Z" fill="url(#paint1_linear_229_29741)"/>
<rect y="1214" width="4935" height="776" fill="#E5A36E"/>
<defs>
<linearGradient id="paint0_linear_229_29741" x1="213.02" y1="733.19" x2="201.643" y2="825.257" gradientUnits="userSpaceOnUse">
<stop stop-color="#E4975B" stop-opacity="0.5"/>
<stop offset="1" stop-color="#E4985B"/>
</linearGradient>
<linearGradient id="paint1_linear_229_29741" x1="3072.6" y1="1766" x2="3072.6" y2="519" gradientUnits="userSpaceOnUse">
<stop stop-color="#E5AE82"/>
<stop offset="1" stop-color="#E39557"/>
</linearGradient>
</defs>
</svg>
