<svg width="4682" height="2227" viewBox="0 0 4682 2227" fill="none" xmlns="http://www.w3.org/2000/svg">
<circle cx="2357.5" cy="495.503" r="495.503" fill="url(#paint0_linear_255_30891)" fill-opacity="0.3"/>
<path d="M292.227 380.49H352.762L409.736 397.507L466.71 431.54L488.076 452.81L502.319 444.302L537.928 427.286H591.341L626.95 444.302L648.316 461.319H694.607L737.338 474.081L776.508 508.114L797.873 546.401L801.434 567.672L819.239 571.926L847.726 584.689L854.847 563.418L886.896 529.385L915.383 516.622L954.553 512.368L979.479 486.844L1007.97 474.081L1043.57 478.335L1064.94 495.352L1082.74 516.622H1114.79L1153.96 533.639L1182.45 563.418L1196.69 593.197L1207.38 631.484L1235.86 614.468L1275.03 610.213L1310.64 622.976L1339.13 652.755L1349.81 678.28L1367.62 627.23L1381.86 601.705L1410.35 567.672L1449.52 546.401L1460.2 542.147H1520.73L1559.9 559.164L1595.51 593.197L1602.63 605.959L1645.37 622.976L1680.97 648.501L1702.34 669.771L1723.71 665.517H1770L1787.8 631.484L1816.29 601.705L1848.34 588.943H1876.82L1915.99 605.959L1937.36 627.23L1955.16 661.263L1965.85 691.042L1994.33 720.821L2012.14 750.6L2015.7 763.362L2051.31 771.871L2079.79 793.141L2101.16 827.174L2111.84 873.97L2136.77 899.495L2147.45 929.273V971.815L2133.21 1010.1L2122.53 1027.12L-444.878 1031.37L-452 1022.86L-448.439 976.069L-427.074 933.528L-395.026 908.003L-373.66 899.495H-348.734L-338.051 903.749V869.716L-320.247 805.904L-295.321 759.108L-263.273 716.567L-220.542 678.28L-206.298 674.025L-202.738 665.517L-142.202 639.992L-103.033 631.484H-3.32755L35.8423 614.468L71.4512 605.959L96.3774 537.893L117.743 499.606L149.791 457.065L188.961 423.032L231.691 397.507L292.227 380.49Z" fill="url(#paint1_linear_255_30891)"/>
<path d="M3167.97 287.508H3238.44L3304.76 310.9L3371.08 357.685L3395.96 386.926L3412.54 375.229L3453.99 351.837H3516.17L3557.62 375.229L3582.49 398.622H3636.38L3686.12 416.166L3731.72 462.951L3756.59 515.584L3760.74 544.824L3781.46 550.672L3814.63 568.217L3822.92 538.976L3860.22 492.191L3893.39 474.647L3938.98 468.799L3968 433.71L4001.16 416.166L4042.61 422.014L4067.49 445.407L4088.21 474.647H4125.52L4171.12 498.039L4204.28 538.976L4220.86 579.913L4233.3 632.546L4266.46 609.153L4312.06 603.305L4353.51 620.85L4386.67 661.786L4399.11 696.875L4419.83 626.698L4436.41 591.609L4469.58 544.824L4515.17 515.584L4527.61 509.736H4598.08L4643.68 533.128L4685.13 579.913L4693.42 597.457L4743.16 620.85L4784.61 655.938L4809.49 685.179L4834.36 679.331H4888.25L4908.97 632.546L4942.13 591.609L4979.44 574.065H5012.6L5058.2 597.457L5083.07 626.698L5103.8 673.482L5116.23 714.419L5149.4 755.356L5170.12 796.293L5174.27 813.837L5215.72 825.533L5248.88 854.774L5273.75 901.558L5286.19 965.887L5315.21 1000.98L5327.64 1041.91V1100.39L5311.06 1153.03L5298.62 1176.42L2309.9 1182.27L2301.61 1170.57L2305.75 1106.24L2330.63 1047.76L2367.93 1012.67L2392.8 1000.98H2421.82L2434.26 1006.82V960.039L2454.98 872.318L2484 807.989L2521.31 749.508L2571.05 696.875L2587.63 691.027L2591.78 679.331L2662.25 644.242L2707.84 632.546H2823.91L2869.51 609.153L2910.96 597.457L2939.98 503.888L2964.85 451.255L3002.16 392.774L3047.75 345.989L3097.5 310.9L3167.97 287.508Z" fill="url(#paint2_linear_255_30891)"/>
<defs>
<linearGradient id="paint0_linear_255_30891" x1="2357.5" y1="0" x2="2357.5" y2="991.005" gradientUnits="userSpaceOnUse">
<stop stop-color="#F0A757"/>
<stop offset="1" stop-color="#832629" stop-opacity="0"/>
</linearGradient>
<linearGradient id="paint1_linear_255_30891" x1="847.726" y1="380.49" x2="847.726" y2="1031.37" gradientUnits="userSpaceOnUse">
<stop stop-color="#CA625C"/>
<stop offset="1" stop-color="#963124"/>
</linearGradient>
<linearGradient id="paint2_linear_255_30891" x1="3814.63" y1="287.508" x2="3814.63" y2="1182.27" gradientUnits="userSpaceOnUse">
<stop stop-color="#CA625C"/>
<stop offset="1" stop-color="#963124"/>
</linearGradient>
</defs>
</svg>
