<svg width="4682" height="821" viewBox="0 0 4682 821" fill="none" xmlns="http://www.w3.org/2000/svg">
<rect x="236" y="297" width="4053" height="565" fill="url(#paint0_linear_255_30883)"/>
<path d="M2194.76 511.004C2148.71 470.312 2335.47 465.927 2153.97 438.109C2117.67 432.545 2002.59 445.728 1976.16 438.109C1927.39 424.046 2256.17 386.926 1940.28 386.926L688.266 350.479L704.402 602.512H3225.73C3225.73 602.512 3195.51 562.978 2948.66 544.004C2692.4 524.306 2256.87 565.891 2194.76 511.004Z" fill="#B13C2A"/>
<path d="M2528.01 427.993C2523.56 427.993 2492.79 460.042 2508.15 469.23C2548.23 493.215 2643.96 487.244 2658.32 469.23C2672.68 451.215 2630.51 412.607 2630.51 408.167C2630.51 403.727 2602.44 379.883 2588.4 368.516L2572.51 382.789C2574.63 378.824 2577.59 370.419 2572.51 368.516C2567.42 366.612 2543.37 394.157 2531.98 408.167C2532.51 414.775 2532.46 427.993 2528.01 427.993Z" fill="url(#paint1_linear_255_30883)"/>
<path d="M1143.81 429.1L1100.54 437.946C1091.68 438.34 1071.75 439.808 1062.88 442.532C1054.02 445.257 1031.56 444.894 1021.44 444.372C1014.92 445.881 977.921 439.526 993.778 449.974C986.825 451.984 968.776 456.187 952.199 456.923C935.621 457.659 941.162 463.487 946.005 466.31C932.978 471.845 944.061 476.237 951.231 477.741C967.207 478.037 1016.35 479.874 974.95 488.715C976.947 489.355 975.626 490.872 954.363 491.816C933.1 492.76 941.149 494.832 947.831 495.751C951.015 496.095 959.864 497.476 969.792 500.243C979.721 503.009 955.655 507.795 942.381 509.843C942.381 509.843 976.059 517.019 977.559 530.778C979.313 546.872 945.462 544.801 928.182 553.011C919.121 557.316 944.408 567.731 935.351 572.041C919.388 579.637 822.797 623.728 840.454 628.083C911.688 645.651 628.999 833.999 628.999 833.999L-23.0002 833.996L-23 106.003L572.999 105.999L684.285 223.166L685.321 225.306L693.069 226.42L713.971 221.118L724.152 225.04L736.315 224.5L740.64 221.392C739.941 222.274 740.333 223.738 747.487 222.546C758.333 220.738 768.885 226.24 780.62 225.084C789.1 234.281 816.674 225.489 828.731 228.779C836.083 230.786 845.79 227.05 849.724 224.932C867.807 216.234 877.611 213.034 898.127 211.484C906.926 210.819 927.692 211.431 931.733 214.365L937.342 217.397C945.037 220.361 949.115 210.725 957.523 215.043L984.777 217.477C994.568 219.958 1016.38 225.987 1025.32 230.256C1034.26 234.524 1047.94 230.71 1053.66 228.269C1060.02 223.977 1074.35 215.25 1080.82 214.671C1087.29 214.092 1108.62 216.231 1118.48 217.372C1135.27 219.074 1151.35 214.251 1165.76 222.198L1214.86 234.597L1232.84 233.07C1237.23 228.209 1278.77 223.498 1298.99 221.749C1320.62 224.255 1347.87 227.902 1367.53 219.8C1371.59 218.764 1396.69 211.318 1398.03 216.259C1398.83 215.54 1412.36 221.145 1412.85 222.161C1415.08 226.768 1441.73 224.586 1447.85 225.71C1547.32 190.536 1716.63 239.483 1790.03 207.6C1792.39 206.767 1799.7 204.62 1810.06 202.702C1820.42 200.784 1828.96 203.928 1831.93 205.74L1880.4 207.962C1898.31 214.923 1913.44 199.437 1933.15 199.059C1968.87 198.375 2054.79 218.412 2085.44 199.951C2089.76 189.554 2109.29 191.238 2114.24 191.018C2119.2 190.798 2138.01 180.852 2139.76 180.045C2141.52 179.238 2188.78 183.7 2184.68 183.153C2180.58 182.606 2180.46 166.21 2180.08 160.031C2179.7 153.852 2191.95 154.766 2194.86 150.628C2197.18 147.318 2205.49 149.792 2209.36 151.442C2215.25 147.39 2234.07 158.971 2242.74 165.268C2248.31 160.283 2272.27 160.677 2281.24 159.55C2290.2 158.423 2317.5 176.163 2316.98 167.804C2316.57 161.116 2354.65 163.337 2373.74 165.283L2386.16 365.555C2374.9 370.429 2339.2 365.818 2322.76 362.903C2288.46 361.024 2218.02 358.005 2210.61 360.958C2201.35 364.649 2075.65 355.287 2075.08 353.49C2074.52 351.692 1987.42 345.719 1977.74 349.794C1968.05 353.869 1884.62 348.826 1884.85 345.171C1885.03 342.247 1858.64 342.69 1845.43 343.276C1821.43 344.828 1772.55 346.731 1769 341.932C1765.45 337.133 1732.85 339.285 1717 340.961C1707.84 341.367 1688.65 341.272 1685.17 337.635C1681.69 333.999 1661.5 337.107 1651.83 339.115C1637.82 339.738 1627.63 336.157 1612.03 338.331C1592.42 340.052 1552.76 342.567 1551.08 338.851C1549.41 335.135 1523.18 340.09 1512.03 342.771C1501.75 345.242 1481.23 343.896 1471.64 347.116C1445.47 340.259 1411.17 355.269 1391.5 358.693C1371.84 362.118 1320.17 359.309 1319.43 361.893C1318.68 364.478 1270.73 370.617 1262.44 368.069C1258.23 366.776 1240.15 374.207 1246.76 377.513C1255.34 381.797 1229.57 384.35 1215.61 385.092C1211.87 385.501 1206.1 387.555 1212.91 392.501C1220.18 397.777 1150 404.691 1174.13 408.073C1188.34 410.066 1171.72 415.348 1161.63 417.74C1152.76 418.012 1137.16 419.409 1145.68 422.821C1154.2 426.233 1147.98 428.429 1143.81 429.1Z" fill="#241C1C"/>
<path d="M3580.37 445.598L3624.48 455.156C3633.54 455.695 3653.91 457.491 3662.93 460.361C3671.95 463.231 3694.94 463.239 3705.31 462.883C3711.95 464.499 3749.94 458.753 3733.5 468.94C3740.58 471.064 3758.97 475.564 3775.92 476.573C3792.87 477.582 3787.09 483.319 3782.08 486.061C3795.3 491.81 3783.87 496.019 3776.5 497.405C3760.15 497.438 3709.82 498.466 3752.01 507.988C3749.96 508.595 3751.28 510.134 3773.02 511.428C3794.76 512.722 3786.49 514.662 3779.63 515.47C3776.37 515.762 3767.28 516.997 3757.07 519.6C3746.85 522.203 3771.39 527.385 3784.93 529.65C3784.93 529.65 3750.33 536.271 3748.52 550.005C3746.41 566.069 3781.09 564.556 3798.62 573.049C3807.81 577.503 3781.72 587.501 3790.91 591.96C3807.1 599.818 3905.09 645.497 3886.93 649.56C3813.68 665.955 4054.68 833.997 4054.68 833.997L4713 833.997L4713 191.559L4149 182.532L4054.68 247.243L4053.58 249.366L4045.63 250.353L4024.34 244.707L4013.84 248.461L4001.41 247.721L3997.04 244.542C3997.74 245.435 3997.31 246.893 3990.01 245.583C3978.95 243.597 3968.04 248.924 3956.05 247.575C3947.2 256.631 3919.15 247.387 3906.74 250.478C3899.18 252.363 3889.32 248.468 3885.34 246.285C3867 237.29 3857.03 233.93 3836.06 232.042C3827.07 231.232 3805.81 231.502 3801.61 234.37L3795.81 237.308C3787.88 240.145 3783.9 230.443 3775.21 234.622L3747.27 236.608C3737.2 238.928 3714.75 244.597 3705.52 248.718C3696.29 252.839 3682.37 248.8 3676.56 246.265C3670.14 241.869 3655.64 232.906 3649.03 232.22C3642.42 231.535 3620.55 233.322 3610.44 234.302C3593.23 235.727 3576.86 230.64 3561.96 238.349L3511.46 249.938L3493.1 248.115C3488.69 243.183 3446.28 237.788 3425.62 235.707C3403.43 237.856 3375.47 241.054 3355.51 232.629C3351.38 231.527 3325.84 223.667 3324.37 228.586C3323.56 227.854 3309.61 233.236 3309.09 234.244C3306.71 238.814 3279.48 236.193 3273.2 237.216C3172.08 200.407 2997.86 246.563 2923.36 213.475C2920.96 212.602 2913.53 210.336 2902.96 208.247C2892.39 206.159 2883.6 209.162 2880.52 210.925L2830.87 212.348C2812.4 219.014 2797.22 203.28 2777.06 202.578C2740.51 201.306 2652.19 219.927 2621.19 200.963C2616.97 190.495 2596.95 191.858 2591.88 191.556C2586.82 191.255 2567.76 180.999 2565.98 180.163C2564.2 179.328 2515.75 183.012 2519.96 182.532C2524.16 182.053 2524.6 165.66 2525.11 159.487C2525.63 153.315 2513.07 154.028 2510.18 149.842C2507.86 146.494 2499.3 148.83 2495.32 150.417C2489.36 146.269 2469.88 157.539 2460.88 163.692C2455.29 158.616 2430.75 158.616 2421.6 157.341C2412.45 156.067 2384.16 173.356 2384.86 165.006C2385.41 158.325 2346.39 159.919 2326.82 161.551L2310.18 361.604C2321.61 366.663 2358.24 362.64 2375.12 359.996C2410.26 358.682 2482.41 356.822 2489.93 359.897C2499.33 363.741 2628.17 356.449 2628.78 354.661C2629.39 352.873 2718.65 348.334 2728.48 352.568C2738.31 356.802 2823.79 353.133 2823.63 349.475C2823.51 346.548 2850.5 347.425 2864.01 348.229C2888.54 350.175 2938.52 352.883 2942.25 348.143C2945.98 343.402 2979.3 346.091 2995.49 348.028C3004.86 348.585 3024.5 348.806 3028.13 345.227C3031.76 341.648 3052.37 345.088 3062.22 347.256C3076.55 348.109 3087.04 344.696 3102.96 347.126C3123.01 349.171 3163.54 352.338 3165.33 348.65C3167.12 344.962 3193.86 350.348 3205.22 353.213C3215.69 355.852 3236.72 354.844 3246.47 358.222C3273.39 351.797 3308.2 367.37 3328.26 371.118C3348.31 374.866 3401.25 372.908 3401.96 375.504C3402.67 378.101 3451.62 385.029 3460.16 382.618C3464.49 381.394 3482.85 389.122 3476.02 392.319C3467.15 396.462 3493.48 399.439 3507.75 400.41C3511.57 400.881 3517.44 403.03 3510.37 407.863C3502.83 413.019 3574.51 421.088 3549.76 424.073C3535.17 425.832 3552.08 431.387 3562.36 433.945C3571.43 434.363 3587.37 436.017 3578.58 439.288C3569.79 442.56 3576.11 444.858 3580.37 445.598Z" fill="#241C1C"/>
<path d="M3535.96 250.69C3535.96 250.69 3464.23 225.665 3415.77 234.659C3361.13 233.16 3335.02 224.871 3335.02 224.871C3335.02 224.871 3212.21 211.633 3149.06 220.511C3081.86 204.521 3015.95 220.511 3015.95 220.511L3010.56 379.018C3010.56 379.018 3061.61 389.748 3140.56 372.463C3167.94 383.336 3214.42 384.611 3266.96 375.93C3292.17 378.493 3340.88 374.488 3387.58 381.11C3441.91 388.814 3514.51 392.844 3514.51 392.844L3535.96 250.69Z" fill="url(#paint2_linear_255_30883)"/>
<g opacity="0.44">
<path d="M3010.23 228.133L3543.69 244.371C3546.44 246.734 3548.81 248.977 3550.34 250.779L3550.21 254.99C3545.81 256.249 3534.53 254.314 3534.53 254.314C3525.34 254.034 3523.99 274.075 3515.75 273.825C3509.43 273.632 3508.38 264.102 3500.4 263.859C3494.01 263.665 3496.72 297.217 3487.74 296.944C3483.2 296.806 3476.95 275.882 3472.88 289.02C3468.82 302.157 3470.31 321.742 3464.34 321.56C3456.68 321.327 3454.83 269.401 3449.58 281.309C3444.32 293.216 3438.64 295.25 3436.92 281.376C3434.78 264.123 3430.55 249.973 3425.6 266.702C3420.66 283.432 3419.4 305.719 3413.53 305.54C3409.13 305.406 3405.28 263.08 3400.55 272.58C3395.82 282.079 3390.46 327.145 3387.76 313.205C3385.08 299.247 3378.17 248.994 3373.37 260.897C3368.57 272.818 3365.13 269.095 3360 262.299C3354.88 255.504 3350.5 297.597 3346.67 292.053C3342.84 286.509 3337.23 251.963 3332.96 260.879C3328.69 269.795 3319.28 316.548 3315.93 309.806C3312.57 303.064 3310.96 254.167 3305.4 261.849C3299.83 269.532 3300.34 282.194 3291.92 281.937C3288.36 281.829 3279.32 243.561 3275.84 255.522C3272.36 267.484 3267.49 304.134 3261.48 303.952C3256.69 303.806 3260.36 253.242 3250.15 252.931C3243.5 252.729 3242.34 280.428 3235.56 280.222C3230.68 280.073 3223.99 237.046 3220.91 250.829C3217.82 264.612 3216.55 335.729 3209.9 335.526C3203.72 335.338 3204.99 248.535 3200.36 255.034C3195.72 261.533 3189.91 262.55 3185.33 252.767C3180.75 242.985 3180.18 290.712 3175.02 285.073C3169.87 279.435 3170.08 243.257 3163.13 252.689C3156.18 262.12 3151.47 285.876 3146.73 285.732C3138.02 285.467 3142 257.31 3134.67 257.087C3124.82 256.787 3124.91 326.517 3118.02 326.307C3110.27 326.071 3110.16 242.03 3101.83 253.229C3093.49 264.428 3092.98 281.31 3087.22 281.134C3081.45 280.959 3078.29 238.654 3074.55 259.635C3070.81 280.635 3067.57 313.699 3059.49 287.527C3051.4 261.355 3052.39 263.43 3048.73 271.333C3046.31 276.578 3024.52 251.039 3010.06 233.194L3010.22 228.133L3010.23 228.133Z" fill="url(#paint3_linear_255_30883)"/>
<path d="M3010.23 228.133L3543.69 244.371C3546.44 246.734 3548.81 248.977 3550.34 250.779L3550.21 254.99C3545.81 256.249 3534.53 254.314 3534.53 254.314C3525.34 254.034 3523.99 274.075 3515.75 273.825C3509.43 273.632 3508.38 264.102 3500.4 263.859C3494.01 263.665 3496.72 297.217 3487.74 296.944C3483.2 296.806 3476.95 275.882 3472.88 289.02C3468.82 302.157 3470.31 321.742 3464.34 321.56C3456.68 321.327 3454.83 269.401 3449.58 281.309C3444.32 293.216 3438.64 295.25 3436.92 281.376C3434.78 264.123 3430.55 249.973 3425.6 266.702C3420.66 283.432 3419.4 305.719 3413.53 305.54C3409.13 305.406 3405.28 263.08 3400.55 272.58C3395.82 282.079 3390.46 327.145 3387.76 313.205C3385.08 299.247 3378.17 248.994 3373.37 260.897C3368.57 272.818 3365.13 269.095 3360 262.299C3354.88 255.504 3350.5 297.597 3346.67 292.053C3342.84 286.509 3337.23 251.963 3332.96 260.879C3328.69 269.795 3319.28 316.548 3315.93 309.806C3312.57 303.064 3310.96 254.167 3305.4 261.849C3299.83 269.532 3300.34 282.194 3291.92 281.937C3288.36 281.829 3279.32 243.561 3275.84 255.522C3272.36 267.484 3267.49 304.134 3261.48 303.952C3256.69 303.806 3260.36 253.242 3250.15 252.931C3243.5 252.729 3242.34 280.428 3235.56 280.222C3230.68 280.073 3223.99 237.046 3220.91 250.829C3217.82 264.612 3216.55 335.729 3209.9 335.526C3203.72 335.338 3204.99 248.535 3200.36 255.034C3195.72 261.533 3189.91 262.55 3185.33 252.767C3180.75 242.985 3180.18 290.712 3175.02 285.073C3169.87 279.435 3170.08 243.257 3163.13 252.689C3156.18 262.12 3151.47 285.876 3146.73 285.732C3138.02 285.467 3142 257.31 3134.67 257.087C3124.82 256.787 3124.91 326.517 3118.02 326.307C3110.27 326.071 3110.16 242.03 3101.83 253.229C3093.49 264.428 3092.98 281.31 3087.22 281.134C3081.45 280.959 3078.29 238.654 3074.55 259.635C3070.81 280.635 3067.57 313.699 3059.49 287.527C3051.4 261.355 3052.39 263.43 3048.73 271.333C3046.31 276.578 3024.52 251.039 3010.06 233.194L3010.22 228.133L3010.23 228.133Z" fill="url(#paint4_linear_255_30883)"/>
<path d="M3010.23 228.133L3543.69 244.371C3546.44 246.734 3548.81 248.977 3550.34 250.779L3550.21 254.99C3545.81 256.249 3534.53 254.314 3534.53 254.314C3525.34 254.034 3523.99 274.075 3515.75 273.825C3509.43 273.632 3508.38 264.102 3500.4 263.859C3494.01 263.665 3496.72 297.217 3487.74 296.944C3483.2 296.806 3476.95 275.882 3472.88 289.02C3468.82 302.157 3470.31 321.742 3464.34 321.56C3456.68 321.327 3454.83 269.401 3449.58 281.309C3444.32 293.216 3438.64 295.25 3436.92 281.376C3434.78 264.123 3430.55 249.973 3425.6 266.702C3420.66 283.432 3419.4 305.719 3413.53 305.54C3409.13 305.406 3405.28 263.08 3400.55 272.58C3395.82 282.079 3390.46 327.145 3387.76 313.205C3385.08 299.247 3378.17 248.994 3373.37 260.897C3368.57 272.818 3365.13 269.095 3360 262.299C3354.88 255.504 3350.5 297.597 3346.67 292.053C3342.84 286.509 3337.23 251.963 3332.96 260.879C3328.69 269.795 3319.28 316.548 3315.93 309.806C3312.57 303.064 3310.96 254.167 3305.4 261.849C3299.83 269.532 3300.34 282.194 3291.92 281.937C3288.36 281.829 3279.32 243.561 3275.84 255.522C3272.36 267.484 3267.49 304.134 3261.48 303.952C3256.69 303.806 3260.36 253.242 3250.15 252.931C3243.5 252.729 3242.34 280.428 3235.56 280.222C3230.68 280.073 3223.99 237.046 3220.91 250.829C3217.82 264.612 3216.55 335.729 3209.9 335.526C3203.72 335.338 3204.99 248.535 3200.36 255.034C3195.72 261.533 3189.91 262.55 3185.33 252.767C3180.75 242.985 3180.18 290.712 3175.02 285.073C3169.87 279.435 3170.08 243.257 3163.13 252.689C3156.18 262.12 3151.47 285.876 3146.73 285.732C3138.02 285.467 3142 257.31 3134.67 257.087C3124.82 256.787 3124.91 326.517 3118.02 326.307C3110.27 326.071 3110.16 242.03 3101.83 253.229C3093.49 264.428 3092.98 281.31 3087.22 281.134C3081.45 280.959 3078.29 238.654 3074.55 259.635C3070.81 280.635 3067.57 313.699 3059.49 287.527C3051.4 261.355 3052.39 263.43 3048.73 271.333C3046.31 276.578 3024.52 251.039 3010.06 233.194L3010.22 228.133L3010.23 228.133Z" fill="url(#paint5_linear_255_30883)"/>
</g>
<path d="M3182.83 378.856C3185.49 378.938 3191.45 391.897 3194.1 398.366C3186.6 400.468 3171.74 405.782 3172.37 410.223C3172.99 414.664 3156.92 418.222 3148.81 419.446C3141.84 419.477 3128.04 418.363 3128.56 413.662C3129.22 407.787 3125.67 399.571 3119.55 397.908C3114.65 396.577 3107.43 395.814 3104.43 395.599C3110.23 387.18 3121.84 369.826 3121.91 367.765C3121.97 365.703 3139.08 355.152 3147.62 350.133L3156.91 357.052C3155.7 355.173 3154.05 351.216 3157.11 350.426C3160.18 349.636 3174.14 362.866 3180.74 369.58C3180.33 372.638 3180.17 378.774 3182.83 378.856Z" fill="url(#paint6_linear_255_30883)"/>
<path d="M3553.89 402.647C3557.43 402.756 3565.47 416.921 3569.05 423.989C3559.06 426.224 3539.31 431.903 3540.18 436.747C3541.04 441.591 3519.66 445.347 3508.86 446.62C3499.58 446.601 3481.18 445.284 3481.85 440.166C3482.68 433.769 3456.97 446.625 3448.8 444.767C3442.26 443.281 3453.55 420.56 3449.55 420.303C3457.22 411.172 3472.57 392.35 3472.63 390.104C3472.7 387.858 3495.42 376.489 3506.76 371.085L3519.18 378.694C3517.56 376.637 3515.33 372.313 3519.41 371.475C3523.48 370.638 3542.19 385.158 3551.03 392.523C3550.51 395.852 3550.34 402.538 3553.89 402.647Z" fill="url(#paint7_linear_255_30883)"/>
<path d="M2975.51 339.454C2972.86 339.373 2966.12 352.526 2963.08 359.112C2970.41 361.779 2984.84 368.262 2983.94 372.859C2983.04 377.457 2998.79 382.182 3006.78 383.97C3013.7 384.441 3027.5 384.147 3027.27 379.206C3026.99 373.031 3045.49 386.706 3051.68 385.355C3056.63 384.275 3049.41 361.904 3052.4 361.868C3047.17 352.713 3036.71 333.865 3036.78 331.709C3036.84 329.553 3020.5 317.461 3012.32 311.684L3002.65 318.323C3003.97 316.437 3005.86 312.41 3002.87 311.393C2999.87 310.375 2985.15 323.308 2978.17 329.901C2978.39 333.12 2978.16 339.536 2975.51 339.454Z" fill="url(#paint8_linear_255_30883)"/>
<path d="M3001.29 230.974C3002.06 227.436 3020.9 222.696 3030.22 220.768C3031.15 231.347 3034.53 252.575 3040.63 252.854C3046.73 253.133 3040.2 268.678 3039.8 279.849C3038.09 289.187 3040.4 314.26 3034.24 312.379C3026.55 310.027 3041.2 348.699 3037.44 356.483C3034.43 362.71 3005.06 336.216 3004.01 340.182C2994.2 330.303 2973.9 310.394 2971.15 309.792C2968.41 309.19 2958.59 283.634 2954.01 270.931L2965.6 260.229C2962.78 261.377 2957.08 262.596 2956.79 258.295C2956.5 253.993 2977.71 238.603 2988.35 231.446C2992.34 232.763 3000.51 234.512 3001.29 230.974Z" fill="#241C1C"/>
<path d="M1430.5 243.742C1430.34 240.123 1447.33 230.706 1455.85 226.45C1459.46 236.436 1455.21 254.306 1461.17 253.009C1467.14 251.713 1477.79 270.193 1480.27 281.092C1481.02 290.555 1489.69 314.195 1483.25 313.958C1475.21 313.661 1499.3 347.276 1497.66 355.764C1496.35 362.555 1461.16 344.489 1461.17 348.589C1449.15 341.56 1424.42 327.531 1421.61 327.653C1418.81 327.776 1402.75 305.599 1395.07 294.495L1403.52 281.177C1401.09 283.01 1395.89 285.654 1394.51 281.57C1393.12 277.487 1409.67 257.168 1418.12 247.52C1422.31 247.768 1430.66 247.361 1430.5 243.742Z" fill="#241C1C"/>
<path d="M3558.78 251.419C3558.32 247.826 3537.45 247.187 3528.33 244.445C3526.47 254.901 3523.76 270.004 3517.66 269.744C3511.56 269.484 3516.7 285.544 3516.11 296.707C3516.99 306.159 3512.48 330.931 3518.78 329.6C3526.65 327.937 3508.65 365.166 3511.71 373.251C3514.16 379.719 3545.75 355.918 3546.44 359.96C3557.08 350.985 3579.06 332.944 3581.85 332.586C3584.63 332.229 3596.68 307.639 3602.35 295.388L3591.75 283.706C3594.46 285.098 3600.03 286.816 3600.7 282.557C3601.37 278.297 3581.6 261.097 3571.63 253.03C3567.54 253.99 3559.25 255.012 3558.78 251.419Z" fill="#241C1C"/>
<path d="M1471.01 215.498C1471.01 215.498 1553.65 199.872 1601.8 210.356C1656.46 210.543 1735.59 210.813 1735.59 210.813C1735.59 210.813 1799.15 190.105 1862 200.926C1929.66 187.015 1991.7 201.369 1991.7 201.369L1992.2 359.967C1992.2 359.967 1940.84 369.117 1862.46 349.406C1834.77 359.43 1788.27 359.271 1736.02 348.974C1710.74 350.758 1662.18 345.253 1615.3 350.432C1560.76 356.457 1488.07 358.245 1488.07 358.245L1471.01 215.498Z" fill="url(#paint9_linear_255_30883)"/>
<g opacity="0.44">
<path d="M1992.35 206.442L1458.97 225.22C1456.23 227.597 1453.87 229.851 1452.35 231.66L1452.5 235.871C1456.91 237.109 1468.18 235.119 1468.18 235.119C1477.36 234.796 1478.81 254.83 1487.05 254.54C1493.37 254.318 1494.37 244.783 1502.35 244.502C1508.74 244.277 1506.19 277.842 1515.17 277.526C1519.71 277.366 1525.86 256.413 1529.99 269.531C1534.11 282.649 1532.71 302.241 1538.69 302.03C1546.34 301.761 1547.95 249.827 1553.26 261.709C1558.57 273.591 1564.26 275.598 1565.92 261.716C1567.97 244.453 1572.14 230.283 1577.16 246.989C1582.19 263.694 1583.55 285.975 1589.41 285.769C1593.82 285.614 1597.47 243.27 1602.24 252.747C1607.01 262.223 1612.6 307.263 1615.22 293.31C1617.83 279.34 1624.51 229.054 1629.37 240.935C1634.22 252.833 1637.65 249.093 1642.74 242.273C1647.83 235.453 1652.41 277.525 1656.22 271.963C1660.02 266.401 1665.46 231.829 1669.77 240.724C1674.08 249.62 1683.72 296.327 1687.04 289.57C1690.36 282.812 1691.74 233.907 1697.34 241.563C1702.94 249.219 1702.5 261.883 1710.92 261.587C1714.47 261.462 1723.33 223.151 1726.87 235.095C1730.41 247.04 1735.45 283.667 1741.46 283.456C1746.25 283.287 1742.34 232.741 1752.54 232.382C1759.2 232.148 1760.49 259.841 1767.27 259.603C1772.15 259.431 1778.63 216.373 1781.78 230.14C1784.93 243.908 1786.54 315.018 1793.19 314.784C1799.37 314.567 1797.68 227.771 1802.35 234.247C1807.01 240.724 1812.83 241.713 1817.36 231.909C1821.89 222.105 1822.69 269.829 1827.82 264.166C1832.96 258.503 1832.57 222.326 1839.57 231.725C1846.56 241.123 1851.38 264.857 1856.12 264.69C1864.83 264.383 1860.71 236.246 1868.04 235.988C1877.89 235.641 1878.14 305.37 1885.03 305.127C1892.77 304.854 1892.48 220.814 1900.87 231.973C1909.26 243.132 1909.85 260.011 1915.61 259.809C1921.37 259.606 1924.33 217.286 1928.18 238.25C1932.02 259.231 1935.41 292.279 1943.37 266.069C1951.34 239.859 1950.36 241.938 1954.05 249.824C1956.5 255.058 1978.17 229.415 1992.54 211.501L1992.36 206.441L1992.35 206.442Z" fill="url(#paint10_linear_255_30883)"/>
<path d="M1992.35 206.442L1458.97 225.22C1456.23 227.597 1453.87 229.851 1452.35 231.66L1452.5 235.871C1456.91 237.109 1468.18 235.119 1468.18 235.119C1477.36 234.796 1478.81 254.83 1487.05 254.54C1493.37 254.318 1494.37 244.783 1502.35 244.502C1508.74 244.277 1506.19 277.842 1515.17 277.526C1519.71 277.366 1525.86 256.413 1529.99 269.531C1534.11 282.649 1532.71 302.241 1538.69 302.03C1546.34 301.761 1547.95 249.827 1553.26 261.709C1558.57 273.591 1564.26 275.598 1565.92 261.716C1567.97 244.453 1572.14 230.283 1577.16 246.989C1582.19 263.694 1583.55 285.975 1589.41 285.769C1593.82 285.614 1597.47 243.27 1602.24 252.747C1607.01 262.223 1612.6 307.263 1615.22 293.31C1617.83 279.34 1624.51 229.054 1629.37 240.935C1634.22 252.833 1637.65 249.093 1642.74 242.273C1647.83 235.453 1652.41 277.525 1656.22 271.963C1660.02 266.401 1665.46 231.829 1669.77 240.724C1674.08 249.62 1683.72 296.327 1687.04 289.57C1690.36 282.812 1691.74 233.907 1697.34 241.563C1702.94 249.219 1702.5 261.883 1710.92 261.587C1714.47 261.462 1723.33 223.151 1726.87 235.095C1730.41 247.04 1735.45 283.667 1741.46 283.456C1746.25 283.287 1742.34 232.741 1752.54 232.382C1759.2 232.148 1760.49 259.841 1767.27 259.603C1772.15 259.431 1778.63 216.373 1781.78 230.14C1784.93 243.908 1786.54 315.018 1793.19 314.784C1799.37 314.567 1797.68 227.771 1802.35 234.247C1807.01 240.724 1812.83 241.713 1817.36 231.909C1821.89 222.105 1822.69 269.829 1827.82 264.166C1832.96 258.503 1832.57 222.326 1839.57 231.725C1846.56 241.123 1851.38 264.857 1856.12 264.69C1864.83 264.383 1860.71 236.246 1868.04 235.988C1877.89 235.641 1878.14 305.37 1885.03 305.127C1892.77 304.854 1892.48 220.814 1900.87 231.973C1909.26 243.132 1909.85 260.011 1915.61 259.809C1921.37 259.606 1924.33 217.286 1928.18 238.25C1932.02 259.231 1935.41 292.279 1943.37 266.069C1951.34 239.859 1950.36 241.938 1954.05 249.824C1956.5 255.058 1978.17 229.415 1992.54 211.501L1992.36 206.441L1992.35 206.442Z" fill="url(#paint11_linear_255_30883)"/>
<path d="M1992.35 206.442L1458.97 225.22C1456.23 227.597 1453.87 229.851 1452.35 231.66L1452.5 235.871C1456.91 237.109 1468.18 235.119 1468.18 235.119C1477.36 234.796 1478.81 254.83 1487.05 254.54C1493.37 254.318 1494.37 244.783 1502.35 244.502C1508.74 244.277 1506.19 277.842 1515.17 277.526C1519.71 277.366 1525.86 256.413 1529.99 269.531C1534.11 282.649 1532.71 302.241 1538.69 302.03C1546.34 301.761 1547.95 249.827 1553.26 261.709C1558.57 273.591 1564.26 275.598 1565.92 261.716C1567.97 244.453 1572.14 230.283 1577.16 246.989C1582.19 263.694 1583.55 285.975 1589.41 285.769C1593.82 285.614 1597.47 243.27 1602.24 252.747C1607.01 262.223 1612.6 307.263 1615.22 293.31C1617.83 279.34 1624.51 229.054 1629.37 240.935C1634.22 252.833 1637.65 249.093 1642.74 242.273C1647.83 235.453 1652.41 277.525 1656.22 271.963C1660.02 266.401 1665.46 231.829 1669.77 240.724C1674.08 249.62 1683.72 296.327 1687.04 289.57C1690.36 282.812 1691.74 233.907 1697.34 241.563C1702.94 249.219 1702.5 261.883 1710.92 261.587C1714.47 261.462 1723.33 223.151 1726.87 235.095C1730.41 247.04 1735.45 283.667 1741.46 283.456C1746.25 283.287 1742.34 232.741 1752.54 232.382C1759.2 232.148 1760.49 259.841 1767.27 259.603C1772.15 259.431 1778.63 216.373 1781.78 230.14C1784.93 243.908 1786.54 315.018 1793.19 314.784C1799.37 314.567 1797.68 227.771 1802.35 234.247C1807.01 240.724 1812.83 241.713 1817.36 231.909C1821.89 222.105 1822.69 269.829 1827.82 264.166C1832.96 258.503 1832.57 222.326 1839.57 231.725C1846.56 241.123 1851.38 264.857 1856.12 264.69C1864.83 264.383 1860.71 236.246 1868.04 235.988C1877.89 235.641 1878.14 305.37 1885.03 305.127C1892.77 304.854 1892.48 220.814 1900.87 231.973C1909.26 243.132 1909.85 260.011 1915.61 259.809C1921.37 259.606 1924.33 217.286 1928.18 238.25C1932.02 259.231 1935.41 292.279 1943.37 266.069C1951.34 239.859 1950.36 241.938 1954.05 249.824C1956.5 255.058 1978.17 229.415 1992.54 211.501L1992.36 206.441L1992.35 206.442Z" fill="url(#paint12_linear_255_30883)"/>
</g>
<path d="M1820.01 354.492C1817.35 354.492 1810.99 367.261 1808.14 373.645C1815.58 375.977 1830.27 381.747 1829.51 386.167C1828.75 390.587 1844.7 394.638 1852.77 396.112C1859.73 396.357 1873.56 395.67 1873.18 390.955C1872.71 385.062 1876.5 376.959 1882.67 375.486C1887.61 374.307 1894.86 373.767 1897.87 373.645C1892.33 365.051 1881.25 347.347 1881.25 345.285C1881.25 343.222 1864.48 332.148 1856.09 326.869L1846.6 333.498C1847.86 331.657 1849.63 327.753 1846.6 326.869C1843.56 325.985 1829.19 338.778 1822.39 345.285C1822.7 348.354 1822.67 354.492 1820.01 354.492Z" fill="url(#paint13_linear_255_30883)"/>
<path d="M1427.57 347.593C1424.39 347.593 1416.78 362.448 1413.38 369.875C1422.27 372.588 1439.83 379.301 1438.93 384.443C1438.02 389.585 1457.09 394.298 1466.75 396.012C1475.07 396.298 1491.62 395.498 1491.16 390.014C1490.59 383.158 1513.3 397.726 1520.69 396.012C1526.59 394.641 1517.09 370.017 1520.69 369.875C1514.06 359.876 1500.81 339.28 1500.81 336.881C1500.81 334.481 1480.75 321.598 1470.72 315.456L1459.37 323.168C1460.88 321.026 1463 316.484 1459.37 315.456C1455.73 314.428 1438.55 329.311 1430.41 336.881C1430.79 340.451 1430.75 347.593 1427.57 347.593Z" fill="url(#paint14_linear_255_30883)"/>
<path d="M2047.9 333.277C2051.2 333.277 2059.09 343.03 2062.62 347.906C2053.4 349.688 2035.18 354.095 2036.12 357.471C2037.06 360.847 2017.27 363.942 2007.26 365.067C1998.62 365.255 1981.47 364.73 1981.94 361.129C1982.53 356.627 1958.97 366.193 1951.31 365.067C1945.19 364.167 1955.04 348 1951.31 347.906C1958.18 341.342 1971.92 327.819 1971.92 326.244C1971.92 324.668 1992.73 316.209 2003.14 312.177L2014.92 317.241C2013.35 315.834 2011.15 312.852 2014.92 312.177C2018.69 311.502 2036.51 321.273 2044.96 326.244C2044.56 328.588 2044.6 333.277 2047.9 333.277Z" fill="url(#paint15_linear_255_30883)"/>
<path d="M2006.03 212.279C2005.37 208.718 1986.68 203.4 1977.43 201.185C1976.17 211.731 1972.13 232.845 1966.03 232.935C1959.92 233.026 1965.98 248.765 1966.03 259.943C1967.45 269.329 1964.37 294.319 1970.58 292.629C1978.35 290.516 1962.51 328.717 1966.03 336.613C1968.84 342.93 1999.02 317.355 1999.94 321.351C2010.05 311.778 2030.96 292.505 2033.72 291.988C2036.48 291.471 2047.09 266.23 2052.05 253.674L2040.8 242.62C2043.58 243.854 2049.25 245.249 2049.67 240.959C2050.09 236.668 2029.36 220.631 2018.95 213.15C2014.92 214.343 2006.7 215.839 2006.03 212.279Z" fill="#241C1C"/>
<defs>
<linearGradient id="paint0_linear_255_30883" x1="2155.84" y1="975" x2="2257.5" y2="305.07" gradientUnits="userSpaceOnUse">
<stop stop-color="#962514"/>
<stop offset="1" stop-color="#B34737"/>
</linearGradient>
<linearGradient id="paint1_linear_255_30883" x1="2583.23" y1="368.422" x2="2583.23" y2="517.696" gradientUnits="userSpaceOnUse">
<stop stop-color="#272323"/>
<stop offset="1" stop-color="#272323"/>
</linearGradient>
<linearGradient id="paint2_linear_255_30883" x1="3269.75" y1="254.618" x2="3262.35" y2="384.524" gradientUnits="userSpaceOnUse">
<stop stop-color="#B13C2A"/>
<stop offset="0.95" stop-color="#AB3E2D"/>
</linearGradient>
<linearGradient id="paint3_linear_255_30883" x1="3280.37" y1="236.356" x2="3277.29" y2="337.577" gradientUnits="userSpaceOnUse">
<stop stop-color="#C53F2A"/>
<stop offset="1" stop-color="#772619"/>
</linearGradient>
<linearGradient id="paint4_linear_255_30883" x1="3280.37" y1="236.356" x2="3277.29" y2="337.577" gradientUnits="userSpaceOnUse">
<stop stop-color="#C53F2A"/>
<stop offset="1" stop-color="#772619"/>
</linearGradient>
<linearGradient id="paint5_linear_255_30883" x1="3280.37" y1="236.356" x2="3277.29" y2="337.577" gradientUnits="userSpaceOnUse">
<stop stop-color="#C53F2A"/>
<stop offset="1" stop-color="#772619"/>
</linearGradient>
<linearGradient id="paint6_linear_255_30883" x1="3150.71" y1="350.185" x2="3148.57" y2="419.482" gradientUnits="userSpaceOnUse">
<stop stop-color="#181818"/>
<stop offset="1" stop-color="#2E2D2D"/>
</linearGradient>
<linearGradient id="paint7_linear_255_30883" x1="3510.87" y1="371.164" x2="3507.86" y2="469.03" gradientUnits="userSpaceOnUse">
<stop stop-color="#181818"/>
<stop offset="1" stop-color="#2E2D2D"/>
</linearGradient>
<linearGradient id="paint8_linear_255_30883" x1="3009.25" y1="311.544" x2="3007.01" y2="384.022" gradientUnits="userSpaceOnUse">
<stop stop-color="#181818"/>
<stop offset="1" stop-color="#2E2D2D"/>
</linearGradient>
<linearGradient id="paint9_linear_255_30883" x1="1736.97" y1="227.631" x2="1740.36" y2="357.703" gradientUnits="userSpaceOnUse">
<stop stop-color="#B13C2A"/>
<stop offset="0.95" stop-color="#AB3E2D"/>
</linearGradient>
<linearGradient id="paint10_linear_255_30883" x1="1722.24" y1="215.951" x2="1725.81" y2="317.156" gradientUnits="userSpaceOnUse">
<stop stop-color="#C53F2A"/>
<stop offset="1" stop-color="#772619"/>
</linearGradient>
<linearGradient id="paint11_linear_255_30883" x1="1722.24" y1="215.951" x2="1725.81" y2="317.156" gradientUnits="userSpaceOnUse">
<stop stop-color="#C53F2A"/>
<stop offset="1" stop-color="#772619"/>
</linearGradient>
<linearGradient id="paint12_linear_255_30883" x1="1722.24" y1="215.951" x2="1725.81" y2="317.156" gradientUnits="userSpaceOnUse">
<stop stop-color="#C53F2A"/>
<stop offset="1" stop-color="#772619"/>
</linearGradient>
<linearGradient id="paint13_linear_255_30883" x1="1853" y1="326.825" x2="1853" y2="396.155" gradientUnits="userSpaceOnUse">
<stop stop-color="#181818"/>
<stop offset="1" stop-color="#2E2D2D"/>
</linearGradient>
<linearGradient id="paint14_linear_255_30883" x1="1467.03" y1="315.405" x2="1467.03" y2="396.063" gradientUnits="userSpaceOnUse">
<stop stop-color="#181818"/>
<stop offset="1" stop-color="#2E2D2D"/>
</linearGradient>
<linearGradient id="paint15_linear_255_30883" x1="2006.97" y1="312.144" x2="2006.97" y2="365.1" gradientUnits="userSpaceOnUse">
<stop stop-color="#181818"/>
<stop offset="1" stop-color="#2E2D2D"/>
</linearGradient>
</defs>
</svg>
