<svg width="4682" height="1151" viewBox="0 0 4682 1151" fill="none" xmlns="http://www.w3.org/2000/svg">
<path d="M37.592 41.7459L-21 47.7124V264H2302V76.0536H2281.32L2243.41 83.5117L2212.39 98.4281H2191.71V104.395L2164.14 111.853L2146.9 104.395H2133.12L2122.78 111.853L2081.42 104.395L2046.95 98.4281H2012.49L1984.91 104.395H1964.23L1936.66 98.4281L1922.88 93.9532H1864.28L1840.16 83.5117L1816.03 76.0536L1809.14 68.5954H1778.12H1743.65L1726.42 53.679L1695.4 41.7459L1674.72 35.7793V29.8128L1650.59 20.8629L1602.34 26.8295L1564.43 13.4047L1543.75 16.388L1526.52 19.3713L1502.39 25.3378L1485.16 26.8295L1464.48 29.8128L1443.8 25.3378L1412.78 13.4047L1409.33 10.4215L1398.99 13.4047L1392.1 4.45491L1385.21 1.47164C1385.21 4.45491 1279.5 10.4215 1254.24 0V7.43819L1243.9 14.8964L1233.56 20.8629H1226.66H1216.32L1212.88 26.8295L1202.54 35.7793L1181.86 43.2375H1140.5L1106.03 56.6622L1099.14 58.1539H1064.68L1054.34 62.6288H1030.21L1026.76 59.6455L999.19 53.679V50.6957H971.617L961.277 53.679L933.705 58.1539L926.812 50.6957L895.792 53.679V50.6957H864.773L854.433 47.7124L802.734 53.679L788.948 59.6455H706.23L671.764 47.7124L654.531 41.7459L599.386 35.7793L585.599 23.8462L540.794 29.8128H530.454L489.095 23.8462L396.037 47.7124L285.746 50.6957H223.708L182.349 53.679V50.6957H165.116L158.223 47.7124L140.99 53.679L72.0579 41.7459H37.592Z" fill="url(#paint0_linear_255_30888)"/>
<path d="M2338.12 76.9588L2276.91 82.0188L2286.53 265.446H4723.95L4715.58 106.054H4693.89L4654.44 112.379L4622.55 125.029H4600.86L4601.12 130.089L4572.52 136.414L4554.11 130.089H4539.64L4529.13 136.414L4485.4 130.089L4448.97 125.029H4412.81L4384.14 130.089H4362.44L4333.25 125.029L4318.58 121.234H4257.11L4231.33 112.379L4205.68 106.054L4198.12 99.729H4165.57H4129.4L4110.66 87.0789L4077.58 76.9588L4055.62 71.8987L4055.35 66.8387L4029.64 59.2486L3979.28 64.3087L3938.9 52.9236L3917.33 55.4536L3899.38 57.9836L3874.34 63.0437L3856.32 64.3087L3834.76 66.8387L3812.86 63.0437L3779.78 52.9236L3776.03 50.3935L3765.31 52.9236L3757.68 45.3335L3750.32 42.8035L3736.32 51.6585L3725.6 54.1886L3711.4 59.2486L3700.49 57.9836C3700.49 57.9836 3689.42 53.9356 3689.37 52.9236C3689.32 51.9115 3686.76 49.1285 3685.49 47.8635L3660.77 59.2486H3646.31C3641.31 55.8753 3631.3 48.8755 3631.24 47.8635C3631.19 46.8515 3621.31 42.3818 3616.38 40.2734L3613.16 47.8635L3602.65 54.1886L3592.06 59.2486H3584.83H3573.98L3570.63 64.3087L3560.18 71.8987L3538.81 78.2238H3495.42L3459.85 89.6089L3452.68 90.8739H3416.52L3405.87 94.669H3380.56L3376.81 92.1389L3347.61 87.0789L3347.48 84.5489H3318.55L3307.83 87.0789L3279.1 90.8739L3271.54 84.5489L3239.12 87.0789L3238.99 84.5489H3206.44L3195.46 82.0188L3141.48 87.0789L3127.28 92.1389H3040.49L3003.79 82.0188L2985.45 76.9588L2927.32 71.8987L2912.32 61.7786L2865.58 66.8387H2854.73L2811.07 61.7786L2714.49 82.0188L2598.9 84.5489H2533.8L2490.54 87.0789L2490.41 84.5489H2472.32L2464.96 82.0188L2447.14 87.0789L2374.28 76.9588H2338.12Z" fill="url(#paint1_linear_255_30888)"/>
<rect y="252" width="4682" height="899" fill="#502424"/>
<defs>
<linearGradient id="paint0_linear_255_30888" x1="1245.77" y1="-1.51145" x2="1247.1" y2="325.771" gradientUnits="userSpaceOnUse">
<stop stop-color="#3C2222"/>
<stop offset="1" stop-color="#552A2A"/>
</linearGradient>
<linearGradient id="paint1_linear_255_30888" x1="3603.88" y1="40.2734" x2="3604.79" y2="317.881" gradientUnits="userSpaceOnUse">
<stop stop-color="#3C2222"/>
<stop offset="1" stop-color="#592424"/>
</linearGradient>
</defs>
</svg>
