<svg width="4682" height="802" viewBox="0 0 4682 802" fill="none" xmlns="http://www.w3.org/2000/svg">
<rect x="444.391" y="526.418" width="3999.91" height="1150.06" fill="url(#paint0_linear_255_30882)"/>
<path opacity="0.44" d="M4504.62 576.172H3200.85C3193.96 585.586 3188 594.553 3184.13 601.8V619.21C3194.8 624.963 3222.48 618.388 3222.48 618.388C3244.93 618.388 3246.75 701.326 3266.89 701.326C3282.34 701.326 3285.59 662.098 3305.11 662.098C3320.72 662.098 3311.61 800.328 3333.57 800.328C3344.66 800.328 3361.48 714.7 3370.43 769.469C3379.37 824.238 3374.27 904.934 3388.87 904.934C3407.58 904.934 3415.97 690.716 3427.91 740.553C3439.85 790.39 3453.57 799.506 3458.81 742.421C3465.32 671.438 3476.7 613.531 3487.53 683.244C3498.37 752.956 3499.76 845.159 3514.11 845.159C3524.88 845.159 3537.43 670.84 3548.27 710.665C3559.1 750.49 3568.86 937.287 3576.47 880.053C3584.05 822.743 3604.67 616.072 3615.5 665.834C3626.34 715.672 3635.02 700.728 3648.03 673.306C3661.04 645.884 3668.62 820.278 3678.38 797.862C3688.14 775.446 3704.41 633.481 3714.16 670.84C3723.92 708.2 3743.44 902.468 3752.13 875.046C3760.81 847.625 3768.39 645.884 3781.4 678.312C3794.41 710.74 3792.23 762.968 3812.83 762.968C3821.51 762.968 3846.43 606.059 3854.04 655.897C3861.65 705.734 3870.83 857.712 3885.5 857.712C3897.21 857.712 3892 648.425 3916.95 648.425C3933.22 648.425 3934 762.968 3950.55 762.968C3962.49 762.968 3982.01 586.109 3988.52 643.419C3995.02 700.728 3992.84 994.596 4009.11 994.596C4024.2 994.596 4027.55 635.947 4038.38 663.369C4049.22 690.79 4063.33 695.722 4075.24 655.897C4087.14 616.072 4085 813.254 4098.01 790.614C4111.02 767.975 4113.2 618.537 4129.46 658.362C4145.73 698.187 4155.46 796.891 4167.04 796.891C4188.34 796.891 4180.7 680.105 4198.62 680.105C4222.69 680.105 4217.29 968.071 4234.14 968.071C4253.08 968.071 4259.58 621.003 4279.1 668.3C4298.62 715.597 4298.62 785.384 4312.7 785.384C4326.79 785.384 4337.65 611.065 4345.23 698.187C4352.81 785.384 4358.24 922.343 4379.94 815.271C4401.64 708.2 4399.07 716.643 4407.39 749.743C4412.92 771.711 4468.03 668.972 4504.66 597.093V576.172H4504.62Z" fill="url(#paint1_linear_255_30882)"/>
<g opacity="0.44">
<path d="M3101.72 583.512H1797.95C1791.05 592.926 1785.1 601.893 1781.23 609.14V626.55C1791.9 632.303 1819.58 625.728 1819.58 625.728C1842.03 625.728 1843.85 708.665 1863.98 708.665C1879.44 708.665 1882.69 669.438 1902.21 669.438C1917.82 669.438 1908.71 807.668 1930.67 807.668C1941.76 807.668 1958.58 722.04 1967.53 776.809C1976.47 831.578 1971.36 912.274 1985.97 912.274C2004.67 912.274 2013.07 698.055 2025 747.893C2036.94 797.73 2050.67 806.846 2055.91 749.761C2062.41 678.778 2073.8 620.871 2084.63 690.584C2095.46 760.296 2096.86 852.499 2111.21 852.499C2121.97 852.499 2134.53 678.18 2145.36 718.005C2156.2 757.83 2165.95 944.627 2173.57 887.392C2181.14 830.083 2201.77 623.411 2212.6 673.174C2223.43 723.011 2232.12 708.068 2245.13 680.646C2258.14 653.224 2265.72 827.617 2275.48 805.202C2285.24 782.786 2301.5 640.821 2311.26 678.18C2321.02 715.54 2340.54 909.808 2349.22 882.386C2357.91 854.965 2365.49 653.224 2378.5 685.652C2391.51 718.08 2389.33 770.308 2409.92 770.308C2418.61 770.308 2443.53 613.399 2451.14 663.237C2458.75 713.074 2467.92 865.052 2482.59 865.052C2494.3 865.052 2489.1 655.765 2514.05 655.765C2530.31 655.765 2531.09 770.308 2547.65 770.308C2559.59 770.308 2579.11 593.449 2585.61 650.758C2592.12 708.068 2589.94 1001.94 2606.2 1001.94C2621.3 1001.94 2624.65 643.287 2635.48 670.708C2646.31 698.13 2660.43 703.062 2672.34 663.237C2684.24 623.411 2682.1 820.594 2695.11 797.954C2708.12 775.314 2710.3 625.877 2726.56 665.702C2742.83 705.527 2752.55 804.231 2764.13 804.231C2785.44 804.231 2777.8 687.445 2795.72 687.445C2819.79 687.445 2814.39 975.411 2831.24 975.411C2850.17 975.411 2856.68 628.343 2876.2 675.64C2895.71 722.937 2895.71 792.724 2909.8 792.724C2923.89 792.724 2934.75 618.405 2942.33 705.527C2949.91 792.724 2955.34 929.683 2977.04 822.611C2998.73 715.54 2996.17 723.983 3004.49 757.083C3010.02 779.05 3065.13 676.312 3101.75 604.433V583.512H3101.72Z" fill="url(#paint2_linear_255_30882)"/>
<path d="M3101.72 583.512H1797.95C1791.05 592.926 1785.1 601.893 1781.23 609.14V626.55C1791.9 632.303 1819.58 625.728 1819.58 625.728C1842.03 625.728 1843.85 708.665 1863.98 708.665C1879.44 708.665 1882.69 669.438 1902.21 669.438C1917.82 669.438 1908.71 807.668 1930.67 807.668C1941.76 807.668 1958.58 722.04 1967.53 776.809C1976.47 831.578 1971.36 912.274 1985.97 912.274C2004.67 912.274 2013.07 698.055 2025 747.893C2036.94 797.73 2050.67 806.846 2055.91 749.761C2062.41 678.778 2073.8 620.871 2084.63 690.584C2095.46 760.296 2096.86 852.499 2111.21 852.499C2121.97 852.499 2134.53 678.18 2145.36 718.005C2156.2 757.83 2165.95 944.627 2173.57 887.392C2181.14 830.083 2201.77 623.411 2212.6 673.174C2223.43 723.011 2232.12 708.068 2245.13 680.646C2258.14 653.224 2265.72 827.617 2275.48 805.202C2285.24 782.786 2301.5 640.821 2311.26 678.18C2321.02 715.54 2340.54 909.808 2349.22 882.386C2357.91 854.965 2365.49 653.224 2378.5 685.652C2391.51 718.08 2389.33 770.308 2409.92 770.308C2418.61 770.308 2443.53 613.399 2451.14 663.237C2458.75 713.074 2467.92 865.052 2482.59 865.052C2494.3 865.052 2489.1 655.765 2514.05 655.765C2530.31 655.765 2531.09 770.308 2547.65 770.308C2559.59 770.308 2579.11 593.449 2585.61 650.758C2592.12 708.068 2589.94 1001.94 2606.2 1001.94C2621.3 1001.94 2624.65 643.287 2635.48 670.708C2646.31 698.13 2660.43 703.062 2672.34 663.237C2684.24 623.411 2682.1 820.594 2695.11 797.954C2708.12 775.314 2710.3 625.877 2726.56 665.702C2742.83 705.527 2752.55 804.231 2764.13 804.231C2785.44 804.231 2777.8 687.445 2795.72 687.445C2819.79 687.445 2814.39 975.411 2831.24 975.411C2850.17 975.411 2856.68 628.343 2876.2 675.64C2895.71 722.937 2895.71 792.724 2909.8 792.724C2923.89 792.724 2934.75 618.405 2942.33 705.527C2949.91 792.724 2955.34 929.683 2977.04 822.611C2998.73 715.54 2996.17 723.983 3004.49 757.083C3010.02 779.05 3065.13 676.312 3101.75 604.433V583.512H3101.72Z" fill="url(#paint3_linear_255_30882)"/>
<path d="M3101.72 583.512H1797.95C1791.05 592.926 1785.1 601.893 1781.23 609.14V626.55C1791.9 632.303 1819.58 625.728 1819.58 625.728C1842.03 625.728 1843.85 708.665 1863.98 708.665C1879.44 708.665 1882.69 669.438 1902.21 669.438C1917.82 669.438 1908.71 807.668 1930.67 807.668C1941.76 807.668 1958.58 722.04 1967.53 776.809C1976.47 831.578 1971.36 912.274 1985.97 912.274C2004.67 912.274 2013.07 698.055 2025 747.893C2036.94 797.73 2050.67 806.846 2055.91 749.761C2062.41 678.778 2073.8 620.871 2084.63 690.584C2095.46 760.296 2096.86 852.499 2111.21 852.499C2121.97 852.499 2134.53 678.18 2145.36 718.005C2156.2 757.83 2165.95 944.627 2173.57 887.392C2181.14 830.083 2201.77 623.411 2212.6 673.174C2223.43 723.011 2232.12 708.068 2245.13 680.646C2258.14 653.224 2265.72 827.617 2275.48 805.202C2285.24 782.786 2301.5 640.821 2311.26 678.18C2321.02 715.54 2340.54 909.808 2349.22 882.386C2357.91 854.965 2365.49 653.224 2378.5 685.652C2391.51 718.08 2389.33 770.308 2409.92 770.308C2418.61 770.308 2443.53 613.399 2451.14 663.237C2458.75 713.074 2467.92 865.052 2482.59 865.052C2494.3 865.052 2489.1 655.765 2514.05 655.765C2530.31 655.765 2531.09 770.308 2547.65 770.308C2559.59 770.308 2579.11 593.449 2585.61 650.758C2592.12 708.068 2589.94 1001.94 2606.2 1001.94C2621.3 1001.94 2624.65 643.287 2635.48 670.708C2646.31 698.13 2660.43 703.062 2672.34 663.237C2684.24 623.411 2682.1 820.594 2695.11 797.954C2708.12 775.314 2710.3 625.877 2726.56 665.702C2742.83 705.527 2752.55 804.231 2764.13 804.231C2785.44 804.231 2777.8 687.445 2795.72 687.445C2819.79 687.445 2814.39 975.411 2831.24 975.411C2850.17 975.411 2856.68 628.343 2876.2 675.64C2895.71 722.937 2895.71 792.724 2909.8 792.724C2923.89 792.724 2934.75 618.405 2942.33 705.527C2949.91 792.724 2955.34 929.683 2977.04 822.611C2998.73 715.54 2996.17 723.983 3004.49 757.083C3010.02 779.05 3065.13 676.312 3101.75 604.433V583.512H3101.72Z" fill="url(#paint4_linear_255_30882)"/>
</g>
<g opacity="0.44">
<path d="M1814.64 583.512H510.865C503.968 592.926 498.016 601.893 494.145 609.14V626.55C504.814 632.303 532.497 625.728 532.497 625.728C554.942 625.728 556.763 708.665 576.899 708.665C592.35 708.665 595.603 669.438 615.121 669.438C630.735 669.438 621.627 807.668 643.584 807.668C654.676 807.668 671.494 722.04 680.439 776.809C689.385 831.578 684.278 912.274 698.884 912.274C717.588 912.274 725.98 698.055 737.919 747.893C749.857 797.73 763.584 806.846 768.821 749.761C775.327 678.778 786.713 620.871 797.545 690.584C808.377 760.296 809.776 852.499 824.121 852.499C834.888 852.499 847.445 678.18 858.277 718.005C869.109 757.83 878.868 944.627 886.48 887.392C894.059 830.083 914.683 623.411 925.515 673.174C936.347 723.011 945.032 708.068 958.044 680.646C971.056 653.224 978.635 827.617 988.394 805.202C998.153 782.786 1014.42 640.821 1024.18 678.18C1033.93 715.54 1053.45 909.808 1062.14 882.386C1070.82 854.965 1078.4 653.224 1091.41 685.652C1104.43 718.08 1102.25 770.308 1122.84 770.308C1131.52 770.308 1156.44 613.399 1164.05 663.237C1171.66 713.074 1180.84 865.052 1195.51 865.052C1207.22 865.052 1202.01 655.765 1226.96 655.765C1243.23 655.765 1244.01 770.308 1260.57 770.308C1272.5 770.308 1292.02 593.449 1298.53 650.758C1305.03 708.068 1302.85 1001.94 1319.12 1001.94C1334.21 1001.94 1337.56 643.287 1348.39 670.708C1359.23 698.13 1373.34 703.062 1385.25 663.237C1397.16 623.411 1395.01 820.594 1408.02 797.954C1421.03 775.314 1423.21 625.877 1439.48 665.702C1455.74 705.527 1465.47 804.231 1477.05 804.231C1498.35 804.231 1490.71 687.445 1508.63 687.445C1532.71 687.445 1527.31 975.411 1544.16 975.411C1563.09 975.411 1569.59 628.343 1589.11 675.64C1608.63 722.937 1608.63 792.724 1622.71 792.724C1636.8 792.724 1647.66 618.405 1655.24 705.527C1662.82 792.724 1668.25 929.683 1689.95 822.611C1711.65 715.54 1709.08 723.983 1717.41 757.083C1722.94 779.05 1778.04 676.312 1814.67 604.433V583.512H1814.64Z" fill="url(#paint5_linear_255_30882)"/>
<path d="M1814.64 583.512H510.865C503.968 592.926 498.016 601.893 494.145 609.14V626.55C504.814 632.303 532.497 625.728 532.497 625.728C554.942 625.728 556.763 708.665 576.899 708.665C592.35 708.665 595.603 669.438 615.121 669.438C630.735 669.438 621.627 807.668 643.584 807.668C654.676 807.668 671.494 722.04 680.439 776.809C689.385 831.578 684.278 912.274 698.884 912.274C717.588 912.274 725.98 698.055 737.919 747.893C749.857 797.73 763.584 806.846 768.821 749.761C775.327 678.778 786.713 620.871 797.545 690.584C808.377 760.296 809.776 852.499 824.121 852.499C834.888 852.499 847.445 678.18 858.277 718.005C869.109 757.83 878.868 944.627 886.48 887.392C894.059 830.083 914.683 623.411 925.515 673.174C936.347 723.011 945.032 708.068 958.044 680.646C971.056 653.224 978.635 827.617 988.394 805.202C998.153 782.786 1014.42 640.821 1024.18 678.18C1033.93 715.54 1053.45 909.808 1062.14 882.386C1070.82 854.965 1078.4 653.224 1091.41 685.652C1104.43 718.08 1102.25 770.308 1122.84 770.308C1131.52 770.308 1156.44 613.399 1164.05 663.237C1171.66 713.074 1180.84 865.052 1195.51 865.052C1207.22 865.052 1202.01 655.765 1226.96 655.765C1243.23 655.765 1244.01 770.308 1260.57 770.308C1272.5 770.308 1292.02 593.449 1298.53 650.758C1305.03 708.068 1302.85 1001.94 1319.12 1001.94C1334.21 1001.94 1337.56 643.287 1348.39 670.708C1359.23 698.13 1373.34 703.062 1385.25 663.237C1397.16 623.411 1395.01 820.594 1408.02 797.954C1421.03 775.314 1423.21 625.877 1439.48 665.702C1455.74 705.527 1465.47 804.231 1477.05 804.231C1498.35 804.231 1490.71 687.445 1508.63 687.445C1532.71 687.445 1527.31 975.411 1544.16 975.411C1563.09 975.411 1569.59 628.343 1589.11 675.64C1608.63 722.937 1608.63 792.724 1622.71 792.724C1636.8 792.724 1647.66 618.405 1655.24 705.527C1662.82 792.724 1668.25 929.683 1689.95 822.611C1711.65 715.54 1709.08 723.983 1717.41 757.083C1722.94 779.05 1778.04 676.312 1814.67 604.433V583.512H1814.64Z" fill="url(#paint6_linear_255_30882)"/>
<path d="M1814.64 583.512H510.865C503.968 592.926 498.016 601.893 494.145 609.14V626.55C504.814 632.303 532.497 625.728 532.497 625.728C554.942 625.728 556.763 708.665 576.899 708.665C592.35 708.665 595.603 669.438 615.121 669.438C630.735 669.438 621.627 807.668 643.584 807.668C654.676 807.668 671.494 722.04 680.439 776.809C689.385 831.578 684.278 912.274 698.884 912.274C717.588 912.274 725.98 698.055 737.919 747.893C749.857 797.73 763.584 806.846 768.821 749.761C775.327 678.778 786.713 620.871 797.545 690.584C808.377 760.296 809.776 852.499 824.121 852.499C834.888 852.499 847.445 678.18 858.277 718.005C869.109 757.83 878.868 944.627 886.48 887.392C894.059 830.083 914.683 623.411 925.515 673.174C936.347 723.011 945.032 708.068 958.044 680.646C971.056 653.224 978.635 827.617 988.394 805.202C998.153 782.786 1014.42 640.821 1024.18 678.18C1033.93 715.54 1053.45 909.808 1062.14 882.386C1070.82 854.965 1078.4 653.224 1091.41 685.652C1104.43 718.08 1102.25 770.308 1122.84 770.308C1131.52 770.308 1156.44 613.399 1164.05 663.237C1171.66 713.074 1180.84 865.052 1195.51 865.052C1207.22 865.052 1202.01 655.765 1226.96 655.765C1243.23 655.765 1244.01 770.308 1260.57 770.308C1272.5 770.308 1292.02 593.449 1298.53 650.758C1305.03 708.068 1302.85 1001.94 1319.12 1001.94C1334.21 1001.94 1337.56 643.287 1348.39 670.708C1359.23 698.13 1373.34 703.062 1385.25 663.237C1397.16 623.411 1395.01 820.594 1408.02 797.954C1421.03 775.314 1423.21 625.877 1439.48 665.702C1455.74 705.527 1465.47 804.231 1477.05 804.231C1498.35 804.231 1490.71 687.445 1508.63 687.445C1532.71 687.445 1527.31 975.411 1544.16 975.411C1563.09 975.411 1569.59 628.343 1589.11 675.64C1608.63 722.937 1608.63 792.724 1622.71 792.724C1636.8 792.724 1647.66 618.405 1655.24 705.527C1662.82 792.724 1668.25 929.683 1689.95 822.611C1711.65 715.54 1709.08 723.983 1717.41 757.083C1722.94 779.05 1778.04 676.312 1814.67 604.433V583.512H1814.64Z" fill="url(#paint7_linear_255_30882)"/>
</g>
<path opacity="0.44" d="M1545.48 583.512H699.12C694.643 587.035 690.779 590.391 688.266 593.104V599.619C695.192 601.773 713.162 599.312 713.162 599.312C727.733 599.312 728.916 630.353 741.987 630.353C752.017 630.353 754.129 615.671 766.799 615.671C776.935 615.671 771.023 667.406 785.277 667.406C792.477 667.406 803.395 635.359 809.202 655.857C815.009 676.355 811.694 706.557 821.175 706.557C833.317 706.557 838.766 626.382 846.516 645.034C854.265 663.687 863.177 667.099 866.577 645.734C870.8 619.167 878.191 597.494 885.223 623.585C892.255 649.677 893.163 684.185 902.475 684.185C909.465 684.185 917.616 618.943 924.648 633.848C931.68 648.754 938.015 718.666 942.956 697.245C947.877 675.796 961.265 598.445 968.297 617.07C975.329 635.722 980.967 630.129 989.413 619.866C997.86 609.603 1002.78 674.873 1009.12 666.483C1015.45 658.094 1026.01 604.961 1032.34 618.943C1038.68 632.926 1051.35 705.634 1056.99 695.371C1062.63 685.108 1067.55 609.603 1075.99 621.74C1084.44 633.876 1083.02 653.424 1096.39 653.424C1102.03 653.424 1118.21 594.698 1123.15 613.35C1128.09 632.003 1134.04 688.883 1143.57 688.883C1151.17 688.883 1147.79 610.554 1163.99 610.554C1174.55 610.554 1175.05 653.424 1185.8 653.424C1193.55 653.424 1206.22 587.231 1210.44 608.68C1214.67 630.129 1213.25 740.115 1223.81 740.115C1233.61 740.115 1235.78 605.884 1242.82 616.147C1249.85 626.41 1259.01 628.256 1266.74 613.35C1274.47 598.445 1273.08 672.244 1281.52 663.771C1289.97 655.298 1291.38 599.368 1301.94 614.273C1312.5 629.178 1318.82 666.12 1326.33 666.12C1340.16 666.12 1335.2 622.411 1346.84 622.411C1362.46 622.411 1358.96 730.187 1369.9 730.187C1382.19 730.187 1386.41 600.291 1399.08 617.992C1411.75 635.694 1411.75 661.813 1420.89 661.813C1430.04 661.813 1437.09 596.571 1442.01 629.178C1446.93 661.813 1450.46 713.073 1464.54 672.999C1478.63 632.926 1476.96 636.086 1482.37 648.474C1485.96 656.696 1521.73 618.244 1545.51 591.342V583.512H1545.48Z" fill="#DA4F3A" fill-opacity="0.6"/>
<path d="M3177.99 545.986C3180.1 549.84 3184.03 559.119 3182.89 565.408C3180.08 580.898 3192.5 595.104 3200.13 602.93L3193.43 657.225C3194.47 677.08 3194.97 723.009 3188.62 747.883C3182.27 772.758 3179.2 813.152 3178.46 830.241C3186.9 876.334 3164.76 941.27 3168.48 944.341C3171.46 946.797 3170.01 997.228 3168.91 1022.14C3159.72 1058.42 3140.89 1134.66 3139.09 1149.3C3136.83 1167.6 3129.92 1267.88 3133.05 1272.1C3135.55 1275.48 3129.47 1350.31 3126.12 1387.3C3123.85 1456.18 3118.77 1596.83 3116.61 1608.43C3114.45 1620.03 3116.16 1693.34 3117.28 1728.55L3034.12 1715.53C3038.15 1615.21 3048.71 1396.45 3058.75 1323.9C3068.8 1251.35 3068.53 1115.45 3067.13 1056.57C3064.11 1049.05 3059.08 1032.43 3063.15 1026.1C3068.22 1018.19 3069.85 968.075 3066.73 963.855C3064.23 960.478 3070.88 903.149 3074.51 874.907L3071.57 780.549L3067.41 773.678L3071.32 741.955L3063.72 740.766L3069.65 711.223L3084.04 705.392L3096.08 674.319C3085 660.646 3096.81 642.513 3104.1 635.156C3096.59 618.434 3117.48 600.562 3118.83 593.312C3119.91 587.511 3134.15 581.2 3141.13 578.77L3145.33 563.258L3177.99 545.986Z" fill="#231D1D"/>
<path d="M1543.34 540.283C1536.15 544.382 1497.87 581.046 1497.87 581.046C1513.59 581.046 1497.87 640.607 1497.87 640.607L1513.42 738.484C1505.01 758.494 1515.75 843.151 1527.56 867.355C1539.38 891.559 1545.79 964.508 1543.34 981.545L1552.03 1072.9C1552.03 1072.9 1555.55 1129.63 1552.03 1154.46C1569.04 1189.78 1550.71 1275.38 1552.03 1289.84C1553.68 1307.92 1552.03 1479.09 1552.03 1479.09C1552.03 1479.09 1570.19 1644.68 1569.98 1681.37L1940.28 1681.36C1955.64 1581.31 1950 1402.19 1940.28 1330.64C1930.55 1259.09 1895.83 1201.77 1906.02 1123.47C1916.22 1045.17 1905.97 998.03 1895.83 992.148C1883.14 984.796 1884.81 918.332 1884.81 918.332C1884.81 918.332 1846.8 829.988 1843.81 802.103L1821.3 751.72L1843.81 749.67L1834.5 720.74L1824.16 697.702L1824.16 673.233C1824.16 673.233 1863.1 587.594 1843.81 581.046L1720.05 518.262L1604.23 531.31L1543.34 540.283Z" fill="#231D1D"/>
<path d="M2186.39 492.989C2184.46 496.701 2180.8 505.711 2181.6 512.051C2183.56 527.67 2172.44 541.067 2165.64 548.398L2169.79 602.947C2168.3 622.679 2166.51 668.442 2171.24 693.635C2175.96 718.828 2177.41 759.293 2177.54 776.377C2168.9 821.814 2186.04 887.926 2182.74 890.757C2180.1 893.022 2179.86 943.395 2180.06 968.298C2186.89 1005.05 2200.84 1082.22 2201.96 1096.93C2203.36 1115.31 2206.33 1215.72 2203.51 1219.74C2201.26 1222.95 2204.26 1297.94 2206.05 1335.03C2205.96 1403.84 2206.15 1544.39 2207.67 1556.09C2209.18 1567.79 2205.53 1640.78 2203.52 1675.82L2275.51 1667.97C2275.03 1567.7 2272.44 1348.93 2265.95 1275.97C2259.45 1203.01 2263.73 1067.54 2266.68 1008.92C2269.5 1001.6 2274.32 985.341 2271.01 978.78C2266.88 970.579 2266.97 920.512 2269.78 916.497C2272.04 913.285 2268.01 855.714 2265.72 827.33L2271.06 733.432L2274.85 726.839L2272.42 694.968L2279 694.251L2274.78 664.429L2262.56 657.727L2253.12 626.002C2263.06 613.053 2253.43 594.244 2247.37 586.458C2254.33 570.25 2236.87 551.141 2235.93 543.828C2235.17 537.978 2223.1 530.806 2217.16 527.952L2214.01 512.227L2186.39 492.989Z" fill="#231D1D"/>
<path d="M2804.2 450.771C2808.87 455.926 2817.65 467.859 2815.43 474.358C2809.95 490.367 2837.17 511.312 2853.86 523.18L2841.44 580.607C2844.41 603.067 2847.17 654.22 2834.43 679.159C2821.69 704.098 2816.57 747.622 2815.6 766.267C2835.42 820.92 2790.21 883.702 2798.33 888.662C2804.82 892.63 2803.54 947.963 2802.08 975.133C2783.67 1011.55 2746 1088.24 2742.65 1103.73C2738.47 1123.09 2727.29 1231.43 2734.16 1237.42C2739.66 1242.21 2729.34 1322.68 2723.49 1362.31C2721.13 1437.76 2715.35 1591.65 2711.13 1603.62C2706.91 1615.58 2713.26 1697.62 2716.97 1737.14L2537.78 1687.97C2542.76 1578.38 2557.45 1340.13 2576.39 1263.85C2595.33 1187.57 2589.77 1036.72 2584.62 970.827C2577.85 961.223 2566.44 940.684 2574.94 935.361C2585.56 928.707 2587.23 873.798 2580.36 867.812C2574.86 863.023 2587.05 802.209 2593.84 772.401C2593.84 772.401 2578.76 707.828 2584.07 666.51C2588.18 634.539 2608.11 588.35 2608.11 588.35C2632.54 559.273 2613.88 530.38 2648.65 518.82C2631.91 497.138 2676.15 486.038 2678.79 478.559C2680.9 472.577 2711.26 471.522 2726.18 471.743L2734.63 456.289L2804.2 450.771Z" fill="#231D1D"/>
<path d="M1941.6 539.338C1937.46 539.338 1927.58 564.875 1923.15 577.643C1934.71 582.308 1957.54 593.848 1956.36 602.688C1955.18 611.527 1979.97 619.63 1992.52 622.577C2003.34 623.068 2024.84 621.693 2024.25 612.264C2023.51 600.478 2029.41 584.272 2039.01 581.326C2046.68 578.968 2057.95 577.888 2062.62 577.643C2054.01 560.455 2036.79 525.047 2036.79 520.923C2036.79 516.798 2010.72 494.65 1997.68 484.091L1982.92 497.35C1984.89 493.667 1987.65 485.859 1982.92 484.091C1978.2 482.323 1955.86 507.909 1945.29 520.923C1945.78 527.061 1945.73 539.338 1941.6 539.338Z" fill="url(#paint8_linear_255_30882)"/>
<path d="M1101.48 524.657C1097.35 524.657 1087.46 550.193 1083.04 562.962C1094.6 567.627 1117.42 579.167 1116.24 588.006C1115.06 596.846 1139.86 604.949 1152.4 607.895C1163.23 608.386 1184.73 607.011 1184.14 597.582C1183.4 585.796 1189.3 569.59 1198.9 566.644C1206.57 564.287 1217.84 563.207 1222.51 562.962C1213.9 545.773 1196.68 510.365 1196.68 506.241C1196.68 502.116 1170.61 479.968 1157.57 469.409L1142.81 482.668C1144.78 478.985 1147.53 471.177 1142.81 469.409C1138.09 467.641 1115.75 493.227 1105.17 506.241C1105.67 512.38 1105.62 524.657 1101.48 524.657Z" fill="url(#paint9_linear_255_30882)"/>
<path d="M1180.26 500.126C1174.2 500.126 1159.68 537.68 1153.18 556.457C1170.15 563.317 1203.66 580.288 1201.93 593.287C1200.19 606.287 1236.59 618.203 1255.01 622.536C1270.89 623.258 1302.45 621.236 1301.58 607.37C1300.5 590.037 1309.17 566.205 1323.25 561.872C1334.51 558.406 1351.05 556.818 1357.91 556.457C1345.27 531.18 1320 479.11 1320 473.044C1320 466.979 1281.72 434.407 1262.59 418.88L1240.92 438.378C1243.81 432.962 1247.86 421.48 1240.92 418.88C1233.99 416.28 1201.21 453.906 1185.68 473.044C1186.4 482.071 1186.33 500.126 1180.26 500.126Z" fill="url(#paint10_linear_255_30882)"/>
<path d="M3410.23 542.425C3401.24 542.425 3379.73 570.515 3370.1 584.56C3395.25 589.691 3444.91 602.386 3442.34 612.109C3439.77 621.833 3493.71 630.746 3521 633.987C3544.55 634.527 3591.32 633.015 3590.04 622.643C3588.43 609.678 3601.27 591.852 3622.14 588.61C3638.84 586.018 3663.35 584.83 3673.52 584.56C3654.79 565.653 3617.33 526.704 3617.33 522.167C3617.33 517.63 3560.6 493.267 3532.24 481.652L3500.13 496.237C3504.42 492.186 3510.41 483.597 3500.13 481.652C3489.86 479.708 3441.27 507.852 3418.26 522.167C3419.33 528.92 3419.22 542.425 3410.23 542.425Z" fill="url(#paint11_linear_255_30882)"/>
<path d="M3827.39 698.794C3827.07 730.041 3666.76 804.879 3647 810.358L4721 810.358L4721 82.9965L4673 82.9965C4673 82.9965 4161.15 179.598 4053.6 201.218C3964.44 182.119 3859.56 658.405 3827.47 690.272L3827.39 698.794Z" fill="#231A1A"/>
<path d="M666.242 137.35C642.73 123.472 7.38785 -20.1095 -47.6063 2.99929L-47.6063 903L917 903L831.001 693.619C831.001 634.893 700.499 212.389 762.488 121.037C775.54 101.802 695.632 154.698 666.242 137.35Z" fill="#231A1A"/>
<defs>
<linearGradient id="paint0_linear_255_30882" x1="2443.33" y1="717.541" x2="2431.9" y2="1587.94" gradientUnits="userSpaceOnUse">
<stop stop-color="#943A2D"/>
<stop offset="0.95" stop-color="#A52212"/>
</linearGradient>
<linearGradient id="paint1_linear_255_30882" x1="3844.4" y1="576.172" x2="3844.4" y2="994.596" gradientUnits="userSpaceOnUse">
<stop stop-color="#DD462F"/>
<stop offset="1" stop-color="#9C2F1F"/>
</linearGradient>
<linearGradient id="paint2_linear_255_30882" x1="2441.49" y1="583.512" x2="2441.49" y2="1001.94" gradientUnits="userSpaceOnUse">
<stop stop-color="#C53F2A"/>
<stop offset="1" stop-color="#772619"/>
</linearGradient>
<linearGradient id="paint3_linear_255_30882" x1="2441.49" y1="583.512" x2="2441.49" y2="1001.94" gradientUnits="userSpaceOnUse">
<stop stop-color="#C53F2A"/>
<stop offset="1" stop-color="#772619"/>
</linearGradient>
<linearGradient id="paint4_linear_255_30882" x1="2441.49" y1="583.512" x2="2441.49" y2="1001.94" gradientUnits="userSpaceOnUse">
<stop stop-color="#C53F2A"/>
<stop offset="1" stop-color="#772619"/>
</linearGradient>
<linearGradient id="paint5_linear_255_30882" x1="1154.41" y1="583.512" x2="1154.41" y2="1001.94" gradientUnits="userSpaceOnUse">
<stop stop-color="#C53F2A"/>
<stop offset="1" stop-color="#772619"/>
</linearGradient>
<linearGradient id="paint6_linear_255_30882" x1="1154.41" y1="583.512" x2="1154.41" y2="1001.94" gradientUnits="userSpaceOnUse">
<stop stop-color="#C53F2A"/>
<stop offset="1" stop-color="#772619"/>
</linearGradient>
<linearGradient id="paint7_linear_255_30882" x1="1154.41" y1="583.512" x2="1154.41" y2="1001.94" gradientUnits="userSpaceOnUse">
<stop stop-color="#C53F2A"/>
<stop offset="1" stop-color="#772619"/>
</linearGradient>
<linearGradient id="paint8_linear_255_30882" x1="1992.89" y1="484.004" x2="1992.89" y2="622.663" gradientUnits="userSpaceOnUse">
<stop stop-color="#181818"/>
<stop offset="1" stop-color="#2E2D2D"/>
</linearGradient>
<linearGradient id="paint9_linear_255_30882" x1="1152.77" y1="469.322" x2="1152.77" y2="607.981" gradientUnits="userSpaceOnUse">
<stop stop-color="#181818"/>
<stop offset="1" stop-color="#2E2D2D"/>
</linearGradient>
<linearGradient id="paint10_linear_255_30882" x1="1255.55" y1="418.752" x2="1255.55" y2="622.662" gradientUnits="userSpaceOnUse">
<stop stop-color="#181818"/>
<stop offset="1" stop-color="#2E2D2D"/>
</linearGradient>
<linearGradient id="paint11_linear_255_30882" x1="3521.81" y1="481.557" x2="3521.81" y2="634.082" gradientUnits="userSpaceOnUse">
<stop stop-color="#181818"/>
<stop offset="1" stop-color="#2E2D2D"/>
</linearGradient>
</defs>
</svg>
