<svg width="4682" height="1734" viewBox="0 0 4682 1734" fill="none" xmlns="http://www.w3.org/2000/svg">
<path d="M87.727 775.053L4.75781 780.786V988.606H3294.24V808.018H3264.96L3211.27 815.184L3167.35 829.516H3138.06V835.249L3099.02 842.415L3074.62 835.249H3055.1L3040.45 842.415L2981.89 835.249L2933.08 829.516H2884.28L2845.23 835.249H2815.95L2776.91 829.516L2757.38 825.216H2674.41L2640.25 815.184L2606.09 808.018L2596.32 800.851H2552.4H2503.59L2479.19 786.519L2435.27 775.053L2405.98 769.32V763.587L2371.82 754.988L2303.49 760.721L2249.81 747.821L2220.52 750.688L2196.12 753.554L2161.96 759.287L2137.55 760.721L2108.27 763.587L2078.99 759.287L2035.06 747.821L2030.18 744.955L2015.54 747.821L2005.78 739.222L1996.02 736.355C1996.02 739.222 1846.33 744.955 1810.56 734.941V742.088L1795.92 749.255L1781.27 754.988H1771.51H1756.87L1751.99 760.721L1737.35 769.32L1708.07 776.486H1649.5L1600.69 789.385L1590.93 790.819H1542.13L1527.49 795.118H1493.32L1488.44 792.252L1449.4 786.519V783.652H1410.35L1395.71 786.519L1356.67 790.819L1346.91 783.652L1302.98 786.519V783.652H1259.06L1244.42 780.786L1171.21 786.519L1151.68 792.252H1034.55L985.747 780.786L961.344 775.053L883.255 769.32L863.733 757.854L800.286 763.587H785.644L727.078 757.854L595.303 780.786L439.126 783.652H351.276L292.71 786.519V783.652H268.307L258.546 780.786L234.143 786.519L136.532 775.053H87.727Z" fill="#241E1E"/>
<path d="M2272.02 775.053L2189.05 780.786V988.606H5478.53V808.018H5449.25L5395.56 815.184L5351.64 829.516H5322.35V835.249L5283.31 842.415L5258.91 835.249H5239.38L5224.74 842.415L5166.18 835.249L5117.37 829.516H5068.57L5029.52 835.249H5000.24L4961.19 829.516L4941.67 825.216H4858.7L4824.54 815.184L4790.38 808.018L4780.61 800.851H4736.69H4687.88L4663.48 786.519L4619.56 775.053L4590.27 769.32V763.587L4556.11 754.988L4487.78 760.721L4434.1 747.821L4404.81 750.688L4380.41 753.554L4346.25 759.287L4321.84 760.721L4292.56 763.587L4263.28 759.287L4219.35 747.821L4214.47 744.955L4199.83 747.821L4190.07 739.222L4180.31 736.355C4180.31 739.222 4030.62 744.955 3994.85 734.941V742.088L3980.21 749.255L3965.56 754.988H3955.8H3941.16L3936.28 760.721L3921.64 769.32L3892.36 776.486H3833.79L3784.98 789.385L3775.22 790.819H3726.42L3711.78 795.118H3677.61L3672.73 792.252L3633.69 786.519V783.652H3594.64L3580 786.519L3540.96 790.819L3531.2 783.652L3487.27 786.519V783.652H3443.35L3428.7 780.786L3355.5 786.519L3335.97 792.252H3218.84L3170.04 780.786L3145.63 775.053L3067.54 769.32L3048.02 757.854L2984.58 763.587H2969.93L2911.37 757.854L2779.59 780.786L2623.42 783.652H2535.57L2477 786.519V783.652H2452.6L2442.83 780.786L2418.43 786.519L2320.82 775.053H2272.02Z" fill="#241E1E"/>
<rect x="437.867" y="963.322" width="3895.51" height="234.905" fill="url(#paint0_linear_255_30886)"/>
<path d="M4109.49 938.22L4164.27 934.714C4175.35 935.055 4200.33 935.388 4211.64 933.988C4222.96 932.589 4250.9 934.47 4263.45 935.585C4271.73 934.926 4317.17 942.326 4298.47 933.384C4307.33 932.381 4330.24 930.535 4350.96 931.174C4371.68 931.813 4365.37 927.061 4359.62 924.606C4376.4 921.405 4363.04 917.33 4354.26 915.692C4334.39 914.326 4273.36 909.43 4325.81 905.794C4323.39 905.173 4325.19 904.135 4351.77 904.954C4378.35 905.773 4368.53 903.648 4360.3 902.483C4356.37 901.997 4345.48 900.331 4333.39 897.553C4321.31 894.775 4351.76 892.925 4368.5 892.347C4368.5 892.347 4327.27 884.572 4326.79 874.186C4326.22 862.038 4368.18 866.012 4390.53 861.119C4402.25 858.553 4371.79 848.959 4383.51 846.389C4404.15 841.859 4528.9 815.848 4507.34 811.33C4420.38 793.099 4729.1 716.05 4729.1 716.05L4688.82 1125.3L4661.21 1125L4660.14 1123.32L4650.6 1121.94L4624.03 1124.4L4611.74 1120.74L4596.53 1120.27L4590.84 1122.28C4591.79 1121.67 4591.45 1120.55 4582.42 1120.93C4568.73 1121.5 4556.14 1116.64 4541.41 1116.66C4531.77 1109.18 4496.54 1113.77 4481.85 1110.45C4472.89 1108.42 4460.42 1110.52 4455.31 1111.82C4431.91 1117.02 4419.38 1118.7 4393.67 1118.39C4382.64 1118.26 4356.83 1116.31 4352.1 1113.83L4345.41 1111.16C4336.13 1108.4 4330.08 1115.3 4320.04 1111.48L4286.33 1107.7C4274.39 1105.15 4247.82 1099.08 4237.11 1095.25C4226.41 1091.42 4208.99 1093.29 4201.62 1094.7C4193.27 1097.45 4174.53 1102.95 4166.42 1102.91C4158.3 1102.88 4131.94 1099.76 4119.78 1098.2C4099.04 1095.72 4078.52 1098.17 4061.37 1091.2L4001.45 1078.42L3978.91 1078.27C3972.94 1081.59 3920.73 1082.13 3895.37 1081.98C3868.67 1078.56 3835.1 1073.88 3809.79 1078.53C3804.64 1079.01 3772.62 1082.77 3771.45 1078.99C3770.38 1079.47 3754.09 1074.31 3753.58 1073.51C3751.27 1069.91 3717.85 1069.63 3710.34 1068.35C3582.9 1087.5 3376.92 1038.8 3282.28 1057.35C3279.26 1057.8 3269.94 1058.88 3256.84 1059.57C3243.75 1060.26 3233.43 1057.3 3229.91 1055.74L3169.75 1050.6C3148.14 1044.12 3127.73 1054.6 3103.15 1053.47C3058.58 1051.42 2953.57 1030.29 2913.54 1041.88C2907.11 1049.34 2882.96 1046.68 2876.76 1046.49C2870.57 1046.3 2846.14 1052.38 2843.87 1052.86C2841.6 1053.34 2783.19 1046.62 2788.24 1047.32C2793.29 1048.02 2791.79 1060.28 2791.64 1064.92C2791.5 1069.56 2776.33 1068 2772.29 1070.88C2769.07 1073.19 2758.96 1070.75 2754.31 1069.24C2746.56 1071.84 2724.28 1061.84 2714.11 1056.51C2706.68 1059.84 2676.87 1057.83 2665.59 1058.03C2654.31 1058.23 2622.09 1043.02 2621.89 1049.3C2621.74 1054.32 2574.52 1049.93 2550.94 1047.11L2555.57 896.619C2570.09 893.786 2614.1 899.79 2634.29 903.146C2676.82 907.008 2764.27 914.314 2773.79 912.639C2785.69 910.546 2941.34 926.551 2941.86 927.934C2942.38 929.317 3050.28 940.024 3062.75 937.674C3075.22 935.325 3178.64 945.073 3177.99 947.787C3177.47 949.958 3210.38 951.519 3226.9 952.028C3256.95 952.59 3318.02 954.673 3321.96 958.512C3325.9 962.351 3366.73 963.081 3386.65 962.966C3398.1 963.319 3421.99 964.766 3425.96 967.732C3429.93 970.697 3455.4 969.824 3467.63 969.016C3485.15 969.556 3497.48 972.961 3517.13 972.456C3541.74 972.576 3591.39 973.541 3593.11 976.437C3594.82 979.333 3627.99 977.512 3642.15 976.308C3655.2 975.2 3680.63 977.676 3692.89 975.958C3724.81 982.957 3769.04 974.204 3793.88 973.056C3818.72 971.908 3882.8 977.71 3883.98 975.833C3885.17 973.955 3945.52 972.808 3955.59 975.305C3960.7 976.572 3983.97 972.319 3976.06 969.375C3965.81 965.559 3998.17 965.499 4015.63 965.946C4020.32 965.909 4027.72 964.788 4019.74 960.605C4011.22 956.143 4099.33 956.01 4069.61 951.754C4052.1 949.246 4073.35 946.492 4086.15 945.429C4097.23 945.861 4116.8 945.936 4106.53 942.776C4096.25 939.616 4104.22 938.422 4109.49 938.22Z" fill="url(#paint1_linear_255_30886)"/>
<path d="M-48 1051H4712V1207H-48V1051Z" fill="url(#paint2_linear_255_30886)"/>
<rect x="5" y="1203" width="4677" height="531" fill="#A53726"/>
<path d="M1981.94 1140.04C1931.85 1111.99 2135.01 1108.97 1937.58 1089.79C1898.09 1085.96 1772.91 1095.05 1744.17 1089.79C1691.11 1080.1 2048.74 1054.51 1705.13 1054.51L-7 1054.51V1203.12H3103.38C3103.38 1203.12 3070.51 1175.87 2802.01 1162.79C2523.26 1149.21 2049.5 1177.88 1981.94 1140.04Z" fill="#B13C2A"/>
<path d="M1967.94 1266.08C1917.85 1294.13 2121.01 1297.15 1923.58 1316.33C1884.09 1320.16 1758.91 1311.07 1730.17 1316.33C1677.11 1326.02 2034.74 1351.61 1691.13 1351.61L-21 1351.61V1203H3089.38C3089.38 1203 3056.51 1230.25 2788.01 1243.33C2509.26 1256.91 2035.5 1228.24 1967.94 1266.08Z" fill="#B13C2A"/>
<path d="M513.232 941.927L463.562 937.995C453.52 938.257 430.869 938.407 420.61 936.915C410.351 935.424 385.016 937.109 373.63 938.138C366.131 937.414 324.909 944.52 341.884 935.665C333.85 934.591 313.085 932.565 294.293 933.054C275.501 933.543 281.237 928.811 286.454 926.384C271.241 923.04 283.367 919.04 291.332 917.458C309.351 916.23 364.697 911.758 317.139 907.713C319.338 907.106 317.709 906.048 293.606 906.675C269.503 907.303 278.409 905.238 285.875 904.127C289.44 903.668 299.312 902.073 310.279 899.367C321.246 896.662 293.632 894.576 278.454 893.872C278.454 893.872 315.852 886.356 316.311 875.914C316.849 863.699 278.797 867.386 258.54 862.299C247.918 859.631 275.548 850.207 264.93 847.535C246.217 842.827 133.151 815.742 152.705 811.356C231.594 793.663 -48.2058 713.884 -48.2058 713.884L-12.4004 1125.81L12.636 1125.71L13.6144 1124.03L22.2669 1122.71L46.3535 1125.38L57.5021 1121.79L71.2897 1121.43L76.4534 1123.5C75.5856 1122.88 75.897 1121.75 84.0846 1122.2C96.4987 1122.88 107.924 1118.08 121.284 1118.21C130.038 1110.76 161.974 1115.64 175.299 1112.4C183.423 1110.43 194.723 1112.63 199.357 1113.98C220.564 1119.38 231.926 1121.17 255.24 1121.05C265.239 1120.99 288.641 1119.23 292.942 1116.76L299.006 1114.13C307.432 1111.42 312.904 1118.41 322.014 1114.63L352.582 1111.09C363.418 1108.61 387.52 1102.7 397.233 1098.93C406.946 1095.15 422.737 1097.16 429.419 1098.64C436.987 1101.47 453.963 1107.13 461.323 1107.16C468.682 1107.19 492.588 1104.24 503.621 1102.76C522.428 1100.42 541.03 1103.04 556.593 1096.15L610.947 1083.74L631.388 1083.76C636.79 1087.14 684.133 1088.07 707.129 1088.11C731.344 1084.87 761.795 1080.41 784.727 1085.27C789.404 1085.79 818.425 1089.81 819.495 1086.01C820.466 1086.5 835.242 1081.43 835.707 1080.64C837.812 1077.03 868.111 1077 874.927 1075.77C990.446 1095.97 1177.3 1048.5 1263.08 1067.87C1265.82 1068.34 1274.26 1069.5 1286.14 1070.29C1298.02 1071.08 1307.38 1068.18 1310.57 1066.63L1365.13 1061.91C1384.73 1055.55 1403.22 1066.24 1425.51 1065.29C1465.93 1063.55 1561.18 1043.08 1597.45 1055.04C1603.27 1062.58 1625.18 1060.09 1630.8 1059.94C1636.41 1059.8 1658.55 1066.1 1660.61 1066.59C1662.66 1067.09 1715.64 1060.76 1711.06 1061.43C1706.48 1062.1 1707.82 1074.44 1707.95 1079.11C1708.07 1083.78 1721.83 1082.32 1725.48 1085.25C1728.4 1087.59 1737.57 1085.21 1741.79 1083.73C1748.81 1086.4 1769.03 1076.51 1778.26 1071.23C1784.99 1074.63 1812.03 1072.82 1822.25 1073.11C1832.48 1073.39 1861.73 1058.33 1861.89 1064.65C1862.02 1069.71 2039.6 1042.66 2060.99 1039.99L1922.29 911.574C1909.13 908.617 1869.22 914.33 1850.91 917.557C1812.34 921.127 1733.03 927.829 1724.4 926.074C1713.61 923.88 1572.46 938.828 1571.98 940.215C1571.51 941.602 1473.65 951.573 1462.35 949.118C1451.04 946.663 1357.25 955.703 1357.83 958.437C1358.3 960.625 1328.46 961.952 1313.48 962.342C1286.23 962.684 1230.85 964.327 1227.27 968.16C1223.69 971.993 1186.67 972.425 1168.61 972.162C1158.23 972.432 1136.56 973.711 1132.96 976.664C1129.36 979.618 1106.26 978.551 1095.17 977.648C1079.28 978.062 1068.1 981.395 1050.28 980.741C1027.97 980.681 982.946 981.284 981.386 984.184C979.827 987.084 949.753 985.007 936.917 983.692C925.088 982.48 902.027 984.784 890.908 982.965C861.958 989.768 821.862 980.637 799.343 979.299C776.824 977.96 718.71 983.322 717.638 981.425C716.567 979.529 661.848 977.928 652.714 980.365C648.078 981.602 626.979 977.152 634.158 974.249C643.463 970.487 614.123 970.188 598.291 970.508C594.031 970.436 587.323 969.254 594.573 965.106C602.307 960.681 522.414 959.895 549.364 955.834C565.245 953.441 545.989 950.514 534.376 949.35C524.336 949.703 506.585 949.634 515.907 946.531C525.228 943.429 518.007 942.169 513.232 941.927Z" fill="url(#paint3_linear_255_30886)"/>
<g opacity="0.9">
<rect x="2188.23" y="644.088" width="362.422" height="149.452" fill="url(#paint4_linear_255_30886)"/>
<rect x="2195.71" y="565.628" width="343.741" height="48.5721" fill="#191919"/>
<path d="M2195.71 612.33L2188.23 644.089H2550.66L2539.45 612.33H2195.71Z" fill="url(#paint5_linear_255_30886)"/>
<path d="M2535.71 556.286L2539.45 563.758H2195.71L2197.58 556.286H2535.71Z" fill="url(#paint6_linear_255_30886)"/>
<path d="M2533.84 515.186V550.681V554.417H2201.31V518.923C2199.82 512.944 2204.43 511.45 2206.92 511.45H2242.41L2270.43 475.955L2277.91 461.01H2290.98V449.801L2322.74 276.062L2328.35 272.326L2350.76 7.04784L2361.97 3.31152L2360.96 186.391H2371.31L2375.05 177.05L2380.65 186.391H2388.98L2390 3.31152L2399.34 7.04784L2419.89 272.326L2427.36 276.062L2460.99 459.142V461.01H2462.85L2474.06 475.955L2498.35 509.582H2526.37C2532.35 509.582 2533.84 513.318 2533.84 515.186Z" fill="url(#paint7_linear_255_30886)"/>
<path d="M2474.06 475.955L2498.35 509.582C2505.2 509.582 2520.39 509.582 2526.37 509.582C2532.35 509.582 2533.84 513.318 2533.84 515.186V550.681V554.417H2201.31V518.923C2199.82 512.944 2204.43 511.45 2206.92 511.45H2242.41L2270.43 475.955M2474.06 475.955H2270.43M2474.06 475.955L2462.85 461.01H2460.99M2270.43 475.955L2277.91 461.01H2290.98M2290.98 461.01V449.801L2322.74 276.062L2328.35 272.326L2350.76 7.04784L2361.97 3.31152L2360.96 186.391M2290.98 461.01H2460.99M2460.99 461.01V459.142L2427.36 276.062L2419.89 272.326L2399.34 7.04784L2390 3.31152L2388.98 186.391M2388.98 186.391L2388.13 339.58H2360.1L2360.96 186.391M2388.98 186.391H2380.65L2375.05 177.05L2371.31 186.391H2360.96M2188.23 644.089L2195.71 612.33H2539.45L2550.66 644.089H2188.23ZM2539.45 563.758L2535.71 556.286H2197.58L2195.71 563.758H2539.45Z" stroke="#313030" stroke-width="3.26257"/>
<path d="M2330.22 343.318L2313.4 459.144H2432.96L2418.02 343.318H2330.22Z" fill="#272323" stroke="#191919" stroke-width="4.2168"/>
<path d="M2289.71 476.312C2289.71 470.846 2301.46 470.847 2301.46 476.312V795.851H2289.71V476.312Z" fill="#272323"/>
<path d="M2322.82 476.312C2322.82 470.846 2334.57 470.847 2334.57 476.312V795.851H2322.82V476.312Z" fill="#272323"/>
<path d="M2410.4 476.312C2410.4 470.846 2422.15 470.847 2422.15 476.312V795.851H2410.4V476.312Z" fill="#272323"/>
<path d="M2444.58 476.312C2444.58 470.846 2456.33 470.847 2456.33 476.312V795.851H2444.58V476.312Z" fill="#272323"/>
<path d="M2366.69 481.044C2366.69 473.312 2379.27 472.025 2379.27 481.044L2388.07 1050.6H2357.89L2366.69 481.044Z" fill="url(#paint8_linear_255_30886)"/>
<ellipse cx="2346.04" cy="416.938" rx="3.73631" ry="24.286" fill="#D85B44"/>
<ellipse cx="2372.19" cy="416.938" rx="3.73631" ry="24.286" fill="#D85B44"/>
<ellipse cx="2398.34" cy="416.938" rx="3.73631" ry="24.286" fill="#D85B44"/>
</g>
<defs>
<linearGradient id="paint0_linear_255_30886" x1="2664.57" y1="963.322" x2="2664.57" y2="1118.66" gradientUnits="userSpaceOnUse">
<stop stop-color="#241E1E"/>
<stop offset="0.8" stop-color="#422525"/>
</linearGradient>
<linearGradient id="paint1_linear_255_30886" x1="2564.23" y1="914.459" x2="2560.73" y2="1049.85" gradientUnits="userSpaceOnUse">
<stop stop-color="#241E1E"/>
<stop offset="1" stop-color="#352323"/>
</linearGradient>
<linearGradient id="paint2_linear_255_30886" x1="2206.74" y1="1238.2" x2="2213.48" y2="1049.21" gradientUnits="userSpaceOnUse">
<stop stop-color="#962514"/>
<stop offset="1" stop-color="#B34737"/>
</linearGradient>
<linearGradient id="paint3_linear_255_30886" x1="1924.6" y1="953.941" x2="1927.03" y2="1040.4" gradientUnits="userSpaceOnUse">
<stop stop-color="#241E1E"/>
<stop offset="1" stop-color="#352323"/>
</linearGradient>
<linearGradient id="paint4_linear_255_30886" x1="2369.45" y1="644.088" x2="2369.45" y2="793.54" gradientUnits="userSpaceOnUse">
<stop stop-color="#191919"/>
<stop offset="1" stop-color="#272323"/>
</linearGradient>
<linearGradient id="paint5_linear_255_30886" x1="2369.45" y1="3.31152" x2="2369.45" y2="644.089" gradientUnits="userSpaceOnUse">
<stop stop-color="#191919"/>
<stop offset="1" stop-color="#1E1D1D"/>
</linearGradient>
<linearGradient id="paint6_linear_255_30886" x1="2369.45" y1="3.31152" x2="2369.45" y2="644.089" gradientUnits="userSpaceOnUse">
<stop stop-color="#191919"/>
<stop offset="1" stop-color="#1E1D1D"/>
</linearGradient>
<linearGradient id="paint7_linear_255_30886" x1="2369.45" y1="3.31152" x2="2369.45" y2="644.089" gradientUnits="userSpaceOnUse">
<stop stop-color="#191919"/>
<stop offset="1" stop-color="#1E1D1D"/>
</linearGradient>
<linearGradient id="paint8_linear_255_30886" x1="2372.98" y1="481.045" x2="2372.98" y2="1050.6" gradientUnits="userSpaceOnUse">
<stop stop-color="#E85337"/>
<stop offset="1" stop-color="#CC4935"/>
</linearGradient>
</defs>
</svg>
