<svg width="4682" height="1518" viewBox="0 0 4682 1518" fill="none" xmlns="http://www.w3.org/2000/svg">
<path d="M1399.37 467.234L1355.2 426.11C1329.79 409.633 1291.34 401.462 1291.34 401.462C1256.78 393.35 1240.41 364.988 1223.12 367.21C1194.65 370.868 1220.01 330.982 1174.56 340.359L1154.81 334.151L1143.04 334.009L1130.96 314.762L1115.83 314.579L1087.28 290.357C1080.55 290.276 1066.37 281.509 1063.45 247.093C1056.68 239.848 1041.4 226.054 1034.47 228.835C1027.54 231.616 1016.33 239.359 1011.59 242.883L997.227 231.965L975.37 231.7C967.019 222.403 971.504 197.034 947.586 196.744C929.893 196.53 926.104 194.106 918.278 206.537C913.334 205.084 902.377 203.002 898.103 206.293C892.76 210.407 883.626 207.193 866.358 214.862C854.921 219.942 850.509 207.011 841.78 205.611C834.243 205.52 814.924 206.874 808.782 208.197C799.564 210.182 764.319 187.961 759.754 187.906C755.188 187.851 738.268 194.212 738.268 194.212C733.783 196.887 701.453 178.694 699.157 176.428C696.579 172.196 691.119 166.449 689.04 164.965C685.777 162.634 681.588 151.544 677.712 146.921L686.133 135.085C677.259 121.812 676.168 119.479 653.875 115.594L638.13 100.481C638.892 89.8536 621.186 103.816 612.412 95.3946C598.3 81.8485 590.632 77.6299 578.858 70.5159C574.825 68.0795 556.289 68.4521 555.904 73.8195C540.916 68.9755 497.579 61.1314 481.729 63.9677C448.679 69.8815 418.078 94.2181 409.792 116.818L401.414 128.058L390.216 143.443C374.685 164.776 376.587 172.143 345.321 182.892L318.265 208.231C316.242 212.981 310.548 221.984 303.96 219.995C280.671 212.961 266.439 162.153 240.113 148.191L199.791 159.046L192.254 170.295L184.176 177.36L170.84 187.347L158.131 200.325L145.593 210.916L119.89 229.109L110.643 228.997L98.1907 238.396L92.7195 244.299L81.7914 244.167L59.5365 261.208L59.0238 268.364L35.1728 284.192C28.2722 290.475 11.8152 302.533 1.19182 300.494C-9.43156 298.455 -35.4537 318.753 -47.1368 329.157C-50.5466 333.692 -59.5692 342.974 -68.3801 343.823C-76.3948 344.594 -100.261 365.429 -99.9388 373.286L-114.572 377.884L-129.589 387.849L-136.042 407.469C-152.831 414.115 -174.185 431.48 -193.276 431.249C-200.542 438.722 -216.42 453.651 -221.8 453.586C-227.18 453.521 -252.556 467.937 -264.572 475.154L-283.536 481.49L-297 493.265L-245.422 489.711L-164.721 490.687C-153.793 490.819 -114.825 487.113 -122.69 491.196C-130.555 495.279 -93.8657 499.901 -79.2759 495.899C-64.686 491.898 -21.5146 488.242 -26.8575 492.355C-32.2003 496.469 23.5805 492.965 29.4649 493.037C35.3494 493.108 49.3122 486.114 75.1154 490.008C100.919 493.901 138.491 497.937 143.791 494.42C148.031 491.606 183.667 493.708 200.954 495.111C222.896 494.183 263.922 492.292 252.489 492.154C238.199 491.981 300.918 485.577 318.486 486.983C336.054 488.389 374.381 493.628 385.31 493.76C396.238 493.893 437.685 490.813 457.604 494.635C465.312 492.739 486.108 489.011 507.629 489.271C534.529 489.597 576.133 496.069 585.38 496.181C594.627 496.293 618.592 490.614 653.058 491.031C687.524 491.448 729.556 491.956 745.87 487.379C748.458 486.652 750.283 486.076 751.509 485.624C766.533 490.032 802.334 496.323 852.289 493.441C863.92 491.592 892.813 489.156 915.336 494.204C935.022 493.447 978.218 492.577 993.515 495.15C1012.64 498.366 1089.56 493.327 1107.39 491.156C1125.21 488.984 1183.34 487.896 1203.17 492.911C1219.04 496.923 1264.18 494.843 1284.76 493.302C1298.36 495.257 1329.26 499.212 1344.06 499.391C1358.85 499.57 1385.76 496.712 1397.36 495.261L1399.37 467.234Z" fill="url(#paint0_linear_255_30890)"/>
<path d="M2096.88 588.996L2058.72 491.538C2033.31 475.061 1994.86 466.89 1994.86 466.89C1960.3 458.778 1943.93 430.416 1926.64 432.638C1898.17 436.296 1923.53 396.41 1878.08 405.787L1858.33 399.579L1846.57 399.436L1834.48 380.19L1819.35 380.007L1790.8 355.785C1784.07 355.704 1769.89 346.937 1766.97 312.521C1760.2 305.276 1744.92 291.482 1737.99 294.263C1731.06 297.044 1719.85 304.787 1715.11 308.311L1700.75 297.393L1678.89 297.128C1670.54 287.831 1675.03 262.462 1651.11 262.172C1633.42 261.958 1629.63 259.534 1621.8 271.965C1616.86 270.512 1605.9 268.43 1601.62 271.721C1596.28 275.835 1587.15 272.621 1569.88 280.29C1558.44 285.37 1554.03 272.438 1545.3 271.039C1537.77 270.948 1518.45 272.302 1512.3 273.625C1503.09 275.61 1467.84 253.389 1463.28 253.334C1458.71 253.279 1441.79 259.64 1441.79 259.64C1437.3 262.315 1404.97 244.122 1402.68 241.856C1400.1 237.624 1394.64 231.877 1392.56 230.393C1389.3 228.062 1385.11 216.972 1381.23 212.349L1389.65 200.513C1380.78 187.239 1379.69 184.907 1357.4 181.022L1341.65 165.909C1342.41 155.282 1324.71 169.244 1315.93 160.823C1301.82 147.276 1294.15 143.058 1282.38 135.944C1278.35 133.507 1259.81 133.88 1259.43 139.247C1244.44 134.403 1201.1 126.559 1185.25 129.396C1152.2 135.309 1121.6 159.646 1113.31 182.246L1104.94 193.486L1093.74 208.87C1078.21 230.204 1080.11 237.571 1048.84 248.32L1021.79 273.659C1019.76 278.409 1014.07 287.412 1007.48 285.423C984.193 278.389 969.961 227.581 943.635 213.619L903.313 224.473L895.776 235.723L887.698 242.787L874.362 252.775L861.653 265.753L849.115 276.344L823.412 294.537L814.165 294.425L801.712 303.824L796.241 309.727L785.313 309.595L763.058 326.636L762.545 333.792L738.695 349.62C731.794 355.903 715.337 367.96 704.713 365.922C694.09 363.883 668.068 384.181 656.385 394.585C652.975 399.12 643.952 408.402 635.142 409.25C627.127 410.022 603.26 430.857 603.583 438.713L588.95 443.312L573.933 453.277L567.479 472.897C550.691 479.543 529.337 496.908 510.246 496.677C502.979 504.15 487.102 519.079 481.722 519.014C476.342 518.949 450.965 533.365 438.95 540.582L419.986 546.918L406.522 558.693L458.099 555.139L538.8 556.115C549.729 556.247 588.697 552.541 580.832 556.624C572.967 560.707 609.656 565.329 624.246 561.327C638.836 557.325 682.007 553.67 676.664 557.783C671.321 561.897 727.102 558.393 732.986 558.465C738.871 558.536 752.834 551.542 778.637 555.435C804.44 559.329 842.013 563.365 847.313 559.848C851.553 557.034 887.188 559.136 904.476 560.539C926.418 559.611 967.444 557.72 956.011 557.581C941.72 557.409 1004.44 551.005 1022.01 552.411C1039.58 553.817 1077.9 559.056 1088.83 559.188C1099.76 559.321 1141.21 556.241 1161.13 560.063C1168.83 558.167 1189.63 554.439 1211.15 554.699C1238.05 555.025 1279.65 561.497 1288.9 561.609C1298.15 561.721 1322.11 556.042 1356.58 556.459C1391.05 556.876 1433.08 557.384 1449.39 552.807C1451.98 552.08 1453.81 551.504 1455.03 551.052C1470.05 555.46 1505.86 561.751 1555.81 558.869C1567.44 557.02 1596.33 554.584 1618.86 559.632C1638.54 558.875 1681.74 558.005 1697.04 560.578C1716.16 563.794 1793.08 558.755 1810.91 556.583C1828.73 554.412 1886.86 553.324 1906.7 558.339C1922.56 562.351 1967.7 560.271 1988.28 558.729C2001.88 560.685 2032.79 564.64 2047.58 564.819C2062.38 564.998 2089.28 562.14 2100.88 560.689L2096.88 588.996Z" fill="url(#paint1_linear_255_30890)"/>
<path d="M4815 599.61L4786.28 558.674C4769.59 542.302 4743.94 534.286 4743.94 534.286C4720.9 526.313 4710.56 498.025 4698.89 500.315C4679.67 504.085 4697.65 464.109 4666.88 473.663L4653.75 467.536L4645.85 467.44L4638.18 448.247L4628.01 448.124L4609.39 424.022C4604.87 423.968 4595.55 415.26 4594.39 380.864C4590.01 373.649 4580.07 359.919 4575.34 362.727C4570.62 365.535 4562.9 373.32 4559.63 376.862L4550.24 366.004L4535.55 365.826C4530.16 356.564 4533.77 331.184 4517.7 330.99C4505.81 330.846 4503.32 328.438 4497.77 340.896C4494.48 339.463 4487.17 337.425 4484.22 340.732C4480.53 344.866 4474.47 341.689 4462.68 349.425C4454.87 354.548 4452.21 341.639 4446.38 340.274C4441.31 340.213 4428.3 341.644 4424.14 342.99C4417.9 345.011 4394.73 322.937 4391.66 322.9C4388.59 322.863 4377.07 329.289 4377.07 329.289C4373.99 331.981 4352.69 313.922 4351.2 311.665C4349.57 307.445 4346.03 301.721 4344.67 300.245C4342.53 297.928 4339.98 286.858 4337.48 282.251L4343.42 270.385C4337.77 257.151 4337.09 254.824 4322.2 251.028L4311.97 235.982C4312.73 225.354 4300.5 239.383 4294.8 230.999C4285.64 217.512 4280.58 213.326 4272.83 206.26C4270.18 203.841 4257.71 204.287 4257.33 209.654C4247.37 204.871 4218.43 197.201 4207.71 200.099C4185.35 206.142 4164.21 230.593 4158.11 253.22L4152.22 264.49L4144.33 279.914C4133.39 301.304 4134.5 308.661 4113.23 319.531L4094.45 344.97C4092.98 349.727 4088.94 358.75 4084.56 356.787C4069.07 349.848 4060.7 299.111 4043.33 285.257L4015.97 296.268L4010.65 307.545L4005.05 314.639L3995.85 324.676L3987 337.701L3978.33 348.339L3960.63 366.629L3954.41 366.553L3945.82 376L3942.01 381.923L3934.66 381.834L3919.31 398.958L3918.79 406.115L3902.39 422.032C3897.61 428.341 3886.26 440.46 3879.17 438.464C3872.08 436.469 3854.11 456.864 3846.01 467.311C3843.61 471.858 3837.33 481.174 3831.39 482.057C3825.98 482.86 3809.45 503.784 3809.49 511.637L3799.54 516.291L3789.22 526.314L3784.42 545.953C3772.98 552.664 3758.22 570.109 3745.39 569.954C3740.33 577.453 3729.31 592.441 3725.69 592.398C3722.08 592.354 3704.68 606.867 3696.44 614.129L3683.54 620.539L3674.22 632.364L3708.97 628.606L3763.19 629.262C3770.53 629.351 3796.81 625.49 3791.42 629.604C3786.04 633.717 3810.59 638.192 3820.49 634.133C3830.39 630.075 3859.5 626.249 3855.81 630.382C3852.12 634.516 3889.7 630.792 3893.65 630.84C3897.6 630.888 3907.15 623.841 3924.4 627.631C3941.65 631.421 3966.81 635.307 3970.46 631.77C3973.37 628.94 3997.28 630.9 4008.86 632.234C4023.63 631.219 4051.25 629.166 4043.57 629.073C4033.97 628.957 4076.27 622.306 4088.05 623.642C4099.82 624.978 4125.46 630.063 4132.8 630.152C4140.15 630.241 4168.08 626.998 4181.37 630.74C4186.6 628.814 4200.66 625.004 4215.12 625.179C4233.2 625.398 4261.01 631.703 4267.22 631.778C4273.43 631.854 4289.67 626.081 4312.83 626.361C4335.98 626.642 4364.22 626.983 4375.29 622.342C4377.05 621.606 4378.29 621.023 4379.13 620.565C4389.12 624.913 4413.04 631.06 4446.68 627.981C4454.54 626.086 4474.02 623.536 4489.04 628.493C4502.29 627.659 4531.34 626.617 4541.56 629.129C4554.34 632.268 4606.16 626.926 4618.19 624.684C4630.22 622.442 4669.32 621.124 4682.53 626.059C4693.1 630.007 4723.48 627.748 4737.36 626.125C4746.45 628.026 4767.13 631.858 4777.07 631.978C4787.01 632.098 4805.16 629.134 4812.99 627.637L4815 599.61Z" fill="url(#paint2_linear_255_30890)"/>
<path d="M1282.16 506.851L1325.57 455.088C1350.68 434.372 1388.98 424.181 1388.98 424.181C1423.4 414.053 1439.24 378.308 1456.58 381.168C1485.12 385.875 1459.01 335.452 1504.64 347.432L1524.28 339.659L1536.05 339.517L1547.77 315.263L1562.9 315.08L1591.01 284.6C1597.73 284.519 1611.75 273.499 1614.02 230.07C1620.66 220.948 1635.68 203.586 1642.67 207.118C1649.65 210.651 1661.01 220.459 1665.82 224.921L1679.98 211.187L1701.84 210.922C1710.02 199.214 1705.05 167.181 1728.97 166.891C1746.66 166.677 1750.41 163.63 1758.47 179.344C1763.39 177.526 1774.31 174.932 1778.64 179.1C1784.07 184.309 1793.14 180.282 1810.56 190.016C1822.09 196.463 1826.26 180.156 1834.97 178.418C1842.5 178.327 1861.85 180.097 1868.02 181.786C1877.28 184.32 1912.11 156.387 1916.68 156.332C1921.25 156.277 1938.29 164.359 1938.29 164.359C1942.82 167.749 1974.82 144.89 1977.08 142.037C1979.57 136.705 1984.93 129.468 1986.98 127.601C1990.2 124.67 1994.18 110.686 1997.97 104.863L1989.33 89.898C1997.95 73.1736 1999 70.2336 2021.22 65.4001L2036.69 46.3756C2035.73 32.9602 2053.7 50.6384 2062.32 40.0376C2076.18 22.9854 2083.77 17.6853 2095.41 8.74379C2099.4 5.68156 2117.95 6.21065 2118.43 12.9863C2133.33 6.91995 2176.53 -2.84281 2192.44 0.787151C2225.61 8.35601 2256.67 39.169 2265.39 67.7195L2273.98 81.932L2285.47 101.385C2301.4 128.36 2299.64 137.652 2331.11 151.318L2358.65 183.385C2360.76 189.387 2366.63 200.768 2373.18 198.277C2396.34 189.474 2409.62 125.393 2435.69 107.855L2476.23 121.682L2483.98 135.905L2492.19 144.846L2505.72 157.494L2518.67 173.914L2531.41 187.321L2557.46 210.364L2566.71 210.252L2579.34 222.155L2584.92 229.623L2595.85 229.491L2618.43 251.069L2619.08 260.103L2643.23 280.155C2650.25 288.108 2666.94 303.378 2677.53 300.838C2688.12 298.299 2714.53 324 2726.41 337.168C2729.9 342.903 2739.1 354.646 2747.93 355.745C2755.96 356.745 2780.22 383.117 2780.05 393.032L2794.77 398.881L2809.98 411.507L2816.8 436.29C2833.72 444.731 2855.4 466.716 2874.5 466.485C2881.9 475.94 2898.07 494.833 2903.45 494.768C2908.83 494.703 2934.48 512.978 2946.63 522.124L2965.72 530.182L2979.41 545.086L2927.75 540.437L2847.05 541.413C2836.12 541.546 2797.08 536.743 2805.02 541.922C2812.96 547.1 2776.35 552.818 2761.68 547.721C2747.02 542.624 2703.77 537.872 2709.19 543.081C2714.61 548.29 2658.75 543.691 2652.86 543.763C2646.98 543.834 2632.88 534.962 2607.15 539.795C2581.41 544.627 2543.91 549.602 2538.54 545.146C2534.24 541.581 2498.64 544.122 2481.38 545.837C2459.41 544.596 2418.34 542.079 2429.77 541.941C2444.06 541.768 2381.21 533.486 2363.66 535.206C2346.12 536.925 2307.88 543.415 2296.95 543.548C2286.02 543.68 2244.51 539.661 2224.66 544.422C2216.91 542.004 2191.2 583.097 2169.67 583.357C2142.77 583.683 2106.13 545.856 2096.88 545.968C2087.64 546.08 2063.56 538.836 2029.09 539.253C1994.63 539.67 1952.59 540.179 1936.19 534.349C1933.59 533.425 1931.75 532.692 1930.52 532.117C1915.57 537.633 1879.88 545.459 1829.86 541.664C1818.19 539.293 1789.25 536.127 1766.81 542.427C1747.11 541.409 1703.89 540.174 1688.64 543.372C1669.57 547.371 1592.53 540.768 1574.66 537.97C1556.8 535.172 1498.63 533.615 1478.89 539.882C1463.09 544.896 1417.91 542.127 1397.29 540.116C1383.72 542.541 1352.89 547.435 1338.09 547.614C1323.3 547.793 1296.33 544.1 1284.7 542.232L1282.16 506.851Z" fill="url(#paint3_linear_255_30890)"/>
<path d="M4359.05 625.997L4321.24 574.302C4299.3 553.624 4265.63 543.489 4265.63 543.489C4235.4 533.411 4221.74 497.693 4206.44 500.577C4181.25 505.325 4204.69 454.87 4164.38 466.914L4147.14 459.17L4136.77 459.045L4126.65 434.811L4113.32 434.649L4088.81 404.213C4082.89 404.141 4070.63 393.143 4068.99 349.721C4063.22 340.61 4050.13 323.272 4043.95 326.813C4037.77 330.355 4027.67 340.179 4023.4 344.648L4011.04 330.935L3991.78 330.702C3984.68 319.007 3989.32 286.969 3968.25 286.715C3952.66 286.526 3949.39 283.485 3942.15 299.208C3937.83 297.398 3928.23 294.82 3924.38 298.993C3919.55 304.21 3911.59 300.196 3896.16 309.954C3885.94 316.417 3882.41 300.118 3874.75 298.393C3868.11 298.312 3851.05 300.111 3845.6 301.808C3837.42 304.355 3806.96 276.475 3802.94 276.427C3798.92 276.378 3783.83 284.483 3783.83 284.483C3779.81 287.88 3751.81 265.07 3749.85 262.22C3747.69 256.892 3743.03 249.663 3741.24 247.8C3738.43 244.873 3735.04 230.897 3731.75 225.08L3739.5 210.104C3732.04 193.393 3731.14 190.455 3711.6 185.654L3698.13 166.654C3699.09 153.239 3683.11 170.941 3675.6 160.353C3663.54 143.323 3656.89 138.034 3646.71 129.11C3643.22 126.054 3626.88 126.61 3626.39 133.386C3613.31 127.341 3575.33 117.642 3561.28 121.294C3531.99 128.91 3504.36 159.764 3496.44 188.325L3488.75 202.548L3478.46 222.015C3464.19 249.011 3465.66 258.299 3437.81 272.009L3413.27 304.112C3411.36 310.116 3406.1 321.505 3400.35 319.024C3380.01 310.255 3368.85 246.2 3346.03 228.701L3310.2 242.585L3303.25 256.817L3295.94 265.769L3283.91 278.435L3272.35 294.873L3261.01 308.296L3237.86 331.375L3229.72 331.276L3218.48 343.196L3213.5 350.671L3203.87 350.554L3183.79 372.163L3183.15 381.197L3161.69 401.282C3155.44 409.243 3140.61 424.536 3131.3 422.012C3121.99 419.488 3098.5 445.225 3087.92 458.408C3084.79 464.147 3076.59 475.903 3068.8 477.015C3061.71 478.025 3040.11 504.43 3040.18 514.343L3027.16 520.214L3013.65 532.86L3007.43 557.65C2992.45 566.115 2973.15 588.128 2956.33 587.925C2949.72 597.389 2935.32 616.304 2930.58 616.246C2925.84 616.189 2903.08 634.5 2892.3 643.662L2875.41 651.747L2863.22 666.669L2908.78 661.946L2979.88 662.806C2989.51 662.923 3023.95 658.065 3016.91 663.254C3009.86 668.443 3042.08 674.107 3055.04 668.99C3068.01 663.872 3106.16 659.059 3101.34 664.276C3096.52 669.492 3145.78 664.813 3150.96 664.876C3156.15 664.939 3168.64 656.048 3191.28 660.843C3213.92 665.638 3246.92 670.558 3251.69 666.095C3255.5 662.524 3286.85 665.013 3302.05 666.704C3321.41 665.431 3357.62 662.855 3347.55 662.733C3334.96 662.581 3390.41 654.21 3405.86 655.904C3421.31 657.598 3454.94 664.033 3464.57 664.149C3474.2 664.266 3510.81 660.188 3528.26 664.92C3535.11 662.491 3553.54 657.691 3572.5 657.92C3596.2 658.207 3632.69 666.183 3640.84 666.282C3648.99 666.38 3670.26 659.103 3700.63 659.47C3731 659.837 3768.03 660.286 3782.53 654.433C3784.83 653.504 3786.46 652.769 3787.55 652.193C3800.67 657.687 3832.05 665.46 3876.16 661.594C3886.46 659.207 3911.99 655.999 3931.71 662.266C3949.08 661.22 3987.17 659.923 4000.58 663.099C4017.35 667.069 4085.28 660.356 4101.05 657.533C4116.82 654.71 4168.09 653.07 4185.43 659.308C4199.31 664.298 4239.14 661.464 4257.33 659.424C4269.26 661.829 4296.39 666.678 4309.42 666.836C4322.46 666.993 4346.25 663.263 4356.52 661.377L4359.05 625.997Z" fill="url(#paint4_linear_255_30890)"/>
<path d="M2175.88 556.128L2223.15 517.268C2248.34 501.877 2281.78 494.844 2281.78 494.844C2312.04 487.779 2333.22 460.651 2346.62 463.208C2368.66 467.416 2359.25 428.143 2393.46 438.292L2411.19 432.729L2420.77 432.864L2435.93 414.478L2448.24 414.651L2478.14 391.822C2483.61 391.899 2497.55 383.726 2509.53 350.414C2517.04 343.545 2533.27 330.521 2538.11 333.379C2542.95 336.237 2549.87 344.007 2552.73 347.534L2567.41 337.279L2585.19 337.529C2594.56 328.706 2598.01 303.997 2617.47 304.271C2631.86 304.474 2635.61 302.211 2638.48 314.449C2642.89 313.154 2652.35 311.389 2654.89 314.68C2658.07 318.794 2666.37 315.889 2678.22 323.728C2686.07 328.92 2693.25 316.481 2700.72 315.326C2706.85 315.412 2722.12 317.174 2726.73 318.599C2733.64 320.738 2768.41 300.005 2772.12 300.058C2775.83 300.11 2787.77 306.672 2787.77 306.672C2790.65 309.37 2821.93 292.476 2824.42 290.331C2827.69 286.287 2833.72 280.84 2835.82 279.448C2839.12 277.263 2845.61 266.605 2850.04 262.211L2846.52 250.536C2857.42 237.869 2858.95 235.632 2878.1 232.381L2895.08 218.088C2897.43 207.764 2907.88 221.716 2917.34 213.752C2932.56 200.942 2939.95 197.028 2951.47 190.402C2955.42 188.132 2970.33 188.924 2969.15 194.138C2982.64 189.788 3019.95 183.186 3032 186.304C3057.12 192.807 3075.12 217.12 3075.52 239.232L3079.17 250.327L3083.94 265.508C3090.57 286.559 3086.97 293.66 3109.3 304.811L3124.14 330.014C3124.45 334.668 3126.55 343.532 3132.44 341.755C3153.28 335.474 3179 286.527 3204.23 273.597L3233.87 285.059L3236.83 296.145L3241.4 303.184L3249.42 313.18L3256.09 326.062L3263.29 336.624L3279.03 354.865L3286.55 354.971L3294.02 364.377L3296.8 370.229L3305.69 370.354L3318.96 387.398L3317.38 394.351L3332.28 410.255C3336.12 416.509 3346.09 428.585 3355.26 426.854C3364.44 425.123 3379.85 445.414 3386.41 455.775C3387.91 460.252 3392.63 469.464 3399.53 470.491C3405.8 471.426 3419.32 492.187 3416.87 499.799L3427.44 504.598L3436.82 514.612L3436.57 533.79C3448.32 540.625 3460.77 557.963 3476.3 558.182C3480.1 565.598 3488.79 580.446 3493.17 580.508C3497.55 580.569 3514.08 595.14 3521.8 602.418L3535.39 609.003L3543.01 620.736L3502.22 616.092L3436.56 615.166C3427.67 615.041 3397.13 610.542 3402.36 614.684C3407.6 618.827 3376.58 622.459 3365.88 618.239C3355.17 614.019 3321.22 609.472 3324.4 613.585C3327.58 617.699 3283.36 613.007 3278.57 612.939C3273.79 612.872 3264.43 605.765 3242.43 608.942C3220.44 612.12 3188.87 615.162 3185.56 611.628C3182.91 608.801 3153.45 610.013 3139.05 610.973C3121.53 609.563 3088.82 606.777 3098.12 606.908C3109.75 607.072 3060.72 599.406 3046.1 600.362C3031.47 601.318 2998.95 605.51 2990.06 605.385C2981.17 605.259 2948.45 601.311 2931.25 604.556C2925.53 602.537 2909.72 598.44 2892.21 598.193C2870.33 597.884 2834.81 603.196 2827.29 603.09C2819.77 602.984 2801.94 596.92 2773.89 596.525C2745.85 596.129 2711.66 595.647 2699.72 590.829C2697.82 590.065 2696.51 589.464 2695.64 588.996C2682.24 592.923 2651.47 598.193 2611.8 594.24C2602.9 592.177 2580.17 589.144 2560.51 593.517C2544.77 592.326 2510.02 590.48 2496.9 592.62C2480.51 595.295 2419.6 588.624 2405.76 586.104C2391.93 583.584 2345.13 581.18 2327.66 585.584C2313.69 589.107 2277.7 586.042 2261.45 584.07C2249.89 585.65 2223.74 588.769 2211.71 588.6C2199.67 588.43 2178.67 585.034 2169.67 583.357L2175.88 556.128Z" fill="url(#paint5_linear_255_30890)"/>
<rect y="473" width="4682" height="1045" fill="#713633"/>
<defs>
<linearGradient id="paint0_linear_255_30890" x1="2178.45" y1="95.2207" x2="2178.45" y2="671" gradientUnits="userSpaceOnUse">
<stop stop-color="#5D221F"/>
<stop offset="1" stop-color="#7E4340"/>
</linearGradient>
<linearGradient id="paint1_linear_255_30890" x1="2178.45" y1="95.2207" x2="2178.45" y2="671" gradientUnits="userSpaceOnUse">
<stop stop-color="#5D221F"/>
<stop offset="1" stop-color="#7E4340"/>
</linearGradient>
<linearGradient id="paint2_linear_255_30890" x1="2178.45" y1="95.2207" x2="2178.45" y2="671" gradientUnits="userSpaceOnUse">
<stop stop-color="#5D221F"/>
<stop offset="1" stop-color="#7E4340"/>
</linearGradient>
<linearGradient id="paint3_linear_255_30890" x1="2178.45" y1="95.2207" x2="2178.45" y2="671" gradientUnits="userSpaceOnUse">
<stop stop-color="#5D221F"/>
<stop offset="1" stop-color="#7E4340"/>
</linearGradient>
<linearGradient id="paint4_linear_255_30890" x1="2178.45" y1="95.2207" x2="2178.45" y2="671" gradientUnits="userSpaceOnUse">
<stop stop-color="#5D221F"/>
<stop offset="1" stop-color="#7E4340"/>
</linearGradient>
<linearGradient id="paint5_linear_255_30890" x1="2178.45" y1="95.2207" x2="2178.45" y2="671" gradientUnits="userSpaceOnUse">
<stop stop-color="#5D221F"/>
<stop offset="1" stop-color="#7E4340"/>
</linearGradient>
</defs>
</svg>
