<svg width="4682" height="1299" viewBox="0 0 4682 1299" fill="none" xmlns="http://www.w3.org/2000/svg">
<rect x="-260" y="52" width="5088" height="1351" fill="url(#paint0_linear_254_30744)"/>
<path d="M2750.19 23.9327C2794.52 25.3671 2812.54 19.7489 2816 16.7605V84H564.504V16.7605C719.684 -7.62502 952.454 3.61143 1049.44 12.2778C1124.49 24.2315 1318.93 41.8632 1496.28 16.7605C1673.63 -8.34221 1879.61 6.30103 1960.43 16.7605C2037.79 31.4038 2231.3 53.3388 2386.48 23.9327C2580.46 -12.8249 2694.77 22.1396 2750.19 23.9327Z" fill="#5F749E"/>
<path d="M1820.68 23.9327C1865.02 25.3671 1883.03 19.7489 1886.5 16.7605V84H-365V16.7605C-209.82 -7.62502 22.95 3.61143 119.938 12.2778C194.987 24.2315 389.424 41.8632 566.773 16.7605C744.122 -8.34221 950.105 6.30103 1030.93 16.7605C1108.29 31.4038 1301.8 53.3388 1456.98 23.9327C1650.96 -12.8249 1765.26 22.1396 1820.68 23.9327Z" fill="#5F749E"/>
<path d="M4856.79 23.0635C4903.42 24.5719 4922.36 18.664 4926 15.5215V86.2276H2558.43V15.5215C2721.61 -10.1212 2966.38 1.69451 3068.36 10.8077C3147.28 23.3777 3351.75 41.9184 3538.24 15.5215C3724.73 -10.8754 3941.33 4.52277 4026.32 15.5215C4107.67 30.9197 4311.16 53.9856 4474.34 23.0635C4678.32 -15.5892 4798.52 21.178 4856.79 23.0635Z" fill="#5F749E"/>
<path d="M3879.37 23.0635C3925.99 24.5719 3944.93 18.664 3948.57 15.5215V86.2276H1581V15.5215C1744.18 -10.1212 1988.95 1.69451 2090.94 10.8077C2169.86 23.3777 2374.32 41.9184 2560.81 15.5215C2747.3 -10.8754 2963.91 4.52277 3048.9 15.5215C3130.24 30.9197 3333.73 53.9856 3496.91 23.0635C3700.89 -15.5892 3821.09 21.178 3879.37 23.0635Z" fill="#5F749E"/>
<defs>
<linearGradient id="paint0_linear_254_30744" x1="2285.3" y1="1162.41" x2="2285.3" y2="126.027" gradientUnits="userSpaceOnUse">
<stop stop-color="#2E4B84"/>
<stop offset="1" stop-color="#5E739D"/>
</linearGradient>
</defs>
</svg>
