<svg width="4682" height="2962" viewBox="0 0 4682 2962" fill="none" xmlns="http://www.w3.org/2000/svg">
<path opacity="0.8" d="M2016.97 231H1930.66L1849.44 259.261L1768.21 315.784L1737.75 351.111L1717.44 336.98L1666.67 308.719H1590.52L1539.76 336.98L1509.3 365.242H1443.3L1382.38 386.438L1326.53 442.961L1296.07 506.549L1291 541.876L1265.61 548.941L1225 570.137L1214.85 534.81L1169.16 478.288L1128.54 457.092L1072.7 450.026L1037.16 407.634L996.548 386.438L945.781 393.503L915.321 421.765L889.937 457.092H844.247L788.403 485.353L747.789 534.81L727.482 584.268L712.252 647.856L671.638 619.595L615.795 612.529L565.027 633.725L524.414 683.183L509.184 725.575L483.8 640.791L463.493 598.399L422.88 541.876L367.036 506.549L351.806 499.484H265.501L209.658 527.745L158.891 584.268L148.737 605.464L87.8166 633.725L37.0494 676.118L6.58916 711.444L-23.8711 704.379H-89.8684L-115.252 647.856L-155.866 598.399L-201.556 577.203H-242.17L-298.014 605.464L-328.474 640.791L-353.857 697.314L-369.088 746.771L-409.701 796.229L-435.085 845.686L-440.162 866.882L-490.929 881.013L-531.542 916.34L-562.003 972.863L-577.233 1050.58L-612.77 1092.97L-628 1142.43V1213.08L-607.693 1276.67L-592.463 1304.93L3067.85 1312L3078 1297.87L3072.92 1220.15L3042.46 1149.5L2996.77 1107.1L2966.31 1092.97H2930.78L2915.55 1100.04V1043.52L2890.16 937.536L2854.62 859.817L2808.93 789.163L2748.01 725.575L2727.71 718.51L2722.63 704.379L2636.33 661.987L2580.48 647.856H2438.33L2382.49 619.595L2331.72 605.464L2296.19 492.418L2265.73 428.83L2220.04 358.176L2164.19 301.654L2103.27 259.261L2016.97 231Z" fill="#A9C3D9"/>
<path opacity="0.8" d="M4082.48 284.556L3996.31 288.791L3916.6 321.034L3838.28 381.533L3809.6 418.348L3788.63 405.217L3736.55 379.452L3660.52 383.189L3611.22 413.936L3582.2 443.688L3516.31 446.927L3456.52 471.109L3403.54 530.362L3376.26 595.434L3372.92 631.004L3347.93 639.314L3308.42 662.499L3296.55 627.677L3248.15 573.406L3206.56 554.207L3150.45 549.883L3112.89 509.242L3071.3 490.043L3020.96 499.598L2991.93 529.35L2968.33 565.916L2922.71 568.158L2868.34 599.155L2830.22 650.597L2812.38 701.043L2800.3 765.367L2758.36 739.104L2702.25 734.78L2652.61 758.464L2614.49 809.906L2601.36 853.038L2571.85 769.514L2549.5 728.126L2506.17 673.606L2448.68 641.026L2433.12 634.709L2346.95 638.945L2292.59 669.942L2244.68 728.946L2235.58 750.637L2176.14 781.883L2127.54 826.759L2098.86 863.574L2068.1 858.005L2002.21 861.244L1974.09 805.976L1931.11 758.521L1884.45 739.57L1843.9 741.564L1789.53 772.561L1760.85 809.376L1738.29 867.135L1725.51 917.331L1687.39 968.773L1664.48 1019.47L1660.45 1040.91L1610.46 1057.53L1571.65 1094.84L1544.01 1152.85L1532.62 1231.3L1499.23 1275.43L1486.45 1325.63L1489.92 1396.27L1513.32 1458.85L1529.92 1486.36L5184.83 1313.8L5194.28 1299.17L5185.39 1221.71L5151.5 1152.57L5103.8 1112.42L5072.69 1099.79L5037.21 1101.53L5022.35 1109.35L5019.58 1052.83L4989.03 948.117L4949.72 872.155L4900.63 803.756L4836.68 743.169L4816.06 737.101L4810.3 723.222L4722.05 685.073L4665.6 673.685L4523.67 680.661L4466.53 655.145L4415.14 643.508L4374.11 532.226L4340.57 470.144L4291.48 401.745L4232.94 347.972L4170.04 308.577L4082.48 284.556Z" fill="#A9C4D9"/>
<path opacity="0.8" d="M3418.43 515H3327.77L3242.44 543.261L3157.12 599.784L3125.12 635.111L3103.79 620.98L3050.46 592.719H2970.47L2917.14 620.98L2885.14 649.242H2815.81L2751.82 670.438L2693.16 726.961L2661.16 790.549L2655.83 825.876L2629.16 832.941L2586.5 854.137L2575.83 818.81L2527.84 762.288L2485.18 741.092L2426.51 734.026L2389.18 691.634L2346.52 670.438L2293.19 677.503L2261.19 705.765L2234.53 741.092H2186.53L2127.87 769.353L2085.21 818.81L2063.88 868.268L2047.88 931.856L2005.22 903.595L1946.55 896.529L1893.23 917.725L1850.56 967.183L1834.56 1009.58L1807.9 924.791L1786.57 882.399L1743.91 825.876L1685.24 790.549L1669.25 783.484H1578.59L1519.92 811.745L1466.6 868.268L1455.93 889.464L1391.94 917.725L1338.61 960.118L1306.61 995.444L1274.61 988.379H1205.28L1178.62 931.856L1135.96 882.399L1087.96 861.203H1045.3L986.637 889.464L954.64 924.791L927.975 981.314L911.977 1030.77L869.314 1080.23L842.649 1129.69L837.316 1150.88L783.988 1165.01L741.325 1200.34L709.327 1256.86L693.329 1334.58L655.999 1376.97L640 1426.43V1497.08L661.332 1560.67L677.33 1588.93L4522.33 1596L4533 1581.87L4527.67 1504.15L4495.67 1433.5L4447.67 1391.1L4415.68 1376.97H4378.35L4362.35 1384.04V1327.52L4335.68 1221.54L4298.35 1143.82L4250.36 1073.16L4186.36 1009.58L4165.03 1002.51L4159.7 988.379L4069.04 945.987L4010.38 931.856H3861.06L3802.4 903.595L3749.07 889.464L3711.74 776.418L3679.74 712.83L3631.74 642.176L3573.08 585.654L3509.09 543.261L3418.43 515Z" fill="#BCCEE0"/>
<ellipse cx="794" cy="432" rx="431" ry="432" fill="url(#paint0_linear_254_30747)" fill-opacity="0.6"/>
<path d="M3913.27 1157.87C3913.94 1157.81 3914.61 1157.74 3915.28 1157.68C3916.9 1157.53 3918.52 1157.39 3920.14 1157.24C3920.91 1157.18 3921.68 1157.11 3922.44 1157.04C3931.5 1156.24 3931.5 1156.24 3935.89 1156.98C3936.91 1157.17 3936.91 1157.17 3937.86 1156.4C3938.79 1156.4 3939.73 1156.42 3940.66 1156.48C3940.65 1155.96 3940.65 1155.43 3940.65 1154.89C3945.22 1154.75 3949.62 1155.05 3954.15 1155.64C3954.81 1155.72 3955.46 1155.8 3956.11 1155.88C3960.79 1156.47 3965.46 1157.13 3970.11 1157.94C3971.3 1158.15 3972.48 1158.35 3973.66 1158.55C3986.97 1160.82 3999.37 1164.21 4011.58 1169.98C4012.18 1170.26 4012.79 1170.54 4013.39 1170.82C4016.84 1172.41 4020.24 1174.05 4023.58 1175.87C4024.6 1176.42 4025.62 1176.95 4026.67 1177.46C4028.02 1178.14 4029.35 1178.86 4030.66 1179.61C4031.18 1179.9 4031.18 1179.9 4031.71 1180.2C4032.67 1180.88 4033.24 1181.49 4033.84 1182.51C4033.78 1182.79 4033.72 1183.06 4033.66 1183.35C4033.96 1184.73 4034.22 1185.78 4034.99 1186.97C4035.37 1187.08 4035.75 1187.19 4036.14 1187.3C4040.31 1188.66 4044.54 1194.99 4046.51 1198.71C4049.52 1205.11 4049.52 1205.11 4049.58 1208.22C4049.25 1208.52 4048.93 1208.83 4048.6 1209.14C4047.59 1210.19 4047.59 1210.19 4047.87 1211.37C4048.08 1212.17 4048.32 1212.97 4048.58 1213.76C4048.88 1214.75 4048.88 1214.75 4048.7 1215.59C4047.8 1216.06 4047.8 1216.06 4046.93 1216.44C4046.91 1216.91 4046.91 1216.91 4046.9 1217.38C4046.72 1219.33 4046.34 1221.2 4045.94 1223.11C4045.84 1223.68 4045.84 1223.68 4045.72 1224.25C4045.3 1226.29 4044.98 1227.44 4043.38 1228.86C4043.46 1229.33 4043.54 1229.81 4043.63 1230.3C4043.79 1231.24 4043.85 1231.76 4043.46 1232.63C4040.63 1236.43 4036.29 1239.34 4032.29 1241.77C4031.89 1242.02 4031.89 1242.02 4031.48 1242.27C4027.33 1244.71 4022.82 1246.3 4018.3 1247.91C4017.89 1248.06 4017.47 1248.21 4017.04 1248.37C4016.48 1248.57 4016.48 1248.57 4015.91 1248.78C4014.5 1249.47 4013.66 1250.38 4012.79 1251.67C4011.84 1252.67 4010.93 1252.75 4009.6 1253.03C4006.62 1253.71 4003.97 1254.83 4001.23 1256.16C4000.97 1256.28 4000.72 1256.4 4000.46 1256.53C3993.64 1259.8 3987.02 1263.47 3980.41 1267.12C3974.5 1270.37 3968.53 1273.45 3962.45 1276.38C3959.95 1277.6 3957.47 1278.88 3954.99 1280.16C3954.11 1280.61 3953.22 1281.06 3952.34 1281.52C3949.86 1282.79 3947.38 1284.06 3944.91 1285.37C3936.88 1289.61 3930.08 1292.16 3920.95 1290.94C3920.61 1290.89 3920.27 1290.85 3919.93 1290.81C3917.9 1290.51 3916.48 1290.07 3914.8 1288.9C3914.89 1287.25 3915.09 1285.65 3915.35 1284.02C3915.87 1280.95 3915.87 1280.95 3914.9 1278.11C3914.81 1277.89 3914.72 1277.67 3914.63 1277.44C3915.66 1275.33 3917.16 1273.79 3918.76 1272.11C3920.61 1270.11 3921.96 1268.45 3922.84 1265.85C3923.84 1263.78 3925.72 1262.23 3927.38 1260.67C3926.94 1260.83 3926.51 1260.99 3926.06 1261.16C3922.12 1262.14 3917.88 1260.6 3914.1 1259.47C3913.76 1259.37 3913.43 1259.27 3913.09 1259.17C3910.19 1258.26 3910.19 1258.26 3908.99 1257.06C3909.51 1254.05 3911.17 1252.04 3913.04 1249.67C3911.49 1250.27 3910.76 1251.53 3909.9 1252.86C3909.66 1253.22 3909.66 1253.22 3909.43 1253.58C3908.59 1254.92 3908.06 1255.95 3907.95 1257.55C3907.66 1260.36 3905.5 1262.32 3903.73 1264.37C3903.18 1265.01 3902.64 1265.66 3902.09 1266.3C3898.63 1270.37 3895.09 1274.36 3891.43 1278.24C3891.23 1278.45 3891.03 1278.67 3890.83 1278.88C3890.27 1279.48 3889.71 1280.07 3889.15 1280.67C3888.68 1281.16 3888.68 1281.16 3888.2 1281.67C3886.81 1282.98 3886.81 1282.98 3885.96 1283.22C3885.01 1282.98 3884.17 1282.7 3883.26 1282.35C3880.97 1281.52 3878.73 1280.94 3876.33 1280.49C3871.51 1279.53 3871.51 1279.53 3870.27 1277.73C3869.27 1274.82 3869.32 1271.81 3869.24 1268.75C3869.22 1268.16 3869.2 1267.56 3869.18 1266.96C3869.13 1265.38 3869.08 1263.8 3869.04 1262.23C3868.99 1260.67 3868.94 1259.12 3868.89 1257.57C3868.81 1254.79 3868.73 1252.01 3868.65 1249.23C3868.59 1247.34 3868.54 1245.45 3868.47 1243.55C3868.43 1242.3 3868.4 1241.05 3868.36 1239.81C3868.34 1239.22 3868.32 1238.64 3868.3 1238.05C3868.01 1229.3 3868.01 1229.3 3868.99 1226.48C3868.92 1225.73 3868.92 1225.73 3868.7 1224.94C3868.63 1224.65 3868.55 1224.35 3868.47 1224.05C3868.35 1223.6 3868.35 1223.6 3868.23 1223.13C3868.15 1222.83 3868.08 1222.53 3868 1222.22C3867.89 1221.78 3867.89 1221.78 3867.77 1221.33C3867.67 1220.93 3867.67 1220.93 3867.56 1220.53C3867.3 1219.75 3867.3 1219.75 3866.67 1219.12C3866.14 1218.49 3866.14 1218.49 3866.23 1217.28C3866.09 1217.02 3865.94 1216.76 3865.8 1216.5C3865.22 1215.14 3865.39 1214.11 3865.53 1212.64C3865.58 1212.1 3865.63 1211.56 3865.68 1211.01C3865.7 1210.75 3865.72 1210.48 3865.75 1210.21C3865.82 1209.18 3865.83 1208.15 3865.82 1207.12C3865.83 1205.14 3866.11 1203.27 3866.49 1201.34C3863.59 1202.95 3861.2 1204.93 3858.73 1207.14C3855.55 1209.9 3852.65 1210.04 3848.57 1210.21C3848.16 1210.24 3847.76 1210.26 3847.34 1210.28C3843.6 1210.45 3839.73 1210.41 3836.81 1207.78C3835.2 1204.76 3835.57 1201.54 3836.41 1198.31C3839.01 1190.04 3844.08 1186.35 3851.34 1182.13C3851.75 1181.88 3852.16 1181.63 3852.59 1181.38C3856.3 1179.21 3858.85 1177.91 3863.18 1178.34C3867.16 1178.84 3867.16 1178.84 3870.84 1177.68C3871.02 1177.48 3871.2 1177.28 3871.39 1177.07C3873.05 1175.47 3874.73 1175.63 3876.93 1175.67C3877.33 1175.69 3877.74 1175.71 3878.16 1175.72C3878.19 1175.43 3878.22 1175.14 3878.24 1174.84C3878.69 1171.94 3879.72 1169.2 3881.92 1167.22C3884.35 1165.65 3886.5 1165.88 3889.28 1166.17C3890.47 1166.29 3890.47 1166.29 3891.88 1165.85C3891.69 1165.11 3891.51 1164.37 3891.31 1163.61C3898.31 1160.15 3905.55 1158.55 3913.27 1157.87Z" fill="#4C5C82" fill-opacity="0.16"/>
<defs>
<linearGradient id="paint0_linear_254_30747" x1="794" y1="0" x2="794" y2="864" gradientUnits="userSpaceOnUse">
<stop stop-color="#F3E8C2" stop-opacity="0.87"/>
<stop offset="1" stop-color="#A9AA78" stop-opacity="0.05"/>
</linearGradient>
</defs>
</svg>
