<svg width="4665" height="1464" viewBox="0 0 4665 1464" fill="none" xmlns="http://www.w3.org/2000/svg">
<path d="M914 943.981L994.246 846.456C1039.54 807.604 1106.02 789.089 1106.02 789.089C1165.87 770.603 1197.2 702.932 1226.39 708.774C1274.43 718.391 1236.1 621.816 1312.37 645.669L1346.76 631.327H1366.82L1389.75 585.433H1415.54L1467.13 528.065C1478.59 528.065 1503.81 507.413 1512.98 424.803C1525.4 407.593 1553.1 374.893 1564.57 381.777C1576.03 388.662 1594.18 407.591 1601.83 416.196L1627.62 390.38H1664.88C1680.23 368.283 1675.69 307.197 1716.46 307.197C1746.62 307.197 1753.37 301.484 1765.18 331.579C1773.78 328.232 1792.7 323.546 1799.58 331.579C1808.17 341.619 1824.12 334.162 1852.59 353.091C1871.45 365.628 1880.55 334.687 1895.58 331.579C1908.43 331.579 1941.17 335.394 1951.47 338.75C1966.93 343.787 2029.67 291.422 2037.45 291.422C2045.23 291.422 2073.27 307.197 2073.27 307.197C2080.58 313.755 2137.87 270.983 2142.05 265.605C2146.96 255.512 2156.96 241.861 2160.68 238.355C2166.53 232.85 2175.01 206.325 2182.18 195.329L2169.28 166.646C2186.01 135.011 2188.16 129.44 2226.6 120.752L2255.26 84.8967C2255.26 59.3399 2283.71 93.4022 2299.68 73.4232C2325.37 41.2856 2338.95 31.3724 2359.87 14.6214C2367.03 8.88465 2398.56 10.3188 2398.56 23.2266C2424.68 12.0232 2499.44 -5.56421 2526.09 1.71129C2581.66 16.8815 2630.81 76.2457 2642.16 130.789L2655.06 158.038L2672.25 195.329C2696.1 247.04 2691.96 264.686 2743.9 291.422L2786.89 353.091C2789.76 364.564 2798.35 386.362 2809.82 381.772C2850.34 365.549 2880.78 243.885 2927.32 211.103L2994.67 238.355L3006.14 265.605L3019.03 282.813L3040.53 307.197L3060.59 338.75L3080.65 364.562L3122.21 409.022H3137.97L3158.03 431.969L3166.63 446.311H3185.26L3221.08 487.902V505.112L3259.77 543.836C3270.76 559.134 3297.31 588.582 3315.66 583.993C3334 579.404 3375.84 628.931 3394.47 654.268C3399.72 665.264 3413.96 687.828 3428.86 690.123C3442.42 692.21 3480.52 742.965 3479.01 761.833L3503.38 773.306L3527.74 797.687L3536.33 845.016C3564.12 861.472 3598.37 903.817 3630.91 903.817C3642.37 921.984 3667.59 958.317 3676.76 958.317C3685.94 958.317 3727.4 993.693 3746.98 1011.38L3778.51 1027.16L3800 1055.84L3712.59 1045.8H3640.94H3575.02C3556.4 1045.8 3490.48 1035.76 3503.38 1045.8C3516.27 1055.84 3453.22 1065.88 3428.86 1055.84C3404.5 1045.8 3331.42 1035.76 3340.02 1045.8C3348.61 1055.84 3254.04 1045.8 3244.01 1045.8C3233.98 1045.8 3211.05 1028.59 3166.63 1037.2C3122.21 1045.8 3057.72 1054.41 3049.12 1045.8C3042.25 1038.92 2981.3 1042.93 2951.68 1045.8C2914.43 1042.93 2844.78 1037.2 2864.27 1037.2C2888.63 1037.2 2782.59 1019.99 2752.5 1022.86C2722.41 1025.72 2656.49 1037.2 2637.86 1037.2C2619.23 1037.2 2549.02 1028.59 2514.63 1037.2C2501.73 1032.42 2466.77 1022.86 2430.08 1022.86C2384.23 1022.86 2312.58 1037.2 2296.82 1037.2C2281.05 1037.2 2240.93 1022.86 2182.18 1022.86C2123.43 1022.86 2051.78 1022.86 2024.55 1011.38C2020.23 1009.56 2017.19 1008.12 2015.16 1007C1989.03 1017.16 1927.29 1031.23 1842.56 1022.86C1822.98 1018.07 1774.07 1011.38 1735.09 1022.86C1701.66 1020.46 1628.19 1017.12 1601.83 1022.86C1568.87 1030.03 1438.47 1015.68 1408.37 1009.95C1378.28 1004.21 1279.41 999.908 1245.02 1011.38C1217.5 1020.56 1140.89 1014.25 1106.02 1009.95C1082.61 1014.25 1029.5 1022.86 1004.28 1022.86C979.057 1022.86 933.584 1015.21 914 1011.38V943.981Z" fill="#353E51"/>
<path d="M3785.88 1014.58C3828.4 1015.67 3845.68 1011.42 3849 1009.16V1060H1689.52V1009.16C1838.36 990.723 2061.61 999.218 2154.64 1005.77C2226.62 1014.81 2413.11 1028.14 2583.21 1009.16C2753.31 990.18 2950.88 1001.25 3028.4 1009.16C3102.59 1020.23 3288.2 1036.82 3437.04 1014.58C3623.08 986.791 3732.72 1013.23 3785.88 1014.58Z" fill="#3D578C"/>
<path d="M2894.36 1014.58C2936.88 1015.67 2954.16 1011.42 2957.48 1009.16V1060H798V1009.16C946.838 990.723 1170.1 999.218 1263.12 1005.77C1335.1 1014.81 1521.59 1028.14 1691.69 1009.16C1861.79 990.18 2059.36 1001.25 2136.88 1009.16C2211.08 1020.23 2396.68 1036.82 2545.52 1014.58C2731.57 986.791 2841.2 1013.23 2894.36 1014.58Z" fill="#3D578C"/>
<path d="M3171.06 837.663C3148 837.663 3144.32 859.757 3144 878.136H3195.27L3195.24 877.854C3193.81 863.143 3191.34 837.663 3171.06 837.663Z" fill="url(#paint0_linear_254_30742)"/>
<path d="M3233.12 821.474C3210.05 821.473 3206.38 841.358 3206.06 857.9H3257.32L3257.3 857.645C3255.87 844.406 3253.4 821.474 3233.12 821.474Z" fill="url(#paint1_linear_254_30742)"/>
<path d="M3296.3 805.284C3276.88 805.284 3273.78 822.96 3273.52 837.663H3316.69L3316.66 837.437C3315.46 825.668 3313.38 805.284 3296.3 805.284Z" fill="url(#paint2_linear_254_30742)"/>
<path d="M3348.54 781C3335.19 781 3333.06 794.256 3332.88 805.284H3362.56L3362.54 805.114C3361.71 796.288 3360.28 781 3348.54 781Z" fill="url(#paint3_linear_254_30742)"/>
<path d="M3275.65 857.9C3251.98 857.9 3248.21 879.995 3247.88 898.374H3300.5L3300.47 898.091C3299 883.38 3296.47 857.901 3275.65 857.9Z" fill="url(#paint4_linear_254_30742)"/>
<path d="M3348.43 837.663C3325.97 837.663 3322.39 859.757 3322.08 878.136H3372L3371.97 877.854C3370.58 863.143 3368.17 837.663 3348.43 837.663Z" fill="url(#paint5_linear_254_30742)"/>
<defs>
<linearGradient id="paint0_linear_254_30742" x1="3169.63" y1="837.663" x2="3169.63" y2="878.136" gradientUnits="userSpaceOnUse">
<stop stop-color="#617097"/>
<stop offset="1" stop-color="#363F52"/>
</linearGradient>
<linearGradient id="paint1_linear_254_30742" x1="3231.69" y1="821.474" x2="3231.69" y2="857.9" gradientUnits="userSpaceOnUse">
<stop stop-color="#617097"/>
<stop offset="1" stop-color="#363F52"/>
</linearGradient>
<linearGradient id="paint2_linear_254_30742" x1="3295.1" y1="805.284" x2="3295.1" y2="837.663" gradientUnits="userSpaceOnUse">
<stop stop-color="#617097"/>
<stop offset="1" stop-color="#363F52"/>
</linearGradient>
<linearGradient id="paint3_linear_254_30742" x1="3347.72" y1="781" x2="3347.72" y2="805.284" gradientUnits="userSpaceOnUse">
<stop stop-color="#617097"/>
<stop offset="1" stop-color="#363F52"/>
</linearGradient>
<linearGradient id="paint4_linear_254_30742" x1="3274.19" y1="857.9" x2="3274.19" y2="898.374" gradientUnits="userSpaceOnUse">
<stop stop-color="#617097"/>
<stop offset="1" stop-color="#363F52"/>
</linearGradient>
<linearGradient id="paint5_linear_254_30742" x1="3347.04" y1="837.663" x2="3347.04" y2="878.136" gradientUnits="userSpaceOnUse">
<stop stop-color="#617097"/>
<stop offset="1" stop-color="#363F52"/>
</linearGradient>
</defs>
</svg>
