<svg width="4682" height="1135" viewBox="0 0 4682 1135" fill="none" xmlns="http://www.w3.org/2000/svg">
<mask id="mask0_254_30743" style="mask-type:alpha" maskUnits="userSpaceOnUse" x="3486" y="358" width="161" height="143">
<rect x="3486" y="358" width="160.236" height="142.87" fill="#3F5684"/>
</mask>
<g mask="url(#mask0_254_30743)">
<path d="M3596.81 372.038C3597.04 371.992 3597.28 371.945 3597.51 371.898C3597.99 371.801 3598.48 371.706 3598.96 371.612C3599.58 371.492 3600.2 371.368 3600.81 371.243C3601.29 371.146 3601.77 371.051 3602.25 370.957C3602.48 370.912 3602.71 370.866 3602.93 370.82C3603.25 370.756 3603.57 370.695 3603.89 370.634C3604.07 370.598 3604.25 370.563 3604.44 370.527C3605.18 370.455 3605.72 370.552 3606.35 370.965C3606.6 371.181 3606.85 371.401 3607.1 371.622C3607.39 371.636 3607.39 371.636 3607.71 371.57C3607.89 371.539 3607.89 371.539 3608.08 371.508C3608.21 371.483 3608.35 371.459 3608.48 371.434C3608.62 371.41 3608.76 371.387 3608.9 371.362C3609.35 371.286 3609.79 371.207 3610.24 371.128C3610.82 371.027 3611.4 370.928 3611.98 370.828C3612.12 370.804 3612.26 370.78 3612.41 370.755C3613.28 370.607 3614.14 370.466 3615.02 370.346C3615.2 370.32 3615.39 370.293 3615.58 370.267C3616.02 370.24 3616.02 370.24 3616.39 370.455C3616.75 370.44 3616.75 370.44 3617.17 370.368C3617.42 370.33 3617.42 370.33 3617.67 370.292C3617.85 370.263 3618.03 370.233 3618.22 370.204C3618.41 370.174 3618.59 370.145 3618.79 370.115C3620.44 369.855 3622.08 369.569 3623.73 369.281C3623.85 369.26 3623.97 369.238 3624.1 369.216C3624.45 369.155 3624.8 369.092 3625.15 369.029C3625.31 369.002 3625.31 369.002 3625.47 368.974C3626.75 368.82 3626.75 368.82 3627.69 368.072C3628.03 367.597 3628.03 367.597 3628.55 367.404C3629.04 367.334 3629.04 367.334 3629.52 367.367C3629.49 367.271 3629.47 367.175 3629.44 367.076C3629.68 366.817 3629.92 366.568 3630.17 366.326C3630.31 366.192 3630.45 366.059 3630.59 365.921C3630.7 365.819 3630.81 365.716 3630.92 365.611C3631.09 365.669 3631.25 365.728 3631.43 365.788C3631.49 366.122 3631.49 366.122 3631.47 366.551C3631.37 366.673 3631.27 366.795 3631.16 366.921C3631.07 367.052 3630.99 367.184 3630.9 367.319C3631.07 367.934 3631.23 368.23 3631.71 368.656C3632.03 368.662 3632.03 368.662 3632.38 368.586C3632.52 368.561 3632.66 368.537 3632.8 368.512C3633.02 368.469 3633.02 368.469 3633.25 368.426C3633.4 368.399 3633.56 368.372 3633.71 368.344C3634.2 368.256 3634.69 368.166 3635.18 368.075C3635.67 367.986 3636.16 367.897 3636.65 367.809C3636.95 367.755 3637.26 367.699 3637.56 367.642C3637.7 367.617 3637.84 367.592 3637.98 367.566C3638.16 367.532 3638.16 367.532 3638.35 367.498C3638.67 367.472 3638.67 367.472 3639.18 367.649C3639.18 367.853 3639.19 368.057 3639.19 368.267C3638.06 368.574 3636.94 368.855 3635.8 369.067C3634.87 369.239 3633.97 369.45 3633.06 369.699C3633.61 369.862 3634.17 370.025 3634.73 370.193C3634.74 371.039 3634.4 371.511 3633.84 372.126C3633.04 372.426 3632.15 372.012 3631.4 371.674C3631.27 371.555 3631.14 371.437 3631 371.314C3630.56 371.366 3630.56 371.366 3630.08 371.494C3629 371.713 3629 371.713 3628.45 371.463C3628.04 371.173 3627.93 371.043 3627.73 370.615C3627.44 370.669 3627.44 370.669 3627.15 370.724C3625.57 371.015 3623.98 371.274 3622.39 371.494C3622.25 371.514 3622.1 371.534 3621.95 371.554C3621.23 371.654 3620.51 371.751 3619.78 371.847C3618.47 372.024 3617.2 372.234 3615.92 372.592C3614.94 372.837 3613.93 372.945 3612.93 373.072C3612.7 373.102 3612.48 373.131 3612.25 373.161C3611.92 373.205 3611.59 373.249 3611.26 373.292C3610.3 373.417 3609.34 373.554 3608.39 373.702C3607.7 373.805 3607.7 373.805 3607.33 373.727C3607.32 373.82 3607.31 373.913 3607.29 374.009C3607.17 374.473 3607.07 374.734 3606.76 375.113C3606.42 375.3 3606.07 375.457 3605.71 375.605C3605.38 375.749 3605.38 375.749 3605.25 376.026C3605.03 376.389 3604.77 376.628 3604.46 376.914C3604.34 377.027 3604.21 377.14 3604.09 377.257C3603.89 377.437 3603.89 377.437 3603.69 377.62C3603.42 377.872 3603.15 378.123 3602.87 378.375C3602.67 378.561 3602.67 378.561 3602.46 378.752C3601.84 379.332 3601.22 379.921 3600.6 380.51C3600.02 381.065 3599.44 381.615 3598.85 382.163C3598.2 382.772 3597.55 383.382 3596.91 383.993C3596.75 384.14 3596.6 384.286 3596.44 384.433C3595.64 385.187 3594.85 385.945 3594.07 386.722C3593.57 387.222 3593.06 387.696 3592.52 388.151C3591.68 388.872 3590.89 389.629 3590.11 390.406C3589.74 390.769 3589.37 391.129 3589 391.489C3588.87 391.615 3588.75 391.742 3588.61 391.872C3587.73 392.725 3586.83 393.556 3585.93 394.385C3585.85 394.453 3585.78 394.521 3585.7 394.591C3585.09 395.152 3585.09 395.152 3584.79 395.431C3584.29 395.889 3583.79 396.351 3583.29 396.816C3583.19 396.913 3583.09 397.01 3582.98 397.11C3582.43 397.648 3582.2 398.022 3582.1 398.808C3581.82 400.372 3581.14 401.228 3579.89 402.185C3578.98 402.773 3577.76 402.932 3576.7 403.011C3577.44 403.462 3578.19 403.886 3578.97 404.259C3579.4 404.478 3579.4 404.478 3579.85 404.776C3581.39 405.733 3582.41 405.68 3584.14 405.328C3584.39 405.284 3584.64 405.24 3584.89 405.196C3585.41 405.106 3585.93 405.012 3586.45 404.915C3587.49 404.723 3588.53 404.565 3589.58 404.407C3589.93 404.353 3590.28 404.298 3590.64 404.243C3592.29 403.985 3593.95 403.737 3595.6 403.491C3595.71 403.475 3595.82 403.459 3595.93 403.443C3597.02 403.282 3598.1 403.121 3599.19 402.962C3599.6 402.901 3600.01 402.841 3600.42 402.78C3600.62 402.751 3600.82 402.721 3601.02 402.692C3602.02 402.544 3603.02 402.392 3604.01 402.217C3604.17 402.19 3604.32 402.163 3604.48 402.135C3604.77 402.084 3605.05 402.032 3605.34 401.979C3606.42 401.784 3607.32 401.864 3608.41 402.063C3608.93 402.145 3609.45 402.2 3609.97 402.254C3610.07 402.265 3610.18 402.275 3610.28 402.286C3610.71 402.33 3611.13 402.374 3611.56 402.417C3611.86 402.448 3612.16 402.479 3612.46 402.511C3612.64 402.53 3612.82 402.548 3613 402.566C3613.42 402.632 3613.42 402.632 3613.79 402.847C3613.93 403.227 3614 403.611 3614.09 404.007C3613.8 404.26 3613.55 404.35 3613.19 404.483C3613.07 404.525 3612.96 404.568 3612.84 404.612C3612.75 404.645 3612.66 404.677 3612.57 404.71C3612.97 404.755 3613.37 404.799 3613.77 404.843C3613.94 404.862 3613.94 404.862 3614.11 404.882C3614.65 404.94 3615.16 404.98 3615.71 404.98C3616.43 405.019 3616.83 405.305 3617.34 405.797C3617.59 406.263 3617.59 406.263 3617.71 406.629C3617.8 406.631 3617.89 406.632 3617.98 406.633C3619.11 406.661 3620.22 406.798 3621.34 406.956C3621.62 406.995 3621.62 406.995 3621.91 407.035C3622.29 407.088 3622.68 407.141 3623.06 407.195C3623.55 407.264 3624.05 407.331 3624.54 407.397C3624.82 407.435 3625.09 407.473 3625.36 407.51C3625.55 407.535 3625.55 407.535 3625.74 407.56C3626.59 407.681 3626.59 407.681 3626.92 407.878C3627.24 408.061 3627.48 408.109 3627.84 408.16C3627.96 408.179 3628.09 408.198 3628.22 408.217C3628.36 408.236 3628.5 408.256 3628.65 408.275C3628.95 408.32 3629.26 408.365 3629.56 408.409C3629.73 408.433 3629.89 408.457 3630.06 408.481C3630.8 408.588 3631.53 408.7 3632.26 408.813C3632.65 408.872 3633.03 408.93 3633.42 408.988C3634.32 409.124 3635.22 409.265 3636.11 409.421C3636.27 409.448 3636.42 409.474 3636.58 409.501C3636.87 409.551 3637.16 409.602 3637.45 409.656C3638.19 409.794 3638.19 409.794 3638.88 409.548C3638.96 409.461 3639.04 409.374 3639.13 409.285C3639.44 409.078 3639.44 409.078 3639.82 408.952C3640 408.992 3640.18 409.032 3640.36 409.073C3640.91 409.184 3640.91 409.184 3641.2 408.953C3641.36 408.793 3641.52 408.631 3641.68 408.469C3642.29 407.962 3643.11 407.888 3643.88 407.901C3644 408.176 3644.12 408.451 3644.25 408.734C3644.13 408.81 3644.13 408.81 3644 408.887C3643.9 408.955 3643.79 409.023 3643.68 409.093C3643.53 409.193 3643.53 409.193 3643.36 409.295C3642.76 409.675 3642.76 409.675 3642.47 410.289C3642.45 410.392 3642.43 410.495 3642.41 410.602C3643.4 410.836 3644.39 411.011 3645.4 411.163C3645.52 411.182 3645.64 411.2 3645.76 411.219C3646.26 411.295 3646.76 411.372 3647.26 411.445C3647.63 411.499 3648 411.556 3648.37 411.613C3648.48 411.629 3648.6 411.645 3648.71 411.661C3649.49 411.785 3649.49 411.785 3649.77 412.125C3649.84 412.393 3649.84 412.393 3649.73 412.575C3648.62 412.824 3647.6 412.63 3646.49 412.448C3646.13 412.392 3645.77 412.336 3645.41 412.279C3645.23 412.251 3645.06 412.224 3644.88 412.195C3644.06 412.067 3643.24 411.951 3642.42 411.837C3642.56 412.431 3642.66 412.796 3643.1 413.228C3643.52 413.643 3643.52 413.643 3643.55 414.056C3643.54 414.194 3643.54 414.194 3643.53 414.335C3642.96 414.572 3642.47 414.757 3641.87 414.55C3641.29 414.215 3640.8 413.874 3640.47 413.27C3640.43 413.127 3640.4 412.983 3640.36 412.835C3640.21 412.831 3640.07 412.827 3639.92 412.823C3639.21 412.749 3639.21 412.749 3638.86 412.448C3638.65 412.011 3638.65 412.011 3638.49 411.615C3638.36 411.608 3638.22 411.6 3638.08 411.592C3637.58 411.553 3637.09 411.485 3636.59 411.4C3636.41 411.369 3636.23 411.339 3636.05 411.308C3635.76 411.259 3635.76 411.259 3635.47 411.209C3635.27 411.176 3635.07 411.142 3634.87 411.109C3634.48 411.043 3634.09 410.977 3633.7 410.912C3632.78 410.757 3631.86 410.608 3630.94 410.463C3630.54 410.399 3630.13 410.332 3629.73 410.266C3629.42 410.216 3629.12 410.167 3628.81 410.118C3628.67 410.094 3628.53 410.07 3628.38 410.045C3627.8 409.953 3627.31 409.882 3626.72 409.952C3625.07 410.124 3623.34 409.659 3621.72 409.373C3620.94 409.238 3620.17 409.106 3619.4 408.977C3619.24 408.948 3619.08 408.919 3618.92 408.89C3618.78 408.867 3618.64 408.844 3618.49 408.82C3618.37 408.799 3618.25 408.778 3618.13 408.756C3617.68 408.778 3617.49 408.972 3617.15 409.25C3615.85 409.886 3614.46 409.491 3613.11 409.24C3612.87 409.197 3612.62 409.154 3612.38 409.112C3611.89 409.026 3611.4 408.939 3610.9 408.85C3609.92 408.674 3608.93 408.52 3607.94 408.364C3604.07 407.752 3604.07 407.752 3603.07 406.86C3602.48 406.82 3601.97 406.955 3601.4 407.09C3601.22 407.133 3601.22 407.133 3601.04 407.176C3600.64 407.27 3600.24 407.365 3599.84 407.459C3599.56 407.524 3599.28 407.589 3599.01 407.654C3598.27 407.826 3597.54 407.998 3596.82 408.17C3596.07 408.346 3595.33 408.521 3594.58 408.696C3593.12 409.039 3591.66 409.384 3590.2 409.729C3590.33 409.786 3590.47 409.844 3590.62 409.903C3590.81 409.98 3590.99 410.056 3591.18 410.133C3591.45 410.246 3591.45 410.246 3591.73 410.361C3592.49 410.673 3593.24 410.989 3594 411.307C3594.15 411.372 3594.31 411.437 3594.47 411.504C3595.26 411.837 3596.05 412.171 3596.84 412.504C3598.47 413.189 3600.09 413.866 3601.72 414.535C3602.78 414.969 3603.84 415.411 3604.89 415.855C3606.16 416.387 3606.16 416.387 3607.42 416.913C3607.6 416.985 3607.6 416.985 3607.77 417.058C3608 417.15 3608.22 417.241 3608.45 417.331C3609.03 417.564 3609.59 417.815 3610.15 418.103C3611.14 418.612 3611.14 418.612 3612.22 418.882C3612.64 418.725 3612.92 418.59 3613.29 418.353C3613.79 418.032 3614.18 417.812 3614.79 417.899C3615.66 418.16 3616.47 418.553 3617.28 418.957C3617.69 419.156 3618.09 419.342 3618.5 419.525C3619.88 420.142 3621.24 420.801 3622.56 421.538C3622.76 421.654 3622.97 421.769 3623.18 421.883C3625.7 423.264 3627.89 424.88 3629.72 427.107C3630.04 427.505 3630.38 427.88 3630.73 428.256C3631.17 428.77 3631.47 429.137 3631.45 429.839C3630.03 432.202 3626.31 433.396 3623.83 434.026C3621.07 434.682 3618.28 434.53 3615.47 434.441C3615.34 434.437 3615.22 434.433 3615.09 434.429C3611.54 434.3 3608.05 433.523 3604.7 432.366C3603.49 431.945 3602.25 431.586 3601.01 431.251C3600.85 431.209 3600.7 431.167 3600.54 431.124C3599.89 430.947 3599.23 430.771 3598.58 430.596C3597.23 430.231 3595.88 429.846 3594.54 429.453C3593.64 429.191 3592.74 428.952 3591.83 428.727C3591.04 428.528 3590.26 428.306 3589.48 428.084C3589.31 428.035 3589.14 427.986 3588.96 427.936C3587.2 427.437 3585.44 426.932 3583.69 426.422C3583.57 426.389 3583.46 426.356 3583.34 426.322C3580.57 425.518 3577.82 424.642 3575.07 423.773C3573.58 423.301 3572.08 422.84 3570.57 422.39C3570.44 422.344 3570.31 422.299 3570.17 422.252C3568.83 421.912 3567.22 422.407 3565.88 422.656C3565.71 422.688 3565.53 422.72 3565.35 422.753C3564.93 422.831 3564.5 422.909 3564.07 422.989C3564.15 423.051 3564.23 423.114 3564.32 423.178C3564.42 423.261 3564.53 423.344 3564.63 423.429C3564.74 423.511 3564.84 423.592 3564.95 423.676C3566.06 424.607 3566.35 425.917 3566.58 427.291C3566.59 427.856 3566.52 428.347 3566.38 428.892C3566.34 429.02 3566.31 429.149 3566.28 429.282C3565.83 430.785 3564.81 432.027 3563.48 432.847C3562.13 433.567 3560.67 433.759 3559.18 433.384C3557.8 432.893 3556.56 431.912 3555.71 430.724C3555.54 430.811 3555.36 430.897 3555.18 430.986C3554.53 431.308 3553.88 431.63 3553.24 431.951C3552.96 432.09 3552.68 432.229 3552.4 432.368C3551.99 432.569 3551.59 432.769 3551.18 432.969C3551 433.062 3551 433.062 3550.81 433.156C3549.42 433.843 3549.42 433.843 3548.98 434.014C3548.69 433.896 3548.69 433.896 3548.43 433.691C3548.25 433.582 3548.07 433.475 3547.88 433.369C3546.56 434.518 3545.24 435.675 3543.94 436.86C3542.08 438.555 3540.22 440.241 3538.32 441.886C3537.36 442.72 3536.42 443.576 3535.47 444.429C3534.64 445.186 3533.8 445.938 3532.96 446.69C3531.85 447.681 3530.75 448.675 3529.66 449.676C3529.16 450.126 3528.66 450.571 3528.16 451.008C3528.58 452.264 3529.32 453.356 3530.02 454.475C3531.45 456.784 3531.45 456.784 3531.39 457.988C3531.35 458.14 3531.35 458.14 3531.31 458.296C3531.29 458.399 3531.26 458.503 3531.24 458.609C3531.13 458.904 3531.13 458.904 3530.93 459.129C3530.76 459.477 3530.76 459.477 3530.98 459.939C3531.07 460.135 3531.17 460.33 3531.27 460.524C3531.32 460.629 3531.38 460.734 3531.43 460.842C3531.59 461.179 3531.76 461.514 3531.93 461.849C3532.15 462.286 3532.37 462.724 3532.58 463.163C3532.64 463.271 3532.69 463.38 3532.75 463.491C3533.03 464.086 3533.28 464.671 3533.48 465.303C3533.92 466.697 3534.64 467.983 3535.3 469.284C3535.5 469.687 3535.7 470.089 3535.9 470.491C3536.03 470.74 3536.16 470.988 3536.28 471.237C3536.34 471.349 3536.39 471.461 3536.45 471.576C3536.5 471.674 3536.55 471.772 3536.6 471.873C3536.73 472.154 3536.73 472.154 3536.88 472.734C3537.01 472.728 3537.14 472.723 3537.28 472.717C3538.01 472.827 3538.49 473.002 3538.96 473.589C3539.08 474.062 3539.08 474.062 3539.18 474.613C3539.44 475.876 3540.09 476.407 3541.08 477.179C3541.77 477.764 3541.77 477.764 3541.86 478.251C3541.7 478.622 3541.54 478.898 3541.31 479.225C3541.26 479.311 3541.2 479.397 3541.15 479.485C3540.98 479.73 3540.98 479.73 3540.64 480.114C3540.29 480.172 3540.29 480.172 3540.03 480.119C3540.08 480.27 3540.13 480.42 3540.18 480.575C3540.25 480.773 3540.32 480.97 3540.39 481.168C3540.42 481.267 3540.45 481.366 3540.49 481.468C3540.74 482.22 3540.74 482.22 3540.66 482.585C3540.31 482.646 3540.31 482.646 3539.9 482.627C3539.48 482.156 3539.27 481.642 3539.04 481.059C3538.96 480.883 3538.89 480.706 3538.81 480.525C3538.66 480.157 3538.51 479.787 3538.37 479.416C3537.87 478.225 3537.87 478.225 3536.83 477.516C3536.57 477.431 3536.31 477.352 3536.04 477.282C3535.89 477.232 3535.89 477.232 3535.73 477.181C3535.47 477.099 3535.21 477.028 3534.94 476.958C3534.77 476.911 3534.6 476.865 3534.42 476.817C3534.3 476.785 3534.17 476.752 3534.04 476.718C3534.02 476.423 3534.02 476.423 3534.04 476.1C3534.12 476.028 3534.2 475.955 3534.29 475.88C3534.29 475.717 3534.29 475.555 3534.29 475.387C3534.31 474.79 3534.31 474.79 3534.61 474.297C3534.79 473.941 3534.83 473.793 3534.73 473.402C3534.53 472.948 3534.3 472.509 3534.07 472.067C3533.91 471.716 3533.75 471.364 3533.59 471.011C3533.41 470.619 3533.23 470.227 3533.04 469.835C3532.79 469.294 3532.54 468.752 3532.3 468.209C3532.18 467.948 3532.06 467.688 3531.94 467.428C3531.88 467.307 3531.83 467.186 3531.77 467.061C3531.72 466.948 3531.66 466.835 3531.61 466.718C3531.57 466.619 3531.52 466.521 3531.47 466.419C3531.31 466.112 3531.31 466.112 3531 465.86C3530.58 465.421 3530.37 464.932 3530.13 464.383C3530.03 464.16 3529.93 463.937 3529.83 463.714C3529.67 463.364 3529.52 463.014 3529.36 462.662C3529.21 462.322 3529.06 461.984 3528.9 461.645C3528.86 461.54 3528.81 461.434 3528.77 461.326C3528.62 460.99 3528.62 460.99 3528.31 460.562C3527.81 460.382 3527.81 460.382 3527.33 460.352C3525.7 459.65 3525.02 457.664 3524.28 456.176C3524.01 455.616 3524.01 455.616 3523.65 455.115C3523.55 455.159 3523.46 455.203 3523.36 455.249C3522.85 455.312 3522.56 455.213 3522.13 454.945C3521.5 454.343 3521.19 453.488 3520.85 452.703C3520.71 452.385 3520.57 452.069 3520.42 451.754C3520.33 451.552 3520.24 451.349 3520.15 451.147C3520.11 451.053 3520.06 450.959 3520.02 450.863C3519.8 450.345 3519.61 449.902 3519.68 449.335C3519.91 448.998 3519.91 448.998 3520.25 448.658C3520.37 448.532 3520.5 448.406 3520.62 448.277C3520.75 448.144 3520.89 448.012 3521.02 447.875C3521.29 447.596 3521.57 447.318 3521.84 447.039C3521.97 446.904 3522.1 446.769 3522.24 446.63C3522.67 446.182 3523.09 445.722 3523.5 445.252C3524.38 444.25 3525.3 443.286 3526.22 442.32C3527.2 441.29 3528.17 440.249 3529.13 439.199C3529.53 438.752 3529.94 438.305 3530.35 437.859C3530.48 437.723 3530.48 437.723 3530.61 437.584C3531.43 436.687 3532.26 435.797 3533.09 434.907C3533.78 434.176 3534.46 433.443 3535.13 432.705C3535.94 431.822 3536.76 430.947 3537.58 430.075C3538.29 429.321 3538.99 428.561 3539.69 427.798C3540.52 426.896 3541.35 426.001 3542.19 425.108C3542.69 424.571 3543.19 424.034 3543.68 423.483C3543.76 423.396 3543.84 423.31 3543.92 423.221C3544.12 422.995 3544.31 422.768 3544.51 422.541C3544.85 422.241 3544.85 422.241 3545.18 422.169C3545.47 422.235 3545.47 422.235 3545.87 422.595C3546.41 422.253 3546.41 422.253 3546.92 421.86C3546.92 421.715 3546.93 421.571 3546.93 421.422C3546.99 420.8 3547.11 420.584 3547.56 420.147C3547.97 419.94 3548.38 419.775 3548.82 419.664C3548.88 419.7 3548.94 419.735 3549.01 419.772C3549.02 419.645 3549.03 419.519 3549.05 419.388C3549.23 418.14 3549.56 417.515 3550.54 416.713C3551.19 416.346 3551.79 416.348 3552.5 416.546C3552.36 416.175 3552.21 415.805 3552.06 415.423C3551.95 415.432 3551.84 415.441 3551.73 415.451C3551.3 415.466 3551.3 415.466 3550.93 415.405C3550.43 415.357 3550.03 415.426 3549.53 415.528C3549.34 415.567 3549.15 415.606 3548.95 415.646C3548.74 415.689 3548.53 415.733 3548.32 415.777C3548.09 415.822 3547.87 415.868 3547.65 415.912C3547.17 416.008 3546.7 416.105 3546.22 416.201C3545.14 416.422 3544.05 416.634 3542.96 416.846C3542.46 416.943 3541.96 417.041 3541.46 417.138C3540.82 417.264 3540.17 417.39 3539.53 417.516C3538.44 417.729 3537.35 417.942 3536.26 418.155C3536.06 418.194 3536.06 418.194 3535.86 418.234C3534.31 418.535 3532.77 418.837 3531.23 419.14C3528.53 419.672 3525.83 420.198 3523.12 420.713C3523 420.737 3522.87 420.76 3522.75 420.785C3521.51 421.021 3520.27 421.257 3519.03 421.491C3515.77 422.11 3512.51 422.75 3509.25 423.409C3509.59 424.395 3509.59 424.395 3509.93 425.401C3510.42 425.325 3510.91 425.249 3511.41 425.171C3511.71 425.714 3511.71 425.714 3511.81 426.151C3511.9 426.579 3511.9 426.579 3512.15 426.825C3512.59 427.341 3512.74 428.031 3512.69 428.703C3512.56 429.287 3512.36 429.62 3511.94 430.044C3511.71 430.279 3511.71 430.279 3511.57 430.547C3511.65 431.093 3511.65 431.093 3511.78 431.456C3512.03 432.263 3512.06 433.121 3512.14 433.957C3511.53 434.319 3510.95 434.352 3510.27 434.375C3510.11 434.381 3510.11 434.381 3509.94 434.388C3509.68 434.4 3509.42 434.409 3509.16 434.418C3508.9 433.989 3508.81 433.632 3508.75 433.133C3508.73 432.991 3508.71 432.849 3508.69 432.702C3508.65 432.404 3508.62 432.106 3508.58 431.807C3508.45 430.878 3508.31 430.475 3507.53 429.89C3507.19 429.216 3507.08 428.525 3507.27 427.792C3507.47 427.275 3507.47 427.275 3507.83 426.872C3507.79 426.536 3507.79 426.536 3507.66 426.175C3507.62 426.04 3507.57 425.906 3507.53 425.768C3507.48 425.627 3507.44 425.487 3507.39 425.343C3507.34 425.201 3507.29 425.06 3507.25 424.914C3507.13 424.563 3507.02 424.214 3506.9 423.864C3506.62 423.926 3506.62 423.926 3506.33 423.988C3506.09 424.04 3505.84 424.091 3505.6 424.143C3505.47 424.17 3505.35 424.197 3505.22 424.225C3505.05 424.262 3505.05 424.262 3504.86 424.3C3504.76 424.323 3504.65 424.347 3504.53 424.371C3504.25 424.395 3504.25 424.395 3503.88 424.18C3503.38 423.217 3503.14 422.065 3503.06 420.99C3503.16 420.809 3503.16 420.809 3503.27 420.625C3503.42 420.588 3503.56 420.55 3503.71 420.512C3503.67 420.39 3503.64 420.268 3503.6 420.142C3503.47 419.686 3503.35 419.229 3503.22 418.771C3503.17 418.574 3503.11 418.377 3503.06 418.18C3502.98 417.897 3502.9 417.611 3502.82 417.326C3502.78 417.156 3502.73 416.985 3502.68 416.809C3502.59 416.036 3502.84 415.5 3503.25 414.857C3503.82 414.215 3504.57 414.019 3505.4 413.886C3506.14 413.936 3506.77 414.056 3507.4 414.45C3507.71 414.816 3507.94 415.223 3508.17 415.643C3508.22 415.728 3508.27 415.813 3508.32 415.901C3508.48 416.189 3508.64 416.477 3508.8 416.766C3508.85 416.86 3508.91 416.954 3508.96 417.051C3509.21 417.504 3509.37 417.89 3509.5 418.393C3509.65 418.356 3509.65 418.356 3509.79 418.318C3511.08 417.979 3512.38 417.641 3513.67 417.305C3513.78 417.277 3513.89 417.249 3514 417.22C3518.51 416.047 3523.03 414.917 3527.56 413.797C3527.81 413.735 3527.81 413.735 3528.06 413.673C3530.1 413.167 3532.15 412.661 3534.19 412.157C3534.15 412.021 3534.12 411.885 3534.08 411.745C3533.97 411.287 3533.97 411.287 3534.05 410.917C3534.32 410.489 3534.6 410.34 3535.05 410.102C3535.21 410.014 3535.37 409.927 3535.54 409.837C3535.71 409.747 3535.88 409.658 3536.06 409.566C3536.22 409.477 3536.39 409.388 3536.56 409.297C3537.37 408.861 3538.2 408.445 3539.04 408.056C3539.18 407.99 3539.32 407.924 3539.47 407.856C3539.86 407.75 3539.86 407.75 3540.55 408.035C3540.54 407.375 3540.52 406.716 3540.5 406.037C3540.33 405.97 3540.16 405.903 3539.99 405.835C3539.77 405.743 3539.54 405.651 3539.32 405.558C3539.21 405.515 3539.1 405.472 3538.99 405.427C3538.21 405.1 3537.8 404.788 3537.36 404.065C3537.05 403.2 3537.13 402.263 3537.45 401.412C3537.94 400.509 3538.46 399.966 3539.42 399.596C3540.43 399.343 3541.41 399.638 3542.4 399.858C3542.6 399.9 3542.79 399.94 3542.99 399.981C3546.78 400.78 3546.78 400.78 3547.48 401.803C3547.59 401.981 3547.59 401.981 3547.7 402.162C3547.96 402.205 3548.23 402.238 3548.5 402.265C3548.8 402.343 3549.09 402.428 3549.39 402.516C3549.55 402.563 3549.72 402.611 3549.9 402.66C3550.25 402.759 3550.6 402.862 3550.95 402.969C3552.07 403.273 3552.73 403.282 3553.76 402.731C3553.94 402.621 3553.94 402.621 3554.13 402.508C3554.24 402.45 3554.35 402.392 3554.46 402.331C3554.76 402.168 3555.06 401.996 3555.36 401.824C3555.58 401.7 3555.81 401.576 3556.03 401.452C3556.46 401.21 3556.88 400.952 3557.29 400.67C3559.25 399.405 3561.19 399.854 3563.37 400.259C3563.76 400.345 3563.76 400.345 3564.07 400.246C3564 400.067 3564 400.067 3563.93 399.884C3563.88 399.723 3563.82 399.562 3563.76 399.397C3563.7 399.239 3563.65 399.082 3563.59 398.919C3563.42 398.34 3563.34 397.8 3563.28 397.201C3563.15 397.192 3563.02 397.184 3562.89 397.175C3562.42 397.142 3561.94 397.107 3561.46 397.069C3561.26 397.054 3561.05 397.039 3560.85 397.026C3559.35 396.928 3558.12 396.756 3557.01 395.69C3556.51 394.815 3556.21 393.905 3556.38 392.894C3556.59 392.127 3556.99 391.597 3557.57 391.049C3558.5 390.527 3559.45 390.51 3560.49 390.552C3560.63 390.557 3560.77 390.561 3560.91 390.566C3563.19 390.651 3565.5 390.778 3567.77 391.028C3569.03 391.164 3570.27 391.2 3571.55 391.183C3571.71 391.18 3571.87 391.178 3572.04 391.176C3572.36 391.172 3572.69 391.168 3573.01 391.163C3573.43 391.158 3573.85 391.156 3574.26 391.156C3574.49 391.155 3574.72 391.153 3574.95 391.152C3575.05 391.153 3575.16 391.153 3575.26 391.154C3576.37 391.141 3577.16 390.671 3578.02 390.021C3578.11 389.955 3578.2 389.889 3578.29 389.821C3578.58 389.606 3578.87 389.39 3579.16 389.173C3579.36 389.022 3579.57 388.87 3579.77 388.719C3580.19 388.41 3580.6 388.102 3581.02 387.792C3581.88 387.152 3582.74 386.519 3583.61 385.885C3583.93 385.65 3584.24 385.416 3584.56 385.182C3585.13 384.768 3585.69 384.353 3586.25 383.939C3587.92 382.715 3589.59 381.488 3591.25 380.251C3591.67 379.936 3592.09 379.621 3592.52 379.306C3592.78 379.108 3593.05 378.909 3593.32 378.71C3593.68 378.437 3594.04 378.166 3594.41 377.895C3594.52 377.815 3594.62 377.735 3594.73 377.652C3595.47 377.108 3595.47 377.108 3595.95 376.983C3595.93 376.887 3595.9 376.791 3595.88 376.693C3595.62 376.775 3595.62 376.775 3595.35 376.858C3594.79 377.006 3594.43 376.985 3593.88 376.746C3593.81 376.663 3593.74 376.579 3593.66 376.493C3593.42 376.441 3593.42 376.441 3593.17 376.388C3592.68 376.284 3592.68 376.284 3592.46 376.031C3592.21 375.333 3592.02 374.656 3592.22 373.926C3593.37 372.637 3595.19 372.35 3596.81 372.038Z" fill="#3F5684"/>
<ellipse cx="3555.98" cy="409.004" rx="3.6438" ry="4.16785" transform="rotate(-14.3288 3555.98 409.004)" fill="#3F5684"/>
<ellipse cx="3562.4" cy="427.213" rx="3.17835" ry="3.81395" transform="rotate(-14.3288 3562.4 427.213)" fill="#3F5684"/>
<ellipse cx="3577.48" cy="397.715" rx="3.54788" ry="3.99387" transform="rotate(-14.3288 3577.48 397.715)" fill="#3F5684"/>
<path d="M3575.37 414.301L3568.36 411.202C3567.39 410.773 3566.3 411.451 3566.25 412.51L3566.18 414C3566.14 414.816 3566.76 415.515 3567.57 415.575L3574.91 416.12C3575.41 416.157 3575.85 415.804 3575.92 415.311C3575.99 414.888 3575.76 414.474 3575.37 414.301Z" fill="#3F5684"/>
<path d="M3584.66 409.99L3576.51 404.885C3576.06 404.605 3575.5 404.579 3575.03 404.818L3570.23 407.242C3569.12 407.803 3569.13 409.393 3570.25 409.941L3579.55 414.509C3579.98 414.72 3580.48 414.714 3580.9 414.495L3584.55 412.608C3585.59 412.071 3585.65 410.609 3584.66 409.99Z" fill="#3F5684"/>
</g>
<path d="M3539.39 131.527C3531.87 132.182 3518.82 160.004 3513.24 173.834C3500.81 180.856 3548.38 182.946 3573.72 183.113C3557.79 202.405 3636.8 185.471 3643.25 200.92C3649.69 216.368 3704.82 180.995 3710.4 188.222C3714.86 194.004 3758.38 187.676 3779.59 183.789C3802.38 179.182 3841.2 169.246 3814.16 166.364C3787.13 163.482 3744.42 102.146 3726.45 71.8389L3709.89 45.4836L3702.4 58.0718L3685.79 32.8846L3666.89 6.44192L3642.13 42.951L3629.1 78.7285L3624.13 55.1462L3616.64 67.7344L3596.82 65.8239L3592.88 77.3749L3578.09 66.2934C3568.32 87.765 3546.9 130.872 3539.39 131.527Z" fill="#4C5C82"/>
</svg>
