<svg width="4682" height="1109" viewBox="0 0 4682 1109" fill="none" xmlns="http://www.w3.org/2000/svg">
<path d="M993.311 1310.82H4681.74V690H993.311V1310.82Z" fill="url(#paint0_linear_249_27910)"/>
<path d="M4541.14 636.444L4682 632.333V694L-72 754V643.844L259.019 636.444L294.234 626.578L646.382 632.333L1083.05 636.444L1132.35 632.333L1343.64 636.444H1407.02L1878.9 632.333L2146.53 643.844L2245.13 632.333L2449.38 643.844L2639.54 636.444H2850.83L3083.25 643.844L3153.68 636.444H3280.45L3400.18 643.844L3534 632.333L3674.86 620L3787.54 626.578L3857.97 620L3984.75 626.578H4062.22L4174.91 636.444L4343.94 632.333L4541.14 636.444Z" fill="#3779AC"/>
<path d="M2737.46 0.232422L2919.74 2.04373L2934.33 12.9116L2943.44 11.1003L3038.23 49.1378L3096.56 72.6848L3100.2 83.5526L3103.85 125.213L3105.67 136.081L3112.96 141.515L3118.43 165.062L3131.19 179.552L3123.9 212.156L3103.85 286.419L3092.91 288.231L3085.62 299.098H3060.1L3061.92 324.457L3067.39 364.306V387.853L3074.68 447.626L3081.98 512.833L3087.44 543.625L3102.03 559.927L3103.85 565.361V578.04L3102.03 588.908L3114.79 601.587L3122.08 617.889L3123.9 636.002L3120.26 645.058H3103.85L3098.38 641.436L3102.03 654.115L3122.08 663.172L3127.55 681.285L3129.37 693.964L3125.72 703.02L3136.66 704.832L3147.6 710.266V712.077H2808.55L2812.2 708.454L2828.6 703.02V699.398H2824.96V686.719L2828.6 683.096L2832.25 666.794L2850.48 655.926L2855.94 645.058H2835.89L2830.42 639.624L2832.25 619.7L2839.54 601.587L2854.12 588.908L2852.3 570.795L2863.24 552.682L2868.7 547.248H2872.35L2874.17 521.889L2876 507.399L2877.82 465.739L2881.46 449.437L2927.03 358.872L2930.68 344.381L2950.73 306.344L2936.15 304.532L2877.82 288.231L2870.53 284.608L2866.88 279.174H2841.36L2810.37 291.853L2759.33 300.91L2713.76 311.778H2708.29L2704.65 328.079L2697.36 333.513L2693.71 329.891L2684.6 358.872L2675.48 391.475L2670.02 395.098L2657.26 434.947L2649.96 454.871L2648.14 478.418L2668.19 501.965L2673.66 505.588L2691.89 511.022L2702.83 518.267L2706.47 529.135L2724.7 534.569L2742.93 545.436L2746.57 552.682L2735.64 568.983L2746.57 570.795L2762.98 563.55L2772.09 567.172L2777.56 572.606H2786.68L2793.97 581.663V585.285H2821.31L2815.84 590.719L2799.44 601.587L2781.21 621.511L2777.56 628.757V637.813L2761.16 655.926L2750.22 657.738L2735.64 674.039L2724.7 692.152L2717.41 704.832L2715.59 699.398V681.285L2706.47 677.662L2701 674.039L2695.53 661.36L2690.07 655.926V645.058L2693.71 637.813L2691.89 628.757L2686.42 625.134L2675.48 639.624L2666.37 636.002L2655.43 623.323L2644.5 605.21L2640.85 592.53L2637.2 597.964L2644.5 607.021L2648.14 619.7V645.058L2635.38 646.87L2626.27 645.058L2628.09 655.926L2640.85 663.172L2648.14 664.983L2651.79 686.719L2655.43 688.53L2653.61 701.209L2660.9 706.643L2673.66 712.077L2675.48 715.699H2504.14L2511.43 710.266L2522.37 704.832H2526.01L2524.19 688.53L2527.83 679.473L2529.66 666.794L2544.24 661.36L2551.53 657.738L2553.35 645.058L2544.24 648.681L2531.48 646.87L2529.66 643.247V626.945L2535.13 608.832L2546.06 594.342L2553.35 587.097L2547.89 581.663L2549.71 568.983L2562.47 550.87L2566.11 545.436L2573.4 509.21V498.342L2558.82 489.286L2553.35 480.229L2551.53 474.795V454.871L2555.18 445.814L2558.82 429.513L2586.16 367.928L2589.81 349.815L2617.15 282.797L2622.62 252.004L2635.38 230.269L2595.28 228.457L2589.81 212.156L2578.87 210.344L2562.47 212.156L2549.71 210.344L2536.95 212.156L2522.37 210.344L2515.07 212.156L2520.54 232.08L2511.43 233.891L2502.31 244.759L2440.34 246.57L2434.87 255.627L2423.93 257.438L2409.35 250.193L2402.06 252.004L2400.24 255.627H2351.02L2345.55 242.948L2292.69 241.137L2290.87 232.08L2312.74 230.269L2316.38 212.156L2299.98 210.344L2298.16 206.722H2316.38V203.099L2307.27 199.476L2305.45 192.231L2310.92 181.363L2334.61 168.684L2340.08 156.005L2361.96 150.571L2371.07 139.703L2402.06 132.458L2414.82 134.269L2427.58 136.081L2487.73 121.59H2507.78L2509.61 132.458H2529.66L2544.24 130.647H2571.58L2589.81 132.458V61.8169L2691.89 27.4021L2701 23.7794L2710.12 25.5907L2717.41 16.5342L2726.52 3.85504L2737.46 0.232422ZM2992.66 393.286L2961.67 444.003L2950.73 462.116L2941.62 505.588L2936.15 541.814V554.493L2945.26 578.04V588.908L2939.79 597.964L2943.44 605.21L2947.09 616.077V643.247L2928.86 645.058V655.926L2948.91 666.794L2952.55 683.096L2956.2 688.53V697.586V704.832L2978.07 710.266L2999.95 703.02L2998.13 684.907H3001.77L3007.24 668.605L3016.35 661.36L3023.65 657.738L3027.29 650.492V643.247L3003.59 641.436L3007.24 619.7L3014.53 601.587L3020 594.342L3012.71 583.474V570.795L3018.18 556.304L3020 554.493V538.191L3012.71 485.663L3007.24 469.361L3005.42 444.003L2996.3 396.909L2992.66 393.286ZM2704.65 549.059L2691.89 565.361V572.606L2699.18 568.983L2711.94 558.116H2722.88L2713.76 550.87L2704.65 549.059ZM2682.77 574.417L2673.66 583.474L2662.72 585.285V597.964L2670.02 612.455H2675.48L2673.66 601.587L2691.89 579.851L2690.07 574.417H2682.77ZM2868.7 599.776L2859.59 608.832L2854.12 616.077V630.568L2859.59 626.945V623.323L2866.88 621.511L2894.22 619.7L2896.05 607.021L2870.53 599.776H2868.7ZM3081.98 599.776L3061.92 601.587V617.889L3092.91 621.511L3098.38 625.134L3100.2 617.889L3085.62 599.776H3081.98ZM2566.11 603.398L2557 610.644L2551.53 619.7L2553.35 630.568L2558.82 625.134L2589.81 623.323L2591.63 605.21L2582.52 607.021L2566.11 603.398ZM2901.52 607.021L2899.69 621.511H2921.57L2925.21 628.757L2927.03 626.945V614.266L2919.74 607.021H2901.52ZM3052.81 605.21L3030.94 608.832L3025.47 619.7V626.945L3030.94 625.134L3032.76 621.511L3058.28 619.7L3056.46 605.21H3052.81ZM2598.92 608.832L2597.1 610.644V623.323H2622.62V632.379H2626.27V616.077L2620.8 610.644H2608.04L2598.92 608.832Z" fill="url(#paint1_linear_249_27910)"/>
<rect width="27.5771" height="9.19237" rx="4.59618" transform="matrix(-1 0 0 1 979.021 481.142)" fill="url(#paint2_linear_249_27910)"/>
<rect width="37.7908" height="4.0855" transform="matrix(-1 0 0 1 958.59 484.204)" fill="url(#paint3_linear_249_27910)"/>
<path d="M927.952 618.697L936.123 656.999H796.195L803.855 618.697H810.494L823.261 508.389L798.748 499.707V477.237C807.736 471.518 833.475 469.066 845.221 470.088V462.938C862.38 460.078 873.819 459.874 887.608 462.938V471.109C899.864 468.556 918.249 473.662 921.824 476.216V499.707L903.95 508.389L915.185 618.697H927.952Z" fill="url(#paint4_linear_249_27910)"/>
<path d="M2730.9 1017.49C2697.37 944.6 3008.8 907.027 2786.98 850.625C2742.62 839.344 2285.98 837.652 2253.68 822.204C2194.07 793.692 2639.74 732 2253.68 732H-72V1162L3743 1243C3743 1243 3636.17 1128.85 3334.5 1090.38C3021.32 1050.45 2840.65 1090.38 2730.9 1017.49Z" fill="#8DC8E5"/>
<path d="M1904.57 358.42H1922.97L1957.16 361.053L1974.25 372.901L1996.6 378.166L2029.47 379.483V384.748L2024.21 383.432L2022.89 387.381H2012.38L2011.06 383.432L1988.71 390.014L1967.67 391.331L1925.6 399.229L1916.4 400.545L1870.38 401.862L1859.87 400.545V397.913H1862.49L1865.12 374.217L1869.07 370.268H1879.59V365.002H1869.07L1865.12 361.053H1890.1L1888.79 365.002H1899.31L1904.57 358.42ZM1908.51 359.736L1907.2 365.002H1913.77V359.736H1908.51ZM1915.08 361.053V371.584H1922.97V363.686L1924.29 361.053H1915.08ZM1932.18 361.053V371.584H1934.81V367.635L1938.75 368.951V362.369L1932.18 361.053ZM1949.27 362.369V371.584H1959.79L1962.42 367.635L1955.84 362.369H1949.27ZM1940.06 368.951V371.584L1942.69 370.268L1940.06 368.951Z" fill="#3675A6"/>
<defs>
<linearGradient id="paint0_linear_249_27910" x1="3352" y1="1311" x2="3352" y2="690" gradientUnits="userSpaceOnUse">
<stop stop-color="#193448"/>
<stop offset="1" stop-color="#3779AC"/>
</linearGradient>
<linearGradient id="paint1_linear_249_27910" x1="2505.94" y1="715.235" x2="2505.94" y2="-33.2252" gradientUnits="userSpaceOnUse">
<stop stop-color="#3779AC"/>
<stop offset="1" stop-color="#559DD5"/>
</linearGradient>
<linearGradient id="paint2_linear_249_27910" x1="13.7885" y1="0" x2="13.7885" y2="9.19237" gradientUnits="userSpaceOnUse">
<stop stop-color="#5B96BD"/>
<stop offset="1" stop-color="#3779AC"/>
</linearGradient>
<linearGradient id="paint3_linear_249_27910" x1="18.8954" y1="0" x2="18.8954" y2="4.0855" gradientUnits="userSpaceOnUse">
<stop stop-color="#5B96BD"/>
<stop offset="1" stop-color="#3779AC"/>
</linearGradient>
<linearGradient id="paint4_linear_249_27910" x1="866.159" y1="460.716" x2="866.159" y2="656.999" gradientUnits="userSpaceOnUse">
<stop stop-color="#5B96BD"/>
<stop offset="1" stop-color="#3779AC"/>
</linearGradient>
</defs>
</svg>
