<svg width="4682" height="977" viewBox="0 0 4682 977" fill="none" xmlns="http://www.w3.org/2000/svg">
<path d="M143.43 149.352L-2.47571 130.267L-2.47571 1006L4666.73 1006L4710.43 135.08L4666.73 135.59L4586.77 149.513L4521.52 176.257L4477.82 176.766L4477.94 187.158L4419.83 200.826L4383.26 188.261L4354.13 188.601L4332.43 201.845L4244.88 189.875L4171.93 180.332L4099.1 181.181L4040.95 192.252L3997.25 192.762L3938.87 183.05L3909.64 175.595L3785.83 177.039L3734.64 159.448L3683.5 147.053L3668.78 134.233L3603.24 134.998L3530.4 135.847L3493.68 110.292L3427.89 90.2734L3384.07 80.3913L3383.95 69.9997L3332.79 55.0067L3230.95 66.5871L3150.56 44.1401L3106.92 49.8453L3070.56 55.4657L3019.7 66.4516L2983.32 69.4741L2939.68 75.1793L2895.89 67.8951L2830.1 47.8762L2822.76 42.7653L2800.97 48.2158L2786.22 32.7983L2771.59 27.7723L2742.67 46.2972L2720.88 51.7477L2691.87 62.479L2669.99 60.1358C2669.99 60.1358 2648.04 52.0773 2648.02 49.999C2648 47.9207 2643.07 42.2619 2640.62 39.6923L2589.91 63.6677L2560.77 64.0074C2550.98 57.1929 2531.39 43.0443 2531.37 40.966C2531.34 38.8877 2511.82 29.9349 2502.05 25.7183L2494.95 41.3905L2473.25 54.6347L2451.53 65.281L2436.96 65.4509L2415.11 65.7056L2407.95 76.1821L2386.28 92.0242L2342.73 105.523L2255.34 106.542L2182.78 130.772L2168.24 133.54L2095.41 134.389L2073.65 142.437L2022.67 143.032L2015.32 137.921L1956.94 128.209L1956.88 123.013L1898.61 123.692L1876.82 129.143L1818.65 137.616L1803.93 124.796L1738.44 130.756L1738.38 125.56L1672.83 126.324L1650.92 121.383L1541.8 133.049L1512.79 143.78L1337.99 145.818L1264.92 125.884L1228.38 115.917L1111.73 106.884L1082.35 86.4402L987.792 97.9356L965.943 98.1904L878.424 88.8177L682.263 132.677L449.262 140.59L318.165 142.118L230.828 148.333L230.767 143.137L194.351 143.562L179.725 138.536L143.43 149.352Z" fill="#C3D9E8"/>
</svg>
