<svg width="4682" height="799" viewBox="0 0 4682 799" fill="none" xmlns="http://www.w3.org/2000/svg">
<path d="M4543.13 271.667L4682 266V804H-5V281.867L321.354 271.667L356.073 258.067L703.258 266L1133.77 271.667L1182.37 266L1390.68 271.667H1453.18L1918.41 266L2182.27 281.867L2279.48 266L2480.85 281.867L2668.33 271.667H2876.64L3105.78 281.867L3175.22 271.667H3300.2L3418.25 281.867L3550.18 266L3689.05 249L3800.15 258.067L3869.59 249L3994.57 258.067H4070.95L4182.05 271.667L4348.7 266L4543.13 271.667Z" fill="url(#paint0_linear_249_27911)"/>
<path d="M3411.69 0.261719L3498.53 1.12547L3505.48 6.308L3509.82 5.44425L3554.98 23.5831L3582.77 34.8119L3584.51 39.9944L3586.24 59.8608L3587.11 65.0433L3590.59 67.6346L3593.19 78.8634L3599.27 85.7735L3595.8 101.321L3586.24 136.735L3581.03 137.599L3577.56 142.781H3565.4L3566.27 154.874L3568.88 173.876V185.105L3572.35 213.609L3575.82 244.704L3578.43 259.388L3585.38 267.162L3586.24 269.753V275.8L3585.38 280.982L3591.46 287.028L3594.93 294.802L3595.8 303.44L3594.06 307.758H3586.24L3583.64 306.031L3585.38 312.077L3594.93 316.396L3597.53 325.034L3598.4 331.08L3596.67 335.399L3601.88 336.262L3607.09 338.854V339.717H3445.56L3447.29 337.99L3455.11 335.399V333.671H3453.37V327.625L3455.11 325.897L3456.84 318.124L3465.53 312.941L3468.13 307.758H3458.58L3455.98 305.167L3456.84 295.666L3460.32 287.028L3467.27 280.982L3466.4 272.345L3471.61 263.707L3474.21 261.116H3475.95L3476.82 249.023L3477.69 242.113L3478.56 222.247L3480.29 214.473L3502 171.285L3503.74 164.375L3513.29 146.236L3506.35 145.373L3478.56 137.599L3475.08 135.871L3473.35 133.28H3461.19L3446.42 139.326L3422.11 143.645L3400.4 148.828H3397.79L3396.05 156.601L3392.58 159.193L3390.84 157.465L3386.5 171.285L3382.16 186.833L3379.55 188.56L3373.47 207.563L3370 217.064L3369.13 228.293L3378.68 239.522L3381.29 241.249L3389.97 243.841L3395.18 247.296L3396.92 252.478L3405.61 255.069L3414.29 260.252L3416.03 263.707L3410.82 271.481L3416.03 272.345L3423.84 268.89L3428.19 270.617L3430.79 273.208H3435.13L3438.61 277.527V279.255H3451.63L3449.03 281.846L3441.21 287.028L3432.53 296.53L3430.79 299.985V304.303L3422.98 312.941L3417.76 313.805L3410.82 321.579L3405.61 330.216L3402.13 336.262L3401.26 333.671V325.034L3396.92 323.306L3394.32 321.579L3391.71 315.532L3389.11 312.941V307.758L3390.84 304.303L3389.97 299.985L3387.37 298.257L3382.16 305.167L3377.82 303.44L3372.6 297.393L3367.39 288.756L3365.66 282.71L3363.92 285.301L3367.39 289.62L3369.13 295.666V307.758L3363.05 308.622L3358.71 307.758L3359.58 312.941L3365.66 316.396L3369.13 317.26L3370.87 327.625L3372.6 328.489L3371.74 334.535L3375.21 337.126L3381.29 339.717L3382.16 341.445H3300.52L3304 338.854L3309.21 336.262H3310.94L3310.08 328.489L3311.81 324.17L3312.68 318.124L3319.63 315.532L3323.1 313.805L3323.97 307.758L3319.63 309.486L3313.55 308.622L3312.68 306.895V299.121L3315.29 290.483L3320.5 283.573L3323.97 280.118L3321.37 277.527L3322.23 271.481L3328.31 262.843L3330.05 260.252L3333.52 242.977V237.794L3326.58 233.476L3323.97 229.157L3323.1 226.566V217.064L3324.84 212.745L3326.58 204.972L3339.6 175.604L3341.34 166.966L3354.37 135.007L3356.97 120.324L3363.05 109.959L3343.95 109.095L3341.34 101.321L3336.13 100.457L3328.31 101.321L3322.23 100.457L3316.16 101.321L3309.21 100.457L3305.73 101.321L3308.34 110.822L3304 111.686L3299.65 116.869L3270.13 117.732L3267.52 122.051L3262.31 122.915L3255.36 119.46L3251.89 120.324L3251.02 122.051H3227.57L3224.97 116.005L3199.78 115.141L3198.91 110.822L3209.34 109.959L3211.07 101.321L3203.26 100.457L3202.39 98.7298H3211.07V97.0023L3206.73 95.2748L3205.86 91.8197L3208.47 86.6372L3219.76 80.5909L3222.36 74.5446L3232.78 71.9534L3237.13 66.7708L3251.89 63.3158L3257.97 64.1796L3264.05 65.0433L3292.71 58.1333H3302.26L3303.13 63.3158H3312.68L3319.63 62.4521H3332.66L3341.34 63.3158V29.6294L3389.97 13.218L3394.32 11.4905L3398.66 12.3543L3402.13 8.03551L3406.47 1.98923L3411.69 0.261719ZM3533.27 187.697L3518.51 211.882L3513.29 220.519L3508.95 241.249L3506.35 258.524V264.571L3510.69 275.8V280.982L3508.08 285.301L3509.82 288.756L3511.56 293.938V306.895L3502.87 307.758V312.941L3512.43 318.124L3514.16 325.897L3515.9 328.489V332.807V336.262L3526.32 338.854L3536.74 335.399L3535.87 326.761H3537.61L3540.22 318.987L3544.56 315.532L3548.03 313.805L3549.77 310.35V306.895L3538.48 306.031L3540.22 295.666L3543.69 287.028L3546.3 283.573L3542.82 278.391V272.345L3545.43 265.434L3546.3 264.571V256.797L3542.82 231.748L3540.22 223.974L3539.35 211.882L3535.01 189.424L3533.27 187.697ZM3396.05 261.979L3389.97 269.753V273.208L3393.45 271.481L3399.53 266.298H3404.74L3400.4 262.843L3396.05 261.979ZM3385.63 274.072L3381.29 278.391L3376.08 279.255V285.301L3379.55 292.211H3382.16L3381.29 287.028L3389.97 276.663L3389.11 274.072H3385.63ZM3474.21 286.165L3469.87 290.483L3467.27 293.938V300.848L3469.87 299.121V297.393L3473.35 296.53L3486.37 295.666L3487.24 289.62L3475.08 286.165H3474.21ZM3575.82 286.165L3566.27 287.028V294.802L3581.03 296.53L3583.64 298.257L3584.51 294.802L3577.56 286.165H3575.82ZM3330.05 287.892L3325.71 291.347L3323.1 295.666L3323.97 300.848L3326.58 298.257L3341.34 297.393L3342.21 288.756L3337.87 289.62L3330.05 287.892ZM3489.85 289.62L3488.98 296.53H3499.4L3501.14 299.985L3502 299.121V293.075L3498.53 289.62H3489.85ZM3561.93 288.756L3551.51 290.483L3548.9 295.666V299.121L3551.51 298.257L3552.37 296.53L3564.53 295.666L3563.66 288.756H3561.93ZM3345.68 290.483L3344.81 291.347V297.393H3356.97V301.712H3358.71V293.938L3356.1 291.347H3350.03L3345.68 290.483Z" fill="url(#paint1_linear_249_27911)"/>
<path d="M1756.31 107.93H1769.04L1792.7 109.708L1804.53 117.71L1820 121.267L1842.74 122.156V125.713L1839.1 124.824L1838.19 127.491H1830.91L1830 124.824L1814.54 129.269L1799.98 130.159L1770.86 135.493L1764.5 136.383L1732.65 137.272L1725.37 136.383V134.604H1727.19L1729.01 118.6L1731.74 115.932H1739.02V112.375H1731.74L1729.01 109.708H1746.3L1745.39 112.375H1752.67L1756.31 107.93ZM1759.04 108.819L1758.13 112.375H1762.68V108.819H1759.04ZM1763.59 109.708V116.821H1769.04V111.486L1769.95 109.708H1763.59ZM1775.41 109.708V116.821H1777.23V114.154L1779.96 115.043V110.597L1775.41 109.708ZM1787.24 110.597V116.821H1794.52L1796.34 114.154L1791.79 110.597H1787.24ZM1780.87 115.043V116.821L1782.69 115.932L1780.87 115.043Z" fill="#4B95C7"/>
<path d="M1668.4 76.9854H1676.8L1692.39 78.1755L1700.19 83.5313L1710.38 85.9117L1725.37 86.5068V88.8872L1722.98 88.2921L1722.38 90.0773H1717.58L1716.98 88.2921L1706.78 91.2675L1697.19 91.8626L1678 95.4331L1673.8 96.0282L1652.81 96.6233L1648.01 96.0282V94.8381H1649.21L1650.41 84.1264L1652.21 82.3412H1657.01V79.9608H1652.21L1650.41 78.1755H1661.81L1661.21 79.9608H1666L1668.4 76.9854ZM1670.2 77.5804L1669.6 79.9608H1672.6V77.5804H1670.2ZM1673.2 78.1755V82.9363H1676.8V79.3657L1677.4 78.1755H1673.2ZM1681 78.1755V82.9363H1682.2V81.151L1683.99 81.7461V78.7706L1681 78.1755ZM1688.79 78.7706V82.9363H1693.59L1694.79 81.151L1691.79 78.7706H1688.79ZM1684.59 81.7461V82.9363L1685.79 82.3412L1684.59 81.7461Z" fill="#4D9BCF"/>
<rect width="21.5489" height="7.18318" rx="3.59159" transform="matrix(-1 0 0 1 1570.51 137.049)" fill="#4D9BCF"/>
<rect width="29.53" height="3.19243" transform="matrix(-1 0 0 1 1554.55 139.437)" fill="#4D9BCF"/>
<path d="M1530.61 244.529L1536.99 274.458H1427.65L1433.64 244.529H1438.83L1448.8 158.333L1429.65 151.549V133.991C1436.67 129.522 1456.78 127.606 1465.96 128.404V122.817C1479.37 120.583 1488.31 120.423 1499.08 122.817V129.202C1508.66 127.207 1523.03 131.198 1525.82 133.193V151.549L1511.85 158.333L1520.63 244.529H1530.61Z" fill="#4D9BCF"/>
<defs>
<linearGradient id="paint0_linear_249_27911" x1="2112" y1="396" x2="2112" y2="892" gradientUnits="userSpaceOnUse">
<stop stop-color="#4D9BCF"/>
<stop offset="1" stop-color="#347FB2"/>
</linearGradient>
<linearGradient id="paint1_linear_249_27911" x1="3403" y1="0.261719" x2="3403" y2="341.445" gradientUnits="userSpaceOnUse">
<stop stop-color="#70A2C3"/>
<stop offset="1" stop-color="#4793C7"/>
</linearGradient>
</defs>
</svg>
