<svg width="4674" height="678" viewBox="0 0 4674 678" fill="none" xmlns="http://www.w3.org/2000/svg">
<path d="M2446.26 574.264L2512.72 541.899L2686.95 686.887L2813.97 715.302L2927.26 853.058L-14.0169 730.215L-46.8345 192.375L49.5135 227.658L110.399 199.927L176.009 214.046L251.142 247.714L342.221 249.814L434.075 269.581L476.265 243.66L559.796 238.302L598.737 270.016L647.275 257.128L682.692 241.416L752.251 279.718L864.425 268.858L953.88 299.775L1078.75 314.98L1185.7 349.662L1281.93 370.37L1372.93 436.62L1486.66 461.093L1600.38 485.566L1724.4 547.255L1757.84 519.452L1859.72 556.517L1950.3 560.868L1985.29 568.398L2042.15 580.634L2253.8 532.848L2301.92 543.202L2385.87 514.603L2446.26 574.264Z" fill="url(#paint0_linear_249_27909)"/>
<rect width="52.2171" height="17.4055" rx="8.70274" transform="matrix(-1 0 0 1 1383.26 63.0771)" fill="url(#paint1_linear_249_27909)"/>
<rect width="71.5568" height="7.73565" transform="matrix(-1 0 0 1 1344.57 68.8789)" fill="url(#paint2_linear_249_27909)"/>
<path d="M1286.56 323.534L1302.03 396.058H1037.07L1051.58 323.534H1064.15L1088.32 114.666L1041.91 98.2269V55.6797C1058.93 44.8494 1107.66 40.2079 1129.9 42.1419V28.6041C1162.39 23.189 1184.06 22.8022 1210.16 28.6041V44.0759C1233.37 39.2409 1268.18 48.9108 1274.95 53.7457V98.2269L1241.11 114.666L1262.38 323.534H1286.56Z" fill="url(#paint3_linear_249_27909)"/>
<defs>
<linearGradient id="paint0_linear_249_27909" x1="696" y1="891" x2="696" y2="459" gradientUnits="userSpaceOnUse">
<stop stop-color="#0D1217"/>
<stop offset="1" stop-color="#223A4F"/>
</linearGradient>
<linearGradient id="paint1_linear_249_27909" x1="26.1085" y1="0" x2="26.1085" y2="17.4055" gradientUnits="userSpaceOnUse">
<stop stop-color="#446B8D"/>
<stop offset="1" stop-color="#223A4F"/>
</linearGradient>
<linearGradient id="paint2_linear_249_27909" x1="35.7784" y1="0" x2="35.7784" y2="7.73565" gradientUnits="userSpaceOnUse">
<stop stop-color="#446B8D"/>
<stop offset="1" stop-color="#223A4F"/>
</linearGradient>
<linearGradient id="paint3_linear_249_27909" x1="1169.55" y1="24.3965" x2="1169.55" y2="396.058" gradientUnits="userSpaceOnUse">
<stop stop-color="#446B8D"/>
<stop offset="1" stop-color="#223A4F"/>
</linearGradient>
</defs>
</svg>
