<svg width="4674" height="1619" viewBox="0 0 4674 1619" fill="none" xmlns="http://www.w3.org/2000/svg">
<path d="M1291.23 637.588L1254.77 581.471C1233.79 558.985 1202.06 547.835 1202.06 547.835C1173.53 536.766 1160.02 498.063 1145.75 501.096C1122.24 506.088 1143.18 451.658 1105.66 464.454L1089.36 455.983L1079.65 455.789L1069.68 429.524L1057.19 429.274L1033.62 396.222C1028.07 396.111 1016.36 384.148 1013.95 337.183C1008.36 327.297 995.751 308.473 990.031 312.269C984.31 316.064 975.056 326.63 971.143 331.438L959.288 316.54L941.247 316.179C934.354 303.491 938.056 268.872 918.313 268.477C903.71 268.185 900.582 264.878 894.122 281.841C890.041 279.858 880.997 277.016 877.469 281.507C873.059 287.121 865.52 282.736 851.266 293.201C841.826 300.133 838.184 282.487 830.979 280.578C824.758 280.453 808.811 282.301 803.741 284.106C796.133 286.814 767.04 256.492 763.272 256.417C759.503 256.342 745.537 265.022 745.537 265.022C741.835 268.672 715.149 243.846 713.253 240.754C711.126 234.98 706.619 227.137 704.903 225.111C702.209 221.931 698.752 206.797 695.553 200.488L702.503 184.337C695.179 166.224 694.278 163.042 675.877 157.739L662.881 137.116C663.509 122.614 648.894 141.667 641.653 130.176C630.004 111.691 623.674 105.934 613.956 96.226C610.627 92.9014 595.327 93.4098 595.009 100.734C582.637 94.124 546.866 83.42 533.783 87.2904C506.503 95.3604 481.244 128.57 474.404 159.41L467.489 174.748L458.246 195.742C445.427 224.854 446.996 234.907 421.189 249.575L398.856 284.152C397.186 290.635 392.486 302.92 387.048 300.205C367.825 290.607 356.077 221.275 334.347 202.222L301.064 217.034L294.843 232.385L288.175 242.025L277.167 255.654L266.677 273.364L256.328 287.816L235.112 312.642L227.479 312.489L217.201 325.316L212.685 333.371L203.664 333.191L185.294 356.444L184.871 366.21L165.184 387.809C159.488 396.383 145.904 412.836 137.135 410.054C128.366 407.273 106.887 434.971 97.2436 449.168C94.429 455.357 86.9815 468.023 79.7088 469.181C73.0933 470.234 53.3931 498.665 53.6594 509.386L41.5812 515.661L29.1857 529.26L23.8586 556.032C10.0008 565.102 -7.62522 588.798 -23.3836 588.483C-29.3813 598.68 -42.4871 619.053 -46.9279 618.964C-51.3687 618.875 -72.3151 638.548 -82.2331 648.395L-97.8864 657.042L-109 673.11L-66.4265 668.26L0.186249 669.593C9.20671 669.773 41.3719 664.715 34.8801 670.286C28.3883 675.858 58.6723 682.166 70.7151 676.705C82.758 671.244 118.393 666.255 113.983 671.869C109.573 677.482 155.616 672.701 160.473 672.798C165.33 672.896 176.855 663.352 198.154 668.665C219.453 673.978 250.466 679.486 254.841 674.686C258.34 670.846 287.755 673.715 302.024 675.63C320.136 674.363 354 671.782 344.563 671.593C332.767 671.357 384.537 662.619 399.038 664.538C413.539 666.457 445.176 673.606 454.196 673.786C463.216 673.967 497.428 669.764 513.87 674.98C520.232 672.392 537.398 667.305 555.161 667.66C577.366 668.105 611.707 676.937 619.34 677.089C626.972 677.242 646.754 669.492 675.203 670.061C703.652 670.63 738.346 671.324 751.812 665.077C753.948 664.086 755.455 663.3 756.467 662.683C768.868 668.699 798.419 677.283 839.653 673.351C849.253 670.828 873.102 667.504 891.694 674.392C907.943 673.359 943.598 672.172 956.225 675.682C972.008 680.071 1035.5 673.195 1050.22 670.232C1064.93 667.268 1112.91 665.784 1129.28 672.627C1142.38 678.102 1179.63 675.264 1196.62 673.16C1207.85 675.828 1233.36 681.225 1245.57 681.47C1257.79 681.714 1279.99 677.814 1289.57 675.833L1291.23 637.588Z" fill="url(#paint0_linear_250_27918)"/>
<path d="M1866.97 803.745L1835.47 670.754C1814.5 648.268 1782.76 637.119 1782.76 637.119C1754.24 626.049 1740.73 587.347 1726.45 590.379C1702.95 595.371 1723.88 540.941 1686.37 553.737L1670.07 545.266L1660.35 545.072L1650.38 518.807L1637.89 518.557L1614.32 485.505C1608.77 485.394 1597.07 473.431 1594.66 426.466C1589.07 416.58 1576.46 397.756 1570.74 401.552C1565.02 405.347 1555.76 415.913 1551.85 420.721L1539.99 405.823L1521.95 405.462C1515.06 392.774 1518.76 358.155 1499.02 357.76C1484.41 357.468 1481.29 354.161 1474.83 371.124C1470.75 369.141 1461.7 366.299 1458.17 370.79C1453.76 376.404 1446.22 372.019 1431.97 382.484C1422.53 389.416 1418.89 371.77 1411.68 369.861C1405.46 369.736 1389.52 371.584 1384.45 373.389C1376.84 376.097 1347.75 345.776 1343.98 345.7C1340.21 345.625 1326.24 354.305 1326.24 354.305C1322.54 357.955 1295.85 333.129 1293.96 330.037C1291.83 324.263 1287.32 316.42 1285.61 314.394C1282.91 311.214 1279.46 296.08 1276.26 289.771L1283.21 273.62C1275.88 255.507 1274.98 252.325 1256.58 247.022L1243.59 226.399C1244.21 211.897 1229.6 230.95 1222.36 219.459C1210.71 200.974 1204.38 195.217 1194.66 185.509C1191.33 182.184 1176.03 182.693 1175.71 190.017C1163.34 183.407 1127.57 172.703 1114.49 176.573C1087.21 184.643 1061.95 217.853 1055.11 248.693L1048.19 264.031L1038.95 285.025C1026.13 314.137 1027.7 324.19 1001.89 338.858L979.561 373.435C977.891 379.918 973.191 392.203 967.753 389.488C948.53 379.89 936.782 310.558 915.052 291.505L881.769 306.317L875.548 321.668L868.88 331.308L857.872 344.937L847.382 362.647L837.033 377.099L815.817 401.925L808.184 401.772L797.906 414.599L793.39 422.654L784.369 422.474L766 445.727L765.576 455.493L745.889 477.092C740.193 485.666 726.609 502.119 717.84 499.337C709.071 496.556 687.592 524.254 677.949 538.451C675.134 544.64 667.687 557.306 660.414 558.464C653.798 559.517 634.098 587.948 634.364 598.669L622.286 604.944L609.891 618.543L604.564 645.315C590.706 654.385 573.08 678.081 557.321 677.766C551.324 687.963 538.218 708.336 533.777 708.247C529.336 708.158 508.39 727.831 498.472 737.678L482.819 746.325L471.705 762.393L514.279 757.543L580.891 758.876C589.912 759.056 622.077 753.998 615.585 759.569C609.093 765.141 639.377 771.449 651.42 765.988C663.463 760.527 699.098 755.538 694.688 761.152C690.278 766.765 736.32 761.984 741.178 762.081C746.035 762.179 757.56 752.635 778.859 757.948C800.158 763.261 831.171 768.769 835.546 763.969C839.045 760.129 868.46 762.998 882.729 764.913C900.841 763.646 934.705 761.065 925.268 760.876C913.472 760.64 965.242 751.902 979.743 753.821C994.244 755.74 1025.88 762.889 1034.9 763.069C1043.92 763.25 1078.13 759.047 1094.57 764.263C1100.94 761.675 1118.1 756.588 1135.87 756.943C1158.07 757.388 1192.41 766.22 1200.04 766.372C1207.68 766.525 1227.46 758.775 1255.91 759.344C1284.36 759.913 1319.05 760.607 1332.52 754.361C1334.65 753.369 1336.16 752.584 1337.17 751.966C1349.57 757.982 1379.12 766.566 1420.36 762.634C1429.96 760.111 1453.81 756.787 1472.4 763.675C1488.65 762.642 1524.3 761.455 1536.93 764.965C1552.71 769.354 1616.21 762.478 1630.92 759.515C1645.63 756.551 1693.62 755.067 1709.99 761.91C1723.08 767.385 1760.34 764.547 1777.33 762.443C1788.56 765.111 1814.07 770.508 1826.28 770.753C1838.49 770.997 1860.7 767.097 1870.27 765.117L1866.97 803.745Z" fill="url(#paint1_linear_250_27918)"/>
<path d="M4110.58 818.229L4086.87 762.367C4073.09 740.026 4051.92 729.087 4051.92 729.087C4032.9 718.208 4024.37 679.605 4014.74 682.73C3998.87 687.875 4013.71 633.323 3988.32 646.362L3977.48 638L3970.95 637.869L3964.62 611.678L3956.23 611.51L3940.86 578.621C3937.13 578.547 3929.44 566.664 3928.48 519.728C3924.87 509.881 3916.66 491.146 3912.76 494.978C3908.86 498.81 3902.49 509.433 3899.79 514.266L3892.04 499.449L3879.91 499.207C3875.46 486.568 3878.44 451.935 3865.18 451.669C3855.37 451.473 3853.31 448.187 3848.73 465.187C3846.01 463.232 3839.98 460.451 3837.54 464.964C3834.5 470.605 3829.49 466.27 3819.76 476.826C3813.32 483.817 3811.12 466.2 3806.31 464.339C3802.13 464.255 3791.38 466.207 3787.95 468.045C3782.8 470.802 3763.67 440.68 3761.14 440.629C3758.61 440.579 3749.1 449.348 3749.1 449.348C3746.56 453.021 3728.98 428.378 3727.75 425.299C3726.4 419.54 3723.48 411.729 3722.36 409.715C3720.59 406.553 3718.48 391.446 3716.42 385.16L3721.32 368.968C3716.66 350.909 3716.1 347.733 3703.8 342.553L3695.36 322.021C3695.99 307.519 3685.9 326.662 3681.19 315.221C3673.63 296.818 3669.45 291.104 3663.06 281.463C3660.87 278.161 3650.58 278.77 3650.26 286.094C3642.04 279.567 3618.15 269.101 3609.3 273.056C3590.85 281.302 3573.4 314.668 3568.37 345.544L3563.5 360.923L3556.99 381.972C3547.96 411.159 3548.87 421.199 3531.32 436.032L3515.82 470.746C3514.6 477.238 3511.27 489.551 3507.65 486.872C3494.87 477.403 3487.96 408.167 3473.62 389.263L3451.04 404.288L3446.64 419.676L3442.02 429.357L3434.43 443.054L3427.13 460.828L3419.97 475.344L3405.35 500.302L3400.23 500.199L3393.14 513.09L3389.99 521.172L3383.93 521.051L3371.25 544.419L3370.83 554.184L3357.29 575.906C3353.34 584.515 3343.97 601.053 3338.12 598.329C3332.26 595.606 3317.43 623.437 3310.75 637.693C3308.77 643.899 3303.58 656.61 3298.68 657.815C3294.22 658.911 3280.57 687.464 3280.6 698.18L3272.39 704.532L3263.87 718.208L3259.91 745.008C3250.46 754.166 3238.28 777.971 3227.69 777.76C3223.52 787.993 3214.42 808.446 3211.44 808.387C3208.45 808.327 3194.09 828.131 3187.29 838.041L3176.64 846.788L3168.95 862.924L3197.63 857.796L3242.38 858.692C3248.44 858.813 3270.13 853.545 3265.69 859.158C3261.25 864.771 3281.51 870.878 3289.69 865.339C3297.86 859.801 3321.88 854.58 3318.84 860.221C3315.79 865.862 3346.81 860.78 3350.07 860.846C3353.33 860.911 3361.22 851.294 3375.46 856.466C3389.7 861.638 3410.46 866.94 3413.47 862.114C3415.88 858.252 3435.61 860.927 3445.17 862.748C3457.36 861.362 3480.16 858.56 3473.82 858.433C3465.89 858.275 3500.81 849.199 3510.53 851.023C3520.25 852.846 3541.41 859.785 3547.47 859.907C3553.53 860.028 3576.59 855.602 3587.57 860.709C3591.88 858.08 3603.49 852.882 3615.42 853.12C3630.34 853.419 3653.3 862.023 3658.43 862.126C3663.55 862.228 3676.96 854.351 3696.07 854.734C3715.19 855.116 3738.49 855.582 3747.63 849.249C3749.08 848.244 3750.11 847.448 3750.8 846.825C3759.05 852.757 3778.79 861.145 3806.56 856.943C3813.04 854.358 3829.12 850.879 3841.52 857.643C3852.45 856.504 3876.44 855.083 3884.87 858.51C3895.42 862.793 3938.19 855.504 3948.12 852.444C3958.06 849.385 3990.33 847.587 4001.23 854.321C4009.96 859.709 4035.04 856.626 4046.49 854.412C4054 857.005 4071.06 862.234 4079.27 862.398C4087.47 862.562 4102.46 858.518 4108.92 856.475L4110.58 818.229Z" fill="url(#paint2_linear_250_27918)"/>
<path d="M1194.48 691.65L1230.31 621.014C1251.04 592.745 1282.66 578.839 1282.66 578.839C1311.06 565.017 1324.13 516.24 1338.45 520.142C1362.01 526.566 1340.45 457.759 1378.12 474.106L1394.33 463.499L1404.04 463.305L1413.72 430.208L1426.21 429.959L1449.41 388.366C1454.96 388.255 1466.53 373.217 1468.41 313.954C1473.89 301.505 1486.29 277.814 1492.05 282.634C1497.82 287.454 1507.19 300.838 1511.16 306.927L1522.85 288.186L1540.89 287.825C1547.64 271.848 1543.55 228.135 1563.29 227.74C1577.89 227.448 1580.98 223.29 1587.64 244.733C1591.7 242.252 1600.71 238.713 1604.29 244.4C1608.77 251.508 1616.26 246.012 1630.63 259.296C1640.15 268.094 1643.6 245.842 1650.78 243.47C1657 243.345 1672.97 245.761 1678.06 248.066C1685.71 251.524 1714.46 213.406 1718.23 213.331C1722 213.256 1736.07 224.284 1736.07 224.284C1739.81 228.911 1766.22 197.718 1768.08 193.825C1770.14 186.547 1774.56 176.672 1776.26 174.125C1778.91 170.125 1782.2 151.042 1785.33 143.097L1778.19 122.675C1785.31 99.8528 1786.18 95.8409 1804.52 89.2451L1817.29 63.2842C1816.49 44.9775 1831.33 69.1012 1838.44 54.6353C1849.88 31.3659 1856.15 24.1334 1865.76 11.9318C1869.05 7.75306 1884.36 8.47507 1884.76 17.7211C1897.06 9.44297 1932.72 -3.8793 1945.85 1.07415C1973.23 11.4026 1998.87 53.45 2006.06 92.4101L2013.15 111.805L2022.64 138.35C2035.79 175.16 2034.33 187.84 2060.31 206.489L2083.04 250.247C2084.79 258.437 2089.63 273.968 2095.04 270.57C2114.15 258.556 2125.12 171.112 2146.64 147.179L2180.09 166.047L2186.49 185.456L2193.27 197.657L2204.44 214.916L2215.13 237.324L2225.64 255.618L2247.15 287.063L2254.78 286.911L2265.21 303.154L2269.82 313.344L2278.84 313.163L2297.47 342.609L2298.01 354.937L2317.95 382.3C2323.74 393.152 2337.51 413.989 2346.25 410.524C2354.99 407.059 2376.79 442.131 2386.6 460.1C2389.48 467.926 2397.08 483.951 2404.36 485.45C2410.99 486.814 2431.02 522.802 2430.88 536.331L2443.03 544.314L2455.58 561.543L2461.21 595.362C2475.18 606.881 2493.08 636.881 2508.84 636.566C2514.95 649.468 2528.29 675.249 2532.73 675.161C2537.17 675.072 2558.35 700.011 2568.38 712.492L2584.13 723.487L2595.43 743.826L2552.79 737.481L2486.18 738.813C2477.16 738.994 2444.93 732.441 2451.49 739.507C2458.04 746.574 2427.82 754.376 2415.72 747.42C2403.61 740.465 2367.91 733.981 2372.39 741.089C2376.86 748.197 2330.75 741.922 2325.9 742.019C2321.04 742.116 2309.4 730.01 2288.16 736.605C2266.92 743.199 2235.96 749.988 2231.53 743.907C2227.98 739.042 2198.59 742.509 2184.34 744.851C2166.21 743.157 2132.31 739.722 2141.75 739.533C2153.55 739.297 2101.66 727.996 2087.18 730.342C2072.7 732.688 2041.14 741.545 2032.12 741.726C2023.1 741.906 1988.83 736.422 1972.44 742.919C1966.05 739.62 1944.82 795.695 1927.06 796.05C1904.85 796.494 1874.61 744.876 1866.97 745.029C1859.34 745.182 1839.47 735.297 1811.02 735.866C1782.57 736.435 1747.87 737.129 1734.33 729.174C1732.19 727.912 1730.67 726.912 1729.65 726.128C1717.31 733.655 1687.85 744.334 1646.57 739.155C1636.94 735.921 1613.04 731.6 1594.53 740.196C1578.26 738.808 1542.58 737.122 1530 741.487C1514.26 746.943 1450.67 737.932 1435.92 734.114C1421.17 730.297 1373.16 728.172 1356.86 736.724C1343.82 743.565 1306.53 739.787 1289.51 737.043C1278.31 740.352 1252.86 747.03 1240.65 747.274C1228.43 747.519 1206.18 742.48 1196.58 739.93L1194.48 691.65Z" fill="url(#paint3_linear_250_27918)"/>
<path d="M3734.23 854.237L3703.02 783.693C3684.9 755.476 3657.12 741.646 3657.12 741.646C3632.16 727.894 3620.89 679.153 3608.26 683.089C3587.46 689.567 3606.81 620.717 3573.54 637.151L3559.31 626.585L3550.75 626.413L3542.39 593.343L3531.39 593.123L3511.16 551.59C3506.27 551.492 3496.15 536.483 3494.81 477.23C3490.04 464.796 3479.24 441.137 3474.13 445.97C3469.03 450.803 3460.7 464.208 3457.17 470.307L3446.97 451.594L3431.07 451.277C3425.21 435.317 3429.04 391.599 3411.65 391.251C3398.78 390.994 3396.08 386.844 3390.1 408.3C3386.54 405.829 3378.62 402.312 3375.43 408.007C3371.45 415.125 3364.88 409.648 3352.15 422.964C3343.71 431.784 3340.79 409.542 3334.47 407.187C3328.99 407.078 3314.91 409.531 3310.41 411.848C3303.66 415.324 3278.52 377.278 3275.2 377.212C3271.88 377.146 3259.43 388.206 3259.43 388.206C3256.1 392.842 3232.99 361.714 3231.37 357.826C3229.59 350.555 3225.75 340.691 3224.27 338.148C3221.95 334.155 3219.15 315.082 3216.44 307.144L3222.83 286.708C3216.67 263.905 3215.93 259.896 3199.8 253.344L3188.69 227.416C3189.48 209.109 3176.28 233.266 3170.09 218.818C3160.13 195.579 3154.65 188.362 3146.24 176.184C3143.36 172.014 3129.87 172.772 3129.47 182.018C3118.67 173.77 3087.32 160.534 3075.73 165.518C3051.55 175.911 3028.74 218.015 3022.2 256.988L3015.85 276.397L3007.36 302.963C2995.58 339.8 2996.8 352.475 2973.81 371.184L2953.56 414.992C2951.98 423.185 2947.63 438.726 2942.88 435.34C2926.1 423.374 2916.89 335.964 2898.05 312.085L2868.48 331.031L2862.74 350.453L2856.7 362.669L2846.78 379.953L2837.24 402.383L2827.88 420.702L2808.77 452.194L2802.04 452.06L2792.77 468.326L2788.66 478.526L2780.71 478.367L2764.14 507.854L2763.6 520.182L2745.9 547.59C2740.73 558.454 2728.49 579.322 2720.81 575.878C2713.12 572.434 2693.74 607.554 2685 625.545C2682.42 633.376 2675.65 649.418 2669.22 650.935C2663.37 652.314 2645.54 688.346 2645.59 701.873L2634.85 709.884L2623.7 727.141L2618.56 760.969C2606.19 772.521 2590.27 802.561 2576.39 802.283C2570.93 815.198 2559.04 841.009 2555.13 840.93C2551.22 840.852 2532.43 865.839 2523.53 878.343L2509.59 889.374L2499.53 909.738L2537.13 903.292L2595.82 904.466C2603.77 904.625 2632.2 897.996 2626.39 905.077C2620.57 912.159 2647.16 919.888 2657.86 912.904C2668.57 905.921 2700.06 899.353 2696.08 906.471C2692.1 913.589 2732.76 907.205 2737.04 907.291C2741.32 907.376 2751.63 895.244 2770.32 901.787C2789 908.33 2816.24 915.044 2820.18 908.954C2823.33 904.081 2849.2 907.478 2861.75 909.785C2877.73 908.048 2907.62 904.533 2899.31 904.367C2888.91 904.159 2934.69 892.736 2947.44 895.047C2960.19 897.359 2987.95 906.14 2995.9 906.299C3003.85 906.458 3034.07 900.893 3048.47 907.35C3054.12 904.036 3069.34 897.485 3084.99 897.798C3104.55 898.19 3134.67 909.074 3141.4 909.209C3148.12 909.343 3165.68 899.412 3190.75 899.914C3215.81 900.415 3246.38 901.027 3258.35 893.04C3260.25 891.773 3261.59 890.77 3262.49 889.983C3273.32 897.48 3299.23 908.088 3335.63 902.812C3344.14 899.554 3365.21 895.178 3381.48 903.729C3395.82 902.302 3427.27 900.532 3438.34 904.866C3452.17 910.284 3508.25 901.123 3521.27 897.271C3534.28 893.418 3576.6 891.18 3590.92 899.692C3602.37 906.502 3635.25 902.635 3650.26 899.851C3660.11 903.132 3682.5 909.75 3693.26 909.965C3704.02 910.18 3723.66 905.089 3732.13 902.516L3734.23 854.237Z" fill="url(#paint4_linear_250_27918)"/>
<path d="M1932.18 758.893L1971.2 705.865C1991.99 684.862 2019.59 675.265 2019.59 675.265C2044.57 665.624 2062.05 628.605 2073.11 632.094C2091.31 637.837 2083.54 584.244 2111.77 598.094L2126.41 590.503L2134.31 590.687L2146.83 565.597L2156.99 565.834L2181.67 534.681C2186.19 534.787 2197.7 523.633 2207.58 478.175C2213.78 468.802 2227.18 451.029 2231.17 454.929C2235.17 458.83 2240.88 469.432 2243.24 474.246L2255.36 460.251L2270.04 460.593C2277.77 448.552 2280.62 414.834 2296.68 415.209C2308.56 415.486 2311.65 412.398 2314.02 429.097C2317.66 427.331 2325.47 424.922 2327.57 429.413C2330.19 435.027 2337.04 431.062 2346.82 441.759C2353.3 448.844 2359.23 431.87 2365.39 430.294C2370.45 430.412 2383.06 432.816 2386.86 434.761C2392.57 437.68 2421.27 409.388 2424.33 409.459C2427.4 409.53 2437.25 418.485 2437.25 418.485C2439.63 422.167 2465.44 399.113 2467.5 396.187C2470.2 390.668 2475.18 383.234 2476.91 381.335C2479.63 378.354 2484.99 363.809 2488.65 357.813L2485.74 341.882C2494.74 324.596 2496.01 321.544 2511.81 317.107L2525.83 297.604C2527.77 283.515 2536.39 302.554 2544.2 291.686C2556.76 274.205 2562.86 268.865 2572.37 259.822C2575.63 256.725 2587.94 257.806 2586.96 264.921C2598.1 258.985 2628.89 249.976 2638.84 254.231C2659.58 263.105 2674.43 296.283 2674.76 326.456L2677.77 341.597L2681.72 362.313C2687.18 391.039 2684.21 400.729 2702.65 415.945L2714.9 450.337C2715.15 456.688 2716.89 468.784 2721.75 466.359C2738.95 457.788 2760.18 390.995 2781.01 373.35L2805.47 388.992L2807.92 404.12L2811.69 413.725L2818.3 427.365L2823.81 444.944L2829.75 459.358L2842.75 484.25L2848.96 484.395L2855.12 497.229L2857.42 505.215L2864.76 505.386L2875.71 528.643L2874.4 538.131L2886.71 559.834C2889.87 568.369 2898.1 584.847 2905.67 582.486C2913.25 580.124 2925.97 607.812 2931.38 621.951C2932.62 628.061 2936.51 640.631 2942.21 642.033C2947.39 643.308 2958.55 671.639 2956.52 682.026L2965.25 688.575L2972.99 702.24L2972.78 728.41C2982.48 737.738 2992.76 761.397 3005.58 761.695C3008.71 771.816 3015.89 792.077 3019.5 792.161C3023.12 792.246 3036.76 812.129 3043.14 822.06L3054.36 831.047L3060.65 847.057L3026.97 840.72L2972.78 839.457C2965.44 839.286 2940.23 833.146 2944.55 838.799C2948.87 844.452 2923.27 849.408 2914.43 843.65C2905.6 837.891 2877.57 831.686 2880.19 837.299C2882.82 842.913 2846.32 836.51 2842.37 836.418C2838.42 836.326 2830.69 826.627 2812.54 830.964C2794.39 835.3 2768.33 839.451 2765.59 834.629C2763.41 830.77 2739.09 832.425 2727.21 833.734C2712.75 831.811 2685.75 828.009 2693.42 828.188C2703.02 828.411 2662.55 817.95 2650.48 819.255C2638.41 820.56 2611.57 826.28 2604.23 826.109C2596.89 825.938 2569.88 820.549 2555.68 824.977C2550.96 822.223 2537.91 816.631 2523.46 816.295C2505.39 815.874 2476.08 823.122 2469.87 822.978C2463.66 822.833 2448.94 814.558 2425.8 814.018C2402.65 813.479 2374.42 812.821 2364.57 806.246C2363.01 805.203 2361.92 804.383 2361.2 803.745C2350.14 809.104 2324.75 816.296 2292 810.9C2284.65 808.085 2265.89 803.946 2249.66 809.914C2236.67 808.289 2207.98 805.77 2197.16 808.69C2183.63 812.341 2133.35 803.237 2121.93 799.798C2110.51 796.359 2071.88 793.079 2057.46 799.089C2045.93 803.896 2016.22 799.714 2002.81 797.022C1993.27 799.179 1971.69 803.436 1961.75 803.204C1951.82 802.972 1934.48 798.338 1927.06 796.05L1932.18 758.893Z" fill="url(#paint5_linear_250_27918)"/>
<path d="M0 664L4674 840V1619H0V664Z" fill="#E2E4EC"/>
<defs>
<linearGradient id="paint0_linear_250_27918" x1="1934.3" y1="129.938" x2="1934.3" y2="915.648" gradientUnits="userSpaceOnUse">
<stop stop-color="#EBF0FF"/>
<stop offset="1" stop-color="#DFE1E7"/>
</linearGradient>
<linearGradient id="paint1_linear_250_27918" x1="1934.3" y1="129.938" x2="1934.3" y2="915.648" gradientUnits="userSpaceOnUse">
<stop stop-color="#EBF0FF"/>
<stop offset="1" stop-color="#DFE1E7"/>
</linearGradient>
<linearGradient id="paint2_linear_250_27918" x1="1934.3" y1="129.938" x2="1934.3" y2="915.648" gradientUnits="userSpaceOnUse">
<stop stop-color="#EBF0FF"/>
<stop offset="1" stop-color="#DFE1E7"/>
</linearGradient>
<linearGradient id="paint3_linear_250_27918" x1="1934.3" y1="129.938" x2="1934.3" y2="915.648" gradientUnits="userSpaceOnUse">
<stop stop-color="#EBF0FF"/>
<stop offset="1" stop-color="#DFE1E7"/>
</linearGradient>
<linearGradient id="paint4_linear_250_27918" x1="1934.3" y1="129.938" x2="1934.3" y2="915.648" gradientUnits="userSpaceOnUse">
<stop stop-color="#EBF0FF"/>
<stop offset="1" stop-color="#DFE1E7"/>
</linearGradient>
<linearGradient id="paint5_linear_250_27918" x1="1934.3" y1="129.938" x2="1934.3" y2="915.648" gradientUnits="userSpaceOnUse">
<stop stop-color="#EBF0FF"/>
<stop offset="1" stop-color="#DFE1E7"/>
</linearGradient>
</defs>
</svg>
