<svg width="4682" height="1707" viewBox="0 0 4682 1707" fill="none" xmlns="http://www.w3.org/2000/svg">
<path d="M54.2178 563.216L-15.4759 589.061L-15.4759 1712L4672 1712L4736 1039.22L4564 951.352L4460 980L4296 928L4136 951.352L3916 928L3744 928L3326.32 951.352L3148 872L2960 872L2724 848L2560 894.47L2400 848L2216 872L2028 805.33L1804.64 805.33L1727.48 772.754L1453.99 815.117L1291.91 746.275L1213.81 748.455L1174.51 723.38L1097.1 763.834L972.68 793.822L919.588 771.661L876.08 704.831L821.82 701.458L733.647 695.978L438.953 617.307L364.346 612.669L250.911 575.442L140.522 598.757L54.2178 563.216Z" fill="#5E8CB0"/>
<path d="M1189.73 475.978L1196.32 477.871L1195.56 487.301L1194 489.886L1193.23 499.315L1193.8 508.854L1189.12 516.609L1186.79 528.624L1170.29 548.976L1169.19 562.447L1173.87 554.692L1175.32 553.454L1183.37 554.109L1182.49 564.886L1172.23 574.898L1171.57 582.981L1175.04 590.044L1174.49 596.779L1171.81 596.561L1172.27 607.447L1177.09 614.619L1176.87 617.313L1182.01 620.444L1186.16 635.699L1189.85 640.068L1198.6 665.189L1204.55 691.439L1208.16 713.43L1208.62 724.316L1202.69 797.058L1189.47 843.442L1134.21 859.28L1073.38 877.376L1001.49 898.638L925.472 920.921L846.664 944.332L770.646 966.614L734.702 977.246L730.682 976.918L751.867 716.93L754.547 717.148L754.964 695.485L762.52 668.98L775.766 638.871L788.245 618.191L803.403 597.73L815.223 585.133L831.283 570.169L834.183 567.693L838.203 568.021L838.533 563.979L842.553 564.307L844.333 559.028L860.173 546.758L871.553 539.549L895.435 527.935L921.777 519.233L941.09 514.027L975.144 510.022L1031.43 514.608L1049.98 518.831L1085.4 531.21L1084.27 528.406L1084.93 520.324L1095.55 522.545L1099.46 524.219L1099.79 520.178L1105.15 520.615L1107.04 513.989L1109.83 512.86L1117.87 513.515L1119.76 506.889L1129.01 492.726L1130.46 491.488L1138.5 492.144L1139.73 493.6L1138.96 503.03L1128.7 513.042L1123.91 522.144L1132.06 521.452L1139.75 509.874L1150.34 495.821L1155.92 493.563L1159.94 493.891L1163.06 488.721L1167.52 483.66L1181.14 482.058L1186.61 481.148L1189.73 475.978Z" fill="#5E8CB0"/>
<path d="M3995.06 50.138C3995.26 50.0185 3995.47 49.899 3995.69 49.7759C3996.46 49.3426 3997.11 48.9966 3997.98 48.821C3998.39 48.6105 3998.79 48.3859 3999.18 48.1538C3999.42 48.0118 3999.67 47.8699 3999.92 47.7236C4000.18 47.5685 4000.44 47.4135 4000.71 47.2537C4001.28 46.9252 4001.84 46.5969 4002.41 46.2687C4003.29 45.7527 4004.18 45.2357 4005.06 44.716C4008.46 42.7169 4011.79 40.9282 4015.49 39.5755C4016.54 39.1842 4017.56 38.7462 4018.59 38.3107C4018.99 38.1411 4019.4 37.9715 4019.8 37.8021C4020.41 37.5468 4021.01 37.2908 4021.62 37.0333C4023.71 36.1487 4025.73 35.3201 4027.94 34.8082C4028.7 34.6045 4029.31 34.26 4029.96 33.8252C4030.99 33.1449 4031.55 33.0731 4032.77 33.1238C4033.58 32.9392 4033.58 32.9392 4034.39 32.6652C4034.69 32.5728 4034.98 32.4804 4035.28 32.3851C4035.69 32.2505 4035.69 32.2505 4036.12 32.1132C4037.49 31.6758 4038.86 31.27 4040.27 30.9392C4040.36 31.0893 4040.45 31.2393 4040.53 31.3939C4041.63 31.198 4042.62 30.9143 4043.65 30.5135C4044.46 30.2462 4045.17 30.182 4046.02 30.1598C4047.46 30.0963 4048.81 29.8344 4050.21 29.5069C4050.87 29.4015 4050.87 29.4015 4051.35 29.726C4051.81 29.6844 4052.26 29.6393 4052.71 29.5788C4053.45 29.4815 4054.19 29.4053 4054.94 29.3326C4055.2 29.3068 4055.45 29.2811 4055.72 29.2546C4056.49 29.2006 4057.24 29.1729 4058.01 29.2321C4058.1 29.3821 4058.19 29.5322 4058.28 29.6868C4058.81 29.579 4059.35 29.4712 4059.9 29.3602C4059.99 29.5103 4060.07 29.6603 4060.16 29.8149C4060.58 29.6751 4061 29.5353 4061.43 29.3912C4061.52 29.7343 4061.62 30.0773 4061.72 30.4308C4062.9 30.6549 4062.9 30.6549 4064.09 30.8834C4064.24 31.4945 4064.39 32.1056 4064.55 32.7353C4064.32 32.8642 4064.1 32.9931 4063.87 33.1259C4064.11 33.383 4064.36 33.6402 4064.62 33.9051C4064.12 34.5691 4063.79 34.9842 4063.06 35.4014C4063.14 35.5515 4063.23 35.7015 4063.32 35.8561C4063.59 35.5502 4063.59 35.5502 4063.87 35.2381C4064 35.4632 4064.13 35.6883 4064.26 35.9202C4063.93 36.2101 4063.6 36.4999 4063.25 36.7986C4063.31 37.0666 4063.36 37.3347 4063.42 37.6108C4062.88 38.1388 4062.88 38.1388 4062.17 38.723C4061 39.7219 4061 39.7219 4060.54 41.1253C4060.52 41.5586 4060.52 41.5586 4060.5 42.0007C4060.35 42.0866 4060.2 42.1725 4060.04 42.2611C4059.96 42.111 4059.87 41.961 4059.78 41.8064C4059.55 42.0228 4059.55 42.0228 4059.32 42.2435C4058.78 42.6848 4058.78 42.6848 4058.19 42.7178C4058.28 42.8679 4058.36 43.0179 4058.45 43.1725C4058.83 42.9577 4059.2 42.7428 4059.59 42.5215C4059.48 42.6825 4059.37 42.8434 4059.26 43.0093C4059.32 43.2773 4059.37 43.5453 4059.43 43.8215C4058.85 44.957 4057.86 45.9259 4056.76 46.5538C4056.42 46.842 4056.09 47.1342 4055.76 47.4322C4056.07 47.4533 4056.38 47.4745 4056.7 47.4962C4056.46 47.8385 4056.21 48.1797 4055.97 48.5206C4055.83 48.7107 4055.69 48.9009 4055.55 49.0968C4055.18 49.5775 4055.18 49.5775 4054.72 49.8379C4054.62 49.4948 4054.53 49.1518 4054.43 48.7983C4054.2 48.9272 4053.98 49.0561 4053.74 49.1889C4053.8 49.3477 4053.86 49.5065 4053.93 49.6701C4053.96 49.8544 4054 50.0387 4054.04 50.2285C4053.77 50.5344 4053.77 50.5344 4053.49 50.8465C4053.5 51.0395 4053.51 51.2325 4053.52 51.4314C4053.34 51.5214 4053.16 51.6114 4052.98 51.7041C4052.3 52.0618 4052.3 52.0618 4051.96 52.9278C4052.15 52.9168 4052.35 52.9059 4052.55 52.8947C4052.64 53.2378 4052.74 53.5808 4052.84 53.9343C4052.72 54.0314 4052.6 54.1284 4052.48 54.2284C4051.93 54.6746 4051.4 55.1268 4050.86 55.5793C4050.67 55.7319 4050.48 55.8845 4050.29 56.0417C4049.11 57.0407 4048.64 57.6815 4048.33 59.2356C4047.93 59.7351 4047.93 59.7351 4047.47 60.1057C4047.31 60.2381 4047.15 60.3705 4046.99 60.5069C4046.84 60.6241 4046.69 60.7414 4046.54 60.8621C4045.98 61.3497 4045.48 61.8017 4044.98 62.3585C4044.96 62.6695 4044.94 62.9805 4044.92 63.301C4044.17 64.2638 4043.38 64.8566 4042.21 65.1924C4041.98 65.2128 4041.75 65.2331 4041.51 65.2541C4041.57 65.7151 4041.64 66.1762 4041.71 66.6512C4041.26 66.909 4040.81 67.1668 4040.34 67.4325C4040.4 67.7005 4040.45 67.9685 4040.5 68.2447C4040.17 68.649 4040.17 68.649 4039.69 69.0538C4039.52 69.1956 4039.36 69.3374 4039.19 69.4835C4038.84 69.7746 4038.48 70.061 4038.12 70.3451C4037.67 70.7159 4037.67 70.7159 4037.6 71.2458C4037.27 72.3331 4036.4 73.0938 4035.54 73.8064C4034.72 74.0286 4034.72 74.0286 4034.14 74.0028C4034.19 74.1669 4034.24 74.3311 4034.29 74.5002C4034.43 75.0424 4034.43 75.0424 4034.34 75.3999C4033.93 75.722 4033.5 76.0297 4033.08 76.3293C4032.73 76.577 4032.73 76.577 4032.37 76.8298C4031.74 77.1897 4031.74 77.1897 4031.02 76.9955C4030.4 77.1376 4029.79 77.2898 4029.17 77.4522C4028.98 77.4631 4028.79 77.4741 4028.59 77.4853C4028.76 77.7854 4028.93 78.0855 4029.11 78.3947C4027.9 79.6071 4026.57 80.5247 4025.1 81.3862C4024.94 81.4873 4024.77 81.5883 4024.6 81.6924C4023.38 82.3905 4023.38 82.3905 4022.64 82.2602C4022.4 82.1678 4022.4 82.1678 4022.16 82.0736C4021.24 82.3776 4021.24 82.3776 4020.44 82.7577C4019.33 81.6006 4019.33 81.6006 4018.19 80.4201C4017.98 80.8386 4017.98 80.8386 4017.77 81.2654C4017.16 81.92 4016.45 82.4621 4015.76 83.0222C4015.89 83.2473 4016.02 83.4724 4016.15 83.7042C4015.34 83.8675 4015.34 83.8675 4014.98 83.7704C4014.4 83.99 4013.83 84.2177 4013.26 84.4545C4013.55 84.7866 4013.84 85.1188 4014.13 85.461C4013.28 86.4942 4012.35 87.2593 4011.27 88.0432C4011.12 88.1587 4010.96 88.2742 4010.8 88.3931C4010.42 88.6749 4010.04 88.9551 4009.65 89.235C4009.94 89.5671 4010.23 89.8993 4010.53 90.2415C4010.02 90.8135 4009.62 91.1217 4008.98 91.5104C4008.71 91.6725 4008.71 91.6725 4008.45 91.8379C4008.19 91.9336 4008.19 91.9336 4007.93 92.0313C4006.96 91.5472 4006.58 91.0121 4005.95 90.1485C4005.8 90.2344 4005.65 90.3204 4005.5 90.4089C4005.59 90.752 4005.69 91.095 4005.79 91.4485C4005.25 91.9052 4004.7 92.3612 4004.16 92.817C4004.01 92.9444 4003.85 93.0719 4003.7 93.2032C4002.7 94.0405 4001.68 94.8372 4000.63 95.6131C3999.06 94.851 3998.02 94.2757 3996.95 92.887C3997.17 93.1906 3997.39 93.4935 3997.6 93.7962C3997.73 93.965 3997.85 94.1338 3997.97 94.3077C3998.32 94.7659 3998.69 95.1749 3999.1 95.5821C3998.75 95.8866 3998.39 96.19 3998.04 96.493C3997.84 96.6621 3997.64 96.8312 3997.44 97.0054C3996.86 97.469 3996.86 97.469 3995.95 97.9899C3996.08 98.2149 3996.21 98.44 3996.34 98.6719C3996.68 98.575 3997.03 98.4782 3997.38 98.3784C3997.28 98.7324 3997.19 99.0864 3997.09 99.4511C3996.85 99.387 3996.62 99.3229 3996.37 99.2568C3995.76 99.5553 3995.76 99.5553 3995.24 99.9078C3995.27 100.073 3995.31 100.238 3995.35 100.407C3995.28 101.384 3994.66 101.818 3993.97 102.444C3992.82 103.394 3991.59 104.251 3990.37 105.112C3990.15 105.263 3989.94 105.415 3989.72 105.571C3989.2 105.911 3989.2 105.911 3988.32 106.284C3988.11 106.158 3987.89 106.032 3987.67 105.903C3987.44 105.782 3987.22 105.662 3986.99 105.538C3986.16 105.87 3985.44 106.335 3984.71 106.84C3984.96 107.097 3985.21 107.354 3985.46 107.619C3981.82 110.194 3981.82 110.194 3979.78 110.422C3978.88 110.657 3978.58 111.398 3978.09 112.143C3977.56 112.43 3977.56 112.43 3977.05 112.437C3976.03 111.896 3975.3 111.019 3974.52 110.189C3974.31 109.97 3974.31 109.97 3974.1 109.747C3973.76 109.389 3973.42 109.03 3973.08 108.671C3973.34 109.103 3973.34 109.103 3973.6 109.544C3974.12 110.417 3974.12 110.417 3974.16 111.075C3974.43 111.021 3974.69 110.967 3974.97 110.911C3974.55 111.757 3974.55 111.757 3974.22 112.244C3974.41 112.403 3974.6 112.562 3974.8 112.725C3975.4 113.293 3975.75 113.753 3976.11 114.485C3975.66 115.159 3975.11 115.391 3974.4 115.784C3974.15 115.925 3973.9 116.066 3973.64 116.21C3973.45 116.318 3973.26 116.425 3973.06 116.535C3971.27 115.521 3971.27 115.521 3970.98 115.01C3970.62 115.222 3970.62 115.222 3970.26 115.439C3969.38 115.921 3969.38 115.921 3968.79 116.095C3967.74 116.488 3966.82 117.135 3965.97 117.874C3965.91 118.11 3965.85 118.346 3965.78 118.589C3965.42 118.927 3965.42 118.927 3964.94 119.27C3964.77 119.394 3964.6 119.518 3964.43 119.645C3964.25 119.773 3964.07 119.9 3963.89 120.031C3963.71 120.161 3963.53 120.291 3963.35 120.425C3962.03 121.384 3962.03 121.384 3961.36 121.421C3961.43 121.57 3961.5 121.718 3961.57 121.872C3961.66 122.461 3961.66 122.461 3961.34 123.021C3960.56 123.779 3959.71 124.448 3958.6 124.511C3958.65 124.675 3958.71 124.839 3958.76 125.008C3958.9 125.55 3958.9 125.55 3958.8 125.908C3958.21 126.288 3957.6 126.611 3956.98 126.95C3957.24 127.4 3957.5 127.85 3957.76 128.314C3956.79 128.147 3956.41 127.789 3955.81 127.016C3955.29 127.317 3954.76 127.617 3954.22 127.927C3954.31 128.077 3954.39 128.227 3954.48 128.382C3954.86 128.167 3955.23 127.952 3955.62 127.731C3955.55 127.967 3955.49 128.203 3955.42 128.446C3954.93 128.722 3954.93 128.722 3954.32 128.963C3954.12 129.044 3953.92 129.125 3953.72 129.209C3953.56 129.269 3953.41 129.329 3953.25 129.391C3953.16 129.24 3953.08 129.09 3952.99 128.936C3952.42 129.244 3951.86 129.555 3951.29 129.868C3951.13 129.955 3950.97 130.042 3950.81 130.132C3950.39 130.367 3949.98 130.627 3949.58 130.889C3949.51 131.125 3949.45 131.361 3949.38 131.604C3948.73 132.133 3948.73 132.133 3947.91 132.692C3947.64 132.879 3947.37 133.067 3947.1 133.259C3946.33 133.654 3946.33 133.654 3945.72 133.605C3945.09 133.275 3944.9 132.858 3944.61 132.226C3944.38 132.355 3944.16 132.484 3943.92 132.617C3944.17 132.874 3944.42 133.131 3944.67 133.396C3944.27 133.997 3943.84 134.197 3943.21 134.535C3943.19 134.149 3943.17 133.763 3943.14 133.365C3942.78 133.886 3942.49 134.363 3942.24 134.956C3941.61 136.359 3940.11 137.033 3938.86 137.847C3938.17 138.294 3938.17 138.294 3937.74 138.727C3937.22 139.229 3936.64 139.567 3936.02 139.936C3935.67 140.149 3935.67 140.149 3935.31 140.365C3934.64 140.652 3934.64 140.652 3934.05 140.591C3933.35 140.26 3933.01 139.743 3932.56 139.127C3932.61 139.395 3932.66 139.663 3932.72 139.939C3932.49 140.068 3932.27 140.197 3932.04 140.33C3932.81 140.804 3932.81 140.804 3933.47 140.719C3933.5 141.303 3933.5 141.303 3933.11 141.86C3932.12 142.807 3931 143.43 3929.8 144.102C3929.57 144.237 3929.34 144.373 3929.1 144.513C3928.87 144.642 3928.64 144.771 3928.41 144.903C3928.21 145.02 3928 145.136 3927.79 145.257C3927.11 145.561 3926.51 145.661 3925.77 145.731C3925.87 146.074 3925.97 146.417 3926.06 146.77C3923.61 148.444 3921.08 149.955 3918.48 151.405C3917.32 152.055 3916.23 152.708 3915.19 153.53C3914.6 153.962 3913.98 154.335 3913.36 154.713C3913.12 154.862 3912.87 155.01 3912.62 155.162C3912.11 155.469 3911.6 155.774 3911.09 156.078C3910.73 156.3 3910.73 156.3 3910.36 156.526C3910.14 156.658 3909.92 156.79 3909.69 156.927C3909.09 157.415 3909.04 157.685 3908.89 158.421C3908.3 158.813 3908.3 158.813 3907.75 159.072C3907.46 158.739 3907.17 158.407 3906.87 158.065C3906.74 158.278 3906.6 158.492 3906.47 158.711C3905.19 160.54 3903.53 161.999 3901.51 162.945C3900.88 162.724 3900.88 162.724 3900.31 162.426C3899.62 162.582 3899.62 162.582 3899.04 162.85C3899.38 163.257 3899.71 163.664 3900.05 164.084C3898.78 165.226 3897.2 166.348 3895.51 166.688C3895.4 166.849 3895.29 167.01 3895.18 167.175C3894.78 167.433 3894.37 167.677 3893.96 167.912C3893.74 168.039 3893.52 168.165 3893.3 168.296C3892.68 168.608 3892.68 168.608 3891.87 168.771C3892.64 169.268 3892.64 169.268 3893.21 169.072C3894.16 168.636 3894.99 168.201 3895.8 167.536C3896.58 166.979 3896.58 166.979 3897.18 167.011C3897.65 167.271 3897.65 167.271 3898.27 167.822C3898.88 167.53 3899.49 167.236 3900.1 166.941C3900.28 166.859 3900.45 166.777 3900.63 166.692C3901.47 166.284 3902.2 165.927 3902.82 165.218C3902.8 165.025 3902.79 164.832 3902.78 164.633C3903.08 164.461 3903.38 164.29 3903.69 164.112C3903.64 163.844 3903.58 163.576 3903.53 163.3C3903.77 163.166 3904.01 163.033 3904.26 162.895C3904.57 162.717 3904.88 162.54 3905.2 162.362C3905.36 162.274 3905.52 162.186 3905.68 162.096C3906.39 161.69 3906.94 161.348 3907.49 160.729C3908.11 160.309 3908.73 159.905 3909.36 159.503C3909.52 159.36 3909.69 159.217 3909.86 159.07C3909.88 158.759 3909.9 158.448 3909.93 158.127C3910.48 157.722 3910.48 157.722 3911.18 157.352C3911.41 157.228 3911.64 157.103 3911.88 156.975C3912.06 156.883 3912.24 156.79 3912.43 156.695C3912.76 157.102 3913.09 157.509 3913.43 157.929C3913.59 157.82 3913.75 157.711 3913.91 157.599C3914.64 157.098 3915.37 156.598 3916.1 156.098C3916.35 155.927 3916.6 155.756 3916.86 155.579C3921.1 152.684 3921.1 152.684 3922.17 152.623C3922.3 152.848 3922.43 153.073 3922.56 153.305C3922.71 153.219 3922.86 153.133 3923.02 153.045C3922.73 152.713 3922.44 152.381 3922.14 152.038C3922.72 151.417 3923.27 151.077 3924.05 150.735C3924.25 150.647 3924.44 150.559 3924.64 150.469C3925.32 150.215 3925.32 150.215 3926.2 150.026C3927.33 149.714 3928.22 149.228 3929.22 148.623C3929.4 148.52 3929.57 148.416 3929.75 148.31C3930.18 148.057 3930.61 147.801 3931.04 147.545C3931.33 147.877 3931.62 148.209 3931.92 148.552C3932.25 148.262 3932.58 147.972 3932.92 147.673C3932.73 146.987 3932.54 146.301 3932.34 145.594C3933.07 144.908 3933.82 144.413 3934.71 143.934C3935.03 144.149 3935.35 144.363 3935.68 144.583C3936.36 144.266 3936.92 144.007 3937.5 143.542C3937.81 142.649 3937.81 142.649 3937.99 141.754C3938.78 140.818 3939.97 140.287 3941.04 139.704C3941.36 139.918 3941.68 140.132 3942.01 140.353C3942.8 139.805 3943.58 139.257 3944.38 138.693C3944.28 138.157 3944.17 137.621 3944.06 137.069C3944.97 136.459 3945.88 135.85 3946.8 135.243C3947.11 135.037 3947.41 134.831 3947.72 134.624C3949.71 133.298 3951.71 132.039 3953.8 130.885C3954.05 131.142 3954.3 131.399 3954.55 131.664C3954.98 131.413 3954.98 131.413 3955.42 131.156C3955.8 130.933 3956.19 130.709 3956.57 130.486C3956.76 130.376 3956.95 130.266 3957.14 130.152C3958.41 129.419 3959.67 128.767 3961.05 128.246C3961.21 128.353 3961.37 128.46 3961.53 128.57C3961.91 128.355 3962.28 128.14 3962.67 127.919C3962.62 127.711 3962.57 127.504 3962.52 127.289C3962.47 126.522 3962.47 126.522 3962.83 125.97C3963.4 125.368 3963.93 125.024 3964.65 124.631C3964.88 124.508 3965.1 124.385 3965.33 124.258C3965.5 124.168 3965.68 124.077 3965.85 123.984C3966.05 124.166 3966.26 124.348 3966.47 124.536C3966.62 124.384 3966.62 124.384 3966.77 124.229C3968.43 122.67 3970.36 121.647 3972.35 120.565C3972.71 120.855 3973.08 121.144 3973.45 121.442C3973.63 121.238 3973.82 121.034 3974 120.824C3973.91 120.27 3973.91 120.27 3973.71 119.784C3974.12 119.451 3974.52 119.118 3974.94 118.776C3975.03 118.926 3975.12 119.076 3975.2 119.23C3975.73 118.929 3976.26 118.629 3976.8 118.319C3976.71 118.169 3976.62 118.019 3976.54 117.864C3976.72 117.66 3976.9 117.456 3977.09 117.246C3977.41 117.46 3977.73 117.674 3978.06 117.895C3979.04 117.336 3980.01 116.778 3981.02 116.202C3980.88 115.784 3980.74 115.366 3980.6 114.935C3981.78 113.514 3983.27 112.744 3984.88 111.877C3985.01 112.102 3985.14 112.327 3985.27 112.559C3985.38 112.398 3985.49 112.237 3985.6 112.071C3985.54 111.803 3985.49 111.535 3985.43 111.259C3986.33 110.743 3987.23 110.227 3988.16 109.696C3988.37 109.878 3988.57 110.06 3988.78 110.248C3989.51 109.526 3990.07 108.962 3990.53 108.037C3991.02 107.848 3991.5 107.66 3991.99 107.476C3992.78 107.067 3993.17 106.342 3993.68 105.629C3994.55 105.073 3994.55 105.073 3995.27 104.717C3995.52 104.974 3995.77 105.232 3996.02 105.496C3996.84 104.854 3996.84 104.854 3997.22 103.903C3997.59 103.391 3997.59 103.391 3998.1 102.797C3998.36 102.481 3998.36 102.481 3998.62 102.159C3999.54 101.211 4000.74 100.664 4001.9 100.054C4002.6 99.6133 4002.84 99.3243 4003.26 98.6326C4003.78 98.3113 4004.31 98.0044 4004.85 97.7212C4005.14 98.0533 4005.43 98.3855 4005.73 98.7277C4006.03 98.5558 4006.33 98.384 4006.64 98.2069C4006.53 97.6708 4006.43 97.1347 4006.31 96.5824C4006.91 95.9741 4007.19 95.7181 4008.05 95.6261C4008.27 95.587 4008.49 95.5479 4008.72 95.5077C4008.9 95.1114 4009.07 94.7097 4009.24 94.3048C4009.93 93.8329 4009.93 93.8329 4010.6 93.5235C4010.96 93.6207 4010.96 93.6207 4011.31 94.1951C4011.41 94.3807 4011.51 94.5662 4011.61 94.7574C4011.91 94.5855 4012.21 94.4137 4012.52 94.2366C4012.46 93.9685 4012.41 93.7005 4012.36 93.4243C4012.58 93.2345 4012.81 93.0447 4013.05 92.8491C4013.35 92.5977 4013.65 92.3461 4013.95 92.0945C4014.1 91.9697 4014.26 91.8449 4014.41 91.7163C4015.14 91.1067 4015.6 90.6717 4016.02 89.8137C4016.33 89.8348 4016.65 89.8559 4016.97 89.8777C4017.1 90.1028 4017.22 90.3279 4017.36 90.5598C4019.51 89.1921 4019.51 89.1921 4021.29 87.4038C4021.27 87.0136 4021.25 86.6236 4021.22 86.234C4021.77 85.7115 4021.77 85.7115 4022.45 85.2254C4022.95 84.8245 4023.39 84.4298 4023.79 83.9348C4025.61 81.7103 4028.31 80.6694 4030.87 79.4978C4031.13 79.3775 4031.39 79.2572 4031.66 79.1332C4032.29 78.8412 4032.93 78.5502 4033.56 78.2603C4033.58 77.9493 4033.6 77.6383 4033.62 77.3179C4033.95 77.2271 4034.27 77.1363 4034.6 77.0427C4035.86 76.6566 4037.01 76.1158 4038.19 75.5356C4038.79 75.2656 4038.79 75.2656 4039.37 75.2325C4039.59 74.9096 4039.81 74.584 4040.02 74.257C4040.49 73.8568 4040.49 73.8568 4040.99 73.4985C4041.15 73.3778 4041.32 73.2571 4041.49 73.1328C4041.94 72.8578 4041.94 72.8578 4042.52 72.8247C4043.22 73.2653 4043.58 73.5912 4043.94 74.3364C4044.05 74.968 4044.05 74.968 4043.63 75.8133C4043.3 76.0953 4042.96 76.3652 4042.61 76.6267C4041.44 77.581 4040.69 78.6381 4039.9 79.9103C4039.49 80.552 4039.06 81.1414 4038.59 81.7386C4038.08 82.4111 4037.91 82.7303 4037.72 83.5775C4037.2 85.2567 4035.91 86.6066 4034.37 87.4216C4033.11 88.1039 4032.32 89.1742 4031.44 90.2698C4031.11 90.6719 4030.77 91.074 4030.44 91.4762C4030.28 91.676 4030.12 91.8758 4029.95 92.0817C4029.28 92.8939 4028.6 93.6947 4027.92 94.4948C4026.94 95.6595 4025.99 96.8448 4025.12 98.0933C4024.2 99.2176 4023.13 99.9522 4021.85 100.642C4021.02 101.142 4020.36 101.676 4019.64 102.33C4018.49 103.36 4017.31 104.347 4016.1 105.309C4015.94 105.439 4015.77 105.569 4015.6 105.703C4014.93 106.237 4014.26 106.769 4013.59 107.3C4011.56 108.905 4009.59 110.538 4007.72 112.33C4007.01 113 4006.49 113.46 4005.52 113.644C4003.72 114.535 4002.12 115.721 4000.5 116.905C3999.43 117.683 3998.33 118.373 3997.17 119.023C3995.61 119.903 3994.18 120.906 3992.74 121.965C3985.16 127.423 3977.23 132.593 3969.11 137.212C3967.32 138.229 3965.57 139.294 3963.82 140.374C3963.52 140.56 3963.21 140.746 3962.91 140.932C3962.48 141.197 3962.48 141.197 3962.04 141.466C3961.79 141.624 3961.53 141.782 3961.27 141.945C3960.65 142.304 3960.65 142.304 3960.34 142.837C3959.88 143.128 3959.41 143.405 3958.93 143.675C3958.63 143.846 3958.33 144.017 3958.02 144.193C3957.86 144.284 3957.7 144.375 3957.53 144.469C3957.03 144.755 3956.52 145.042 3956.02 145.329C3954.77 146.044 3953.51 146.755 3952.25 147.467C3951.2 148.068 3950.14 148.669 3949.08 149.272C3948.58 149.554 3948.09 149.834 3947.59 150.114C3947.29 150.289 3946.98 150.464 3946.67 150.639C3946.41 150.79 3946.14 150.941 3945.86 151.096C3945.08 151.582 3944.37 152.125 3943.65 152.7C3943.17 153.005 3942.67 153.299 3942.18 153.583C3941.93 153.723 3941.69 153.863 3941.44 154.008C3940.62 154.456 3939.78 154.848 3938.94 155.243C3937.29 156.036 3935.72 156.922 3934.15 157.865C3933.88 158.026 3933.61 158.187 3933.33 158.353C3932.77 158.69 3932.2 159.028 3931.64 159.367C3930.78 159.882 3929.92 160.395 3929.06 160.908C3928.51 161.238 3927.96 161.569 3927.4 161.899C3927.15 162.051 3926.9 162.202 3926.63 162.358C3925.18 163.234 3923.78 164.154 3922.41 165.167C3922.54 165.392 3922.67 165.617 3922.8 165.849C3922.6 166.349 3922.6 166.349 3922.27 166.905C3921.92 167.514 3921.62 168.052 3921.39 168.716C3920.96 169.517 3920.61 169.72 3919.75 170.011C3919.27 169.898 3919.27 169.898 3918.71 169.703C3915.31 168.623 3910.54 169.6 3907.4 171.072C3906 171.802 3904.64 172.608 3903.28 173.407C3903.33 173.566 3903.39 173.725 3903.44 173.889C3903.57 174.446 3903.57 174.446 3903.31 175.048C3902.62 175.614 3902.46 175.61 3901.6 175.649C3899.81 175.802 3898.15 176.348 3896.43 176.874C3894.25 177.538 3892.09 178.148 3889.85 178.606C3889.1 178.76 3889.1 178.76 3888.35 179.238C3887.27 179.856 3886.18 180.043 3884.97 180.293C3884.67 180.354 3884.38 180.415 3884.08 180.477C3883.81 180.527 3883.53 180.577 3883.25 180.628C3881.97 180.949 3880.94 181.65 3879.84 182.354C3879.62 182.494 3879.4 182.634 3879.17 182.779C3878.7 183.074 3878.23 183.37 3877.77 183.668C3877.05 184.124 3876.34 184.574 3875.62 185.024C3875.17 185.312 3874.71 185.601 3874.26 185.889C3874.05 186.024 3873.83 186.158 3873.61 186.297C3873.41 186.424 3873.22 186.552 3873.01 186.683C3872.75 186.85 3872.75 186.85 3872.48 187.019C3871.99 187.413 3871.73 187.827 3871.38 188.354C3870.79 188.581 3870.79 188.581 3870.12 188.777C3869.68 189.012 3869.26 189.256 3868.84 189.51C3868.11 189.947 3867.64 190.205 3866.8 190.373C3866.72 190.223 3866.63 190.073 3866.54 189.918C3866.22 190.195 3865.9 190.473 3865.58 190.75C3865.41 190.904 3865.23 191.059 3865.04 191.218C3864.87 191.369 3864.7 191.52 3864.53 191.675C3864.39 191.793 3864.26 191.911 3864.12 192.032C3863.66 192.521 3863.32 193.056 3862.94 193.62C3861.91 195.085 3860.65 196.096 3859.2 197.14C3859.29 197.29 3859.38 197.44 3859.46 197.594C3859.87 197.262 3860.28 196.929 3860.7 196.586C3860.81 197.266 3860.81 197.266 3860.67 198.113C3860.04 198.685 3859.33 199.051 3858.58 199.441C3858.38 199.552 3858.19 199.663 3857.98 199.776C3856.99 200.321 3856.32 200.599 3855.18 200.653C3854.95 200.782 3854.73 200.911 3854.5 201.044C3854.46 201.297 3854.43 201.551 3854.4 201.812C3854.2 202.914 3853.81 203.287 3853.02 204.061C3852.1 204.912 3852.1 204.912 3851.61 206.019C3851.17 206.395 3851.17 206.395 3850.64 206.763C3850.37 206.948 3850.37 206.948 3850.11 207.137C3849.97 207.23 3849.83 207.322 3849.69 207.418C3849.78 207.656 3849.78 207.656 3849.87 207.899C3849.91 208.083 3849.95 208.268 3849.99 208.457C3849.8 208.661 3849.62 208.865 3849.43 209.075C3849.61 209.375 3849.78 209.676 3849.96 209.985C3849.72 210.436 3849.47 210.88 3849.21 211.318C3849.18 211.569 3849.16 211.819 3849.14 212.078C3848.54 214.966 3845.77 217.374 3843.42 218.932C3841.61 220.019 3840.13 220.703 3838.01 220.753C3837.66 220.765 3837.66 220.765 3837.31 220.777C3836.1 220.779 3836.1 220.779 3835.54 220.658C3835.42 220.525 3835.29 220.393 3835.17 220.256C3835.04 220.132 3834.92 220.007 3834.79 219.878C3834.4 219.893 3834.01 219.916 3833.62 219.945C3830.96 218.826 3829.31 216.585 3828.12 214.036C3827.74 212.932 3827.41 211.821 3827.11 210.69C3826.74 210.904 3826.36 211.119 3825.97 211.341C3825.89 211.191 3825.8 211.04 3825.71 210.886C3826.01 210.714 3826.31 210.542 3826.62 210.365C3826.61 210.172 3826.6 209.979 3826.59 209.78C3826.37 209.909 3826.14 210.038 3825.91 210.171C3824.06 210.845 3822.32 211.293 3820.34 211.302C3819.45 211.359 3818.65 211.59 3817.79 211.804C3817.01 211.926 3816.24 212.013 3815.46 212.096C3815.26 212.12 3815.06 212.144 3814.86 212.168C3813.36 212.331 3813.36 212.331 3812.7 212.141C3811.85 211.923 3811.14 212.224 3810.31 212.461C3810.17 211.946 3810.17 211.946 3810.02 211.421C3810.19 211.373 3810.36 211.324 3810.54 211.274C3812.06 210.712 3813.24 210.03 3814.21 208.72C3814.2 208.527 3814.19 208.334 3814.18 208.135C3813.84 208.425 3813.51 208.715 3813.17 209.013C3813.04 208.788 3812.91 208.563 3812.78 208.331C3812.96 208.127 3813.14 207.923 3813.33 207.713C3812.99 207.81 3812.64 207.907 3812.29 208.007C3812.15 207.492 3812.15 207.492 3812 206.967C3812.3 206.795 3812.6 206.624 3812.91 206.446C3812.81 206.17 3812.72 205.894 3812.62 205.61C3811.26 201.656 3810.06 197.66 3808.9 193.647C3808.82 193.39 3808.75 193.134 3808.67 192.87C3808.48 192.221 3808.3 191.57 3808.13 190.918C3808.07 190.738 3808.02 190.559 3807.97 190.374C3807.51 188.619 3807.94 187.165 3808.43 185.458C3808.47 185.212 3808.51 184.965 3808.55 184.711C3808.93 183.755 3809.51 183.545 3810.41 183.117C3810.33 182.714 3810.33 182.714 3810.25 182.304C3811.27 181.009 3812.84 180.073 3814.18 179.148C3813.43 179.578 3812.68 180.008 3811.91 180.45C3811.78 180.225 3811.65 180 3811.52 179.768C3812.25 179.083 3813.01 178.57 3813.88 178.072C3814.23 177.872 3814.23 177.872 3814.59 177.667C3815.25 177.327 3815.25 177.327 3815.77 177.18C3816.45 176.988 3817 176.657 3817.61 176.3C3817.83 176.169 3818.05 176.039 3818.28 175.905C3818.45 175.805 3818.62 175.705 3818.79 175.602C3818.88 175.752 3818.96 175.902 3819.05 176.056C3819.25 175.877 3819.25 175.877 3819.45 175.694C3821.2 174.163 3823.04 172.678 3825.42 172.411C3825.55 172.636 3825.67 172.861 3825.81 173.093C3826.53 172.529 3826.53 172.529 3827.27 171.954C3827.18 171.804 3827.1 171.654 3827.01 171.499C3827.58 170.501 3828.16 170.324 3829.21 169.909C3829.97 169.506 3830.49 169.002 3831.1 168.4C3832.24 167.291 3833.31 166.649 3834.8 166.13C3834.72 165.98 3834.63 165.83 3834.54 165.675C3834.35 165.686 3834.16 165.697 3833.96 165.708C3834.21 165.54 3834.21 165.54 3834.47 165.368C3837.73 163.424 3837.73 163.424 3840.13 160.665C3840.54 160.305 3840.54 160.305 3841 159.978C3841.4 159.69 3841.4 159.69 3841.81 159.396C3841.52 157.679 3841.07 156.066 3840.48 154.425C3840.2 154.601 3839.91 154.776 3839.62 154.956C3839.25 155.181 3838.88 155.406 3838.51 155.63C3838.23 155.804 3838.23 155.804 3837.95 155.982C3836.56 156.807 3836.56 156.807 3835.67 156.609C3835.18 156.25 3835.18 156.25 3834.92 155.796C3834.55 156.011 3834.17 156.225 3833.79 156.447C3833.86 155.359 3834 155.259 3834.75 154.537C3835.48 153.799 3836 153.122 3836.48 152.187C3836.63 152.101 3836.78 152.015 3836.93 151.927C3836.71 151.359 3836.48 150.79 3836.25 150.205C3837.39 149.145 3838.49 148.284 3839.86 147.553C3840.37 147.275 3840.37 147.275 3840.8 146.654C3841.79 145.662 3843.09 145.357 3844.4 144.933C3844.35 144.665 3844.29 144.397 3844.24 144.12C3845.31 143.977 3846.17 144.232 3847.19 144.54C3847.25 144.808 3847.3 145.076 3847.36 145.352C3847.66 145.18 3847.96 145.009 3848.27 144.831C3848.57 145.996 3848.6 146.746 3848.21 147.886C3848.4 147.875 3848.59 147.864 3848.79 147.853C3848.88 148.003 3848.96 148.153 3849.05 148.308C3848.51 149.558 3848.51 149.558 3847.75 149.863C3847.59 149.886 3847.43 149.91 3847.26 149.934C3847.19 149.977 3847.11 150.02 3847.04 150.065C3846.69 150.165 3846.34 150.263 3846 150.358C3846.08 150.508 3846.17 150.658 3846.26 150.813C3846.56 150.641 3846.86 150.469 3847.17 150.292C3847.48 151.01 3847.79 151.728 3848.11 152.468C3848.41 152.296 3848.71 152.124 3849.02 151.947C3849.11 152.097 3849.19 152.247 3849.28 152.402C3849.65 152.202 3850.01 152 3850.37 151.798C3850.57 151.686 3850.77 151.573 3850.98 151.458C3851.51 151.129 3851.89 150.783 3852.33 150.352C3852.94 150.116 3853.53 149.944 3854.17 149.794C3854.72 149.653 3854.72 149.653 3855.19 149.017C3856.54 147.985 3857.98 147.083 3859.4 146.166C3859.56 146.062 3859.72 145.957 3859.89 145.85C3860.56 145.417 3861.23 144.984 3861.91 144.553C3862.4 144.235 3862.9 143.914 3863.4 143.593C3863.55 143.497 3863.7 143.401 3863.86 143.302C3864.72 142.742 3865.28 142.175 3865.91 141.37C3866.5 140.944 3866.5 140.944 3867.17 140.543C3867.41 140.395 3867.66 140.247 3867.91 140.095C3868.16 139.944 3868.41 139.792 3868.67 139.636C3870.81 138.378 3870.81 138.378 3872.57 136.651C3873.06 136.451 3873.56 136.263 3874.06 136.097C3874.17 135.936 3874.27 135.775 3874.39 135.609C3874.69 135.366 3875 135.132 3875.32 134.904C3875.49 134.783 3875.65 134.662 3875.83 134.537C3876.3 134.21 3876.3 134.21 3876.98 133.82C3877.62 133.4 3878.26 132.975 3878.9 132.549C3879.64 132.054 3880.38 131.562 3881.13 131.077C3882.39 130.254 3883.6 129.438 3884.73 128.438C3885.59 127.682 3886.39 127.282 3887.45 126.872C3888.18 126.521 3888.68 126.006 3889.26 125.44C3890.44 124.37 3891.83 123.545 3893.16 122.681C3893.43 122.503 3893.7 122.326 3893.98 122.143C3894.23 121.982 3894.48 121.82 3894.73 121.654C3895.38 121.17 3895.78 120.686 3896.27 120.055C3896.81 119.709 3897.36 119.432 3897.93 119.145C3898.59 118.727 3899.09 118.224 3899.64 117.676C3900.55 116.849 3901.59 116.188 3902.61 115.501C3904.24 114.405 3904.24 114.405 3905.79 113.214C3906.31 112.798 3906.31 112.798 3907.09 112.519C3908.18 112.05 3908.9 111.423 3909.8 110.661C3910.56 110.045 3911.35 109.515 3912.18 108.982C3913.26 108.281 3914.21 107.57 3915.13 106.679C3916.15 105.762 3917.33 105.04 3918.46 104.277C3919.45 103.599 3920.41 102.895 3921.35 102.152C3921.54 102.003 3921.73 101.853 3921.92 101.699C3922.3 101.401 3922.67 101.101 3923.05 100.799C3924.14 99.9361 3925.23 99.2026 3926.46 98.542C3926.95 98.26 3927.37 97.9509 3927.81 97.5955C3928.11 97.3569 3928.11 97.3569 3928.42 97.1135C3928.54 97.1456 3928.66 97.1776 3928.78 97.2107C3929.79 96.6848 3930.69 96.069 3931.59 95.3812C3932.38 94.7844 3933.19 94.2034 3933.99 93.6228C3934.16 93.496 3934.34 93.3692 3934.52 93.2385C3935.9 92.2474 3937.3 91.3031 3938.72 90.3809C3939.33 89.9687 3939.87 89.5364 3940.4 89.0427C3940.32 88.8927 3940.23 88.7426 3940.14 88.588C3940.43 88.3874 3940.43 88.3874 3940.72 88.1828C3941.44 87.679 3942.16 87.1741 3942.88 86.6686C3943.19 86.4513 3943.5 86.2345 3943.8 86.018C3945.4 84.9029 3946.97 83.791 3948.41 82.476C3949.07 81.8821 3949.79 81.3707 3950.5 80.8438C3950.73 80.6566 3950.96 80.4694 3951.2 80.2765C3951.8 79.8277 3952.35 79.4837 3953 79.1287C3954.28 78.4045 3955.42 77.5447 3956.57 76.6357C3956.95 76.3312 3957.34 76.027 3957.73 75.723C3957.92 75.5773 3958.1 75.4315 3958.3 75.2814C3958.83 74.8683 3959.38 74.4706 3959.93 74.076C3960.75 73.5433 3960.75 73.5433 3961.09 72.9693C3961.5 72.6882 3961.93 72.4197 3962.36 72.1577C3962.74 71.9207 3962.74 71.9207 3963.13 71.6788C3963.54 71.4315 3963.54 71.4315 3963.95 71.1792C3964.48 70.8547 3965.01 70.5292 3965.54 70.2028C3965.89 69.9863 3965.89 69.9863 3966.26 69.7654C3966.85 69.3954 3966.85 69.3954 3967.23 69.0068C3967.89 68.3756 3968.66 67.8873 3969.41 67.3735C3969.58 67.2553 3969.75 67.137 3969.93 67.0152C3970.29 66.7653 3970.66 66.5158 3971.02 66.2666C3971.57 65.8889 3972.13 65.5096 3972.68 65.1302C3973.03 64.8866 3973.39 64.6432 3973.74 64.3999C3973.91 64.288 3974.07 64.1761 3974.24 64.0608C3975.22 63.3903 3976.22 62.7782 3977.26 62.2007C3977.94 61.8072 3978.54 61.3379 3979.15 60.8509C3979.38 60.6735 3979.6 60.4961 3979.83 60.3133C3980.27 59.9585 3980.71 59.6015 3981.13 59.2326C3983.08 57.579 3985.2 56.2362 3987.35 54.8717C3987.55 54.7474 3987.74 54.6231 3987.94 54.4951C3990.29 52.9991 3992.64 51.5231 3995.06 50.138Z" fill="#6D9ECA"/>
<path d="M3944.54 195.366C3944.95 195.757 3944.95 195.757 3945.29 196.146C3944.17 197.423 3943.02 198.634 3941.8 199.805C3941.63 199.966 3941.46 200.127 3941.29 200.293C3940.04 201.483 3938.74 202.604 3937.38 203.668C3936.29 204.544 3935.47 205.44 3935.09 206.814C3934.69 207.132 3934.28 207.449 3933.86 207.745C3933.39 208.078 3933.39 208.078 3932.96 208.487C3932.2 209.128 3931.36 209.639 3930.52 210.168C3927.09 212.329 3927.09 212.329 3924.67 215.501C3924.37 215.673 3924.07 215.845 3923.76 216.022C3923.81 216.29 3923.87 216.558 3923.92 216.834C3922.26 219.297 3919.64 220.903 3917.04 222.238C3915.87 222.863 3915.28 223.582 3914.51 224.642C3913.84 225.111 3913.84 225.111 3913.18 225.458C3912.85 225.636 3912.85 225.636 3912.51 225.817C3912.34 225.902 3912.18 225.987 3912.01 226.075C3911.76 225.818 3911.51 225.56 3911.26 225.296C3912.2 223.831 3913 222.888 3914.6 222.173C3915.3 222.074 3915.3 222.074 3915.77 222.106C3915.69 221.956 3915.6 221.806 3915.51 221.652C3915.36 221.738 3915.21 221.824 3915.06 221.912C3914.87 221.731 3914.69 221.551 3914.5 221.364C3913.85 220.719 3913.85 220.719 3912.88 220.744C3912.67 220.562 3912.47 220.38 3912.26 220.193C3911.06 220.88 3909.86 221.568 3908.62 222.276C3907.97 221.139 3907.97 221.139 3908.07 220.782C3908.44 220.555 3908.82 220.338 3909.21 220.131C3909.11 219.788 3909.01 219.445 3908.91 219.091C3913.05 215.788 3913.05 215.788 3915.16 214.44C3918.1 212.691 3918.1 212.691 3920.02 210.014C3920.53 209.757 3920.53 209.757 3921.06 209.72C3921.36 209.993 3921.36 209.993 3921.68 210.272C3921.84 210.033 3922.01 209.793 3922.18 209.547C3923.47 208.001 3925.29 206.971 3927.03 206.012C3929.4 204.704 3931.59 203.18 3933.8 201.619C3934.45 201.163 3935.1 200.709 3935.74 200.254C3936.16 199.963 3936.57 199.672 3936.99 199.38C3937.18 199.245 3937.37 199.11 3937.57 198.971C3942.72 195.332 3942.72 195.332 3944.54 195.366Z" fill="#6D9ECA"/>
<path d="M3830.14 124.572C3830.42 124.636 3830.42 124.636 3830.7 124.701C3830.75 124.969 3830.81 125.237 3830.86 125.513C3830.42 126.024 3829.99 126.464 3829.5 126.918C3829.36 127.05 3829.22 127.181 3829.07 127.317C3827.9 128.406 3826.66 129.367 3825.36 130.298C3824.71 130.769 3824.71 130.769 3824.76 131.726C3824.19 132.251 3824.19 132.251 3823.41 132.822C3823.27 132.926 3823.13 133.03 3822.98 133.138C3822.22 133.7 3821.45 134.243 3820.67 134.777C3818.82 136.068 3817.55 137.273 3816.29 139.194C3815.23 140.724 3813.62 141.421 3812.03 142.308C3811.31 142.753 3810.84 143.277 3810.31 143.926C3809.13 144.697 3809.13 144.697 3808.36 144.74C3808.28 144.59 3808.19 144.44 3808.1 144.286C3808.23 144.136 3808.36 143.985 3808.49 143.831C3808.65 143.633 3808.82 143.435 3808.99 143.231C3809.15 143.035 3809.32 142.839 3809.49 142.637C3809.95 142.069 3809.95 142.069 3809.69 141.262C3809.41 141.123 3809.13 140.984 3808.85 140.84C3807.9 141.533 3807.9 141.533 3806.93 142.24C3806.61 142.026 3806.29 141.811 3805.95 141.591C3807.22 138.978 3809.64 137.608 3812.03 136.099C3812.77 135.574 3813.28 135.014 3813.88 134.336C3814.73 133.846 3815.02 133.75 3815.95 133.749C3816.09 133.47 3816.23 133.191 3816.38 132.904C3816.89 132.587 3817.42 132.295 3817.96 132.015C3820.11 130.848 3822.05 129.417 3824.01 127.95C3828.64 124.506 3828.64 124.506 3830.14 124.572Z" fill="#6D9ECA"/>
<path d="M4042 67.6908C4042.68 67.3002 4042.68 67.3002 4043.24 67.4233C4043.44 67.4989 4043.64 67.5745 4043.85 67.6524C4044.15 67.7626 4044.15 67.7626 4044.46 67.875C4044.96 68.1104 4044.96 68.1104 4045.22 68.5651C4045.61 68.3461 4046.01 68.1253 4046.4 67.9038C4046.74 67.7197 4046.74 67.7197 4047.07 67.5319C4047.72 67.1556 4047.72 67.1556 4048.24 66.6631C4048.94 66.0693 4049.69 65.9759 4050.58 65.7976C4050.49 65.6476 4050.4 65.4975 4050.32 65.3429C4050.47 65.257 4050.62 65.1711 4050.77 65.0825C4050.94 65.5495 4050.94 65.5495 4051.06 66.1221C4050.6 67.045 4050.3 67.2682 4049.46 67.833C4049.23 67.9918 4049 68.1506 4048.76 68.3142C4048.51 68.4778 4048.27 68.6415 4048.02 68.8101C4047.77 68.977 4047.53 69.1439 4047.27 69.3159C4046.67 69.728 4046.06 70.1383 4045.45 70.5471C4045.24 70.365 4045.04 70.1829 4044.83 69.9953C4044.86 69.8773 4044.89 69.7593 4044.93 69.6377C4043.91 69.3237 4043.03 69.2044 4041.97 69.2182C4041.8 68.4059 4041.8 68.4059 4042 67.6908Z" fill="#6D9ECA"/>
<path d="M4011.05 89.0386C4011.32 88.9847 4011.59 88.9309 4011.86 88.8753C4011.95 89.0254 4012.04 89.1754 4012.12 89.33C4012.35 88.9759 4012.35 88.9759 4012.58 88.6147C4013.1 87.8668 4013.1 87.8668 4013.55 87.6063C4014 88.0649 4014 88.0649 4014.43 88.6129C4014.24 89.328 4014.24 89.328 4013.67 89.7111C4013.44 89.8358 4013.21 89.9604 4012.97 90.0888C4012.63 90.2785 4012.63 90.2785 4012.28 90.4721C4012.1 90.5672 4011.92 90.6623 4011.74 90.7602C4011.28 90.3017 4011.28 90.3017 4010.86 89.7537C4010.92 89.5177 4010.99 89.2818 4011.05 89.0386Z" fill="#6D9ECA"/>
<path d="M3967.02 119.693C3967.22 119.875 3967.42 120.057 3967.63 120.245C3966.35 121.131 3966.35 121.131 3965.04 122.035C3964.91 121.81 3964.78 121.585 3964.65 121.353C3966.1 119.877 3966.1 119.877 3967.02 119.693Z" fill="#6D9ECA"/>
<path d="M3969.94 117.416C3970.04 117.759 3970.13 118.102 3970.23 118.455C3969.52 118.96 3968.82 119.465 3968.09 119.985C3967.96 119.76 3967.83 119.534 3967.7 119.303C3967.85 119.17 3968.01 119.038 3968.17 118.902C3969.66 117.575 3969.66 117.575 3969.94 117.416Z" fill="#6D9ECA"/>
<path d="M3976.05 115.427C3976.86 115.264 3976.86 115.264 3977.57 115.458C3977.49 115.308 3977.4 115.158 3977.31 115.004C3977.72 114.671 3978.13 114.338 3978.55 113.995C3978.75 114.177 3978.95 114.359 3979.16 114.547C3978.85 114.846 3978.53 115.143 3978.2 115.437C3978.02 115.603 3977.85 115.768 3977.66 115.938C3977.49 116.059 3977.33 116.179 3977.15 116.304C3976.92 116.24 3976.68 116.175 3976.44 116.109C3976.31 115.884 3976.18 115.659 3976.05 115.427Z" fill="#6D9ECA"/>
<path d="M4000.07 96.231C4000.16 96.3811 4000.25 96.5311 4000.33 96.6857C3999.85 97.4206 3999.2 97.6934 3998.42 98.0849C3998.18 98.0208 3997.95 97.9567 3997.7 97.8907C3998.23 96.8169 3998.98 96.6052 4000.07 96.231Z" fill="#6D9ECA"/>
<path d="M3985.56 107.261C3985.98 107.122 3986.4 106.982 3986.83 106.838C3986.91 106.988 3987 107.138 3987.09 107.292C3986.6 107.668 3986.12 108.044 3985.63 108.431C3985.6 108.045 3985.58 107.659 3985.56 107.261Z" fill="#6D9ECA"/>
<path d="M3840.34 145.749C3842.69 144.29 3842.69 144.29 3844.01 144.251C3844.05 144.326 3844.1 144.401 3844.14 144.478C3843.69 144.736 3843.24 144.994 3842.78 145.259C3842.69 145.109 3842.6 144.959 3842.52 144.805C3841.84 145.191 3841.16 145.578 3840.47 145.976C3840.43 145.901 3840.38 145.826 3840.34 145.749Z" fill="#6D9ECA"/>
<path d="M3933.89 141.985C3934.16 141.932 3934.43 141.878 3934.7 141.822C3934.83 142.047 3934.96 142.272 3935.09 142.504C3934.75 142.601 3934.41 142.698 3934.06 142.798C3934 142.53 3933.95 142.262 3933.89 141.985Z" fill="#6D9ECA"/>
<path d="M3954 130.17C3954.3 129.998 3954.6 129.826 3954.9 129.649C3954.96 129.917 3955.01 130.185 3955.07 130.461C3954.84 130.59 3954.62 130.719 3954.39 130.852C3954.26 130.627 3954.13 130.402 3954 130.17Z" fill="#6D9ECA"/>
<path d="M3936.07 141.041C3936.12 141.309 3936.18 141.577 3936.23 141.853C3935.89 141.95 3935.55 142.047 3935.19 142.147C3935.61 141.301 3935.61 141.301 3936.07 141.041Z" fill="#6D9ECA"/>
<path d="M4047.55 62.096C4048.08 61.9269 4048.08 61.9269 4048.59 61.8025C4048.6 61.9956 4048.61 62.1886 4048.62 62.3874C4048.24 62.4093 4047.85 62.4311 4047.45 62.4536C4047.49 62.3356 4047.52 62.2176 4047.55 62.096Z" fill="#6D9ECA"/>
<path d="M3962.86 122.979C3963.49 122.77 3963.49 122.77 3964.13 122.556C3963.87 122.803 3963.61 123.049 3963.35 123.304C3963.19 123.197 3963.03 123.09 3962.86 122.979Z" fill="#6D9ECA"/>
<path d="M4019.01 82.3691C4019.33 82.5833 4019.65 82.7974 4019.98 83.0181C4019.83 83.104 4019.68 83.1899 4019.53 83.2785C4019.36 82.9784 4019.18 82.6783 4019.01 82.3691Z" fill="#6D9ECA"/>
<path d="M3812.58 209.046C3812.74 209.154 3812.91 209.261 3813.07 209.371C3812.88 209.382 3812.69 209.393 3812.49 209.404C3812.52 209.286 3812.55 209.168 3812.58 209.046Z" fill="#6D9ECA"/>
<path d="M3817.39 175.798C3817.98 175.765 3817.98 175.765 3817.98 175.765L3817.39 175.798Z" fill="#6D9ECA"/>
<path d="M4061.69 29.8459C4062.27 29.8128 4062.27 29.8128 4062.27 29.8128L4061.69 29.8459Z" fill="#6D9ECA"/>
</svg>
