<svg width="4360" height="751" viewBox="0 0 4360 751" fill="none" xmlns="http://www.w3.org/2000/svg">
<ellipse cx="3859.75" cy="197.399" rx="161.195" ry="160.699" transform="rotate(15.2291 3859.75 197.399)" fill="url(#paint0_linear_250_27919)" fill-opacity="0.5"/>
<path d="M3645.76 629.342H3669.07L3691 632.5L3712.94 638.818L3721.16 642.766L3726.65 641.187L3740.35 638.028H3760.92L3774.63 641.187L3782.85 644.346H3800.67L3817.13 646.715L3832.2 653.032L3840.43 660.139L3841.8 664.087L3848.66 664.877L3859.62 667.246L3862.36 663.298L3874.7 656.98L3885.67 654.611L3900.75 653.822L3910.35 649.084L3921.31 646.715L3935.02 647.504L3943.25 650.663L3950.1 654.611H3962.44L3977.52 657.77L3988.49 663.298L3993.97 668.825L3998.08 675.932L4009.05 672.774L4024.13 671.984L4037.84 674.353L4048.81 679.881L4052.92 684.619L4059.77 675.143L4065.26 670.405L4076.22 664.087L4091.3 660.139L4095.42 659.349H4118.72L4133.8 662.508L4147.51 668.825L4150.25 671.194L4166.7 674.353L4180.41 679.091L4188.64 683.04L4196.86 682.25H4214.68L4221.54 675.932L4232.51 670.405L4244.84 668.036H4255.81L4270.89 671.194L4279.12 675.143L4285.97 681.46L4290.08 686.988L4301.05 692.516L4307.91 698.043L4309.28 700.412L4322.99 701.992L4333.95 705.94L4342.18 712.257L4346.29 720.944L4355.89 725.682L4360 731.21V739.106L4354.52 746.213L4350.4 749.372L3361.99 750.162L3359.25 748.582L3360.62 739.896L3368.84 731.999L3381.18 727.261L3389.41 725.682H3399L3403.11 726.472V720.154L3409.97 708.309L3419.57 699.623L3431.9 691.726L3448.35 684.619L3453.84 683.829L3455.21 682.25L3478.51 677.512L3493.59 675.932H3531.98L3547.06 672.774L3560.77 671.194L3570.36 658.56L3578.59 651.453L3590.93 643.556L3606.01 637.239L3622.46 632.5L3645.76 629.342Z" fill="url(#paint1_linear_250_27919)" fill-opacity="0.3"/>
<path d="M3028.75 458.371H3052.05L3073.99 461.53L3095.92 467.847L3104.15 471.796L3109.63 470.216L3123.34 467.057H3143.9L3157.61 470.216L3165.84 473.375H3183.66L3200.11 475.744L3215.19 482.061L3223.41 489.168L3224.79 493.117L3231.64 493.906L3242.61 496.275L3245.35 492.327L3257.69 486.01L3268.65 483.641L3283.73 482.851L3293.33 478.113L3304.3 475.744L3318.01 476.534L3326.23 479.692L3333.09 483.641H3345.42L3360.5 486.799L3371.47 492.327L3376.95 497.855L3381.07 504.962L3392.03 501.803L3407.11 501.013L3420.82 503.382L3431.79 508.91L3435.9 513.648L3442.76 504.172L3448.24 499.434L3459.21 493.117L3474.29 489.168L3478.4 488.379H3501.71L3516.79 491.537L3530.5 497.855L3533.24 500.224L3549.69 503.382L3563.4 508.12L3571.62 512.069L3579.85 511.279H3597.67L3604.52 504.962L3615.49 499.434L3627.83 497.065H3638.8L3653.88 500.224L3662.1 504.172L3668.96 510.489L3673.07 516.017L3684.04 521.545L3690.89 527.073L3692.26 529.442L3705.97 531.021L3716.94 534.969L3725.16 541.287L3729.27 549.973L3738.87 554.711L3742.98 560.239V568.136L3737.5 575.243L3733.39 578.401L2744.97 579.191L2742.23 577.612L2743.6 568.925L2751.83 561.029L2764.16 556.29L2772.39 554.711H2781.99L2786.1 555.501V549.183L2792.95 537.338L2802.55 528.652L2814.89 520.755L2831.34 513.648L2836.82 512.858L2838.19 511.279L2861.5 506.541L2876.58 504.962H2914.96L2930.04 501.803L2943.75 500.224L2953.35 487.589L2961.57 480.482L2973.91 472.585L2988.99 466.268L3005.44 461.53L3028.75 458.371Z" fill="url(#paint2_linear_250_27919)" fill-opacity="0.3"/>
<path d="M1815.88 508.522H1843.63L1869.75 511.681L1895.86 517.999L1905.65 521.947L1912.18 520.368L1928.5 517.209H1952.99L1969.31 520.368L1979.1 523.526H2000.32L2019.91 525.895L2037.86 532.213L2047.65 539.32L2049.28 543.268L2057.45 544.058L2070.5 546.427L2073.77 542.478L2088.46 536.161L2101.51 533.792L2119.47 533.002L2130.89 528.264L2143.95 525.895L2160.27 526.685L2170.06 529.844L2178.23 533.792H2192.91L2210.87 536.951L2223.93 542.478L2230.45 548.006L2235.35 555.113L2248.41 551.954L2266.36 551.165L2282.68 553.534L2295.74 559.061L2300.64 563.8L2308.8 554.323L2315.33 549.585L2328.38 543.268L2346.34 539.32L2351.24 538.53H2378.98L2396.94 541.689L2413.26 548.006L2416.52 550.375L2436.11 553.534L2452.43 558.272L2462.22 562.22L2472.02 561.431H2493.23L2501.39 555.113L2514.45 549.585L2529.14 547.216H2542.2L2560.15 550.375L2569.95 554.323L2578.11 560.641L2583 566.169L2596.06 571.696L2604.22 577.224L2605.85 579.593L2622.17 581.172L2635.23 585.121L2645.03 591.438L2649.92 600.124L2661.35 604.862L2666.24 610.39V618.287L2659.71 625.394L2654.82 628.553L1478.03 629.342L1474.76 627.763L1476.39 619.077L1486.19 611.18L1500.88 606.442L1510.67 604.862H1522.09L1526.99 605.652V599.335L1535.15 587.49L1546.58 578.803L1561.27 570.907L1580.85 563.8L1587.38 563.01L1589.01 561.431L1616.76 556.692L1634.71 555.113H1680.41L1698.37 551.954L1714.69 550.375L1726.12 537.74L1735.91 530.633L1750.6 522.737L1768.55 516.419L1788.14 511.681L1815.88 508.522Z" fill="url(#paint3_linear_250_27919)" fill-opacity="0.3"/>
<path d="M1438.46 256.244H1471.11L1501.84 259.065L1532.56 264.707L1544.09 268.233L1551.77 266.823L1570.97 264.002H1599.78L1618.99 266.823L1630.51 269.644H1655.48L1678.52 271.759L1699.65 277.401L1711.17 283.749L1713.09 287.275L1722.69 287.98L1738.06 290.096L1741.9 286.57L1759.18 280.928L1774.55 278.812L1795.67 278.107L1809.12 273.875L1824.48 271.759L1843.69 272.465L1855.21 275.286L1864.81 278.812H1882.1L1903.22 281.633L1918.58 286.57L1926.27 291.506L1932.03 297.853L1947.39 295.032L1968.52 294.327L1987.72 296.443L2003.09 301.38L2008.85 305.611L2018.45 297.148L2026.13 292.917L2041.5 287.275L2062.62 283.749L2068.38 283.043H2101.03L2122.16 285.864L2141.36 291.506L2145.2 293.622L2168.25 296.443L2187.46 300.674L2198.98 304.201L2210.5 303.495H2235.47L2245.07 297.853L2260.43 292.917L2277.72 290.801H2293.08L2314.21 293.622L2325.73 297.148L2335.33 302.79L2341.1 307.727L2356.46 312.664L2366.06 317.6L2367.98 319.716L2387.19 321.126L2402.55 324.653L2414.07 330.295L2419.84 338.052L2433.28 342.284L2439.04 347.22V354.273L2431.36 360.62L2425.6 363.441L1040.92 364.146L1037.07 362.736L1038.99 354.978L1050.52 347.926L1067.8 343.694L1079.33 342.284H1092.77L1098.53 342.989V337.347L1108.13 326.768L1121.58 319.011L1138.86 311.958L1161.91 305.611L1169.59 304.906L1171.51 303.495L1204.16 299.264L1225.28 297.853H1279.06L1300.18 295.032L1319.39 293.622L1332.83 282.338L1344.35 275.991L1361.64 268.938L1382.76 263.297L1405.81 259.065L1438.46 256.244Z" fill="url(#paint4_linear_250_27919)" fill-opacity="0.33"/>
<path d="M363.714 400.621H393.744L422.007 403.442L450.27 409.084L460.869 412.61L467.935 411.2L485.599 408.379H512.096L529.76 411.2L540.359 414.021H563.323L584.52 416.136L603.951 421.778L614.55 428.126L616.316 431.652L625.148 432.357L639.28 434.473L642.813 430.947L658.711 425.305L672.842 423.189L692.273 422.484L704.638 418.252L718.77 416.136L736.434 416.842L747.033 419.663L755.865 423.189H771.763L791.194 426.01L805.326 430.947L812.392 435.883L817.691 442.23L831.823 439.409L851.253 438.704L868.918 440.82L883.049 445.757L888.349 449.988L897.181 441.525L904.247 437.294L918.378 431.652L937.809 428.126L943.109 427.42H973.138L992.569 430.241L1010.23 435.883L1013.77 437.999L1034.96 440.82L1052.63 445.051L1063.23 448.578L1073.83 447.872H1096.79L1105.62 442.23L1119.75 437.294L1135.65 435.178H1149.78L1169.21 437.999L1179.81 441.525L1188.64 447.167L1193.94 452.104L1208.08 457.04L1216.91 461.977L1218.67 464.093L1236.34 465.503L1250.47 469.03L1261.07 474.672L1266.37 482.429L1278.73 486.661L1284.03 491.597V498.65L1276.97 504.997L1271.67 507.818L-1.93977 508.523L-5.47266 507.113L-3.70621 499.355L6.89246 492.303L22.7905 488.071L33.3891 486.661H45.7543L51.0536 487.366V481.724L59.8858 471.145L72.251 463.388L88.149 456.335L109.346 449.988L116.412 449.283L118.179 447.872L148.208 443.641L167.639 442.23H217.099L236.53 439.409L254.195 437.999L266.56 426.715L277.159 420.368L293.057 413.315L312.488 407.674L333.685 403.442L363.714 400.621Z" fill="url(#paint5_linear_250_27919)" fill-opacity="0.33"/>
<defs>
<linearGradient id="paint0_linear_250_27919" x1="3833.88" y1="101.424" x2="3922.05" y2="421.5" gradientUnits="userSpaceOnUse">
<stop stop-color="#FFEFCE"/>
<stop offset="1" stop-color="#B3DBEF"/>
</linearGradient>
<linearGradient id="paint1_linear_250_27919" x1="3707.79" y1="750.162" x2="3707.79" y2="608.825" gradientUnits="userSpaceOnUse">
<stop stop-color="#82BBDF"/>
<stop offset="1" stop-color="#E5EBFF"/>
</linearGradient>
<linearGradient id="paint2_linear_250_27919" x1="3090.77" y1="579.191" x2="3090.77" y2="437.855" gradientUnits="userSpaceOnUse">
<stop stop-color="#82BBDF"/>
<stop offset="1" stop-color="#E5EBFF"/>
</linearGradient>
<linearGradient id="paint3_linear_250_27919" x1="1889.73" y1="629.342" x2="1889.73" y2="488.006" gradientUnits="userSpaceOnUse">
<stop stop-color="#82BBDF"/>
<stop offset="1" stop-color="#E5EBFF"/>
</linearGradient>
<linearGradient id="paint4_linear_250_27919" x1="1981.92" y1="256.244" x2="1981.92" y2="364.146" gradientUnits="userSpaceOnUse">
<stop stop-color="white"/>
<stop offset="1" stop-color="#80B8DE"/>
</linearGradient>
<linearGradient id="paint5_linear_250_27919" x1="863.578" y1="400.621" x2="863.578" y2="508.523" gradientUnits="userSpaceOnUse">
<stop stop-color="white"/>
<stop offset="1" stop-color="#80B8DE"/>
</linearGradient>
</defs>
</svg>
