<svg width="4682" height="1505" viewBox="0 0 4682 1505" fill="none" xmlns="http://www.w3.org/2000/svg">
<path d="M3150.48 378.678L3180.35 349.775C3197.2 338.26 3221.95 332.773 3221.95 332.773C3244.23 327.294 3255.89 307.239 3266.76 308.97C3284.64 311.821 3270.37 283.199 3298.76 290.268L3311.56 286.018H3319.03L3327.56 272.416H3337.16L3356.37 255.414C3360.63 255.414 3370.02 249.294 3373.43 224.811C3378.06 219.711 3388.37 210.02 3392.64 212.06C3396.9 214.1 3403.66 219.71 3406.5 222.26L3416.11 214.609H3429.97C3435.69 208.061 3434 189.957 3449.18 189.957C3460.4 189.957 3462.91 188.264 3467.31 197.183C3470.51 196.191 3477.55 194.802 3480.11 197.183C3483.31 200.158 3489.25 197.948 3499.85 203.558C3506.87 207.274 3510.25 198.104 3515.85 197.183C3520.63 197.183 3532.82 198.313 3536.65 199.308C3542.41 200.801 3565.76 185.282 3568.66 185.282C3571.55 185.282 3581.99 189.957 3581.99 189.957C3584.71 191.9 3606.03 179.224 3607.59 177.63C3609.42 174.639 3613.14 170.593 3614.53 169.554C3616.7 167.923 3619.86 160.062 3622.53 156.803L3617.73 148.302C3623.96 138.927 3624.75 137.276 3639.06 134.701L3649.73 124.075C3649.73 116.5 3660.32 126.595 3666.27 120.674C3675.83 111.15 3680.88 108.212 3688.67 103.247C3691.34 101.547 3703.07 101.972 3703.07 105.798C3712.79 102.477 3740.62 97.265 3750.54 99.4212C3771.22 103.917 3789.52 121.511 3793.75 137.675L3798.55 145.751L3804.95 156.803C3813.82 172.128 3812.28 177.358 3831.62 185.282L3847.62 203.558C3848.69 206.958 3851.89 213.418 3856.15 212.058C3871.24 207.25 3882.57 171.193 3899.89 161.478L3924.96 169.554L3929.23 177.63L3934.03 182.73L3942.03 189.957L3949.5 199.308L3956.96 206.958L3972.43 220.134H3978.3L3985.77 226.935L3988.97 231.185H3995.9L4009.24 243.512V248.612L4023.64 260.088C4027.73 264.622 4037.61 273.35 4044.44 271.99C4051.27 270.629 4066.84 285.308 4073.78 292.817C4075.73 296.075 4081.03 302.763 4086.58 303.443C4091.62 304.061 4105.81 319.103 4105.25 324.695L4114.31 328.095L4123.38 335.321L4126.58 349.348C4136.92 354.225 4149.67 366.774 4161.79 366.774C4166.05 372.158 4175.44 382.926 4178.85 382.926C4182.27 382.926 4197.7 393.411 4204.99 398.653L4216.73 403.328L4224.73 411.829L4192.19 408.854H4165.52H4140.98C4134.05 408.854 4109.51 405.879 4114.31 408.854C4119.11 411.829 4095.65 414.805 4086.58 411.829C4077.51 408.854 4050.31 405.879 4053.51 408.854C4056.71 411.829 4021.5 408.854 4017.77 408.854C4014.04 408.854 4005.5 403.753 3988.97 406.304C3972.43 408.854 3948.43 411.404 3945.23 408.854C3942.67 406.814 3919.98 408.004 3908.96 408.854C3895.09 408.004 3869.17 406.304 3876.42 406.304C3885.49 406.304 3846.02 401.203 3834.82 402.053C3823.62 402.903 3799.08 406.304 3792.15 406.304C3785.21 406.304 3759.08 403.753 3746.27 406.304C3741.47 404.887 3728.46 402.053 3714.8 402.053C3697.74 402.053 3671.07 406.304 3665.2 406.304C3659.33 406.304 3644.4 402.053 3622.53 402.053C3600.66 402.053 3573.99 402.053 3563.85 398.653C3562.25 398.113 3561.12 397.688 3560.36 397.355C3550.63 400.364 3527.65 404.535 3496.11 402.053C3488.82 400.636 3470.62 398.653 3456.11 402.053C3443.66 401.345 3416.32 400.353 3406.5 402.053C3394.24 404.178 3345.7 399.928 3334.5 398.228C3323.3 396.528 3286.49 395.252 3273.69 398.653C3263.45 401.373 3234.93 399.503 3221.95 398.228C3213.24 399.503 3193.47 402.053 3184.08 402.053C3174.69 402.053 3157.77 399.786 3150.48 398.653V378.678Z" fill="#D5C4EC"/>
<path d="M3604.4 377.826L3566.28 341.193C3544.52 326.455 3512.04 318.945 3512.04 318.945C3482.82 311.518 3468.36 286.362 3453.89 288.189C3430.08 291.195 3450.36 256.195 3412.44 264.116L3395.71 258.484L3385.82 258.266L3375.19 241.188L3362.48 240.909L3337.89 219.312C3332.24 219.188 3320.12 211.342 3316.79 180.948C3310.92 174.502 3297.75 162.211 3292 164.611C3286.25 167.012 3277.03 173.757 3273.14 176.829L3260.81 167.083L3242.45 166.68C3235.2 158.41 3238.33 136.058 3218.24 135.616C3203.38 135.29 3200.13 133.122 3193.88 144.03C3189.69 142.709 3180.44 140.786 3176.93 143.657C3172.55 147.246 3164.8 144.339 3150.5 150.972C3141.03 155.365 3137 143.92 3129.63 142.617C3123.3 142.478 3107.12 143.523 3101.99 144.642C3094.3 146.322 3064.15 126.439 3060.31 126.355C3056.48 126.271 3042.44 131.752 3042.44 131.752C3038.74 134.078 3011.13 117.772 3009.15 115.754C3006.88 112 3002.15 106.886 3000.36 105.56C2997.56 103.478 2993.77 93.6585 2990.4 89.5487L2997.16 79.1696C2989.38 67.3877 2988.4 65.3212 2969.59 61.7188L2955.99 48.2599C2956.35 38.8878 2941.84 51.0708 2934.26 43.5712C2922.07 31.5077 2915.53 27.7253 2905.46 21.3559C2902.01 19.1745 2886.46 19.359 2886.27 24.0925C2873.57 19.7011 2836.98 12.4418 2823.75 14.8212C2796.15 19.7825 2771.08 41.0198 2764.69 60.8986L2757.95 70.7517L2748.93 84.2406C2736.44 102.945 2738.22 109.461 2712.24 118.703L2690.17 140.853C2688.59 145.029 2684.04 152.929 2678.46 151.122C2658.73 144.734 2645.49 99.7881 2623.03 87.2625L2589.46 96.5267L2583.41 106.395L2576.81 112.566L2565.87 121.275L2555.53 132.629L2545.27 141.877L2524.15 157.731L2516.39 157.561L2506.17 165.758L2501.73 170.925L2492.55 170.723L2474.29 185.587L2474.05 191.898L2454.42 205.68C2448.79 211.171 2435.28 221.682 2426.31 219.8C2417.34 217.919 2396 235.628 2386.46 244.718C2383.71 248.693 2376.37 256.814 2369 257.494C2362.29 258.112 2342.78 276.312 2343.25 283.248L2331.08 287.191L2318.73 295.868L2313.8 313.131C2299.88 318.865 2282.39 334.023 2266.36 333.67C2260.45 340.208 2247.49 353.259 2242.98 353.159C2238.46 353.06 2217.52 365.584 2207.61 371.858L2191.85 377.302L2180.85 387.588L2224.06 384.854L2259.36 385.63L2291.84 386.343C2301.02 386.545 2333.64 383.578 2327.14 387.12C2320.64 390.661 2351.56 395.026 2363.71 391.608C2375.86 388.19 2412.01 385.3 2407.63 388.889C2403.25 392.477 2449.99 389.82 2454.93 389.929C2459.87 390.037 2471.42 383.974 2493.18 387.611C2514.94 391.248 2546.59 395.102 2550.95 392.04C2554.44 389.59 2584.41 391.722 2598.96 393.095C2617.36 392.447 2651.75 391.097 2642.15 390.886C2630.15 390.622 2682.65 385.459 2697.43 386.837C2712.22 388.215 2744.53 393.137 2753.71 393.338C2762.88 393.54 2797.6 391.145 2814.42 394.673C2820.85 393.06 2838.21 389.932 2856.29 390.329C2878.88 390.826 2913.97 396.861 2921.74 397.032C2929.51 397.203 2949.48 392.378 2978.43 393.015C3007.38 393.651 3042.68 394.427 3056.26 390.514C3058.41 389.893 3059.93 389.399 3060.95 389.01C3073.67 393.017 3103.89 398.847 3145.76 396.693C3155.48 395.152 3179.67 393.227 3198.71 397.857C3215.22 397.343 3251.46 396.911 3264.37 399.3C3280.51 402.287 3344.96 398.44 3359.87 396.662C3374.78 394.884 3423.56 394.377 3440.34 398.957C3453.76 402.621 3491.6 401.137 3508.84 399.937C3520.31 401.768 3546.36 405.499 3558.78 405.772C3571.21 406.046 3593.73 403.733 3603.43 402.543L3604.4 377.826Z" fill="#D5C4EC"/>
<path d="M3037.52 184.584C3037.52 184.584 3037.52 200.521 3037.52 209.74C3031.45 209.74 3029.59 229.867 3029.59 237.509C3023.75 237.509 3025.88 275.522 3025.56 280.683C3024.32 290.919 3024.26 300.058 3024.41 310.299C3023.78 308.731 3023.18 307.163 3022.61 305.593C3022.31 304.801 3021.99 304.009 3021.68 303.218C3020.75 300.654 3020.18 298.47 3022.5 295.976C3023.75 294.525 3022.57 293.162 3021.82 291.706C3020.96 291.706 3020.11 291.706 3019.23 291.706C3019.23 288.964 3019.23 286.223 3019.23 283.398C3017.95 283.398 3016.66 283.398 3015.34 283.398C3013.53 292.809 3013.53 292.809 3015.34 296.849C3016.63 296.979 3017.91 297.11 3019.23 297.244C3017.39 297.232 3017.39 297.232 3015.51 297.219C3011.46 297.244 3011.46 297.244 3008.87 297.64C3008.87 298.684 3008.87 299.729 3008.87 300.805C3007.59 300.935 3006.31 301.066 3004.99 301.2C3004.13 299.242 3003.28 297.284 3002.4 295.266C3004.11 295.266 3005.81 295.266 3007.58 295.266C3007.58 294.613 3007.58 293.961 3007.58 293.288C3006.29 293.288 3005.01 293.288 3003.69 293.288C3003.69 292.897 3003.69 292.505 3003.69 292.101C3002.84 292.101 3001.98 292.101 3001.1 292.101C3001.1 291.84 3001.1 291.579 3001.1 291.31C2999.82 291.31 2998.54 291.31 2997.22 291.31C2997.22 291.963 2997.22 292.616 2997.22 293.288C2996.36 293.288 2995.51 293.288 2994.63 293.288C2994.63 293.027 2994.63 292.766 2994.63 292.497C2991.64 292.497 2988.65 292.497 2985.56 292.497C2985.14 293.019 2984.71 293.541 2984.27 294.079C2983.42 294.079 2982.56 294.079 2981.68 294.079C2981.68 294.732 2981.68 295.385 2981.68 296.057C2982.96 296.188 2984.24 296.318 2985.56 296.453C2984.28 301.544 2983 306.636 2981.68 311.881C2978.69 311.881 2975.7 311.881 2972.62 311.881C2972.62 310.576 2972.62 309.27 2972.62 307.925C2970.91 308.056 2969.2 308.186 2967.44 308.321C2967.01 307.146 2966.58 305.971 2966.14 304.761C2967 304.761 2967.85 304.761 2968.73 304.761C2968.73 305.544 2968.73 306.327 2968.73 307.134C2970.01 307.134 2971.3 307.134 2972.62 307.134C2972.62 306.079 2972.62 305.024 2972.62 303.969C2972.98 302.955 2973.36 301.942 2973.75 300.928C2973.91 300.013 2973.91 300.013 2972.62 299.222C2973.47 299.222 2974.33 299.222 2975.21 299.222C2975.63 298.439 2976.06 297.656 2976.5 296.849C2975.22 296.849 2973.94 296.849 2972.62 296.849C2972.62 295.413 2972.62 293.977 2972.62 292.497C2970.91 292.366 2969.2 292.236 2967.44 292.101C2967.44 287.569 2992.41 290.117 2990.68 283.398C2988.33 282.656 2971.56 274.744 2968.73 274.299C2957.79 274.299 2942.54 233.349 2960.96 229.597C2960.54 229.205 2960.11 228.813 2959.67 228.41C2956.77 228.41 2949.31 224.719 2949.31 226.432C2949.06 226.432 2948.8 226.432 2948.55 226.432C2942.6 226.432 2944.5 228.41 2940.25 228.41C2940.25 228.802 2940.25 229.193 2940.25 229.597C2947.93 229.597 2938.95 270.598 2938.95 278.651C2938.1 278.651 2891.44 295.432 2890.56 295.432C2890.56 295.432 2893.96 283.478 2892.34 275.882C2891.52 272.044 2888.75 266.173 2888.75 266.173C2888.32 265.521 2888.28 265.082 2887.84 264.409C2885.7 264.409 2880.3 264.409 2878.1 264.409C2877.94 264.777 2877.78 265.145 2877.62 265.524C2875.97 269.259 2875.06 272.607 2874.56 275.882C2873.75 281.121 2873.96 286.175 2873.74 292.339C2873.7 293.124 2849.82 306.427 2849.78 307.211V290.208C2849.78 285.747 2818.54 284.52 2818.54 290.519V313.464C2818.54 313.464 2818.25 330.451 2817.62 338.782C2816.76 338.782 2813.36 338.782 2813.36 338.782L2806.89 332.453C2806.03 332.453 2805.18 332.453 2804.3 332.453C2804.3 326.355 2790.18 327.544 2790.44 332.453C2790.44 332.453 2789.08 306.048 2789.08 311.607C2789.08 311.607 2789.53 309.466 2788.17 309.466C2783.72 309.392 2775.49 309.508 2773.67 309.508C2771.86 309.508 2769.94 309.382 2769.94 311.607C2769.94 311.607 2770.52 333.875 2769.94 344.716H2761.98V340.825C2759.91 336.509 2758.78 332.123 2757.82 327.544C2756.96 327.544 2753.71 324.936 2752.83 324.936V344.716H2748.62C2748.07 326.092 2747.94 307.444 2743.77 288.937H2738.26C2738.26 288.676 2738.26 288.414 2738.26 288.145C2737.41 288.145 2736.55 288.145 2735.67 288.145C2735.67 288.407 2735.67 288.668 2735.67 288.937C2733.96 288.937 2729.67 288.937 2727.91 288.937V310.299H2722.73C2722.73 311.949 2722.31 313.748 2726.49 313.748V339.178C2724.36 339.178 2721.04 339.178 2718.84 339.178C2718.84 339.178 2718.84 342.572 2718.84 344.321C2717.99 344.321 2717.13 344.321 2716.25 344.321C2716.25 331.726 2716.25 316.889 2716.25 306.739L2707.19 306.343L2704.6 307.134C2703 307.134 2702.94 308.515 2702.94 309.951V330.079C2701.66 330.079 2699.45 330.079 2698.13 330.079C2698.13 330.601 2698.13 331.123 2698.13 331.661C2696.84 331.661 2695.56 331.661 2694.24 331.661C2694.17 329.326 2694.14 326.991 2694.09 324.655V303.281C2694.09 303.281 2692.34 294.625 2680 295.266C2667.66 295.907 2673.6 312.891 2670.94 321.771H2669.02C2669.02 322.723 2669.47 323.738 2670.94 323.749C2671.45 328.479 2671.01 333.257 2670.94 337.991C2669.65 337.991 2668.37 337.991 2667.05 337.991C2667.08 337.616 2667.1 337.24 2667.13 336.854C2667.13 335.156 2664.46 336.854 2664.46 334.68V329.683C2664.46 329.683 2664.46 328.497 2661.87 328.497L2652.81 329.288C2652.81 331.35 2650.53 329.608 2650.46 331.826V345.447C2650.46 347.288 2648.92 345.622 2648.92 348.239V367.661C2648.07 367.661 2647.22 367.661 2646.33 367.661C2646.59 363.49 2646.33 355.137 2646.33 355.137C2646.33 351.8 2646.37 350.618 2637.76 350.618L2631.87 325.879C2631.02 325.749 2630.38 325.538 2629.5 325.403V309.112H2637.27C2637.27 308.59 2637.27 307.672 2637.27 307.134C2635.04 306.964 2632.09 307.275 2632.09 305.947C2629.5 305.947 2625.62 305.66 2625.62 304.365C2623.91 304.365 2622.2 304.365 2620.44 304.365C2620.44 306.534 2612.56 305.575 2608.79 306.343C2608.54 307.381 2608.54 307.381 2608.79 308.321C2611.44 308.422 2610.56 307.229 2611.94 308.321L2612.67 344.716C2611.82 344.716 2610.96 344.716 2610.08 344.716C2610.23 341.289 2610.15 337.858 2610.08 334.431H2604.9C2604.47 335.083 2604.05 335.736 2603.61 336.409C2602.75 336.409 2602.4 336.409 2601.52 336.409C2600.16 339.501 2600.16 339.438 2597.13 344.716C2596.28 343.802 2595.6 342.888 2594.72 341.947C2593.01 341.947 2591.13 341.947 2589.36 341.947C2589.46 340.147 2589.49 334.102 2589.59 332.302C2589.59 331.35 2589.28 330.87 2586.78 330.87C2585.92 330.87 2585.07 330.87 2584.19 330.87C2584.19 330.348 2584.19 329.826 2584.19 329.288C2581.16 329.271 2578.14 329.272 2575.12 329.288C2573.11 329.902 2573.11 331.443 2575.12 332.057C2575.62 334.931 2575.2 337.881 2575.12 340.76C2574.27 340.76 2573.4 340.76 2572.52 340.76C2572.52 340.76 2572.62 357.913 2572.62 366.474C2572.62 366.474 2566.21 366.474 2564.89 366.474V363.152C2564.76 362.122 2564.89 361.798 2563.47 361.331C2559.58 361.331 2559.58 360.37 2559.58 358.562C2554.18 358.562 2556.21 356.896 2555.7 354.186C2553.99 354.316 2551.63 354.051 2549.87 354.186C2549.87 356.802 2548.09 359.419 2544.62 359.419V373.99C2538.64 373.99 2530.79 373.99 2524.63 373.99C2524.66 369.713 2524.63 339.573 2524.63 339.573C2521 339.573 2518.15 339.573 2518.15 339.573L2514.27 367.265C2507.28 364.652 2501.39 365.128 2493.55 367.661C2493.55 369.619 2493.55 371.577 2493.55 373.595C2487.14 373.595 2474.13 373.595 2474.13 373.595C2474.13 358.269 2474.13 328.892 2474.13 328.892C2474.13 328.892 2466.03 328.892 2465.15 328.892C2455.64 335.632 2460.4 362.291 2459.89 373.199C2457.75 373.199 2447.85 373.199 2445.65 373.199V345.147C2445.22 344.755 2441.58 343.142 2441.14 342.738H2431.4V373.199C2427.56 373.199 2423.1 373.199 2419.14 373.199V368.633C2418.86 366.789 2418.03 365.198 2416.41 363.412C2415.18 361.399 2415.17 359.792 2415.32 357.754C2415.38 356.837 2415.99 355.443 2416.03 354.526C2416.06 354.123 2416.09 353.721 2416.12 353.306C2415.86 352.212 2415.87 350.65 2413.28 350.65C2410.77 350.774 2407.92 353.2 2405.25 353.472V373.199H2401.62C2401.62 373.199 2401.62 372.812 2401.62 372.408H2397.74V371.617H2395.15V373.199H2392.21V344.321C2391.36 344.321 2390.37 344.321 2389.49 344.321C2393.05 340.02 2391.11 335.172 2379.98 335.394C2379.48 336.049 2379.98 335.35 2379.61 336.013C2383.27 337.132 2378.17 342.292 2381.34 344.321L2379.07 344.195V364.1H2375.73V362.914H2373.14V364.1C2365.93 364.1 2364.84 367.119 2364.84 370.599H2350.98C2348.27 370.599 2347.24 371.075 2347.24 374.782H2339.47C2339.47 375.173 2339.47 377.543 2339.47 377.946C2338.62 377.946 2337.76 377.946 2336.88 377.946C2336.88 376.631 2336.88 374.782 2336.88 374.782C2336.88 374.782 2329.97 374.782 2327.82 374.782C2327.82 374.167 2326.97 373.595 2325.23 373.595C2325.23 372.026 2323.76 370.826 2320.21 370.826V353.477C2320.21 352.759 2319.27 351.441 2317.46 351.441H2315.19C2314.29 351.441 2312.14 352.195 2312.16 353.71V364.892H2308.4V361.727C2296.62 361.727 2297.16 370.656 2294.16 375.177H2288.98V351.046H2291.57V347.881H2294.16V346.299L2287.68 345.903V345.112H2285.09V345.903H2279.91V334.035C2278.21 334.035 2274.35 334.035 2272.59 334.035V340.045C2272.61 341.816 2268.81 340.627 2268.81 342.078V354.248C2268.82 355.997 2264.45 354.47 2264.45 356.566V367.661H2259.2V366.474H2256.3C2255.38 364.398 2252.77 363.225 2248.6 363.225L2247.55 359.353C2246.26 359.353 2244.98 359.353 2243.66 359.353C2243.66 360.267 2243.66 361.181 2243.66 362.122C2241.52 362.122 2239.39 362.122 2237.19 362.122C2237.19 361.861 2237.19 361.6 2237.19 361.331C2233.19 361.322 2231.38 362.122 2231.38 363.701V373.199C2221.87 373.215 2215.18 373.135 2215.18 378.342H2167.27V376.364C2167.27 376.364 2164.38 374.876 2162.06 374.881C2159.77 374.886 2156.91 376.364 2156.91 376.364V378.342C2156.91 378.342 2184.9 375.889 2156.91 376.364C2156.91 383.936 2151 397.199 2151 405C2496.45 405.196 2416.91 400.691 2769.34 400.891C2770.19 401.413 2771.05 401.936 2771.93 402.474C2772.41 402.217 2772.89 401.96 2773.38 401.695C2775.63 400.791 2775.63 400.791 2779.31 400.693C2780.74 400.693 2782.17 400.692 2783.64 400.692C2785.29 400.688 2786.94 400.684 2788.65 400.68C2790.49 400.683 2792.34 400.687 2794.19 400.69C2796.14 400.688 2798.1 400.686 2800.06 400.683C2805.48 400.676 2810.9 400.679 2816.32 400.684C2822.2 400.687 2828.09 400.682 2833.97 400.677C2844.29 400.67 2854.61 400.669 2864.94 400.672C2880.29 400.676 2895.64 400.671 2910.98 400.665C2936.8 400.654 2962.62 400.65 2988.43 400.651C3014 400.651 3039.58 400.648 3065.15 400.641C3067.53 400.641 3067.53 400.641 3069.96 400.64C3078.03 400.638 3086.09 400.635 3094.16 400.633C3151.33 400.617 3208.5 400.608 3265.67 400.603C3279.54 400.602 3293.4 400.6 3307.26 400.599C3308.12 400.599 3308.98 400.599 3309.87 400.599C3349.82 400.595 3389.78 400.587 3429.73 400.578C3432.33 400.578 3434.92 400.577 3437.51 400.577C3454.7 400.573 3471.89 400.569 3489.07 400.565C3524.09 400.557 3559.1 400.549 3594.12 400.542C3595.73 400.541 3597.34 400.541 3599 400.541C3706.56 400.518 3814.12 400.506 3921.68 400.496C3921.68 395.274 3921.68 390.052 3921.68 384.672C3898.38 383.88 3898.38 383.88 3890.61 383.88C3890.18 383.358 3889.75 382.836 3889.31 382.298C3886.75 382.298 3884.19 382.298 3881.55 382.298C3881.12 382.951 3880.69 383.604 3880.25 384.276C3874.91 384.299 3869.57 384.313 3864.23 384.326C3862.71 384.332 3861.18 384.339 3859.62 384.346C3858.16 384.348 3856.71 384.351 3855.22 384.353C3853.87 384.357 3852.53 384.362 3851.15 384.366C3810.29 384.501 3835.58 383.485 3811.63 383.485L3788.32 381.902C3775.59 381.902 3773.48 370.329 3757.25 370.329C3757.25 369.415 3757.25 367.416 3757.25 366.474C3757.25 363.444 3752.7 358.222 3735.48 358.222C3718.72 358.222 3713.72 365.352 3714.36 370.329H3697.43V361.52L3695.32 359.123V349.152C3695.16 345.029 3684.99 345.029 3684.99 349.152C3684.99 349.152 3685.23 356.454 3684.99 359.123L3683.45 360.936C3683.45 360.936 3683.37 367.003 3683.45 369.996C3668.77 370.003 3654.1 369.996 3639.42 369.996V350.255C3638.14 350.255 3635.57 350.255 3634.24 350.255C3633.82 349.732 3633.39 349.21 3632.95 348.672C3632.52 348.672 3632.1 348.672 3631.65 348.672L3630.55 353.356L3630.36 372.012C3627.21 372.012 3623.58 372.24 3623.58 375.968H3600.58C3600.58 375.446 3600.58 374.924 3600.58 374.386C3599.73 374.386 3598.87 374.386 3597.99 374.386C3597.56 373.603 3597.14 372.819 3596.7 372.012C3594.56 371.882 3592.42 371.751 3590.22 371.617C3589.37 372.792 3588.51 373.967 3587.63 375.177C3585.92 375.177 3586.38 377.155 3584.62 377.155C3584.19 371.411 3584.17 359.277 3584.17 357.375C3584.17 355.474 3574.69 355.748 3574.69 357.375L3574.2 365.093C3573.35 365.093 3570.8 365.287 3570.8 365.287V377.946C3565.67 377.816 3560.55 377.685 3555.26 377.551V373.595H3547.49V375.177C3547.49 375.177 3544.49 375.177 3543.61 375.177C3543.61 374.655 3543.61 374.133 3543.61 373.595C3541.05 373.595 3538.48 373.595 3535.84 373.595C3535.84 373.334 3535.84 373.073 3535.84 372.804C3534.56 372.804 3534.52 372.804 3533.2 372.804V354.21C3533.2 353 3525.27 352.725 3525.27 354.21V374.386C3523.56 374.386 3519.48 374.386 3517.72 374.386C3517.72 374.647 3517.72 374.908 3517.72 375.177C3516.43 375.177 3515.15 375.177 3513.83 375.177C3513.83 375.83 3513.83 376.483 3513.83 377.155C3511.27 377.155 3508.7 377.155 3506.06 377.155C3506.06 377.416 3506.06 377.677 3506.06 377.946C3503.5 377.946 3499.82 377.946 3497.18 377.946C3497.18 371.966 3497.09 360.355 3497.18 354.374C3497.18 352.014 3497.18 351.785 3493.11 351.785V341.551C3488.67 339.081 3482.12 339.081 3477.67 341.551V351.785C3475.89 351.785 3474.73 351.626 3474.73 354.374C3474.73 356.341 3474.67 357.897 3474.73 359.41C3474.73 359.41 3474.87 366.493 3474.99 370.034C3471.1 370.034 3471.1 371.25 3471.1 374.782C3467.22 374.782 3467.22 374.603 3467.22 376.76H3446.2C3446.13 371.242 3446.44 349.463 3438.73 349.463C3437.03 349.463 3435.32 349.463 3433.56 349.463C3433.56 349.463 3428.64 340.632 3411.54 340.632C3411.54 340.632 3411.54 335.134 3411.54 328.892C3411.54 328.892 3405.14 311.758 3399.89 306.739C3397.75 306.739 3395.62 306.739 3393.42 306.739V332.057C3380.55 332.057 3362.49 332.057 3349.62 332.057C3349.71 330.659 3349.52 329.259 3349.62 327.861L3346.81 323.749C3346.81 323.749 3345.32 321.583 3344.7 320.486C3344.53 320.191 3344.35 319.896 3344.18 319.592C3343.75 318.869 3343.11 317.749 3342.69 317.024H3339.04C3339.04 316.763 3339.04 316.502 3339.04 316.233C3337.75 316.233 3336.47 316.233 3335.15 316.233C3335.15 316.494 3335.15 316.755 3335.15 317.024C3334.3 317.024 3333.44 317.024 3332.56 317.024C3332.56 315.719 3332.56 313.464 3332.56 313.464H3329.97C3329.97 313.464 3329.73 319.135 3329.35 321.941C3329.35 321.941 3322.48 321.941 3314.15 321.941V290.608C3314.15 285.936 3293.72 285.661 3293.72 290.608V321.941H3289.84V287.139C3289.84 280.684 3266.37 279.889 3266.37 287.139V321.771C3241.55 321.771 3243.22 328.497 3243.22 328.497C3242.79 329.667 3242.36 330.837 3241.93 332.007C3241.81 332.34 3241.68 332.673 3241.55 333.017C3241.44 333.335 3241.32 333.654 3241.2 333.982C3241.09 334.277 3240.98 334.571 3240.87 334.874C3240.63 335.617 3240.63 335.617 3240.63 336.409C3237.22 336.409 3233.8 336.409 3230.28 336.409C3230.28 325.466 3237.71 319.738 3226.23 316.233V291.635C3226.23 287.035 3203.77 286.772 3203.71 292.897C3203.71 292.897 3203.47 308.46 3203.44 316.233H3197.91C3197.91 316.233 3198.07 305.47 3198.07 300.228C3198.01 299.964 3195.51 298.576 3195.46 298.304V288.541C3195.46 284.561 3180.43 284.287 3180.43 288.196C3180.43 288.196 3181.13 323.898 3180.43 333.982L3151.33 334.384C3151.25 333.982 3152.98 319.545 3152.9 319.136C3152.73 318.259 3152.58 317.382 3152.43 316.505C3152.32 315.898 3152.2 315.291 3152.09 314.684C3151.5 311.365 3151.11 308.058 3151.25 304.734C3151.37 301.572 3151.1 298.415 3150.81 295.255C3150.76 294.624 3150.7 293.994 3150.65 293.363C3150.58 292.473 3149.33 291.498 3149.25 290.608V260.649C3149.25 247.181 3146.07 260.374 3146.07 247.181C3146.07 235.637 3143.81 246.906 3143.81 235.637C3138.83 235.637 3145.62 229.041 3138.83 229.597C3137.56 229.701 3134.26 229.597 3132.94 229.597C3125.69 229.597 3132.63 235.637 3127.5 235.637C3127.5 247.731 3125.4 235.637 3125.4 247.181C3125.4 260.465 3122.52 247.366 3122.52 260.649V273.842C3121.66 273.842 3122.4 276.673 3121.52 276.673C3121.54 277.351 3121.54 277.351 3121.56 278.042C3121.64 281.725 3121.45 285.393 3120.91 289.073C3120.01 295.701 3119.79 302.331 3119.53 308.964C3119.47 310.638 3119.39 312.312 3119.32 313.986C3119.19 317.241 3119.05 320.495 3118.93 323.749C3118.07 323.749 3117.22 323.749 3116.34 323.749C3116.34 318.397 3116.34 313.044 3116.34 307.53C3115.48 307.399 3114.63 307.269 3113.75 307.134C3112.48 308.298 3112.25 309.092 3112.19 310.308C3112.16 310.712 3112.13 311.115 3112.11 311.532C3112.09 311.967 3112.06 312.402 3112.04 312.85C3112.02 313.296 3111.99 313.743 3111.96 314.202C3111.88 315.629 3111.8 317.056 3111.72 318.483C3111.67 319.45 3111.61 320.416 3111.55 321.383C3111.42 323.754 3111.28 326.125 3111.16 328.497C3109.88 328.497 3108.59 328.497 3107.27 328.497C3106.85 329.149 3106.42 329.802 3105.98 330.475C3105.81 329.974 3105.63 329.474 3105.46 328.959C3105.23 328.302 3105 327.645 3104.76 326.988C3104.65 326.659 3104.54 326.329 3104.42 325.989C3104.31 325.672 3104.2 325.354 3104.08 325.027C3103.93 324.589 3103.93 324.589 3103.77 324.142C3103.39 323.354 3103.39 323.354 3102.09 322.167C3103.38 322.167 3104.66 322.167 3105.98 322.167C3105.12 321.514 3104.27 320.861 3103.39 320.189C3102.53 320.189 3101.68 320.189 3100.8 320.189C3100.8 315.489 3100.8 310.79 3100.8 305.947C3102.08 305.947 3103.36 305.947 3104.68 305.947C3104.68 305.425 3104.68 304.903 3104.68 304.365C3102.12 304.234 3099.56 304.104 3096.91 303.969C3096.91 301.881 3096.91 299.792 3096.91 297.64C3099.05 297.509 3101.19 297.379 3103.39 297.244C3103.39 296.853 3103.39 296.461 3103.39 296.057C3100.82 296.057 3098.26 296.057 3095.62 296.057C3095.62 295.405 3095.62 294.752 3095.62 294.079C3092.63 294.079 3089.64 294.079 3086.56 294.079C3086.56 294.602 3086.56 295.124 3086.56 295.662C3084.85 295.662 3083.14 295.662 3081.38 295.662C3081.47 295.278 3081.56 294.895 3081.66 294.5C3084.03 284.25 3084.03 284.25 3081.38 281.816C3080.52 281.816 3079.67 281.816 3078.79 281.816C3078.79 289.649 3078.79 297.482 3078.79 305.552C3077.51 305.421 3076.22 305.291 3074.9 305.156C3074.98 304.544 3074.98 304.544 3075.07 303.92C3074.9 302.387 3074.9 302.387 3073.53 301.225C3072.23 299.929 3072.69 299.132 3073.39 297.819C3073.88 295.639 3072.2 293.454 3071.02 291.31C3070.79 290.858 3070.55 290.406 3070.31 289.94C3068.65 286.763 3068.65 286.763 3067.14 285.376C3066.28 285.376 3062.24 286.563 3061.36 286.563C3061.36 286.563 3062.26 237.153 3055.92 237.509C3055.75 229.372 3055.92 209.74 3047.31 209.74C3047.31 203.613 3047.31 184.584 3047.31 184.584L3042.33 181.491L3037.52 184.584ZM3052.89 295.662C3052.96 296.824 3053.01 297.986 3053.05 299.148C3053.08 299.478 3053.1 299.807 3053.12 300.147C3053.13 300.465 3053.14 300.782 3053.15 301.109C3053.16 301.401 3053.17 301.693 3053.19 301.994C3053.04 302.909 3053.04 302.909 3050.3 303.969C3049.88 302.142 3049.45 300.314 3049.01 298.431C3049.86 298.431 3050.72 298.431 3051.6 298.431C3051.6 297.517 3051.6 296.603 3051.6 295.662C3052.03 295.662 3052.45 295.662 3052.89 295.662ZM3050.3 308.321C3051.38 310.314 3051.74 312.203 3051.68 314.23C3051.67 314.501 3051.67 314.771 3051.66 315.05C3051.65 315.708 3051.62 316.366 3051.6 317.024C3050.74 317.024 3049.89 317.024 3049.01 317.024C3049.01 314.152 3049.01 311.28 3049.01 308.321C3049.44 308.321 3049.86 308.321 3050.3 308.321ZM2718.84 345.507C2718.84 348.118 2718.84 350.729 2718.84 353.419C2717.99 353.419 2717.13 353.419 2716.25 353.419C2716.25 350.808 2716.25 348.197 2716.25 345.507C2717.11 345.507 2717.96 345.507 2718.84 345.507Z" fill="#BCABD3"/>
<path d="M4180.12 244.344C4180.12 244.344 4180.12 256.628 4180.12 263.735C4175.45 263.735 4174.01 279.248 4174.01 285.138C4169.52 285.138 4171.15 314.437 4170.91 318.416C4169.96 326.305 4169.91 333.349 4170.02 341.243C4169.54 340.034 4169.08 338.825 4168.63 337.616C4168.4 337.005 4168.16 336.395 4167.92 335.785C4167.2 333.808 4166.77 332.126 4168.55 330.203C4169.51 329.084 4168.61 328.034 4168.03 326.912C4167.37 326.912 4166.71 326.912 4166.03 326.912C4166.03 324.799 4166.03 322.686 4166.03 320.508C4165.04 320.508 4164.06 320.508 4163.04 320.508C4161.64 327.762 4161.64 327.762 4163.04 330.876C4164.03 330.976 4165.01 331.077 4166.03 331.181C4164.61 331.171 4164.61 331.171 4163.17 331.162C4160.05 331.181 4160.05 331.181 4158.05 331.485C4158.05 332.29 4158.05 333.095 4158.05 333.925C4157.07 334.025 4156.08 334.126 4155.06 334.23C4154.41 332.72 4153.75 331.211 4153.07 329.656C4154.39 329.656 4155.7 329.656 4157.06 329.656C4157.06 329.153 4157.06 328.65 4157.06 328.131C4156.07 328.131 4155.08 328.131 4154.07 328.131C4154.07 327.83 4154.07 327.528 4154.07 327.217C4153.41 327.217 4152.75 327.217 4152.07 327.217C4152.07 327.015 4152.07 326.814 4152.07 326.607C4151.09 326.607 4150.1 326.607 4149.08 326.607C4149.08 327.11 4149.08 327.613 4149.08 328.131C4148.42 328.131 4147.76 328.131 4147.09 328.131C4147.09 327.93 4147.09 327.729 4147.09 327.522C4144.78 327.522 4142.48 327.522 4140.11 327.522C4139.78 327.924 4139.45 328.327 4139.11 328.741C4138.45 328.741 4137.79 328.741 4137.12 328.741C4137.12 329.244 4137.12 329.747 4137.12 330.266C4138.1 330.366 4139.09 330.467 4140.11 330.571C4139.12 334.495 4138.13 338.419 4137.12 342.463C4134.81 342.463 4132.51 342.463 4130.14 342.463C4130.14 341.456 4130.14 340.45 4130.14 339.413C4128.82 339.514 4127.5 339.615 4126.15 339.718C4125.82 338.813 4125.49 337.907 4125.15 336.974C4125.81 336.974 4126.47 336.974 4127.14 336.974C4127.14 337.578 4127.14 338.181 4127.14 338.804C4128.13 338.804 4129.12 338.804 4130.14 338.804C4130.14 337.99 4130.14 337.177 4130.14 336.364C4130.42 335.582 4130.71 334.801 4131.01 334.02C4131.13 333.315 4131.13 333.315 4130.14 332.705C4130.79 332.705 4131.45 332.705 4132.13 332.705C4132.46 332.101 4132.79 331.498 4133.13 330.876C4132.14 330.876 4131.15 330.876 4130.14 330.876C4130.14 329.769 4130.14 328.662 4130.14 327.522C4128.82 327.421 4127.5 327.32 4126.15 327.217C4126.15 323.723 4145.38 325.687 4144.05 320.508C4142.24 319.937 4129.33 313.838 4127.14 313.495C4118.72 313.495 4106.98 281.932 4121.16 279.04C4120.83 278.738 4120.5 278.436 4120.16 278.125C4117.93 278.125 4112.19 275.28 4112.19 276.6C4111.99 276.6 4111.8 276.6 4111.6 276.6C4107.02 276.6 4108.48 278.125 4105.21 278.125C4105.21 278.427 4105.21 278.729 4105.21 279.04C4111.13 279.04 4104.21 310.642 4104.21 316.849C4103.55 316.849 4067.62 329.783 4066.94 329.783C4066.94 329.783 4069.57 320.57 4068.32 314.715C4067.68 311.757 4065.55 307.232 4065.55 307.232C4065.22 306.729 4065.19 306.391 4064.85 305.872C4063.2 305.872 4059.04 305.872 4057.35 305.872C4057.23 306.156 4057.11 306.439 4056.98 306.731C4055.71 309.611 4055.01 312.191 4054.62 314.715C4054 318.753 4054.16 322.649 4053.99 327.4C4053.96 328.005 4035.57 338.258 4035.54 338.863V325.758C4035.54 322.319 4011.48 321.373 4011.48 325.997V343.682C4011.48 343.682 4011.26 356.776 4010.77 363.197C4010.11 363.197 4007.49 363.197 4007.49 363.197L4002.51 358.318C4001.85 358.318 4001.19 358.318 4000.51 358.318C4000.51 353.618 3989.64 354.535 3989.84 358.318C3989.84 358.318 3988.79 337.966 3988.79 342.251C3988.79 342.251 3989.14 340.601 3988.09 340.601C3984.67 340.544 3978.33 340.633 3976.93 340.633C3975.53 340.633 3974.06 340.536 3974.06 342.251C3974.06 342.251 3974.5 359.415 3974.06 367.771H3967.92V364.772C3966.33 361.445 3965.46 358.064 3964.72 354.535C3964.06 354.535 3961.56 352.525 3960.88 352.525V367.771H3957.64C3957.21 353.416 3957.11 339.042 3953.9 324.777H3949.66C3949.66 324.576 3949.66 324.375 3949.66 324.167C3949 324.167 3948.34 324.167 3947.67 324.167C3947.67 324.369 3947.67 324.57 3947.67 324.777C3946.35 324.777 3943.04 324.777 3941.68 324.777V341.243H3937.7C3937.7 342.515 3937.37 343.901 3940.6 343.901V363.502C3938.95 363.502 3936.4 363.502 3934.7 363.502C3934.7 363.502 3934.7 366.118 3934.7 367.466C3934.05 367.466 3933.39 367.466 3932.71 367.466C3932.71 357.758 3932.71 346.322 3932.71 338.499L3925.73 338.194L3923.74 338.804C3922.5 338.804 3922.46 339.867 3922.46 340.975V356.489C3921.47 356.489 3919.77 356.489 3918.75 356.489C3918.75 356.891 3918.75 357.294 3918.75 357.708C3917.76 357.708 3916.78 357.708 3915.76 357.708C3915.71 355.909 3915.68 354.108 3915.65 352.308V335.834C3915.65 335.834 3914.29 329.162 3904.79 329.656C3895.29 330.15 3899.86 343.241 3897.81 350.086H3896.34C3896.34 350.819 3896.69 351.602 3897.81 351.61C3898.21 355.256 3897.87 358.939 3897.81 362.587C3896.82 362.587 3895.84 362.587 3894.82 362.587C3894.84 362.298 3894.86 362.009 3894.88 361.711C3894.88 360.402 3892.83 361.711 3892.83 360.035V356.184C3892.83 356.184 3892.83 355.269 3890.83 355.269L3883.85 355.879C3883.85 357.469 3882.09 356.126 3882.05 357.835V368.334C3882.05 369.753 3880.86 368.469 3880.86 370.486V385.456C3880.2 385.456 3879.54 385.456 3878.87 385.456C3879.06 382.241 3878.87 375.803 3878.87 375.803C3878.87 373.231 3878.89 372.32 3872.26 372.32L3867.73 353.252C3867.07 353.151 3866.58 352.989 3865.9 352.885V340.328H3871.89C3871.89 339.926 3871.89 339.218 3871.89 338.804C3870.17 338.672 3867.9 338.912 3867.9 337.889C3865.9 337.889 3862.91 337.667 3862.91 336.669C3861.6 336.669 3860.28 336.669 3858.92 336.669C3858.92 338.341 3852.85 337.602 3849.95 338.194C3849.76 338.994 3849.76 338.994 3849.95 339.718C3851.99 339.796 3851.31 338.877 3852.38 339.718L3852.94 367.771C3852.28 367.771 3851.63 367.771 3850.95 367.771C3851.06 365.129 3851 362.485 3850.95 359.843H3846.96C3846.63 360.346 3846.3 360.849 3845.96 361.368C3845.3 361.368 3845.03 361.368 3844.35 361.368C3843.31 363.751 3843.31 363.702 3840.98 367.771C3840.32 367.066 3839.8 366.362 3839.12 365.636C3837.8 365.636 3836.35 365.636 3834.99 365.636C3835.07 364.249 3835.09 359.589 3835.17 358.202C3835.17 357.469 3834.93 357.099 3833 357.099C3832.34 357.099 3831.68 357.099 3831.01 357.099C3831.01 356.696 3831.01 356.294 3831.01 355.879C3828.68 355.866 3826.35 355.866 3824.03 355.879C3822.48 356.352 3822.48 357.54 3824.03 358.013C3824.41 360.229 3824.08 362.502 3824.03 364.722C3823.37 364.722 3822.7 364.722 3822.02 364.722C3822.02 364.722 3822.1 377.943 3822.1 384.541C3822.1 384.541 3817.16 384.541 3816.15 384.541V381.98C3816.05 381.187 3816.15 380.937 3815.05 380.577C3812.06 380.577 3812.06 379.837 3812.06 378.443C3807.9 378.443 3809.47 377.159 3809.07 375.07C3807.75 375.17 3805.93 374.966 3804.58 375.07C3804.58 377.087 3803.21 379.103 3800.54 379.103V390.335C3795.93 390.335 3789.88 390.335 3785.14 390.335C3785.16 387.037 3785.14 363.807 3785.14 363.807C3782.35 363.807 3780.15 363.807 3780.15 363.807L3777.16 385.151C3771.78 383.137 3767.25 383.504 3761.21 385.456C3761.21 386.965 3761.21 388.475 3761.21 390.03C3756.27 390.03 3746.25 390.03 3746.25 390.03C3746.25 378.217 3746.25 355.574 3746.25 355.574C3746.25 355.574 3740.01 355.574 3739.34 355.574C3732.01 360.769 3735.68 381.317 3735.28 389.725C3733.64 389.725 3726.01 389.725 3724.32 389.725V368.103C3723.99 367.801 3721.18 366.557 3720.85 366.246H3713.35V389.725C3710.39 389.725 3706.96 389.725 3703.91 389.725V386.205C3703.69 384.784 3703.05 383.558 3701.8 382.181C3700.85 380.63 3700.84 379.391 3700.96 377.82C3701.01 377.113 3701.48 376.039 3701.51 375.332C3701.53 375.022 3701.55 374.711 3701.58 374.392C3701.38 373.548 3701.38 372.345 3699.39 372.345C3697.46 372.44 3695.26 374.31 3693.21 374.52V389.725H3690.41C3690.41 389.725 3690.41 389.426 3690.41 389.115H3687.42V388.505H3685.43V389.725H3683.17V367.466C3682.51 367.466 3681.75 367.466 3681.07 367.466C3683.82 364.151 3682.31 360.415 3673.75 360.585C3673.36 361.09 3673.75 360.552 3673.46 361.063C3676.28 361.925 3672.35 365.902 3674.79 367.466L3673.05 367.369V382.712H3670.47V381.797H3668.48V382.712C3662.93 382.712 3662.09 385.038 3662.09 387.721H3651.42C3649.32 387.721 3648.54 388.087 3648.54 390.945H3642.55C3642.55 391.246 3642.55 393.073 3642.55 393.384C3641.9 393.384 3641.24 393.384 3640.56 393.384C3640.56 392.37 3640.56 390.945 3640.56 390.945C3640.56 390.945 3635.23 390.945 3633.58 390.945C3633.58 390.471 3632.93 390.03 3631.59 390.03C3631.59 388.821 3630.45 387.895 3627.72 387.895V374.523C3627.72 373.97 3626.99 372.954 3625.6 372.954H3623.85C3623.16 372.954 3621.5 373.535 3621.52 374.703V383.322H3618.62V380.882C3609.55 380.882 3609.97 387.765 3607.65 391.249H3603.67V372.649H3605.66V370.21H3607.65V368.99L3602.67 368.686V368.076H3600.67V368.686H3596.69V359.538C3595.37 359.538 3592.4 359.538 3591.05 359.538V364.17C3591.06 365.536 3588.14 364.619 3588.14 365.737V375.118C3588.14 376.466 3584.78 375.289 3584.78 376.904V385.456H3580.73V384.541H3578.5C3577.79 382.941 3575.78 382.037 3572.57 382.037L3571.76 379.053C3570.77 379.053 3569.78 379.053 3568.77 379.053C3568.77 379.757 3568.77 380.461 3568.77 381.187C3567.12 381.187 3565.48 381.187 3563.78 381.187C3563.78 380.986 3563.78 380.785 3563.78 380.577C3560.71 380.57 3559.31 381.187 3559.31 382.404V389.725C3551.98 389.737 3546.83 389.676 3546.83 393.689H3509.94V392.164C3509.94 392.164 3507.71 391.017 3505.93 391.021C3504.16 391.025 3501.96 392.164 3501.96 392.164V393.689C3501.96 393.689 3457.71 392.713 3436.15 393.079C3436.15 398.915 3436.15 404.751 3436.15 410.764C3702.18 410.915 3702.18 410.915 3973.59 411.069C3974.25 411.472 3974.91 411.874 3975.59 412.289C3975.95 412.091 3976.32 411.893 3976.7 411.689C3978.43 410.992 3978.43 410.992 3981.27 410.916C3982.37 410.916 3983.47 410.916 3984.61 410.916C3985.88 410.913 3987.15 410.909 3988.46 410.906C3989.88 410.909 3991.3 410.912 3992.73 410.914C3994.23 410.913 3995.74 410.911 3997.25 410.909C4001.43 410.903 4005.6 410.906 4009.77 410.909C4014.3 410.912 4018.83 410.908 4023.36 410.904C4031.31 410.899 4039.26 410.898 4047.21 410.9C4059.03 410.903 4070.85 410.9 4082.67 410.895C4102.55 410.886 4122.44 410.883 4142.32 410.884C4162.01 410.884 4181.7 410.882 4201.39 410.877C4203.23 410.876 4203.23 410.876 4205.1 410.876C4211.31 410.874 4217.52 410.872 4223.74 410.87C4267.76 410.858 4311.79 410.851 4355.82 410.847C4366.49 410.846 4377.17 410.845 4387.85 410.844C4388.51 410.844 4389.17 410.844 4389.85 410.844C4420.62 410.841 4451.39 410.835 4482.16 410.828C4484.16 410.828 4486.16 410.827 4488.15 410.827C4501.39 410.824 4514.62 410.821 4527.86 410.818C4554.82 410.811 4581.79 410.806 4608.75 410.8C4609.99 410.8 4611.23 410.799 4612.51 410.799C4695.34 410.782 4778.18 410.772 4861.01 410.764C4861.01 406.739 4861.01 402.714 4861.01 398.568C4843.06 397.958 4843.06 397.958 4837.08 397.958C4836.75 397.555 4836.42 397.153 4836.08 396.738C4834.11 396.738 4832.14 396.738 4830.1 396.738C4829.77 397.241 4829.44 397.744 4829.1 398.263C4824.99 398.28 4820.88 398.291 4816.77 398.301C4815.59 398.306 4814.42 398.311 4813.21 398.316C4812.09 398.318 4810.98 398.32 4809.82 398.322C4808.79 398.325 4807.76 398.329 4806.69 398.332C4775.23 398.436 4794.7 397.653 4776.26 397.653L4758.31 396.433C4748.51 396.433 4746.88 387.513 4734.38 387.513C4734.38 386.808 4734.38 385.267 4734.38 384.541C4734.38 382.206 4730.88 378.181 4717.62 378.181C4704.71 378.181 4700.86 383.677 4701.35 387.513H4688.31V380.723L4686.69 378.875V371.19C4686.57 368.012 4678.73 368.012 4678.73 371.19C4678.73 371.19 4678.92 376.818 4678.73 378.875L4677.54 380.272C4677.54 380.272 4677.48 384.949 4677.54 387.256C4666.24 387.261 4654.94 387.256 4643.64 387.256V372.04C4642.66 372.04 4640.67 372.04 4639.66 372.04C4639.33 371.637 4639 371.235 4638.66 370.82C4638.33 370.82 4638 370.82 4637.66 370.82L4636.81 374.43L4636.66 388.81C4634.23 388.81 4631.44 388.985 4631.44 391.859H4613.73C4613.73 391.457 4613.73 391.054 4613.73 390.64C4613.07 390.64 4612.41 390.64 4611.74 390.64C4611.41 390.036 4611.08 389.432 4610.74 388.81C4609.09 388.71 4607.45 388.609 4605.75 388.505C4605.1 389.411 4604.44 390.316 4603.76 391.249C4602.44 391.249 4602.8 392.774 4601.44 392.774C4601.11 388.347 4601.09 378.994 4601.09 377.528C4601.09 376.062 4593.79 376.274 4593.79 377.528L4593.41 383.477C4592.76 383.477 4590.8 383.627 4590.8 383.627V393.384C4586.85 393.283 4582.9 393.183 4578.83 393.079V390.03H4572.85V391.249C4572.85 391.249 4570.54 391.249 4569.86 391.249C4569.86 390.847 4569.86 390.445 4569.86 390.03C4567.88 390.03 4565.91 390.03 4563.88 390.03C4563.88 389.829 4563.88 389.627 4563.88 389.42C4562.89 389.42 4562.86 389.42 4561.84 389.42V375.089C4561.84 374.156 4555.73 373.944 4555.73 375.089V390.64C4554.42 390.64 4551.27 390.64 4549.92 390.64C4549.92 390.841 4549.92 391.042 4549.92 391.249C4548.93 391.249 4547.94 391.249 4546.92 391.249C4546.92 391.753 4546.92 392.256 4546.92 392.774C4544.95 392.774 4542.98 392.774 4540.94 392.774C4540.94 392.975 4540.94 393.177 4540.94 393.384C4538.97 393.384 4536.14 393.384 4534.1 393.384C4534.1 388.774 4534.03 379.825 4534.1 375.215C4534.1 373.396 4534.1 373.219 4530.97 373.219V365.331C4527.55 363.427 4522.51 363.427 4519.08 365.331V373.219C4517.71 373.219 4516.82 373.096 4516.82 375.215C4516.82 376.731 4516.76 377.93 4516.82 379.097C4516.82 379.097 4516.92 384.556 4517.01 387.286C4514.02 387.286 4514.02 388.222 4514.02 390.945C4511.03 390.945 4511.03 390.807 4511.03 392.469H4494.84C4494.78 388.216 4495.03 371.43 4489.09 371.43C4487.78 371.43 4486.46 371.43 4485.1 371.43C4485.1 371.43 4481.32 364.622 4468.15 364.622C4468.15 364.622 4468.15 360.385 4468.15 355.574C4468.15 355.574 4463.22 342.368 4459.18 338.499C4457.53 338.499 4455.89 338.499 4454.19 338.499V358.013C4444.28 358.013 4430.38 358.013 4420.47 358.013C4420.54 356.936 4420.39 355.857 4420.47 354.78L4418.3 351.61C4418.3 351.61 4417.16 349.94 4416.68 349.095C4416.54 348.867 4416.41 348.64 4416.27 348.406C4415.95 347.848 4415.45 346.985 4415.13 346.426H4412.32C4412.32 346.225 4412.32 346.024 4412.32 345.817C4411.33 345.817 4410.34 345.817 4409.32 345.817C4409.32 346.018 4409.32 346.219 4409.32 346.426C4408.67 346.426 4408.01 346.426 4407.33 346.426C4407.33 345.42 4407.33 343.682 4407.33 343.682H4405.34C4405.34 343.682 4405.15 348.053 4404.86 350.217C4404.86 350.217 4399.56 350.217 4393.15 350.217V326.066C4393.15 322.464 4377.42 322.252 4377.42 326.066V350.217H4374.43V323.391C4374.43 318.416 4356.36 317.803 4356.36 323.391V350.086C4337.24 350.086 4338.53 355.269 4338.53 355.269C4338.2 356.171 4337.86 357.073 4337.53 357.975C4337.44 358.232 4337.34 358.489 4337.24 358.753C4337.16 358.999 4337.07 359.244 4336.97 359.497C4336.89 359.724 4336.81 359.951 4336.72 360.185C4336.54 360.758 4336.54 360.758 4336.54 361.368C4333.9 361.368 4331.27 361.368 4328.56 361.368C4328.56 352.933 4334.28 348.518 4325.45 345.817V326.857C4325.45 323.312 4308.15 323.109 4308.1 327.83C4308.1 327.83 4307.92 339.825 4307.9 345.817H4303.63C4303.63 345.817 4303.75 337.521 4303.75 333.48C4303.71 333.277 4301.79 332.207 4301.74 331.997V324.472C4301.74 321.405 4290.17 321.193 4290.17 324.207C4290.17 324.207 4290.71 351.724 4290.17 359.497L4267.76 359.807C4267.7 359.497 4269.04 348.37 4268.97 348.054C4268.84 347.378 4268.72 346.702 4268.61 346.026C4268.52 345.558 4268.44 345.09 4268.35 344.622C4267.89 342.064 4267.59 339.516 4267.7 336.953C4267.79 334.516 4267.59 332.083 4267.37 329.647C4267.32 329.161 4267.28 328.675 4267.24 328.189C4267.18 327.503 4266.22 326.751 4266.16 326.066V302.974C4266.16 292.593 4263.72 302.762 4263.72 292.593C4263.72 283.696 4261.97 292.381 4261.97 283.696C4258.13 283.696 4263.37 278.611 4258.13 279.04C4257.15 279.12 4254.61 279.04 4253.6 279.04C4248.02 279.04 4253.36 283.696 4249.41 283.696C4249.41 293.017 4247.79 283.696 4247.79 292.593C4247.79 302.832 4245.57 292.735 4245.57 302.974V313.143C4244.92 313.143 4245.48 315.325 4244.8 315.325C4244.82 315.847 4244.82 315.847 4244.84 316.38C4244.9 319.219 4244.75 322.046 4244.34 324.882C4243.64 329.991 4243.47 335.102 4243.27 340.214C4243.22 341.504 4243.17 342.795 4243.11 344.085C4243.01 346.593 4242.91 349.102 4242.81 351.61C4242.15 351.61 4241.49 351.61 4240.81 351.61C4240.81 347.485 4240.81 343.359 4240.81 339.108C4240.16 339.008 4239.5 338.907 4238.82 338.804C4237.84 339.701 4237.67 340.313 4237.62 341.25C4237.6 341.561 4237.58 341.872 4237.56 342.193C4237.54 342.528 4237.52 342.864 4237.51 343.209C4237.49 343.553 4237.47 343.897 4237.44 344.251C4237.38 345.351 4237.32 346.451 4237.26 347.551C4237.22 348.296 4237.18 349.041 4237.13 349.786C4237.02 351.614 4236.92 353.441 4236.83 355.269C4235.84 355.269 4234.85 355.269 4233.83 355.269C4233.51 355.772 4233.18 356.275 4232.84 356.794C4232.71 356.408 4232.57 356.023 4232.44 355.625C4232.26 355.119 4232.08 354.613 4231.9 354.107C4231.82 353.853 4231.73 353.598 4231.64 353.337C4231.55 353.092 4231.47 352.847 4231.38 352.595C4231.26 352.257 4231.26 352.257 4231.14 351.913C4230.84 351.305 4230.84 351.305 4229.85 350.39C4230.83 350.39 4231.82 350.39 4232.84 350.39C4232.18 349.887 4231.52 349.384 4230.84 348.866C4230.19 348.866 4229.53 348.866 4228.85 348.866C4228.85 345.243 4228.85 341.621 4228.85 337.889C4229.84 337.889 4230.82 337.889 4231.84 337.889C4231.84 337.486 4231.84 337.084 4231.84 336.669C4229.87 336.568 4227.89 336.468 4225.86 336.364C4225.86 334.754 4225.86 333.144 4225.86 331.485C4227.5 331.385 4229.15 331.284 4230.84 331.181C4230.84 330.879 4230.84 330.577 4230.84 330.266C4228.87 330.266 4226.89 330.266 4224.86 330.266C4224.86 329.763 4224.86 329.26 4224.86 328.741C4222.56 328.741 4220.25 328.741 4217.88 328.741C4217.88 329.144 4217.88 329.546 4217.88 329.961C4216.56 329.961 4215.25 329.961 4213.89 329.961C4213.96 329.665 4214.04 329.37 4214.11 329.065C4215.94 321.165 4215.94 321.165 4213.89 319.289C4213.23 319.289 4212.58 319.289 4211.9 319.289C4211.9 325.326 4211.9 331.364 4211.9 337.584C4210.91 337.483 4209.92 337.383 4208.91 337.279C4208.97 336.807 4208.97 336.807 4209.03 336.326C4208.91 335.145 4208.91 335.145 4207.85 334.249C4206.85 333.25 4207.21 332.636 4207.74 331.624C4208.12 329.943 4206.83 328.259 4205.92 326.607C4205.74 326.258 4205.56 325.91 4205.37 325.55C4204.09 323.102 4204.09 323.102 4202.92 322.033C4202.27 322.033 4199.15 322.948 4198.47 322.948C4198.47 322.948 4199.17 284.864 4194.29 285.138C4194.16 278.867 4194.29 263.735 4187.66 263.735C4187.66 259.012 4187.66 244.344 4187.66 244.344L4183.82 241.961L4180.12 244.344ZM4191.96 329.961C4192.01 330.857 4192.05 331.752 4192.08 332.648C4192.1 332.902 4192.11 333.156 4192.13 333.418C4192.14 333.663 4192.14 333.907 4192.15 334.159C4192.16 334.385 4192.17 334.61 4192.18 334.842C4192.07 335.547 4192.07 335.547 4189.96 336.364C4189.63 334.955 4189.3 333.547 4188.97 332.095C4189.62 332.095 4190.28 332.095 4190.96 332.095C4190.96 331.391 4190.96 330.687 4190.96 329.961C4191.29 329.961 4191.62 329.961 4191.96 329.961ZM4189.96 339.718C4190.79 341.255 4191.07 342.71 4191.02 344.273C4191.02 344.482 4191.01 344.69 4191.01 344.905C4191 345.412 4190.98 345.919 4190.96 346.426C4190.3 346.426 4189.64 346.426 4188.97 346.426C4188.97 344.213 4188.97 341.999 4188.97 339.718C4189.29 339.718 4189.62 339.718 4189.96 339.718ZM3934.7 368.381C3934.7 370.393 3934.7 372.406 3934.7 374.479C3934.05 374.479 3933.39 374.479 3932.71 374.479C3932.71 372.467 3932.71 370.454 3932.71 368.381C3933.37 368.381 3934.03 368.381 3934.7 368.381Z" fill="#BCABD3"/>
<path d="M2157 402H4674V1602L-11 1506L1833 626L2157 402Z" fill="#D5C4EC"/>
</svg>
