<svg width="4682" height="1734" viewBox="0 0 4682 1734" fill="none" xmlns="http://www.w3.org/2000/svg">
<path d="M1770.38 494.436L1770.1 566.333L1769.6 696.15L1770.38 1771L-45.3319 1771L-45.3319 659.31L69.821 659.31C67.1281 613.87 64.3834 556.622 64.3835 512.042C64.3837 369.283 305.844 402.769 305.844 512.042C305.844 526.495 323.466 512.042 323.466 512.042L323.466 414.003C323.464 153.158 1086.62 136.412 1086.61 393.731C1086.61 393.731 1114.59 416.964 1160.64 393.731C1160.64 260.01 1208.23 143.703 1322.79 143.687L1322.79 85.9661L1322.79 85.4718C1322.84 73.0012 1322.86 66.1163 1330.98 66.1189L1330.97 36.1615C1338.27 29.799 1360.11 30.2354 1364.8 36.1724L1364.68 66.1298C1373.44 66.1327 1372.71 79.3223 1373.45 85.9824L1373.44 143.703C1518.42 143.703 1552.51 288.209 1552.51 393.731C1579.72 393.428 1624.67 404.339 1629.74 414.003L1634.15 447.972C1657.81 443.271 1686.39 462.155 1697.72 472.184L1713.63 472.246L1713.95 390.363C1723.07 384.008 1737.45 387.792 1743.5 390.478L1743.19 472.361L1770.38 494.436Z" fill="#927AB0"/>
<path d="M1348.65 0.926758C1348.65 0.926758 1371.29 21.6659 1360.32 29.1262L1348.99 27.9982L1336.3 29.1262C1325.32 21.6659 1348.65 0.926758 1348.65 0.926758Z" fill="#9378B1"/>
<path d="M1730.03 356.944C1730.03 356.944 1752.67 377.683 1741.7 385.144L1730.37 384.016L1717.67 385.144C1706.7 377.683 1730.03 356.944 1730.03 356.944Z" fill="#927AB0"/>
</svg>
