<svg width="4682" height="1386" viewBox="0 0 4682 1386" fill="none" xmlns="http://www.w3.org/2000/svg">
<path d="M1879.57 524.209C1891.66 521.413 1919.05 517.32 1971.34 524.209L1954.78 553.699C1954.78 553.699 1957.85 642.323 1971.34 686.358C1975.16 698.806 1975.31 715.866 1971.34 737.129C1962.91 782.341 1994.69 845.401 1991.58 857.914C1976.03 920.445 2039.99 1006.47 2013.5 1099.08C1987.02 1191.69 780.312 1076.12 780.312 1076.12L792.118 442.004C816.253 437.411 1320.44 432.352 1344.57 432.352C1368.71 432.352 1453.18 441.537 1461.23 451.872C1469.27 462.206 1525.59 453.02 1561.79 457.613C1624.1 465.518 1837.81 533.872 1879.57 524.209Z" fill="#3E3055"/>
<rect x="1597.21" y="315.438" width="298.188" height="299.782" fill="#3E3055"/>
<rect x="1597.21" y="338.941" width="296.976" height="4.4059" fill="#8B66BB"/>
<rect x="1597.21" y="331.011" width="296.976" height="4.40617" fill="#8B66BB"/>
<path d="M1595.22 322.198H1597.21V324.191H1895.07V322.198H1897.06C1897.06 252.96 1840.94 196.832 1771.7 196.832H1720.59C1651.35 196.832 1595.22 252.96 1595.22 322.198Z" fill="#3E3055" stroke="#7A5CA0" stroke-width="3.98646"/>
<path d="M1754.59 147.714C1754.59 147.714 1791.88 183.482 1773.81 196.349L1755.15 194.403L1734.24 196.349C1716.16 183.482 1754.59 147.714 1754.59 147.714Z" fill="#523D67"/>
<rect x="1597.21" y="322.198" width="297.857" height="4.40617" fill="#8B66BB"/>
<rect x="675.445" y="289.881" width="298.188" height="299.782" fill="#3E3055"/>
<rect x="675.445" y="313.385" width="296.976" height="4.4059" fill="#8B66BB"/>
<rect x="675.445" y="305.454" width="296.976" height="4.40617" fill="#8B66BB"/>
<path d="M673.452 296.641H675.445V298.634H973.302V296.641H975.295C975.295 227.404 919.167 171.275 849.93 171.275H798.818C729.58 171.275 673.452 227.404 673.452 296.641Z" fill="#3E3055" stroke="#7A5CA0" stroke-width="3.98646"/>
<path d="M832.818 122.157C832.818 122.157 870.114 157.925 852.036 170.792L833.383 168.847L812.469 170.792C794.391 157.925 832.818 122.157 832.818 122.157Z" fill="#523D67"/>
<rect x="675.445" y="296.642" width="297.857" height="4.40617" fill="#8B66BB"/>
<rect x="377.586" y="388.58" width="298.188" height="299.782" fill="#3E3055"/>
<rect x="377.586" y="412.083" width="296.976" height="4.40617" fill="#8B66BB"/>
<rect x="377.586" y="404.152" width="296.976" height="4.4059" fill="#8B66BB"/>
<path d="M375.593 395.339H377.586V397.332H675.443V395.339H677.436C677.436 326.102 621.308 269.974 552.07 269.974H500.958C431.721 269.974 375.593 326.102 375.593 395.339Z" fill="#3E3055" stroke="#7A5CA0" stroke-width="3.98646"/>
<path d="M534.959 220.855C534.959 220.855 572.254 256.624 554.177 269.49L535.523 267.545L514.609 269.49C496.532 256.624 534.959 220.855 534.959 220.855Z" fill="#523D67"/>
<rect x="377.586" y="395.34" width="297.857" height="4.40617" fill="#8B66BB"/>
<rect x="1018.25" y="395.34" width="318.125" height="4.40617" fill="#8B66BB"/>
<rect x="1018.25" y="343.348" width="321.65" height="335.75" fill="#3E3055"/>
<rect x="1021.77" y="405.034" width="318.125" height="4.4059" fill="#8B66BB"/>
<rect x="1021.77" y="396.221" width="318.125" height="4.40617" fill="#8B66BB"/>
<rect x="1021.77" y="386.528" width="318.125" height="4.40617" fill="#8B66BB"/>
<path d="M1180.94 190.013C1180.94 190.013 1220.9 229.547 1201.53 243.768L1181.55 241.618L1159.14 243.768C1139.77 229.547 1180.94 190.013 1180.94 190.013Z" fill="#523D67"/>
<path d="M1016.04 386.528H1018.25V388.731H1339.9V386.528H1342.1C1342.1 309.874 1279.96 247.733 1203.31 247.733H1154.84C1078.18 247.733 1016.04 309.874 1016.04 386.528Z" fill="#3E3055" stroke="#7A5CA0" stroke-width="4.40617"/>
<path d="M1355.87 241.082H1574.28V820.977C1574.28 820.977 1518.17 795.635 1465.65 784.733C1423.71 776.027 1355.87 784.733 1355.87 784.733V241.082Z" fill="#3E3055"/>
<path d="M1355.75 267.131C1355.75 212.142 1400.33 167.462 1455.32 167.462H1478.18C1533.17 167.462 1577.74 212.142 1577.74 267.131V267.131H1355.75V267.131Z" fill="#3E3055"/>
<rect x="1355.75" y="267.132" width="218.593" height="5.66303" fill="#A082BD"/>
<path d="M1355.75 279.59H1574.35V284.12H1355.75V279.59Z" fill="#A082BD"/>
<path d="M1355.75 290.916H1574.35V295.446H1355.75V290.916Z" fill="#A082BD"/>
<path d="M1469.84 122.158C1469.84 122.158 1508.36 154.644 1489.69 166.33L1470.43 164.563L1448.83 166.33C1430.16 154.644 1469.84 122.158 1469.84 122.158Z" fill="#3E3055"/>
<path d="M159.902 149.356H378.311V729.251C378.311 729.251 322.206 703.91 269.685 693.008C227.742 684.301 159.902 693.008 159.902 693.008V149.356Z" fill="#3E3055"/>
<path d="M159.789 175.406C159.789 120.417 204.367 75.7363 259.356 75.7363H282.213C337.202 75.7363 381.78 120.417 381.78 175.406V175.406H159.789V175.406Z" fill="#3E3055"/>
<rect x="159.789" y="175.406" width="218.593" height="5.66303" fill="#A082BD"/>
<path d="M159.789 187.864H378.382V192.395H159.789V187.864Z" fill="#A082BD"/>
<path d="M159.789 199.19H378.382V203.721H159.789V199.19Z" fill="#A082BD"/>
<path d="M273.878 30.4326C273.878 30.4326 312.397 62.9184 293.726 74.6043L274.461 72.8374L252.862 74.6043C234.191 62.9184 273.878 30.4326 273.878 30.4326Z" fill="#3E3055"/>
<path d="M1829.07 468.481H1999V919.673C1999 919.673 1955.35 899.956 1914.48 891.473C1881.85 884.699 1829.07 891.473 1829.07 891.473V468.481Z" fill="#3E3055"/>
<path d="M1828.98 473.769C1828.98 430.984 1863.66 396.221 1906.45 396.221H1921.59C1964.37 396.221 1999.05 430.984 1999.05 473.769V473.769H1828.98V473.769Z" fill="#3E3055"/>
<rect x="1828.98" y="462.312" width="170.078" height="4.40617" fill="#A082BD"/>
<path d="M1828.98 472.007H1999.05V475.532H1828.98V472.007Z" fill="#A082BD"/>
<path d="M1828.98 480.819H1999.05V484.344H1828.98V480.819Z" fill="#A082BD"/>
<path d="M1915.31 362.733C1915.31 362.733 1945.28 388.009 1930.75 397.102L1915.76 395.727L1898.96 397.102C1884.43 388.009 1915.31 362.733 1915.31 362.733Z" fill="#3E3055"/>
<path d="M1994.09 670.467C1998.14 680.399 2004.9 696.185 2004.9 696.185C2004.9 696.185 2045.28 898.334 2046.5 1029.51C2047.82 1172.11 2079.31 1171.68 2067.79 1280.87C2057.29 1380.35 2084.17 1569.12 2084.17 1569.12L-3.98828 1596.46V371.844L27.7361 315.148L158.159 334.047V315.148L213.835 353.892L230.213 455.433L289.172 519.251L320.306 579.726L444.56 560.828L493.027 519.251L525.633 560.828H708.93L771.497 621.303H813.796V538.15L838.471 560.828H990.043L1035.87 579.726H1127.52L1216.52 624.377L1359.28 669.554C1359.28 669.554 1382.19 1209.74 1502.04 1029.51C1591.93 955.948 1593.69 728.447 1593.69 753.121C1593.69 798.453 1621.56 848.97 1639.51 890.594C1678.29 980.48 1744.94 976.455 1776.1 810.287C1776.1 810.287 1780.51 755.383 1801.66 862.394C1822.81 969.406 1866.34 1056.49 1893.31 1084.47C1920.27 1112.44 1990.03 1037.38 1994.09 923.835V670.467C1990.91 662.675 1989.39 658.486 1994.09 668.343V670.467Z" fill="url(#paint0_linear_255_32415)"/>
<path d="M2244.54 831.948L1967.17 814.194L1942.66 947.419C2064.02 871.71 2212.15 811.193 2326.99 1002.09L2312.02 877.063L2307.25 837.273L2244.54 831.948Z" fill="#3E3055"/>
<rect x="2299.21" y="545.258" width="197.929" height="656.229" fill="#3E3055"/>
<rect width="58.9597" height="506.889" transform="matrix(-1 0 0 1 2348.67 544.691)" fill="#3E3055"/>
<rect x="2327.59" y="280.095" width="134.6" height="219.61" fill="#3E3055"/>
<rect x="2348.84" y="97.3232" width="90.6776" height="165.77" fill="#3E3055"/>
<path d="M2286.5 545.044H2289.34V547.878H2497.61V545.044H2500.45C2500.45 490.269 2456.04 445.866 2401.27 445.866H2385.68C2330.91 445.866 2286.5 490.269 2286.5 545.044Z" fill="#3E3055" stroke="#9F85BF" stroke-width="5.66736"/>
<path d="M2324.05 280.095H2326.17V282.22H2463.61V280.095H2465.73C2465.73 243.708 2436.23 214.212 2399.85 214.212H2389.93C2353.54 214.212 2324.05 243.708 2324.05 280.095Z" fill="#3E3055" stroke="#9F88BC" stroke-width="4.25052"/>
<rect x="2327.59" y="280.069" width="134.6" height="4.25076" fill="#3E3055"/>
<path d="M2347.42 97.3226C2347.42 73.8476 2366.45 54.8174 2389.93 54.8174H2398.43C2421.9 54.8174 2440.93 73.8476 2440.93 97.3226V97.3226H2347.42V97.3226Z" fill="#3E3055"/>
<path d="M2498.67 882.923C2528.19 888.022 2583.4 1421.07 2582.27 1432.02C2582.27 1432.02 2619.11 1549.46 2624.25 1572.46C2624.25 1572.46 2503.43 1574.5 2482.2 1578.58C2440.32 1586.63 2427.07 1575.38 2380.31 1572.46C2349.33 1570.53 2343.83 1579.7 2315.21 1575.01C2299.57 1572.45 2246.86 1569.86 2238.79 1566.24C2238.61 1566.11 2238.42 1566.03 2238.22 1565.99C2234.27 1567.04 2219.31 1608.86 2219.31 1608.86C2214.1 1596.81 2239.51 1304.25 2250.71 1286.76C2250.71 1286.76 2261.94 1049.16 2291.8 1027.15C2291.8 1027.15 2369.07 1222.31 2380.31 1188.96C2391.55 1155.61 2468.13 1133.95 2482.2 1075.26C2498.67 1006.55 2498.67 882.923 2498.67 882.923Z" fill="url(#paint1_linear_255_32415)"/>
<rect x="2289.34" y="563.438" width="208.275" height="5.66736" fill="#A082BD"/>
<path d="M2289.34 554.229H2497.61V559.896H2289.34V554.229Z" fill="#A082BD"/>
<rect x="2327.59" y="297.071" width="134.6" height="4.25052" fill="#D5BCEE" fill-opacity="0.7"/>
<rect x="2327.59" y="288.571" width="134.6" height="4.25076" fill="#D5BCEE" fill-opacity="0.7"/>
<rect x="2353.09" y="105.798" width="82.1767" height="2.47947" fill="#A082BD"/>
<rect x="2353.09" y="101.548" width="82.1767" height="2.47947" fill="#A082BD"/>
<path d="M2395.46 0.952148C2395.46 0.952148 2437.22 39.5064 2416.98 53.3752L2396.09 51.2783L2372.68 53.3752C2352.43 39.5064 2395.46 0.952148 2395.46 0.952148Z" fill="#3E3055"/>
<path d="M1320.09 969.592C1323.88 974.675 1330.96 986.625 1328.95 993.759C1324.01 1011.33 1346.31 1031.25 1360 1042.43L1348.31 1104.82C1350.28 1128.52 1351.42 1182.86 1340.19 1210.61C1328.96 1238.36 1323.68 1285.27 1322.45 1305.25C1337.79 1361.8 1298.53 1432.84 1305.21 1437.4C1310.55 1441.06 1308.22 1500.22 1306.38 1529.34C1290.14 1569.85 1256.87 1655.06 1253.71 1671.88C1249.77 1692.91 1237.95 1809.53 1243.57 1815.31C1248.06 1819.93 1237.59 1906.72 1231.79 1949.54C1228.1 2030.26 1219.76 2195 1215.95 2208.15C1212.15 2221.29 1215.6 2308.27 1217.8 2350.11L1068.95 2313.65C1075.61 2196.25 1093.34 1940.69 1110.92 1857.6C1128.51 1774.51 1127.29 1614.03 1124.48 1544.18C1119.04 1534.53 1109.96 1513.63 1117.19 1507.19C1126.23 1499.14 1128.87 1440.4 1123.26 1434.63C1118.77 1430.01 1130.36 1364.02 1136.72 1331.61C1136.72 1331.61 1125.57 1264.04 1130.95 1219.48C1135.12 1184.99 1152.85 1133.92 1152.85 1133.92C1173.96 1100.71 1159 1071.55 1188.37 1056.1C1174.85 1034.46 1212.12 1018.66 1214.5 1010.45C1216.4 1003.88 1241.84 1000.04 1254.32 998.941L1261.74 981.694L1320.09 969.592Z" fill="url(#paint2_linear_255_32415)"/>
<path d="M1292.16 616.53C1306.86 616.531 1343.27 628.868 1343.27 628.868C1343.27 628.868 1319.33 635.759 1302.73 662.354C1230.13 778.677 1249.86 912.625 1376.75 1504.81C1387.2 1553.57 1249.85 1490.71 1249.85 1490.71C1249.85 1490.71 1272.77 1053.62 1260.43 1027.19C1260.43 1027.19 1258.67 1103.09 1225.18 1601.87C1223.52 1626.6 1124.44 1552.74 1124.44 1552.74C1124.44 1323.62 1108.87 1150.56 1225.18 1000.75C1230.85 956.643 1207.99 616.528 1292.16 616.53Z" fill="url(#paint3_linear_255_32415)"/>
<path d="M1370.34 938.42C1373.4 943.274 1379.08 954.77 1377.25 961.925C1372.75 979.55 1391 998.22 1402.23 1008.64L1391.15 1070.94C1392.31 1094.31 1392.14 1148.04 1382.17 1176.03C1372.2 1204.03 1366.81 1250.7 1365.37 1270.54C1377.04 1325.79 1376.68 1395.4 1382.17 1399.61C1386.56 1402.97 1399.26 1518.91 1397.12 1547.83C1382.69 1588.68 1303.25 1619.85 1300.26 1636.65C1296.53 1657.65 1284.23 1773.63 1288.8 1779.09C1292.47 1783.45 1281.91 1869.84 1276.18 1912.5C1271.41 1992.57 1261.03 2156.02 1257.57 2169.21C1254.12 2182.4 1255.2 2268.32 1256.18 2309.63L1132.38 2280.53C1140.38 2164.02 1160.5 1910.24 1176.94 1827.18C1193.37 1744.11 1195.67 1585.32 1194.77 1516.31C1190.41 1507.02 1183.24 1486.77 1189.43 1480.05C1197.16 1471.66 1200.59 1413.39 1196.01 1407.94C1192.35 1403.58 1203.41 1337.73 1209.4 1305.34C1209.4 1305.34 1201.47 1239 1206.9 1194.63C1211.1 1160.3 1226.99 1108.92 1226.99 1108.92C1245.34 1075.06 1233.43 1046.89 1258.32 1030.23C1247.46 1009.45 1278.98 992.06 1281.14 983.816C1282.86 977.221 1304.23 972.228 1314.7 970.556L1324.03 938.42L1370.34 938.42Z" fill="url(#paint4_linear_255_32415)"/>
<path d="M777.14 577.447C789.677 577.447 794.424 611.391 794.424 611.391C794.424 611.391 769.789 590.035 757.527 619.842C628.834 932.68 722.156 1598.6 722.156 1598.6H493.074C517.616 1315.71 571.228 577.447 722.156 577.447L739.736 577.447C748.305 577.447 755.804 577.447 777.14 577.447Z" fill="url(#paint5_linear_255_32415)"/>
<path d="M827.974 604.124C831.04 608.977 836.715 620.473 834.888 627.628C830.388 645.253 848.635 663.923 859.865 674.34L848.786 736.642C849.947 760.009 849.777 813.742 839.806 841.737C829.836 869.731 824.449 916.404 823.002 936.241C834.672 991.493 800.347 1063.65 805.839 1067.85C810.233 1071.22 807.059 1129.89 804.923 1158.8C790.493 1199.65 760.888 1285.55 757.901 1302.36C754.166 1323.36 741.863 1439.34 746.441 1444.79C750.103 1449.15 739.549 1535.55 733.813 1578.2C729.051 1658.27 718.663 1821.72 715.208 1834.91C711.753 1848.1 712.839 1934.02 713.814 1975.34L590.016 1946.23C598.021 1829.73 618.139 1575.95 634.574 1492.88C651.009 1409.81 653.31 1251.03 652.406 1182.02C648.049 1172.73 640.88 1152.47 647.066 1145.76C654.799 1137.36 658.226 1079.1 653.648 1073.65C649.986 1069.28 661.05 1003.43 667.039 971.046C667.039 971.046 659.108 904.698 664.536 860.335C668.736 826.008 684.63 774.627 684.63 774.627C702.98 740.763 691.067 712.598 715.959 695.935C705.094 675.149 736.615 657.763 738.774 649.519C740.501 642.924 761.867 637.931 772.335 636.259L781.667 604.124L827.974 604.124Z" fill="url(#paint6_linear_255_32415)"/>
<defs>
<linearGradient id="paint0_linear_255_32415" x1="1123.99" y1="670.334" x2="1185.91" y2="1596.8" gradientUnits="userSpaceOnUse">
<stop stop-color="#7E6899"/>
<stop offset="0.162024" stop-color="#806292"/>
<stop offset="1" stop-color="#5D436C"/>
</linearGradient>
<linearGradient id="paint1_linear_255_32415" x1="2405.19" y1="882.923" x2="2405.19" y2="1581.43" gradientUnits="userSpaceOnUse">
<stop stop-color="#886C9E"/>
<stop offset="1" stop-color="#58426D"/>
</linearGradient>
<linearGradient id="paint2_linear_255_32415" x1="1343.6" y1="932.344" x2="1282.57" y2="1462.26" gradientUnits="userSpaceOnUse">
<stop stop-color="#715C8B"/>
<stop offset="1" stop-color="#5D4872"/>
</linearGradient>
<linearGradient id="paint3_linear_255_32415" x1="1355.06" y1="679.631" x2="1357" y2="1539.64" gradientUnits="userSpaceOnUse">
<stop stop-color="#B195CE"/>
<stop offset="1" stop-color="#BDAECF" stop-opacity="0.7"/>
</linearGradient>
<linearGradient id="paint4_linear_255_32415" x1="1366.82" y1="954.953" x2="1282.73" y2="1555.44" gradientUnits="userSpaceOnUse">
<stop stop-color="#765C8B"/>
<stop offset="0.710632" stop-color="#674C77"/>
<stop offset="1" stop-color="#5A456F"/>
</linearGradient>
<linearGradient id="paint5_linear_255_32415" x1="746.613" y1="643.077" x2="744.983" y2="1290.27" gradientUnits="userSpaceOnUse">
<stop stop-color="#AE95CE"/>
<stop offset="1" stop-color="#BFAECF" stop-opacity="0.7"/>
</linearGradient>
<linearGradient id="paint6_linear_255_32415" x1="841.919" y1="637.226" x2="727.076" y2="1654.1" gradientUnits="userSpaceOnUse">
<stop stop-color="#82699A"/>
<stop offset="1" stop-color="#6A4873"/>
</linearGradient>
</defs>
</svg>
