<svg width="4682" height="4384" viewBox="0 0 4682 4384" fill="none" xmlns="http://www.w3.org/2000/svg">
<path d="M323 3561L1173 3297L2001 3561V4429H323H-43L-15 3593L139 3608L121 3669H323V3561Z" fill="#796098"/>
<path d="M455.137 3341.35C455.136 3158.93 1072 3144.83 1072 3341.35C1072 3441.15 1072 3596.91 1072 3596.91H455.137C455.137 3596.91 455.137 3441.15 455.137 3341.35Z" fill="#796098"/>
<rect x="1673.26" y="3156.29" width="206.209" height="361.306" fill="#796098"/>
<rect x="1059.04" y="2918.35" width="192.99" height="448.548" fill="#796098"/>
<rect x="1196.51" y="3202.99" width="83.7172" height="254.676" fill="#796098"/>
<path d="M1058.93 2919.2C1058.93 2876.41 1093.61 2841.73 1136.39 2841.73H1174.71C1217.5 2841.73 1252.18 2876.41 1252.18 2919.2V2930.17H1058.93V2919.2Z" fill="#796098"/>
<path d="M1157.74 2803.24C1157.74 2803.24 1180.39 2828.52 1169.41 2837.61L1158.09 2836.23L1145.39 2837.61C1134.41 2828.52 1157.74 2803.24 1157.74 2803.24Z" fill="#796098"/>
<path d="M615.643 3120.15C615.643 3120.15 638.286 3145.42 627.311 3154.52L615.985 3153.14L603.288 3154.52C592.312 3145.42 615.643 3120.15 615.643 3120.15Z" fill="#796098"/>
<rect x="1692.39" y="3021.46" width="83.5878" height="250.272" fill="#796098"/>
<path d="M1692.39 3017.28C1692.39 2994.33 1710.99 2975.73 1733.94 2975.73V2975.73C1756.89 2975.73 1775.49 2994.33 1775.49 3017.28V3021.95H1692.39V3017.28Z" fill="#796098"/>
<path d="M1734.45 2929.81C1734.45 2929.81 1761.5 2956.14 1748.39 2965.6L1734.86 2964.17L1719.69 2965.6C1706.58 2956.14 1734.45 2929.81 1734.45 2929.81Z" fill="#796098"/>
<rect x="1871.28" y="3299.05" width="149.81" height="448.548" fill="#796098"/>
<path d="M1871.28 3291.56C1871.28 3250.43 1904.62 3217.09 1945.74 3217.09V3217.09C1986.87 3217.09 2020.21 3250.43 2020.21 3291.56V3299.93H1871.28V3291.56Z" fill="#796098"/>
<path d="M1947.86 3177.44C1947.86 3177.44 1973.83 3202.71 1961.24 3211.81L1948.25 3210.43L1933.69 3211.81C1921.1 3202.71 1947.86 3177.44 1947.86 3177.44Z" fill="#796098"/>
<rect x="1729.4" y="3187.27" width="191.228" height="572.558" fill="#796098"/>
<path d="M1729.4 3177.71C1729.4 3125.21 1771.96 3082.65 1824.45 3082.65V3082.65C1876.95 3082.65 1919.51 3125.21 1919.51 3177.71V3188.39H1729.4V3177.71Z" fill="#796098"/>
<rect x="1244" y="3145.33" width="319.365" height="572.558" fill="#796098"/>
<path d="M1253 3152.08C1253 3093.74 1300.3 3046.45 1358.64 3046.45H1424.97C1483.31 3046.45 1530.61 3093.74 1530.61 3152.08V3152.08H1253V3152.08Z" fill="#796098"/>
<path d="M807.531 3294.57C807.531 3236.23 854.826 3188.93 913.167 3188.93H979.497C1037.84 3188.93 1085.13 3236.23 1085.13 3294.57V3294.57H807.531V3294.57Z" fill="#796098"/>
<path d="M475.883 3271.64C475.883 3213.3 523.178 3166 581.519 3166H647.848C706.19 3166 753.485 3213.3 753.485 3271.64V3271.64H475.883V3271.64Z" fill="#796098"/>
<rect x="603.113" y="3463.88" width="319.365" height="572.558" fill="#796098"/>
<path d="M612.121 3470.64C612.121 3412.29 659.416 3365 717.757 3365H784.087C842.428 3365 889.723 3412.29 889.723 3470.64V3470.64H612.121V3470.64Z" fill="#796098"/>
<path d="M113 3674.64C113 3616.29 160.295 3569 218.636 3569H284.966C343.307 3569 390.602 3616.29 390.602 3674.64V3674.64H113V3674.64Z" fill="#796098"/>
<path d="M-139 3616.64C-139 3558.29 -91.7051 3511 -33.364 3511H32.9657C91.3068 3511 138.602 3558.29 138.602 3616.64V3616.64H-139V3616.64Z" fill="#796098"/>
<rect x="1517.91" y="3194.43" width="186.821" height="369.141" fill="#796098"/>
<path d="M1517.91 3192.99C1517.91 3141.57 1559.9 3099.89 1611.32 3099.89V3099.89C1662.74 3099.89 1704.73 3141.57 1704.73 3192.99V3195.55H1517.91V3192.99Z" fill="#796098"/>
<rect x="322.75" y="3199.94" width="186.821" height="369.141" fill="#796098"/>
<path d="M322.75 3198.51C322.75 3147.09 364.741 3105.41 416.161 3105.41V3105.41C467.581 3105.41 509.571 3147.09 509.571 3198.51V3201.07H322.75V3198.51Z" fill="#796098"/>
<path d="M2023.18 2776.59C2024.55 2776.59 2025.92 2776.58 2027.32 2776.58C2027.96 2776.81 2028.59 2777.05 2029.25 2777.29C2029.55 2777.25 2029.85 2777.22 2030.16 2777.18C2030.19 2777.49 2030.23 2777.79 2030.26 2778.1C2030.56 2778.07 2030.86 2778.03 2031.17 2778C2032.01 2778.67 2032.85 2779.34 2033.71 2780.03C2035.47 2780.8 2037.25 2781.52 2039.03 2782.22C2041.3 2783.18 2043.56 2784.16 2045.82 2785.16C2046.15 2785.43 2046.49 2785.7 2046.83 2785.98C2047.58 2785.89 2048.33 2785.8 2049.1 2785.71C2049.47 2786.29 2049.84 2786.86 2050.23 2787.45C2050.98 2787.36 2051.73 2787.28 2052.5 2787.19C2053.05 2788.05 2053.05 2788.05 2053.62 2788.92C2054.42 2789.25 2055.22 2789.58 2056.04 2789.92C2056.83 2790.18 2057.62 2790.43 2058.43 2790.7C2058.73 2790.66 2059.03 2790.63 2059.34 2790.59C2059.67 2790.86 2060.01 2791.13 2060.35 2791.41C2060.54 2791.69 2060.72 2791.98 2060.91 2792.27C2061.85 2792.47 2062.78 2792.67 2063.75 2792.88C2064.53 2793.1 2065.32 2793.31 2066.13 2793.54C2066.43 2793.5 2066.73 2793.47 2067.04 2793.43C2067.39 2793.85 2067.74 2794.27 2068.1 2794.71C2069.19 2794.89 2070.27 2795.07 2071.39 2795.26C2071.95 2796.12 2071.95 2796.12 2072.51 2796.99C2074.08 2797.3 2075.64 2797.59 2077.22 2797.85C2077.72 2798.25 2078.22 2798.66 2078.74 2799.07C2079.45 2799.39 2080.16 2799.71 2080.9 2800.05C2081.98 2800.47 2081.98 2800.47 2083.1 2800.9C2083.71 2800.98 2084.33 2801.06 2084.97 2801.15C2086.37 2801.45 2086.37 2801.45 2087.8 2801.75C2087.6 2801.31 2087.39 2800.88 2087.19 2800.43C2087.64 2800.37 2088.09 2800.32 2088.55 2800.27C2088.58 2800.57 2088.62 2800.88 2088.66 2801.19C2090.06 2801.49 2090.06 2801.49 2091.49 2801.79C2092.59 2801.44 2092.59 2801.44 2093.71 2801.07C2093.91 2801.51 2094.11 2801.95 2094.32 2802.4C2095.65 2802.38 2096.98 2802.36 2098.34 2802.34C2099.73 2802.2 2101.12 2802.06 2102.55 2801.91C2103.25 2801.37 2103.95 2800.83 2104.67 2800.27C2105.48 2800.12 2106.28 2799.97 2107.12 2799.81C2108.38 2799.75 2108.38 2799.75 2109.67 2799.69C2110.62 2800.04 2111.57 2800.39 2112.55 2800.76C2113.81 2801.76 2113.81 2801.76 2115.09 2802.79C2115.41 2802.91 2115.73 2803.03 2116.05 2803.15C2116.11 2803.6 2116.16 2804.06 2116.21 2804.53C2116.51 2804.49 2116.81 2804.46 2117.12 2804.42C2117.26 2805.64 2117.4 2806.85 2117.55 2808.1C2118.45 2808 2119.35 2807.9 2120.27 2807.79C2120.31 2808.09 2120.34 2808.4 2120.38 2808.71C2120.81 2808.51 2121.24 2808.3 2121.69 2808.09C2121.91 2808.68 2122.13 2809.27 2122.36 2809.88C2122.97 2809.96 2123.59 2810.04 2124.23 2810.13C2124.47 2810.87 2124.7 2811.61 2124.95 2812.38C2125.42 2812.48 2125.88 2812.58 2126.36 2812.68C2126.27 2813.15 2126.17 2813.62 2126.07 2814.11C2126.7 2814.35 2127.34 2814.58 2127.99 2814.82C2128.98 2815.48 2129.97 2816.13 2130.99 2816.81C2132.39 2817.11 2132.39 2817.11 2133.82 2817.41C2133.89 2818.02 2133.96 2818.63 2134.03 2819.25C2135.97 2819.97 2135.97 2819.97 2137.94 2820.69C2139.34 2821.14 2140.74 2821.58 2142.18 2822.04C2143.14 2822.39 2144.09 2822.74 2145.07 2823.1C2147.17 2823.55 2147.17 2823.55 2149.32 2824.01C2151.08 2824.57 2152.83 2825.15 2154.58 2825.73C2155.85 2826.12 2157.12 2826.52 2158.43 2826.92C2160.56 2827.59 2162.68 2828.27 2164.78 2829.01C2167.32 2830 2169.84 2831.03 2172.36 2832.07C2173.63 2832.54 2174.9 2833.01 2176.2 2833.49C2177.87 2833.4 2177.87 2833.4 2179.58 2833.3C2181.06 2833.03 2181.06 2833.03 2182.57 2832.75C2182.81 2832.26 2183.06 2831.77 2183.32 2831.27C2184.21 2831.17 2185.11 2831.06 2186.04 2830.95C2186.89 2830.39 2187.74 2829.84 2188.61 2829.26C2189.49 2829 2190.37 2828.75 2191.28 2828.48C2191.25 2828.18 2191.21 2827.88 2191.18 2827.56C2191.93 2827.48 2192.68 2827.39 2193.45 2827.3C2193.66 2826.51 2193.87 2825.71 2194.09 2824.9C2194.04 2824.44 2193.99 2823.98 2193.93 2823.52C2193.03 2822.56 2192.13 2821.61 2191.21 2820.63C2190.21 2819.64 2189.22 2818.66 2188.19 2817.65C2187.35 2816.98 2186.51 2816.31 2185.65 2815.62C2185.32 2815.35 2184.98 2815.08 2184.64 2814.8C2184.75 2814.48 2184.86 2814.16 2184.98 2813.83C2184.35 2813.59 2183.71 2813.36 2183.06 2813.12C2181.71 2812.2 2180.38 2811.26 2179.05 2810.32C2178.4 2809.93 2177.75 2809.55 2177.07 2809.15C2176.46 2809.07 2175.84 2808.98 2175.2 2808.9C2175.17 2808.59 2175.13 2808.29 2175.1 2807.98C2173.3 2806.92 2171.49 2805.89 2169.67 2804.88C2167.04 2803.32 2164.4 2801.76 2161.76 2800.2C2161.43 2799.44 2161.09 2798.68 2160.75 2797.89C2160.61 2797.17 2160.47 2796.45 2160.32 2795.7C2160.57 2795.21 2160.82 2794.72 2161.07 2794.22C2161.26 2794.5 2161.44 2794.79 2161.63 2795.08C2163.15 2794.45 2163.15 2794.45 2164.71 2793.8C2165.42 2794.03 2166.13 2794.27 2166.86 2794.51C2167.59 2794.88 2168.31 2795.24 2169.06 2795.62C2170.2 2796.26 2171.34 2796.9 2172.51 2797.55C2173.26 2797.47 2174.01 2797.38 2174.78 2797.29C2174.97 2797.58 2175.15 2797.86 2175.34 2798.16C2175.23 2798.48 2175.11 2798.8 2175 2799.13C2176.04 2799.01 2177.09 2798.89 2178.18 2798.76C2178.38 2799.2 2178.58 2799.64 2178.79 2800.09C2179.42 2800.38 2180.05 2800.68 2180.71 2800.98C2184.32 2802.37 2184.32 2802.37 2187.96 2803.69C2188.57 2803.78 2189.19 2803.86 2189.83 2803.94C2191.23 2804.24 2192.63 2804.54 2194.08 2804.85C2194.68 2804.78 2195.28 2804.71 2195.89 2804.64C2195.93 2804.95 2195.96 2805.25 2196 2805.56C2196.73 2805.72 2197.46 2805.87 2198.21 2806.03C2199.04 2806.16 2199.86 2806.29 2200.71 2806.42C2201.47 2806.48 2202.24 2806.55 2203.03 2806.61C2203.61 2806.39 2204.2 2806.17 2204.8 2805.94C2206.05 2806.26 2207.3 2806.58 2208.59 2806.9C2209.27 2807.23 2209.96 2807.55 2210.66 2807.89C2212.07 2808.64 2213.48 2809.39 2214.9 2810.14C2215.56 2810.45 2216.22 2810.75 2216.9 2811.07C2217.99 2811.25 2219.07 2811.44 2220.19 2811.62C2220.52 2811.89 2220.86 2812.16 2221.2 2812.44C2222.19 2813.09 2223.18 2813.75 2224.2 2814.42C2224.65 2814.37 2225.1 2814.32 2225.56 2814.27C2225.46 2814.74 2225.36 2815.21 2225.26 2815.7C2225.88 2815.78 2226.5 2815.86 2227.14 2815.95C2228.44 2816.72 2229.75 2817.49 2231.09 2818.29C2232.54 2818.9 2233.99 2819.51 2235.45 2820.12C2235.63 2820.4 2235.82 2820.69 2236.01 2820.98C2236.46 2820.93 2236.91 2820.88 2237.37 2820.83C2238.21 2821.5 2239.05 2822.17 2239.91 2822.86C2239.94 2823.17 2239.98 2823.47 2240.01 2823.78C2240.46 2823.73 2240.91 2823.68 2241.38 2823.62C2241.41 2823.93 2241.45 2824.23 2241.48 2824.55C2242.12 2824.78 2242.75 2825.01 2243.41 2825.25C2244.53 2825.74 2245.65 2826.23 2246.8 2826.73C2247.14 2827 2247.47 2827.27 2247.82 2827.54C2248.04 2828.13 2248.26 2828.72 2248.48 2829.33C2248.82 2829.6 2249.15 2829.87 2249.5 2830.14C2250.1 2830.08 2250.7 2830.01 2251.32 2829.93C2251.54 2830.52 2251.76 2831.11 2251.98 2831.72C2252.28 2831.69 2252.58 2831.65 2252.89 2831.62C2253.32 2832.65 2253.74 2833.67 2254.17 2834.73C2255.07 2834.63 2255.97 2834.52 2256.9 2834.42C2257.1 2834.86 2257.31 2835.29 2257.52 2835.74C2257.29 2836.39 2257.06 2837.03 2256.82 2837.69C2256.78 2837.39 2256.75 2837.08 2256.71 2836.77C2256.41 2836.8 2256.11 2836.84 2255.8 2836.87C2255.99 2837.16 2256.17 2837.45 2256.36 2837.74C2256.52 2839.11 2256.68 2840.48 2256.84 2841.88C2256.75 2842.36 2256.65 2842.83 2256.55 2843.32C2256.85 2843.28 2257.15 2843.25 2257.46 2843.21C2257.49 2843.51 2257.53 2843.82 2257.56 2844.13C2256.86 2844.45 2256.16 2844.77 2255.43 2845.11C2254.69 2845.41 2253.94 2845.72 2253.18 2846.04C2252.9 2846.22 2252.61 2846.41 2252.32 2846.6C2251.87 2846.65 2251.42 2846.7 2250.96 2846.76C2250.94 2846.61 2250.92 2846.45 2250.91 2846.3C2250.16 2846.33 2249.41 2846.36 2248.64 2846.39C2247.72 2846.4 2246.8 2846.41 2245.85 2846.42C2243.75 2845.97 2243.75 2845.97 2241.61 2845.51C2240.86 2845.47 2240.11 2845.43 2239.34 2845.38C2238.55 2845.3 2237.77 2845.21 2236.95 2845.11C2236.11 2844.81 2235.26 2844.51 2234.39 2844.19C2233.52 2843.81 2232.64 2843.43 2231.73 2843.04C2229.93 2842.27 2228.12 2841.51 2226.32 2840.75C2225.13 2840.31 2223.94 2839.87 2222.71 2839.42C2221.41 2839.05 2221.41 2839.05 2220.09 2838.67C2219.19 2838.78 2218.29 2838.88 2217.36 2838.99C2217.4 2839.29 2217.43 2839.59 2217.47 2839.91C2216 2841 2216 2841 2214.5 2842.12C2214.42 2842.74 2214.34 2843.36 2214.26 2844.01C2213.51 2844.09 2212.76 2844.18 2211.99 2844.27C2211.31 2844.96 2210.63 2845.66 2209.93 2846.37C2209.4 2847.05 2208.87 2847.73 2208.32 2848.42C2208.02 2848.46 2207.72 2848.49 2207.42 2848.53C2207.62 2848.97 2207.82 2849.4 2208.03 2849.86C2207.16 2850.26 2206.3 2850.67 2205.41 2851.09C2204.93 2852.22 2204.45 2853.36 2203.96 2854.52C2202.93 2854.8 2201.9 2855.07 2200.84 2855.35C2201.04 2855.79 2201.24 2856.23 2201.45 2856.68C2200.92 2857.35 2200.39 2858.03 2199.84 2858.73C2199 2859.29 2199 2859.29 2198.13 2859.86C2197.56 2860.85 2197.56 2860.85 2196.98 2861.86C2197.12 2863.07 2197.26 2864.28 2197.41 2865.54C2196.68 2865.77 2195.94 2866.01 2195.19 2866.26C2194.35 2866.37 2193.51 2866.49 2192.64 2866.61C2191.83 2866.69 2191.02 2866.76 2190.19 2866.84C2189.72 2866.74 2189.25 2866.64 2188.77 2866.53C2187.86 2866.62 2186.95 2866.71 2186.01 2866.79C2185.12 2866.92 2184.23 2867.04 2183.32 2867.16C2183.04 2867.35 2182.75 2867.54 2182.46 2867.73C2181.54 2867.81 2180.62 2867.88 2179.67 2867.96C2178.49 2868.13 2177.32 2868.29 2176.1 2868.46C2173.74 2869.34 2171.39 2870.23 2169.04 2871.15C2166.34 2872.07 2163.64 2872.98 2160.93 2873.88C2160.19 2874.13 2159.44 2874.38 2158.67 2874.63C2156.32 2875.41 2153.97 2876.2 2151.61 2876.98C2149.24 2877.77 2146.86 2878.55 2144.49 2879.34C2142.35 2880.06 2140.21 2880.77 2138.07 2881.48C2137.03 2881.83 2135.98 2882.19 2134.9 2882.55C2134.47 2882.75 2134.04 2882.96 2133.59 2883.17C2135.44 2884.67 2137.31 2886.17 2139.18 2887.65C2140.22 2888.76 2140.22 2888.76 2141.28 2889.88C2141.81 2890.54 2142.34 2891.2 2142.89 2891.88C2144.01 2893.62 2145.13 2895.35 2146.25 2897.09C2146.59 2897.36 2146.92 2897.63 2147.27 2897.9C2147.07 2898.85 2146.88 2899.79 2146.68 2900.77C2147.01 2901.04 2147.35 2901.31 2147.69 2901.58C2147.41 2901.77 2147.13 2901.96 2146.84 2902.15C2146.52 2902.03 2146.2 2901.91 2145.88 2901.79C2145.81 2902.57 2145.75 2903.35 2145.69 2904.15C2144.51 2904.59 2143.33 2905.04 2142.16 2905.49C2140.99 2905.46 2140.99 2905.46 2139.79 2905.44C2138.89 2905.34 2137.98 2905.24 2137.05 2905.14C2135.47 2904.71 2133.88 2904.28 2132.3 2903.83C2132.33 2904.13 2132.37 2904.44 2132.4 2904.75C2131.69 2905.14 2130.97 2905.53 2130.24 2905.93C2128.96 2905.53 2127.69 2905.13 2126.38 2904.72C2124.96 2904.2 2123.55 2903.68 2122.09 2903.15C2120.97 2902.86 2119.85 2902.58 2118.7 2902.28C2117.93 2902.02 2117.16 2901.75 2116.37 2901.48C2116.43 2900.7 2116.49 2899.92 2116.55 2899.12C2115.76 2898.69 2114.97 2898.25 2114.16 2897.8C2113.18 2897.36 2112.19 2896.93 2111.18 2896.48C2110.43 2896.08 2109.68 2895.67 2108.91 2895.26C2108.21 2894.91 2107.5 2894.55 2106.77 2894.19C2105.35 2893.74 2103.93 2893.29 2102.47 2892.83C2101.84 2892.59 2101.2 2892.36 2100.55 2892.12C2099.78 2892.05 2099.01 2891.99 2098.22 2891.92C2097.85 2891.35 2097.48 2890.77 2097.1 2890.18C2096.28 2889.66 2095.46 2889.14 2094.62 2888.61C2094.05 2888.98 2093.49 2889.35 2092.9 2889.74C2091.88 2888.78 2090.86 2887.82 2089.81 2886.83C2089.02 2886.61 2088.24 2886.4 2087.43 2886.17C2086.96 2886.07 2086.49 2885.97 2086.01 2885.87C2085.94 2885.07 2085.86 2884.27 2085.79 2883.45C2085.67 2882.58 2085.55 2881.71 2085.43 2880.81C2084.59 2880.14 2083.75 2879.47 2082.89 2878.77C2081.14 2876.96 2079.39 2875.14 2077.65 2873.32C2076.99 2872.67 2076.32 2872.03 2075.64 2871.37C2075.11 2870.92 2074.59 2870.47 2074.04 2870.01C2073.09 2869.65 2073.09 2869.65 2072.12 2869.3C2071.8 2869.18 2071.49 2869.06 2071.16 2868.94C2071.11 2868.49 2071.05 2868.03 2071 2867.56C2070.68 2867.44 2070.36 2867.33 2070.04 2867.21C2070 2866.9 2069.97 2866.6 2069.93 2866.29C2068.98 2865.93 2068.98 2865.93 2068.01 2865.58C2067.2 2865.21 2066.4 2864.84 2065.57 2864.46C2064.62 2864.11 2064.62 2864.11 2063.65 2863.75C2063.6 2863.29 2063.55 2862.84 2063.49 2862.37C2062.54 2862.02 2062.54 2862.02 2061.57 2861.66C2059.72 2860.5 2057.9 2859.31 2056.09 2858.1C2054.83 2857.09 2054.83 2857.09 2053.55 2856.06C2053.14 2854.49 2053.14 2854.49 2052.72 2852.89C2053.12 2852.38 2053.52 2851.88 2053.93 2851.35C2055.11 2851.06 2056.29 2850.77 2057.51 2850.47C2057.94 2850.27 2058.38 2850.07 2058.82 2849.86C2058.94 2849.53 2059.05 2849.21 2059.17 2848.88C2059.64 2848.98 2060.1 2849.08 2060.59 2849.19C2060.52 2849.96 2060.46 2850.74 2060.4 2851.54C2061.16 2851.6 2061.93 2851.67 2062.72 2851.74C2062.62 2852.21 2062.53 2852.68 2062.43 2853.17C2063.36 2853.37 2064.3 2853.57 2065.26 2853.77C2066.57 2854.55 2067.87 2855.32 2069.22 2856.11C2070.13 2856.16 2071.05 2856.21 2071.99 2856.26C2072.37 2856.83 2072.74 2857.4 2073.12 2857.99C2073.72 2857.92 2074.32 2857.85 2074.93 2857.78C2075.4 2857.88 2075.87 2857.98 2076.35 2858.09C2076.24 2858.41 2076.12 2858.73 2076 2859.06C2076.92 2859.11 2077.84 2859.15 2078.78 2859.2C2079.23 2859.15 2079.68 2859.1 2080.15 2859.04C2080.37 2859.63 2080.59 2860.22 2080.81 2860.83C2081.76 2861.17 2081.76 2861.17 2082.73 2861.51C2084.46 2861.89 2086.2 2862.26 2087.95 2862.62C2088.87 2862.73 2089.78 2862.84 2090.73 2862.95C2091.59 2862.89 2092.46 2862.83 2093.35 2862.77C2094.16 2862.66 2094.96 2862.54 2095.79 2862.42C2097.78 2862.16 2097.78 2862.16 2099.82 2861.9C2100.36 2862.61 2100.89 2863.31 2101.45 2864.04C2102.25 2864.41 2103.05 2864.78 2103.88 2865.16C2104.7 2865.68 2105.52 2866.2 2106.36 2866.74C2106.83 2866.84 2107.3 2866.94 2107.78 2867.04C2108.45 2867.58 2109.12 2868.11 2109.81 2868.67C2110.99 2868.38 2112.17 2868.09 2113.39 2867.79C2114.01 2867.87 2114.63 2867.95 2115.26 2868.04C2116.72 2867.27 2118.16 2866.48 2119.6 2865.67C2120.05 2865.62 2120.5 2865.57 2120.96 2865.52C2120.76 2865.08 2120.55 2864.64 2120.35 2864.19C2120.29 2863.73 2120.24 2863.28 2120.19 2862.81C2118.88 2862.04 2117.58 2861.26 2116.23 2860.47C2115.6 2859.92 2114.96 2859.36 2114.31 2858.8C2113.04 2857.56 2111.79 2856.32 2110.54 2855.07C2109.89 2854.68 2109.24 2854.29 2108.56 2853.9C2107.93 2852.35 2107.93 2852.35 2107.28 2850.78C2106.81 2850.68 2106.35 2850.58 2105.87 2850.48C2105.95 2849.85 2106.03 2849.23 2106.11 2848.59C2105.57 2847.88 2105.03 2847.17 2104.48 2846.44C2104.24 2845.7 2104 2844.96 2103.76 2844.19C2103.65 2842.93 2103.54 2841.66 2103.43 2840.36C2103.24 2839.04 2103.05 2837.73 2102.85 2836.37C2101.96 2835.25 2101.07 2834.12 2100.16 2832.96C2099.27 2831.83 2098.38 2830.7 2097.46 2829.54C2096.06 2829.24 2096.06 2829.24 2094.63 2828.93C2094.35 2827.89 2094.08 2826.84 2093.8 2825.77C2092.7 2826.12 2092.7 2826.12 2091.58 2826.49C2091.08 2826.09 2090.57 2825.68 2090.06 2825.27C2089.97 2824.5 2089.88 2823.73 2089.79 2822.97C2088.72 2822.94 2087.66 2822.91 2086.56 2822.87C2086.47 2822.12 2086.38 2821.36 2086.29 2820.57C2085.79 2820.17 2085.29 2819.77 2084.77 2819.35C2084.04 2819.59 2083.3 2819.83 2082.55 2820.07C2082.5 2819.62 2082.44 2819.16 2082.39 2818.69C2082.5 2818.37 2082.62 2818.05 2082.74 2817.72C2081.99 2817.81 2081.24 2817.9 2080.47 2817.98C2080.1 2817.41 2079.73 2816.84 2079.34 2816.25C2078.64 2816.1 2078.64 2816.1 2077.93 2815.95C2077.72 2815.51 2077.52 2815.07 2077.31 2814.62C2076.36 2814.27 2076.36 2814.27 2075.39 2813.91C2075.35 2813.61 2075.32 2813.3 2075.28 2812.99C2074.63 2813.3 2074.63 2813.3 2073.97 2813.61C2073.02 2813.26 2073.02 2813.26 2072.05 2812.9C2072.19 2812.19 2072.19 2812.19 2072.34 2811.46C2071.56 2811.25 2070.77 2811.03 2069.96 2810.81C2069.93 2810.5 2069.89 2810.2 2069.86 2809.89C2068.91 2809.54 2068.91 2809.54 2067.93 2809.18C2066.98 2808.83 2066.98 2808.83 2066.01 2808.47C2065.97 2808.16 2065.94 2807.86 2065.9 2807.55C2064.95 2807.2 2064.95 2807.2 2063.98 2806.84C2062.99 2806.18 2062 2805.53 2060.99 2804.85C2060.25 2805.09 2059.52 2805.33 2058.77 2805.58C2058.57 2805.14 2058.36 2804.7 2058.15 2804.25C2057.43 2803.87 2057.43 2803.87 2056.68 2803.49C2056.48 2803.05 2056.28 2802.61 2056.07 2802.16C2055.57 2801.75 2055.07 2801.35 2054.55 2800.94C2053.85 2800.79 2053.85 2800.79 2053.13 2800.63C2052.29 2799.96 2051.46 2799.29 2050.59 2798.6C2050.11 2798.34 2049.62 2798.09 2049.12 2797.83C2048.66 2797.73 2048.19 2797.63 2047.71 2797.53C2047.52 2797.24 2047.34 2796.96 2047.15 2796.66C2046.36 2796.45 2045.58 2796.23 2044.77 2796.01C2044.71 2795.55 2044.66 2795.09 2044.61 2794.63C2043.97 2794.39 2043.34 2794.16 2042.68 2793.92C2042.5 2793.63 2042.31 2793.34 2042.12 2793.05C2041.51 2792.97 2040.89 2792.88 2040.25 2792.8C2040.2 2792.34 2040.15 2791.89 2040.09 2791.42C2039.46 2791.18 2038.82 2790.95 2038.17 2790.71C2037.38 2790.49 2036.6 2790.27 2035.79 2790.05C2035.32 2789.95 2034.85 2789.85 2034.37 2789.75C2034.47 2789.28 2034.57 2788.8 2034.67 2788.32C2034.05 2788.23 2033.43 2788.15 2032.8 2788.07C2032.29 2787.66 2031.79 2787.26 2031.27 2786.84C2030.29 2786.19 2029.3 2785.53 2028.28 2784.86C2027.66 2784.78 2027.05 2784.69 2026.41 2784.61C2025.72 2783.92 2025.04 2783.23 2024.33 2782.52C2023.69 2782.28 2023.06 2782.05 2022.4 2781.81C2021.77 2781.57 2021.13 2781.34 2020.48 2781.1C2020.52 2780.17 2020.57 2779.24 2020.61 2778.29C2021.33 2777.9 2022.04 2777.5 2022.78 2777.1C2022.91 2776.93 2023.04 2776.76 2023.18 2776.59ZM2121.15 2863.16C2121.35 2863.6 2121.55 2864.04 2121.76 2864.49C2122.06 2864.46 2122.36 2864.42 2122.67 2864.39C2122.47 2863.95 2122.27 2863.51 2122.06 2863.06C2121.76 2863.09 2121.46 2863.13 2121.15 2863.16Z" fill="#796098"/>
<path d="M2056.79 2670.99C2057.6 2670.99 2058.4 2670.98 2059.24 2670.98C2059.61 2671.12 2059.99 2671.26 2060.38 2671.4C2060.55 2671.38 2060.73 2671.36 2060.91 2671.34C2060.93 2671.52 2060.95 2671.7 2060.98 2671.88C2061.15 2671.86 2061.33 2671.84 2061.51 2671.82C2062.01 2672.22 2062.5 2672.62 2063.01 2673.03C2064.06 2673.48 2065.11 2673.9 2066.16 2674.32C2067.5 2674.89 2068.84 2675.47 2070.17 2676.06C2070.37 2676.22 2070.57 2676.38 2070.77 2676.54C2071.22 2676.49 2071.66 2676.44 2072.12 2676.38C2072.34 2676.72 2072.56 2677.06 2072.78 2677.41C2073.22 2677.36 2073.67 2677.31 2074.13 2677.25C2074.45 2677.76 2074.45 2677.76 2074.79 2678.28C2075.26 2678.48 2075.73 2678.67 2076.22 2678.87C2076.69 2679.02 2077.15 2679.18 2077.63 2679.33C2077.81 2679.31 2077.99 2679.29 2078.17 2679.27C2078.37 2679.43 2078.57 2679.59 2078.77 2679.75C2078.88 2679.92 2078.99 2680.09 2079.1 2680.26C2079.66 2680.38 2080.21 2680.5 2080.78 2680.62C2081.24 2680.75 2081.71 2680.88 2082.18 2681.01C2082.36 2680.99 2082.54 2680.97 2082.72 2680.95C2082.93 2681.2 2083.14 2681.44 2083.35 2681.7C2084 2681.81 2084.64 2681.92 2085.3 2682.03C2085.63 2682.54 2085.63 2682.54 2085.96 2683.05C2086.89 2683.24 2087.81 2683.4 2088.74 2683.56C2089.04 2683.8 2089.34 2684.04 2089.64 2684.28C2090.07 2684.47 2090.49 2684.66 2090.92 2684.86C2091.56 2685.11 2091.56 2685.11 2092.22 2685.36C2092.59 2685.41 2092.95 2685.46 2093.33 2685.51C2094.16 2685.69 2094.16 2685.69 2095 2685.87C2094.88 2685.61 2094.76 2685.35 2094.64 2685.08C2094.91 2685.05 2095.17 2685.02 2095.45 2684.99C2095.47 2685.17 2095.49 2685.35 2095.51 2685.53C2096.34 2685.71 2096.34 2685.71 2097.18 2685.89C2097.83 2685.68 2097.83 2685.68 2098.5 2685.46C2098.62 2685.72 2098.74 2685.98 2098.86 2686.25C2099.64 2686.24 2100.43 2686.23 2101.24 2686.22C2102.06 2686.13 2102.88 2686.05 2103.73 2685.96C2104.14 2685.64 2104.55 2685.32 2104.98 2684.99C2105.46 2684.9 2105.93 2684.81 2106.43 2684.72C2107.17 2684.68 2107.17 2684.68 2107.93 2684.65C2108.5 2684.86 2109.06 2685.06 2109.64 2685.28C2110.38 2685.87 2110.38 2685.87 2111.14 2686.48C2111.33 2686.55 2111.52 2686.62 2111.71 2686.69C2111.74 2686.96 2111.77 2687.23 2111.81 2687.51C2111.98 2687.49 2112.16 2687.47 2112.34 2687.45C2112.43 2688.16 2112.51 2688.88 2112.59 2689.62C2113.13 2689.56 2113.66 2689.5 2114.21 2689.44C2114.23 2689.62 2114.25 2689.8 2114.27 2689.98C2114.53 2689.86 2114.78 2689.74 2115.04 2689.62C2115.17 2689.96 2115.31 2690.31 2115.44 2690.67C2115.8 2690.72 2116.17 2690.77 2116.55 2690.82C2116.69 2691.26 2116.83 2691.7 2116.97 2692.15C2117.25 2692.21 2117.52 2692.27 2117.81 2692.33C2117.75 2692.61 2117.69 2692.89 2117.64 2693.17C2118.01 2693.31 2118.39 2693.45 2118.77 2693.59C2119.36 2693.98 2119.94 2694.37 2120.54 2694.77C2121.37 2694.95 2121.37 2694.95 2122.22 2695.13C2122.26 2695.49 2122.3 2695.84 2122.34 2696.21C2123.49 2696.64 2123.49 2696.64 2124.66 2697.07C2125.48 2697.33 2126.31 2697.59 2127.16 2697.86C2127.73 2698.07 2128.29 2698.28 2128.87 2698.49C2130.12 2698.76 2130.12 2698.76 2131.38 2699.03C2132.43 2699.36 2133.46 2699.7 2134.5 2700.05C2135.25 2700.28 2136 2700.51 2136.77 2700.75C2138.03 2701.14 2139.28 2701.55 2140.53 2701.99C2142.03 2702.57 2143.52 2703.18 2145.01 2703.79C2145.76 2704.07 2146.51 2704.35 2147.28 2704.63C2148.27 2704.58 2148.27 2704.58 2149.28 2704.52C2150.15 2704.36 2150.15 2704.36 2151.05 2704.2C2151.19 2703.91 2151.34 2703.62 2151.49 2703.32C2152.02 2703.26 2152.55 2703.2 2153.1 2703.13C2153.6 2702.8 2154.1 2702.47 2154.62 2702.13C2155.14 2701.98 2155.66 2701.83 2156.2 2701.67C2156.18 2701.49 2156.16 2701.31 2156.14 2701.13C2156.58 2701.08 2157.03 2701.03 2157.48 2700.97C2157.61 2700.5 2157.73 2700.03 2157.86 2699.55C2157.83 2699.28 2157.8 2699.01 2157.77 2698.73C2157.24 2698.17 2156.71 2697.61 2156.16 2697.03C2155.57 2696.45 2154.98 2695.87 2154.37 2695.27C2153.88 2694.87 2153.38 2694.47 2152.87 2694.06C2152.67 2693.9 2152.47 2693.75 2152.27 2693.58C2152.34 2693.39 2152.41 2693.2 2152.48 2693.01C2152.1 2692.87 2151.73 2692.73 2151.34 2692.59C2150.54 2692.04 2149.75 2691.49 2148.97 2690.93C2148.58 2690.7 2148.2 2690.47 2147.8 2690.24C2147.43 2690.19 2147.07 2690.14 2146.69 2690.09C2146.67 2689.91 2146.65 2689.73 2146.63 2689.55C2145.57 2688.92 2144.5 2688.31 2143.42 2687.71C2141.86 2686.79 2140.3 2685.87 2138.74 2684.95C2138.55 2684.5 2138.35 2684.05 2138.14 2683.59C2138.06 2683.16 2137.98 2682.73 2137.89 2682.29C2138.04 2682 2138.18 2681.71 2138.34 2681.41C2138.44 2681.58 2138.55 2681.75 2138.67 2681.92C2139.57 2681.55 2139.57 2681.55 2140.49 2681.16C2140.91 2681.3 2141.33 2681.44 2141.76 2681.58C2142.19 2681.8 2142.62 2682.02 2143.06 2682.24C2143.73 2682.62 2144.41 2683 2145.1 2683.38C2145.54 2683.33 2145.99 2683.28 2146.44 2683.23C2146.55 2683.4 2146.66 2683.57 2146.78 2683.74C2146.71 2683.93 2146.64 2684.12 2146.57 2684.32C2147.19 2684.25 2147.81 2684.17 2148.45 2684.1C2148.57 2684.36 2148.69 2684.62 2148.81 2684.88C2149.19 2685.06 2149.56 2685.23 2149.95 2685.41C2152.08 2686.23 2152.08 2686.23 2154.23 2687.01C2154.6 2687.06 2154.97 2687.11 2155.34 2687.16C2156.17 2687.34 2157 2687.52 2157.85 2687.7C2158.21 2687.66 2158.56 2687.62 2158.93 2687.57C2158.95 2687.75 2158.97 2687.93 2158.99 2688.12C2159.42 2688.21 2159.86 2688.3 2160.3 2688.4C2160.79 2688.47 2161.27 2688.55 2161.77 2688.62C2162.23 2688.66 2162.68 2688.7 2163.15 2688.74C2163.49 2688.61 2163.84 2688.48 2164.19 2688.34C2164.93 2688.53 2165.67 2688.72 2166.44 2688.91C2166.84 2689.1 2167.25 2689.3 2167.66 2689.49C2168.5 2689.94 2169.33 2690.38 2170.17 2690.82C2170.56 2691.01 2170.95 2691.19 2171.35 2691.38C2171.99 2691.48 2172.64 2691.59 2173.3 2691.7C2173.49 2691.86 2173.69 2692.02 2173.9 2692.18C2174.48 2692.57 2175.07 2692.96 2175.67 2693.36C2175.93 2693.33 2176.2 2693.3 2176.47 2693.26C2176.42 2693.54 2176.36 2693.82 2176.3 2694.11C2176.66 2694.16 2177.03 2694.21 2177.41 2694.26C2178.18 2694.72 2178.95 2695.17 2179.74 2695.64C2180.6 2696 2181.46 2696.36 2182.32 2696.72C2182.43 2696.89 2182.54 2697.06 2182.65 2697.24C2182.92 2697.21 2183.18 2697.18 2183.46 2697.14C2183.95 2697.54 2184.45 2697.94 2184.96 2698.35C2184.98 2698.53 2185 2698.71 2185.02 2698.89C2185.29 2698.86 2185.55 2698.83 2185.83 2698.8C2185.85 2698.98 2185.87 2699.16 2185.89 2699.34C2186.27 2699.48 2186.64 2699.62 2187.03 2699.76C2187.69 2700.05 2188.35 2700.34 2189.04 2700.63C2189.23 2700.79 2189.43 2700.95 2189.64 2701.12C2189.77 2701.46 2189.9 2701.81 2190.03 2702.17C2190.23 2702.33 2190.43 2702.49 2190.63 2702.65C2190.99 2702.61 2191.34 2702.57 2191.71 2702.53C2191.84 2702.88 2191.97 2703.23 2192.1 2703.59C2192.28 2703.57 2192.46 2703.55 2192.64 2703.52C2192.89 2704.13 2193.14 2704.74 2193.4 2705.37C2193.93 2705.31 2194.46 2705.24 2195.01 2705.18C2195.13 2705.44 2195.25 2705.7 2195.37 2705.97C2195.24 2706.35 2195.1 2706.72 2194.96 2707.12C2194.94 2706.94 2194.92 2706.76 2194.9 2706.57C2194.72 2706.59 2194.54 2706.61 2194.36 2706.63C2194.47 2706.8 2194.58 2706.97 2194.69 2707.15C2194.78 2707.95 2194.88 2708.76 2194.97 2709.59C2194.92 2709.87 2194.86 2710.15 2194.8 2710.44C2194.98 2710.42 2195.15 2710.4 2195.34 2710.38C2195.36 2710.56 2195.38 2710.74 2195.4 2710.92C2194.98 2711.11 2194.57 2711.3 2194.14 2711.5C2193.7 2711.68 2193.26 2711.86 2192.81 2712.05C2192.64 2712.16 2192.47 2712.27 2192.3 2712.38C2192.03 2712.42 2191.77 2712.45 2191.49 2712.48C2191.48 2712.39 2191.47 2712.3 2191.46 2712.21C2191.02 2712.22 2190.58 2712.24 2190.12 2712.26C2189.58 2712.26 2189.04 2712.27 2188.48 2712.28C2187.23 2712.01 2187.23 2712.01 2185.96 2711.74C2185.52 2711.71 2185.08 2711.69 2184.62 2711.67C2184.16 2711.61 2183.69 2711.56 2183.21 2711.51C2182.71 2711.33 2182.21 2711.15 2181.7 2710.96C2181.18 2710.74 2180.66 2710.51 2180.12 2710.28C2179.06 2709.83 2177.99 2709.37 2176.92 2708.93C2176.22 2708.67 2175.51 2708.41 2174.79 2708.14C2174.02 2707.92 2174.02 2707.92 2173.24 2707.7C2172.71 2707.76 2172.17 2707.82 2171.63 2707.88C2171.65 2708.06 2171.67 2708.24 2171.69 2708.43C2170.82 2709.07 2170.82 2709.07 2169.93 2709.73C2169.89 2710.1 2169.84 2710.47 2169.79 2710.85C2169.35 2710.9 2168.9 2710.95 2168.45 2711.01C2168.05 2711.42 2167.64 2711.83 2167.23 2712.25C2166.92 2712.65 2166.6 2713.05 2166.28 2713.46C2166.1 2713.48 2165.92 2713.5 2165.74 2713.53C2165.86 2713.78 2165.98 2714.04 2166.11 2714.31C2165.59 2714.55 2165.08 2714.79 2164.56 2715.04C2164.27 2715.71 2163.99 2716.38 2163.7 2717.07C2163.09 2717.23 2162.48 2717.39 2161.85 2717.56C2161.97 2717.82 2162.09 2718.08 2162.21 2718.34C2161.9 2718.74 2161.59 2719.14 2161.26 2719.56C2160.76 2719.89 2160.76 2719.89 2160.25 2720.22C2159.92 2720.81 2159.92 2720.81 2159.57 2721.41C2159.66 2722.12 2159.74 2722.84 2159.82 2723.58C2159.39 2723.72 2158.96 2723.86 2158.51 2724.01C2158.01 2724.08 2157.52 2724.15 2157 2724.22C2156.53 2724.26 2156.05 2724.31 2155.55 2724.35C2155.28 2724.29 2155 2724.23 2154.72 2724.17C2154.18 2724.22 2153.64 2724.27 2153.08 2724.33C2152.56 2724.4 2152.03 2724.47 2151.49 2724.54C2151.33 2724.65 2151.16 2724.77 2150.99 2724.88C2150.44 2724.92 2149.9 2724.97 2149.33 2725.02C2148.64 2725.12 2147.94 2725.21 2147.22 2725.31C2145.83 2725.83 2144.44 2726.36 2143.05 2726.9C2141.45 2727.45 2139.85 2727.98 2138.25 2728.52C2137.81 2728.66 2137.37 2728.81 2136.92 2728.96C2135.53 2729.42 2134.13 2729.89 2132.74 2730.35C2131.34 2730.81 2129.93 2731.28 2128.53 2731.75C2127.26 2732.17 2126 2732.59 2124.73 2733.01C2124.11 2733.22 2123.5 2733.43 2122.86 2733.64C2122.6 2733.76 2122.35 2733.88 2122.08 2734.01C2123.18 2734.9 2124.28 2735.78 2125.39 2736.66C2126 2737.31 2126 2737.31 2126.63 2737.98C2126.94 2738.37 2127.26 2738.76 2127.58 2739.16C2128.24 2740.19 2128.91 2741.21 2129.57 2742.24C2129.77 2742.4 2129.97 2742.56 2130.17 2742.72C2130.06 2743.28 2129.94 2743.84 2129.82 2744.42C2130.02 2744.57 2130.22 2744.73 2130.42 2744.9C2130.26 2745.01 2130.09 2745.12 2129.92 2745.23C2129.73 2745.16 2129.54 2745.09 2129.35 2745.02C2129.31 2745.48 2129.27 2745.94 2129.24 2746.41C2128.54 2746.68 2127.84 2746.94 2127.15 2747.21C2126.46 2747.19 2126.46 2747.19 2125.75 2747.18C2125.22 2747.12 2124.68 2747.06 2124.13 2747C2123.19 2746.75 2122.25 2746.49 2121.32 2746.23C2121.34 2746.41 2121.36 2746.58 2121.38 2746.77C2120.96 2747 2120.53 2747.23 2120.1 2747.47C2119.35 2747.23 2118.59 2746.99 2117.82 2746.75C2116.98 2746.44 2116.14 2746.14 2115.28 2745.82C2114.62 2745.65 2113.96 2745.48 2113.28 2745.31C2112.82 2745.15 2112.37 2745 2111.9 2744.83C2111.93 2744.37 2111.97 2743.92 2112.01 2743.44C2111.54 2743.18 2111.07 2742.93 2110.59 2742.66C2110.01 2742.4 2109.43 2742.15 2108.83 2741.88C2108.39 2741.64 2107.94 2741.4 2107.49 2741.16C2107.07 2740.95 2106.65 2740.74 2106.22 2740.53C2105.38 2740.26 2104.54 2739.99 2103.68 2739.72C2103.3 2739.58 2102.93 2739.44 2102.54 2739.3C2102.09 2739.26 2101.63 2739.22 2101.17 2739.18C2100.95 2738.84 2100.73 2738.51 2100.5 2738.16C2100.02 2737.85 2099.53 2737.54 2099.03 2737.22C2098.7 2737.44 2098.36 2737.67 2098.02 2737.89C2097.42 2737.33 2096.81 2736.76 2096.19 2736.17C2095.72 2736.05 2095.26 2735.92 2094.78 2735.79C2094.5 2735.73 2094.23 2735.67 2093.94 2735.61C2093.9 2735.13 2093.86 2734.66 2093.81 2734.18C2093.74 2733.66 2093.67 2733.15 2093.6 2732.62C2093.1 2732.22 2092.61 2731.82 2092.1 2731.41C2091.06 2730.34 2090.03 2729.26 2089 2728.18C2088.61 2727.8 2088.22 2727.42 2087.81 2727.03C2087.5 2726.76 2087.19 2726.5 2086.87 2726.23C2086.3 2726.02 2086.3 2726.02 2085.73 2725.81C2085.54 2725.74 2085.35 2725.67 2085.16 2725.6C2085.13 2725.33 2085.1 2725.06 2085.07 2724.78C2084.88 2724.71 2084.69 2724.64 2084.5 2724.57C2084.48 2724.39 2084.46 2724.21 2084.43 2724.03C2083.87 2723.82 2083.87 2723.82 2083.3 2723.61C2082.82 2723.39 2082.35 2723.17 2081.86 2722.95C2081.29 2722.74 2081.29 2722.74 2080.72 2722.53C2080.69 2722.26 2080.66 2721.99 2080.63 2721.71C2080.06 2721.5 2080.06 2721.5 2079.49 2721.29C2078.4 2720.61 2077.32 2719.9 2076.25 2719.18C2075.51 2718.59 2075.51 2718.59 2074.75 2717.98C2074.51 2717.05 2074.51 2717.05 2074.26 2716.11C2074.49 2715.81 2074.73 2715.51 2074.97 2715.2C2075.67 2715.03 2076.37 2714.85 2077.09 2714.68C2077.34 2714.56 2077.6 2714.44 2077.86 2714.31C2077.93 2714.12 2078 2713.93 2078.07 2713.74C2078.35 2713.8 2078.62 2713.85 2078.91 2713.92C2078.87 2714.37 2078.83 2714.83 2078.8 2715.31C2079.25 2715.34 2079.7 2715.38 2080.17 2715.42C2080.11 2715.7 2080.06 2715.98 2080 2716.27C2080.55 2716.39 2081.1 2716.51 2081.67 2716.63C2082.44 2717.08 2083.22 2717.54 2084.01 2718.01C2084.55 2718.04 2085.1 2718.07 2085.66 2718.1C2085.87 2718.44 2086.09 2718.77 2086.32 2719.12C2086.67 2719.08 2087.03 2719.04 2087.39 2719C2087.67 2719.06 2087.95 2719.12 2088.23 2719.18C2088.16 2719.37 2088.1 2719.56 2088.03 2719.75C2088.57 2719.78 2089.11 2719.81 2089.67 2719.84C2089.94 2719.81 2090.2 2719.78 2090.48 2719.74C2090.61 2720.09 2090.74 2720.44 2090.87 2720.8C2091.43 2721 2091.43 2721 2092 2721.2C2093.03 2721.43 2094.06 2721.65 2095.09 2721.86C2095.63 2721.92 2096.17 2721.99 2096.73 2722.05C2097.25 2722.02 2097.76 2721.98 2098.28 2721.95C2098.76 2721.88 2099.24 2721.81 2099.73 2721.74C2100.91 2721.59 2100.91 2721.59 2102.11 2721.43C2102.43 2721.85 2102.75 2722.27 2103.07 2722.7C2103.55 2722.92 2104.02 2723.14 2104.51 2723.36C2105 2723.67 2105.48 2723.98 2105.98 2724.29C2106.26 2724.35 2106.53 2724.41 2106.82 2724.47C2107.21 2724.79 2107.61 2725.11 2108.02 2725.44C2108.72 2725.26 2109.42 2725.09 2110.14 2724.91C2110.5 2724.96 2110.87 2725.01 2111.24 2725.06C2112.1 2724.61 2112.96 2724.14 2113.81 2723.66C2114.07 2723.63 2114.34 2723.6 2114.61 2723.57C2114.49 2723.31 2114.37 2723.05 2114.25 2722.79C2114.22 2722.52 2114.19 2722.25 2114.15 2721.97C2113.38 2721.51 2112.61 2721.06 2111.82 2720.59C2111.44 2720.26 2111.07 2719.93 2110.68 2719.6C2109.93 2718.87 2109.19 2718.13 2108.45 2717.39C2108.06 2717.16 2107.68 2716.93 2107.28 2716.7C2106.91 2715.79 2106.91 2715.79 2106.52 2714.86C2106.25 2714.8 2105.97 2714.74 2105.69 2714.68C2105.73 2714.31 2105.78 2713.94 2105.83 2713.56C2105.51 2713.14 2105.19 2712.72 2104.87 2712.29C2104.73 2711.85 2104.58 2711.42 2104.44 2710.96C2104.38 2710.21 2104.31 2709.47 2104.25 2708.69C2104.13 2707.92 2104.02 2707.14 2103.91 2706.34C2103.38 2705.67 2102.85 2705.01 2102.31 2704.32C2101.78 2703.65 2101.26 2702.98 2100.71 2702.3C2099.89 2702.12 2099.89 2702.12 2099.04 2701.94C2098.88 2701.32 2098.72 2700.7 2098.55 2700.07C2097.9 2700.28 2097.9 2700.28 2097.24 2700.49C2096.94 2700.26 2096.64 2700.02 2096.34 2699.77C2096.28 2699.32 2096.23 2698.86 2096.18 2698.41C2095.55 2698.39 2094.92 2698.38 2094.27 2698.36C2094.22 2697.91 2094.16 2697.46 2094.11 2697C2093.81 2696.76 2093.52 2696.52 2093.21 2696.27C2092.78 2696.42 2092.34 2696.56 2091.9 2696.7C2091.87 2696.43 2091.83 2696.16 2091.8 2695.89C2091.87 2695.7 2091.94 2695.51 2092.01 2695.31C2091.57 2695.36 2091.12 2695.41 2090.66 2695.47C2090.45 2695.13 2090.23 2694.79 2090 2694.44C2089.59 2694.35 2089.59 2694.35 2089.16 2694.26C2089.04 2694 2088.92 2693.74 2088.8 2693.48C2088.24 2693.27 2088.24 2693.27 2087.66 2693.06C2087.64 2692.88 2087.62 2692.7 2087.6 2692.51C2087.22 2692.69 2087.22 2692.69 2086.83 2692.88C2086.26 2692.67 2086.26 2692.67 2085.69 2692.46C2085.77 2692.04 2085.77 2692.04 2085.86 2691.61C2085.4 2691.48 2084.93 2691.35 2084.45 2691.22C2084.43 2691.04 2084.41 2690.86 2084.39 2690.68C2083.83 2690.47 2083.83 2690.47 2083.25 2690.26C2082.69 2690.05 2082.69 2690.05 2082.12 2689.84C2082.1 2689.66 2082.07 2689.48 2082.05 2689.29C2081.49 2689.09 2081.49 2689.09 2080.92 2688.87C2080.33 2688.49 2079.75 2688.1 2079.15 2687.7C2078.71 2687.84 2078.28 2687.98 2077.83 2688.13C2077.71 2687.87 2077.59 2687.61 2077.47 2687.34C2077.04 2687.12 2077.04 2687.12 2076.6 2686.89C2076.48 2686.63 2076.36 2686.37 2076.24 2686.11C2075.94 2685.87 2075.64 2685.63 2075.34 2685.38C2074.92 2685.3 2074.92 2685.3 2074.5 2685.21C2074 2684.81 2073.51 2684.41 2073 2684C2072.71 2683.85 2072.42 2683.7 2072.13 2683.55C2071.85 2683.49 2071.58 2683.43 2071.29 2683.37C2071.18 2683.2 2071.07 2683.03 2070.96 2682.86C2070.5 2682.73 2070.03 2682.6 2069.55 2682.47C2069.52 2682.2 2069.49 2681.93 2069.46 2681.65C2069.08 2681.51 2068.71 2681.38 2068.32 2681.23C2068.21 2681.06 2068.1 2680.9 2067.99 2680.72C2067.62 2680.67 2067.26 2680.62 2066.88 2680.57C2066.85 2680.3 2066.82 2680.03 2066.79 2679.76C2066.41 2679.62 2066.04 2679.48 2065.65 2679.34C2065.19 2679.21 2064.72 2679.08 2064.24 2678.95C2063.97 2678.89 2063.69 2678.83 2063.41 2678.77C2063.46 2678.49 2063.52 2678.21 2063.58 2677.92C2063.22 2677.87 2062.85 2677.83 2062.47 2677.77C2062.18 2677.54 2061.88 2677.3 2061.57 2677.05C2060.99 2676.66 2060.41 2676.28 2059.8 2675.88C2059.44 2675.83 2059.07 2675.78 2058.7 2675.73C2058.29 2675.32 2057.88 2674.91 2057.47 2674.49C2057.09 2674.36 2056.71 2674.22 2056.33 2674.07C2055.95 2673.94 2055.58 2673.8 2055.19 2673.66C2055.22 2673.11 2055.24 2672.56 2055.27 2671.99C2055.69 2671.76 2056.11 2671.53 2056.55 2671.29C2056.63 2671.19 2056.71 2671.09 2056.79 2670.99ZM2114.72 2722.18C2114.84 2722.44 2114.96 2722.7 2115.09 2722.96C2115.26 2722.94 2115.44 2722.92 2115.62 2722.9C2115.5 2722.64 2115.38 2722.38 2115.26 2722.12C2115.08 2722.14 2114.91 2722.16 2114.72 2722.18Z" fill="#927AB0"/>
<path d="M4037.25 161.447C4037.96 161.356 4038.68 161.265 4039.42 161.172C4041.67 160.492 4041.67 160.492 4043.8 158.764C4048.56 156.085 4053.44 156.303 4058.81 156.07C4060.95 155.972 4063.08 155.863 4065.21 155.742C4066.15 155.701 4067.09 155.66 4068.06 155.618C4070.74 155.164 4071.81 154.474 4073.67 152.548C4074.58 153.273 4075.48 153.998 4076.41 154.745C4079.78 155.31 4082.84 155.093 4086.21 154.629C4085.59 154.252 4084.98 153.875 4084.35 153.487C4084.99 152.898 4085.62 152.308 4086.28 151.701C4088.37 149.309 4089.23 147.863 4090.41 145.034C4091.23 143.083 4091.23 143.083 4092.26 141.467C4094.71 140.539 4094.71 140.539 4097.28 139.953C4098.8 138.173 4100.27 136.348 4101.67 134.47C4102.34 134.206 4103.01 133.942 4103.7 133.67C4103.76 133.03 4103.81 132.389 4103.87 131.729C4104.61 131.834 4105.35 131.94 4106.11 132.048C4108.73 132.156 4108.73 132.156 4111.81 130.471C4111.86 129.831 4111.92 129.19 4111.98 128.53C4112.62 128.586 4113.26 128.643 4113.92 128.701C4115.63 126.945 4115.63 126.945 4117.72 124.45C4120.68 120.944 4123.7 117.544 4126.87 114.223C4134.67 105.991 4138.65 100.561 4138.51 88.914C4138.23 85.7673 4137.57 82.9118 4136.8 79.85C4136.35 76.7231 4135.95 73.5938 4135.56 70.4591C4135.35 69.6298 4135.13 68.8004 4134.92 67.946C4133.98 67.5411 4133.05 67.1363 4132.09 66.7191C4130.69 64.8785 4130.69 64.8785 4129.45 62.6963C4129.02 61.9748 4128.58 61.2534 4128.14 60.5101C4126.09 57.0056 4126.09 57.0056 4124.66 53.2266C4124.33 52.5926 4124 51.9585 4123.67 51.3053C4122.97 51.1436 4122.28 50.982 4121.57 50.8154C4117.99 49.5987 4115.86 47.2625 4113.25 44.6418C4109.23 40.7634 4105.79 38.0182 4100.46 36.1229C4097.61 34.9977 4095.52 32.9532 4093.17 31.0149C4082.76 24.6283 4082.76 24.6283 4077.98 25.7657C4077.02 25.6811 4076.06 25.5966 4075.07 25.5095C4074.81 24.8406 4074.54 24.1718 4074.27 23.4827C4072.48 22.7753 4072.48 22.7753 4070.23 22.1491C4066.96 21.1771 4063.95 20.2055 4061.02 18.4044C4060.76 17.7355 4060.5 17.0667 4060.22 16.3776C4058.32 15.8394 4058.32 15.8394 4055.96 15.4526C4052.68 14.925 4052.68 14.925 4049.72 13.4968C4049.66 14.1374 4049.6 14.778 4049.55 15.4381C4048.72 15.2838 4047.9 15.1294 4047.05 14.9704C4045.46 14.6806 4045.46 14.6806 4043.83 14.3849C4042.77 14.1895 4041.71 13.994 4040.62 13.7926C4039.75 13.677 4038.88 13.5615 4037.98 13.4425C4037.64 13.7346 4037.29 14.0267 4036.93 14.3277C4033.68 14.1133 4030.46 13.755 4027.23 13.4132C4024.31 13.2173 4024.31 13.2173 4022.28 14.0171C4022.05 13.028 4021.81 12.0389 4021.57 11.0198C4019.59 10.7925 4017.61 10.5807 4015.63 10.3753C4014.53 10.2556 4013.43 10.136 4012.3 10.0127C4008.87 9.90697 4006.26 10.5061 4002.96 11.3382C3998.81 11.3412 3994.72 10.9356 3990.75 9.71382C3987.32 8.76628 3984.17 9.1484 3980.63 9.37364C3980.52 10.6549 3980.41 11.9361 3980.29 13.2562C3979.62 13.5202 3978.95 13.7841 3978.26 14.056C3978.32 13.4154 3978.38 12.7748 3978.43 12.1147C3975.87 11.8893 3973.31 11.6638 3970.67 11.4314C3970.79 15.6706 3971.36 18.3592 3973.59 21.9595C3974.12 22.8483 3974.65 23.7371 3975.19 24.6528C3976.55 26.817 3977.93 28.9299 3979.36 31.0414C3985 39.6078 3986.4 45.3042 3985.35 55.7628C3985.71 57.2465 3985.71 57.2465 3986.07 58.7601C3987.02 58.9396 3987.97 59.119 3988.95 59.3039C3990.18 59.5584 3991.41 59.813 3992.68 60.0753C3994.52 60.4415 3994.52 60.4415 3996.39 60.8151C3999.58 61.549 3999.58 61.549 4000.62 63.923C4000.77 64.5921 4000.93 65.2612 4001.08 65.9506C4002.51 67.7881 4002.51 67.7881 4003.74 69.1188C4003.07 69.3828 4002.4 69.6467 4001.71 69.9186C4001.02 70.5029 4000.32 71.0872 3999.6 71.6891C3998.58 72.0632 3997.56 72.4374 3996.51 72.8228C3993.52 74.0886 3993.52 74.0886 3992.29 76.9151C3991.63 77.179 3990.96 77.443 3990.27 77.7149C3989.26 80.0832 3989.26 80.0832 3988.27 83.102C3987.94 84.0855 3987.61 85.069 3987.27 86.0822C3985.84 90.6992 3984.62 94.7527 3984.86 99.6142C3984.89 100.381 3984.92 101.148 3984.95 101.938C3985 102.794 3985 102.794 3985.05 103.666C3979.94 102.664 3976.16 100.568 3971.81 97.8544C3971.16 97.4698 3970.52 97.0852 3969.85 96.6889C3965.82 94.2059 3962.81 91.6974 3960.04 87.7709C3960.32 85.4171 3961.17 84.2454 3962.48 82.3043C3966.71 74.7928 3965.78 65.7827 3963.66 57.7662C3961.59 53.5203 3958.25 50.4666 3954.96 47.1242C3952.36 44.3849 3949.98 41.4824 3947.6 38.5479C3944.89 35.4201 3942.94 33.6171 3939.01 32.1825C3935.52 30.7786 3934.37 29.563 3932.16 26.628C3931.52 26.5716 3930.88 26.5152 3930.22 26.4571C3929.98 25.468 3929.75 24.4789 3929.51 23.4598C3925.37 23.5718 3922.27 25.7461 3919.29 28.4295C3918.76 29.3717 3918.23 30.3139 3917.69 31.2847C3915.66 34.2909 3915.28 34.3586 3912.02 35.3095C3906.24 37.2515 3903.62 42.1199 3900.99 47.361C3900.73 48.3995 3900.46 49.4379 3900.19 50.5078C3899.85 51.7907 3899.85 51.7907 3899.51 53.0995C3898.84 53.3634 3898.17 53.6274 3897.48 53.8993C3896.08 56.6492 3896.08 56.6492 3895.03 59.5524C3895.42 60.5556 3895.42 60.5556 3895.83 61.5791C3895.16 61.843 3894.49 62.107 3893.8 62.3789C3894.24 62.9016 3894.24 62.9016 3894.69 63.435C3894 66.8339 3893.23 70.2014 3892.41 73.5703C3891.44 77.8362 3891.07 80.6191 3892.81 84.7892C3893.04 86.1076 3893.26 87.4295 3893.44 88.7572C3894.08 88.8136 3894.72 88.8699 3895.38 88.928C3895.56 89.6098 3895.74 90.2916 3895.93 90.994C3897.54 95.9424 3899.47 100.245 3902.83 104.256C3902.8 107.115 3902.8 107.115 3901.43 109.024C3902.72 109.137 3904 109.25 3905.32 109.366C3905.55 110.355 3905.79 111.344 3906.03 112.363C3906.99 112.448 3907.95 112.532 3908.94 112.62C3909.03 111.659 3909.11 110.698 3909.2 109.708C3909.58 110.225 3909.96 110.743 3910.35 111.276C3911.85 112.876 3911.85 112.876 3914.77 113.132C3914.71 113.773 3914.65 114.413 3914.6 115.073C3916.41 116.216 3918.22 117.353 3920.04 118.487C3921.05 119.121 3922.06 119.754 3923.11 120.407C3925.73 121.922 3925.73 121.922 3927.67 122.093C3927.62 122.734 3927.56 123.374 3927.5 124.034C3929.26 125.866 3931.06 127.657 3932.9 129.4C3932.25 131.28 3932.25 131.28 3931.59 133.197C3933.55 134.531 3933.55 134.531 3936.27 135.566C3938.3 134.766 3940.32 133.966 3942.35 133.166C3950.45 132.981 3957.96 135.871 3965.3 139.099C3965.89 139.796 3966.47 140.493 3967.07 141.211C3968.97 141.767 3970.88 142.268 3972.81 142.694C3973.28 144.672 3973.75 146.65 3974.24 148.689C3976.36 149.609 3976.36 149.609 3979.01 150.086C3979.6 149.553 3980.19 149.02 3980.8 148.471C3985.12 145.049 3990.42 145.187 3995.76 145.726C4000.32 146.448 4000.32 146.448 4004.44 148.397C4006.44 149.566 4006.44 149.566 4009.59 150.244C4013.67 151.265 4016.65 152.925 4020.2 155.117C4031.92 162.239 4031.92 162.239 4037.25 161.447ZM3991.42 142.375C3991.45 142.055 3991.48 141.735 3991.51 141.405C3993.11 141.546 3994.71 141.687 3996.36 141.832C3996.34 142.152 3996.31 142.473 3996.28 142.803C3994.68 142.662 3993.07 142.521 3991.42 142.375ZM4000.59 138.291C4000.64 137.65 4000.7 137.01 4000.76 136.35C3999.84 135.785 3999.84 135.785 3998.9 135.208C4000.5 135.349 4002.11 135.49 4003.76 135.635C4003.67 136.596 4003.59 137.557 4003.5 138.547C4002.54 138.463 4001.58 138.378 4000.59 138.291ZM3991.22 133.554C3993.47 133.752 3995.71 133.949 3998.02 134.152C3997.64 134.765 3997.26 135.377 3996.88 136.008C3994.49 135.798 3993.21 134.85 3991.22 133.554ZM4019.37 136.031C4020.51 134.175 4020.51 134.175 4020.51 134.175L4019.37 136.031ZM3956.54 127.567C3957.68 125.712 3957.68 125.712 3957.68 125.712L3956.54 127.567ZM4066.73 131.395C4066.47 130.727 4066.2 130.058 4065.93 129.369C4066.57 129.425 4067.21 129.481 4067.87 129.54C4067.5 130.152 4067.12 130.764 4066.73 131.395ZM4062.05 129.027C4064.51 126.737 4064.51 126.737 4067.33 124.601C4068.29 124.685 4069.25 124.77 4070.24 124.857C4069.84 125.79 4069.43 126.723 4069.01 127.684C4068.1 127.119 4068.1 127.119 4067.16 126.542C4066.75 127.475 4066.35 128.408 4065.93 129.369C4064.65 129.256 4063.37 129.143 4062.05 129.027ZM3945.66 117.807C3944.82 116.281 3944.82 116.281 3943.97 114.724C3944.9 115.129 3945.84 115.534 3946.8 115.951C3946.42 116.563 3946.04 117.176 3945.66 117.807ZM4073.58 120.26C4073.99 119.327 4074.39 118.395 4074.81 117.434C4074.72 118.395 4074.64 119.355 4074.55 120.346C4074.23 120.317 4073.91 120.289 4073.58 120.26ZM4105.78 121.138C4106.92 119.282 4106.92 119.282 4106.92 119.282L4105.78 121.138ZM3914.74 102.369C3915.88 100.514 3915.88 100.514 3915.88 100.514L3914.74 102.369ZM4083.71 116.261C4083.85 114.659 4084 113.058 4084.14 111.408C4084.46 111.436 4084.78 111.464 4085.11 111.493C4084.97 113.095 4084.83 114.696 4084.68 116.346C4084.36 116.318 4084.04 116.29 4083.71 116.261ZM4108.07 117.426C4109.21 115.57 4109.21 115.57 4109.21 115.57L4108.07 117.426ZM3939.26 101.593C3940.49 98.7664 3940.49 98.7664 3940.49 98.7664L3939.26 101.593ZM3913.14 98.3161C3914.36 95.4896 3914.36 95.4896 3914.36 95.4896L3913.14 98.3161ZM3912.51 94.3481C3913.73 91.5216 3913.73 91.5216 3913.73 91.5216L3912.51 94.3481ZM4043.54 105.879C4043.62 104.09 4043.7 102.301 4043.78 100.458C4043.82 94.9086 4042.92 91.8327 4040.31 87.0097C4039.78 85.0251 4039.29 83.0295 4038.89 81.015C4042.58 79.5587 4046.24 82.2153 4049.73 83.6888C4060.59 87.8164 4060.59 87.8164 4068.92 95.396C4068.84 96.357 4068.75 97.3179 4068.66 98.308C4068.04 98.3598 4067.41 98.4117 4066.76 98.4651C4065.94 98.5484 4065.13 98.6317 4064.29 98.7176C4063.48 98.7936 4062.66 98.8697 4061.83 98.948C4061.14 99.1237 4060.46 99.2995 4059.76 99.4805C4059.35 100.413 4058.95 101.346 4058.53 102.307C4057.89 102.251 4057.25 102.194 4056.59 102.136C4056.13 103.71 4055.67 105.283 4055.19 106.904C4051.35 106.566 4047.5 106.228 4043.54 105.879ZM4083.34 109.381C4083.13 108.072 4082.93 106.762 4082.71 105.413C4083.59 106.459 4084.46 107.504 4085.37 108.581C4084.7 108.845 4084.03 109.109 4083.34 109.381ZM4090.22 109.008C4090.6 108.396 4090.97 107.783 4091.36 107.152C4091.63 107.821 4091.89 108.49 4092.16 109.179C4091.52 109.123 4090.88 109.066 4090.22 109.008ZM3912.85 90.4655C3913.99 88.6096 3913.99 88.6096 3913.99 88.6096L3912.85 90.4655ZM4080.94 103.301C4080.68 102.632 4080.41 101.963 4080.14 101.274C4080.78 101.331 4081.42 101.387 4082.08 101.445C4081.71 102.058 4081.33 102.67 4080.94 103.301ZM4088.71 103.984C4089.85 102.128 4089.85 102.128 4089.85 102.128L4088.71 103.984ZM4071.29 90.7136C4070.71 90.0166 4070.12 89.3196 4069.52 88.6015C4070.48 88.6861 4071.44 88.7706 4072.43 88.8577C4072.05 89.4702 4071.68 90.0826 4071.29 90.7136ZM4084.33 86.9708C4084.71 86.3583 4085.09 85.7459 4085.48 85.1149C4085.74 85.7837 4086 86.4525 4086.28 87.1416C4085.64 87.0852 4084.99 87.0289 4084.33 86.9708ZM4101.09 85.5109C4100.26 83.9849 4100.26 83.9849 4099.41 82.4281C4100.63 83.1815 4101.86 83.9349 4103.12 84.7111C4102.45 84.975 4101.78 85.239 4101.09 85.5109ZM4016.01 40.8536C4016.39 40.2411 4016.76 39.6287 4017.15 38.9977C4017.76 39.3744 4018.38 39.7511 4019.01 40.1392C4018.02 40.3749 4017.03 40.6107 4016.01 40.8536ZM4026.69 41.7931C4026.8 40.5119 4026.91 39.2306 4027.03 37.9105C4027.96 38.3154 4028.89 38.7203 4029.85 39.1374C4028.81 40.0138 4027.76 40.8902 4026.69 41.7931ZM4019.35 36.2566C4020.49 34.4007 4020.49 34.4007 4020.49 34.4007L4019.35 36.2566ZM4027.28 34.9986C4027.98 34.4144 4028.68 33.8301 4029.4 33.2281C4029.34 33.8688 4029.28 34.5094 4029.23 35.1694C4028.58 35.1131 4027.94 35.0567 4027.28 34.9986Z" fill="#946C9F" fill-opacity="0.4"/>
</svg>
