<svg width="4682" height="1548" viewBox="0 0 4682 1548" fill="none" xmlns="http://www.w3.org/2000/svg">
<path d="M1679.63 998.215L4771.14 1070.28L4815.14 1720.47L1768.07 1781.07L1679.63 998.215Z" fill="url(#paint0_linear_255_32428)"/>
<path d="M2600.68 1255.84L2411.84 721.468C2660.92 815.122 3687.51 549.084 3669.43 508.522C4021.02 440.998 4681.02 440.998 4681.02 440.998C4681.02 440.998 4716.92 505.909 4720.52 752.993C4739.27 898.554 4725.09 1134.85 4721.35 1203.77C4727.13 1208.23 4727.32 1213.98 4720.52 1221.25L4720.52 1203.16C4667.14 1166.32 4215.7 1221.25 4215.7 1221.25L4210.41 1222.96C4200.25 1232.94 4226.28 1284.15 3918.38 1317.68C3259.45 1205.18 2600.68 1255.84 2600.68 1255.84Z" fill="url(#paint1_linear_255_32428)"/>
<path d="M4170.67 491.735C4045.81 584.096 2573.9 537.915 2573.9 537.915L1768.89 419.258L3901 447C3901 447 4245.75 436.206 4170.67 491.735Z" fill="#7F6E9F"/>
<path d="M3605.88 1252.92C3598.43 1252.46 3579.19 1274.63 3570.5 1285.77C3591.07 1291.3 3631.54 1304.34 3628.92 1312.26C3626.3 1320.18 3670.51 1330.31 3692.95 1334.38C3712.42 1336.03 3751.23 1337.15 3750.69 1328.5C3750.02 1317.68 3761.56 1303.57 3779.01 1301.95C3792.97 1300.66 3813.33 1300.92 3821.76 1301.21C3807.21 1284.6 3778.17 1250.44 3778.41 1246.69C3778.64 1242.93 3732.9 1219.87 3710.01 1208.8L3682.68 1219.25C3686.43 1216.11 3691.83 1209.3 3683.42 1207.17C3675.01 1205.04 3633.34 1225.87 3613.56 1236.55C3614.1 1242.2 3613.32 1253.38 3605.88 1252.92Z" fill="#725A82"/>
<path d="M2468.85 158.11C2468.85 158.11 2468.85 179.607 2468.85 192.043C2462.09 192.043 2460.01 219.191 2460.01 229.498C2453.5 229.498 2455.87 280.772 2455.52 287.735C2454.14 301.541 2454.07 313.868 2454.23 327.682C2453.53 325.567 2452.86 323.451 2452.22 321.334C2451.89 320.266 2451.54 319.198 2451.18 318.13C2450.15 314.672 2449.52 311.727 2452.11 308.363C2453.5 306.405 2452.19 304.567 2451.34 302.602C2450.39 302.602 2449.44 302.602 2448.45 302.602C2448.45 298.904 2448.45 295.207 2448.45 291.397C2447.02 291.397 2445.59 291.397 2444.12 291.397C2442.1 304.09 2442.1 304.09 2444.12 309.539C2445.55 309.715 2446.98 309.891 2448.45 310.073C2446.4 310.056 2446.4 310.056 2444.3 310.039C2439.79 310.073 2439.79 310.073 2436.9 310.606C2436.9 312.015 2436.9 313.424 2436.9 314.875C2435.47 315.051 2434.04 315.227 2432.57 315.409C2431.62 312.768 2430.66 310.126 2429.68 307.405C2431.59 307.405 2433.49 307.405 2435.46 307.405C2435.46 306.524 2435.46 305.644 2435.46 304.737C2434.03 304.737 2432.6 304.737 2431.12 304.737C2431.12 304.208 2431.12 303.68 2431.12 303.136C2430.17 303.136 2429.22 303.136 2428.24 303.136C2428.24 302.784 2428.24 302.432 2428.24 302.069C2426.81 302.069 2425.38 302.069 2423.9 302.069C2423.9 302.949 2423.9 303.83 2423.9 304.737C2422.95 304.737 2422 304.737 2421.02 304.737C2421.02 304.385 2421.02 304.032 2421.02 303.67C2417.68 303.67 2414.34 303.67 2410.91 303.67C2410.43 304.374 2409.95 305.078 2409.46 305.804C2408.51 305.804 2407.56 305.804 2406.58 305.804C2406.58 306.684 2406.58 307.565 2406.58 308.472C2408.01 308.648 2409.43 308.824 2410.91 309.006C2409.48 315.873 2408.05 322.741 2406.58 329.816C2403.24 329.816 2399.9 329.816 2396.47 329.816C2396.47 328.055 2396.47 326.295 2396.47 324.48C2394.56 324.656 2392.65 324.832 2390.69 325.014C2390.21 323.429 2389.74 321.844 2389.25 320.211C2390.2 320.211 2391.15 320.211 2392.13 320.211C2392.13 321.268 2392.13 322.324 2392.13 323.413C2393.56 323.413 2394.99 323.413 2396.47 323.413C2396.47 321.99 2396.47 320.567 2396.47 319.144C2396.87 317.776 2397.3 316.409 2397.74 315.042C2397.91 313.808 2397.91 313.808 2396.47 312.741C2397.42 312.741 2398.37 312.741 2399.36 312.741C2399.83 311.684 2400.31 310.628 2400.8 309.539C2399.37 309.539 2397.94 309.539 2396.47 309.539C2396.47 307.602 2396.47 305.665 2396.47 303.67C2394.56 303.493 2392.65 303.317 2390.69 303.136C2390.69 297.022 2418.54 300.46 2416.61 291.397C2414 290.396 2395.29 279.724 2392.13 279.124C2379.94 279.124 2362.92 223.887 2383.47 218.826C2382.99 218.298 2382.52 217.769 2382.03 217.225C2378.79 217.225 2370.47 212.246 2370.47 214.557C2370.19 214.557 2369.91 214.557 2369.62 214.557C2362.99 214.557 2365.11 217.225 2360.36 217.225C2360.36 217.753 2360.36 218.282 2360.36 218.826C2368.94 218.826 2358.92 274.131 2358.92 284.993C2357.97 284.993 2305.93 307.628 2304.95 307.628C2304.95 307.628 2308.74 291.504 2306.93 281.258C2306.02 276.081 2302.92 268.163 2302.92 268.163C2302.45 267.282 2302.4 266.691 2301.91 265.783C2299.53 265.783 2293.5 265.783 2291.05 265.783C2290.87 266.279 2290.7 266.775 2290.52 267.286C2288.67 272.325 2287.66 276.84 2287.1 281.258C2286.2 288.325 2286.43 295.142 2286.18 303.457C2286.14 304.515 2259.51 322.459 2259.47 323.517V300.583C2259.47 294.564 2224.62 292.909 2224.62 301.002V331.951C2224.62 331.951 2224.3 354.865 2223.59 366.102C2222.64 366.102 2218.85 366.102 2218.85 366.102L2211.62 357.564C2210.67 357.564 2209.72 357.564 2208.74 357.564C2208.74 349.339 2192.99 350.943 2193.28 357.564C2193.28 357.564 2191.76 321.947 2191.76 329.446C2191.76 329.446 2192.27 326.558 2190.75 326.558C2185.79 326.458 2176.6 326.615 2174.58 326.615C2172.56 326.615 2170.42 326.445 2170.42 329.446C2170.42 329.446 2171.06 359.483 2170.42 374.106H2161.54V368.857C2159.24 363.036 2157.98 357.12 2156.9 350.943C2155.94 350.943 2152.32 347.425 2151.34 347.425V374.106H2146.64C2146.02 348.984 2145.88 323.831 2141.23 298.867H2135.09C2135.09 298.515 2135.09 298.163 2135.09 297.8C2134.14 297.8 2133.18 297.8 2132.2 297.8C2132.2 298.152 2132.2 298.504 2132.2 298.867C2130.29 298.867 2125.5 298.867 2123.54 298.867V327.682H2117.76C2117.76 329.908 2117.29 332.334 2121.96 332.334V366.635C2119.58 366.635 2115.88 366.635 2113.43 366.635C2113.43 366.635 2113.43 371.214 2113.43 373.572C2112.47 373.572 2111.52 373.572 2110.54 373.572C2110.54 356.584 2110.54 336.571 2110.54 322.879L2100.43 322.346L2097.54 323.413C2095.76 323.413 2095.69 325.275 2095.69 327.213V354.362C2094.26 354.362 2091.8 354.362 2090.32 354.362C2090.32 355.067 2090.32 355.771 2090.32 356.497C2088.89 356.497 2087.46 356.497 2085.99 356.497C2085.91 353.347 2085.88 350.197 2085.83 347.047V318.216C2085.83 318.216 2083.87 306.54 2070.11 307.405C2056.34 308.27 2062.97 331.178 2060 343.156H2057.86C2057.86 344.44 2058.37 345.81 2060 345.825C2060.57 352.204 2060.08 358.65 2060 365.034C2058.57 365.034 2057.14 365.034 2055.66 365.034C2055.69 364.528 2055.72 364.022 2055.75 363.5C2055.75 361.211 2052.78 363.5 2052.78 360.569V353.829C2052.78 353.829 2052.78 352.228 2049.89 352.228L2039.78 353.295C2039.78 356.077 2037.23 353.727 2037.16 356.719V375.092C2037.16 377.574 2035.45 375.328 2035.45 378.858V405.055C2034.49 405.055 2033.54 405.055 2032.56 405.055C2032.84 399.428 2032.56 388.162 2032.56 388.162C2032.56 383.661 2032.6 382.066 2023 382.066L2016.43 348.697C2015.47 348.521 2014.77 348.237 2013.79 348.056V326.081H2022.45C2022.45 325.377 2022.45 324.139 2022.45 323.413C2019.96 323.183 2016.67 323.603 2016.67 321.812C2013.79 321.812 2009.45 321.425 2009.45 319.678C2007.55 319.678 2005.64 319.678 2003.68 319.678C2003.68 322.603 1994.89 321.31 1990.68 322.346C1990.41 323.747 1990.41 323.747 1990.68 325.014C1993.64 325.151 1992.66 323.541 1994.19 325.014L1995.01 374.106C1994.06 374.106 1993.11 374.106 1992.12 374.106C1992.29 369.483 1992.21 364.855 1992.12 360.232H1986.35C1985.87 361.112 1985.4 361.993 1984.9 362.9C1983.95 362.9 1983.55 362.9 1982.57 362.9C1981.06 367.071 1981.06 366.986 1977.68 374.106C1976.73 372.873 1975.98 371.64 1974.99 370.37C1973.09 370.37 1970.98 370.37 1969.02 370.37C1969.13 367.942 1969.16 359.788 1969.27 357.36C1969.27 356.077 1968.93 355.429 1966.13 355.429C1965.18 355.429 1964.23 355.429 1963.24 355.429C1963.24 354.725 1963.24 354.021 1963.24 353.295C1959.87 353.272 1956.5 353.273 1953.13 353.295C1950.89 354.124 1950.89 356.202 1953.13 357.03C1953.69 360.907 1953.22 364.885 1953.13 368.77C1952.18 368.77 1951.22 368.77 1950.23 368.77C1950.23 368.77 1950.35 391.906 1950.35 403.454C1950.35 403.454 1943.2 403.454 1941.72 403.454V398.973C1941.58 397.584 1941.72 397.146 1940.14 396.517C1935.81 396.517 1935.81 395.221 1935.81 392.782C1929.78 392.782 1932.05 390.535 1931.47 386.879C1929.57 387.055 1926.93 386.697 1924.97 386.879C1924.97 390.408 1922.98 393.938 1919.12 393.938V413.593C1912.45 413.593 1903.69 413.593 1896.82 413.593C1896.85 407.822 1896.82 367.169 1896.82 367.169C1892.77 367.169 1889.6 367.169 1889.6 367.169L1885.26 404.521C1877.47 400.997 1870.9 401.638 1862.16 405.055C1862.16 407.696 1862.16 410.338 1862.16 413.059C1855.01 413.059 1840.5 413.059 1840.5 413.059C1840.5 392.386 1840.5 352.761 1840.5 352.761C1840.5 352.761 1831.46 352.761 1830.48 352.761C1819.87 361.852 1825.19 397.812 1824.61 412.525C1822.23 412.525 1811.18 412.525 1808.73 412.525V374.686C1808.25 374.158 1804.19 371.982 1803.7 371.438H1792.84V412.525C1788.55 412.525 1783.59 412.525 1779.17 412.525V406.366C1778.86 403.879 1777.93 401.733 1776.12 399.324C1774.75 396.609 1774.73 394.442 1774.9 391.692C1774.97 390.455 1775.65 388.574 1775.69 387.337C1775.73 386.795 1775.76 386.252 1775.8 385.692C1775.51 384.216 1775.51 382.11 1772.62 382.11C1769.83 382.277 1766.65 385.55 1763.67 385.916V412.525H1759.63C1759.63 412.525 1759.63 412.003 1759.63 411.458H1755.3V410.391H1752.41V412.525H1749.13V373.572C1748.18 373.572 1747.08 373.572 1746.1 373.572C1750.07 367.772 1747.9 361.232 1735.49 361.531C1734.94 362.415 1735.49 361.472 1735.08 362.366C1739.16 363.875 1733.47 370.836 1737 373.572L1734.48 373.403V400.252H1730.75V398.652H1727.86V400.252C1719.82 400.252 1718.61 404.324 1718.61 409.018H1703.15C1700.12 409.018 1698.98 409.66 1698.98 414.66H1690.31C1690.31 415.188 1690.31 418.384 1690.31 418.929C1689.36 418.929 1688.41 418.929 1687.42 418.929C1687.42 417.155 1687.42 414.66 1687.42 414.66C1687.42 414.66 1679.71 414.66 1677.32 414.66C1677.32 413.831 1676.37 413.059 1674.43 413.059C1674.43 410.943 1672.79 409.324 1668.82 409.324V385.922C1668.82 384.954 1667.78 383.177 1665.76 383.177H1663.23C1662.22 383.177 1659.82 384.193 1659.85 386.237V401.32H1655.65V397.051C1642.52 397.051 1643.12 409.095 1639.77 415.193H1633.99V382.643H1636.88V378.375H1639.77V376.24L1632.55 375.707V374.639H1629.66V375.707H1623.89V359.698C1621.98 359.698 1617.68 359.698 1615.72 359.698V367.805C1615.74 370.194 1611.5 368.59 1611.5 370.547V386.963C1611.51 389.322 1606.64 387.262 1606.64 390.089V405.055H1600.78V403.454H1597.54C1596.52 400.653 1593.61 399.071 1588.96 399.071L1587.78 393.849C1586.35 393.849 1584.92 393.849 1583.45 393.849C1583.45 395.082 1583.45 396.314 1583.45 397.584C1581.07 397.584 1578.69 397.584 1576.23 397.584C1576.23 397.232 1576.23 396.88 1576.23 396.517C1571.78 396.505 1569.75 397.584 1569.75 399.713V412.525C1559.14 412.547 1551.68 412.439 1551.68 419.462H1498.25V416.794C1498.25 416.794 1495.02 414.787 1492.45 414.793C1489.89 414.8 1486.7 416.794 1486.7 416.794V419.462C1486.7 419.462 1422.61 417.754 1391.39 418.395C1391.39 428.608 1391.39 438.822 1391.39 449.344C1776.68 449.608 1776.68 449.608 2169.75 449.878C2170.7 450.582 2171.65 451.287 2172.63 452.012C2173.17 451.666 2173.7 451.319 2174.26 450.962C2176.76 449.743 2176.76 449.743 2180.87 449.61C2182.46 449.61 2184.06 449.61 2185.7 449.609C2187.54 449.604 2189.38 449.598 2191.28 449.593C2193.34 449.597 2195.4 449.602 2197.46 449.607C2199.64 449.604 2201.83 449.601 2204.01 449.597C2210.06 449.588 2216.1 449.592 2222.15 449.598C2228.71 449.603 2235.27 449.595 2241.83 449.589C2253.34 449.58 2264.86 449.578 2276.37 449.582C2293.49 449.588 2310.61 449.581 2327.73 449.572C2356.52 449.558 2385.31 449.553 2414.11 449.553C2442.63 449.554 2471.15 449.55 2499.67 449.541C2502.33 449.54 2502.33 449.54 2505.04 449.539C2514.03 449.536 2523.03 449.533 2532.02 449.53C2595.79 449.508 2659.55 449.495 2723.32 449.489C2738.78 449.487 2754.24 449.486 2769.7 449.484C2770.66 449.484 2771.62 449.484 2772.61 449.484C2817.17 449.479 2861.73 449.468 2906.3 449.456C2909.19 449.455 2912.08 449.454 2914.97 449.454C2934.14 449.448 2953.31 449.443 2972.48 449.438C3011.53 449.427 3050.58 449.416 3089.64 449.407C3091.43 449.406 3093.23 449.406 3095.08 449.405C3215.04 449.375 3335.01 449.359 3454.98 449.344C3454.98 442.301 3454.98 435.257 3454.98 428C3428.98 426.933 3428.98 426.933 3420.32 426.933C3419.84 426.228 3419.37 425.524 3418.87 424.798C3416.02 424.798 3413.16 424.798 3410.21 424.798C3409.73 425.679 3409.26 426.559 3408.77 427.466C3402.81 427.497 3396.85 427.516 3390.9 427.533C3389.2 427.542 3387.5 427.551 3385.75 427.56C3384.13 427.564 3382.51 427.567 3380.84 427.571C3379.35 427.576 3377.85 427.582 3376.31 427.588C3330.74 427.77 3358.94 426.399 3332.23 426.399L3306.24 424.265C3292.04 424.265 3289.69 408.654 3271.58 408.654C3271.58 407.422 3271.58 404.724 3271.58 403.454C3271.58 399.367 3266.5 392.323 3247.3 392.323C3228.61 392.323 3223.03 401.941 3223.75 408.654H3204.86V396.772L3202.51 393.539V380.089C3202.33 374.528 3190.98 374.528 3190.98 380.089C3190.98 380.089 3191.26 389.939 3190.98 393.539L3189.27 395.984C3189.27 395.984 3189.18 404.167 3189.27 408.204C3172.9 408.214 3156.53 408.204 3140.17 408.204V381.576C3138.74 381.576 3135.86 381.576 3134.39 381.576C3133.91 380.872 3133.44 380.167 3132.95 379.442C3132.47 379.442 3131.99 379.442 3131.5 379.442L3130.27 385.76L3130.06 410.925C3126.54 410.925 3122.5 411.231 3122.5 416.261H3096.85C3096.85 415.556 3096.85 414.852 3096.85 414.126C3095.89 414.126 3094.94 414.126 3093.96 414.126C3093.48 413.07 3093 412.013 3092.51 410.925C3090.13 410.749 3087.75 410.572 3085.29 410.391C3084.34 411.976 3083.39 413.561 3082.4 415.193C3080.5 415.193 3081.01 417.861 3079.04 417.861C3078.57 410.114 3078.54 393.746 3078.54 391.181C3078.54 388.616 3067.96 388.987 3067.96 391.181L3067.42 401.592C3066.47 401.592 3063.63 401.853 3063.63 401.853V418.929C3057.91 418.753 3052.19 418.577 3046.3 418.395V413.059H3037.64V415.193C3037.64 415.193 3034.29 415.193 3033.31 415.193C3033.31 414.489 3033.31 413.785 3033.31 413.059C3030.45 413.059 3027.59 413.059 3024.64 413.059C3024.64 412.707 3024.64 412.355 3024.64 411.992C3023.21 411.992 3023.17 411.992 3021.7 411.992V386.912C3021.7 385.279 3012.85 384.909 3012.85 386.912V414.126C3010.95 414.126 3006.39 414.126 3004.42 414.126C3004.42 414.478 3004.42 414.831 3004.42 415.193C3002.99 415.193 3001.56 415.193 3000.09 415.193C3000.09 416.074 3000.09 416.954 3000.09 417.861C2997.23 417.861 2994.37 417.861 2991.43 417.861C2991.43 418.214 2991.43 418.566 2991.43 418.929C2988.57 418.929 2984.47 418.929 2981.52 418.929C2981.52 410.862 2981.42 395.2 2981.52 387.133C2981.52 383.949 2981.52 383.641 2976.99 383.641V369.837C2972.03 366.505 2964.73 366.505 2959.76 369.837V383.641C2957.78 383.641 2956.49 383.426 2956.49 387.133C2956.49 389.786 2956.41 391.884 2956.49 393.926C2956.49 393.926 2956.64 403.48 2956.77 408.257C2952.44 408.257 2952.44 409.896 2952.44 414.66C2948.1 414.66 2948.1 414.419 2948.1 417.328H2924.66C2924.58 409.885 2924.93 380.509 2916.34 380.509C2914.43 380.509 2912.52 380.509 2910.56 380.509C2910.56 380.509 2905.08 368.596 2886.01 368.596C2886.01 368.596 2886.01 361.181 2886.01 352.761C2886.01 352.761 2878.87 329.65 2873.01 322.879C2870.63 322.879 2868.25 322.879 2865.79 322.879V357.03C2851.44 357.03 2831.3 357.03 2816.95 357.03C2817.05 355.144 2816.84 353.257 2816.95 351.371L2813.81 345.825C2813.81 345.825 2812.15 342.902 2811.46 341.422C2811.27 341.025 2811.07 340.627 2810.87 340.217C2810.4 339.241 2809.68 337.73 2809.22 336.753H2805.14C2805.14 336.401 2805.14 336.049 2805.14 335.686C2803.71 335.686 2802.28 335.686 2800.81 335.686C2800.81 336.038 2800.81 336.39 2800.81 336.753C2799.86 336.753 2798.9 336.753 2797.92 336.753C2797.92 334.992 2797.92 331.951 2797.92 331.951H2795.03C2795.03 331.951 2794.76 339.6 2794.34 343.386C2794.34 343.386 2786.67 343.386 2777.39 343.386V301.122C2777.39 294.819 2754.6 294.448 2754.6 301.122V343.386H2750.27V296.442C2750.27 287.735 2724.1 286.663 2724.1 296.442V343.156C2696.42 343.156 2698.28 352.228 2698.28 352.228C2697.8 353.806 2697.32 355.385 2696.84 356.964C2696.7 357.413 2696.56 357.862 2696.42 358.325C2696.29 358.755 2696.16 359.185 2696.02 359.627C2695.9 360.024 2695.78 360.421 2695.66 360.83C2695.39 361.833 2695.39 361.833 2695.39 362.9C2691.58 362.9 2687.77 362.9 2683.84 362.9C2683.84 348.14 2692.13 340.414 2679.33 335.686V302.506C2679.33 296.302 2654.28 295.947 2654.21 304.21C2654.21 304.21 2653.95 325.201 2653.91 335.686H2647.74C2647.74 335.686 2647.92 321.168 2647.92 314.098C2647.86 313.742 2645.06 311.869 2645 311.502V298.333C2645 292.965 2628.24 292.595 2628.24 297.869C2628.24 297.869 2629.03 346.025 2628.24 359.627L2595.79 360.169C2595.7 359.627 2597.63 340.154 2597.54 339.601C2597.35 338.419 2597.18 337.236 2597.01 336.053C2596.89 335.234 2596.76 334.415 2596.64 333.596C2595.98 329.119 2595.54 324.659 2595.7 320.175C2595.83 315.911 2595.53 311.652 2595.21 307.39C2595.15 306.539 2595.09 305.688 2595.03 304.837C2594.95 303.637 2593.56 302.322 2593.46 301.122V260.711C2593.46 242.545 2589.93 260.34 2589.93 242.545C2589.93 226.974 2587.4 242.174 2587.4 226.974C2581.84 226.974 2589.42 218.076 2581.84 218.826C2580.43 218.966 2576.75 218.826 2575.27 218.826C2567.19 218.826 2574.93 226.974 2569.21 226.974C2569.21 243.286 2566.87 226.974 2566.87 242.545C2566.87 260.462 2563.65 242.794 2563.65 260.711V278.507C2562.7 278.507 2563.52 282.325 2562.54 282.325C2562.56 283.239 2562.56 283.239 2562.59 284.172C2562.68 289.14 2562.47 294.087 2561.86 299.051C2560.85 307.991 2560.61 316.935 2560.32 325.881C2560.25 328.139 2560.17 330.397 2560.09 332.655C2559.94 337.045 2559.79 341.435 2559.65 345.825C2558.69 345.825 2557.74 345.825 2556.76 345.825C2556.76 338.605 2556.76 331.385 2556.76 323.947C2555.81 323.771 2554.85 323.594 2553.87 323.413C2552.45 324.983 2552.21 326.054 2552.13 327.694C2552.1 328.238 2552.07 328.783 2552.04 329.344C2552.02 329.931 2552 330.518 2551.97 331.123C2551.94 331.725 2551.91 332.327 2551.88 332.947C2551.79 334.871 2551.7 336.796 2551.62 338.721C2551.55 340.025 2551.49 341.328 2551.43 342.632C2551.27 345.831 2551.12 349.029 2550.98 352.228C2549.55 352.228 2548.12 352.228 2546.65 352.228C2546.17 353.108 2545.7 353.989 2545.21 354.896C2545.02 354.221 2544.82 353.546 2544.63 352.851C2544.37 351.965 2544.11 351.079 2543.85 350.193C2543.73 349.749 2543.6 349.304 2543.47 348.846C2543.35 348.418 2543.22 347.989 2543.09 347.548C2542.92 346.957 2542.92 346.957 2542.75 346.354C2542.32 345.291 2542.32 345.291 2540.87 343.69C2542.3 343.69 2543.73 343.69 2545.21 343.69C2544.25 342.81 2543.3 341.929 2542.32 341.022C2541.37 341.022 2540.41 341.022 2539.43 341.022C2539.43 334.683 2539.43 328.344 2539.43 321.812C2540.86 321.812 2542.29 321.812 2543.76 321.812C2543.76 321.108 2543.76 320.403 2543.76 319.678C2540.9 319.502 2538.04 319.326 2535.1 319.144C2535.1 316.327 2535.1 313.509 2535.1 310.606C2537.48 310.43 2539.86 310.254 2542.32 310.073C2542.32 309.545 2542.32 309.016 2542.32 308.472C2539.46 308.472 2536.6 308.472 2533.65 308.472C2533.65 307.592 2533.65 306.711 2533.65 305.804C2530.32 305.804 2526.98 305.804 2523.55 305.804C2523.55 306.508 2523.55 307.213 2523.55 307.938C2521.64 307.938 2519.73 307.938 2517.77 307.938C2517.87 307.421 2517.98 306.904 2518.09 306.371C2520.73 292.545 2520.73 292.545 2517.77 289.262C2516.82 289.262 2515.86 289.262 2514.88 289.262C2514.88 299.828 2514.88 310.393 2514.88 321.279C2513.45 321.102 2512.02 320.926 2510.55 320.745C2510.64 319.92 2510.64 319.92 2510.73 319.077C2510.55 317.01 2510.55 317.01 2509.01 315.442C2507.57 313.695 2508.09 312.619 2508.86 310.848C2509.41 307.907 2507.53 304.96 2506.22 302.069C2505.96 301.459 2505.7 300.848 2505.43 300.22C2503.57 295.935 2503.57 295.935 2501.88 294.065C2500.93 294.065 2496.42 295.665 2495.44 295.665C2495.44 295.665 2496.45 229.018 2489.37 229.498C2489.19 218.523 2489.37 192.043 2479.77 192.043C2479.77 183.778 2479.77 158.11 2479.77 158.11L2474.22 153.938L2468.85 158.11ZM2486 307.938C2486.08 309.506 2486.14 311.073 2486.18 312.641C2486.2 313.086 2486.23 313.53 2486.25 313.988C2486.26 314.417 2486.27 314.845 2486.28 315.286C2486.3 315.68 2486.31 316.074 2486.33 316.48C2486.17 317.713 2486.17 317.714 2483.11 319.144C2482.64 316.679 2482.16 314.214 2481.67 311.674C2482.62 311.674 2483.57 311.674 2484.56 311.674C2484.56 310.441 2484.56 309.208 2484.56 307.938C2485.03 307.938 2485.51 307.938 2486 307.938ZM2483.11 325.014C2484.31 327.702 2484.71 330.25 2484.65 332.985C2484.64 333.35 2484.63 333.714 2484.63 334.09C2484.61 334.978 2484.58 335.866 2484.56 336.753C2483.6 336.753 2482.65 336.753 2481.67 336.753C2481.67 332.879 2481.67 329.005 2481.67 325.014C2482.14 325.014 2482.62 325.014 2483.11 325.014ZM2113.43 375.173C2113.43 378.695 2113.43 382.217 2113.43 385.845C2112.47 385.845 2111.52 385.845 2110.54 385.845C2110.54 382.323 2110.54 378.801 2110.54 375.173C2111.49 375.173 2112.45 375.173 2113.43 375.173Z" fill="#A591BF"/>
<path d="M3727.66 493.775L3699 493.775C3699 493.775 3730.8 504.324 3736.03 529.303C3790.94 791.465 3751.12 1349.51 3751.12 1349.51H3848.86C3838.39 1112.45 3815.51 493.775 3751.12 493.775H3727.66Z" fill="url(#paint2_linear_255_32428)"/>
<path d="M4227.51 483.999L4212.02 483.999C4212.02 483.999 4229.2 493.023 4232.03 514.389C4261.71 738.644 4240.19 1216 4240.19 1216H4293.02C4287.36 1013.22 4274.99 483.999 4240.19 483.999H4227.51Z" fill="url(#paint3_linear_255_32428)"/>
<path d="M2670.09 534.237C2664.74 534.237 2628.72 530.626 2628.72 530.626C2628.72 530.626 2673.33 560 2680.44 585.555C2754.89 853.253 2695.53 1351.97 2695.53 1351.97H2793.32C2782.84 1130.45 2771.79 534.237 2707.37 534.237H2670.09Z" fill="url(#paint4_linear_255_32428)"/>
<path d="M3873.72 1276.84C3866.26 1276.84 3848.41 1302.04 3840.42 1314.64C3861.28 1319.24 3902.49 1330.63 3900.35 1339.35C3898.22 1348.07 3942.98 1356.06 3965.62 1358.97C3985.15 1359.46 4023.96 1358.1 4022.89 1348.8C4021.56 1337.17 4032.22 1321.18 4049.53 1318.27C4063.38 1315.94 4083.72 1314.88 4092.15 1314.64C4076.61 1297.68 4045.53 1262.74 4045.53 1258.67C4045.53 1254.6 3998.47 1232.75 3974.94 1222.33L3948.3 1235.41C3951.86 1231.78 3956.83 1224.07 3948.3 1222.33C3939.78 1220.59 3899.47 1245.83 3880.38 1258.67C3881.26 1264.73 3881.17 1276.84 3873.72 1276.84Z" fill="#725A82"/>
<path d="M4123.21 1241.65C4118.37 1242.33 4108.93 1259.07 4104.81 1267.35C4118.72 1268.21 4146.39 1271.28 4145.75 1276.7C4145.1 1282.13 4174.79 1282.84 4189.71 1282.52C4202.41 1281.03 4227.45 1276.67 4225.98 1271.19C4224.13 1264.34 4229.69 1253.78 4240.67 1250.46C4249.45 1247.8 4262.54 1245.31 4267.99 1244.4C4256.49 1235.64 4233.4 1217.53 4233.05 1215.09C4232.71 1212.65 4200.36 1203.84 4184.23 1199.74L4168.06 1210.01C4170.06 1207.51 4172.63 1202.44 4166.96 1202.17C4161.29 1201.9 4137.28 1220.71 4125.99 1230.15C4127.08 1233.7 4128.04 1240.97 4123.21 1241.65Z" fill="#725A82"/>
<path d="M4298.21 1205.65C4293.37 1206.33 4283.93 1223.07 4279.81 1231.35C4293.72 1232.21 4321.39 1235.28 4320.75 1240.7C4320.1 1246.13 4349.79 1246.84 4364.71 1246.52C4377.41 1245.03 4402.45 1240.67 4400.98 1235.19C4399.13 1228.34 4404.69 1217.78 4415.67 1214.46C4424.45 1211.8 4437.54 1209.31 4442.99 1208.4C4431.49 1199.64 4408.4 1181.53 4408.05 1179.09C4407.71 1176.65 4375.36 1167.84 4359.23 1163.74L4343.06 1174.01C4345.06 1171.51 4347.63 1166.44 4341.96 1166.17C4336.29 1165.9 4312.28 1184.71 4300.99 1194.15C4302.08 1197.7 4303.04 1204.97 4298.21 1205.65Z" fill="#725A82"/>
<path d="M3339.81 1300.41C3328.84 1301.59 3298.76 1346.88 3289.43 1361.26C3320.98 1362.74 3376.87 1372.37 3375.41 1381.78C3373.95 1391.2 3456.76 1371.91 3490.6 1371.35C3519.41 1368.76 3576.18 1361.21 3572.84 1351.69C3568.66 1339.8 3581.26 1321.47 3606.16 1315.7C3626.07 1311.09 3655.76 1306.76 3668.11 1305.17C3642.02 1289.98 3589.66 1258.53 3588.88 1254.3C3588.11 1250.06 3514.75 1234.76 3478.17 1227.64L3441.52 1245.48C3446.04 1241.13 3451.88 1232.33 3439.02 1231.86C3426.15 1231.4 3371.73 1264.06 3346.12 1280.44C3348.58 1286.61 3350.77 1299.23 3339.81 1300.41Z" fill="#644973"/>
<path d="M3007.27 1276.28C2998.38 1276.02 2976.01 1296.64 2965.94 1306.99C2990.61 1311.62 3039.22 1322.72 3036.3 1330C3033.38 1337.29 3086.38 1345.65 3113.24 1348.92C3136.5 1350.03 3182.81 1350.29 3181.95 1342.4C3180.87 1332.53 3194.26 1319.42 3215.03 1317.59C3231.64 1316.12 3212.7 1298.5 3222.77 1298.6C3204.99 1283.73 3212.68 1270.57 3212.86 1267.14C3213.04 1263.7 3157.89 1243.56 3130.3 1233.92L3097.98 1244C3102.37 1241.06 3108.63 1234.74 3098.55 1232.96C3088.46 1231.18 3039.31 1251.04 3016 1261.19C3016.79 1266.33 3016.16 1276.55 3007.27 1276.28Z" fill="#644973"/>
<path d="M3465.49 499.586C3465.49 499.586 3467.98 515.582 3465.49 525.631C3463.01 535.679 3439.95 533.247 3446.31 539.113L3440.25 574.606C3440.97 587.891 3441.02 618.453 3435.49 634.428C3429.95 650.402 3427.05 676.976 3426.29 688.266C3433.02 719.63 3413.9 760.848 3417 763.213C3419.49 765.105 3417.87 798.489 3416.75 814.944C3408.74 838.255 3392.31 887.269 3390.68 896.84C3388.63 908.804 3382.03 974.835 3384.63 977.912C3386.7 980.373 3381 1029.57 3377.9 1053.86C3375.44 1099.42 3370.06 1192.44 3368.15 1199.96C3366.24 1207.48 3367.1 1256.35 3367.76 1279.84L3336.85 1301.19C3341.03 1234.89 3312.76 1053.18 3321.77 1005.85C3330.79 958.518 3331.64 868.195 3330.93 828.949C3328.45 823.689 3324.36 812.204 3327.82 808.353C3332.15 803.54 3333.92 770.382 3331.32 767.305C3329.25 764.843 3335.29 727.329 3338.57 708.88C3338.57 708.88 3333.92 671.185 3336.85 645.924C3339.12 626.378 3347.92 597.071 3347.92 597.071C3358.16 577.715 3351.37 561.758 3365.34 552.15C3359.16 540.384 3352.81 530.332 3354 525.632C3354.95 521.872 3372.16 513.003 3378.05 511.997L3402.08 499.586L3465.49 499.586Z" fill="url(#paint5_linear_255_32428)"/>
<path d="M3672.33 505.662C3670.47 508.331 3666.97 514.699 3667.81 518.816C3669.87 528.96 3659.11 539.041 3652.52 544.636L3657.09 580.352C3655.81 593.595 3654.48 624.128 3659.34 640.32C3664.2 656.512 3665.99 683.184 3666.27 694.496C3658.24 725.551 3675.62 767.534 3672.42 769.766C3669.85 771.552 3670.08 804.975 3670.51 821.463C3677.53 845.089 3691.89 894.747 3693.12 904.379C3694.67 916.418 3698.49 982.667 3695.77 985.633C3693.6 988.005 3697.23 1037.39 3699.32 1061.79C3699.86 1107.42 3701.35 1200.58 3702.94 1208.18C3704.53 1215.77 3701.63 1264.56 3699.98 1288L3770.38 1275.03C3768.98 1208.61 3764.43 1063.85 3757.4 1016.18C3750.37 968.509 3753.31 878.23 3755.66 839.049C3758.36 833.897 3762.93 822.594 3759.63 818.601C3755.5 813.61 3755.13 780.408 3757.85 777.442C3760.02 775.069 3755.56 737.335 3753.05 718.765C3753.05 718.765 3759.28 681.298 3757.41 655.937C3755.96 636.313 3748.39 606.663 3748.39 606.663C3738.98 586.895 3746.43 571.236 3732.87 561.052C3739.54 549.555 3722.27 538.769 3721.28 534.023C3720.48 530.227 3708.6 526.774 3702.76 525.523L3698.37 506.996L3672.33 505.662Z" fill="url(#paint6_linear_255_32428)"/>
<path d="M3918.79 1273.94C3920.51 1271.19 3923.71 1264.66 3922.68 1260.59C3920.14 1250.55 3930.41 1239.97 3936.73 1234.07L3930.48 1198.61C3931.13 1185.33 3931.03 1154.76 3925.41 1138.82C3919.79 1122.87 3916.75 1096.32 3915.93 1085.03C3922.49 1053.63 3903.15 1012.51 3906.24 1010.13C3908.71 1008.23 3906.92 974.853 3905.71 958.404C3897.58 935.136 3880.89 886.21 3879.21 876.648C3877.1 864.695 3870.15 798.7 3872.73 795.609C3874.79 793.137 3868.83 743.974 3865.59 719.702C3862.9 674.147 3857.02 581.159 3855.07 573.649C3853.12 566.139 3854.53 533.545 3855.07 510.05L3784.56 510.05C3789.08 576.333 3800.46 720.721 3809.73 768.005C3819 815.289 3820.32 905.606 3819.82 944.854C3817.37 950.128 3813.34 961.634 3816.82 965.467C3821.18 970.257 3823.12 1003.41 3820.54 1006.5C3818.48 1008.97 3824.72 1046.45 3828.1 1064.88C3828.1 1064.88 3823.65 1102.6 3826.71 1127.85C3829.08 1147.38 3838.04 1176.64 3838.04 1176.64C3848.38 1195.94 3841.68 1211.93 3855.7 1221.47C3849.58 1233.27 3867.33 1243.23 3868.55 1247.92C3869.52 1251.67 3881.56 1254.56 3887.45 1255.54L3892.71 1273.84L3918.79 1273.94Z" fill="url(#paint7_linear_255_32428)"/>
<path d="M3581.69 527.064C3456.83 636.27 1985.05 581.667 1985.05 581.667H-35V441.367H3318.07C3318.07 441.367 3656.75 461.406 3581.69 527.064Z" fill="url(#paint8_linear_255_32428)"/>
<path d="M3453.53 515.857C3361.65 556.519 2278.55 536.188 2278.55 536.188L1686.18 483.949H3259.53C3259.53 483.949 3508.77 491.411 3453.53 515.857Z" fill="url(#paint9_linear_255_32428)"/>
<path d="M-62.9999 577C-62.9999 577 2374.64 597.612 2356.56 557.05C2737.76 601.128 3571.19 505.141 3600.09 505.141C3629 505.141 3596.49 614.2 3600.09 861.284C3619.89 1014.99 3564.46 1168.81 3557.17 1208.57L3556.4 1214.86C3621.19 1145.55 3656.34 1272.11 3656.34 1272.11C3656.34 1409.16 3701.39 1331.25 3359.02 1368.54C3013.95 1309.62 2656.21 1337.76 2393.7 1377.92C2393.7 1116.13 2046.49 1214.86 2046.49 1214.86C2046.49 1214.86 1969 1214.85 1901 1377.92L1829 1613L-67.0019 1581L-62.9999 577Z" fill="url(#paint10_linear_255_32428)"/>
<path d="M3310.43 579.574C3255.64 834.305 3295.37 1376.53 3295.37 1376.53H3197.84C3208.29 1146.19 3208 549.486 3268.06 516.626C3273.29 513.765 3327.08 516.095 3359.71 514.483C3371.76 503.892 3381.94 499.235 3384.5 508.802C3385.39 512.146 3374.82 513.737 3359.71 514.483C3339.02 532.682 3312.84 568.4 3310.43 579.574Z" fill="url(#paint11_linear_255_32428)"/>
<path d="M2435.39 1311.88C2424.33 1311.88 2397.85 1337.67 2386 1350.56C2416.95 1355.27 2478.07 1366.93 2474.91 1375.86C2471.75 1384.78 2538.13 1392.97 2571.72 1395.94C2600.69 1396.44 2658.25 1395.05 2656.67 1385.53C2654.7 1373.62 2670.5 1357.26 2696.19 1354.28C2716.74 1351.9 2665.01 1339.77 2677.52 1339.53C2654.47 1322.17 2690.26 1297.45 2690.26 1293.28C2690.26 1289.12 2620.45 1266.75 2585.55 1256.09L2546.03 1269.48C2551.3 1265.76 2558.68 1257.87 2546.03 1256.09C2533.39 1254.3 2473.59 1280.14 2445.27 1293.28C2446.59 1299.48 2446.46 1311.88 2435.39 1311.88Z" fill="#654B73"/>
<path d="M2812.67 1319.37C2802.01 1321.6 2839.34 1366.15 2832.61 1380.97C2864.13 1379.25 2873.77 1363.79 2873.96 1373.03C2874.16 1382.28 2941.08 1376.74 2974.51 1372.82C3002.61 1367.44 3057.55 1354.46 3052.57 1345.61C3046.35 1334.53 3055.63 1315.56 3079.29 1307.5C3098.22 1301.06 3126.88 1293.91 3138.84 1291.14C3110.33 1279.07 3052.94 1253.93 3051.43 1249.91C3049.92 1245.9 2974.55 1238.46 2937.05 1235.24L2903.85 1256.13C2907.57 1251.48 2911.81 1242.39 2898.99 1243.22C2886.16 1244.06 2837.94 1281.05 2815.43 1299.45C2818.95 1305.15 2823.32 1317.13 2812.67 1319.37Z" fill="#654B73"/>
<path d="M3159.87 537.011C3159.94 532.088 3160.62 528.335 3160.82 529.692C3161.18 532.195 3160.78 534.652 3159.87 537.011C3159.74 547.176 3162.23 562.334 3177 547.839L3190 538.325L3195.34 538.325C3201.1 539.899 3212.78 544.004 3213.36 547.839C3214.09 552.633 3230.73 564.359 3223.44 575.468C3236.41 586.388 3228.1 601.61 3236.41 621.869C3236.41 621.869 3242.32 651.893 3242.68 671.567C3243.14 696.993 3234.85 734.057 3234.85 734.057C3236.32 752.738 3238.69 790.662 3236.38 792.91C3233.5 795.72 3232.04 828.893 3235.88 834.105C3238.95 838.274 3233.76 849.306 3230.78 854.301C3226.27 893.292 3218.33 983.27 3222.71 1031.25C3227.08 1079.24 3223.6 1224.03 3221.32 1290.43L3150.31 1299.48C3153.26 1276.16 3158.86 1227.61 3157.69 1219.94C3156.52 1212.27 3160.2 1119.17 3162.19 1073.58C3161.45 1049.1 3160.56 999.589 3162.87 997.341C3165.75 994.53 3165.59 928.171 3164.72 916.065C3164.03 906.38 3152.44 856.002 3146.74 832.023C3147.22 815.537 3148.85 782.153 3151.51 780.512C3154.83 778.46 3139.8 735.579 3149.54 705.017C3149.89 693.706 3149.58 666.976 3145.62 650.54C3141.67 634.103 3144.69 603.691 3146.7 590.539L3144.12 554.625C3149.33 550.68 3157.05 544.308 3159.87 537.011Z" fill="url(#paint12_linear_255_32428)"/>
<path d="M4265.75 490.699C4205.4 511.979 3503 497.999 3503 497.999L3419.5 488.999L3368 497.999L3336 479.999L3288 473.999H4138.34C4138.34 473.999 4302.03 477.904 4265.75 490.699Z" fill="url(#paint13_linear_255_32428)"/>
<defs>
<linearGradient id="paint0_linear_255_32428" x1="3471.35" y1="1201.3" x2="3513.54" y2="1597.18" gradientUnits="userSpaceOnUse">
<stop stop-color="#C8ADDD"/>
<stop offset="1" stop-color="#9875A4"/>
</linearGradient>
<linearGradient id="paint1_linear_255_32428" x1="3890.41" y1="536.646" x2="3902.47" y2="1300.04" gradientUnits="userSpaceOnUse">
<stop stop-color="#7E6D9F"/>
<stop offset="0.335" stop-color="#816498"/>
<stop offset="1" stop-color="#6A5578"/>
</linearGradient>
<linearGradient id="paint2_linear_255_32428" x1="3740.69" y1="548.774" x2="3743.37" y2="1091.12" gradientUnits="userSpaceOnUse">
<stop stop-color="#AF91C0"/>
<stop offset="1" stop-color="#AD8EBD"/>
</linearGradient>
<linearGradient id="paint3_linear_255_32428" x1="4234.55" y1="531.045" x2="4238.18" y2="994.953" gradientUnits="userSpaceOnUse">
<stop stop-color="#AF91C0"/>
<stop offset="1" stop-color="#AD8EBD"/>
</linearGradient>
<linearGradient id="paint4_linear_255_32428" x1="2685.09" y1="603.749" x2="2687.44" y2="1110.52" gradientUnits="userSpaceOnUse">
<stop stop-color="#AE95CE"/>
<stop offset="1" stop-color="#BB9FCE"/>
</linearGradient>
<linearGradient id="paint5_linear_255_32428" x1="3433.69" y1="569.113" x2="3353.57" y2="1280.96" gradientUnits="userSpaceOnUse">
<stop stop-color="#7A6A9B"/>
<stop offset="0.415" stop-color="#775B89"/>
<stop offset="1" stop-color="#644973"/>
</linearGradient>
<linearGradient id="paint6_linear_255_32428" x1="3728.29" y1="1202.44" x2="3982.62" y2="673.134" gradientUnits="userSpaceOnUse">
<stop stop-color="#715A80"/>
<stop offset="0.665" stop-color="#816497"/>
<stop offset="1" stop-color="#7F6C9E"/>
</linearGradient>
<linearGradient id="paint7_linear_255_32428" x1="3830.02" y1="580.578" x2="3600.94" y2="1121.29" gradientUnits="userSpaceOnUse">
<stop stop-color="#7F6C9E"/>
<stop offset="0.335" stop-color="#816497"/>
<stop offset="1" stop-color="#715A80"/>
</linearGradient>
<linearGradient id="paint8_linear_255_32428" x1="2655.74" y1="542.909" x2="2649.31" y2="438.338" gradientUnits="userSpaceOnUse">
<stop stop-color="#7A6A9B"/>
<stop offset="1" stop-color="#A591BF"/>
</linearGradient>
<linearGradient id="paint9_linear_255_32428" x1="2488.79" y1="526.899" x2="2487.7" y2="471.789" gradientUnits="userSpaceOnUse">
<stop stop-color="#B595CE"/>
<stop offset="1" stop-color="#9881B5"/>
</linearGradient>
<linearGradient id="paint10_linear_255_32428" x1="2772.75" y1="633.711" x2="2792.84" y2="1360.94" gradientUnits="userSpaceOnUse">
<stop stop-color="#79699A"/>
<stop offset="0.31" stop-color="#765A88"/>
<stop offset="1" stop-color="#5F456E"/>
</linearGradient>
<linearGradient id="paint11_linear_255_32428" x1="3305.79" y1="598.493" x2="3303.25" y2="1125.47" gradientUnits="userSpaceOnUse">
<stop stop-color="#B595CE"/>
<stop offset="1" stop-color="#B092C1"/>
</linearGradient>
<linearGradient id="paint12_linear_255_32428" x1="3155.39" y1="546.373" x2="3163.82" y2="1301.94" gradientUnits="userSpaceOnUse">
<stop stop-color="#7B6B9C"/>
<stop offset="0.26" stop-color="#785F8E"/>
<stop offset="1" stop-color="#644973"/>
</linearGradient>
<linearGradient id="paint13_linear_255_32428" x1="3632.13" y1="496.477" x2="3631.67" y2="467.631" gradientUnits="userSpaceOnUse">
<stop stop-color="#B595CE"/>
<stop offset="1" stop-color="#9881B5"/>
</linearGradient>
</defs>
</svg>
