<svg width="4682" height="2108" viewBox="0 0 4682 2108" fill="none" xmlns="http://www.w3.org/2000/svg">
<circle cx="3356.41" cy="165.415" r="165.415" fill="url(#paint0_linear_255_32433)" fill-opacity="0.6"/>
<path opacity="0.5" d="M2174.07 483.02H2129.96L2088.44 496.764L2046.93 524.253L2031.36 541.433L2020.98 534.561L1995.04 520.817H1956.12L1930.17 534.561L1914.6 548.305H1880.87L1849.74 558.614L1821.2 586.103L1805.63 617.028L1803.03 634.208L1790.06 637.644L1769.3 647.952L1764.11 630.772L1740.76 603.283L1720.01 592.975L1691.47 589.539L1673.3 568.922L1652.55 558.614L1626.6 562.05L1611.03 575.794L1598.06 592.975H1574.71L1546.17 606.719L1525.41 630.772L1515.03 654.825L1507.25 685.75L1486.49 672.005L1457.95 668.569L1432 678.877L1411.25 702.93L1403.46 723.547L1390.49 682.313L1380.11 661.697L1359.35 634.208L1330.81 617.028L1323.03 613.591H1278.92L1250.38 627.336L1224.43 654.825L1219.24 665.133L1188.11 678.877L1162.16 699.494L1146.59 716.675L1131.03 713.238H1097.3L1084.32 685.75L1063.57 661.697L1040.21 651.389H1019.46L990.915 665.133L975.348 682.313L962.374 709.802L954.591 733.855L933.833 757.908L920.86 781.96L918.266 792.269L892.319 799.141L871.562 816.321L855.995 843.81L848.211 881.607L830.048 902.224L822.264 926.277V960.638L832.643 991.563L840.427 1005.31L2711.15 1008.74L2716.34 1001.87L2713.75 964.074L2698.18 929.713L2674.83 909.096L2659.26 902.224H2641.1L2633.32 905.66V878.171L2620.34 826.63L2602.18 788.833L2578.83 754.472L2547.69 723.547L2537.31 720.111L2534.72 713.238L2490.61 692.622L2462.07 685.75H2389.42L2360.88 672.005L2334.93 665.133L2316.77 610.155L2301.2 579.23L2277.85 544.869L2249.31 517.381L2218.17 496.764L2174.07 483.02Z" fill="url(#paint1_linear_255_32433)" fill-opacity="0.7"/>
<path opacity="0.5" d="M3793 433.887H3748.89L3707.38 447.631L3665.86 475.12L3650.3 492.3L3639.92 485.428L3613.97 471.684H3575.05L3549.1 485.428L3533.54 499.173H3499.81L3468.67 509.481L3440.13 536.97L3424.56 567.895L3421.97 585.075L3408.99 588.511L3388.24 598.82L3383.05 581.639L3359.7 554.15L3338.94 543.842L3310.4 540.406L3292.24 519.789L3271.48 509.481L3245.53 512.917L3229.97 526.661L3216.99 543.842H3193.64L3165.1 557.586L3144.34 581.639L3133.96 605.692L3126.18 636.617L3105.42 622.872L3076.88 619.436L3050.94 629.745L3030.18 653.797L3022.39 674.414L3009.42 633.181L2999.04 612.564L2978.29 585.075L2949.75 567.895L2941.96 564.459H2897.85L2869.31 578.203L2843.37 605.692L2838.18 616L2807.04 629.745L2781.09 650.361L2765.53 667.542L2749.96 664.106H2716.23L2703.26 636.617L2682.5 612.564L2659.15 602.256H2638.39L2609.85 616L2594.28 633.181L2581.31 660.67L2573.52 684.722L2552.77 708.775L2539.79 732.828L2537.2 743.136L2511.25 750.008L2490.5 767.189L2474.93 794.677L2467.14 832.475L2448.98 853.091L2441.2 877.144V911.505L2451.58 942.43L2459.36 956.174L4330.09 959.61L4335.28 952.738L4332.68 914.941L4317.11 880.58L4293.76 859.963L4278.2 853.091H4260.03L4252.25 856.527V829.039L4239.28 777.497L4221.11 739.7L4197.76 705.339L4166.63 674.414L4156.25 670.978L4153.65 664.106L4109.54 643.489L4081 636.617H4008.35L3979.81 622.872L3953.87 616L3935.7 561.023L3920.14 530.098L3896.79 495.737L3868.24 468.248L3837.11 447.631L3793 433.887Z" fill="url(#paint2_linear_255_32433)" fill-opacity="0.7"/>
<path opacity="0.5" d="M4873.8 601H4829.69L4788.18 614.744L4746.66 642.233L4731.1 659.414L4720.72 652.542L4694.77 638.797H4655.85L4629.91 652.542L4614.34 666.286H4580.61L4549.47 676.594L4520.93 704.083L4505.36 735.008L4502.77 752.189L4489.8 755.625L4469.04 765.933L4463.85 748.752L4440.5 721.264L4419.74 710.955L4391.2 707.519L4373.04 686.903L4352.28 676.594L4326.33 680.03L4310.77 693.775L4297.79 710.955H4274.44L4245.9 724.7L4225.14 748.752L4214.76 772.805L4206.98 803.73L4186.22 789.986L4157.68 786.55L4131.74 796.858L4110.98 820.911L4103.2 841.527L4090.22 800.294L4079.84 779.677L4059.09 752.189L4030.55 735.008L4022.76 731.572H3978.65L3950.11 745.316L3924.17 772.805L3918.98 783.113L3887.84 796.858L3861.9 817.474L3846.33 834.655L3830.76 831.219H3797.03L3784.06 803.73L3763.3 779.677L3739.95 769.369H3719.19L3690.65 783.113L3675.08 800.294L3662.11 827.783L3654.33 851.836L3633.57 875.888L3620.59 899.941L3618 910.249L3592.05 917.121L3571.3 934.302L3555.73 961.791L3547.95 999.588L3529.78 1020.2L3522 1044.26V1078.62L3532.38 1109.54L3540.16 1123.29L5410.89 1126.72L5416.08 1119.85L5413.48 1082.05L5397.92 1047.69L5374.56 1027.08L5359 1020.2H5340.83L5333.05 1023.64V996.152L5320.08 944.61L5301.91 906.813L5278.56 872.452L5247.43 841.527L5237.05 838.091L5234.45 831.219L5190.35 810.602L5161.8 803.73H5089.15L5060.61 789.986L5034.67 783.113L5016.51 728.136L5000.94 697.211L4977.59 662.85L4949.04 635.361L4917.91 614.744L4873.8 601Z" fill="url(#paint3_linear_255_32433)" fill-opacity="0.7"/>
<path opacity="0.5" d="M913.801 274.204H869.692L828.178 287.949L786.664 315.437L771.096 332.618L760.717 325.746L734.771 312.001H695.852L669.906 325.746L654.338 339.49H620.608L589.472 349.798L560.931 377.287L545.363 408.212L542.769 425.393L529.795 428.829L509.038 439.137L503.849 421.957L480.497 394.468L459.74 384.159L431.2 380.723L413.037 360.107L392.28 349.798L366.334 353.234L350.766 366.979L337.793 384.159H314.441L285.9 397.904L265.143 421.957L254.765 446.009L246.981 476.934L226.224 463.19L197.683 459.754L171.737 470.062L150.98 494.115L143.196 514.731L130.223 473.498L119.844 452.881L99.0871 425.393L70.5462 408.212L62.7623 404.776H18.6536L-9.88733 418.52L-35.8336 446.009L-41.0229 456.318L-72.1585 470.062L-98.1047 490.679L-113.673 507.859L-129.24 504.423H-162.971L-175.944 476.934L-196.701 452.881L-220.052 442.573H-240.809L-269.35 456.318L-284.918 473.498L-297.891 500.987L-305.675 525.04L-326.432 549.092L-339.405 573.145L-342 583.453L-367.946 590.326L-388.703 607.506L-404.271 634.995L-412.055 672.792L-430.217 693.409L-438.001 717.461V751.822L-427.623 782.747L-419.839 796.492L1450.89 799.928L1456.08 793.056L1453.48 755.258L1437.92 720.897L1414.56 700.281L1399 693.409H1380.83L1373.05 696.845V669.356L1360.08 617.814L1341.91 580.017L1318.56 545.656L1287.43 514.731L1277.05 511.295L1274.45 504.423L1230.35 483.806L1201.8 476.934H1129.15L1100.61 463.19L1074.67 456.318L1056.51 401.34L1040.94 370.415L1017.59 336.054L989.045 308.565L957.909 287.949L913.801 274.204Z" fill="url(#paint4_linear_255_32433)" fill-opacity="0.7"/>
<defs>
<linearGradient id="paint0_linear_255_32433" x1="3356.41" y1="0" x2="3356.41" y2="330.829" gradientUnits="userSpaceOnUse">
<stop stop-color="#F0DBA5"/>
<stop offset="1" stop-color="#F4F0C6" stop-opacity="0.27"/>
</linearGradient>
<linearGradient id="paint1_linear_255_32433" x1="2056.67" y1="1008.74" x2="2056.67" y2="393.746" gradientUnits="userSpaceOnUse">
<stop stop-color="#F3E0F5"/>
<stop offset="1" stop-color="white"/>
</linearGradient>
<linearGradient id="paint2_linear_255_32433" x1="3675.61" y1="959.61" x2="3675.61" y2="344.613" gradientUnits="userSpaceOnUse">
<stop stop-color="#F3E0F5"/>
<stop offset="1" stop-color="white"/>
</linearGradient>
<linearGradient id="paint3_linear_255_32433" x1="4756.41" y1="1126.72" x2="4756.41" y2="511.726" gradientUnits="userSpaceOnUse">
<stop stop-color="#F3E0F5"/>
<stop offset="1" stop-color="white"/>
</linearGradient>
<linearGradient id="paint4_linear_255_32433" x1="796.408" y1="799.928" x2="796.408" y2="184.93" gradientUnits="userSpaceOnUse">
<stop stop-color="#F3E0F5"/>
<stop offset="1" stop-color="white"/>
</linearGradient>
</defs>
</svg>
